<?xml version="1.0" encoding="UTF-8"?>
<svg width="53px" height="53px" viewBox="0 0 53 53" version="1.1" xmlns="http://www.w3.org/2000/svg" xmlns:xlink="http://www.w3.org/1999/xlink">
    <title>编组 11</title>
    <defs>
        <radialGradient cx="19.5813098%" cy="7.45526102%" fx="19.5813098%" fy="7.45526102%" r="185.051987%" id="radialGradient-1">
            <stop stop-color="#3B3AD0" offset="0%"></stop>
            <stop stop-color="#FC7500" offset="100%"></stop>
        </radialGradient>
        <radialGradient cx="19.5813098%" cy="7.45526102%" fx="19.5813098%" fy="7.45526102%" r="185.052069%" id="radialGradient-2">
            <stop stop-color="#3B3AD0" offset="0%"></stop>
            <stop stop-color="#FC7500" offset="100%"></stop>
        </radialGradient>
    </defs>
    <g id="页面-1" stroke="none" stroke-width="1" fill="none" fill-rule="evenodd">
        <g id="Market-详情-提交交易" transform="translate(-952.000000, -344.000000)">
            <g id="编组-11" transform="translate(953.000000, 345.000000)">
                <path d="M0,0 L51,0 L51,51 L0,51 L0,0 Z" id="矩形" stroke="url(#radialGradient-1)" fill="#F0F0F0" stroke-dasharray="2,4"></path>
                <path d="M20.5690089,31.4755397 C21.9624465,32.72391 23.7762865,33.5000549 25.7,33.5000549 C27.6439487,33.5000549 29.4756505,32.7064797 30.8729617,31.5399901 C31.1192157,31.9142812 31.4272786,32.2265917 31.7379735,32.5371652 C32.0200765,32.6645731 32.185105,32.7182145 32.3410564,32.7630299 C30.6563287,34.3609513 28.2819668,35.4 25.7,35.4 C23.1172156,35.4 20.7421427,34.3602662 19.0576781,32.7617363 C19.2278142,32.6934754 19.3996479,32.5934701 19.6018824,32.4592948 C20.0195168,32.2452217 20.3602755,31.8804031 20.5690089,31.4755397 Z M17.7292923,29.207246 C17.9601855,29.0687399 18.2138027,29.0426315 18.4457239,29.108885 C18.6956991,29.180296 18.9187722,29.3559469 19.0677859,29.6042447 C19.2062928,29.8351708 19.2323893,30.0887641 19.1661252,30.3206596 C19.0946861,30.5706648 18.9189716,30.793748 18.6706278,30.9428037 C18.4307873,31.0866856 18.1430281,31.1083672 17.8917727,31.0365792 C17.6549151,30.9689049 17.4447874,30.8166881 17.3535518,30.5886392 C17.1937688,30.3148641 17.1676646,30.0612488 17.2339183,29.8293268 C17.30533,29.5793492 17.4809795,29.3562687 17.7292923,29.207246 Z M32.8304622,29.1763903 C33.1034796,29.0983918 33.4234516,29.1184687 33.6913077,29.219861 C33.9287993,29.3687489 34.0967647,29.5863583 34.1661919,29.8293888 C34.2324365,30.0612789 34.2063276,30.3148545 34.0677586,30.5457489 C33.9314465,30.7729844 33.7302129,30.9136889 33.5051866,30.9779828 C33.2428934,31.0529245 32.9507334,31.0271775 32.686526,30.9215316 C32.4803131,30.8390199 32.3611049,30.6534283 32.301421,30.4445149 C32.2212491,30.163887 32.2447126,29.8336671 32.3536397,29.5613334 C32.4360805,29.3551891 32.621622,29.2360539 32.8304622,29.1763903 Z M30.4001099,22.2500641 L30.4001099,29.1499359 L21.0000732,29.1499359 L21.0000732,22.2500641 L30.4001099,22.2500641 Z M28.4999817,24.1500092 L22.9000549,24.1500092 L22.9000549,27.2499908 L28.4999817,27.2499908 L28.4999817,24.1500092 Z M28.4999817,16.9499542 C30.3724844,16.9245178 32.0688616,18.0845295 33.2970889,19.6297208 C34.6196525,21.2935933 35.4000293,23.4068086 35.4000293,25.7 C35.4000293,26.4894046 35.3203487,27.2787916 35.1601642,28.0030083 C35.0094389,27.8703818 34.8587133,27.7565219 34.7092692,27.6817386 C34.2680592,27.4610625 33.8267994,27.3298601 33.3122905,27.2888054 C33.4143756,26.7591744 33.5000549,26.2294859 33.5000549,25.7 C33.5000549,23.9144978 32.9055937,22.2854873 31.9164418,20.9816103 C30.9671689,19.7303009 29.6540785,18.7787178 28.153915,18.2756647 C28.3472467,17.9112379 28.4999817,17.4688787 28.4999817,16.9499542 Z M22.9912258,16.3749431 C22.9281219,16.5903165 22.9000549,16.7549873 22.9000549,16.9499542 C22.9000549,17.4689199 23.0528143,17.9113081 23.2459487,18.2758386 C21.7457807,18.7788438 20.4328024,19.7303843 19.483593,20.9816117 C18.4944425,22.2854884 17.8999817,23.9144984 17.8999817,25.7 C17.8999817,26.2095038 17.9793162,26.7191953 18.0761511,27.2287539 C17.607632,27.2247545 17.0976215,27.3777773 16.6654463,27.694772 C16.5242948,27.7694332 16.382043,27.8778798 16.2397917,28.0028841 C16.0796735,27.278673 16,26.4893453 16,25.7 C16,23.4068093 16.7803781,21.2935947 18.1029428,19.6297224 C19.3297309,18.0863431 21.0228775,16.9296787 22.9912258,16.3749431 Z M25.7,16 C25.9850157,16 26.2265883,16.0883211 26.3941289,16.2558568 C26.561669,16.423392 26.6499908,16.6649558 26.6499908,16.9499542 C26.6499908,17.234971 26.5616708,17.4765445 26.3941306,17.6440848 C26.2265903,17.8116251 25.9850167,17.8999451 25.7,17.8999451 C25.4150016,17.8999451 25.1734378,17.8116232 25.0059025,17.6440831 C24.8383669,17.4765425 24.7500458,17.23497 24.7500458,16.9499542 C24.7500458,16.6649568 24.8383687,16.423394 25.0059042,16.2558585 C25.1734398,16.0883229 25.4150026,16 25.7,16 Z" id="yemianliu" fill="url(#radialGradient-2)"></path>
            </g>
        </g>
    </g>
</svg>