<?xml version="1.0" encoding="UTF-8"?>
<svg width="21px" height="21px" viewBox="0 0 21 21" version="1.1" xmlns="http://www.w3.org/2000/svg" xmlns:xlink="http://www.w3.org/1999/xlink">
    <title>lianjie (1)</title>
    <g id="页面-1" stroke="none" stroke-width="1" fill="none" fill-rule="evenodd">
        <g id="kepler-bridge-&amp;-侧拉框icon" transform="translate(-20.000000, -301.000000)" fill="#E07D26">
            <g id="lianjie-(1)" transform="translate(20.846685, 301.424265)">
                <path d="M6.15782477,7.32257354 L7.77797852,8.84737978 L6.30722212,10.318427 L2.51519414,13.5875355 L6.39556542,17.467785 L10.1368025,13.7265885 L9.52589276,13.1158219 L10.7930098,11.848811 L12.670812,13.7266133 L6.51568004,19.8817453 L0,13.4803983 L6.15782477,7.32257354 Z M12.258886,6.10767503 L13.5259043,7.37469338 L7.37272327,13.5279078 L6.10570492,12.2608895 L12.258886,6.10767503 Z M13.4803995,0 L20,6.51960049 L13.8467856,12.6727815 L11.9690185,10.7950144 L13.2360294,9.52789746 L13.8467578,10.138769 L17.5879995,6.39756788 L13.724599,2.53420782 L10.1901328,6.06947508 L8.82127267,7.75430433 L7.32060592,6.15982701 L13.4803995,0 Z" id="Fill-1"></path>
            </g>
        </g>
    </g>
</svg>