<?xml version="1.0" encoding="UTF-8"?>
<svg width="21px" height="22px" viewBox="0 0 21 22" version="1.1" xmlns="http://www.w3.org/2000/svg" xmlns:xlink="http://www.w3.org/1999/xlink">
    <title>zuhetouzi</title>
    <g id="页面-1" stroke="none" stroke-width="1" fill="none" fill-rule="evenodd">
        <g id="kepler-bridge-&amp;-侧拉框icon" transform="translate(-20.000000, -419.000000)" fill="#FFFFFF">
            <g id="zuhetouzi" transform="translate(20.846685, 419.500000)">
                <path d="M9.99997829,0 L19.8234241,4.69424462 L9.99997829,9.38840137 L0.181658547,4.69424462 L9.99997829,0 Z M9.99995301,1.85149643 L4.04495739,4.69405032 L9.99995301,7.54229066 L15.9550496,4.69405032 L9.99995301,1.85149643 Z" id="Fill-1"></path>
                <path d="M0,5.9428232 L9.40404347,10.4237901 L9.40404347,21.1686276 L0,16.6876607 L0,5.9428232 Z M1.66727028,8.58606385 L1.66727028,15.6378944 L7.7366808,18.5253869 L7.7366808,11.4735564 L1.66727028,8.58606385 Z M20,5.9428232 L20,16.6876607 L10.5959565,21.1686276 L10.5959565,10.4237901 L20,5.9428232 Z M18.3327297,8.58606709 L12.263196,11.4735551 L12.263196,18.5253837 L18.3327297,15.6378957 L18.3327297,8.58606709 Z" id="Fill-2"></path>
            </g>
        </g>
    </g>
</svg>