<?xml version="1.0" encoding="UTF-8"?>
<svg width="21px" height="18px" viewBox="0 0 21 18" version="1.1" xmlns="http://www.w3.org/2000/svg" xmlns:xlink="http://www.w3.org/1999/xlink">
    <title>xinwen备份</title>
    <g id="页面-1" stroke="none" stroke-width="1" fill="none" fill-rule="evenodd">
        <g id="Market" transform="translate(-20.000000, -542.000000)" fill="#FFFFFF">
            <path d="M36.4489438,542.3 L36.4489438,546.151056 L40.3,546.151056 L40.3,557.434873 C40.3,558.066778 40.0412152,558.641056 39.6248021,559.057469 C39.2500303,559.432241 38.7473883,559.679334 38.1899489,559.725004 L38.0022065,559.732667 L22.5977935,559.732667 C21.9658885,559.732667 21.3916111,559.473882 20.9751979,559.057469 C20.6004261,558.682697 20.3533332,558.180055 20.3076624,557.622616 L20.3,557.434873 L20.3,542.3 L36.4489438,542.3 Z M34.4206148,544.328216 L22.3282162,544.328216 L22.3282162,557.704451 L34.4206148,557.704451 L34.4206148,544.328216 Z M38.2717838,548.179385 L36.4489438,548.179385 L36.4489438,556.793012 L36.4547854,556.90713 C36.4779424,557.129147 36.5686869,557.313264 36.7044123,557.448989 C36.8627362,557.607313 37.086922,557.704451 37.3603826,557.704451 C37.6337649,557.704451 37.8579662,557.60731 38.0163112,557.448956 C38.1746478,557.29061 38.2717838,557.066407 38.2717838,556.793012 L38.2717838,556.793012 L38.2717838,548.179385 Z M30.0304039,553.853282 L30.0304039,555.88146 L24.1510186,555.88146 L24.1510186,553.853282 L30.0304039,553.853282 Z M32.5977747,550.002225 L32.5977747,552.030441 L24.1510186,552.030441 L24.1510186,550.002225 L32.5977747,550.002225 Z M32.5977747,546.151056 L32.5977747,548.179385 L24.1510186,548.179385 L24.1510186,546.151056 L32.5977747,546.151056 Z" id="xinwen备份"></path>
        </g>
    </g>
</svg>