<?xml version="1.0" encoding="UTF-8"?>
<svg width="19px" height="20px" viewBox="0 0 19 20" version="1.1" xmlns="http://www.w3.org/2000/svg" xmlns:xlink="http://www.w3.org/1999/xlink">
    <title>zuhetouzi</title>
    <g id="页面-1" stroke="none" stroke-width="1" fill="none" fill-rule="evenodd">
        <g id="Market" transform="translate(-21.000000, -360.000000)" fill="#FFFFFF">
            <g id="zuhetouzi" transform="translate(21.000000, 360.000000)">
                <path d="M9.19353035,0 L18.2247647,4.31567741 L9.19353034,8.63127403 L0.167008699,4.31567741 L9.19353035,0 Z M9.19350711,1.70218256 L3.71875193,4.31549878 L9.1935071,6.93404286 L14.6683551,4.31549878 L9.19350711,1.70218256 Z" id="Fill-1"></path>
                <path d="M0,5.4635644 L8.64565467,9.58316386 L8.64565467,19.4614842 L0,15.3418848 L0,5.4635644 Z M1.53281332,7.893641 L1.53281332,14.3767769 L7.11275641,17.0314077 L7.11275641,10.5482718 L1.53281332,7.893641 Z M18.3871006,5.4635644 L18.3871006,15.3418848 L9.74144594,19.4614842 L9.74144594,9.58316386 L18.3871006,5.4635644 Z M16.8542873,7.89364397 L11.2742309,10.5482706 L11.2742309,17.0314047 L16.8542873,14.3767781 L16.8542873,7.89364397 Z" id="Fill-2"></path>
            </g>
        </g>
    </g>
</svg>