<?xml version="1.0" encoding="UTF-8"?>
<svg width="21px" height="19px" viewBox="0 0 21 19" version="1.1" xmlns="http://www.w3.org/2000/svg" xmlns:xlink="http://www.w3.org/1999/xlink">
    <title>xinwen备份</title>
    <g id="页面-1" stroke="none" stroke-width="1" fill="none" fill-rule="evenodd">
        <g id="kepler-bridge-&amp;-侧拉框icon" transform="translate(-20.000000, -362.000000)" fill="#FFFFFF">
            <path d="M36.9956291,362.8 L36.9956291,366.651056 L40.8466853,366.651056 L40.8466853,377.934873 C40.8466853,378.566778 40.5879005,379.141056 40.1714874,379.557469 C39.7967156,379.932241 39.2940737,380.179334 38.7366342,380.225004 L38.5488918,380.232667 L23.1444788,380.232667 C22.5125738,380.232667 21.9382964,379.973882 21.5218833,379.557469 C21.1471114,379.182697 20.9000186,378.680055 20.8543477,378.122616 L20.8466853,377.934873 L20.8466853,362.8 L36.9956291,362.8 Z M34.9673001,364.828216 L22.8749015,364.828216 L22.8749015,378.204451 L34.9673001,378.204451 L34.9673001,364.828216 Z M38.8184691,368.679385 L36.9956291,368.679385 L36.9956291,377.293012 L37.0014707,377.40713 C37.0246278,377.629147 37.1153722,377.813264 37.2510977,377.948989 C37.4094215,378.107313 37.6336073,378.204451 37.9070679,378.204451 C38.1804502,378.204451 38.4046515,378.10731 38.5629965,377.948956 C38.7213331,377.79061 38.8184691,377.566407 38.8184691,377.293012 L38.8184691,377.293012 L38.8184691,368.679385 Z M30.5770892,374.353282 L30.5770892,376.38146 L24.6977039,376.38146 L24.6977039,374.353282 L30.5770892,374.353282 Z M33.14446,370.502225 L33.14446,372.530441 L24.6977039,372.530441 L24.6977039,370.502225 L33.14446,370.502225 Z M33.14446,366.651056 L33.14446,368.679385 L24.6977039,368.679385 L24.6977039,366.651056 L33.14446,366.651056 Z" id="xinwen备份"></path>
        </g>
    </g>
</svg>