<?xml version="1.0" encoding="UTF-8"?>
<svg width="32px" height="32px" viewBox="0 0 32 32" version="1.1" xmlns="http://www.w3.org/2000/svg" xmlns:xlink="http://www.w3.org/1999/xlink">
    <title>USDC备份</title>
    <g id="页面-1" stroke="none" stroke-width="1" fill="none" fill-rule="evenodd">
        <g id="kepler-passport" transform="translate(-1303.000000, -1206.000000)" fill-rule="nonzero">
            <g id="USDC备份" transform="translate(1303.000000, 1206.000000)">
                <path d="M32,16.000062 C32,24.8366767 24.8366767,32 16.000062,32 C7.16344729,32 0,24.8366767 0,16.000062 C0,7.16344729 7.16344729,0 16.000062,0 C24.8366767,0 32,7.16344729 32,16.000062" id="Fill-3" fill="#2775CA"></path>
                <path d="M17.041104,23.4633939 C17.0448231,23.1072887 17.0420337,22.7508736 17.0420337,22.3944585 C17.0420337,21.9875255 17.0429635,21.9906247 17.4278918,21.8948575 C18.4683139,21.6360692 19.3373469,21.1203521 19.9227974,20.1961523 C20.3687811,19.4916901 20.4927516,18.7190442 20.4131006,17.8952605 C20.3207426,16.9397581 19.9296158,16.1748603 19.0903357,15.6723771 C18.2386586,15.1625485 17.2809868,15.0115215 16.3248646,14.841434 C15.7674004,14.7422886 15.2090065,14.6195269 14.6718734,14.4438917 C14.0487359,14.2401153 13.8117663,13.7450393 13.834019,13.1063744 C13.8547841,12.5106963 14.169762,12.0137917 14.7664939,11.8433943 C15.1848942,11.7238868 15.6394009,11.6972641 16.0787832,11.6911896 C17.0699271,11.6774288 17.7164331,12.2270519 17.9274928,13.0061443 C17.9997056,13.2730837 18.1989881,13.4096372 18.4900087,13.4029738 C18.8371261,13.3950086 19.1848632,13.4071267 19.5319805,13.3989757 C19.8722794,13.3909796 20.105034,13.1087608 20.0105065,12.7819747 C19.9100904,12.4337417 19.7975872,12.079744 19.6258881,11.7629994 C19.1219482,10.8316714 18.2870071,10.337742 17.2816067,10.1077768 C17.0925517,10.0645421 17.0355253,9.98191582 17.0392444,9.80020611 C17.0479223,9.36395405 17.0469926,8.92729907 17.0395543,8.491016 C17.0342856,8.16667831 16.8238457,7.9589038 16.5024523,7.95292221 C16.1819887,7.94694065 15.8613081,7.94912225 15.5406894,7.95189947 C15.1640052,7.95499874 14.9650016,8.15084106 14.9609416,8.52743235 C14.9566336,8.92816686 14.9519227,9.32924233 14.96308,9.72972891 C14.9686277,9.92876347 14.8972827,10.0086624 14.6980002,10.0452957 C14.0599552,10.1625408 13.4696389,10.4040043 12.9505745,10.8007407 C11.8768043,11.6213942 11.5570845,12.7294112 11.735757,14.0220512 C11.8821661,15.0812549 12.4837637,15.8155319 13.4550103,16.1906666 C14.1290688,16.4506946 14.8527463,16.5848927 15.5572395,16.7634101 C16.1671122,16.9180633 16.789134,17.0302566 17.3910106,17.2109435 C17.8001131,17.3336742 18.0871047,17.6293438 18.1986781,18.0660298 C18.4193456,18.9279344 18.0362768,19.7151469 17.22551,20.0910873 C16.7466741,20.3133044 16.243664,20.3191929 15.7347652,20.3002874 C14.5789886,20.2572077 13.7939146,19.7012002 13.6008926,18.6322649 C13.5468725,18.3331861 13.3443667,18.170165 13.0635116,18.1633466 C12.6718579,18.1540488 12.2794604,18.1512595 11.8880237,18.1645863 C11.5833972,18.1751238 11.3590417,18.4289533 11.4049728,18.7193541 C11.5224967,19.4631769 11.7966575,20.1391259 12.3087174,20.7072205 C12.9608331,21.4302782 13.8079233,21.7708871 14.7376707,21.9363877 C14.9309407,21.9707895 14.9678219,22.0516802 14.9616854,22.2168708 C14.9606626,22.2435245 14.9598878,22.2701781 14.959299,22.2968318 C14.9551459,22.4840272 14.9597638,22.6712226 14.9598878,22.8581081 C14.9598878,23.0539814 14.9584621,23.2501647 14.9601977,23.446038 C14.9635139,23.819499 15.1234978,24.029319 15.4853986,24.0578322 C15.8302225,24.0847958 16.180439,24.083866 16.5253868,24.0565925 C16.8718843,24.0290091 17.0370749,23.8176394 17.041104,23.4633939" id="Fill-4" fill="#FFFFFF"></path>
                <path d="M13.0337587,26.3199833 C13.0337587,25.6582909 12.9357911,25.5209936 12.3161557,25.2690236 C11.538458,24.952589 10.7929306,24.5716898 10.1273952,24.0565925 C6.95353431,21.6007376 5.59875409,18.3644887 6.16477226,14.4012769 C6.52478246,11.8802445 7.79011799,9.8161053 9.77739555,8.20879724 C10.593927,7.54837561 11.4983535,7.04065458 12.4793318,6.66936303 C12.8002603,6.54793395 13.0098634,6.3344878 13.028366,5.98640973 C13.0467756,5.64016024 13.041011,5.2918962 13.0297916,4.94505785 C13.0204009,4.6543161 12.8202196,4.4721105 12.524736,4.48109836 C12.3942881,4.48506542 12.2599351,4.51376461 12.1360266,4.55641044 C10.1534289,5.23865088 8.44059101,6.33489072 7.03467299,7.89772437 C5.05839783,10.094512 4.03920567,12.6830463 3.90705314,15.6230678 C3.85774389,16.7203304 3.98840875,17.8072414 4.25497624,18.8733874 C4.88530408,21.393707 6.18442156,23.5064736 8.15933304,25.1952612 C9.36336516,26.2248359 10.7230112,26.9850848 12.2327855,27.4725987 C12.7532445,27.6405786 13.03255,27.4354075 13.0336967,26.8809496 C13.0339447,26.7563593 13.0337587,26.631769 13.0337587,26.5068687 C13.0337587,26.4445736 13.0337587,26.3822784 13.0337587,26.3199833" id="Fill-5" fill="#FFFFFF"></path>
                <path d="M19.5775397,6.68929127 C20.7980289,7.15607105 21.901366,7.82315614 22.8323842,8.73728335 C25.3654107,11.2252466 26.4287673,14.2425637 25.8002371,17.746186 C25.1676778,21.2715961 23.1172063,23.7457366 19.8456258,25.1974307 C19.6420043,25.2876192 19.4854916,25.355803 19.3655501,25.4193379 C19.349434,25.4277059 19.3342476,25.4360739 19.3193712,25.4444419 C19.2087275,25.5070469 19.1327956,25.5671726 19.081038,25.6427946 C19.0742196,25.6530221 19.0677111,25.6632497 19.0615126,25.6740971 C19.0584133,25.6793659 19.055624,25.6849446 19.0525247,25.6902133 C19.046946,25.7013706 19.0416773,25.712528 19.0367185,25.7243052 C19.0292803,25.741971 19.0224619,25.7602566 19.0165733,25.779782 C19.0128542,25.7927989 19.0091351,25.8061257 19.0057259,25.8200724 C19.0041762,25.8268908 19.0026266,25.834019 19.001077,25.8411473 C18.9979777,25.8554039 18.9951884,25.8702804 18.992709,25.8857767 C18.9902296,25.901273 18.9877502,25.9170793 18.9858906,25.9338153 C18.9688447,26.0742118 18.9682248,26.2573782 18.9682248,26.5084184 C18.9682248,26.5483989 18.9697745,26.5886893 18.9710141,26.6289797 C18.971634,26.6423065 18.9719439,26.6559432 18.9722539,26.66927 C18.9728737,26.6959237 18.9731836,26.7228873 18.9722539,26.749231 C18.9713241,26.7758847 18.9694645,26.8025383 18.9660553,26.8285721 C18.8935326,27.3734223 19.2660638,27.6508062 19.8223813,27.4645406 C24.5862563,25.8681109 27.8937883,21.5325539 28.0946205,16.394598 C28.1500972,14.9698054 27.9408971,13.5729993 27.4865453,12.2204195 C26.606355,9.59934298 25.0179834,7.51019271 22.7260795,5.96170861 C21.8065286,5.34052363 20.8132153,4.86518987 19.7579167,4.52281442 C19.2632745,4.36233466 18.9703943,4.57636969 18.9682248,5.08635318 C18.9672951,5.32679389 18.967605,5.5672346 18.9682248,5.80770633 C18.9691546,6.31291697 19.1073817,6.50950309 19.5775397,6.68929127" id="Fill-6" fill="#FFFFFF"></path>
            </g>
        </g>
    </g>
</svg>