<?xml version="1.0" encoding="UTF-8"?>
<svg width="19px" height="22px" viewBox="0 0 21 24" version="1.1" xmlns="http://www.w3.org/2000/svg" xmlns:xlink="http://www.w3.org/1999/xlink">
    <title>tuijianchanpin</title>
    <defs>
        <polygon id="path-1" points="0 0 20.3490657 0 20.3490657 24 0 24"></polygon>
    </defs>
    <g id="页面-1" stroke="none" stroke-width="1" fill="none" fill-rule="evenodd">
        <g id="kepler-盲盒" transform="translate(-458.000000, -957.000000)">
            <g id="编组-13" transform="translate(458.000000, 954.000000)">
                <g id="tuijianchanpin" transform="translate(0.000000, 3.000000)">
                    <g id="编组">
                        <mask id="mask-2" fill="white">
                            <use xlink:href="#path-1"></use>
                        </mask>
                        <g id="Clip-2"></g>
                        <path d="M-0.00210937088,0.261351052 L-0.00210937088,24 L10.2386402,20.4717608 L20.3490657,24 L20.3490657,0 L0.247569829,0 C0.109546661,0 -0.00210937088,0.117140396 -0.00210937088,0.261351052 Z M18.656612,21.5429345 L10.2430347,18.605741 L1.68992248,21.5522509 L1.68992248,2.9464044 C1.68992248,2.29682364 2.193359,1.77032467 2.81421716,1.77032467 L17.5226845,1.77032467 C18.148781,1.77032467 18.6563307,2.30121816 18.6563307,2.95614266 L18.6563307,21.5429345 L18.656612,21.5429345 Z" id="Fill-1" fill="#333337" mask="url(#mask-2)"></path>
                    </g>
                    <path d="M16.300058,8.79811563 L12.0840584,8.1550036 L10.1956441,4.14280441 L8.30722987,8.1550036 L4.09221466,8.79811563 L7.14296261,11.9172775 L6.42212027,16.32414 L10.1964879,14.2432105 L13.9705391,16.32414 L13.2496968,11.9168556 L16.300058,8.797975 L16.300058,8.79811563 Z M12.3382728,14.0377577 L10.1962066,12.8566155 L8.05414052,14.0377577 L8.463253,11.5350947 L6.7271353,9.76009422 L9.12587671,9.394259 L10.1962066,7.12035719 L11.266396,9.394259 L13.6654186,9.76009422 L11.9293009,11.5350947 L12.3384134,14.0377577 L12.3382728,14.0377577 Z" id="Fill-3" fill="#E76558"></path>
                </g>
            </g>
        </g>
    </g>
</svg>