<?xml version="1.0" encoding="UTF-8"?>
<svg width="14px" height="14px" viewBox="0 0 14 14" version="1.1" xmlns="http://www.w3.org/2000/svg" xmlns:xlink="http://www.w3.org/1999/xlink">
    <title>guanyu</title>
    <g id="页面-1" stroke="none" stroke-width="1" fill="none" fill-rule="evenodd" opacity="0.400000006">
        <g id="kepler-mint-展开地址" transform="translate(-1521.000000, -776.000000)" fill="#FFFFFF">
            <path d="M1527.9,776 C1529.79752,776 1531.52241,776.776439 1532.773,778.027021 C1534.02358,779.277604 1534.80003,781.00249 1534.80003,782.9 C1534.80003,784.79752 1534.02359,786.522403 1532.773,787.772983 C1531.52242,789.023565 1529.79752,789.8 1527.9,789.8 C1526.00249,789.8 1524.2776,789.023564 1523.02702,787.77298 C1521.77644,786.522401 1521,784.797518 1521,782.9 C1521,781.002491 1521.77644,779.277606 1523.02702,778.027023 C1524.21179,776.84226 1525.82224,776.083044 1527.60187,776.006408 L1527.9,776 L1527.9,776 Z M1527.9,777.408343 C1526.3898,777.408343 1525.01678,778.025958 1524.02138,779.021361 C1523.02598,780.016762 1522.40837,781.38979 1522.40837,782.9 C1522.40837,784.41021 1523.02598,785.783238 1524.02138,786.778639 C1525.01678,787.774042 1526.3898,788.391657 1527.9,788.391657 C1529.41021,788.391657 1530.78324,787.774044 1531.77864,786.778642 C1532.77404,785.783241 1533.39166,784.410212 1533.39166,782.9 C1533.39166,781.389788 1532.77404,780.016759 1531.77864,779.021358 C1530.78324,778.025956 1529.41021,777.408343 1527.9,777.408343 L1527.9,777.408343 Z M1528.60418,781.310707 L1528.60418,784.851143 L1529.48929,784.851143 L1529.48929,786.259589 L1526.31073,786.259589 L1526.31073,784.851143 L1527.19584,784.851143 L1527.19584,782.719075 L1526.31073,782.719075 L1526.31073,781.310707 L1528.60418,781.310707 Z M1528.60418,778.655301 L1528.60418,780.063774 L1527.19584,780.063774 L1527.19584,778.655301 L1528.60418,778.655301 Z" id="guanyu"></path>
        </g>
    </g>
</svg>