<?xml version="1.0" encoding="UTF-8"?>
<svg width="21px" height="21px" viewBox="0 0 24 24" version="1.1" xmlns="http://www.w3.org/2000/svg" xmlns:xlink="http://www.w3.org/1999/xlink">
    <title>zhanghuzonglan</title>
    <g id="页面-1" stroke="none" stroke-width="1" fill="none" fill-rule="evenodd">
        <g id="kepler-盲盒" transform="translate(-967.000000, -957.000000)">
            <g id="编组-10" transform="translate(967.000000, 954.000000)">
                <g id="zhanghuzonglan" transform="translate(0.000000, 3.000000)">
                    <path d="M11.8263739,0.211228747 L11.644885,0.212797389 C5.18497957,0.317480551 0,5.5821966 0,12.0446038 C0,18.5799211 5.29791873,23.8779828 11.833379,23.8779828 C18.3688035,23.8779828 23.666758,18.5799211 23.666758,12.0446038 L23.6661862,12.0154398 C23.650389,11.5554272 23.2730435,11.1907695 22.812745,11.1907695 L12.6873563,11.1906265 L12.6873563,1.06509489 C12.6873563,0.837393822 12.5963259,0.619199657 12.4346728,0.45876172 C12.2731269,0.298502484 12.0541107,0.209294845 11.8263739,0.211228747 Z M10.979366,1.95456224 L10.979366,12.0446038 L10.9799378,12.0739466 C10.9956993,12.5339592 11.3730805,12.8986169 11.833379,12.8986169 L21.9229917,12.8984739 L21.9105898,13.039076 C21.4110485,18.1644408 17.089982,22.1701355 11.833379,22.1701355 C6.2411394,22.1701355 1.70784737,17.6368434 1.70784737,12.0446038 C1.70784737,6.79136039 5.71200515,2.46300289 10.8460549,1.96657096 L10.979366,1.95456224 L10.979366,1.95456224 Z" id="Fill-1" fill="#333337"></path>
                    <path d="M13.9072779,0 C19.2900797,0.41408642 23.5857706,4.70977734 24,10.0925791 L13.9071349,10.0925791 L13.9071349,0 L13.9072779,0 Z M15.6149823,2.03358391 L15.6149823,8.38473177 L21.9664161,8.38458881 L21.9639143,8.37579671 C21.0934607,5.35324462 18.725098,2.96350922 15.7153766,2.06274795 L15.6149823,2.03358391 Z" id="Fill-2" fill="#E76558"></path>
                </g>
            </g>
        </g>
    </g>
</svg>