<?xml version="1.0" encoding="UTF-8"?>
<svg width="23px" height="16px" viewBox="0 0 23 16" version="1.1" xmlns="http://www.w3.org/2000/svg" xmlns:xlink="http://www.w3.org/1999/xlink">
    <title>Youtube-fill</title>
    <g id="页面-1" stroke="none" stroke-width="1" fill="none" fill-rule="evenodd">
        <g id="kepler-盲盒" transform="translate(-942.000000, -205.000000)" fill="#FFFFFF">
            <g id="编组-22" transform="translate(820.000000, 201.000000)">
                <g id="Youtube-fill" transform="translate(122.000000, 4.000000)">
                    <path d="M22.3516813,2.49937301 C22.0893236,1.5159933 21.3147664,0.741436073 20.3338389,0.478950951 C18.5529083,0 11.4139945,0 11.4139945,0 C11.4139945,0 4.27511256,0 2.49427745,0.476466865 C1.51086589,0.738824597 0.738824597,1.51338182 0.476466865,2.49676153 C0,4.28020812 0,8 0,8 C0,8 0,11.7197919 0.476466865,13.5007544 C0.738824597,14.4841659 1.51338182,15.2586913 2.49427745,15.521049 C4.27511256,16 11.4139945,16 11.4139945,16 C11.4139945,16 18.5529083,16 20.3338389,15.521049 C21.3172505,15.2586913 22.0893236,14.4841659 22.3516813,13.5007544 C22.8281482,11.7197919 22.8281482,8 22.8281482,8 C22.8281482,8 22.8281482,4.28020812 22.3516813,2.49937301 Z M9.14650138,11.4139945 L9.14650138,4.58600552 L15.0574166,7.97449034 L9.14650138,11.4139945 Z" id="Fill-1"></path>
                </g>
            </g>
        </g>
    </g>
</svg>