<?xml version="1.0" encoding="UTF-8"?>
<svg width="32px" height="32px" viewBox="0 0 32 32" version="1.1" xmlns="http://www.w3.org/2000/svg" xmlns:xlink="http://www.w3.org/1999/xlink">
    <title>bnb备份</title>
    <defs>
        <polygon id="path-1" points="0 0 31.9976562 0 31.9976562 32 0 32"></polygon>
    </defs>
    <g id="页面-1" stroke="none" stroke-width="1" fill="none" fill-rule="evenodd">
        <g id="个人中心" transform="translate(-697.000000, -578.000000)">
            <g id="bnb备份" transform="translate(697.000000, 578.000000)">
                <g id="编组">
                    <mask id="mask-2" fill="white">
                        <use xlink:href="#path-1"></use>
                    </mask>
                    <g id="Clip-2"></g>
                    <path d="M-0.00234375286,16.0000977 C-0.00234375286,24.8365928 7.16106343,32 15.9977539,32 C24.8342491,32 31.9976562,24.8365928 31.9976562,16.0000977 C31.9976562,7.16340718 24.8342491,0 15.9977539,0 C7.16106343,0 -0.00234375286,7.16340718 -0.00234375286,16.0000977 Z" id="Fill-1" fill="#F3BA2F" mask="url(#mask-2)"></path>
                </g>
                <path d="M12.1136085,14.404002 L15.9977539,10.5200128 L19.8836961,14.4059941 L22.1436989,12.1459914 L15.9977539,6.00008545 L9.85360578,12.1440383 L12.1136085,14.404002 Z M5.9977417,16.0000977 L8.25770539,13.7399386 L10.5176691,16.0000977 L8.25770539,18.2600614 L5.9977417,16.0000977 Z M12.1136085,17.595998 L15.9977539,21.4799872 L19.8836961,17.5940059 L22.1436989,19.8530711 L15.9977539,26.0001099 L9.85071515,19.8530711 L12.1136085,17.595998 Z M21.4776434,16.0000977 L23.7376071,13.7399386 L25.9977661,16.0000977 L23.7376071,18.2600614 L21.4776434,16.0000977 Z M18.2895926,15.9979492 L18.2917411,15.9979492 L18.2917411,16.0000977 L15.9977539,18.2940848 L13.702673,16.0000977 L13.7066183,15.9970117 L14.1076344,15.5949409 L14.3026346,15.3999407 L15.9977539,13.7060714 L18.2906864,15.9990039 L18.2895926,15.9979492 Z" id="Fill-3" fill="#FFFFFF"></path>
            </g>
        </g>
    </g>
</svg>