<?xml version="1.0" encoding="UTF-8"?>
<svg width="20px" height="18px" viewBox="0 0 20 18" version="1.1" xmlns="http://www.w3.org/2000/svg" xmlns:xlink="http://www.w3.org/1999/xlink">
    <title>tianjiahaoyou</title>
    <defs>
        <polygon id="path-1" points="20 0 20 17.7570995 8.67361738e-18 17.7570995 9.18692206e-13 0"></polygon>
    </defs>
    <g id="页面-1" stroke="none" stroke-width="1" fill="none" fill-rule="evenodd">
        <g id="kepler-icon-new" transform="translate(-940.000000, -457.000000)">
            <g id="tianjiahaoyou" transform="translate(940.000000, 457.000000)">
                <mask id="mask-2" fill="#E07D26">
                    <use xlink:href="#path-1"></use>
                </mask>
                <g id="Clip-2"></g>
                <path d="M12.0913464,11.2244334 L14.3878491,13.4116841 L14.3878491,17.7570995 L-0.00197305264,17.7570995 L-0.00197305264,13.4116845 L2.29456211,11.2244334 L12.0913464,11.2244334 Z M11.2755567,13.2673854 L3.11032223,13.2673854 L2.04088027,14.3367229 L2.04088027,15.7142791 L12.3448971,15.7142791 L12.3448971,14.3367258 L11.2755567,13.2673854 Z M17.7551594,5.61228246 L17.7551594,7.8571231 L20,7.8571231 L20,9.89997643 L17.7551594,9.89997643 L17.7551594,12.1448171 L15.712306,12.1448171 L15.712306,9.89997643 L13.4674654,9.89997643 L13.4674654,7.8571231 L15.712306,7.8571231 L15.712306,5.61228246 L17.7551594,5.61228246 Z M7.19293801,0 C8.23182283,0 9.18843213,0.437880475 9.88549327,1.13493578 C10.5289363,1.77837345 10.9515398,2.64296311 11.0127484,3.5892706 L11.0204401,3.82746924 L11.0204401,6.0724743 C11.0204401,7.11136087 10.5825582,8.06797164 9.88549676,8.76503305 C9.18843535,9.46209445 8.23182458,9.89997643 7.19293801,9.89997643 C6.15400544,9.89997643 5.19736397,9.46209718 4.50028216,8.76503871 C3.85681904,8.12159713 3.43420615,7.25699929 3.37299626,6.31067682 L3.36530435,6.0724743 L3.36530435,3.82746924 C3.36530435,2.7885942 3.8031987,1.8319879 4.50028565,1.13493012 C5.1973672,0.437877748 6.15400719,0 7.19293801,0 Z M7.19293801,2.04282044 C6.71701626,2.04282044 6.27033927,2.25012723 5.94297689,2.57748962 C5.61559081,2.90487569 5.40828921,3.35158294 5.40828921,3.82746924 L5.40828921,3.82746924 L5.40828921,6.0724743 L5.41584729,6.22990248 C5.45583801,6.64616801 5.65196322,7.03145259 5.94296841,7.32245778 C6.27033148,7.64982085 6.71701198,7.8571231 7.19293801,7.8571231 C7.66882461,7.8571231 8.11551727,7.64981113 8.44289605,7.32243234 C8.77027484,6.99505356 8.97758681,6.5483609 8.97758681,6.0724743 L8.97758681,6.0724743 L8.97758681,3.82746924 L8.97002815,3.67004902 C8.93003443,3.25380285 8.7338956,2.86852307 8.44288757,2.57751505 C8.11550947,2.25013695 7.66882032,2.04282044 7.19293801,2.04282044 L7.19293801,2.04282044 Z" id="Fill-1" fill="#E07D26" mask="url(#mask-2)"></path>
            </g>
        </g>
    </g>
</svg>