<?xml version="1.0" encoding="UTF-8"?>
<svg width="17px" height="17px" viewBox="0 0 21 21" version="1.1" xmlns="http://www.w3.org/2000/svg" xmlns:xlink="http://www.w3.org/1999/xlink">
    <title>矩形 2</title>
    <g id="页面-1" stroke="none" stroke-width="1" fill="none" fill-rule="evenodd">
        <g id="kepler-icon-new" transform="translate(-939.000000, -203.000000)">
            <g id="blog" transform="translate(940.000000, 203.000000)">
                <path d="M7.4997284,0 L7.4997284,1.87496262 C8.93469087,1.87496262 10.3259536,2.15551978 11.6346263,2.70931012 C12.8995504,3.24430225 14.0358167,4.01043911 15.01264,4.98670088 C15.9894388,5.96293823 16.7550386,7.099766 17.2906899,8.36469013 C17.8443826,9.67346047 18.1250374,11.06465 18.1250374,12.499588 L20,12.499588 C20,5.59608021 14.4039198,0 7.50041197,0 L7.4997284,0 Z" id="Fill-1" fill="#FFFFFF"></path>
                <g id="编组" transform="translate(0.000000, 3.749925)">
                    <path d="M7.4997284,0 L7.4997284,1.87484055 C9.33597159,1.87484055 11.0627457,2.58988046 12.3608231,3.88856813 C13.6589248,5.18723138 14.3745506,6.91351725 14.3745506,8.74966279 L16.2495133,8.74966279 C16.2495133,3.91735136 12.3321375,0 7.4997284,0 Z" id="Fill-2" fill="#FFFFFF"></path>
                    <path d="M9.37469102,3.74980317 L8.12475663,4.99973756 L3.74992523,6.24980317 L0,14.3744286 L0.495613548,14.8700421 L5.04228987,10.3233658 C5.01482495,10.2202686 4.99985962,10.1114587 4.99985962,9.99959718 C4.99985962,9.30897053 5.55916736,8.74966279 6.24979401,8.74966279 C6.94042066,8.74966279 7.4997284,9.30897053 7.4997284,9.99959718 C7.4997284,10.6902238 6.94042066,11.2495316 6.24979401,11.2495316 C6.13793247,11.2495316 6.02922023,11.2345662 5.92602539,11.2071013 L1.37934907,15.7537776 L1.87496262,16.2493912 L9.99971925,12.499588 L11.2496536,8.12463456 L12.499588,6.87470017 L9.37469102,3.74980317 Z" id="Fill-4" stroke="#FFFFFF" stroke-width="1.5"></path>
                </g>
            </g>
        </g>
    </g>
</svg>