<?xml version="1.0" encoding="UTF-8"?>
<svg width="20px" height="23px" viewBox="0 0 20 23" version="1.1" xmlns="http://www.w3.org/2000/svg" xmlns:xlink="http://www.w3.org/1999/xlink">
    <title>qiandao (1)</title>
    <defs>
        <polygon id="path-1" points="0 -1.99045582e-17 20 9.37624117e-13 20 22.9483932 9.37635386e-13 22.9483932"></polygon>
    </defs>
    <g id="页面-1" stroke="none" stroke-width="1" fill="none" fill-rule="evenodd">
        <g id="kepler-icon-new" transform="translate(-1259.000000, -353.000000)">
            <g id="qiandao-(1)" transform="translate(1259.000000, 353.000000)">
                <!-- <mask id="mask-2" fill="#E07D26">
                    <use xlink:href="#path-1"></use>
                </mask> -->
                <g id="Clip-2"></g>
                <path d="M9.998727,0.1 C12.7807828,0.1 15.2806554,0.734204476 17.0870948,1.7664696 C17.9824854,2.27812833 18.7053398,2.88633054 19.1966705,3.56518685 C19.5470626,4.04931279 19.7780546,4.56879022 19.8630651,5.1070812 L19.890483,5.33888096 L19.9,17.3660203 C19.9,18.080683 19.6469192,18.7612121 19.1966642,19.3832889 C18.7053276,20.0621243 17.9824653,20.6703126 17.0870658,21.1819615 C15.280628,22.2141955 12.7807676,22.8483932 9.998727,22.8483932 C7.21666725,22.8483932 4.71679761,22.2141965 2.91035455,21.1819638 C2.01495144,20.6703151 1.29208697,20.0621267 0.800748976,19.3832912 C0.450353234,18.8991823 0.21935803,18.3797259 0.134346321,17.8414611 L0.106927997,17.6096729 L0.0974108512,5.58254542 C0.0974108512,4.86784399 0.350488824,4.1872846 0.800742675,3.56518454 C1.29207475,2.88632813 2.01493137,2.27812593 2.91032552,1.76646731 C4.71677022,0.734203473 7.21665206,0.1 9.998727,0.1 Z M17.7727833,14.8912646 C15.844734,16.0733712 13.1869868,16.956742 9.998727,16.956742 C6.97145733,16.956742 4.42264668,16.1600226 2.22412825,14.8962532 L2.22412825,14.8962532 L2.23286873,17.5240887 L2.25858275,17.6916768 C2.33813868,18.0800889 2.55452172,18.4496499 2.90628771,18.7906389 C3.30963929,19.1816331 3.89808604,19.5387102 4.63567709,19.8337415 C5.99860172,20.3789017 7.88535508,20.7211458 9.998727,20.7211458 C12.1120824,20.7211458 13.9988401,20.3789001 15.3617711,19.8337373 C16.0993623,19.538706 16.687811,19.181629 17.0911641,18.7906353 C17.4913813,18.4026813 17.7182774,17.9784327 17.7723536,17.3749452 L17.7723536,17.3749452 L17.7727833,14.8912646 Z M17.7727833,8.9994408 C15.844734,10.1815475 13.1869868,11.0649182 9.998727,11.0649182 C6.97145733,11.0649182 4.42264668,10.2681989 2.22412825,9.00442943 L2.22412825,9.00442943 L2.23286873,11.632265 L2.25858275,11.7998531 C2.33813868,12.1882651 2.55452172,12.5578261 2.90628771,12.8988151 C3.30963929,13.2898093 3.89808604,13.6468865 4.63567709,13.9419177 C5.99860172,14.487078 7.88535508,14.8293221 9.998727,14.8293221 C12.1120824,14.8293221 13.9988401,14.4870763 15.3617711,13.9419135 C16.0993623,13.6468822 16.687811,13.2898053 17.0911641,12.8988115 C17.4913813,12.5108576 17.7182774,12.0866089 17.7723536,11.4831214 L17.7723536,11.4831214 L17.7727833,8.9994408 Z M9.998727,2.2272473 C7.88538247,2.2272473 5.99865025,2.56952578 4.63572785,3.1147171 C3.89812344,3.40977097 3.30966443,3.76687192 2.90630346,4.15788522 C2.45320386,4.59711456 2.22470131,5.08345549 2.22470131,5.58254542 C2.22470131,6.08159817 2.4532076,6.56791481 2.90632806,7.00712398 C3.30969393,7.39810608 3.89815943,7.75518283 4.63577066,8.05021781 C5.99868825,8.59536727 7.88540369,8.93762777 9.998727,8.93762777 C12.1120338,8.93762777 13.9987536,8.59536564 15.3616775,8.05021363 C16.0992889,7.75517858 16.6877564,7.39810206 17.0911238,7.00712033 C17.5442454,6.56791208 17.7727527,6.08159659 17.7727527,5.58254542 C17.7727527,5.08345708 17.5442492,4.59711729 17.0911484,4.15788887 C16.6877859,3.76687594 16.0993249,3.40977521 15.3617203,3.11472128 C13.9987916,2.56952742 12.112055,2.2272473 9.998727,2.2272473 Z" id="Fill-1" fill="#E07D26" mask="url(#mask-2)"></path>
            </g>
        </g>
    </g>
</svg>