
<svg 
 xmlns="http://www.w3.org/2000/svg"
 xmlns:xlink="http://www.w3.org/1999/xlink"
 width="11px" height="11px">
<path fill-rule="evenodd"  fill="rgb(224, 125, 38)"
 d="M6.268,5.474 L10.821,0.939 C11.037,0.725 11.038,0.378 10.824,0.162 C10.609,-0.054 10.262,-0.055 10.047,0.160 L5.492,4.695 L0.977,0.161 C0.763,-0.053 0.416,-0.054 0.200,0.160 C-0.014,0.375 -0.015,0.723 0.199,0.938 L4.713,5.471 L0.162,10.003 C-0.053,10.217 -0.054,10.565 0.160,10.781 C0.267,10.888 0.408,10.943 0.549,10.943 C0.689,10.943 0.829,10.890 0.937,10.783 L5.489,6.250 L10.045,10.824 C10.152,10.932 10.293,10.986 10.434,10.986 C10.575,10.986 10.715,10.932 10.822,10.826 C11.037,10.611 11.037,10.264 10.823,10.048 L6.268,5.474 Z"/>
</svg>
