<?xml version="1.0" encoding="UTF-8"?>
<svg width="20px" height="20px" viewBox="0 0 20 20" version="1.1" xmlns="http://www.w3.org/2000/svg" xmlns:xlink="http://www.w3.org/1999/xlink">
    <title>qunzu</title>
    <g id="页面-1" stroke="none" stroke-width="1" fill="none" fill-rule="evenodd">
        <g id="Market" transform="translate(-21.000000, -419.000000)" fill="#FFFFFF">
            <path d="M33.1055429,432.398836 L36.4623883,435.639907 L36.4623883,438.998854 L21.1123243,438.998854 L21.1123243,435.635265 L24.3487533,432.398836 L33.1055429,432.398836 Z M32.4737854,433.998927 L25.0792272,433.998927 L22.1605976,437.432556 L35.4638831,436.989025 L32.4737854,433.998927 Z M36.9759318,432.398836 L40.2123609,435.635265 L40.2123609,438.998854 L38.6123792,438.998854 L38.6123792,434.887551 L36.1237805,432.398836 L36.9759318,432.398836 Z M32.857,419.915 L32.9671125,419.92585 C33.8761502,420.032838 34.6844316,420.451058 35.2972972,421.063903 C35.9593171,421.7259 36.3947425,422.615803 36.4551629,423.590343 L36.4551629,423.590343 L36.4623883,426.323895 C36.4623883,427.389236 36.0118114,428.369298 35.297302,429.083789 C34.5827961,429.798277 33.6027131,430.248845 32.5373288,430.248845 L32.764,430.242 L32.7998645,430.228477 C33.1067544,430.091359 33.4104953,429.827891 33.680739,429.512505 L33.780451,429.391947 C34.4517037,428.485654 34.8014088,427.568244 34.8551083,426.586863 L34.8551083,426.586863 L34.8622968,423.823767 C34.8622968,422.756074 34.5081423,421.784829 33.9227911,420.988761 C33.6578444,420.628439 33.3453706,420.304166 32.9970988,420.023464 L32.857,419.915 Z M28.7873563,419.898854 C29.8526904,419.898854 30.8327462,420.349426 31.5472372,421.063911 C32.1540734,421.670742 32.5705173,422.469074 32.682249,423.348557 L32.7050806,423.590345 L32.7123059,426.323895 C32.7123059,427.389232 32.2617332,428.369289 31.5472419,429.083781 C30.8327506,429.798272 29.8526927,430.248845 28.7873563,430.248845 C27.7219683,430.248845 26.741874,429.798275 26.0273585,429.083783 C25.4205043,428.476949 25.0040517,427.678611 24.8923177,426.799114 L24.8694856,426.557322 L24.8622602,423.823767 C24.8622602,422.758447 25.3128466,421.778396 26.0273633,421.063909 C26.7418784,420.349424 27.7219707,419.898854 28.7873563,419.898854 Z M28.7873563,421.498799 C28.1673438,421.498799 27.5837604,421.766015 27.1566928,422.193083 C26.7799084,422.569867 26.5219317,423.06743 26.4623553,423.814042 L26.4623553,423.814042 L26.4711886,426.518949 L26.4951148,426.69952 C26.5785903,427.176546 26.8171854,427.615086 27.1566834,427.954583 C27.5837514,428.381652 28.1673385,428.648863 28.7873563,428.648863 C29.407322,428.648863 29.9909272,428.381644 30.4180164,427.954555 C30.7947931,427.577778 31.0527784,427.08023 31.1123574,426.333621 L31.1123574,426.333621 L31.1035233,423.628721 L31.0795958,423.448158 C30.9961156,422.97115 30.7575089,422.532613 30.4180069,422.193111 C29.9909182,421.766022 29.4073167,421.498799 28.7873563,421.498799 Z" id="qunzu"></path>
        </g>
    </g>
</svg>