<?xml version="1.0" encoding="UTF-8"?>
<svg width="20px" height="13px" viewBox="0 0 20 13" version="1.1" xmlns="http://www.w3.org/2000/svg" xmlns:xlink="http://www.w3.org/1999/xlink">
    <title>dianbiao</title>
    <defs>
        <polygon id="path-1" points="0 0 20 0 20 12.8582619 0 12.8582619"></polygon>
    </defs>
    <g id="页面-1" stroke="none" stroke-width="1" fill="none" fill-rule="evenodd">
        <g id="kepler-icon-new" transform="translate(-635.000000, -206.000000)">
            <g id="dianbiao" transform="translate(635.000000, 206.000000)">
                <mask id="mask-2" fill="white">
                    <use xlink:href="#path-1"></use>
                </mask>
                <g id="Clip-2"></g>
                <path d="M9.99916287,0.1 C13.3271666,0.1 16.4773385,0.72260642 19.3663526,1.88467785 L19.8734507,2.09533234 L15.9575948,12.7386283 C14.0366603,12.2430379 12.01792,12.0440103 9.99916287,12.0440103 C8.18214968,12.0440103 6.36529164,12.2052225 4.61981402,12.5987497 L4.04072957,12.7386283 L0.124756206,2.09533167 C3.15084662,0.798008233 6.47527668,0.1 9.99916287,0.1 Z M9.99916287,1.94098351 C7.2997249,1.94098351 4.81053617,2.36183127 2.31878143,3.30939055 L2.31878143,3.30939055 L5.14013808,10.8270071 L5.6825486,10.7370331 C6.76736708,10.5590907 7.85217304,10.4011773 8.93702026,10.4072151 L8.93702026,10.4072151 L9.9949017,8.38764121 L10.9540765,10.4019279 L11.7150982,10.4660678 C12.7297802,10.5537266 13.7444184,10.6548065 14.7591338,10.8276869 L14.7591338,10.8276869 L17.4742577,3.30891777 L16.9775927,3.12643994 C14.6716247,2.30735959 12.5185192,1.94098351 9.99916287,1.94098351 Z M10.8647672,2.81568283 L10.5914284,4.18205671 L13.2857906,4.18205671 L8.68245576,7.86471921 L9.5291122,5.51277939 L7.71815458,5.51277939 L10.8647672,2.81568283 Z" id="Fill-1" fill="#FFFFFF" mask="url(#mask-2)"></path>
            </g>
        </g>
    </g>
</svg>