<svg width="19px" height="20px" viewBox="0 0 19 20" version="1.1" xmlns="http://www.w3.org/2000/svg" xmlns:xlink="http://www.w3.org/1999/xlink">
    <title>woderenwu</title>
    <g id="页面-1" stroke="none" stroke-width="1" fill="none" fill-rule="evenodd">
        <g id="kepler-mint" transform="translate(-404.000000, -1035.000000)">
            <g id="woderenwu" transform="translate(404.000000, 1035.000000)">
                <path d="M12.8000212,10.2666561 L11.3334049,11.7331789 C11.000042,12.0666664 10.5332655,12.0666664 10.199996,11.7331789 C9.86663304,11.3999405 9.86663304,10.9332574 10.199996,10.600019 L13.1332595,7.66663086 C13.2667043,7.53334174 13.4666225,7.53334174 13.799892,7.53334174 C13.9333056,7.53334174 14.2666685,7.53334174 14.4666178,7.66663086 L17.3999748,10.600019 C17.7332443,10.9332574 17.7332443,11.3999405 17.3999748,11.7333034 C17.0666119,12.0666664 16.5999598,12.0666664 16.2665969,11.7333034 L14.7999807,10.2667806 L14.7999807,14.8666097 C14.7999807,15.3332929 14.4666178,15.6666558 13.9999346,15.6666558 C13.5334071,15.6666558 13.2000442,15.3332929 13.2000442,14.8666097 L13.2000442,10.2666561 L12.8000212,10.2666561 Z" id="Fill-1" fill="#E76558"></path>
                <path d="M17.1999321,5.60004234 C17.6665842,5.60004234 17.9999471,5.26667943 17.9999471,4.8000274 L17.9999471,2.13337319 C17.9999471,1.00008873 16.9999829,0 15.8665739,0 L2.13337319,0 C1.00008873,0 0,1.00008873 0,2.13337319 L0,17.8666579 C0,18.9999113 1.00008873,20 2.13337319,20 L15.933234,20 C17.0666119,20 18.0666072,18.9999113 18.0666072,17.8666579 L18.0666072,15.3332929 C18.0666072,14.8667342 17.7332443,14.5333713 17.2665611,14.5333713 C16.8000336,14.5333713 16.4666707,14.8666097 16.4666707,15.3332929 L16.4666707,17.8666579 C16.4666707,18.2000209 16.2665969,18.33331 16.0000187,18.33331 L2.13337319,18.33331 C1.79997914,18.33331 1.66669002,18.1332362 1.66669002,17.8667825 L1.66669002,2.13324865 C1.66669002,1.79988573 1.86676381,1.66656548 2.13324865,1.66656548 L15.933234,1.66656548 C16.2665969,1.66656548 16.399886,1.86663927 16.399886,2.13312411 L16.399886,4.73349181 C16.399886,5.26667943 16.733249,5.60016688 17.1999321,5.60016688 L17.1999321,5.60004234 Z" id="Fill-2" fill="#373737"></path>
                <path d="M13.0666306,4.73336727 C13.0666306,4.26671524 12.7332676,3.93335233 12.2665845,3.93335233 L3.73340308,3.93335233 C3.26675104,3.93335233 2.93338813,4.26671524 2.93338813,4.73336727 C2.93338813,5.1999259 3.26675104,5.53328881 3.73340308,5.53328881 L12.266709,5.53328881 C12.7333922,5.53328881 13.0667551,5.20005044 13.0667551,4.73336727 L13.0666306,4.73336727 Z M6.99990504,8.53330593 L3.73340308,8.53330593 C3.26675104,8.53330593 2.93338813,8.86666885 2.93338813,9.33335201 C2.93338813,9.80000405 3.26675104,10.133367 3.73340308,10.133367 L7.00002958,10.133367 C7.46668161,10.133367 7.80004452,9.80000405 7.80004452,9.33335201 C7.80004452,8.86666885 7.53334174,8.53330593 7.00002958,8.53330593 L6.99990504,8.53330593 Z M6.99990504,13.1332595 L3.73340308,13.1332595 C3.26675104,13.1332595 2.93338813,13.4666225 2.93338813,13.9333056 C2.93338813,14.3999577 3.26675104,14.7333206 3.73340308,14.7333206 L7.00002958,14.7333206 C7.46668161,14.7333206 7.80004452,14.3999577 7.80004452,13.9333056 C7.80004452,13.4666225 7.46668161,13.1332595 7.00002958,13.1332595 L6.99990504,13.1332595 Z" id="Fill-3" fill="#373737"></path>
            </g>
        </g>
    </g>
</svg>