<?xml version="1.0" encoding="UTF-8"?>
<svg width="30px" height="30px" viewBox="0 0 30 30" version="1.1" xmlns="http://www.w3.org/2000/svg" xmlns:xlink="http://www.w3.org/1999/xlink">
    <title>矩形 2备份</title>
    <defs>
        <rect id="path-1" x="0" y="0" width="30" height="30" rx="15"></rect>
    </defs>
    <g id="页面-1" stroke="none" stroke-width="1" fill="none" fill-rule="evenodd">
        <g id="kepler-盲盒-NFT-Whitelist-" transform="translate(-215.000000, -511.000000)">
            <g id="编组-19" transform="translate(215.000000, 511.000000)">
                <mask id="mask-2" fill="white">
                    <use xlink:href="#path-1"></use>
                </mask>
                <use id="蒙版" fill="#D8E7FF" xlink:href="#path-1"></use>
                <g id="discord-(1)" mask="url(#mask-2)" fill="#2E3689">
                    <g transform="translate(5.000000, 7.500000)" id="Fill-1">
                        <path d="M16.6919554,1.26684274 C16.6864936,1.2562121 16.6774115,1.24794616 16.6663833,1.24338419 C15.3899538,0.657757599 14.0428975,0.240128515 12.6590526,0.00104386934 C12.6332084,-0.0037901397 12.6073015,0.00847275769 12.594641,0.0314499954 C12.4111998,0.364389752 12.244688,0.70632788 12.0957545,1.05602972 C10.6040128,0.829584648 9.08659435,0.829584648 7.59485264,1.05602972 C7.44493558,0.705428043 7.27572434,0.363406209 7.08811875,0.0314499954 C7.07495602,0.00903777173 7.04936297,-0.00305771409 7.02370715,0.00104386934 C5.63969479,0.239647207 4.29255482,0.657276291 3.01629273,1.2434679 C3.00532728,1.24802986 2.99609871,1.25596099 2.98988356,1.26602661 C0.437589566,5.07765319 -0.261646702,8.7954456 0.0813586751,12.4672207 C0.0833048346,12.4854477 0.0925543238,12.5020424 0.107014498,12.5133217 C1.5932107,13.613697 3.25546108,14.4536846 5.02301335,14.9972909 C5.04852269,15.0049709 5.07606189,14.9959725 5.09209155,14.9747321 C5.47171821,14.4581838 5.8080899,13.9111455 6.09779562,13.3393513 C6.10587323,13.3234891 6.10677306,13.3049482 6.10024401,13.2883536 C6.09369404,13.2718426 6.08038482,13.2588263 6.06370644,13.2527158 C5.53326288,13.0497293 5.01974882,12.8050782 4.52789364,12.5210226 C4.50975041,12.5103083 4.49813623,12.4913489 4.4969225,12.4703388 C4.49568784,12.4493286 4.5050001,12.4290509 4.52176219,12.4163067 C4.62524346,12.3390463 4.72694599,12.2593584 4.82674421,12.1773685 C4.84457354,12.1626573 4.86926675,12.1593718 4.89033968,12.1687887 C8.11227995,13.6392691 11.6005511,13.6392691 14.7843843,12.1687887 C14.8055619,12.1587231 14.8306527,12.1617574 14.8487959,12.1766361 C14.9486988,12.2590235 15.0506315,12.3389626 15.1545313,12.4163067 C15.1713561,12.4289672 15.1808567,12.4490775 15.1797895,12.4700877 C15.1786385,12.4910978 15.1671918,12.5102246 15.1491323,12.5210226 C14.658428,12.8074429 14.1444117,13.0519475 13.612587,13.2518788 C13.5959086,13.2582613 13.5826622,13.2714241 13.5763006,13.2881862 C13.569918,13.3048645 13.5709853,13.3234891 13.5791466,13.3393513 C13.8736863,13.9079647 14.2095558,14.4542496 14.5840345,14.9738323 C14.5996456,14.9956586 14.627436,15.0050546 14.6531127,14.9972071 C16.4238458,14.4554005 18.0890468,13.615413 19.5771264,12.5133217 C19.591754,12.5026283 19.6011499,12.4861173 19.6026985,12.4680369 C20.01338,8.22308637 18.9152438,4.5357001 16.6919554,1.26684274 Z M6.57902017,10.231523 C5.60895384,10.231523 4.80966823,9.34133287 4.80966823,8.24809348 C4.80966823,7.15477038 5.59342642,6.26449658 6.57902017,6.26449658 C7.57221023,6.26449658 8.36381583,7.16253409 8.34828841,8.24800977 C8.34828841,9.34133287 7.56444652,10.231523 6.57902017,10.231523 Z M13.1207318,10.231523 C12.1507701,10.231523 11.3514636,9.34133287 11.3514636,8.24809348 C11.3514636,7.15477038 12.1352218,6.26449658 13.1207318,6.26449658 C14.1140893,6.26449658 14.9056112,7.16253409 14.8900838,8.24800977 C14.8900838,9.34133287 14.1140893,10.231523 13.1207318,10.231523 Z"></path>
                    </g>
                </g>
            </g>
        </g>
    </g>
</svg>