<?xml version="1.0" encoding="UTF-8"?>
<svg width="26px" height="18px" viewBox="0 0 26 18" version="1.1" xmlns="http://www.w3.org/2000/svg" xmlns:xlink="http://www.w3.org/1999/xlink">
    <title>discord (1)</title>
    <g id="页面-1" stroke="none" stroke-width="1" fill="none" fill-rule="evenodd">
        <g id="kepler-home" transform="translate(-1572.000000, -38.000000)" fill="#E07D26">
            <g id="discord-(1)" transform="translate(1572.000000, 38.000000)">
                <path d="M18.5140589,10.3716187 C18.5140589,11.6786596 17.549682,12.7501255 16.3282809,12.7501255 C15.1282767,12.7501255 14.1426599,11.6786596 14.1426599,10.3716187 C14.1426599,9.0643685 15.1068275,7.99311182 16.3282809,7.99311182 C17.549682,7.99311182 18.5140589,9.0643685 18.5140589,10.3716187 Z M8.50696142,7.99311182 C7.28550803,7.99311182 6.3213404,9.0643685 6.3213404,10.3716187 C6.3213404,11.6786596 7.30695723,12.7501255 8.50696142,12.7501255 C9.72836249,12.7501255 10.6927394,11.6786596 10.6927394,10.3716187 C10.7141886,9.0643685 9.72836249,7.99311182 8.50696142,7.99311182 Z M25.0280758,14.7430177 C25.0280758,7.84312438 21.9425301,2.25032432 21.9425301,2.25032432 C18.8567752,-0.0639918885 15.9211646,0.000177138249 15.9211646,0.000177138249 L15.6211897,0.343072048 C19.2640484,1.45743639 20.956704,3.0644522 20.956704,3.0644522 C15.8666,0.274800819 9.88734813,0.274173037 4.94995188,2.4430009 C4.15701163,2.8073757 3.6856001,3.0644522 3.6856001,3.0644522 C3.6856001,3.0644522 5.46410486,1.37179654 9.32129855,0.257432199 L9.10691119,0.000177138249 C9.10691119,0.000177138249 6.17135295,-0.0639918885 3.085598,2.25032432 C3.085598,2.25032432 0,7.84312438 0,14.7430177 C0,14.7430177 1.80000628,17.8500126 6.53551849,18 C6.53551849,18 7.32840643,17.0356754 7.97130692,16.2214952 C5.24992677,15.4071581 4.22141154,13.6930009 4.22141154,13.6930009 C4.5365055,13.9135092 5.05641315,14.1996205 5.09993932,14.2286554 C8.71679736,16.2541922 13.8543513,16.9177571 18.4711605,14.978645 C19.2210977,14.700067 20.0567271,14.293003 20.9354641,13.7145024 C20.9354641,13.7145024 19.8640505,15.4715057 17.0567689,16.2644459 C17.6996694,17.0785738 18.4711605,18 18.4711605,18 C23.2066727,17.8500126 25.0280758,14.7430177 25.0280758,14.7430177 Z" id="Fill-1"></path>
            </g>
        </g>
    </g>
</svg>