<?xml version="1.0" encoding="UTF-8"?>
<svg width="16px" height="16px" viewBox="0 0 16 16" version="1.1" xmlns="http://www.w3.org/2000/svg" xmlns:xlink="http://www.w3.org/1999/xlink">
    <title>zijin_dongjie</title>
    <g id="页面-1" stroke="none" stroke-width="1" fill="none" fill-rule="evenodd" opacity="0.600000024">
        <g id="Market-收缩" transform="translate(-943.000000, -196.000000)" fill="#FFFFFF">
            <g id="编组-12备份" transform="translate(923.000000, 80.000000)">
                <g id="zijin_dongjie" transform="translate(20.381836, 116.381837)">
                    <path d="M14.10642,0 L15.238227,1.13180705 L1.13181062,15.2382235 L0,14.1063891 L14.10642,0 Z M15.0257643,3.40555826 L15.0257643,15.0257311 L3.4055666,15.0257311 L5.02796227,13.4033592 L13.4033608,13.4033592 L13.4033608,5.02796185 L15.0257643,3.40555826 Z M11.8327957,0.428747605 L10.2103921,2.05115119 L2.05115277,2.05115119 L2.05115277,10.2103894 L0.428749185,11.8327692 L0.428749185,0.428747605 L11.8327957,0.428747605 Z M8.53816413,10.1271625 L8.53845856,11.7821574 L7.06380317,11.7821574 L8.53816413,10.1271625 Z M10.3202301,8.12951513 L10.6694556,9.61962709 L8.99116413,9.61916255 L10.3202301,8.12951513 Z M5.99732809,3.78420609 L7.23728421,5.02425908 L6.10546991,6.15607338 L4.86551273,4.9161162 L5.99732809,3.78420609 Z" id="Fill-1"></path>
                </g>
            </g>
        </g>
    </g>
</svg>