<?xml version="1.0" encoding="UTF-8"?>
<svg width="20px" height="22px" viewBox="0 0 20 22" version="1.1" xmlns="http://www.w3.org/2000/svg" xmlns:xlink="http://www.w3.org/1999/xlink">
    <title>duanxin</title>
    <defs>
        <polygon id="path-1" points="20 0 20 21.4755127 9.37635386e-13 21.4755127 1.73472348e-17 9.37610587e-13"></polygon>
    </defs>
    <g id="页面-1" stroke="none" stroke-width="1" fill="none" fill-rule="evenodd">
        <g id="kepler-icon-new" transform="translate(-1259.000000, -254.000000)">
            <g id="duanxin" transform="translate(1259.000000, 254.000000)">
                <mask id="mask-2" fill="white">
                    <use xlink:href="#path-1"></use>
                </mask>
                <g id="Clip-2"></g>
                <path d="M20,1.87524681e-12 L20,18.5296656 L2.50587237,18.5296656 L-0.00258914876,21.0381271 L-0.00258914876,1.87524681e-12 L20,1.87524681e-12 Z M17.6727527,2.32729045 L2.32470131,2.32729045 L2.32470131,16.2022457 L17.6727527,16.2022457 L17.6727527,2.32729045 Z M11.1623291,10.3105945 L11.1623291,12.6378418 L5.88923462,12.6378418 L5.88923462,10.3105945 L11.1623291,10.3105945 Z M14.1081762,5.89182377 L14.1081762,8.21911422 L5.88923462,8.21911422 L5.88923462,5.89182377 L14.1081762,5.89182377 Z" id="Fill-1" fill="#FFFFFF" mask="url(#mask-2)"></path>
            </g>
        </g>
    </g>
</svg>