<?xml version="1.0" encoding="UTF-8"?>
<svg width="20px" height="20px" viewBox="0 0 20 20" version="1.1" xmlns="http://www.w3.org/2000/svg" xmlns:xlink="http://www.w3.org/1999/xlink">
    <title>jiaoyisuo</title>
    <g id="页面-1" stroke="none" stroke-width="1" fill="none" fill-rule="evenodd">
        <g id="kepler-icon-new" transform="translate(-21.000000, -181.000000)" fill="#E07D26">
            <g id="jiaoyisuo" transform="translate(21.000000, 181.000000)">
                <polygon id="Fill-1" points="10.0000149 15.9653692 7.00962183 12.9698719 10.0000149 9.9795982 12.9902588 12.9698719"></polygon>
                <path d="M18.8027861,7.66677761 L20,7.66677761 L20,6.18949046 L10.0000149,0 L0,6.18949046 L0,7.66677761 L2.35866867,7.66677761 L2.35866867,17.7432657 L1.18697568,17.7432657 L1.18697568,19.7809381 L18.8130243,19.7809381 L18.8130243,17.7432657 L17.6413612,17.7432657 L17.6413612,7.66677761 L18.8027861,7.66677761 Z M10.0000149,2.39433824 L15.2215916,5.62910517 L4.77840842,5.62910517 L10.0000149,2.39433824 Z M4.39631126,17.7432657 L15.6036887,17.7432657 L15.6036887,7.66677761 L4.39631126,7.66677761 L4.39631126,17.7432657 Z" id="Fill-2"></path>
            </g>
        </g>
    </g>
</svg>