<?xml version="1.0" encoding="UTF-8"?>
<svg width="20px" height="20px" viewBox="0 0 20 20" version="1.1" xmlns="http://www.w3.org/2000/svg" xmlns:xlink="http://www.w3.org/1999/xlink">
    <title>bangzhu (1)</title>
    <g id="页面-1" stroke="none" stroke-width="1" fill="none" fill-rule="evenodd">
        <g id="Market" transform="translate(-19.000000, -481.000000)" fill="#FFFFFF">
            <path d="M29,481.3 C31.6675286,481.3 34.0923455,482.391565 35.8504059,484.149619 C37.6084686,485.907675 38.7000366,488.332486 38.7000366,491 C38.7000366,493.667528 37.6084726,496.092335 35.850415,497.850386 C34.0923538,499.608441 31.6675331,500.7 29,500.7 C26.3324831,500.7 23.9076701,499.608439 22.1496134,497.850382 C20.3915625,496.092331 19.3,493.667526 19.3,491 C19.3,488.332488 20.3915664,485.907678 22.1496224,484.149622 C23.9076784,482.391566 26.3324876,481.3 29,481.3 Z M29,483.199945 C26.8549927,483.199945 24.9047952,484.077126 23.4909754,485.490953 C22.0771591,486.904776 21.1999817,488.854979 21.1999817,491 C21.1999817,493.145021 22.0771591,495.095224 23.4909754,496.509047 C24.9047952,497.922874 26.8549927,498.800055 29,498.800055 C31.1450237,498.800055 33.0952283,497.922876 34.509052,496.509052 C35.9228757,495.095228 36.8000549,493.145024 36.8000549,491 C36.8000549,488.854976 35.9228757,486.904772 34.509052,485.490948 C33.0952283,484.077124 31.1450237,483.199945 29,483.199945 L29,483.199945 Z M29.9499908,493.799982 L29.9499908,495.700073 L28.0500458,495.700073 L28.0500458,493.799982 L29.9499908,493.799982 Z M29.6250137,486.300073 C30.4160532,486.300073 31.1229438,486.6097 31.6316447,487.118401 C32.1403457,487.627102 32.4499725,488.333993 32.4499725,489.125032 C32.4499725,489.789411 32.2043865,490.398987 31.8083974,490.874167 C31.447574,491.307149 30.9616731,491.629442 30.4204178,491.778632 L30.2149885,491.826342 L28.0500458,491.934613 L28.0500458,490.050009 L30.3492778,490.050009 L28.4204395,488.121171 L25.6682101,489.796389 C25.6010268,489.572763 25.5500641,489.349119 25.5500641,489.125032 C25.5500641,488.33401 25.8597138,487.627134 26.3684115,487.118436 C26.8308836,486.655964 27.4571429,486.358017 28.1614688,486.307667 L28.3750229,486.300073 L29.6250137,486.300073 Z" id="bangzhu-(1)"></path>
        </g>
    </g>
</svg>