<?xml version="1.0" encoding="UTF-8"?>
<svg width="21px" height="21px" viewBox="0 0 24 24" version="1.1" xmlns="http://www.w3.org/2000/svg" xmlns:xlink="http://www.w3.org/1999/xlink">
    <title>kehupingjia</title>
    <g id="页面-1" stroke="none" stroke-width="1" fill="none" fill-rule="evenodd">
        <g id="kepler-盲盒" transform="translate(-834.000000, -957.000000)">
            <g id="编组-11" transform="translate(834.000000, 954.000000)">
                <g id="kehupingjia" transform="translate(0.000000, 3.000000)">
                    <path d="M9.7682153,21.2722319 L4.91638102,21.2722319 C2.20373007,21.2662202 0.00604686319,19.068537 0,16.355886 L0,0.830178066 C0,0.371635993 0.371600837,0 0.83014291,0 L15.6116648,0 C18.3077221,0.0295311923 20.4794248,2.22035894 20.4851911,4.91638102 L20.4851911,10.6739088 C20.4854717,10.8967639 20.3960695,11.1104783 20.2371988,11.2667475 L10.3395032,21.0349277 C10.1867848,21.1847633 9.98217582,21.269771 9.7682153,21.2722319 Z M1.64959834,1.64945772 L1.64959834,16.3557454 C1.64959834,18.1421013 3.09771661,19.5902547 4.88410765,19.5902547 L9.42322769,19.5902547 L18.8787288,10.2965072 L18.8787288,4.90565839 C18.8787288,4.04777725 18.5380302,3.22505229 17.9313048,2.61846754 C17.3247201,2.01188279 16.5019951,1.67104361 15.6440788,1.67114908 L1.64959834,1.64945772 L1.64959834,1.64945772 Z M12.6036316,24 C12.4248273,23.9996133 12.2553745,23.92009 12.1409763,23.78277 C12.0264374,23.6452741 11.9787657,23.4642901 12.0107929,23.2883686 L12.4635694,20.6361511 C12.4860694,20.5129638 12.5463622,20.3999367 12.6360456,20.3126088 L19.881383,13.067412 C20.5407021,12.4334757 21.5831532,12.4334757 22.2426128,13.067412 L22.8570022,13.681942 C23.508376,14.3344056 23.508376,15.3907434 22.8570022,16.0431718 L15.601118,23.2883686 C15.51829,23.3703528 15.413384,23.4265324 15.299267,23.4501573 L12.722565,23.9891719 L12.6037723,24 L12.6036316,24 Z M13.6279773,21.0349277 L13.3476771,22.6414245 L14.8786233,22.3180228 L21.9945859,15.202025 C22.169945,15.0221308 22.169945,14.7352564 21.9945859,14.5552216 L21.3800559,13.940797 C21.1978063,13.7709223 20.9153263,13.7709223 20.7332173,13.940797 L13.6279773,21.0349277 Z" id="Fill-1" fill="#333337"></path>
                    <path d="M11.8112465,8.90453339 C12.2751323,8.90453339 12.6512683,9.28070453 12.6512683,9.74459034 C12.6512683,10.2084762 12.2751323,10.5846473 11.8112465,10.5846473 L3.89122677,10.5846473 C3.42730581,10.5846473 3.05116982,10.2084762 3.05116982,9.74459034 C3.05116982,9.28070453 3.42730581,8.90453339 3.89122677,8.90453339 L11.8112465,8.90453339 Z M11.8112465,5.30461073 C12.2751323,5.30461073 12.6512683,5.68060609 12.6512683,6.14466769 C12.6512683,6.6085535 12.2751323,6.98454886 11.8112465,6.98454886 L3.89122677,6.98454886 C3.42730581,6.98454886 3.05116982,6.6085535 3.05116982,6.14466769 C3.05116982,5.68060609 3.42730581,5.30461073 3.89122677,5.30461073 L11.8112465,5.30461073 Z" id="Fill-3" fill="#E76558"></path>
                    <path d="M21.466294,17.1644782 C21.3142435,17.1640563 21.1678532,17.1062244 21.056619,17.0026894 L18.9001389,14.9543145 C18.727522,14.8101039 18.649405,14.58187 18.6974635,14.3621438 C18.7453814,14.1422771 18.9117053,13.9674454 19.128654,13.9084181 C19.345638,13.8493558 19.5775985,13.9158009 19.7303169,14.0808944 L21.8867971,16.1292693 C22.0952381,16.2922885 22.1733903,16.5720262 22.0793123,16.81935 C21.985375,17.0668143 21.7412153,17.2240679 21.4771221,17.207439 L21.466294,17.1643376 L21.466294,17.1644782 Z" id="Fill-4" fill="#222224"></path>
                </g>
            </g>
        </g>
    </g>
</svg>