<?xml version="1.0" encoding="UTF-8"?>
<svg width="20px" height="20px" viewBox="0 0 20 20" version="1.1" xmlns="http://www.w3.org/2000/svg" xmlns:xlink="http://www.w3.org/1999/xlink">
    <title>bangzhu (1)</title>
    <g id="页面-1" stroke="none" stroke-width="1" fill="none" fill-rule="evenodd">
        <g id="kepler-icon-new" transform="translate(-1259.000000, -200.000000)" fill="#E07D26">
            <path d="M1268.99998,200 C1271.75001,200 1274.24981,201.125322 1276.06224,202.937746 C1277.87467,204.750171 1279,207.249972 1279,209.999981 C1279,212.750004 1277.87468,215.249801 1276.06225,217.062221 C1274.24982,218.874646 1271.75001,219.999962 1268.99998,219.999962 C1266.24997,219.999962 1263.75017,218.874644 1261.93774,217.062218 C1260.12532,215.249797 1259,212.750002 1259,209.999981 C1259,207.249973 1260.12532,204.750175 1261.93775,202.93775 C1263.75017,201.125324 1266.24997,200 1268.99998,200 Z M1268.99998,201.958703 C1266.78864,201.958703 1264.77813,202.863011 1263.32059,204.320562 C1261.86305,205.778109 1260.95874,207.788623 1260.95874,209.999981 C1260.95874,212.211339 1261.86305,214.221854 1263.32059,215.679401 C1264.77813,217.136951 1266.78864,218.04126 1268.99998,218.04126 C1271.21134,218.04126 1273.22186,217.136953 1274.67941,215.679405 C1276.13695,214.221858 1277.04126,212.211342 1277.04126,209.999981 C1277.04126,207.788621 1276.13695,205.778104 1274.67941,204.320557 C1273.22186,202.863009 1271.21134,201.958703 1268.99998,201.958703 L1268.99998,201.958703 Z M1269.97935,212.886555 L1269.97935,214.845408 L1268.02065,214.845408 L1268.02065,212.886555 L1269.97935,212.886555 Z M1269.64432,205.154705 C1270.45983,205.154705 1271.18858,205.473907 1271.71301,205.99834 C1272.23744,206.522773 1272.55665,207.251525 1272.55665,208.067028 C1272.55665,208.751953 1272.30347,209.380381 1271.89523,209.870257 C1271.52325,210.316629 1271.02232,210.648889 1270.46433,210.802693 L1270.25254,210.851878 L1268.02065,210.963497 L1268.02065,209.020611 L1270.39099,209.020611 L1268.4025,207.032122 L1265.56515,208.759147 C1265.49589,208.528606 1265.44335,208.298045 1265.44335,208.067028 C1265.44335,207.251543 1265.76258,206.522806 1266.28701,205.998377 C1266.76378,205.521602 1267.40941,205.214441 1268.13552,205.162534 L1268.35568,205.154705 L1269.64432,205.154705 Z" id="bangzhu-(1)"></path>
        </g>
    </g>
</svg>