<?xml version="1.0" encoding="UTF-8"?>
<svg width="20px" height="21px" viewBox="0 0 20 21" version="1.1" xmlns="http://www.w3.org/2000/svg" xmlns:xlink="http://www.w3.org/1999/xlink">
    <title>baoguo_dabao</title>
    <g id="页面-1" stroke="none" stroke-width="1" fill="none" fill-rule="evenodd">
        <g id="kepler-icon-new" transform="translate(-635.000000, -251.000000)" fill="#E07D26">
            <path d="M644.999976,251 L655,257.250056 L651.820074,259.23752 L655,261.224983 L651.820074,263.212446 L655,265.199909 L644.999976,271.449965 L635,265.199916 L638.180093,263.212446 L635,261.224983 L638.180093,259.23752 L635,257.250049 L644.999976,251 Z M649.899515,264.429884 L644.999976,267.475606 L640.100432,264.429884 L638.823975,265.195639 L644.999975,269.019047 L651.176029,265.195632 L649.899515,264.429884 Z M649.899519,260.45496 L644.999976,263.50053 L640.100428,260.45496 L638.823965,261.220718 L644.999975,265.043961 L651.176039,261.220712 L649.899519,260.45496 Z M644.999975,253.431078 L638.830853,257.250056 L644.999975,261.069035 L651.16914,257.250056 L644.999975,253.431078 Z" id="baoguo_dabao"></path>
        </g>
    </g>
</svg>