<?xml version="1.0" encoding="UTF-8"?>
<svg width="32px" height="32px" viewBox="0 0 32 32" version="1.1" xmlns="http://www.w3.org/2000/svg" xmlns:xlink="http://www.w3.org/1999/xlink">
    <title>编组</title>
    <defs>
        <polygon id="path-1" points="0 0 13.9993601 0 13.9993601 13.9993226 0 13.9993226"></polygon>
        <polygon id="path-3" points="0 0 13.9993601 0 13.9993601 13.9993226 0 13.9993226"></polygon>
    </defs>
    <g id="页面-1" stroke="none" stroke-width="1" fill="none" fill-rule="evenodd">
        <g id="kepler-homepage-下拉菜单new" transform="translate(-796.000000, -167.000000)">
            <g id="编组" transform="translate(796.000000, 167.000000)">
                <g transform="translate(15.000252, 0.000000)">
                    <mask id="mask-2" fill="white">
                        <use xlink:href="#path-1"></use>
                    </mask>
                    <g id="Clip-2"></g>
                    <path d="M13.5013518,13.9993226 L0.500633409,13.9993226 C0.225003779,13.9993226 0,13.7743189 0,13.4986892 L0,0.497970864 C0,0.222341235 0.225003779,-3.75006299e-05 0.500633409,-3.75006299e-05 L13.5013518,-3.75006299e-05 C13.7769814,-3.75006299e-05 13.9993601,0.222341235 13.9993601,0.497970864 L13.9993601,13.4986892 C13.9993601,13.7743189 13.7769814,13.9993226 13.5013518,13.9993226" id="Fill-1" fill="#EBF3FD" mask="url(#mask-2)"></path>
                </g>
                <path d="M28.0009703,13.9993226 L15.5008854,13.9993226 C15.2252557,13.9993226 15.000252,13.7743189 15.000252,13.4986892 L15.000252,0.998604273 C15.000252,0.722599637 15.2252557,0.497970864 15.5008854,0.497970864 L28.2525996,0.497970864 C28.3891018,0.497970864 28.5016037,0.610472754 28.5016037,0.746975047 L28.5016037,13.4986892 C28.5016037,13.7743189 28.276975,13.9993226 28.0009703,13.9993226" id="Fill-3" fill="#85ABEF"></path>
                <path d="M25.5011783,6.99728003 C25.5011783,8.93081251 23.933652,10.4983388 22.0023696,10.4983388 C20.0688371,10.4983388 18.5013108,8.93081251 18.5013108,6.99728003 C18.5013108,5.06599759 20.0688371,3.49847126 22.0023696,3.49847126 C23.933652,3.49847126 25.5011783,5.06599759 25.5011783,6.99728003" id="Fill-5" fill="#7598D9"></path>
                <path d="M25.5011783,6.99728003 C25.5011783,5.06599759 23.933652,3.49847126 22.0023696,3.49847126 C20.9062262,3.49847126 19.9319598,4.00172972 19.287699,4.78736791 C19.8929591,4.29460964 20.6620971,3.99910467 21.4994861,3.99910467 C23.4330186,3.99910467 25.0005449,5.566631 25.0005449,7.50016348 C25.0005449,8.33755254 24.70504,9.10669046 24.2141567,9.71195063 C24.9979199,9.06768981 25.5011783,8.09342344 25.5011783,6.99728003" id="Fill-7" fill="#EBF3FD"></path>
                <path d="M18.5013108,6.99728003 C18.5013108,6.15989097 18.7968157,5.39075305 19.287699,4.78736791 C18.5039358,5.4297537 18.0010524,6.40627011 18.0010524,7.50016348 C18.0010524,9.43369596 19.5685787,10.9985972 21.4994861,10.9985972 C22.5933795,10.9985972 23.5721459,10.4957138 24.2141567,9.71195063 C23.6088966,10.2028339 22.8397586,10.4983388 22.0023696,10.4983388 C20.0688371,10.4983388 18.5013108,8.93081251 18.5013108,6.99728003" id="Fill-9" fill="#3353B6"></path>
                <path d="M21.4995236,3.99902967 C20.6621346,3.99902967 19.8929966,4.29453463 19.2877365,4.78766792 C18.7968532,5.39067805 18.5013483,6.15981597 18.5013483,6.99720503 C18.5013483,8.93073751 20.0688746,10.4982638 22.0024071,10.4982638 C22.8397961,10.4982638 23.6089341,10.2027589 24.2141942,9.71187563 C24.7050775,9.10661546 25.0005824,8.33747754 25.0005824,7.50008848 C25.0005824,5.566556 23.4330561,3.99902967 21.4995236,3.99902967" id="Fill-11" fill="#7598D9"></path>
                <path d="M31.5020291,32 L18.5013108,32 C18.2256811,32 18.0010524,31.7776213 18.0010524,31.5019916 L18.0010524,18.5012733 C18.0010524,18.2230186 18.2256811,18.0006399 18.5013108,18.0006399 L31.5020291,18.0006399 C31.7780338,18.0006399 32.0026625,18.2230186 32.0026625,18.5012733 L32.0026625,31.5019916 C32.0026625,31.7776213 31.7780338,32 31.5020291,32" id="Fill-13" fill="#B1CDFC"></path>
                <path d="M31.0017707,32 L18.5013108,32 C18.2256811,32 18.0010524,31.7776213 18.0010524,31.5019916 L18.0010524,18.9992816 C18.0010524,18.725902 18.2256811,18.5012733 18.5013108,18.5012733 L31.2507749,18.5012733 C31.3899023,18.5012733 31.5020291,18.6137752 31.5020291,18.7502774 L31.5020291,31.5019916 C31.5020291,31.7776213 31.2774004,32 31.0017707,32" id="Fill-15" fill="#7598D9"></path>
                <path d="M28.5016037,25.0005074 C28.5016037,26.9340399 26.9340774,28.5015662 25.0005449,28.5015662 C23.0670125,28.5015662 21.5021112,26.9340399 21.5021112,25.0005074 C21.5021112,23.066975 23.0670125,21.4994486 25.0005449,21.4994486 C26.9340774,21.4994486 28.5016037,23.066975 28.5016037,25.0005074" id="Fill-17" fill="#7598D9"></path>
                <path d="M28.5016037,25.0005074 C28.5016037,23.066975 26.9340774,21.4994486 25.0005449,21.4994486 C23.9066516,21.4994486 22.9305102,22.0023321 22.2907494,22.7887203 C22.8911345,22.295212 23.6628975,22.0023321 24.5025366,22.0023321 C26.433444,22.0023321 28.0009703,23.5698584 28.0009703,25.5007658 C28.0009703,26.3381549 27.7058404,27.1099179 27.2123321,27.712553 C27.9987203,27.0709172 28.5016037,26.0940258 28.5016037,25.0005074" id="Fill-19" fill="#B1CDFC"></path>
                <path d="M21.5020737,25.0005074 C21.5020737,24.1631184 21.7972036,23.3939804 22.2907119,22.7887203 C21.5043237,23.4303561 21.0014403,24.4072475 21.0014403,25.5007658 C21.0014403,27.4342983 22.5689666,28.9995746 24.5024991,28.9995746 C25.5937674,28.9995746 26.5725338,28.4989412 27.2126696,27.712553 C26.6092845,28.2060613 25.8401465,28.5015662 25.0005074,28.5015662 C23.066975,28.5015662 21.5020737,26.9340399 21.5020737,25.0005074" id="Fill-21" fill="#1D3285"></path>
                <path d="M24.5024991,22.0022946 C23.66286,22.0022946 22.891097,22.2951745 22.2907119,22.7886828 C21.7972036,23.3939429 21.5020737,24.1630809 21.5020737,25.0004699 C21.5020737,26.9340024 23.066975,28.5015287 25.0005074,28.5015287 C25.8401465,28.5015287 26.6092845,28.2060238 27.2126696,27.7128905 C27.7058029,27.1098804 28.0009328,26.3384924 28.0009328,25.5007283 C28.0009328,23.5698209 26.4334065,22.0022946 24.5024991,22.0022946" id="Fill-23" fill="#3353B6"></path>
                <g>
                    <mask id="mask-4" fill="white">
                        <use xlink:href="#path-3"></use>
                    </mask>
                    <g id="Clip-26"></g>
                    <path d="M13.5013518,13.9993226 L0.500633409,13.9993226 C0.225003779,13.9993226 0,13.7769439 0,13.4986892 L0,0.497970864 C0,0.224591272 0.225003779,-3.75006299e-05 0.500633409,-3.75006299e-05 L13.5013518,-3.75006299e-05 C13.7769814,-3.75006299e-05 13.9993601,0.224591272 13.9993601,0.497970864 L13.9993601,13.4986892 C13.9993601,13.7769439 13.7769814,13.9993226 13.5013518,13.9993226" id="Fill-25" fill="#EBF3FD" mask="url(#mask-4)"></path>
                </g>
                <path d="M13.0007184,13.9993226 L0.500633409,13.9993226 C0.225003779,13.9993226 0,13.7769439 0,13.4986892 L0,1.00085431 C0,0.722599637 0.225003779,0.497970864 0.500633409,0.497970864 L13.2523476,0.497970864 C13.3888499,0.497970864 13.5013518,0.610472754 13.5013518,0.749600091 L13.5013518,13.4986892 C13.5013518,13.7769439 13.276723,13.9993226 13.0007184,13.9993226" id="Fill-27" fill="#E07D26"></path>
                <path d="M10.5009264,6.99945507 C10.5009264,8.93298755 8.93340005,10.4982638 7.00211761,10.4982638 C5.06858514,10.4982638 3.50105881,8.93298755 3.50105881,6.99945507 C3.50105881,5.06854764 5.06858514,3.50102131 7.00211761,3.50102131 C8.93340005,3.50102131 10.5009264,5.06854764 10.5009264,6.99945507" id="Fill-29" fill="#7598D9"></path>
                <path d="M10.5009264,6.99945507 C10.5009264,5.06854764 8.93340005,3.50102131 7.00211761,3.50102131 C5.9059742,3.50102131 4.93170784,4.00165472 4.28744702,4.78766792 C4.89270718,4.29678467 5.6618451,3.99902967 6.49923417,3.99902967 C8.43276664,3.99902967 10.000293,5.566556 10.000293,7.50008848 C10.000293,8.33972758 9.70478801,9.1088655 9.21165473,9.71187563 C9.99766793,9.06986485 10.5009264,8.09334844 10.5009264,6.99945507" id="Fill-31" fill="#EBF3FD"></path>
                <path d="M3.50105881,6.99945507 C3.50105881,6.15981597 3.79656377,5.39067805 4.28744702,4.78766792 C3.50368385,5.4296787 3.0008004,6.4061951 3.0008004,7.50008848 C3.0008004,9.43362096 4.56832673,11.0011473 6.49923417,11.0011473 C7.59312754,11.0011473 8.57189398,10.4982638 9.21202973,9.71187563 C8.6086446,10.2027589 7.83950668,10.4982638 7.00211761,10.4982638 C5.06858514,10.4982638 3.50105881,8.93298755 3.50105881,6.99945507" id="Fill-33" fill="#B65C0D"></path>
                <path d="M6.49927167,3.99902967 C5.6618826,3.99902967 4.89274468,4.29678467 4.28748452,4.78766792 C3.79660127,5.39067805 3.50109631,6.15981597 3.50109631,6.99945507 C3.50109631,8.93298755 5.06862264,10.4982638 7.00215511,10.4982638 C7.83954418,10.4982638 8.6086821,10.2027589 9.21169223,9.71187563 C9.70482551,9.1088655 10.0003305,8.33972758 10.0003305,7.50008848 C10.0003305,5.566556 8.43280414,3.99902967 6.49927167,3.99902967" id="Fill-35" fill="#FFA04C"></path>
                <path d="M13.5013518,28.9995746 L0.500633409,28.9995746 C0.225003779,28.9995746 0,28.7745708 0,28.4989412 L0,15.4982228 C0,15.2225932 0.225003779,15.0002145 0.500633409,15.0002145 L13.5013518,15.0002145 C13.7769814,15.0002145 13.9993601,15.2225932 13.9993601,15.4982228 L13.9993601,28.4989412 C13.9993601,28.7745708 13.7769814,28.9995746 13.5013518,28.9995746" id="Fill-37" fill="#EBF3FD"></path>
                <path d="M13.0007184,28.9995746 L0.500633409,28.9995746 C0.225003779,28.9995746 0,28.7745708 0,28.4989412 L0,15.9988562 C0,15.7228516 0.225003779,15.4982228 0.500633409,15.4982228 L13.2523476,15.4982228 C13.3888499,15.4982228 13.5013518,15.6107247 13.5013518,15.747227 L13.5013518,28.4989412 C13.5013518,28.7745708 13.276723,28.9995746 13.0007184,28.9995746" id="Fill-39" fill="#B1CDFC"></path>
                <path d="M10.5009264,21.997532 C10.5009264,23.9310645 8.93340005,25.4985908 7.00211761,25.4985908 C5.06858514,25.4985908 3.50105881,23.9310645 3.50105881,21.997532 C3.50105881,20.0662496 5.06858514,18.4987232 7.00211761,18.4987232 C8.93340005,18.4987232 10.5009264,20.0662496 10.5009264,21.997532" id="Fill-41" fill="#7598D9"></path>
                <path d="M10.5009264,21.997532 C10.5009264,20.0662496 8.93340005,18.4987232 7.00211761,18.4987232 C5.9059742,18.4987232 4.93170784,19.0019817 4.28744702,19.7876199 C4.89270718,19.2948616 5.6618451,18.9993566 6.49923417,18.9993566 C8.43276664,18.9993566 10.000293,20.566883 10.000293,22.5004154 C10.000293,23.3378045 9.70478801,24.1069424 9.21165473,24.7122026 C9.99766793,24.0679418 10.5009264,23.0936754 10.5009264,21.997532" id="Fill-43" fill="#EBF3FD"></path>
                <path d="M3.50105881,21.997532 C3.50105881,21.1601429 3.79656377,20.391005 4.28744702,19.7876199 C3.50368385,20.4300057 3.0008004,21.4065221 3.0008004,22.5004154 C3.0008004,24.4339479 4.56832673,25.9988492 6.49923417,25.9988492 C7.59312754,25.9988492 8.57189398,25.4959658 9.21202973,24.7122026 C8.6086446,25.2030858 7.83950668,25.4985908 7.00211761,25.4985908 C5.06858514,25.4985908 3.50105881,23.9310645 3.50105881,21.997532" id="Fill-45" fill="#7598D9"></path>
                <path d="M6.49927167,18.9992816 C5.6618826,18.9992816 4.89274468,19.2947866 4.28748452,19.7879199 C3.79660127,20.39093 3.50109631,21.1600679 3.50109631,21.997457 C3.50109631,23.9309895 5.06862264,25.4985158 7.00215511,25.4985158 C7.83954418,25.4985158 8.6086821,25.2030108 9.21169223,24.7121276 C9.70482551,24.1068674 10.0003305,23.3377295 10.0003305,22.5003404 C10.0003305,20.566808 8.43280414,18.9992816 6.49927167,18.9992816" id="Fill-47" fill="#85ABEF"></path>
            </g>
        </g>
    </g>
</svg>