<?xml version="1.0" encoding="UTF-8"?>
<svg width="20px" height="20px" viewBox="0 0 20 20" version="1.1" xmlns="http://www.w3.org/2000/svg" xmlns:xlink="http://www.w3.org/1999/xlink">
    <title>huiyuan</title>
    <defs>
        <polygon id="path-1" points="19.973624 0 19.973624 20 0 20 0 0"></polygon>
    </defs>
    <g id="é¡µé¢-1" stroke="none" stroke-width="1" fill="none" fill-rule="evenodd">
        <g id="kepler-homepage" transform="translate(-1621.000000, -30.000000)">
            <g id="huiyuan" transform="translate(1621.000000, 30.000000)">
                <mask id="mask-2" fill="white">
                    <use xlink:href="#path-1"></use>
                </mask>
                <g id="Clip-2"></g>
                <path d="M9.97617848,0.0247028886 C12.6305782,-0.00261088701 15.1767147,1.05157758 17.0525121,2.92957767 C18.9288184,4.80817544 19.9798836,7.35662961 19.9736518,10.012418 C19.9736518,12.7696056 18.8562995,15.2659442 17.0496763,17.0732642 C15.2430439,18.8805934 12.7471053,19.9988979 9.98988512,20.0000009 C7.23264847,20.0011453 4.73585461,18.8848644 2.9278051,17.0789896 C1.11973356,15.2730929 0.000422952702,12.7775859 -0.00181482317,10.0203162 C-0.00404255644,7.26312284 1.11124564,4.76589065 2.91640407,2.95712314 C4.721564,1.14835412 7.21659523,0.0280507144 9.97617848,0.0247028886 Z M11.5210878,14.8779252 L8.94911549,14.8778806 L8.71399207,14.8865748 C8.09151944,14.9315434 7.50756807,15.149107 7.01820306,15.4989686 C6.46769246,15.8925451 6.03688137,16.4535455 5.92577831,17.4332067 C7.16882898,18.1113729 8.56240691,18.4659452 9.9783402,18.4394384 C11.4205931,18.4427766 12.8448019,18.0746095 14.235068,17.0898166 C14.0914207,16.4526633 13.7394594,15.9057775 13.2601416,15.515136 C12.7808266,15.1244968 12.1741561,14.8901001 11.5210878,14.8779252 L11.5210878,14.8779252 Z M9.90495651,1.49578302 C8.18161913,1.51434978 6.54997941,2.05453228 5.19164581,2.9910922 C3.83329118,3.92766662 2.74825142,5.26063072 2.11813358,6.86473935 C1.48802294,8.46882966 1.37574141,10.1838707 1.73345905,11.7945378 C2.09117836,13.4052125 2.91890131,14.9115121 4.5759287,16.0245634 C4.98375701,15.1887272 5.61202164,14.505733 6.37083794,14.0317218 C7.12966253,13.5577054 8.01904151,13.2926764 8.94908786,13.2927766 L8.94908786,13.2927766 L11.55337,13.2927766 L11.8396673,13.3017757 C12.5984376,13.3505974 13.3171171,13.5963227 13.9338238,13.9984442 C14.6276189,14.450831 15.1923543,15.1011565 15.9550077,15.9707686 C17.1790066,14.7574594 17.974017,13.2336503 18.2968651,11.6156317 C18.6197096,9.99763107 18.4704024,8.28542284 17.80577,6.69528922 C17.1411364,5.10515308 16.0275891,3.79596692 14.6493784,2.88896951 C13.2711547,1.98196349 11.6282625,1.47715378 9.90495651,1.49578302 Z M9.97353918,4.09770236 C10.9922766,4.09770236 11.9693234,4.502416 12.689609,5.22270158 C13.4100096,5.94310215 13.8147288,6.92015046 13.8147288,7.93889193 C13.8147288,8.99956575 13.3847738,9.95983111 12.689657,10.6549325 C11.9945258,11.3500485 11.0342208,11.7799911 9.97353918,11.7799911 C8.91280216,11.7799911 7.95250104,11.3500634 7.25738202,10.6549648 C6.56225735,9.95986059 6.13231947,8.99958151 6.13231947,7.93889193 C6.13231947,6.8781626 6.56225327,5.9178636 7.25737408,5.2227479 C7.95249347,4.52763362 8.91279798,4.09770236 9.97353918,4.09770236 Z M10.0226607,5.65879053 C9.39150516,5.65892624 8.81908668,5.91279719 8.40257528,6.32440673 C7.98607336,6.73600691 7.72546786,7.30533923 7.71792401,7.93642862 C7.71028791,8.56952749 7.95882954,9.14658007 8.36738485,9.56516699 C8.77493049,9.98271943 9.34162589,10.2428228 9.97297405,10.2442137 C10.588387,10.2590926 11.1891629,10.0227942 11.6334992,9.58876524 C12.0779352,9.15497406 12.3283848,8.56003211 12.3282493,7.93883595 C12.3204144,7.30463556 12.0595692,6.73533139 11.6429015,6.32383534 C11.2262361,5.91234145 10.6537533,5.658655 10.0226607,5.65879053 L10.0226607,5.65879053 Z" id="Fill-1" fill="#FFFFFF" mask="url(#mask-2)"></path>
            </g>
        </g>
    </g>
</svg>