<?xml version="1.0" encoding="UTF-8"?>
<svg width="20px" height="20px" viewBox="0 0 20 20" version="1.1" xmlns="http://www.w3.org/2000/svg" xmlns:xlink="http://www.w3.org/1999/xlink">
    <title>Fill 1</title>
    <g id="页面-1" stroke="none" stroke-width="1" fill="none" fill-rule="evenodd">
        <g id="kepler-homepage" transform="translate(-1671.000000, -30.000000)" fill="#FFFFFF">
            <path d="M1681.00006,30 C1683.76151,30 1686.26149,31.1192776 1688.07111,32.9289201 C1689.88074,34.73857 1691,37.2385902 1691,40.0000617 C1691,42.761515 1689.88074,45.2614999 1688.07112,47.0711212 C1686.2615,48.8807426 1683.76152,50 1681.00006,50 C1678.23859,50 1675.73857,48.880738 1673.92892,47.0711101 C1672.11928,45.2614898 1671,42.7615095 1671,40.0000617 C1671,37.2385957 1672.11928,34.7385802 1673.92893,32.9289312 C1675.73858,31.1192822 1678.2386,30 1681.00006,30 Z M1684.45421,40.7406791 L1677.54579,40.7406791 L1677.5668,41.1696355 C1677.68632,43.1551239 1678.10308,44.9068731 1678.67338,46.1969668 C1678.99393,46.9221012 1679.36362,47.5022541 1679.7558,47.8992332 C1680.15516,48.3034807 1680.5793,48.5187405 1681.00006,48.5187405 C1681.42073,48.5187405 1681.84484,48.3034456 1682.2442,47.8991242 C1682.63635,47.5020949 1683.00605,46.9218771 1683.32662,46.1966697 C1683.93762,44.8144495 1684.37244,42.9023635 1684.45421,40.7406791 L1684.45421,40.7406791 Z M1689.48683,40.7410737 L1685.93665,40.7410737 L1685.91453,41.2269547 C1685.76784,43.8014501 1685.16707,46.1000295 1684.34833,47.8351068 C1685.75891,47.2318087 1686.97354,46.258568 1687.87038,45.0373778 C1688.76929,43.813372 1689.34897,42.3403105 1689.48683,40.7410737 L1689.48683,40.7410737 Z M1676.06334,40.7410737 L1672.51317,40.7410737 L1672.54944,41.0817732 C1672.7355,42.5493754 1673.29493,43.9005484 1674.12956,45.0370884 C1675.02641,46.2583583 1676.24107,47.231762 1677.77867,47.691386 C1676.78176,45.9915875 1676.15802,43.5115215 1676.06334,40.7410737 L1676.06334,40.7410737 Z M1677.55759,32.2058523 C1676.17094,32.8189742 1674.97882,33.7911814 1674.09904,35.0045276 C1673.21752,36.2202894 1672.64955,37.678115 1672.51359,39.2593209 L1672.51359,39.2593209 L1676.06381,39.2593209 L1676.08594,38.7732498 C1676.23254,36.197812 1676.82945,33.900213 1677.55759,32.2058523 Z M1680.93675,31.4830098 C1680.51652,31.5060464 1680.0996,31.7370747 1679.70795,32.1504094 C1679.32329,32.5563728 1678.96152,33.1389997 1678.64808,33.8615043 C1678.0505,35.2389964 1677.62659,37.1279204 1677.54578,39.2593209 L1677.54578,39.2593209 L1684.45421,39.2593209 L1684.43308,38.828358 C1684.31275,36.833653 1683.892,35.0748293 1683.3102,33.7833641 C1682.98572,33.0630703 1682.61052,32.4872824 1682.20995,32.0938023 C1681.80413,31.6951719 1681.37103,31.4825534 1680.93675,31.4830098 Z M1684.28246,32.4146488 C1685.24375,34.1104453 1685.84381,36.5451543 1685.93628,39.2593209 L1685.93628,39.2593209 L1689.48644,39.2593209 L1689.45019,38.9182921 C1689.26412,37.4493083 1688.70419,36.0976392 1687.87559,34.9729768 C1686.98594,33.7654595 1685.78659,32.8196931 1684.28246,32.4146488 Z" id="Fill-1"></path>
        </g>
    </g>
</svg>