<?xml version="1.0" encoding="UTF-8"?>
<svg width="20px" height="20px" viewBox="0 0 20 20" version="1.1" xmlns="http://www.w3.org/2000/svg" xmlns:xlink="http://www.w3.org/1999/xlink">
    <title>编组 11</title>
    <g id="页面-1" stroke="none" stroke-width="1" fill="none" fill-rule="evenodd">
        <g id="个人中心" transform="translate(-703.000000, -829.000000)" fill="#FFFFFF">
            <g id="编组-11" transform="translate(703.000000, 829.000000)">
                <path d="M10.000089,4.85145077 C7.22773568,4.85145077 4.85145077,7.09562907 4.85145077,10.000089 C4.85145077,12.7722748 7.09562907,15.1485178 10.000089,15.1485178 C12.7722748,15.1485178 15.1485178,12.9043395 15.1485178,10.000089 C15.1485178,7.22773568 12.7722748,4.85145077 10.000089,4.85145077 Z M10.000089,13.3004079 C8.15176967,13.3004079 6.69972823,11.8481989 6.69972823,10.000089 C6.69972823,8.15176967 8.15176967,6.69972823 10.000089,6.69972823 C11.8481989,6.69972823 13.3004079,8.15176967 13.3004079,10.000089 C13.3004079,11.8481989 11.8481989,13.3004079 10.000089,13.3004079 Z M15.2804568,3.53130645 C14.6203847,3.53130645 14.0923772,4.05943959 14.0923772,4.71951175 C14.0923772,5.37958391 14.6203847,5.90759136 15.2804568,5.90759136 C15.940529,5.90759136 16.4686621,5.37958391 16.4686621,4.71951175 C16.4686621,4.05943959 15.940529,3.53130645 15.2804568,3.53130645 Z" id="Fill-3"></path>
                <path d="M14.6203847,0.0990485328 L14.0923772,0.0990485328 C12.5082711,-0.0330161776 7.49169751,-0.0330161776 5.90759136,0.0990485328 C2.87123429,-0.0330161776 0.230945648,2.34322684 0.0990485328,5.37958391 L0.0990485328,5.90759136 C-0.0330161776,7.49169751 -0.0330161776,12.5082711 0.0990485328,14.0923772 C-0.0330161776,17.1287343 2.34322684,19.7690229 5.37958391,19.90092 L5.90759136,19.90092 C7.49169751,20.0330267 12.5082711,20.0330267 14.0923772,19.90092 C17.1287343,20.0330267 19.7690229,17.6567417 19.90092,14.6203847 L19.90092,5.90759136 C20.0330267,2.87123429 17.6567417,0.230945648 14.6203847,0.0990485328 Z M17.7888064,15.80859 C17.392738,16.7326659 16.7326659,17.392738 15.940529,17.6567417 C12.1122026,18.1848749 8.15176967,18.1848749 4.19137861,17.6567417 C3.26730272,17.2606733 2.60723056,16.6006011 2.34322684,15.80859 C1.9471584,13.8284154 1.81526129,11.8481989 1.9471584,10.000089 C1.81526129,8.01987255 1.9471584,6.03965607 2.34322684,4.19137861 C2.73933717,3.26730272 3.39936743,2.60723056 4.19137861,2.34322684 C8.01987255,1.81526129 11.9802636,1.81526129 15.940529,2.34322684 C16.8647306,2.73933717 17.5248027,3.39936743 17.7888064,4.19137861 C18.1848749,6.17159509 18.3168139,8.15176967 18.1848749,10.000089 C18.3168139,11.9802636 18.1848749,13.9604801 17.7888064,15.80859 Z" id="Fill-4"></path>
            </g>
        </g>
    </g>
</svg>