<?xml version="1.0" encoding="UTF-8"?>
<svg width="32px" height="32px" viewBox="0 0 32 32" version="1.1" xmlns="http://www.w3.org/2000/svg" xmlns:xlink="http://www.w3.org/1999/xlink">
    <title>编组</title>
    <defs>
        <polygon id="path-1" points="1.33229625e-15 0 32.00015 0 32.00015 11.9998828 1.33229625e-15 11.9998828"></polygon>
        <polygon id="path-3" points="0 0 1.99950546 0 1.99950546 2.00179301 0 2.00179301"></polygon>
        <polygon id="path-5" points="0 1.33229625e-15 1.99950546 1.33229625e-15 1.99950546 1.99954296 0 1.99954296"></polygon>
        <polygon id="path-7" points="0 5.32918501e-15 1.99954296 5.32918501e-15 1.99954296 1.99935545 0 1.99935545"></polygon>
    </defs>
    <g id="页面-1" stroke="none" stroke-width="1" fill="none" fill-rule="evenodd">
        <g id="kepler-homepage-下拉菜单new" transform="translate(-38.000000, -289.000000)">
            <g id="编组-15" transform="translate(8.000000, 80.000000)">
                <g id="编组" transform="translate(30.000000, 209.000000)">
                    <polygon id="Fill-1" fill="#B1CDFC" points="5.50069318 20.0001172 7.50016113e-05 32 31.9998875 32 26.4996443 20.0001172"></polygon>
                    <g>
                        <path d="M11.6457252,26.0280717 L7.24875573,20.0001922 L5.50046817,20.0001922 L5.33471461,20.3617 L6.88274787,22.4831205 C7.15125364,22.8517535 6.82424661,23.3595144 6.37723701,23.2668874 L4.20669038,22.8198778 L3.50617533,24.3506607 L11.6457252,26.0280717 Z" id="Fill-2" fill="#85ABEF"></path>
                        <path d="M31.1018557,30.044783 L26.4997568,20.0001922 L24.644217,20.0001922 L27.6911574,26.646085 C27.8617861,27.019968 27.5374041,27.4272268 27.1346455,27.343975 L23.1648102,26.5260824 L23.6481956,28.5061249 L31.1018557,30.044783 Z" id="Fill-4" fill="#85ABEF"></path>
                        <path d="M23.6481956,28.5062749 L21.5777761,19.9999672 L19.6858604,19.9999672 L20.7745088,24.4704382 C20.9477625,25.1833285 20.3203741,25.8350926 19.5999836,25.6865894 L9.94165109,23.6945466 L11.6456877,26.0282217 L23.6481956,28.5062749 Z" id="Fill-6" fill="#85ABEF"></path>
                        <path d="M24.5000264,32 L23.6483831,28.5064249 L21.5288375,28.0691655 L21.8487194,29.3828188 C21.924471,29.6978255 21.6874659,30.000457 21.363084,30.000457 L14.5413124,30.000457 L15.9989687,32 L24.5000264,32 Z" id="Fill-8" fill="#85ABEF"></path>
                        <path d="M32.0001875,32 L31.1016682,30.044708 L27.9962265,29.4045692 L28.1747303,29.7930776 C28.3258586,30.1223347 28.0843534,30.5010928 27.7205956,30.5010928 L24.1336435,30.5010928 L24.5000264,32 L32.0001875,32 Z" id="Fill-10" fill="#85ABEF"></path>
                        <path d="M11.9020807,32 C11.7217018,31.3358607 10.7815566,28.4869245 8.1081242,28.7625554 C8.16175035,28.8431822 8.21312645,28.9238089 8.26450256,29.0066857 C8.657511,29.6655748 8.16175035,30.5010928 7.39298383,30.5010928 L0.686339746,30.5010928 L7.50016113e-05,32 L11.9020807,32 Z" id="Fill-12" fill="#85ABEF"></path>
                        <path d="M13.1179318,30.000457 C12.707673,30.000457 12.3416652,29.7514517 12.1901619,29.3704435 C11.728902,28.2060435 10.5423765,26.1993754 7.97882142,26.8751399 C4.92213075,27.6791572 3.57435179,26.228251 3.05421562,25.3398569 L2.33420015,26.9043905 C2.61245613,27.5809051 3.83310735,29.8343285 7.48081072,28.8746829 C10.6402536,28.042165 11.7067765,31.2844846 11.9021557,32 L15.9991187,32 L14.5414624,30.000457 L13.1179318,30.000457 Z" id="Fill-14" fill="#85ABEF"></path>
                        <g transform="translate(0.000038, 20.000080)">
                            <mask id="mask-2" fill="white">
                                <use xlink:href="#path-1"></use>
                            </mask>
                            <g id="Clip-17"></g>
                            <path d="M5.98175351,0.752266162 L26.018809,0.752266162 L30.8309124,11.2502417 L1.16702507,11.2502417 L5.98175351,0.752266162 Z M26.4995693,0 L5.50061818,0 L1.33229625e-15,11.9998828 L32.0001875,11.9998828 L26.4995693,0 Z" id="Fill-16" fill="#3353B6" mask="url(#mask-2)"></path>
                        </g>
                        <polygon id="Fill-18" fill="#3353B6" points="15.3225667 31.7092563 7.27301876 20.6712691 7.87865677 20.2272596 15.9282047 31.2648717"></polygon>
                        <polygon id="Fill-20" fill="#3353B6" points="30.7235476 30.349477 3.90372137 24.8147331 4.05559963 24.0797173 30.8746758 29.6144612"></polygon>
                        <polygon id="Fill-22" fill="#3353B6" points="23.9898654 31.4873265 21.3336833 20.5835922 22.060824 20.4054634 24.717381 31.3088227"></polygon>
                        <path d="M11.382057,31.6165918 C10.9522978,30.4668171 9.88802494,28.6281526 7.57610027,29.2386657 C4.13352631,30.1416851 2.66874484,28.3060206 2.19735971,27.4735028 L2.84912371,27.1048698 C3.32763399,27.949763 4.55353533,29.2581661 7.38559617,28.51115 C10.3762854,27.7273832 11.6678132,30.2395622 12.0851971,31.3559612 L11.382057,31.6165918 Z" id="Fill-24" fill="#3353B6"></path>
                        <path d="M23.0303698,2.91235007 C19.1460363,-0.969733334 12.8519011,-0.969733334 8.97019272,2.91235007 C5.08810931,6.79443347 5.08810931,13.0885687 8.97019272,16.9702771 L15.9989687,23.9990531 L23.0303698,16.9702771 C26.9124532,13.0885687 26.9124532,6.79443347 23.0303698,2.91235007" id="Fill-26" fill="#FFA04C"></path>
                        <path d="M23.0303698,2.91235007 C22.3392299,2.22383528 21.5727135,1.65982316 20.757071,1.21768866 C21.0233267,1.43331829 21.2798322,1.66282322 21.5288375,1.91145357 C25.4109209,5.79353697 25.4109209,12.0899222 21.5288375,15.9716306 L14.7490669,22.7514013 L15.9989687,23.9990531 L23.0303698,16.9702771 C26.9124532,13.0885687 26.9124532,6.79443347 23.0303698,2.91235007" id="Fill-28" fill="#E07D26"></path>
                        <path d="M20.9989511,9.94120108 C20.9989511,12.7023854 18.7601531,14.9415585 15.9989687,14.9415585 C13.2377844,14.9415585 10.9989863,12.7023854 10.9989863,9.94120108 C10.9989863,7.18039177 13.2377844,4.94121866 15.9989687,4.94121866 C18.7601531,4.94121866 20.9989511,7.18039177 20.9989511,9.94120108" id="Fill-30" fill="#3353B6"></path>
                        <path d="M19.0433591,5.981266 C19.6928731,6.82390911 20.0832565,7.87880677 20.0832565,9.02558141 C20.0832565,11.7852657 17.8448334,14.0233138 15.0832741,14.0233138 C13.9361244,14.0233138 12.8812267,13.6351804 12.0389586,12.9834164 C12.9521033,14.172567 14.3850091,14.9417085 15.9990437,14.9417085 C18.7602281,14.9417085 20.9990262,12.7025354 20.9990262,9.94135108 C20.9990262,8.32506636 20.2298846,6.89441062 19.0433591,5.981266" id="Fill-32" fill="#1D3285"></path>
                        <polygon id="Fill-34" fill="#B1CDFC" points="3.50103772 1.4987572 3.97729795 2.4996537 3.50103772 3.50092522 4.49968417 3.02203993 5.49833063 3.50092522 5.0224454 2.4996537 5.49833063 1.4987572 4.49968417 1.97726748"></polygon>
                        <g transform="translate(0.000000, 8.000609)">
                            <mask id="mask-4" fill="white">
                                <use xlink:href="#path-3"></use>
                            </mask>
                            <g id="Clip-37"></g>
                            <polygon id="Fill-36" fill="#B1CDFC" mask="url(#mask-4)" points="-3.75008057e-05 0 0.476222731 1.0008965 -3.75008057e-05 2.00179301 0.998608954 1.52328273 1.99950546 2.00179301 1.52137019 1.0008965 1.99950546 0 0.998608954 0.478135272"></polygon>
                        </g>
                        <polygon id="Fill-38" fill="#B1CDFC" points="1.99954296 14.5020866 2.47805324 15.5029831 1.99954296 16.5016295 2.99818941 16.0231192 3.99908592 16.5016295 3.52095065 15.5029831 3.99908592 14.5020866 2.99818941 14.9783468"></polygon>
                        <g transform="translate(0.000000, 21.501612)">
                            <mask id="mask-6" fill="white">
                                <use xlink:href="#path-5"></use>
                            </mask>
                            <g id="Clip-41"></g>
                            <polygon id="Fill-40" fill="#B1CDFC" mask="url(#mask-6)" points="-3.75008057e-05 1.33229625e-15 0.476222731 1.0008965 -3.75008057e-05 1.99954296 0.998608954 1.52328273 1.99950546 1.99954296 1.52137019 1.0008965 1.99950546 1.33229625e-15 0.998608954 0.478885289"></polygon>
                        </g>
                        <g transform="translate(28.999748, 0.000000)">
                            <mask id="mask-8" fill="white">
                                <use xlink:href="#path-7"></use>
                            </mask>
                            <g id="Clip-43"></g>
                            <polygon id="Fill-42" fill="#B1CDFC" mask="url(#mask-8)" points="0 -0.000187504028 0.47851028 1.000709 0 1.99935545 1.0008965 1.52084517 1.99954296 1.99935545 1.52328273 1.000709 1.99954296 -0.000187504028 1.0008965 0.478322776"></polygon>
                        </g>
                        <polygon id="Fill-44" fill="#B1CDFC" points="27.4982533 5.50043067 27.9767636 6.50132718 27.4982533 7.50222368 28.4991498 7.0237134 29.5004213 7.50222368 29.021536 6.50132718 29.5004213 5.50043067 28.4991498 5.97856595"></polygon>
                        <polygon id="Fill-46" fill="#B1CDFC" points="30.0006445 11.0010113 30.4769048 12.0022829 30.0006445 13.0005543 30.999291 12.5242941 32.0001875 13.0005543 31.5220522 12.0022829 32.0001875 11.0010113 30.999291 11.4791466"></polygon>
                        <polygon id="Fill-48" fill="#B1CDFC" points="25.9993086 16.5016295 26.4774439 17.502526 25.9993086 18.5034225 27.0002051 18.0249123 27.9988515 18.5034225 27.5203413 17.502526 27.9988515 16.5016295 27.0002051 16.9797648"></polygon>
                    </g>
                </g>
            </g>
        </g>
    </g>
</svg>