<?xml version="1.0" encoding="UTF-8"?>
<svg width="163px" height="30px" viewBox="0 0 163 30" version="1.1" xmlns="http://www.w3.org/2000/svg" xmlns:xlink="http://www.w3.org/1999/xlink">
    <title>编组</title>
    <defs>
        <path d="M5.83927097,0.111733138 C6.03520879,0.111733138 6.2028085,0.140071253 6.37040821,0.111733138 C6.53800792,0.111733138 6.67767434,0.0837998538 6.81734076,0.0837998538 C6.95700718,0.0837998538 7.06874032,0.195532992 7.34807317,0.167599708 C7.48773959,0.140071253 7.62740601,0.167599708 7.82334384,0.251399561 C7.90714369,0.279332846 7.87880558,0.195532992 7.93467214,0.167599708 C8.0747434,0.140071253 8.29820967,0.167599708 8.4378761,0.0837998538 C8.57754252,0.0837998538 8.60547581,0.223871107 8.74514223,0.251399561 C9.1641415,0.279332846 9.47140763,0.195532992 9.75074047,0.0279332846 C9.8904069,-0.0279332846 9.75074047,0.195532992 9.86287844,0.167599708 C10.0584114,0.0562713994 10.2539444,0.0837998538 10.5612106,0.0837998538 C10.7846768,0.0837998538 10.9243433,0 11.091943,0.0837998538 C11.1478095,0.111733138 11.1757428,0.140071253 11.2320142,0.167599708 C11.3158141,0.195532992 11.4550757,0.195532992 11.5672136,0.223871107 C11.8465465,0.251399561 12.0700128,0.279332846 12.3214123,0.167599708 C12.489012,0.111733138 12.4331455,0.279332846 12.5728119,0.251399561 C12.684545,0.251399561 12.7683449,0.167599708 12.8242114,0.251399561 C12.9638779,0.502799123 13.0197444,0.894269937 12.8242114,1.11773621 C12.7962782,1.39706906 12.880078,1.64846862 12.880078,1.92780147 C12.880078,2.73827155 12.7124783,3.60420337 12.7404116,4.30294032 C12.7124783,4.38674017 12.6286784,4.41426863 12.6286784,4.52600176 C12.6286784,4.77780616 12.6286784,5.00127243 12.6286784,5.22473871 C12.6566117,5.39233842 12.4052122,5.75587595 12.4331455,5.89513754 C12.293479,6.00727551 12.684545,6.11860382 12.4331455,6.20240367 C12.4331455,6.37040821 12.2376125,6.28620352 12.1258793,6.28620352 C12.0141462,6.31454164 11.902413,6.34247492 11.8186132,6.34247492 C11.6226754,6.28620352 11.5947421,5.55993812 11.3996139,5.58787141 C11.3712758,5.39233842 11.2036761,5.36440513 11.1757428,5.19680542 C11.0360764,5.22473871 11.091943,5.057139 10.9243433,5.11300557 C10.9802098,4.94540586 10.8405434,5.00127243 10.7846768,4.91747258 C10.7846768,4.91747258 10.8126101,4.86160601 10.7846768,4.83367272 C10.7288103,4.77780616 10.6170771,4.74987287 10.6170771,4.66607302 C10.505344,4.66607302 10.3936108,4.66607302 10.309811,4.66607302 C10.2539444,4.63813973 10.1701446,4.58227316 10.0863447,4.58227316 C9.91874501,4.55433988 9.75074047,4.6940063 9.55520748,4.72193959 C9.22000807,4.74987287 8.88480865,4.61020645 8.60547581,4.72193959 C8.4378761,4.72193959 8.4378761,4.55433988 8.24234311,4.58227316 C8.0747434,4.52600176 7.96260543,4.6940063 7.76707244,4.72193959 C7.45980631,4.72193959 7.12460689,4.58227316 6.9290739,4.83367272 C6.78940748,4.88953929 6.90114061,4.6940063 6.76147419,4.74987287 C6.62180777,4.6940063 6.73354091,4.88953929 6.59387448,4.83367272 C6.39834149,4.91747258 6.62180777,4.55433988 6.42627478,4.61020645 C6.23033695,4.58227316 6.34247492,4.74987287 6.34247492,4.83367272 C6.31454164,4.94540586 6.25827024,5.02920572 6.28660835,5.14093886 C6.31454164,5.30853856 6.42627478,5.4202717 6.42627478,5.58787141 C6.39834149,5.81133769 6.25827024,5.92347565 6.2028085,6.11860382 C6.28660835,6.81734076 6.37040821,7.99053871 6.28660835,8.74514223 C6.62180777,8.68927566 6.53800792,13.0476777 6.37040821,12.992216 C6.28660835,13.1035443 6.42627478,13.2436155 6.42627478,13.3828771 C6.31454164,13.7184814 6.37040821,14.9479507 6.37040821,15.3390167 C6.37040821,15.4786831 6.31454164,16.2887484 6.34247492,16.4284148 C6.34247492,16.5684861 6.42627478,16.7077477 6.42627478,16.8198856 C6.42627478,17.0429471 6.34247492,17.2388849 6.23033695,17.4064846 C6.51007463,17.3226847 6.9290739,17.4064846 7.12460689,17.2109516 C7.45980631,17.2388849 8.10267668,17.2668182 8.4378761,17.1267469 C8.57754252,17.1267469 8.63340909,17.2388849 8.77307551,17.2109516 C8.88480865,17.2388849 8.91274194,17.155085 9.05240836,17.1267469 C9.27627947,17.0992185 9.63900733,17.1830183 9.75074047,16.9591472 C9.9466783,17.0429471 10.0584114,16.8198856 10.3377443,16.8753474 C10.4215441,16.7360858 10.5612106,16.7636142 10.700877,16.7077477 C10.7846768,16.6522859 10.8684767,16.5684861 10.9522765,16.4846862 C11.0081431,16.4004815 11.0640097,16.2887484 11.1478095,16.2049485 C11.1757428,16.1770152 11.2320142,16.2049485 11.2595427,16.1770152 C11.3712758,16.0932154 11.5388755,15.9256157 11.6510135,15.8138826 C11.7348133,15.758016 11.8465465,15.4786831 11.8744798,15.4786831 C11.9303463,15.4507499 12.0141462,15.4786831 12.0420795,15.4786831 C12.097946,15.4507499 12.0700128,15.3948833 12.1258793,15.36695 C12.3214123,15.3390167 12.5728119,15.0317506 12.7962782,15.2552169 C12.8242114,15.4228166 12.7124783,16.0652821 12.7124783,16.2608151 C12.7124783,16.3725482 12.7683449,16.5401479 12.7404116,16.6522859 C12.7404116,16.7915475 12.6566117,16.9591472 12.6566117,17.0992185 C12.6566117,17.2388849 12.7404116,17.350618 12.7404116,17.4902845 C12.7683449,17.5740843 12.7124783,17.6299509 12.7124783,17.7137507 C12.7124783,17.7975506 12.7962782,17.8813504 12.7962782,17.9651503 C12.8242114,18.2728213 12.7683449,18.6355491 12.7962782,18.9152868 C12.8242114,19.1387531 12.9080113,19.3342861 12.880078,19.6694855 C12.880078,19.8095567 12.7683449,19.8933566 12.7404116,20.0046849 C12.7404116,20.116418 12.7683449,20.228556 12.7404116,20.3123559 C12.7404116,20.3961557 12.6566117,20.4516175 12.6566117,20.507484 C12.6566117,20.5637554 12.7124783,20.5912839 12.7124783,20.6754886 C12.7124783,20.7313551 12.6566117,20.7592884 12.6566117,20.815155 C12.684545,20.9827547 12.8242114,21.0665545 12.7962782,21.2900208 C12.7683449,21.3738207 12.6286784,21.3458874 12.5728119,21.401754 C12.6007452,21.5414204 12.4052122,21.4576205 12.4052122,21.5414204 C12.2096792,21.5693537 12.2655457,21.3179541 12.0420795,21.3738207 C11.8186132,21.3458874 11.8465465,21.5414204 11.7068801,21.597287 C11.2595427,21.597287 10.7567435,21.6252202 10.4774107,21.4576205 C10.309811,21.5134871 9.8904069,21.6252202 9.75074047,21.4576205 C9.61147888,21.4855538 9.52767903,21.5693537 9.38760777,21.597287 C9.10827493,21.6252202 8.66134237,21.4296872 8.29820967,21.401754 C8.018472,21.401754 7.82334384,21.5414204 7.59947273,21.4576205 C7.45980631,21.401754 7.57153944,21.597287 7.43187302,21.5414204 C7.12460689,21.5134871 6.87320733,21.597287 6.51007463,21.597287 C6.39834149,21.597287 6.28660835,21.5414204 6.2028085,21.5414204 C5.95140894,21.5414204 5.69960455,21.6252202 5.44820499,21.6252202 C5.19680542,21.6531535 4.91747258,21.6531535 4.63813973,21.6810868 C4.55433988,21.6810868 4.55433988,21.6252202 4.49847331,21.6252202 C4.41467346,21.6531535 4.3308736,21.7090201 4.24707375,21.7090201 C3.79973636,21.7652915 3.35280381,21.6810868 2.85000469,21.6810868 C2.73827155,21.6810868 2.65406687,21.6810868 2.54273856,21.6810868 C2.4589387,21.6810868 2.37513885,21.6252202 2.31886745,21.6252202 C2.17920103,21.6531535 2.09540117,21.7369534 1.95573475,21.7090201 C1.81606833,21.7090201 1.73226847,21.6252202 1.56466877,21.597287 C1.22946935,21.5693537 1.03393636,21.6531535 0.698332115,21.6252202 C0.642465546,21.5414204 0.558665692,21.4296872 0.530732407,21.3179541 C0.530732407,21.2341543 0.279332846,21.1503544 0.391065984,21.0944878 C0.391065984,20.9548214 0.446932553,20.8989548 0.558665692,20.8989548 C0.530732407,20.7592884 0.587003807,20.6754886 0.614532261,20.5912839 C0.726265399,20.5354173 0.782131969,20.3678176 0.922203222,20.3123559 C1.00600308,20.0605515 1.11773621,19.6415522 1.31326921,19.4180859 C1.25740264,19.1946196 1.42500234,19.0270199 1.48086891,18.8310821 C1.5088022,18.7756204 1.48086891,18.6355491 1.48086891,18.5796826 C1.5088022,18.4958827 1.56466877,18.440421 1.56466877,18.4120828 C1.64846862,17.8254839 1.59260205,17.2109516 1.62053534,16.5960145 C1.64846862,16.0652821 1.62053534,13.578815 1.64846862,13.0760158 C1.73226847,12.293479 1.73226847,11.4554805 1.73226847,10.7288103 C1.76020176,10.6170771 1.70433519,10.505344 1.70433519,10.4215441 C1.70433519,10.3377443 1.76020176,10.2539444 1.73226847,10.1701446 C1.73226847,9.9466783 1.64846862,9.72280719 1.64846862,9.49974574 C1.67640191,8.15854325 1.67640191,5.86720425 1.56466877,4.52600176 C1.64846862,4.44260674 1.73226847,4.24666892 1.64846862,4.05154076 C1.64846862,4.02320264 1.56466877,4.02320264 1.56466877,3.9677409 C1.56466877,3.88394105 1.62053534,3.71634134 1.62053534,3.60420337 C1.62053534,3.43660367 1.53673548,3.24107067 1.64846862,3.10140425 C1.70433519,2.98967111 1.56466877,2.98967111 1.56466877,2.90587126 C1.56466877,2.90587126 1.62053534,2.82166657 1.62053534,2.73827155 C1.56466877,2.57026701 1.36913578,2.45853387 1.39706906,2.20713431 C1.31326921,2.095806 1.17360278,2.095806 1.08980293,2.01200615 C1.06186964,1.98366804 1.06186964,1.84440644 1.00600308,1.78813504 C0.922203222,1.67640191 0.838403368,1.64846862 0.782131969,1.5088022 C0.754603514,1.45293563 0.726265399,1.34120249 0.642465546,1.25740264 C0.614532261,1.20153607 0.587003807,1.22946935 0.530732407,1.17360278 C0.503203953,1.17360278 0.503203953,1.08980293 0.474865838,1.08980293 C0.446932553,1.06186964 0.418999269,1.08980293 0.391065984,1.08980293 C0.3631327,1.06186964 0.3631327,1.00600308 0.335199415,1.00600308 C0.251804392,0.950136506 0.223466277,0.922203222 0.139666423,0.782536799 C0.111733138,0.754198684 0.111733138,0.72667023 0.0837998538,0.698332115 C0.0837998538,0.67039883 0.139666423,0.502799123 0,0.502799123 C0.223466277,0.446932553 0.335199415,0.223871107 0.614532261,0.167599708 C0.922203222,0.111733138 1.31326921,0.251399561 1.70433519,0.223871107 C1.70433519,0.140071253 1.70433519,0.0562713994 1.70433519,0 C1.78813504,0.0279332846 1.8719349,0.0837998538 1.95573475,0.111733138 C2.93380454,0.111733138 4.66607302,0.111733138 5.83927097,0.111733138 Z" id="path-1"></path>
    </defs>
    <g id="页面-1" stroke="none" stroke-width="1" fill="none" fill-rule="evenodd">
        <g id="kepler-homepage" transform="translate(-40.000000, -25.000000)">
            <g id="编组" transform="translate(40.000000, 25.000000)">
                <g id="编组-4" transform="translate(56.000000, 4.000000)">
                    <path d="M26.6950947,0.383170477 C26.8885248,0.383170477 27.0539796,0.411466085 27.2194343,0.383170477 C27.3848891,0.383170477 27.522768,0.355279092 27.660647,0.355279092 C27.7985259,0.355279092 27.9088291,0.466844631 28.184587,0.438953246 C28.3224659,0.411466085 28.4603449,0.438953246 28.6537751,0.5226274 C28.7365024,0.550518785 28.708527,0.466844631 28.7636786,0.438953246 C28.9019572,0.411466085 29.1225635,0.438953246 29.2604425,0.355279092 C29.3983214,0.355279092 29.4258972,0.495140239 29.5637761,0.5226274 C29.977413,0.550518785 30.2807467,0.466844631 30.5565046,0.299496323 C30.6943835,0.243713554 30.5565046,0.466844631 30.6672074,0.438953246 C30.8602379,0.327791931 31.0532685,0.355279092 31.3566022,0.355279092 C31.5772085,0.355279092 31.7150874,0.271604938 31.8805422,0.355279092 C31.9356938,0.383170477 31.9632695,0.411466085 32.0188208,0.438953246 C32.1015481,0.466844631 32.2390274,0.466844631 32.3497303,0.495140239 C32.6254882,0.5226274 32.8460945,0.550518785 33.0942766,0.438953246 C33.2597313,0.383170477 33.2045798,0.550518785 33.3424587,0.5226274 C33.4527619,0.5226274 33.5354892,0.438953246 33.5906408,0.5226274 C33.7285198,0.773649862 33.7836714,1.16453347 33.5906408,1.38766455 C33.563065,1.66657839 33.6457924,1.91760086 33.6457924,2.1965147 C33.6457924,3.00576908 33.4803377,3.87040201 33.5079134,4.56809085 C33.4803377,4.651765 33.3976103,4.67925216 33.3976103,4.7908177 C33.3976103,5.04224438 33.3976103,5.26537546 33.3976103,5.48850654 C33.4251861,5.65585485 33.177004,6.01884707 33.2045798,6.15789977 C33.0667008,6.26986953 33.4527619,6.38103085 33.2045798,6.464705 C33.2045798,6.63245753 33.0115492,6.54837916 32.9012461,6.54837916 C32.7909429,6.57667476 32.6806397,6.60456615 32.5979124,6.60456615 C32.4044822,6.54837916 32.3769064,5.82320316 32.1842755,5.85109454 C32.1563001,5.65585485 31.9908453,5.62796346 31.9632695,5.46061515 C31.8253906,5.48850654 31.8805422,5.32115823 31.7150874,5.376941 C31.770239,5.20959269 31.6323601,5.26537546 31.5772085,5.18170131 C31.5772085,5.18170131 31.6047843,5.12591854 31.5772085,5.09802715 C31.5220569,5.04224438 31.4117537,5.014353 31.4117537,4.93067885 C31.3014506,4.93067885 31.1911474,4.93067885 31.10842,4.93067885 C31.0532685,4.90278746 30.9705411,4.84700469 30.8878137,4.84700469 C30.722359,4.81911331 30.5565046,4.95857023 30.3634741,4.98646162 C30.0325646,5.014353 29.7016551,4.87489608 29.4258972,4.98646162 C29.2604425,4.98646162 29.2604425,4.81911331 29.0674119,4.84700469 C28.9019572,4.7908177 28.7912544,4.95857023 28.5982238,4.98646162 C28.2948901,4.98646162 27.9639807,4.84700469 27.7709501,5.09802715 C27.6330712,5.15380992 27.7433743,4.95857023 27.6054954,5.014353 C27.4676164,4.95857023 27.5779196,5.15380992 27.4400406,5.09802715 C27.2470101,5.18170131 27.4676164,4.81911331 27.2745859,4.87489608 C27.0811557,4.84700469 27.1918585,5.014353 27.1918585,5.09802715 C27.1642827,5.20959269 27.1087315,5.29326685 27.136707,5.40483239 C27.1642827,5.57218069 27.2745859,5.68374623 27.2745859,5.85109454 C27.2470101,6.07422562 27.1087315,6.18619538 27.0539796,6.38103085 C27.136707,7.07871969 27.2194343,8.25015784 27.136707,9.00362945 C27.4676164,8.94784668 27.660647,8.72471561 27.9915565,8.66893284 C28.0742838,8.61315007 28.0742838,8.50158453 28.1294354,8.44580176 C28.3500417,8.39001899 28.5710477,8.33423622 28.7365024,8.22267068 C28.846406,8.16648369 28.929533,8.02702677 29.0398361,7.97164822 C29.1501393,7.88797407 29.315594,7.85967846 29.3707456,7.74811292 C29.7016551,7.80429991 29.8671098,7.246068 30.1428677,7.21817661 C30.3634741,7.35763353 30.2255951,7.63654738 30.2255951,7.91546123 C30.2255951,8.22267068 30.2255951,9.00362945 30.1980193,9.36621745 C30.1708432,9.53356576 30.3083225,9.5060786 30.3362979,9.61723992 C30.2255951,9.78458822 30.2255951,10.1192848 30.1980193,10.3145245 C30.1708432,10.5101684 30.0601404,10.7054081 30.0601404,10.9006478 C30.0601404,11.1241831 30.1980193,11.7935764 30.1980193,12.0167074 C30.1980193,12.1840558 30.115292,12.2956213 30.115292,12.4629696 C30.0881158,12.9092318 30.3083225,13.7463775 30.2255951,14.1926397 C30.1428677,14.4436621 30.1428677,14.6389018 29.9222614,14.7504674 C29.7016551,14.7504674 29.7016551,14.5552277 29.5362004,14.5273363 C29.3707456,14.4994449 29.315594,14.1089655 29.1501393,14.0810741 C28.9019572,13.9695086 28.7636786,13.7463775 28.5710477,13.6065164 C28.3776175,13.6344078 28.2673144,13.5507336 28.1294354,13.5507336 C27.9639807,13.5228422 27.9364049,13.3833853 27.8261017,13.3280067 C27.6330712,13.2997111 27.3848891,13.2997111 27.2194343,13.2443326 C27.136707,13.3554939 27.2745859,13.4953551 27.2745859,13.6344078 C27.1642827,13.9695086 27.2194343,15.1971337 27.2194343,15.5876131 C27.2194343,15.72707 27.1642827,16.5359202 27.1918585,16.6753771 C27.1918585,16.8152383 27.2745859,16.954291 27.2745859,17.0662607 C27.2745859,17.2889876 27.1918585,17.4846315 27.0811557,17.6519798 C27.3573133,17.5683057 27.7709501,17.6519798 27.9639807,17.4567401 C28.2948901,17.4846315 28.929533,17.5125229 29.2604425,17.3726617 C29.3983214,17.3726617 29.453473,17.4846315 29.5913519,17.4567401 C29.7016551,17.4846315 29.7292309,17.4009574 29.8671098,17.3726617 C30.0881158,17.3451746 30.4462014,17.4288487 30.5565046,17.2053134 C30.7499348,17.2889876 30.8602379,17.0662607 31.1359958,17.1216393 C31.2187232,16.9825866 31.3566022,17.0100737 31.4944811,16.954291 C31.5772085,16.8989124 31.6599359,16.8152383 31.7426632,16.7315641 C31.7978148,16.6474857 31.8529664,16.5359202 31.9356938,16.4522461 C31.9632695,16.4243547 32.0188208,16.4522461 32.0459969,16.4243547 C32.1563001,16.3406805 32.3217548,16.1733322 32.4324576,16.0617667 C32.515185,16.0059839 32.6254882,15.72707 32.653064,15.72707 C32.7082155,15.6991787 32.7909429,15.72707 32.8185187,15.72707 C32.8736703,15.6991787 32.8460945,15.6433959 32.9012461,15.6155045 C33.0942766,15.5876131 33.3424587,15.2808079 33.563065,15.503939 C33.5906408,15.6712873 33.4803377,16.3127891 33.4803377,16.5080288 C33.4803377,16.6195944 33.5354892,16.7869427 33.5079134,16.8989124 C33.5079134,17.0379651 33.4251861,17.2053134 33.4251861,17.3451746 C33.4251861,17.4846315 33.5079134,17.596197 33.5079134,17.735654 C33.5354892,17.8193281 33.4803377,17.8751109 33.4803377,17.958785 C33.4803377,18.0424592 33.563065,18.1261334 33.563065,18.2098075 C33.5906408,18.517017 33.5354892,18.8792007 33.563065,19.1585188 C33.5906408,19.3816499 33.6733682,19.5768896 33.6457924,19.9115862 C33.6457924,20.0514473 33.5354892,20.1351215 33.5079134,20.2462828 C33.5079134,20.3578483 33.5354892,20.4698181 33.5079134,20.5534923 C33.5079134,20.6371664 33.4251861,20.692545 33.4251861,20.7483277 C33.4251861,20.8045147 33.4803377,20.8320019 33.4803377,20.9160803 C33.4803377,20.971863 33.4251861,20.9997544 33.4251861,21.0555372 C33.4527619,21.2228855 33.5906408,21.3065597 33.563065,21.5296907 C33.5354892,21.6133649 33.3976103,21.5854735 33.3424587,21.6412563 C33.3700345,21.7807132 33.177004,21.697039 33.177004,21.7807132 C32.9839734,21.8086046 33.039125,21.5575821 32.8185187,21.6133649 C32.5979124,21.5854735 32.6254882,21.7807132 32.4876092,21.836496 C32.0459969,21.836496 31.5496327,21.8643873 31.2738748,21.697039 C31.10842,21.7528218 30.6943835,21.8643873 30.5565046,21.697039 C30.4190253,21.7249304 30.3362979,21.8086046 30.1980193,21.836496 C29.9222614,21.8643873 29.4810488,21.6691477 29.1225635,21.6412563 C28.846406,21.6412563 28.6537751,21.7807132 28.4327691,21.697039 C28.2948901,21.6412563 28.4051933,21.836496 28.2673144,21.7807132 C27.9639807,21.7528218 27.7157986,21.836496 27.3573133,21.836496 C27.2470101,21.836496 27.136707,21.7807132 27.0539796,21.7807132 C26.8057975,21.7807132 26.5572157,21.8643873 26.3090336,21.8643873 C26.0608515,21.8922787 25.7850936,21.8922787 25.5093357,21.9201701 C25.4266083,21.9201701 25.4266083,21.8643873 25.3714567,21.8643873 C25.2887294,21.8922787 25.206002,21.9480615 25.1232746,21.9480615 C24.6816623,22.0042485 24.2404497,21.9201701 23.7440855,21.9201701 C23.6337823,21.9201701 23.5506553,21.9201701 23.4407518,21.9201701 C23.3580244,21.9201701 23.275297,21.8643873 23.2197458,21.8643873 C23.0818668,21.8922787 22.9991395,21.9759529 22.8612605,21.9480615 C22.7233816,21.9480615 22.6406542,21.8643873 22.4751995,21.836496 C22.14429,21.8086046 21.9512594,21.8922787 21.6199503,21.8643873 C21.5647987,21.7807132 21.4820714,21.6691477 21.4544956,21.5575821 C21.4544956,21.473908 21.2063135,21.3902338 21.3166166,21.334451 C21.3166166,21.1949941 21.3717682,21.1392113 21.4820714,21.1392113 C21.4544956,20.9997544 21.5100468,20.9160803 21.5372229,20.8320019 C21.6475261,20.7762191 21.7026777,20.6088708 21.8409563,20.5534923 C21.9236837,20.3020656 22.0339868,19.8836948 22.2270173,19.6605637 C22.1718658,19.4374327 22.3373205,19.2700843 22.3924721,19.0744404 C22.4200479,19.0190619 22.3924721,18.8792007 22.3924721,18.823418 C22.4200479,18.7397438 22.4751995,18.6843653 22.4751995,18.6560697 C22.5579268,18.0703506 22.5027752,17.4567401 22.530351,16.8427254 C22.5579268,16.3127891 22.530351,13.8300517 22.5579268,13.3280067 C22.6406542,12.5466438 22.6406542,11.7099022 22.6406542,10.984322 C22.66823,10.8727564 22.6130784,10.7611909 22.6130784,10.6775168 C22.6130784,10.5938426 22.66823,10.5101684 22.6406542,10.4264943 C22.6406542,10.2033632 22.5579268,9.97982792 22.5579268,9.75710106 C22.5855026,8.41791037 22.5855026,6.13000839 22.4751995,4.7908177 C22.5579268,4.70754777 22.6406542,4.51190385 22.5579268,4.31706838 C22.5579268,4.28877278 22.4751995,4.28877278 22.4751995,4.23339423 C22.4751995,4.14972008 22.530351,3.98237177 22.530351,3.87040201 C22.530351,3.7030537 22.4476237,3.50781401 22.5579268,3.36835708 C22.6130784,3.25679154 22.4751995,3.25679154 22.4751995,3.17311739 C22.4751995,3.17311739 22.530351,3.08903901 22.530351,3.00576908 C22.4751995,2.83801655 22.2821689,2.72645101 22.3097447,2.47542855 C22.2270173,2.36426723 22.0891384,2.36426723 22.006411,2.28059308 C21.9788352,2.25229747 21.9788352,2.11324477 21.9236837,2.05705778 C21.8409563,1.94549224 21.7582289,1.91760086 21.7026777,1.77814393 C21.6755015,1.72236116 21.6475261,1.61079563 21.5647987,1.52712147 C21.5372229,1.4713387 21.5100468,1.49923009 21.4544956,1.44344732 C21.4273194,1.44344732 21.4273194,1.35977316 21.399344,1.35977316 C21.3717682,1.33188178 21.3441924,1.35977316 21.3166166,1.35977316 C21.2890408,1.33188178 21.2890408,1.27609901 21.261465,1.27609901 C21.1791373,1.22031624 21.1511619,1.19242486 21.0684345,1.05296793 C21.0408587,1.02467232 21.0408587,0.997185162 21.0132829,0.968889555 C21.0132829,0.94099817 21.0684345,0.773649862 20.9305556,0.773649862 C21.1511619,0.717867093 21.261465,0.495140239 21.5372229,0.438953246 C21.8409563,0.383170477 22.2270173,0.5226274 22.6130784,0.495140239 C22.6130784,0.411466085 22.6130784,0.327791931 22.6130784,0.271604938 C22.6958058,0.299496323 22.7785332,0.355279092 22.8612605,0.383170477 C23.8268128,0.383170477 25.5369115,0.383170477 26.6950947,0.383170477 Z" id="Fill-61备份" fill="#FFFFFF"></path>
                    <path d="M21.6969527,21.739353 C21.5852196,21.7672863 21.5014197,21.8510862 21.3900914,21.8790195 C21.2779535,21.9069527 21.1103538,21.8790195 20.9427541,21.8790195 C20.3282218,21.9069527 14.3888802,21.8977106 13.6346815,21.8697773 C13.4670818,21.8697773 13.4487132,21.7563283 13.308642,21.7283951 C13.029714,21.8680615 12.7499763,21.7004618 12.4706434,21.7004618 C12.330977,21.7004618 12.1633773,21.7842616 11.9957776,21.7842616 C11.8557063,21.7842616 11.7164448,21.7283951 11.6043068,21.7283951 C11.4929785,21.7563283 11.3812453,21.8121949 11.2970407,21.8401282 C10.9901794,21.8401282 10.7387798,21.7004618 10.4590421,21.7842616 C10.4027707,21.6725285 10.3189709,21.6445952 10.2914424,21.5328621 C10.2635091,21.3931956 10.347309,21.2814625 10.3189709,21.1697294 C10.3189709,21.0859295 10.2635091,21.0021297 10.235171,20.917925 C10.2076426,20.7503253 10.2535396,20.5565081 10.2260111,20.3889084 C10.1980779,20.3051086 10.1980779,20.1933754 10.1697397,20.165847 C10.0859399,19.9699091 10.0304781,19.8302427 9.91834018,19.6347097 C9.80701187,19.3833102 9.77907859,19.0197726 9.61147888,18.6566399 C9.55561231,18.5453116 9.44387917,18.4331737 9.3880126,18.3214405 C9.13661304,17.7069083 9.19207478,17.3992373 8.74514223,16.5895769 C8.68927566,16.2260393 8.27027639,15.304241 8.29780484,14.8289703 C8.10267668,14.5217042 8.0747434,14.0468383 7.59987756,14.018905 C7.57153944,13.9071719 7.48773959,13.8229672 7.37600645,13.7954388 C7.04080704,13.7954388 6.84527405,13.8792386 6.59346965,13.7395722 C6.37040821,13.7954388 6.23074178,13.9351052 5.95140894,13.9351052 C5.83927097,14.3541044 5.97934222,14.8014418 5.97934222,15.2204411 C5.97934222,15.5556405 5.89554237,16.8409764 6.03480396,17.1478377 C6.06314208,17.2875042 5.95140894,17.2599757 5.95140894,17.3154374 C5.92307082,17.4275754 6.03480396,17.5113753 6.06314208,17.6231084 C6.09067053,17.7348415 6.03480396,17.8465747 6.11900865,17.9862411 C6.09067053,18.0421077 5.97934222,18.0421077 5.95140894,18.0979742 C5.89554237,18.1817741 6.00687068,18.1817741 6.03480396,18.1817741 C6.03480396,18.265574 5.95140894,18.265574 5.97934222,18.3214405 C6.00687068,18.4052404 6.06314208,18.4331737 6.11900865,18.5453116 C6.00687068,18.7404398 5.95140894,18.9359728 6.03480396,19.2436437 C6.09067053,19.4950433 6.14694193,19.7743761 6.37040821,19.8861093 C6.48214135,20.444775 6.90114061,20.9200456 6.84527405,21.4787113 C6.81734076,21.6742443 6.59346965,21.6183778 6.37040821,21.6742443 C6.34207009,21.7021776 6.31454164,21.7580442 6.23074178,21.7859775 C6.2028085,21.7859775 6.09067053,21.7301109 6.03480396,21.7301109 C5.86720425,21.7301109 5.69960455,21.8139108 5.53200484,21.8139108 C5.4202717,21.8139108 5.30853856,21.7859775 5.19680542,21.7859775 C5.057139,21.7580442 4.91747258,21.8139108 4.74987287,21.8139108 C4.52640659,21.8139108 4.27500703,21.7021776 4.02360747,21.6742443 C3.93980762,21.6742443 3.88353622,21.7301109 3.79973636,21.7301109 C3.71593651,21.7301109 3.6046082,21.6742443 3.5483368,21.6742443 C3.46453695,21.6742443 3.3807371,21.7301109 3.32487053,21.7301109 C3.24107067,21.7301109 3.15727082,21.6742443 3.10140425,21.6742443 C2.98967111,21.7021776 2.90587126,21.7580442 2.79413812,21.7859775 C2.40307214,21.7859775 2.03953461,21.646311 1.64846862,21.646311 C1.39706906,21.646311 1.11773621,21.7580442 0.866336653,21.646311 C0.754603514,21.646311 0.754603514,21.7301109 0.698736945,21.7859775 C0.502799123,21.5625112 0.167599708,21.7580442 1.42108547e-14,21.5066446 C1.42108547e-14,21.2273118 0.139666423,21.0876454 0.251399561,20.9479789 C0.335199415,20.640308 0.419404099,20.3609751 0.614937091,20.165847 C0.614937091,20.053709 0.614937091,19.9140426 0.614937091,19.8023094 C0.754603514,19.7464429 0.782536799,19.5788432 0.922203222,19.4950433 C0.922203222,19.4391767 0.922203222,19.3833102 0.950136506,19.3833102 C0.922203222,19.271577 1.00600308,19.076044 0.922203222,19.076044 C0.977664961,18.9643109 0.977664961,18.7967112 1.00600308,18.6845732 C1.06146481,18.1538408 0.977664961,17.678975 0.950136506,17.1478377 C0.950136506,16.784705 0.950136506,15.4718407 0.950136506,15.1366412 C0.977664961,14.9407034 0.893865107,14.7451704 0.866336653,14.5217042 C0.866336653,14.409971 0.922203222,14.2703046 0.922203222,14.1306382 C0.922203222,13.9351052 0.838403368,13.7675055 0.922203222,13.5715676 C0.977664961,13.4598345 1.00600308,13.0133068 1.00600308,12.7335691 C1.00600308,12.6497693 0.950136506,12.5101028 0.950136506,12.426303 C0.977664961,12.2587033 1.08980293,12.0631703 1.08980293,11.8672325 C1.08980293,11.7554993 1.06146481,11.6158329 1.03393636,11.4765713 C1.03393636,11.057572 1.17360278,10.6940345 1.00600308,10.330497 C1.14526467,10.2191687 1.06146481,10.0790974 1.03393636,9.85603597 C1.03393636,9.77223611 1.08980293,9.68843626 1.08980293,9.60463641 C1.08980293,9.49249844 1.03393636,9.40869858 1.03393636,9.29696545 C1.06146481,9.21316559 1.08980293,9.12936574 1.08980293,9.04556589 C1.08980293,8.6544999 0.977664961,7.22949756 1.00600308,6.83843157 C1.00600308,6.6149653 1.08980293,7.08983113 1.03393636,6.782565 C1.00600308,6.6149653 0.893865107,6.50323216 0.866336653,6.33522762 C0.866336653,6.19596603 0.893865107,6.05589477 0.950136506,6.0000282 C0.810065253,5.80449521 0.893865107,3.98883171 0.922203222,3.70909404 C0.922203222,3.56942761 0.866336653,3.40182791 0.866336653,3.2342282 C0.866336653,2.92696207 0.977664961,2.61969594 0.922203222,2.31202498 C0.922203222,2.22822512 0.893865107,2.17235856 0.782536799,2.20029184 C0.782536799,1.92095899 0.698736945,1.78129257 0.558665692,1.66955943 C0.502799123,1.1384222 0.251399561,0.80322278 0.0558665692,0.384223511 C0.36353753,0.300423657 0.866336653,0.356290226 1.14526467,0.300423657 C1.28533592,0.272490373 1.20153607,0.44009008 1.31286438,0.44009008 C1.70433519,0.216623804 2.29093417,0.244557088 2.87793797,0.356290226 C2.96173783,0.356290226 3.04553768,0.44009008 3.12933753,0.44009008 C3.24107067,0.44009008 3.26900396,0.384223511 3.32487053,0.384223511 C3.46453695,0.384223511 3.9114695,0.44009008 4.05113593,0.523889934 C4.35880689,0.44009008 4.74987287,0.328761772 5.11300557,0.44009008 C5.28060528,0.468023365 5.25267199,0.300423657 5.36440513,0.272490373 C5.56034295,0.272490373 5.67167126,0.412561626 5.89554237,0.44009008 C6.2028085,0.468023365 6.5659412,0.272490373 6.76106936,0.49636148 C6.87320733,0.551823219 6.92866907,0.384223511 6.92866907,0.49636148 C7.09707844,0.44009008 7.01287375,0.635623072 7.12460689,0.663961187 C7.18087829,0.635623072 7.20840675,0.80322278 7.23634003,0.999160602 C7.18087829,1.1384222 7.01287375,1.41815987 7.01287375,1.41815987 C6.95700718,1.44609316 6.90114061,1.50195972 6.84527405,1.58575958 C6.84527405,1.69749272 6.84527405,1.80922586 6.84527405,1.92095899 C6.70560762,1.94889228 6.64974105,2.06062542 6.53800792,2.14442527 C6.5096698,2.45209623 6.28660835,2.78729565 6.34207009,3.01076192 C6.28660835,3.09415695 6.17447039,3.09415695 6.14694193,3.17836163 C6.2028085,3.54149433 6.11900865,4.96649667 6.11900865,5.60936705 C6.11900865,5.66482879 5.92307082,6.11216617 5.89554237,6.13969463 L6.00687068,6.53116544 C6.00687068,6.5586939 6.00687068,6.5586939 6.00687068,6.58703201 C6.00687068,6.95016471 6.00687068,7.84402982 6.03480396,7.98410107 C6.03480396,8.06790092 6.11900865,8.17922923 6.11900865,8.2913672 C6.11900865,8.43103362 6.03480396,8.68243319 6.11900865,8.85003289 C6.14694193,9.0176326 5.95140894,8.93383275 5.97934222,9.07349917 C5.97934222,9.18523231 6.06314208,9.21316559 6.03480396,9.32489873 C6.14694193,9.49249844 6.5096698,9.3807653 6.67726951,9.46456515 C6.81734076,9.54836501 6.81734076,9.3807653 6.90114061,9.32489873 C7.09707844,9.24109888 7.04080704,9.29696545 7.18087829,9.12936574 C7.20840675,9.10143245 7.18087829,9.04556589 7.20840675,9.0176326 C7.26467814,8.93383275 7.2922066,8.93383275 7.348478,8.79416632 C7.43227785,8.57070005 7.59987756,8.12336266 7.76747727,7.90030122 C7.76747727,7.90030122 7.85127712,7.70436339 7.90714369,7.62056354 C7.99094354,7.53676369 8.0747434,7.3412307 8.10267668,7.28536413 C8.13020514,7.22949756 8.24234311,6.978098 8.24234311,6.978098 C8.24234311,6.978098 8.27027639,6.89429814 8.29780484,6.83843157 C8.29780484,6.86636486 8.29780484,6.83843157 8.32614296,6.81049829 C8.32614296,6.782565 8.32614296,6.782565 8.32614296,6.782565 C8.3816047,6.69876515 8.77307551,5.55309565 8.82894208,5.52516237 C8.82894208,5.49722908 8.88480865,5.49722908 8.91274194,5.4692958 C9.05281319,5.24582952 9.24794135,4.65923054 9.3880126,4.37949287 C9.41554106,4.35155958 9.47181246,4.32403113 9.49934091,4.29569301 C9.49934091,4.21189316 10.00214,3.31802805 10.0304781,3.26216148 C10.1422113,3.09415695 10.1980779,2.78729565 10.2818777,2.67515768 C10.2818777,2.31202498 10.4494774,2.0885587 10.5891438,1.86509242 C10.5332773,1.58575958 10.2818777,1.44609316 10.1697397,1.22262688 C10.2535396,0.942889203 10.114278,0.942889203 10.114278,0.663961187 C10.2535396,0.468023365 10.5612106,0.49636148 10.7846768,0.384223511 C11.1761476,0.523889934 11.9578748,0.44009008 12.5169453,0.468023365 C12.5452834,0.49636148 12.6007452,0.44009008 12.6566117,0.44009008 C12.684545,0.44009008 12.684545,0.49636148 12.7404116,0.468023365 C12.8804828,0.468023365 12.9642827,0.384223511 13.075611,0.384223511 C13.2994821,0.384223511 13.5229484,0.49636148 13.7460098,0.356290226 C14.2212805,0.49636148 14.9754792,0.328761772 15.5904163,0.44009008 C15.758016,0.412561626 15.7017446,0.635623072 15.8418158,0.663961187 C16.0094155,0.663961187 16.0373488,0.551823219 16.149082,0.468023365 C16.2608151,0.468023365 16.2328818,0.607689788 16.3729531,0.607689788 C16.4842814,0.607689788 16.5122147,0.691489642 16.5405528,0.747761041 C16.5960145,0.999160602 16.3729531,1.11048891 16.2891532,1.3060219 C16.2608151,1.3622933 16.2608151,1.47402644 16.2328818,1.52989301 C16.1770152,1.64162615 16.1215535,1.725426 16.0652821,1.86509242 C16.0373488,1.89302571 16.0373488,1.92095899 16.0373488,1.94889228 C15.8697491,2.00475885 15.6742161,2.0885587 15.5904163,2.20029184 C15.3948833,2.36829638 15.2552169,2.56342454 15.1989455,2.67515768 C15.1151456,2.78729565 15.0596839,2.92696207 14.9754792,3.17836163 C14.8916793,3.34596134 14.3050804,4.77096368 14.1650091,4.91063011 C14.1374806,4.91063011 14.0816141,4.93856339 14.0816141,4.99442996 C13.9698809,5.21789624 13.66221,6.83843157 13.4391485,6.89429814 C13.271144,7.39709726 13.075611,7.84402982 12.7683449,8.17922923 C12.7404116,8.48690019 12.5728119,8.76623304 12.4331455,9.04556589 C12.3768741,9.15729902 12.293479,9.29696545 12.2376125,9.4370367 C12.1538126,9.54836501 12.0416746,9.63216486 12.0416746,9.77223611 C11.902413,9.88356442 12.0700128,9.77223611 11.9578748,9.91149771 C11.9303463,9.96736428 11.9578748,10.0511641 11.9303463,10.1074355 C11.902413,10.134964 11.8186132,10.1074355 11.7902751,10.134964 C11.7348133,10.1912354 11.6510135,10.2750352 11.6510135,10.3588351 C11.6510135,10.4705682 11.8186132,10.4426349 11.9303463,10.4426349 C11.9862129,10.4985015 12.0416746,10.4426349 12.1538126,10.4426349 C12.2092743,10.5264348 12.3493456,10.6381679 12.489012,10.6661012 C12.6290833,10.8616342 12.5452834,11.1130338 12.684545,11.3644333 C12.7128831,11.4202999 12.7683449,11.5040998 12.7683449,11.532033 C12.8242114,11.6996328 12.8521447,11.9235039 12.9080113,12.0911036 C12.9359446,12.23077 13.0480825,12.3704364 13.1594109,12.4821696 C13.2156823,12.9011688 13.5229484,13.4039679 13.7460098,13.6837056 C13.7460098,13.8513053 13.7460098,14.018905 13.7460098,14.214438 C13.7743479,14.3541044 13.9136095,14.4379043 13.9974094,14.5496374 C14.1095474,14.6893039 14.1095474,15.0528414 14.1933472,15.2759028 C14.2212805,15.3597027 14.2212805,15.3880408 14.2492138,15.4435025 C14.2771471,15.5556405 14.5564799,16.5612388 14.6123465,16.7571766 C14.6686179,16.980238 14.6123465,16.9247763 14.584818,17.1478377 C14.584818,17.2037043 14.6961463,17.1761759 14.7524177,17.1761759 C14.7524177,17.2599757 14.7799462,17.2875042 14.8362176,17.3154374 C14.863746,17.4555087 15.6409485,18.189803 15.6692866,18.3015361 C15.696815,18.3574027 15.7530864,18.4412025 15.7530864,18.4691358 C15.7708307,18.5231516 17.300135,18.7826765 17.5325885,19.0023236 C17.6607624,19.1234362 18.040432,19.4988681 18.070216,19.5385802 C18.0977445,19.5665135 18.3142925,19.5385802 18.341821,19.5385802 C18.341821,19.5665135 18.8575024,19.8101852 18.8850309,19.8101852 C18.913369,19.893985 19.6443839,19.7539138 19.6998457,19.8101852 C19.7836455,19.8656469 20.1317272,19.7263853 20.2430556,19.8101852 C20.3268554,20.006123 20.4583891,19.5587856 20.5146605,19.8101852 C20.7097887,19.8660518 21.9487571,19.4547804 22.1442901,19.5385802 C22.1442901,19.6782467 22.6037001,20.5132669 22.6875,20.625 C22.8550997,20.8488711 21.5576911,20.6216168 21.7252909,20.8730164 C21.8090907,20.9568162 21.9487571,21.0406161 21.9487571,21.1806873 C22.1442901,21.2365539 22.1442901,21.4600202 22.1442901,21.7114198 C22.0321522,21.7672863 21.8090907,21.8510862 21.6969527,21.739353 Z" id="Fill-67" fill="#FFFFFF"></path>
                    <path d="M54.119753,20.4323672 C54.2873615,20.1250849 54.3715706,19.7060637 54.5671139,19.4267163 C54.5108395,19.0635645 54.678448,18.4485952 54.4833096,18.1133783 C54.6225785,18.1692478 54.5671139,17.9737045 54.5671139,17.9457698 C54.6225785,17.6664223 54.4833096,17.0793878 54.6225785,16.7721055 C54.678448,16.5765623 54.6225785,16.1296064 54.6509181,15.7943894 C54.678448,15.6547157 54.678448,15.5150419 54.7067876,15.3753682 C54.7347223,15.0397464 54.8185266,13.4470609 54.8185266,13.1677134 C54.8460565,13.0563793 54.7905918,13.0280397 54.7905918,12.9442354 C54.7905918,12.8049666 54.8743961,12.6928227 54.8743961,12.5810837 C54.9023308,12.4134752 54.9023308,12.1620625 54.9298607,11.9665193 C54.9298607,11.882715 54.8743961,11.8547803 54.8743961,11.7989108 C54.8743961,11.6588322 54.9023308,11.3236152 54.8185266,11.0722025 C54.8185266,10.9883983 54.8185266,10.8766593 54.7067876,10.8766593 C54.7347223,10.8207898 54.7622522,10.7649203 54.7347223,10.6531813 C54.7622522,10.4576381 54.9861351,10.4576381 55.013665,10.2341601 C55.013665,10.1503558 54.9861351,10.1220162 54.9582003,10.0106821 C54.9861351,9.89894312 54.9582003,9.84266877 54.8185266,9.87060352 C54.9298607,9.78679928 55.013665,9.5074518 54.9582003,9.22850918 C54.9298607,9.11636534 54.9023308,9.08843059 54.8743961,9.00462635 C55.0699393,8.69734413 54.9298607,6.74150695 54.9298607,6.29455099 C54.9298607,6.04273341 54.9861351,5.81966028 54.9582003,5.59577745 C54.9298607,5.45610372 54.8743961,5.34436473 54.8185266,5.26056048 C54.8743961,4.81360452 54.9023308,4.39417846 54.7347223,4.05896149 C54.8185266,3.86382311 54.9582003,3.58407078 54.9298607,3.27678856 C54.9023308,3.08124533 54.7905918,2.91363685 54.7067876,2.77355826 C54.7347223,2.41081139 54.6225785,2.07559442 54.4833096,1.85171159 C54.3995054,1.71203785 54.2594268,1.62823361 54.1756225,1.48855987 C54.0918183,1.37682088 54.0080141,1.2092124 53.9521446,1.09706856 C53.8683403,0.957799671 53.8124708,0.817721082 53.7286666,0.678047345 C53.6727971,0.538778459 53.5331234,0.426634618 53.6169276,0.259026133 C53.7845361,0.119757247 54.119753,0.035548153 54.4270353,0.00761340552 C54.7905918,-0.020321342 55.1812735,0.035548153 55.5727648,0.0634829005 C55.7687129,0.0634829005 55.9363213,0.035548153 56.1039298,0.0634829005 C56.2990682,0.0634829005 56.4666767,0.17522189 56.6626248,0.17522189 C56.8018937,0.17522189 56.8856979,0.147287143 57.0257765,0.147287143 C57.3047191,0.147287143 57.6124062,0.17522189 57.8921585,0.17522189 C58.0318322,0.203561489 58.1990359,0.231091385 58.3111797,0.231091385 C58.5063181,0.203561489 58.7022662,0.119757247 58.8978094,0.0914176479 C59.0929478,0.0634829005 59.3168306,0.0634829005 59.5403086,0.0634829005 C59.7641914,0.00761340552 59.7079171,0.231091385 59.8479957,0.231091385 C60.4066906,0.203561489 60.8536466,0.203561489 61.4123415,0.147287143 C61.8313628,0.650112597 61.4686159,0.873995428 61.1333989,1.37682088 C61.1050593,1.40475563 61.1050593,1.46062513 61.0771246,1.48855987 C61.0491898,1.51649462 60.9933203,1.51649462 60.9933203,1.54442937 C60.9653856,1.60029886 60.9374508,1.68410311 60.9095161,1.76790735 C60.8257118,1.85171159 60.6860381,1.96345058 60.6297638,2.07559442 C60.5742991,2.18692856 60.6022339,2.29866755 60.5459595,2.41081139 C60.378351,2.71809361 60.2107426,2.77355826 60.1269383,3.16504957 C60.0156042,3.50026654 60.0431341,3.97515725 60.0714737,4.42211321 C60.0714737,4.53425705 60.0156042,4.61806129 60.0156042,4.72980028 C60.0431341,4.84153927 60.0994084,4.98121301 60.1269383,5.06501725 C60.1269383,5.28849523 60.1269383,5.51197321 60.1269383,5.73585604 C60.0994084,5.93099442 60.0156042,6.12653766 59.9876694,6.29455099 C59.9593298,6.51802897 60.0156042,6.7694417 59.9876694,6.96498493 C59.9593298,7.16052816 59.8479957,8.83701786 59.8200609,9.06090069 C59.7358518,9.70299503 59.9876694,10.3458991 60.0156042,11.0167379 C60.0431341,11.4074195 60.0714737,11.8268455 60.0156042,12.1899973 C60.0156042,12.3017363 59.9593298,12.4134752 59.9317999,12.4972795 C59.9317999,12.6090185 59.9593298,12.7486922 59.9317999,12.8604312 C59.9317999,13.0563793 59.8200609,13.2515177 59.8200609,13.4191262 C59.7917213,13.7826827 59.9034603,15.4312377 59.9317999,15.7943894 C59.9876694,16.1854759 60.0156042,16.5490324 60.0156042,16.939714 C60.2107426,16.9680536 60.4621553,17.0793878 60.6860381,17.0793878 C60.7973722,17.0518579 60.9095161,16.9955835 61.0212551,16.9680536 C61.1333989,16.9680536 61.2726678,17.0235183 61.3848116,17.0235183 C61.57995,17.0235183 61.8313628,16.9955835 61.9989712,16.9680536 C62.1111151,16.9680536 62.250384,16.939714 62.3341882,16.8559098 C62.4742668,16.8559098 62.5301363,17.0793878 62.6418753,16.9680536 C62.9491575,17.0235183 63.0054319,16.8559098 63.3123092,16.8842494 C63.3961135,16.8842494 63.3681787,16.8004451 63.4244531,16.7721055 C63.4799177,16.7441708 63.5641268,16.7441708 63.6195914,16.7166409 C63.8993438,16.4648233 64.0110828,15.9899326 64.5139082,15.9619979 C64.4859735,15.8502589 64.7373862,15.8781936 64.7373862,15.7105851 C64.7373862,15.6267809 64.6815167,15.5150419 64.8211904,15.4033029 C64.961269,15.4033029 65.1843422,15.2636292 65.2126818,15.4591724 C65.3519506,15.4312377 65.3519506,15.3194987 65.519964,15.3753682 C65.6037682,15.6826504 65.6037682,16.2413453 65.4916244,16.4927581 C65.4357549,16.6603666 65.6875725,16.5765623 65.631703,16.7721055 C65.7155072,16.827975 65.5754286,16.827975 65.5754286,16.8559098 C65.5478987,17.0235183 65.7430371,17.0518579 65.519964,17.1911268 C65.6037682,17.2753359 65.6037682,17.3870748 65.631703,17.4988138 C65.6592329,17.7781613 65.6875725,18.0575088 65.7155072,18.2809868 C65.7155072,18.364791 65.6592329,18.3927258 65.6592329,18.47653 C65.6592329,18.6162037 65.7430371,18.9238908 65.5754286,19.119434 C65.631703,19.3987815 65.6037682,19.454651 65.4916244,19.678129 C65.519964,19.901607 65.6592329,20.0416856 65.6592329,20.2647587 C65.6592329,20.4044324 65.6037682,20.4882367 65.5754286,20.6558452 C65.5478987,20.8238585 65.6875725,20.991467 65.5754286,21.1311407 C65.631703,21.2987492 65.7430371,21.4384229 65.6592329,21.6619009 C65.4357549,21.7736399 65.3240159,21.5780967 65.0450733,21.5222272 C64.9049947,21.4942924 64.5697777,21.4663577 64.4021692,21.4663577 C64.1786912,21.4942924 63.9548084,21.6060314 63.7317353,21.6060314 C63.5920616,21.6060314 63.4244531,21.4942924 63.3123092,21.4663577 C63.2005702,21.4384229 63.1447007,21.5501619 63.0329617,21.5780967 C62.8378234,21.5780967 62.558071,21.4104882 62.3341882,21.5780967 C62.250384,21.4942924 62.1111151,21.4663577 62.0273108,21.3825534 C61.915167,21.4384229 61.7475585,21.4384229 61.691689,21.5780967 C61.4123415,21.4942924 61.1888636,21.4942924 60.9095161,21.5222272 C60.7419076,21.5222272 60.5742991,21.6060314 60.4346254,21.6060314 C60.2945468,21.6060314 60.1832127,21.5501619 60.0714737,21.5222272 C59.9317999,21.4942924 59.7641914,21.5222272 59.596583,21.5222272 C59.4289745,21.5222272 59.2888959,21.4384229 59.1492221,21.4384229 C58.9253393,21.4384229 58.6184619,21.4663577 58.3670492,21.5222272 C58.3111797,21.5222272 58.2273755,21.5501619 58.1435712,21.5780967 C58.0872969,21.5780967 58.0318322,21.6339662 57.9759628,21.6619009 C57.8358842,21.6619009 57.6124062,21.6060314 57.3609935,21.6060314 C57.2492545,21.6060314 57.1371106,21.6619009 57.0257765,21.6619009 C56.858168,21.6619009 56.6905595,21.5780967 56.522951,21.5780967 C56.4108072,21.5501619 56.2715383,21.6060314 56.1314597,21.6060314 C55.7403733,21.6060314 55.4051563,21.4663577 55.1258088,21.6898357 C54.8743961,21.6339662 54.6509181,21.5780967 54.4270353,21.4663577 C54.2873615,21.4663577 54.1756225,21.6060314 54.0080141,21.6060314 C53.8124708,21.6060314 53.7007318,21.5501619 53.5606532,21.4663577 C53.5331234,21.2987492 53.6727971,21.103206 53.7286666,21.1590755 C53.7845361,21.2987492 53.7845361,21.103206 53.7286666,21.0752712 C53.8683403,20.9635322 53.7286666,20.5999757 53.7845361,20.5161714 C53.8962751,20.4323672 54.0359488,20.5720409 54.119753,20.4323672" id="Fill-68" fill="#FFFFFF"></path>
                    <path d="M43.3421187,18.4318834 C43.3421187,18.7116211 43.3141854,18.9350873 43.3704568,19.1585536 C43.4259185,19.3544914 43.5935182,19.5496196 43.7335895,19.7451526 C43.8732559,19.996957 44.0129223,20.2200184 44.1246555,20.5276894 C44.2084553,20.8070222 44.4877882,21.2539548 44.376055,21.7012922 C44.2643219,21.8688919 44.0967222,21.7292255 43.9287176,21.7292255 C43.8173893,21.7292255 43.3141854,21.8405538 43.1186524,21.8405538 C42.8672528,21.8130253 42.6158533,21.6729541 42.3365204,21.8405538 C42.0851209,21.6729541 41.889183,21.7567539 41.5539836,21.7292255 C41.4143172,21.7292255 41.3025841,21.7012922 41.1908509,21.7012922 C40.9394514,21.7292255 40.7439184,21.8130253 40.4366522,21.8688919 C40.2411193,21.9243536 40.0172481,21.9526917 39.7941867,21.8405538 C39.0954498,21.980625 38.2849797,21.8688919 37.5587143,21.8688919 C37.3911146,21.8688919 37.4469811,21.6454256 37.2514481,21.6454256 C37.2514481,21.5053544 37.0000486,21.5891542 37.0000486,21.4498926 C37.1676483,21.1701549 37.335248,20.9466887 37.5587143,20.7511557 C37.5866476,20.6394225 37.6425141,20.583556 37.6145808,20.4438895 C37.9222518,20.2483566 38.0335801,19.8572906 38.312913,19.605891 C38.2849797,19.493753 38.3691844,19.29822 38.2574512,19.2423535 C38.312913,19.1306203 38.4529842,19.1026871 38.4529842,18.9350873 C38.4250509,18.6836878 38.3691844,18.4602215 38.3412511,18.2088219 C38.3412511,17.9015558 38.312913,16.9514193 38.312913,16.6720865 C38.312913,16.6437484 38.3412511,16.5599485 38.3412511,16.5044868 C38.3412511,16.3648203 38.312913,16.2247491 38.312913,16.1134208 C38.312913,15.6944215 38.4805127,15.2750174 38.4805127,14.8839514 C38.4805127,14.6325519 38.4805127,14.3252857 38.4529842,14.0176148 C38.4250509,13.9338149 38.3967128,13.8500151 38.3967128,13.7941485 C38.3967128,13.5986155 38.5367841,13.4026777 38.5367841,13.2075495 C38.5367841,13.0120165 38.4529842,12.8160787 38.3967128,12.6209505 C38.5643125,12.2019513 38.5088508,11.8104805 38.4805127,11.2518148 C38.4529842,10.4413447 38.4805127,7.45167357 38.5367841,6.47400861 C38.5367841,6.27847562 38.3412511,6.3064089 38.3412511,6.08294262 C38.3412511,5.74733838 38.3691844,5.38461051 38.3412511,5.04941109 C38.3412511,4.7976067 38.2291131,4.63000699 38.2574512,4.29480758 C38.2849797,4.0713413 38.3967128,3.93167488 38.4529842,3.73614189 C38.3967128,3.65234203 38.3967128,3.56854218 38.3412511,3.51267561 C38.3412511,3.4843375 38.2849797,3.4843375 38.2574512,3.4843375 C38.2291131,3.37260436 38.2291131,3.26127605 38.1736514,3.1774762 C38.0898515,3.00947166 37.9777135,2.86980524 37.8659804,2.64633896 C37.8380471,2.59047239 37.8101138,2.53460582 37.7821805,2.47873925 C37.7542473,2.3949394 37.7542473,2.31113954 37.7542473,2.25486814 C37.5866476,1.86420699 37.3911146,1.50066946 37.2235149,1.10960348 C37.1955816,1.08167019 37.139715,1.08167019 37.139715,1.08167019 C37.0838484,0.969937053 37.1117817,0.858203915 37.139715,0.774404061 C37.3073147,0.5230045 37.7821805,0.606804353 38.0060517,0.411271361 C38.1736514,0.495071215 38.4529842,0.4667331 38.5367841,0.327471507 C38.8999168,0.382933246 39.318916,0.382933246 39.709982,0.382933246 C39.8779866,0.355404792 40.0172481,0.299133393 40.1848479,0.327471507 C40.3807857,0.355404792 40.5204521,0.495071215 40.7159851,0.550937784 C40.7997849,0.578871069 40.9394514,0.578871069 41.0511845,0.578871069 C41.1629176,0.606804353 41.2746508,0.634737638 41.3584506,0.634737638 C41.6377835,0.634737638 41.889183,0.5230045 42.1405826,0.495071215 C42.5599867,0.4667331 43.0069193,0.5230045 43.4259185,0.4667331 C43.6218563,0.439204646 43.8173893,0.355404792 44.0408556,0.327471507 C44.4039883,0.299133393 44.767121,0.327471507 45.1302537,0.271604938 C45.1302537,0.327471507 45.1861203,0.327471507 45.2140536,0.327471507 C45.4099914,0.243671654 45.2699201,0.495071215 45.4375198,0.4667331 C45.7451908,0.495071215 45.9686571,0.355404792 46.3317898,0.382933246 C46.4993895,0.382933246 46.5831893,0.439204646 46.7507891,0.4667331 C47.3094547,0.5230045 47.8964586,0.5230045 48.4830575,0.4667331 C48.7903237,0.662670923 49.0417232,0.942003768 49.3214609,1.19340333 C49.2655943,1.36100304 49.3769226,1.36100304 49.3493942,1.50066946 C49.5449272,1.69660728 49.7683934,1.83586888 49.8801266,2.11560655 C50.1315261,2.22733969 50.2711926,2.42287268 50.5784587,2.47873925 C50.7460584,2.70220553 50.9419962,2.9256718 51.1375292,3.1212048 C51.1375292,3.2888045 51.1650577,3.42887576 51.1375292,3.59647546 C51.1375292,3.79160363 51.0257961,3.87540348 51.0257961,4.04300319 C51.0257961,4.23894101 51.1375292,4.35067415 51.1933958,4.51827386 C51.2213291,4.60207371 51.2213291,4.71380685 51.2492624,4.76967342 C51.2771956,4.88181139 51.3051289,4.93727313 51.3330622,4.99313969 C51.3330622,5.30081066 51.1933958,5.63601007 51.2492624,6.05500934 C51.2492624,6.25054233 51.3609955,6.41814204 51.4168621,6.61367503 C51.3330622,6.89341271 51.2213291,8.68154775 51.2771956,9.1284803 C51.3051289,9.23980861 51.3609955,9.37987987 51.3609955,9.51954629 C51.3609955,9.71507928 51.3051289,10.4976161 51.2771956,10.7206775 C51.2492624,11.3076813 51.2213291,12.06188 51.1933958,12.648479 C51.1650577,12.95615 51.1933958,13.2354828 51.1933958,13.5148156 C51.1933958,13.7382819 50.9419962,13.6824154 50.9695247,13.9062865 C50.5505254,13.9900863 50.4946588,14.436614 50.0477263,14.4928854 C49.9359932,14.6042137 49.9359932,14.8001516 49.7963267,14.8839514 C49.3214609,14.9394132 49.0417232,15.1632843 48.7344571,15.4146838 C48.622724,15.4705504 48.4830575,15.330884 48.3433911,15.4426171 C48.2037247,15.4984837 48.2037247,15.6944215 48.1478581,15.8336831 C47.9523251,15.8620212 47.8964586,15.9733495 47.7009256,15.9733495 C47.5612591,16.0012828 47.5612591,16.1409492 47.449526,16.1972206 C47.2260597,16.1134208 47.0021886,16.1972206 46.7787223,16.1972206 C46.6390559,16.1692873 46.5273228,16.1134208 46.3876564,16.1134208 C46.1641901,16.0854875 45.8848572,16.1409492 45.6330528,16.1409492 C45.3816533,16.1409492 45.1302537,16.0854875 44.9067874,16.1134208 C44.7112544,16.1134208 44.5995213,16.1692873 44.3481217,16.1972206 C44.2922552,16.1972206 44.2922552,16.2530872 44.2363886,16.2247491 C44.2363886,16.2247491 44.2363886,16.1972206 44.2084553,16.1972206 C43.9287176,16.2247491 43.6773181,16.3648203 43.3421187,16.2247491 C43.1186524,16.7558863 43.3141854,17.9015558 43.3421187,18.4318834 Z M44.6833212,4.88181139 C44.571588,4.93727313 44.4598549,4.90933984 44.376055,4.90933984 C44.2084553,4.93727313 44.0129223,4.96561124 43.8173893,4.99313969 C43.6773181,5.02107298 43.5380565,5.07693955 43.3704568,5.04941109 C43.3421187,5.24453926 43.5380565,5.44047708 43.5380565,5.66353852 C43.5655849,5.83113823 43.4259185,6.05500934 43.4259185,6.27847562 C43.3979852,6.47400861 43.4542566,6.69747488 43.4542566,6.89341271 C43.4542566,7.11647415 43.4817851,8.84914746 43.4542566,9.04468045 C43.4259185,9.23980861 43.3141854,9.40740832 43.2862521,9.60334614 C43.2862521,9.82681242 43.3704568,10.5530778 43.3704568,10.7765441 C43.3979852,11.2238815 43.3141854,11.5590809 43.2862521,11.866347 C44.0129223,12.06188 44.8229876,11.7825472 45.6330528,11.7825472 C45.9686571,11.5311476 46.1921234,11.1955434 46.4714562,10.9166153 C46.4155896,10.078212 46.6111226,7.48001168 46.5552561,6.6695416 C46.2759232,6.22260905 45.9965904,5.71980992 45.8289907,5.18907752 C45.549253,5.13321095 45.2978534,5.04941109 44.9347207,5.07693955 C44.8788542,5.02107298 44.8788542,4.82553999 44.6833212,4.88181139 L44.6833212,4.88181139 Z" id="Fill-72" fill="#FFFFFF"></path>
                    <path d="M95.2741728,0.271604938 C95.4697057,0.271604938 95.5255723,0.355404792 95.6652387,0.410866531 C96.3356376,0.355404792 96.8388415,0.46713793 97.4254405,0.5230045 C97.5930402,0.774404061 97.6768401,0.997870338 97.8723731,1.27720318 C97.984511,1.47273618 98.1521107,1.6124026 98.2913723,1.83627371 C98.3476437,1.92007356 98.4035103,1.94760201 98.4314436,2.00387341 C98.4873101,2.22733969 98.4035103,2.47873925 98.4873101,2.70220553 C98.5990433,3.14913808 99.1018424,3.37300919 99.353242,3.68027532 C99.353242,3.90333677 99.4091085,4.01547473 99.4649751,4.21100773 C99.5212465,4.32274086 99.6329796,4.40654072 99.6888462,4.49034057 C99.7726461,4.60207371 99.8564459,4.71380685 99.8843792,4.7976067 C99.8843792,4.93727313 99.8281078,5.10487283 99.8281078,5.24494409 C99.8281078,5.35627239 99.8843792,5.49634365 99.8843792,5.63601007 C99.8564459,5.85947635 99.8005793,5.99914277 99.8843792,6.25054233 C99.8843792,6.33434219 99.9402458,6.39020875 99.9681791,6.47400861 C99.9957075,6.83754614 99.9957075,8.76494277 99.9681791,9.10014219 C99.9402458,9.18394204 99.8843792,9.24021344 99.8843792,9.3240133 C99.8564459,9.37987987 99.8281078,9.68674117 99.8843792,9.74301257 C99.8843792,9.77094585 99.9402458,9.74301257 99.9681791,9.79887913 C99.9681791,9.8547457 99.9957075,9.96647884 99.9957075,10.0223454 C99.9957075,10.1340785 99.9402458,10.1899451 99.9119077,10.3296115 C99.8843792,10.4138162 99.9119077,10.5530778 99.8843792,10.6368777 C99.8281078,10.6931491 99.6888462,10.664811 99.5767082,10.664811 C99.3253087,10.9720771 99.2135755,11.4194145 98.9063094,11.6428807 C98.8783761,11.7266806 98.8783761,11.866347 98.8225096,11.9501469 C98.5990433,12.2298846 98.2913723,12.3974843 98.2079773,12.8164835 C98.0683109,12.8723501 97.8723731,12.8723501 97.6768401,12.8723501 C97.6209735,12.95615 97.7047733,13.0116117 97.7331115,13.0958164 C97.7606399,13.1796162 97.7331115,13.2634161 97.7885732,13.3468111 L97.8041817,13.3750293 L97.8723731,13.4310158 C97.8723731,13.4589491 97.8448446,13.5148156 97.8723731,13.5706822 C97.8723731,13.5986155 97.9561729,13.6265488 97.9561729,13.6544821 C97.9561729,13.6824154 97.9286445,13.7382819 97.9561729,13.7941485 C98.0683109,14.0180196 98.8345822,14.241081 98.7511872,14.6884184 C98.8345822,14.8835466 99.2737868,15.0515511 99.3859248,15.2750174 C99.4138581,15.3588173 99.4697247,15.4705504 99.497658,15.5822835 L99.6931909,15.8336831 C99.7211242,15.917483 100.779611,16.53242 100.807544,16.6162199 C100.863411,16.7558863 100.94721,16.8396862 101.03101,16.923486 C101.086877,17.0352192 101.19861,17.1469523 101.254477,17.2307522 C101.338276,17.4542184 102.153091,18.2084171 102.237296,18.4043549 C102.321096,18.5719546 102.432829,18.7116211 102.544157,18.8512875 C102.627957,18.9909539 102.740095,19.1310252 102.851828,19.2423535 C102.879761,19.2702868 102.963156,19.2986249 102.991495,19.3261533 C103.019428,19.3824247 102.991495,19.4099532 103.019428,19.4662246 C103.047361,19.493753 103.075294,19.493753 103.103228,19.5500244 C103.187028,19.689286 103.681321,19.6874941 103.820988,19.8271605 C103.848921,19.9109603 104.984257,20.0528236 104.92839,20.080352 C104.984257,20.19249 105.151857,20.1641519 105.26359,20.2479517 C105.375323,20.4155514 105.758661,20.6114893 105.898327,20.779089 C106.010465,20.9187554 106.505132,21.0029601 106.561403,21.2543596 C106.61727,21.2260215 106.729003,21.3381595 106.645203,21.3381595 C106.672731,21.5332876 106.477198,21.4778259 106.505132,21.6454256 C106.141999,21.6170875 105.34739,21.6733589 105.123923,21.7846872 C105.01219,21.7846872 104.92839,21.7008874 104.788724,21.6733589 C104.666516,21.6611381 104.22704,21.6703037 103.750244,21.6891261 L103.338953,21.707351 C102.863685,21.7307341 102.431083,21.7604227 102.321096,21.7846872 C102.041358,21.6170875 100.94721,21.5616258 100.472345,21.6454256 C100.304745,21.6733589 99.5939353,21.7846872 99.4263356,21.7846872 C99.2587359,21.7846872 99.1465979,21.6733589 98.9510649,21.6733589 C98.7834652,21.6733589 98.7275986,21.7846872 98.6158655,21.8130253 C98.3923992,21.7846872 98.1409996,21.8684871 97.9450618,21.8130253 C97.7774621,21.7846872 97.7774621,21.7008874 97.6098624,21.6454256 C97.274663,21.7292255 96.9394636,21.7846872 96.6042642,21.8130253 C96.4645977,21.7846872 96.4087312,21.7292255 96.3807979,21.589559 C96.3528646,21.5057592 96.1293983,21.589559 96.1293983,21.4778259 L96.0902529,21.1872776 L96.0387196,20.5926371 C96.0185882,20.3959091 95.98957,20.2036633 95.9338653,20.0248903 C95.9055272,19.8572906 95.7662656,19.7176241 95.7662656,19.5500244 C95.7941989,19.4378865 95.6261944,19.4099532 95.5986659,19.3261533 L95.5986659,19.2423535 L95.4865429,19.062339 C95.4679058,19.0344057 95.4492836,19.0095761 95.4306614,18.9909539 C95.4585947,18.4598167 95.3747948,17.5942897 95.0675287,17.42669 C95.0675287,17.0352192 94.8161291,16.7558863 94.6764627,16.4486202 C94.5926628,16.2526824 93.7499147,15.4705504 93.5543818,15.3588173 C93.5543818,15.2470841 93.5543818,15.1349462 93.5264485,15.0794844 C93.3991724,14.846145 92.9425203,14.612572 92.6689851,14.366887 L92.7018133,14.3545533 C92.7227923,14.3464788 94.489064,13.4742535 95.9086005,11.8975852 C96.7448122,10.968838 97.2997769,9.98062149 97.5581131,8.96040397 C97.8815164,7.68328682 97.7382054,6.35440334 97.1322175,5.01073303 L97.1322175,5.01073303 L96.9060557,4.6568892 L95.8289447,4.6568892 L95.4635835,5.49696488 L95.4475087,5.53401867 L95.4708159,5.56691133 C95.4771319,5.57585279 96.1020925,6.47628949 96.0425984,7.88993102 C96.0089164,8.68960262 95.7458353,9.75854704 94.8894392,10.9796982 L93.9051622,10.4273648 L93.8560964,10.8076049 L93.8693394,10.4273648 L93.8230964,10.5186049 L93.9051721,6.55963078 L92.4897473,5.41319262 L92.4890964,13.4256049 L92.4486042,13.4589713 C92.4316274,13.4695382 92.3438485,13.5236723 92.2033817,13.602604 L92.2030634,3.39647349 L90.2322281,4.98121632 L90.2340964,7.98260494 L90.2322405,7.97988305 L88.6197073,8.91175107 L88.6117205,14.4103168 C88.3858677,14.3122971 88.2016621,14.1617451 88.060802,13.9593212 C87.7555045,13.5205955 87.6443184,12.8310384 87.7303149,11.9090283 C87.830157,10.8387039 88.1981932,9.43965109 88.8242685,7.75090502 L88.8242685,7.75090502 L88.692673,7.69435837 C88.6869515,7.70609867 88.1139306,8.88399293 87.6960847,10.2827238 C87.4500833,11.1061302 87.3049394,11.843986 87.264641,12.4767735 C87.2137415,13.2762783 87.3311198,13.9100317 87.6135063,14.3625536 C87.965121,14.9260138 88.5720253,15.2098865 89.4173519,15.2098865 L89.4173519,15.2098865 L89.6177377,15.204803 C89.971146,15.1872184 90.3655108,15.1240291 90.7988608,15.0154952 C90.7834335,15.1299091 90.7278245,15.2283757 90.6085046,15.3029507 C90.6085046,15.3867505 90.6643711,15.3867505 90.6923044,15.4426171 C90.7198329,15.4705504 90.8319708,15.8061546 90.8319708,15.8899545 C90.8319708,16.0012828 90.7198329,16.6441532 90.6923044,16.8117529 C90.6643711,16.923486 90.6643711,17.1469523 90.6643711,17.2866187 C90.6643711,17.5380183 90.7761043,18.2646885 90.7761043,18.5440214 C90.8036327,18.7674876 90.7198329,18.9909539 90.6923044,19.1864869 L90.6602329,19.4421297 C90.6395416,19.6119185 90.6271268,19.7734907 90.6643711,19.8852239 C90.6923044,20.080352 90.9716373,20.19249 91.0833704,20.4155514 C91.2789034,20.7511557 92.0099184,21.1705598 92.4009843,21.2818881 C92.4009843,21.4494878 92.3171845,21.5057592 92.3451178,21.6733589 C92.1216515,21.7008874 91.1951035,21.589559 91.0554371,21.5057592 C90.8874326,21.5057592 90.8036327,21.7008874 90.6923044,21.589559 C90.3287669,21.7008874 89.7701012,21.6454256 89.4907684,21.8130253 C89.1555689,21.6454256 88.4009654,21.6170875 88.0936993,21.8130253 C87.6747,21.7846872 87.1435628,21.6170875 86.7245635,21.8130253 C86.4172974,21.9522869 85.8306984,21.7846872 85.4116991,21.8684871 C85.299966,21.8684871 85.2716279,21.8130253 85.2716279,21.6733589 C85.0760949,21.8968252 84.6850289,21.7571588 84.4056961,21.6733589 C84.4615626,21.1142884 84.9364285,20.9466887 85.0202283,20.4155514 C85.2440994,20.3042231 85.299966,20.1366234 85.4116991,19.8852239 C85.495499,19.7734907 85.5513656,19.605891 85.5792989,19.3261533 C85.6630987,18.8512875 85.5513656,17.9294891 85.6351654,17.314552 C85.6630987,17.2028189 85.7189653,17.0631524 85.7189653,16.923486 C85.7468986,16.6441532 85.6630987,15.8336831 85.6351654,15.526417 C85.6068273,15.1912176 85.691032,14.7997467 85.691032,14.4370189 C85.6630987,14.2694192 85.6068273,14.0738862 85.5792989,13.9058816 C85.5792989,13.7382819 85.6068273,13.5427489 85.5792989,13.3751492 C85.5792989,13.0958164 85.691032,12.8164835 85.7189653,12.565084 C85.7189653,12.3974843 85.7748318,12.2298846 85.8027651,12.0898133 C85.8027651,11.9222136 85.5792989,11.7266806 85.5792989,11.5590809 C85.6068273,11.3356146 85.7468986,11.0558769 85.7748318,10.8328155 C85.8306984,10.4138162 85.7468986,9.91061227 85.7748318,9.491613 C85.7870527,9.27163839 85.7939269,8.71467267 85.7954545,8.1061926 L85.7954545,7.57868084 C85.7939269,6.96406823 85.7870527,6.37950606 85.7748318,6.11047108 C85.7468986,5.91534292 85.6630987,5.69147181 85.691032,5.49634365 C85.691032,5.24494409 85.8306984,5.07734438 85.8027651,4.76967342 C85.8027651,4.76967342 85.7468986,4.76967342 85.7748318,4.71380685 C85.7748318,4.63000699 85.7468986,4.23894101 85.5792989,4.09927459 C85.6351654,3.93167488 85.691032,3.73573706 85.7189653,3.5406089 C85.7748318,3.37300919 85.5792989,3.45680904 85.6351654,3.28920933 C85.5792989,3.09327151 85.6351654,2.98153837 85.691032,2.78600538 C85.6351654,2.67427224 85.495499,2.59047239 85.4116991,2.50667254 C85.3554277,2.45040114 85.3554277,2.36700611 85.2716279,2.31113954 C85.2440994,2.28320626 85.1598948,2.28320626 85.1040282,2.22733969 C85.0760949,2.08767327 85.0202283,1.97594013 84.992295,1.83627371 C84.8526286,1.75247385 84.7688288,1.64074071 84.6850289,1.52860274 C84.5732958,1.41727444 84.5174292,1.27720318 84.3777628,1.22133661 C84.3218962,0.942003768 84.2660296,0.690604207 84.2380964,0.410866531 C84.6012291,0.327066677 84.9643618,0.46713793 85.4116991,0.439204646 C85.4116991,0.439204646 85.4116991,0.383338077 85.4675657,0.410866531 C85.6351654,0.439204646 86.0541647,0.495071215 86.2496977,0.355404792 C86.3893641,0.355404792 86.4172974,0.495071215 86.5569638,0.495071215 C86.6407637,0.439204646 86.7524968,0.495071215 86.8642299,0.495071215 C87.0043012,0.46713793 87.1435628,0.410866531 87.3395006,0.410866531 L87.5071003,0.410866531 C87.7305666,0.355404792 87.870233,0.410866531 88.1216326,0.439204646 C88.456832,0.46713793 88.8762361,0.46713793 89.2114355,0.439204646 C89.6863013,0.410866531 90.1611672,0.299538223 90.6085046,0.299538223 C90.748171,0.327066677 90.8599041,0.383338077 90.9995706,0.410866531 C91.1388321,0.410866531 91.2789034,0.383338077 91.4465031,0.410866531 C91.6979027,0.410866531 91.9772355,0.495071215 92.1727685,0.495071215 C92.3403682,0.46713793 92.4525062,0.383338077 92.5917678,0.355404792 C92.6755676,0.327066677 92.7593675,0.383338077 92.8435722,0.355404792 C92.8994387,0.327066677 92.9553053,0.271604938 93.0670384,0.271604938 C93.2625714,0.271604938 93.4581044,0.410866531 93.709504,0.439204646 C94.2681697,0.5230045 94.7993069,0.439204646 95.2741728,0.271604938 Z M95.9207073,1.62962963 L95.1001493,3.2673029 L93.2689096,3.223091 L94.8900375,4.09707486 L94.8454788,5.94272984 L95.7261997,4.30911862 L97.5820346,4.29831952 L95.9314321,3.47129687 L95.9207073,1.62962963 Z" id="形状结合" fill="#FFFFFF"></path>
                    <g id="编组-2" transform="translate(63.808467, 0.271605)">
                        <g id="Fill-127" transform="translate(5.112233, 0.000000)">
                            <mask id="mask-2" fill="white">
                                <use xlink:href="#path-1"></use>
                            </mask>
                            <use id="蒙版" fill="#FFFFFF" xlink:href="#path-1"></use>
                        </g>
                        <path d="M9.07588602,13.8523595 C8.90140359,13.9159143 8.72957849,13.9334422 8.56873134,13.90286 C8.43178796,13.9320296 8.29821904,13.9386214 8.16662691,13.9125021 L8.12254293,13.9269349 C7.90705269,13.9954096 7.69300018,14.0343738 7.48284684,13.9985331 C7.4083248,13.9858695 7.33804997,14.0299997 7.26835513,14.0497917 C7.14045271,14.0861136 7.01218039,14.1201242 6.88446292,14.1376847 L6.9347926,14.1273665 C6.85077468,14.1631436 6.77647632,14.1772242 6.70050067,14.1808583 L6.6579008,14.1789568 L6.64101752,14.1879621 C6.61541477,14.1980818 6.59056917,14.2060981 6.56677856,14.2127578 L6.49886953,14.2294143 L6.46631801,14.2331836 L6.40500672,14.2678552 C6.33010278,14.3006104 6.25346143,14.3177301 6.17379873,14.3240644 L6.15710316,14.3238439 L6.00703066,14.3716301 L5.79997751,14.4201182 C5.69895187,14.4852441 5.59530703,14.5263626 5.50124497,14.5428293 L5.55557889,14.5282481 L5.51052276,14.5469123 L5.45459229,14.6469384 C5.38199421,14.7534693 5.25322409,14.8609001 5.07459689,14.9319856 L4.93137696,14.9779029 C4.86712375,15.0319217 4.8017394,15.0694341 4.73485979,15.1007869 C4.73158101,15.1054173 4.72828896,15.1100588 4.72497904,15.1146908 C4.6295055,15.248299 4.52511201,15.3740736 4.42864511,15.4515103 C4.40513225,15.4703028 4.38931991,15.5036055 4.36818427,15.5309316 C4.30934429,15.6070054 4.24930595,15.6815882 4.18897793,15.7427882 C4.12920507,15.803611 4.08313332,15.8964804 4.03045076,15.9938431 C3.86820967,16.2937065 2.16038588,17.2800722 2.05965575,17.7486828 C2.0388678,17.8450047 2.01233144,17.930528 1.98355704,18.0196312 C1.9747181,18.047002 1.96564864,18.0749178 1.95683059,18.1044474 L1.8452869,18.4779816 L0.737702899,18.7595687 L0.536759706,18.276524 L0.496909964,18.2307346 C0.396289591,18.1027143 0.29962804,17.9421026 0.212912356,17.7597327 L0.129733703,17.5705113 C-0.119719235,17.338712 1.35498467,16.2062498 1.3516715,15.8845211 L1.35022252,15.8623622 C1.34188315,15.7943418 1.3315301,15.7406999 1.34980098,15.5425358 C1.35595232,15.4758676 1.41481003,15.2847232 1.5662387,15.0897546 C1.56244971,15.0694169 1.55855784,15.0492041 1.55522064,15.0291546 C1.52603203,14.8537939 1.52544677,14.6067533 1.55346487,14.2880329 C1.67542069,14.0401439 1.79698436,13.8700415 1.91815589,13.7777257 L1.92651463,13.7474921 C1.98718167,13.5282746 2.05993773,13.3081179 2.13813273,13.1741883 C2.16256787,13.1323403 2.16945425,13.1018989 2.17648379,13.0772505 C2.22652982,12.9017687 2.27280462,12.7696261 2.41684123,12.6195625 L2.43025831,12.5898948 C2.5421464,12.3500688 2.70867762,12.1759539 2.71644049,12.1701079 C2.79241221,12.11274 2.89052532,12.0647193 3.00315176,12.0280465 C3.03895407,11.9928082 3.07490957,11.9648175 3.11124865,11.9414445 C3.21327887,11.8029842 3.33023681,11.7315976 3.4590452,11.677616 C3.58518521,11.570867 3.71165511,11.517232 3.84373775,11.4751288 C3.91941368,11.4224765 3.99469236,11.3855094 4.07159718,11.3532091 C4.18232086,11.2598126 4.34902765,11.1747161 4.57171753,11.0979196 L4.6901064,11.0695757 L4.74118867,11.0588442 L4.76107543,11.0408118 L5.20340734,10.8479944 L5.52850118,10.8246783 L5.43442042,10.8172974 L5.49044697,10.7882133 L5.59679541,10.7514565 L5.918288,10.7236236 L5.81777797,10.7198421 L5.8804767,10.6906094 L6.0279256,10.642189 L6.17085048,10.6201754 L6.21483544,10.6193972 L6.26539056,10.5943892 L6.61255665,10.5352764 L6.71152575,10.5543438 L6.78346919,10.5342926 L7.00980515,10.4766554 L7.05457527,10.4664565 L7.41128039,10.39709 L7.34825968,10.3974574 L7.39448152,10.3884279 L7.49432951,10.3822858 L7.59607741,10.3884444 L7.64943481,10.3977012 L7.80301666,10.3595349 L7.86207375,10.3464343 L7.83205587,10.3625965 L8.04714285,10.2952628 L8.0739161,10.292652 L8.09710672,10.2878796 L8.38323152,10.2891838 L8.39571308,10.2925358 L8.50696755,10.2654055 L8.62657884,10.2493417 C8.75654555,10.241216 8.89551934,10.2699809 9.02932497,10.3290027 L9.03692484,10.3323747 L9.05275056,10.3394949 L9.18987913,10.3309316 L8.91264569,10.2474961 C9.06016589,10.2257408 9.20766416,10.20256 9.3551418,10.178555 L9.79751408,10.104669 C9.97321999,10.0406288 10.1455943,10.0261756 10.3100687,10.0681629 C10.3788768,10.0859093 10.4432233,10.0307071 10.504866,10.012294 C10.63306,9.97400151 10.7617183,9.93809207 10.8883135,9.91924222 L10.955241,9.9136832 L11.0074931,9.89237168 C11.0963326,9.86158777 11.1844726,9.84843692 11.2701953,9.85019138 L11.3967516,9.86366108 C11.4004972,9.8643832 11.4042406,9.86513245 11.4080758,9.86588891 C11.9159561,9.73815958 12.423822,9.6089446 12.9315417,9.47588551 L12.7712712,9.56293569 L12.8391479,9.64252971 C13.0275268,9.4000713 13.1486982,9.31282446 13.3189177,9.2283576 L13.4278652,9.17679163 C13.499892,9.14379725 13.5715045,9.12403459 13.6453025,9.11046876 L13.3135115,9.34993985 L13.5125751,9.25157573 L13.5822199,9.17224167 C13.6699449,9.08754631 13.7687846,9.03601005 13.8715853,9.00500955 L13.9754413,8.98038678 C14.0168709,8.97297845 14.0604306,8.96959286 14.1048253,8.9696675 C14.2091388,8.90436606 14.3157096,8.86257448 14.415544,8.84666928 C14.4285078,8.8446101 14.4415135,8.84279237 14.4545898,8.84112616 C14.6293654,8.70878805 14.8047433,8.61471752 14.9835593,8.5300543 C15.0267226,8.50950809 15.0661399,8.47148754 15.1086074,8.43873265 C15.1679545,8.3929587 15.2276475,8.34754175 15.2872256,8.30738734 C15.3298528,8.27864571 15.3727268,8.25497012 15.4161624,8.23375319 C15.4530807,8.1948734 15.4903015,8.16049053 15.5282585,8.12682276 L15.8550246,7.86023244 C15.9597456,7.72944281 15.7586322,7.91152015 15.8762079,7.850851 L15.8441463,7.86729837 L15.8550246,7.86023244 C16.4548375,7.27832714 16.7743997,7.054029 16.9101038,7.01064815 L16.9420795,7.0016371 C17.1324575,6.9551069 17.0744657,7.0888387 17.2178167,7.14884009 C17.342378,7.20097682 17.6632576,7.18446926 17.7793708,7.31359898 C17.7844234,7.319218 17.9129664,7.81804864 17.9172105,7.82423685 C17.9866753,7.92552136 17.8774612,8.28572991 17.929209,8.51163214 C17.9942098,8.79601641 18.1001808,8.40015397 18.102355,8.75844704 L18.1021595,8.81197325 L18.0764521,8.79362081 C18.1121738,8.87636772 18.1502032,9.10638134 18.1472107,9.27380381 C18.1453487,9.37906696 18.148203,9.48812638 18.1508929,9.59920053 C18.1586181,9.91819354 18.1619605,10.2497572 18.1049496,10.5684378 C18.0711455,10.7573965 18.0044543,10.9419101 17.9356356,11.1200972 C17.9016642,11.2080568 17.8630536,11.2921559 17.8496829,11.3756251 C17.8394129,11.4396868 17.8502266,11.4949583 17.8551148,11.5463111 C17.8648218,11.6482861 17.8716577,11.745623 17.8670577,11.8425258 C17.8519671,12.1604176 17.7514042,12.4538236 17.6462313,12.6660786 C17.5689536,12.8218627 17.4813389,12.9206427 17.3873953,13.0151756 L17.3658456,13.0372024 C17.2817959,13.149538 17.189043,13.2363375 17.1090517,13.2858006 C17.0047193,13.3505597 16.9007997,13.3838648 16.791437,13.4038251 L16.7783611,13.406466 L16.5249278,13.4680368 C16.3299334,13.5144365 16.134668,13.5598455 15.9406728,13.6262382 C15.8080711,13.6716571 15.6770957,13.6825321 15.545669,13.6692328 L15.4859459,13.6604321 L15.428318,13.6838652 C15.289182,13.7330886 15.1522457,13.7539775 15.0182782,13.7441012 L14.8853288,13.7238797 C14.880447,13.7252227 14.8755619,13.7265577 14.8706745,13.7278861 C14.8021758,13.7465046 14.733426,13.7637851 14.6642086,13.7748071 C14.5968324,13.7854924 14.5013413,13.784131 14.3901664,13.7581083 L14.3114358,13.7345665 C14.2478333,13.7539457 14.1806756,13.7639539 14.105738,13.759886 L14.073861,13.7538407 L14.0120867,13.7885357 C13.8847217,13.842617 13.7572448,13.8541544 13.6359544,13.8357399 L13.5169594,13.8078077 C13.4863454,13.7980864 13.4555189,13.7862109 13.4249197,13.7718845 L13.4111879,13.7640324 L13.3531239,13.7568146 C13.1567019,13.7957579 12.9714056,13.7863715 12.7777489,13.6679722 L12.6603957,13.5833655 L12.6929773,13.7974669 C12.6638593,13.7865996 12.6353925,13.7746289 12.6075571,13.7622285 C12.5953024,13.7643168 12.5830448,13.7664759 12.5707767,13.7684301 C12.3981075,13.7959343 12.2264738,13.8121136 12.0563742,13.7901079 C11.9227,13.8126751 11.7922223,13.8198604 11.6632865,13.7987133 C11.5409711,13.8137593 11.4230539,13.8119522 11.3072291,13.7845742 C11.2466786,13.7962091 11.1858964,13.8054552 11.1245701,13.8088835 C11.0875274,13.8109225 11.0490837,13.8099124 11.009724,13.8055385 L10.9155831,13.7869652 L10.8636865,13.7968774 C10.8293381,13.8010409 10.7952285,13.8031167 10.7616432,13.8030201 L10.7384271,13.8010592 L10.6733043,13.8088498 C10.6329954,13.8095333 10.5930375,13.8066349 10.553523,13.8005383 L10.4768089,13.7822472 L10.3097953,13.8011645 L10.0854825,13.8210993 C10.0098757,13.8265162 9.93332898,13.8206804 9.8566539,13.8073353 C9.80162322,13.8215258 9.7470414,13.832555 9.69521623,13.8377424 L9.74739503,13.8293594 C9.59744383,13.8854056 9.4567362,13.8954622 9.32382828,13.8651919 L9.29954926,13.8564295 L9.21119616,13.8641031 L9.07588602,13.8523595 Z" id="Fill-2189" fill="#FFFFFF" transform="translate(9.128231, 12.875780) rotate(1.000000) translate(-9.128231, -12.875780) "></path>
                    </g>
                </g>
                <g id="编组-5" fill="#FFFFFF">
                    <path d="M9.91074201,9.90086145 C4.43713034,9.90086145 0,14.4000982 0,19.9503656 C0,25.500633 4.43713034,29.9998697 9.91074201,29.9998697 C15.3843537,29.9998697 19.821484,25.500633 19.821484,19.9503656 C19.821484,14.4000982 15.3843537,9.90086145 9.91074201,9.90086145 M9.91074201,12.4648118 C13.9813145,12.4648118 17.2929299,15.8228984 17.2929299,19.9503656 C17.2929299,24.0778327 13.9813145,27.4359193 9.91074201,27.4359193 C5.8401695,27.4359193 2.52855409,24.0778327 2.52855409,19.9503656 C2.52855409,15.8228984 5.8401695,12.4648118 9.91074201,12.4648118" id="Fill-1"></path>
                    <path d="M35.4808647,9.95419475 C35.7427537,11.0664632 35.8823844,12.2265058 35.8823844,13.4189045 C35.8823844,19.4069566 32.3833642,24.5811114 27.3501431,26.9520109 C29.1510104,28.831054 31.6684896,30 34.456544,30 C39.9301557,30 44.367286,25.5005461 44.367286,19.9504959 C44.367286,14.7509339 40.4730435,10.4740641 35.4808647,9.95419475" id="Fill-3"></path>
                    <path d="M21.2227642,0 C15.571954,0 10.739167,3.61128946 8.84535733,8.67643237 C9.19606283,8.64277333 9.55132859,8.62388084 9.9107203,8.62388084 C10.0162577,8.62388084 10.1207093,8.6288754 10.2255952,8.63191558 C12.060773,4.31356908 16.2987721,1.28208376 21.2227642,1.28208376 C27.8227594,1.28208376 33.1921367,6.72659665 33.1921367,13.4188828 C33.1921367,20.1111689 27.8227594,25.5556818 21.2227642,25.5556818 C20.6981175,25.5556818 20.1821569,25.5176797 19.6750998,25.4510131 C19.4501271,25.8610019 19.2006159,26.2551384 18.9287377,26.6319025 C19.6744483,26.7645843 20.4401372,26.8377656 21.2227642,26.8377656 C28.5198273,26.8377656 34.4564137,20.818226 34.4564137,13.4188828 C34.4564137,6.01953962 28.5198273,0 21.2227642,0" id="Fill-5"></path>
                    <path d="M21.2227642,3.67611026 C17.5031144,3.67611026 14.2729321,5.83180903 12.6768421,8.97447776 C12.9897626,9.05525946 13.2966028,9.15167633 13.5982312,9.25851664 C15.0631596,6.50976727 17.9311271,4.63767308 21.2227642,4.63767308 C25.9980051,4.63767308 29.88291,8.57686676 29.88291,13.4189914 C29.88291,18.2608988 25.9980051,22.2003097 21.2227642,22.2003097 C21.1015917,22.2003097 20.9815049,22.1959666 20.8614181,22.190972 C20.7975745,22.5132302 20.7185301,22.8296252 20.6284107,23.1412427 C20.8251532,23.1536206 21.0229815,23.1618725 21.2227642,23.1618725 C26.5209146,23.1618725 30.8312263,18.7911916 30.8312263,13.4189914 C30.8312263,8.04679114 26.5209146,3.67611026 21.2227642,3.67611026" id="Fill-7"></path>
                    <path d="M21.2710595,7.48516288 C19.063895,7.48516288 17.1431581,8.72077545 16.1390328,10.545747 C18.9774673,12.4823362 20.8912552,15.7051352 21.0682366,19.3904746 C21.135989,19.3928633 21.2026557,19.400898 21.2710595,19.400898 C24.5160083,19.400898 27.1466253,16.7335818 27.1466253,13.4430304 C27.1466253,10.1526962 24.5160083,7.48516288 21.2710595,7.48516288" id="Fill-9"></path>
                </g>
            </g>
        </g>
    </g>
</svg>