<?xml version="1.0" encoding="UTF-8"?>
<svg width="130px" height="25px" viewBox="0 0 130 25" version="1.1" xmlns="http://www.w3.org/2000/svg" xmlns:xlink="http://www.w3.org/1999/xlink">
    <title>编组备份 2</title>
    <defs>
        <path d="M4.6663818,0.0892901675 C4.82296311,0.0892901675 4.95689836,0.111936224 5.09083361,0.0892901675 C5.22476886,0.0892901675 5.33638157,0.0669676256 5.44799428,0.0669676256 C5.55960699,0.0669676256 5.64889715,0.156257793 5.87212257,0.133935251 C5.98373528,0.111936224 6.09534799,0.133935251 6.2519293,0.200902877 C6.31889693,0.223225419 6.29625087,0.156257793 6.34089595,0.133935251 C6.45283218,0.111936224 6.63141251,0.133935251 6.74302522,0.0669676256 C6.85463793,0.0669676256 6.87696047,0.17890385 6.98857318,0.200902877 C7.32341131,0.223225419 7.56895927,0.156257793 7.79218469,0.0223225419 C7.9037974,-0.0223225419 7.79218469,0.156257793 7.88179837,0.133935251 C8.03805617,0.0449685988 8.19431396,0.0669676256 8.43986192,0.0669676256 C8.61844225,0.0669676256 8.73005496,0 8.86399021,0.0669676256 C8.9086353,0.0892901675 8.93095784,0.111936224 8.97592644,0.133935251 C9.04289406,0.156257793 9.15418326,0.156257793 9.24379694,0.17890385 C9.46702236,0.200902877 9.6456027,0.223225419 9.84650557,0.133935251 C9.98044082,0.0892901675 9.93579574,0.223225419 10.0474084,0.200902877 C10.1366986,0.200902877 10.2036662,0.133935251 10.2483113,0.200902877 C10.359924,0.401805754 10.4045691,0.714644855 10.2483113,0.89322519 C10.2259888,1.11645061 10.2929564,1.31735349 10.2929564,1.5405789 C10.2929564,2.18825613 10.1590212,2.88025493 10.1813437,3.43864199 C10.1590212,3.50560962 10.0920535,3.52760865 10.0920535,3.61689881 C10.0920535,3.81812521 10.0920535,3.99670554 10.0920535,4.17528588 C10.1143761,4.30922113 9.9134732,4.59973769 9.93579574,4.71102688 C9.82418303,4.80064056 10.1366986,4.88960722 9.93579574,4.95657484 C9.93579574,5.09083361 9.77953795,5.02354247 9.69024778,5.02354247 C9.60095761,5.04618852 9.51166744,5.06851107 9.44469982,5.06851107 C9.28811851,5.02354247 9.26579597,4.44315638 9.10986169,4.46547892 C9.08721563,4.30922113 8.95328038,4.28689859 8.93095784,4.15296333 C8.81934513,4.17528588 8.86399021,4.04135062 8.73005496,4.08599571 C8.77470005,3.95206046 8.66308734,3.99670554 8.61844225,3.92973792 C8.61844225,3.92973792 8.6407648,3.88509283 8.61844225,3.86277029 C8.57379717,3.81812521 8.484507,3.79580266 8.484507,3.72883504 C8.39521684,3.72883504 8.30592667,3.72883504 8.23895904,3.72883504 C8.19431396,3.7065125 8.12734633,3.66186741 8.06037871,3.66186741 C7.92644346,3.63954487 7.79218469,3.75115758 7.6359269,3.77348012 C7.36805639,3.79580266 7.10018589,3.68418995 6.87696047,3.77348012 C6.74302522,3.77348012 6.74302522,3.63954487 6.58676743,3.66186741 C6.45283218,3.61689881 6.36321849,3.75115758 6.2069607,3.77348012 C5.96141274,3.77348012 5.69354224,3.66186741 5.53728445,3.86277029 C5.42567174,3.90741537 5.5149619,3.75115758 5.40334919,3.79580266 C5.29173648,3.75115758 5.38102665,3.90741537 5.26941394,3.86277029 C5.11315615,3.92973792 5.29173648,3.63954487 5.13547869,3.68418995 C4.97889738,3.66186741 5.06851107,3.79580266 5.06851107,3.86277029 C5.04618852,3.95206046 5.00121993,4.01902808 5.02386598,4.10831825 C5.04618852,4.2422535 5.13547869,4.33154367 5.13547869,4.46547892 C5.11315615,4.64405926 5.00121993,4.73367294 4.95689836,4.88960722 C5.02386598,5.44799428 5.09083361,6.38554104 5.02386598,6.98857318 C5.29173648,6.9439281 5.22476886,10.4268917 5.09083361,10.3825701 C5.02386598,10.4715367 5.13547869,10.583473 5.13547869,10.6947622 C5.04618852,10.9629562 5.09083361,11.9454715 5.09083361,12.2579871 C5.09083361,12.3695998 5.04618852,13.0169535 5.06851107,13.1285663 C5.06851107,13.2405025 5.13547869,13.3517917 5.13547869,13.4414054 C5.13547869,13.6196622 5.06851107,13.7762435 4.97889738,13.9101787 C5.20244632,13.8432111 5.53728445,13.9101787 5.69354224,13.7539209 C5.96141274,13.7762435 6.47515472,13.798566 6.74302522,13.6866298 C6.85463793,13.6866298 6.89928301,13.7762435 7.01089572,13.7539209 C7.10018589,13.7762435 7.12250843,13.7092759 7.23412114,13.6866298 C7.41302499,13.6646308 7.70289452,13.7315984 7.79218469,13.5526946 C7.948766,13.6196622 8.03805617,13.4414054 8.26128158,13.4857269 C8.32824921,13.3744377 8.43986192,13.3964368 8.55147463,13.3517917 C8.61844225,13.3074701 8.68540988,13.2405025 8.75237751,13.1735349 C8.79702259,13.1062437 8.84166767,13.0169535 8.9086353,12.9499859 C8.93095784,12.9276634 8.97592644,12.9499859 8.99792547,12.9276634 C9.08721563,12.8606958 9.22115088,12.7267605 9.31076457,12.6374703 C9.37773219,12.5928253 9.46702236,12.3695998 9.4893449,12.3695998 C9.53398999,12.3472773 9.60095761,12.3695998 9.62328015,12.3695998 C9.66792524,12.3472773 9.6456027,12.3026322 9.69024778,12.2803097 C9.84650557,12.2579871 10.0474084,12.0124392 10.2259888,12.1910195 C10.2483113,12.3249548 10.1590212,12.8383732 10.1590212,12.994631 C10.1590212,13.0839212 10.2036662,13.2178564 10.1813437,13.3074701 C10.1813437,13.4187593 10.1143761,13.5526946 10.1143761,13.6646308 C10.1143761,13.7762435 10.1813437,13.8655337 10.1813437,13.9771464 C10.2036662,14.044114 10.1590212,14.0887591 10.1590212,14.1557267 C10.1590212,14.2226943 10.2259888,14.289662 10.2259888,14.3566296 C10.2483113,14.6025011 10.2036662,14.8923706 10.2259888,15.1159195 C10.2483113,15.2944999 10.315279,15.4507576 10.2929564,15.7186281 C10.2929564,15.8305644 10.2036662,15.897532 10.1813437,15.9864986 C10.1813437,16.0757888 10.2036662,16.1654025 10.1813437,16.2323701 C10.1813437,16.2993377 10.1143761,16.3436593 10.1143761,16.3883044 C10.1143761,16.433273 10.1590212,16.455272 10.1590212,16.5225632 C10.1590212,16.5672083 10.1143761,16.5895308 10.1143761,16.6341759 C10.1366986,16.7681111 10.2483113,16.8350788 10.2259888,17.0136591 C10.2036662,17.0806267 10.0920535,17.0583042 10.0474084,17.1029493 C10.069731,17.214562 9.9134732,17.1475943 9.9134732,17.214562 C9.7572154,17.2368845 9.80186049,17.0359816 9.62328015,17.0806267 C9.44469982,17.0583042 9.46702236,17.214562 9.35540965,17.2592071 C8.99792547,17.2592071 8.59611971,17.2815296 8.37289429,17.1475943 C8.23895904,17.1922394 7.9037974,17.2815296 7.79218469,17.1475943 C7.6808955,17.1699169 7.61392787,17.2368845 7.50199165,17.2592071 C7.27876623,17.2815296 6.92160556,17.1252718 6.63141251,17.1029493 C6.40786358,17.1029493 6.2519293,17.214562 6.07302545,17.1475943 C5.96141274,17.1029493 6.05070291,17.2592071 5.9390902,17.214562 C5.69354224,17.1922394 5.49263936,17.2592071 5.20244632,17.2592071 C5.11315615,17.2592071 5.02386598,17.214562 4.95689836,17.214562 C4.75599548,17.214562 4.55476909,17.2815296 4.35386621,17.2815296 C4.15296333,17.3038521 3.92973792,17.3038521 3.7065125,17.3261747 C3.63954487,17.3261747 3.63954487,17.2815296 3.59489979,17.2815296 C3.52793216,17.3038521 3.46096454,17.3484972 3.39399691,17.3484972 C3.03651273,17.3934658 2.67935206,17.3261747 2.2775463,17.3261747 C2.18825613,17.3261747 2.12096499,17.3261747 2.03199834,17.3261747 C1.96503072,17.3261747 1.89806309,17.2815296 1.85309449,17.2815296 C1.74148178,17.3038521 1.67451416,17.3708198 1.56290145,17.3484972 C1.45128874,17.3484972 1.38432111,17.2815296 1.25038586,17.2592071 C0.982515358,17.2368845 0.826257564,17.3038521 0.558063547,17.2815296 C0.513418463,17.214562 0.446450837,17.1252718 0.424128296,17.0359816 C0.424128296,16.969014 0.223225419,16.9020464 0.312515586,16.8574013 C0.312515586,16.7457886 0.35716067,16.7011435 0.446450837,16.7011435 C0.424128296,16.5895308 0.469096894,16.5225632 0.491095921,16.455272 C0.580386089,16.4106269 0.625031172,16.2766917 0.736967397,16.2323701 C0.803935023,16.0311437 0.89322519,15.6963056 1.04948298,15.5177253 C1.0048379,15.3391449 1.13877315,15.2052097 1.18341823,15.0486284 C1.20574078,15.0043068 1.18341823,14.8923706 1.18341823,14.8477255 C1.20574078,14.7807579 1.25038586,14.7364363 1.25038586,14.7137902 C1.31735349,14.2450169 1.2727084,13.7539209 1.29503094,13.2625015 C1.31735349,12.8383732 1.29503094,10.8513435 1.31735349,10.4495377 C1.38432111,9.82418303 1.38432111,9.15450677 1.38432111,8.57379717 C1.40664365,8.484507 1.36199857,8.39521684 1.36199857,8.32824921 C1.36199857,8.26128158 1.40664365,8.19431396 1.38432111,8.12734633 C1.38432111,7.948766 1.31735349,7.76986215 1.31735349,7.59160533 C1.33967603,6.5197998 1.33967603,4.68870434 1.25038586,3.61689881 C1.31735349,3.5502547 1.38432111,3.3936734 1.31735349,3.23773912 C1.31735349,3.21509306 1.25038586,3.21509306 1.25038586,3.17077149 C1.25038586,3.10380387 1.29503094,2.96986861 1.29503094,2.88025493 C1.29503094,2.74631968 1.22806332,2.59006189 1.31735349,2.47844918 C1.36199857,2.38915901 1.25038586,2.38915901 1.25038586,2.32219139 C1.25038586,2.32219139 1.29503094,2.25490024 1.29503094,2.18825613 C1.25038586,2.05399737 1.09412807,1.9647072 1.11645061,1.76380432 C1.04948298,1.67483767 0.937870274,1.67483767 0.870902648,1.60787005 C0.848580106,1.58522399 0.848580106,1.47393479 0.803935023,1.4289662 C0.736967397,1.33967603 0.669999771,1.31735349 0.625031172,1.20574078 C0.603032146,1.16109569 0.580386089,1.07180553 0.513418463,1.0048379 C0.491095921,0.960192816 0.469096894,0.982515358 0.424128296,0.937870274 C0.402129269,0.937870274 0.402129269,0.870902648 0.379483212,0.870902648 C0.35716067,0.848580106 0.334838128,0.870902648 0.312515586,0.870902648 C0.290193044,0.848580106 0.290193044,0.803935023 0.267870502,0.803935023 C0.201226392,0.759289939 0.178580335,0.736967397 0.111612709,0.625354688 C0.0892901675,0.602708631 0.0892901675,0.580709604 0.0669676256,0.558063547 C0.0669676256,0.535741005 0.111612709,0.401805754 0,0.401805754 C0.178580335,0.35716067 0.267870502,0.17890385 0.491095921,0.133935251 C0.736967397,0.0892901675 1.04948298,0.200902877 1.36199857,0.17890385 C1.36199857,0.111936224 1.36199857,0.0449685988 1.36199857,0 C1.4289662,0.0223225419 1.49593382,0.0669676256 1.56290145,0.0892901675 C2.34451393,0.0892901675 3.72883504,0.0892901675 4.6663818,0.0892901675 Z" id="path-1"></path>
    </defs>
    <g id="页面-1" stroke="none" stroke-width="1" fill="none" fill-rule="evenodd">
        <g id="kepler-icon-new" transform="translate(-20.000000, -27.000000)">
            <g id="编组备份-2" transform="translate(20.000000, 27.500000)">
                <g id="编组-4" transform="translate(44.751713, 3.196551)">
                    <path d="M21.3330576,0.306205988 C21.4876349,0.306205988 21.6198561,0.328818076 21.7520772,0.306205988 C21.8842983,0.306205988 21.9944826,0.28391693 22.1046669,0.28391693 C22.2148511,0.28391693 22.3029986,0.373073163 22.5233671,0.350784104 C22.6335514,0.328818076 22.7437356,0.350784104 22.898313,0.417651279 C22.9644236,0.439940337 22.9420673,0.373073163 22.986141,0.350784104 C23.0966447,0.328818076 23.2729395,0.350784104 23.3831238,0.28391693 C23.4933081,0.28391693 23.5153449,0.39568525 23.6255292,0.417651279 C23.956082,0.439940337 24.1984874,0.373073163 24.418856,0.239338814 C24.5290403,0.194760698 24.418856,0.373073163 24.5073228,0.350784104 C24.6615808,0.261950902 24.8158387,0.28391693 25.0582441,0.28391693 C25.234539,0.28391693 25.3447232,0.217049756 25.4769444,0.28391693 C25.5210181,0.306205988 25.5430549,0.328818076 25.587448,0.350784104 C25.6535586,0.373073163 25.7634235,0.373073163 25.8518903,0.39568525 C26.0722588,0.417651279 26.2485537,0.439940337 26.4468854,0.350784104 C26.5791065,0.306205988 26.5350328,0.439940337 26.645217,0.417651279 C26.7333645,0.417651279 26.799475,0.350784104 26.8435487,0.417651279 C26.953733,0.618252801 26.9978067,0.930622644 26.8435487,1.10893511 C26.8215119,1.33182569 26.8876224,1.53242721 26.8876224,1.75531779 C26.8876224,2.40202351 26.7554013,3.09298431 26.7774382,3.65053379 C26.7554013,3.71740096 26.6892908,3.73936699 26.6892908,3.82852322 C26.6892908,4.02944777 26.6892908,4.20776024 26.6892908,4.3860727 C26.7113276,4.51980705 26.5129959,4.80988784 26.5350328,4.9210101 C26.4248485,5.01048936 26.7333645,5.09932256 26.5350328,5.16618974 C26.5350328,5.30024711 26.3807748,5.23305691 26.2926274,5.23305691 C26.20448,5.255669 26.1163325,5.27795806 26.050222,5.27795806 C25.8956446,5.23305691 25.8736078,4.6535414 25.7196692,4.67583046 C25.6973129,4.51980705 25.5650918,4.49751799 25.5430549,4.36378365 C25.4328707,4.3860727 25.4769444,4.25233835 25.3447232,4.29691647 C25.388797,4.16318212 25.2786127,4.20776024 25.234539,4.14089306 C25.234539,4.14089306 25.2565758,4.09631495 25.234539,4.07402589 C25.1904653,4.02944777 25.1023178,4.00715872 25.1023178,3.94029154 C25.0141704,3.94029154 24.926023,3.94029154 24.8599124,3.94029154 C24.8158387,3.91800248 24.7497282,3.87342437 24.6836176,3.87342437 C24.5513965,3.85113531 24.418856,3.9625806 24.264598,3.98486966 C24.0001557,4.00715872 23.7357135,3.89571343 23.5153449,3.98486966 C23.3831238,3.98486966 23.3831238,3.85113531 23.2288658,3.87342437 C23.0966447,3.82852322 23.0081779,3.9625806 22.8539199,3.98486966 C22.6115145,3.98486966 22.3470723,3.87342437 22.1928143,4.07402589 C22.08263,4.11860401 22.1707774,3.9625806 22.0605932,4.00715872 C21.9504089,3.9625806 22.0385563,4.11860401 21.928372,4.07402589 C21.774114,4.14089306 21.9504089,3.85113531 21.7961509,3.89571343 C21.6415735,3.87342437 21.7300403,4.00715872 21.7300403,4.07402589 C21.7080035,4.16318212 21.6636104,4.2300493 21.6859666,4.31920553 C21.7080035,4.45293988 21.7961509,4.54209611 21.7961509,4.67583046 C21.774114,4.85414292 21.6636104,4.94362218 21.6198561,5.09932256 C21.6859666,5.65687204 21.7520772,6.59301248 21.6859666,7.19514008 C21.9504089,7.15056196 22.1046669,6.9722495 22.3691091,6.92767138 C22.4352197,6.88309327 22.4352197,6.79393703 22.4792934,6.74935892 C22.6555882,6.7047808 22.8322024,6.66020269 22.9644236,6.57104645 C23.0522516,6.52614531 23.1186816,6.41470002 23.206829,6.37044493 C23.2949764,6.30357776 23.4271975,6.28096567 23.4712712,6.19180944 C23.7357135,6.23671058 23.8679346,5.79060639 24.0883032,5.76831733 C24.264598,5.87976262 24.1544137,6.1026532 24.1544137,6.32554378 C24.1544137,6.57104645 24.1544137,7.19514008 24.1323769,7.48489783 C24.1106594,7.61863218 24.2205243,7.59666615 24.2428805,7.68549936 C24.1544137,7.8192337 24.1544137,8.0867024 24.1323769,8.24272581 C24.1106594,8.39907224 24.0221926,8.55509565 24.0221926,8.71111906 C24.0221926,8.88975455 24.1323769,9.42469194 24.1323769,9.60300441 C24.1323769,9.73673876 24.0662663,9.82589499 24.0662663,9.95962934 C24.0445488,10.3162543 24.2205243,10.985249 24.1544137,11.341874 C24.0883032,11.5424755 24.0883032,11.6984989 23.9120083,11.7876551 C23.7357135,11.7876551 23.7357135,11.6316317 23.6034924,11.6093427 C23.4712712,11.5870536 23.4271975,11.2750068 23.2949764,11.2527177 C23.0966447,11.1635615 22.986141,10.985249 22.8322024,10.8734807 C22.6776251,10.8957698 22.5894777,10.8289026 22.4792934,10.8289026 C22.3470723,10.8066135 22.3250354,10.6951683 22.236888,10.6509132 C22.08263,10.6283011 21.8842983,10.6283011 21.7520772,10.584046 C21.6859666,10.6728792 21.7961509,10.7846475 21.7961509,10.8957698 C21.7080035,11.1635615 21.7520772,12.1446031 21.7520772,12.4566499 C21.7520772,12.5680952 21.7080035,13.2144779 21.7300403,13.3259232 C21.7300403,13.4376915 21.7961509,13.5488137 21.7961509,13.638293 C21.7961509,13.8162824 21.7300403,13.9726289 21.6415735,14.1063632 C21.8622615,14.0394961 22.1928143,14.1063632 22.3470723,13.9503398 C22.6115145,13.9726289 23.1186816,13.9949179 23.3831238,13.8831496 C23.4933081,13.8831496 23.5373818,13.9726289 23.6475661,13.9503398 C23.7357135,13.9726289 23.7577503,13.9057617 23.8679346,13.8831496 C24.0445488,13.8611836 24.3307086,13.9280508 24.418856,13.7494153 C24.5734333,13.8162824 24.6615808,13.638293 24.8819493,13.6825481 C24.9480599,13.5714258 25.0582441,13.5933919 25.1684284,13.5488137 C25.234539,13.5045587 25.3006495,13.4376915 25.3667601,13.3708243 C25.4108338,13.3036341 25.4549075,13.2144779 25.5210181,13.1476107 C25.5430549,13.1253216 25.587448,13.1476107 25.6091655,13.1253216 C25.6973129,13.0584545 25.829534,12.9247201 25.9180008,12.8355639 C25.9841114,12.7909858 26.0722588,12.5680952 26.0942957,12.5680952 C26.1383694,12.5458061 26.20448,12.5680952 26.2265168,12.5680952 C26.2705905,12.5458061 26.2485537,12.501228 26.2926274,12.478939 C26.4468854,12.4566499 26.645217,12.2114703 26.8215119,12.3897827 C26.8435487,12.5235171 26.7554013,13.0361654 26.7554013,13.1921888 C26.7554013,13.281345 26.799475,13.4150794 26.7774382,13.5045587 C26.7774382,13.6156809 26.7113276,13.7494153 26.7113276,13.8611836 C26.7113276,13.9726289 26.7774382,14.0617851 26.7774382,14.1732304 C26.799475,14.2400976 26.7554013,14.2846757 26.7554013,14.3515429 C26.7554013,14.41841 26.8215119,14.4852772 26.8215119,14.5521444 C26.8435487,14.7976471 26.799475,15.0870818 26.8215119,15.3102954 C26.8435487,15.4886079 26.9096593,15.6446313 26.8876224,15.9121 C26.8876224,16.0238683 26.799475,16.0907355 26.7774382,16.1795687 C26.7774382,16.2687249 26.799475,16.3582042 26.7774382,16.4250713 C26.7774382,16.4919385 26.7113276,16.5361936 26.7113276,16.5807717 C26.7113276,16.6256728 26.7554013,16.6476389 26.7554013,16.7148291 C26.7554013,16.7594072 26.7113276,16.7816963 26.7113276,16.8262744 C26.7333645,16.9600087 26.8435487,17.0268759 26.8215119,17.2051884 C26.799475,17.2720555 26.6892908,17.2497665 26.645217,17.2943446 C26.6672539,17.4057899 26.5129959,17.3389227 26.5129959,17.4057899 C26.3587379,17.4280789 26.4028116,17.2274774 26.2265168,17.2720555 C26.050222,17.2497665 26.0722588,17.4057899 25.9620746,17.450368 C25.6091655,17.450368 25.2125021,17.4726571 24.9921336,17.3389227 C24.8599124,17.3835008 24.5290403,17.4726571 24.418856,17.3389227 C24.3089911,17.3612118 24.2428805,17.4280789 24.1323769,17.450368 C23.9120083,17.4726571 23.5594186,17.3166336 23.2729395,17.2943446 C23.0522516,17.2943446 22.898313,17.4057899 22.7216988,17.3389227 C22.6115145,17.2943446 22.6996619,17.450368 22.5894777,17.4057899 C22.3470723,17.3835008 22.1487406,17.450368 21.8622615,17.450368 C21.774114,17.450368 21.6859666,17.4057899 21.6198561,17.4057899 C21.4215244,17.4057899 21.2228733,17.4726571 21.0245416,17.4726571 C20.8262099,17.4949461 20.6058414,17.4949461 20.3854728,17.5172352 C20.3193623,17.5172352 20.3193623,17.4726571 20.2752886,17.4726571 C20.209178,17.4949461 20.1430674,17.5395242 20.0769569,17.5395242 C19.7240478,17.5844254 19.3714581,17.5172352 18.9747948,17.5172352 C18.8866473,17.5172352 18.8202174,17.5172352 18.7323894,17.5172352 C18.6662788,17.5172352 18.6001682,17.4726571 18.5557751,17.4726571 C18.4455909,17.4949461 18.3794803,17.5618133 18.269296,17.5395242 C18.1591118,17.5395242 18.0930012,17.4726571 17.9607801,17.450368 C17.6963378,17.4280789 17.5420798,17.4949461 17.2773182,17.4726571 C17.2332445,17.4057899 17.1671339,17.3166336 17.1450971,17.2274774 C17.1450971,17.1606102 16.9467654,17.0937431 17.0349128,17.049165 C17.0349128,16.9377197 17.0789865,16.8931415 17.1671339,16.8931415 C17.1450971,16.7816963 17.1894902,16.7148291 17.2112076,16.6476389 C17.2993551,16.6030608 17.3434288,16.4693264 17.4539324,16.4250713 C17.520043,16.2241468 17.6081904,15.8898109 17.7624484,15.7114984 C17.7183747,15.533186 17.8505958,15.3994516 17.8946695,15.2431052 C17.9167064,15.1988501 17.8946695,15.0870818 17.8946695,15.0425037 C17.9167064,14.9756365 17.9607801,14.9313814 17.9607801,14.9087693 C18.0268906,14.4406991 17.9828169,13.9503398 18.0048538,13.4596575 C18.0268906,13.0361654 18.0048538,11.0521162 18.0268906,10.6509132 C18.0930012,10.0264965 18.0930012,9.35782477 18.0930012,8.77798623 C18.115038,8.68883 18.0709643,8.59967377 18.0709643,8.53280659 C18.0709643,8.46593942 18.115038,8.39907224 18.0930012,8.33220507 C18.0930012,8.15389261 18.0268906,7.97525711 18.0268906,7.79726768 C18.0489275,6.72706986 18.0489275,4.89872104 17.9607801,3.82852322 C18.0268906,3.76197908 18.0930012,3.60563264 18.0268906,3.44993226 C18.0268906,3.42732018 17.9607801,3.42732018 17.9607801,3.38306509 C17.9607801,3.31619792 18.0048538,3.18246357 18.0048538,3.09298431 C18.0048538,2.95924996 17.9387432,2.80322655 18.0268906,2.69178126 C18.0709643,2.60262503 17.9607801,2.60262503 17.9607801,2.53575785 C17.9607801,2.53575785 18.0048538,2.46856765 18.0048538,2.40202351 C17.9607801,2.26796613 17.8065221,2.1788099 17.8285589,1.97820837 C17.7624484,1.88937517 17.6522641,1.88937517 17.5861535,1.822508 C17.5641167,1.79989591 17.5641167,1.68877365 17.520043,1.6438725 C17.4539324,1.55471627 17.3878218,1.53242721 17.3434288,1.42098192 C17.3217113,1.37640381 17.2993551,1.28724757 17.2332445,1.2203804 C17.2112076,1.17580228 17.1894902,1.19809134 17.1450971,1.15351322 C17.1233796,1.15351322 17.1233796,1.08664605 17.1010234,1.08664605 C17.0789865,1.06435699 17.0569497,1.08664605 17.0349128,1.08664605 C17.0128759,1.06435699 17.0128759,1.01977888 16.9908391,1.01977888 C16.9250479,0.97520076 16.9026917,0.952911702 16.8365811,0.841466412 C16.8145442,0.818854324 16.8145442,0.796888296 16.7925074,0.774276208 C16.7925074,0.75198715 16.8365811,0.618252801 16.7263968,0.618252801 C16.9026917,0.573674685 16.9908391,0.39568525 17.2112076,0.350784104 C17.4539324,0.306205988 17.7624484,0.417651279 18.0709643,0.39568525 C18.0709643,0.328818076 18.0709643,0.261950902 18.0709643,0.217049756 C18.1370749,0.239338814 18.2031855,0.28391693 18.269296,0.306205988 C19.0409053,0.306205988 20.4075097,0.306205988 21.3330576,0.306205988 Z" id="Fill-61备份" fill="#FFFFFF"></path>
                    <path d="M17.3388537,17.3727374 C17.2495636,17.39506 17.182596,17.4620276 17.0936293,17.4843501 C17.0040156,17.5066727 16.8700804,17.4843501 16.7361451,17.4843501 C16.2450492,17.5066727 11.4986972,17.4992869 10.8959886,17.4769644 C10.7620533,17.4769644 10.7473743,17.386303 10.635438,17.3639805 C10.4125361,17.4755932 10.1889872,17.3416579 9.96576179,17.3416579 C9.85414908,17.3416579 9.72021383,17.4086256 9.58627858,17.4086256 C9.47434236,17.4086256 9.36305316,17.3639805 9.27343948,17.3639805 C9.18447283,17.386303 9.09518266,17.4309481 9.02789152,17.4532707 C8.78266707,17.4532707 8.5817642,17.3416579 8.35821526,17.4086256 C8.31324666,17.3193354 8.24627904,17.2970129 8.22428001,17.2077227 C8.20195747,17.09611 8.2689251,17.0068198 8.24627904,16.9175297 C8.24627904,16.850562 8.20195747,16.7835944 8.17931141,16.7163033 C8.15731239,16.582368 8.19399044,16.4274814 8.17199142,16.2935462 C8.14966887,16.2265785 8.14966887,16.1372884 8.12702282,16.1152893 C8.06005519,15.958708 8.01573362,15.8470953 7.92611994,15.6908375 C7.83715329,15.4899346 7.81483075,15.1994181 7.6808955,14.909225 C7.63625041,14.8202584 7.54696024,14.7306447 7.50231516,14.6413545 C7.30141228,14.1502586 7.34573385,13.9043871 6.98857318,13.2573569 C6.9439281,12.9668404 6.60908997,12.2301965 6.631089,11.8503898 C6.47515472,11.6048418 6.45283218,11.2253586 6.07334897,11.2030361 C6.05070291,11.1137459 5.98373528,11.0464548 5.89444512,11.0244557 C5.62657461,11.0244557 5.47031682,11.0914234 5.26909043,10.9798106 C5.09083361,11.0244557 4.9792209,11.1360684 4.75599548,11.1360684 C4.6663818,11.4709066 4.77831802,11.8283908 4.77831802,12.1632289 C4.77831802,12.4310994 4.7113504,13.4582598 4.82263959,13.7034843 C4.84528565,13.815097 4.75599548,13.793098 4.75599548,13.8374195 C4.73334942,13.9270332 4.82263959,13.9940008 4.84528565,14.083291 C4.86728467,14.1725812 4.82263959,14.2618713 4.88993073,14.373484 C4.86728467,14.4181291 4.77831802,14.4181291 4.75599548,14.4627742 C4.7113504,14.5297418 4.80031705,14.5297418 4.82263959,14.5297418 C4.82263959,14.5967095 4.75599548,14.5967095 4.77831802,14.6413545 C4.80031705,14.7083222 4.84528565,14.7306447 4.88993073,14.8202584 C4.80031705,14.9761927 4.75599548,15.1324505 4.82263959,15.3783219 C4.86728467,15.5792248 4.91225327,15.8024502 5.09083361,15.8917404 C5.18012378,16.3381912 5.5149619,16.717998 5.47031682,17.1644488 C5.44799428,17.3207066 5.26909043,17.2760615 5.09083361,17.3207066 C5.06818755,17.3430291 5.04618852,17.3876742 4.9792209,17.4099968 C4.95689836,17.4099968 4.86728467,17.3653517 4.82263959,17.3653517 C4.68870434,17.3653517 4.55476909,17.4323193 4.42083384,17.4323193 C4.33154367,17.4323193 4.2422535,17.4099968 4.15296333,17.4099968 C4.04135062,17.3876742 3.92973792,17.4323193 3.79580266,17.4323193 C3.61722233,17.4323193 3.41631945,17.3430291 3.21541658,17.3207066 C3.14844895,17.3207066 3.10348035,17.3653517 3.03651273,17.3653517 C2.9695451,17.3653517 2.88057845,17.3207066 2.83560985,17.3207066 C2.76864222,17.3207066 2.7016746,17.3653517 2.65702951,17.3653517 C2.59006189,17.3653517 2.52309426,17.3207066 2.47844918,17.3207066 C2.38915901,17.3430291 2.32219139,17.3876742 2.23290122,17.4099968 C1.92038563,17.4099968 1.62986907,17.2983841 1.31735349,17.2983841 C1.11645061,17.2983841 0.89322519,17.3876742 0.692322313,17.2983841 C0.603032146,17.2983841 0.603032146,17.3653517 0.558387062,17.4099968 C0.401805754,17.2314164 0.133935251,17.3876742 0,17.1867713 C0,16.9635459 0.111612709,16.8519332 0.200902877,16.7403205 C0.267870502,16.494449 0.335161643,16.2712236 0.491419436,16.1152893 C0.491419436,16.0256757 0.491419436,15.9140629 0.491419436,15.8247728 C0.603032146,15.7801277 0.625354688,15.6461924 0.736967397,15.5792248 C0.736967397,15.5345797 0.736967397,15.4899346 0.759289939,15.4899346 C0.736967397,15.4006445 0.803935023,15.2443867 0.736967397,15.2443867 C0.781288966,15.1550965 0.781288966,15.0211613 0.803935023,14.9315476 C0.848256591,14.5074193 0.781288966,14.1279361 0.759289939,13.7034843 C0.759289939,13.4132912 0.759289939,12.3641318 0.759289939,12.0962613 C0.781288966,11.9396799 0.71432134,11.7834222 0.692322313,11.6048418 C0.692322313,11.5155516 0.736967397,11.4039389 0.736967397,11.2923262 C0.736967397,11.1360684 0.669999771,11.0021332 0.736967397,10.8455519 C0.781288966,10.7562617 0.803935023,10.3994246 0.803935023,10.1758756 C0.803935023,10.108908 0.759289939,9.99729529 0.759289939,9.93032766 C0.781288966,9.79639241 0.870902648,9.64013462 0.870902648,9.48355331 C0.870902648,9.39426314 0.848256591,9.28265043 0.826257564,9.17136124 C0.826257564,8.83652311 0.937870274,8.54600655 0.803935023,8.25548999 C0.915224217,8.16652334 0.848256591,8.05458711 0.826257564,7.87633029 C0.826257564,7.80936267 0.870902648,7.74239504 0.870902648,7.67542742 C0.870902648,7.58581373 0.826257564,7.51884611 0.826257564,7.42955594 C0.848256591,7.36258832 0.870902648,7.29562069 0.870902648,7.22865306 C0.870902648,6.91613748 0.781288966,5.77736433 0.803935023,5.46484874 C0.803935023,5.28626841 0.870902648,5.66575162 0.826257564,5.42020366 C0.803935023,5.28626841 0.71432134,5.19697824 0.692322313,5.06271947 C0.692322313,4.95143028 0.71432134,4.83949405 0.759289939,4.79484897 C0.647353714,4.63859118 0.71432134,3.18762595 0.736967397,2.96407702 C0.736967397,2.85246431 0.692322313,2.71852906 0.692322313,2.58459381 C0.692322313,2.33904585 0.781288966,2.09349789 0.736967397,1.84762641 C0.736967397,1.78065879 0.71432134,1.7360137 0.625354688,1.75833624 C0.625354688,1.53511083 0.558387062,1.42349812 0.446450837,1.33420795 C0.401805754,0.909756138 0.200902877,0.641885636 0.0446450837,0.307047508 C0.290516559,0.240079882 0.692322313,0.284724966 0.915224217,0.240079882 C1.02716044,0.21775734 0.960192816,0.351692591 1.04915947,0.351692591 C1.36199857,0.173112256 1.83077195,0.195434798 2.29986884,0.284724966 C2.36683647,0.284724966 2.43380409,0.351692591 2.50077172,0.351692591 C2.59006189,0.351692591 2.61238443,0.307047508 2.65702951,0.307047508 C2.76864222,0.307047508 3.12580289,0.351692591 3.2374156,0.418660217 C3.48328708,0.351692591 3.79580266,0.262725939 4.08599571,0.351692591 C4.21993096,0.374015133 4.19760842,0.240079882 4.28689859,0.21775734 C4.44347989,0.21775734 4.53244655,0.329693565 4.7113504,0.351692591 C4.95689836,0.374015133 5.2470914,0.21775734 5.40302568,0.39666119 C5.49263936,0.440982759 5.53696093,0.307047508 5.53696093,0.39666119 C5.67154321,0.351692591 5.60425207,0.507950385 5.69354224,0.530596442 C5.73851084,0.507950385 5.76050986,0.641885636 5.78283241,0.798466944 C5.73851084,0.909756138 5.60425207,1.13330507 5.60425207,1.13330507 C5.55960699,1.15562761 5.5149619,1.2002727 5.47031682,1.26724032 C5.47031682,1.35653049 5.47031682,1.44582066 5.47031682,1.53511083 C5.35870411,1.55743337 5.31405903,1.64672354 5.22476886,1.71369116 C5.2021228,1.95956264 5.02386598,2.22743314 5.06818755,2.40601347 C5.02386598,2.47265758 4.9342523,2.47265758 4.91225327,2.53994873 C4.95689836,2.83014177 4.88993073,3.96891492 4.88993073,4.4826569 C4.88993073,4.52697847 4.73334942,4.88446265 4.7113504,4.90646168 L4.80031705,5.21930078 C4.80031705,5.24129981 4.80031705,5.24129981 4.80031705,5.26394586 C4.80031705,5.55413891 4.80031705,6.26846025 4.82263959,6.38039647 C4.82263959,6.4473641 4.88993073,6.53633075 4.88993073,6.62594443 C4.88993073,6.73755714 4.82263959,6.93846002 4.88993073,7.07239527 C4.91225327,7.20633052 4.75599548,7.1393629 4.77831802,7.25097561 C4.77831802,7.34026577 4.84528565,7.36258832 4.82263959,7.45187848 C4.91225327,7.58581373 5.2021228,7.49652357 5.33605805,7.56349119 C5.44799428,7.63045882 5.44799428,7.49652357 5.5149619,7.45187848 C5.67154321,7.38491086 5.62657461,7.42955594 5.73851084,7.29562069 C5.76050986,7.27329815 5.73851084,7.22865306 5.76050986,7.20633052 C5.80547846,7.1393629 5.82747749,7.1393629 5.87244609,7.02775019 C5.93941371,6.84916985 6.07334897,6.49168567 6.20728422,6.31342885 C6.20728422,6.31342885 6.27425184,6.15684754 6.31889693,6.08987991 C6.38586455,6.02291229 6.45283218,5.86665449 6.47515472,5.82200941 C6.49715375,5.77736433 6.58676743,5.57646145 6.58676743,5.57646145 C6.58676743,5.57646145 6.60908997,5.50949382 6.631089,5.46484874 C6.631089,5.48717128 6.631089,5.46484874 6.65373505,5.4425262 C6.65373505,5.42020366 6.65373505,5.42020366 6.65373505,5.42020366 C6.69805662,5.35323603 7.01089572,4.4376883 7.05554081,4.41536576 C7.05554081,4.39304322 7.10018589,4.39304322 7.12250843,4.37072067 C7.23444466,4.19214034 7.39037894,3.72336696 7.50231516,3.49981803 C7.52431419,3.47749548 7.56928279,3.45549646 7.59128181,3.4328504 C7.59128181,3.36588277 7.99308757,2.65156143 8.01573362,2.60691635 C8.10502379,2.47265758 8.14966887,2.22743314 8.2166365,2.13781946 C8.2166365,1.84762641 8.35057175,1.66904608 8.46218446,1.49046574 C8.41753938,1.26724032 8.2166365,1.15562761 8.12702282,0.977047279 C8.19399044,0.753498345 8.08270125,0.753498345 8.08270125,0.530596442 C8.19399044,0.374015133 8.43986192,0.39666119 8.61844225,0.307047508 C8.93128136,0.418660217 9.55598901,0.351692591 10.0027634,0.374015133 C10.0254094,0.39666119 10.069731,0.351692591 10.1143761,0.351692591 C10.1366986,0.351692591 10.1366986,0.39666119 10.1813437,0.374015133 C10.2932799,0.374015133 10.3602476,0.307047508 10.4492142,0.307047508 C10.6281181,0.307047508 10.8066984,0.39666119 10.9849552,0.284724966 C11.3647619,0.39666119 11.9674706,0.262725939 12.45889,0.351692591 C12.5928253,0.329693565 12.5478567,0.507950385 12.6597929,0.530596442 C12.7937281,0.530596442 12.8160507,0.440982759 12.9053408,0.374015133 C12.994631,0.374015133 12.9723085,0.485627843 13.0842447,0.485627843 C13.1732113,0.485627843 13.1955339,0.552595468 13.2181799,0.597564067 C13.2625015,0.798466944 13.0842447,0.887433596 13.0172771,1.04369139 C12.994631,1.08865999 12.994631,1.17795016 12.9723085,1.22259524 C12.9276634,1.31188541 12.8833418,1.37885303 12.8383732,1.49046574 C12.8160507,1.51278828 12.8160507,1.53511083 12.8160507,1.55743337 C12.6821154,1.60207845 12.5258576,1.66904608 12.45889,1.75833624 C12.3026322,1.89259501 12.1910195,2.04852929 12.1460509,2.13781946 C12.0790833,2.22743314 12.0347617,2.33904585 11.9674706,2.53994873 C11.9005029,2.67388398 11.4317296,3.81265713 11.3197933,3.92426984 C11.2977943,3.92426984 11.2531492,3.94659238 11.2531492,3.99123746 C11.1638591,4.1698178 10.9179876,5.46484874 10.7397308,5.50949382 C10.605472,5.91129958 10.4492142,6.26846025 10.2036662,6.53633075 C10.1813437,6.78220223 10.0474084,7.00542765 9.93579574,7.22865306 C9.89082714,7.31794323 9.82418303,7.42955594 9.77953795,7.54149217 C9.71257032,7.63045882 9.62295664,7.69742644 9.62295664,7.80936267 C9.51166744,7.89832932 9.6456027,7.80936267 9.55598901,7.92065186 C9.53398999,7.96529695 9.55598901,8.03226457 9.53398999,8.07723317 C9.51166744,8.0992322 9.44469982,8.07723317 9.42205376,8.0992322 C9.37773219,8.1442008 9.31076457,8.21116842 9.31076457,8.27813605 C9.31076457,8.36742622 9.44469982,8.34510367 9.53398999,8.34510367 C9.57863507,8.38974876 9.62295664,8.34510367 9.71257032,8.34510367 C9.75689189,8.4120713 9.86882811,8.50136147 9.98044082,8.52368401 C10.092377,8.6799418 10.0254094,8.88084468 10.1366986,9.08174756 C10.1593447,9.12639264 10.2036662,9.19336026 10.2036662,9.21568281 C10.2483113,9.34961806 10.2706339,9.52852191 10.315279,9.66245716 C10.3376015,9.77406987 10.4272152,9.88568258 10.5161818,9.97497275 C10.5611504,10.3098109 10.8066984,10.7116166 10.9849552,10.9351656 C10.9849552,11.0691008 10.9849552,11.2030361 10.9849552,11.3592939 C11.0076013,11.4709066 11.1188905,11.5378742 11.1858581,11.6271644 C11.2754718,11.7387771 11.2754718,12.0292936 11.3424394,12.2075504 C11.3647619,12.2745181 11.3647619,12.2971641 11.3870845,12.3414857 C11.409407,12.4310994 11.6326324,13.2347109 11.6772775,13.3912922 C11.7222461,13.569549 11.6772775,13.5252274 11.6552785,13.7034843 C11.6552785,13.7481294 11.7442451,13.7261303 11.7892137,13.7261303 C11.7892137,13.793098 11.8112128,13.815097 11.8561814,13.8374195 C11.8781804,13.9493557 12.4992722,14.536158 12.5219182,14.6254482 C12.5439173,14.6700932 12.5888859,14.7370609 12.5888859,14.7593834 C12.603066,14.8025495 13.8251908,15.0099456 14.0109531,15.1854739 C14.1133817,15.2822595 14.41679,15.5822814 14.4405916,15.6140168 C14.4625906,15.6363394 14.6356423,15.6140168 14.6576413,15.6140168 C14.6576413,15.6363394 15.0697418,15.8310666 15.0917409,15.8310666 C15.1143869,15.8980342 15.6985686,15.786098 15.7428901,15.8310666 C15.8098577,15.8753882 16.088023,15.764099 16.1769896,15.8310666 C16.2439573,15.9876479 16.3490708,15.6301637 16.3940394,15.8310666 C16.5499737,15.8757117 17.5400801,15.5470492 17.6963379,15.6140168 C17.6963379,15.7256295 18.0634698,16.3929257 18.1304374,16.4822159 C18.2643727,16.6611197 17.2275645,16.4795122 17.3614998,16.6804151 C17.4284674,16.7473827 17.5400801,16.8143504 17.5400801,16.9262866 C17.6963379,16.9709317 17.6963379,17.149512 17.6963379,17.3504149 C17.6067242,17.39506 17.4284674,17.4620276 17.3388537,17.3727374 Z" id="Fill-67" fill="#FFFFFF"></path>
                    <path d="M43.2491371,16.3282757 C43.3830793,16.0827149 43.450374,15.7478592 43.60664,15.5246221 C43.561669,15.2344139 43.6956113,14.7429687 43.5396688,14.4750842 C43.6509639,14.5197316 43.60664,14.3634656 43.60664,14.3411419 C43.6509639,14.1179048 43.5396688,13.6487833 43.6509639,13.4032225 C43.6956113,13.2469565 43.6509639,12.8897771 43.6736111,12.6218926 C43.6956113,12.5102741 43.6956113,12.3986555 43.7182585,12.287037 C43.7405822,12.0188289 43.8075534,10.7460538 43.8075534,10.5228167 C43.8295535,10.4338454 43.7852297,10.4111982 43.7852297,10.344227 C43.7852297,10.232932 43.8522008,10.1433136 43.8522008,10.0540188 C43.8745245,9.92007653 43.8745245,9.71916313 43.8965247,9.56289716 C43.8965247,9.49592602 43.8522008,9.47360231 43.8522008,9.42895489 C43.8522008,9.3170128 43.8745245,9.04912827 43.8075534,8.84821487 C43.8075534,8.78124374 43.8075534,8.6919489 43.7182585,8.6919489 C43.7405822,8.64730148 43.7625824,8.60265405 43.7405822,8.51335921 C43.7625824,8.35709323 43.9414956,8.35709323 43.9634958,8.17850355 C43.9634958,8.11153241 43.9414956,8.08888517 43.9191719,7.99991386 C43.9414956,7.91061902 43.9191719,7.86564806 43.8075534,7.88797177 C43.8965247,7.82100064 43.9634958,7.59776353 43.9191719,7.37484995 C43.8965247,7.28523158 43.8745245,7.26290787 43.8522008,7.19593673 C44.0084668,6.95037591 43.8965247,5.38739262 43.8965247,5.03021324 C43.8965247,4.82897631 43.9414956,4.65071016 43.9191719,4.47179694 C43.8965247,4.36017838 43.8522008,4.27088354 43.8075534,4.20391241 C43.8522008,3.84673303 43.8745245,3.51155384 43.7405822,3.24366931 C43.8075534,3.08772686 43.9191719,2.86416622 43.8965247,2.6186054 C43.8745245,2.46233942 43.7852297,2.32839716 43.7182585,2.21645507 C43.7405822,1.92657036 43.6509639,1.65868583 43.5396688,1.47977261 C43.4726977,1.36815406 43.3607556,1.30118292 43.2937845,1.18956437 C43.2268133,1.10026953 43.1598422,0.966327261 43.1151948,0.876708885 C43.0482237,0.765413863 43.0035762,0.653471776 42.9366051,0.541853222 C42.8919577,0.430558199 42.7803391,0.340939823 42.8473103,0.206997558 C42.9812525,0.0957025354 43.2491371,0.0284078706 43.4946979,0.00608415967 C43.7852297,-0.0162395512 44.0974381,0.0284078706 44.4102936,0.0507315815 C44.5668831,0.0507315815 44.7008253,0.0284078706 44.8347676,0.0507315815 C44.99071,0.0507315815 45.1246523,0.140026425 45.2812418,0.140026425 C45.3925368,0.140026425 45.459508,0.117702714 45.5714501,0.117702714 C45.7943636,0.117702714 46.040248,0.140026425 46.2638086,0.140026425 C46.3754272,0.162673668 46.5090459,0.184673847 46.5986643,0.184673847 C46.7546067,0.162673668 46.9111962,0.0957025354 47.0674622,0.0730552924 C47.2234047,0.0507315815 47.4023179,0.0507315815 47.5809076,0.0507315815 C47.7598208,0.00608415967 47.7148498,0.184673847 47.8267919,0.184673847 C48.2732661,0.162673668 48.6304455,0.162673668 49.0769197,0.117702714 C49.4117754,0.519529511 49.1218907,0.69844273 48.8540062,1.10026953 C48.8313589,1.12259324 48.8313589,1.16724066 48.8090352,1.18956437 C48.7867115,1.21188808 48.7420641,1.21188808 48.7420641,1.23421179 C48.7197404,1.27885921 48.6974166,1.34583035 48.6750929,1.41280148 C48.6081218,1.47977261 48.4965032,1.56906746 48.4515323,1.65868583 C48.4072084,1.74765714 48.4295321,1.83695199 48.3845612,1.92657036 C48.2506189,2.17213118 48.1166766,2.21645507 48.0497055,2.52931056 C47.9607342,2.79719509 47.9827344,3.17669817 48.0053816,3.53387755 C48.0053816,3.62349592 47.9607342,3.69046706 47.9607342,3.7797619 C47.9827344,3.86905674 48.0277053,3.9806753 48.0497055,4.04764643 C48.0497055,4.22623612 48.0497055,4.40482581 48.0497055,4.58373903 C48.0277053,4.73968147 47.9607342,4.89594745 47.9384105,5.03021324 C47.9157632,5.20880293 47.9607342,5.40971633 47.9384105,5.56598231 C47.9157632,5.72224828 47.8267919,7.06199447 47.8044682,7.24090769 C47.7371735,7.75402951 47.9384105,8.26779839 47.9607342,8.80389099 C47.9827344,9.11609941 48.0053816,9.4512786 47.9607342,9.74148684 C47.9607342,9.83078169 47.9157632,9.92007653 47.8937631,9.98704766 C47.8937631,10.0763425 47.9157632,10.1879611 47.8937631,10.2772559 C47.8937631,10.4338454 47.8044682,10.5897879 47.8044682,10.7237301 C47.781821,11.0142619 47.8711158,12.3316844 47.8937631,12.6218926 C47.9384105,12.9344246 47.9607342,13.2249563 47.9607342,13.5371648 C48.1166766,13.559812 48.31759,13.6487833 48.4965032,13.6487833 C48.5854746,13.6267831 48.6750929,13.5818122 48.7643878,13.559812 C48.8540062,13.559812 48.9653012,13.6041359 49.0549196,13.6041359 C49.210862,13.6041359 49.4117754,13.5818122 49.5457177,13.559812 C49.635336,13.559812 49.7466311,13.5371648 49.8136022,13.4701936 C49.9255443,13.4701936 49.9701917,13.6487833 50.0594865,13.559812 C50.3050474,13.6041359 50.3500183,13.4701936 50.5952556,13.4928409 C50.6622267,13.4928409 50.639903,13.4258697 50.684874,13.4032225 C50.7291979,13.3808988 50.7964925,13.3808988 50.8408164,13.3588986 C51.0643771,13.1576617 51.1536719,12.7781586 51.5554987,12.7558349 C51.533175,12.66654 51.7340884,12.6888637 51.7340884,12.5549215 C51.7340884,12.4879504 51.689441,12.3986555 51.8010595,12.3093607 C51.9130016,12.3093607 52.0912678,12.1977421 52.113915,12.3540081 C52.22521,12.3316844 52.22521,12.2423895 52.3594758,12.287037 C52.426447,12.5325978 52.426447,12.979072 52.3368286,13.1799854 C52.2921812,13.3139277 52.4934181,13.2469565 52.4487707,13.4032225 C52.5157418,13.4478699 52.4037997,13.4478699 52.4037997,13.4701936 C52.3817995,13.6041359 52.537742,13.6267831 52.3594758,13.7380782 C52.426447,13.8053728 52.426447,13.8946677 52.4487707,13.9839625 C52.4707709,14.2071996 52.4934181,14.4304367 52.5157418,14.6090264 C52.5157418,14.6759976 52.4707709,14.6983213 52.4707709,14.7652924 C52.4707709,14.876911 52.537742,15.1227953 52.4037997,15.2790613 C52.4487707,15.5022984 52.426447,15.5469458 52.3368286,15.7255355 C52.3594758,15.9041252 52.4707709,16.0160673 52.4707709,16.1943334 C52.4707709,16.305952 52.426447,16.3729231 52.4037997,16.5068654 C52.3817995,16.6411312 52.4934181,16.7750734 52.4037997,16.886692 C52.4487707,17.0206343 52.537742,17.1322528 52.4707709,17.3108425 C52.2921812,17.4001373 52.2028863,17.2438714 51.9799727,17.1992239 C51.8680307,17.1769002 51.6001461,17.1545765 51.4662039,17.1545765 C51.2876142,17.1769002 51.108701,17.2661951 50.9304348,17.2661951 C50.8188162,17.2661951 50.684874,17.1769002 50.5952556,17.1545765 C50.5059608,17.1322528 50.4613133,17.2215477 50.3720185,17.2438714 C50.2160761,17.2438714 49.9925154,17.1099291 49.8136022,17.2438714 C49.7466311,17.1769002 49.635336,17.1545765 49.5683649,17.0876054 C49.4787465,17.1322528 49.3448043,17.1322528 49.3001568,17.2438714 C49.0769197,17.1769002 48.89833,17.1769002 48.6750929,17.1992239 C48.5411507,17.1992239 48.4072084,17.2661951 48.2955899,17.2661951 C48.1836478,17.2661951 48.0946765,17.2215477 48.0053816,17.1992239 C47.8937631,17.1769002 47.7598208,17.1992239 47.6258785,17.1992239 C47.4919363,17.1992239 47.3799942,17.1322528 47.2683756,17.1322528 C47.0894624,17.1322528 46.8442251,17.1545765 46.6433117,17.1992239 C46.5986643,17.1992239 46.5316932,17.2215477 46.464722,17.2438714 C46.4197511,17.2438714 46.3754272,17.2885188 46.3307798,17.3108425 C46.2188377,17.3108425 46.040248,17.2661951 45.8393346,17.2661951 C45.7500397,17.2661951 45.6604214,17.3108425 45.5714501,17.3108425 C45.4375078,17.3108425 45.3035655,17.2438714 45.1696233,17.2438714 C45.0800049,17.2215477 44.9687099,17.2661951 44.8567678,17.2661951 C44.5442358,17.2661951 44.2763513,17.1545765 44.0531142,17.3331662 C43.8522008,17.2885188 43.6736111,17.2438714 43.4946979,17.1545765 C43.3830793,17.1545765 43.2937845,17.2661951 43.1598422,17.2661951 C43.0035762,17.2661951 42.9142814,17.2215477 42.8023393,17.1545765 C42.7803391,17.0206343 42.8919577,16.8643683 42.9366051,16.9090157 C42.9812525,17.0206343 42.9812525,16.8643683 42.9366051,16.8420446 C43.0482237,16.7527497 42.9366051,16.462218 42.9812525,16.3952468 C43.0705474,16.3282757 43.1821659,16.4398942 43.2491371,16.3282757" id="Fill-68" fill="#FFFFFF"></path>
                    <path d="M34.6363227,14.7296136 C34.6363227,14.9531625 34.6140002,15.1317429 34.6589688,15.3103232 C34.7032903,15.4669045 34.8372256,15.6228388 34.9491618,15.7790966 C35.0607745,15.980323 35.1723872,16.1585798 35.2616774,16.4044513 C35.328645,16.6276767 35.5518704,16.9848374 35.4625803,17.3423216 C35.3732901,17.4762568 35.2393548,17.3646441 35.1050961,17.3646441 C35.0161294,17.3646441 34.6140002,17.4536107 34.4577424,17.4536107 C34.2568395,17.4316117 34.0559366,17.3196755 33.8327112,17.4536107 C33.6318083,17.3196755 33.475227,17.3866431 33.2073565,17.3646441 C33.0957438,17.3646441 33.0064536,17.3423216 32.9171635,17.3423216 C32.7162606,17.3646441 32.5600028,17.4316117 32.3144548,17.4762568 C32.158197,17.5205784 31.9792932,17.5432244 31.8010364,17.4536107 C31.2426493,17.565547 30.5949721,17.4762568 30.014586,17.4762568 C29.8806507,17.4762568 29.9252958,17.2976765 29.769038,17.2976765 C29.769038,17.1857402 29.5681351,17.2527079 29.5681351,17.1414187 C29.7020704,16.9178697 29.8360056,16.7392894 30.014586,16.5830316 C30.0369085,16.4937414 30.0815536,16.4490964 30.0592311,16.3374837 C30.3051025,16.1812259 30.3940692,15.8687103 30.6172946,15.6678074 C30.5949721,15.5781937 30.6622632,15.4219359 30.572973,15.3772908 C30.6172946,15.2880007 30.7292308,15.2656781 30.7292308,15.1317429 C30.7069083,14.93084 30.6622632,14.7522597 30.6399407,14.5513568 C30.6399407,14.3058088 30.6172946,13.5465189 30.6172946,13.3232935 C30.6172946,13.3006474 30.6399407,13.2336798 30.6399407,13.1893582 C30.6399407,13.0777455 30.6172946,12.9658093 30.6172946,12.8768426 C30.6172946,12.5420045 30.7512299,12.2068429 30.7512299,11.8943273 C30.7512299,11.6934244 30.7512299,11.4478764 30.7292308,11.202005 C30.7069083,11.1350373 30.6842622,11.0680697 30.6842622,11.0234246 C30.6842622,10.8671668 30.7961985,10.7105855 30.7961985,10.5546512 C30.7961985,10.3983935 30.7292308,10.2418121 30.6842622,10.0858779 C30.8181975,9.75103974 30.7738759,9.43820064 30.7512299,8.9917498 C30.7292308,8.34407257 30.7512299,5.95491356 30.7961985,5.1736246 C30.7961985,5.0173668 30.6399407,5.03968935 30.6399407,4.86110901 C30.6399407,4.59291499 30.6622632,4.30304546 30.6399407,4.03517496 C30.6399407,3.83394857 30.550327,3.70001332 30.572973,3.43214282 C30.5949721,3.25356248 30.6842622,3.14194977 30.7292308,2.98569198 C30.6842622,2.91872435 30.6842622,2.85175673 30.6399407,2.80711164 C30.6399407,2.78446559 30.5949721,2.78446559 30.572973,2.78446559 C30.550327,2.69517542 30.550327,2.60620877 30.5060054,2.53924114 C30.4390378,2.40498237 30.3494241,2.29336967 30.2601339,2.11478933 C30.2378114,2.07014425 30.2154889,2.02549916 30.1931663,1.98085408 C30.1708438,1.91388645 30.1708438,1.84691883 30.1708438,1.80195023 C30.0369085,1.48975816 29.8806507,1.1992416 29.7467155,0.886726012 C29.7243929,0.86440347 29.6797479,0.86440347 29.6797479,0.86440347 C29.6351028,0.775113303 29.6574253,0.685823135 29.6797479,0.61885551 C29.8136831,0.417952633 30.1931663,0.484920259 30.3720702,0.328662465 C30.5060054,0.395630091 30.7292308,0.372984034 30.7961985,0.26169484 C31.0863915,0.306016409 31.4212296,0.306016409 31.7337452,0.306016409 C31.868004,0.284017382 31.9792932,0.239048783 32.1132284,0.26169484 C32.2698097,0.284017382 32.3814225,0.395630091 32.5376802,0.440275175 C32.6046479,0.462597717 32.7162606,0.462597717 32.8055507,0.462597717 C32.8948409,0.484920259 32.9841311,0.5072428 33.0510987,0.5072428 C33.2743241,0.5072428 33.475227,0.417952633 33.6761299,0.395630091 C34.0112915,0.372984034 34.3684522,0.417952633 34.7032903,0.372984034 C34.8598716,0.350985007 35.0161294,0.284017382 35.1947098,0.26169484 C35.4849028,0.239048783 35.7750958,0.26169484 36.0652889,0.217049756 C36.0652889,0.26169484 36.109934,0.26169484 36.1322565,0.26169484 C36.2888378,0.194727214 36.1769016,0.395630091 36.3108369,0.372984034 C36.5567083,0.395630091 36.7352887,0.284017382 37.0254817,0.306016409 C37.159417,0.306016409 37.2263846,0.350985007 37.3603198,0.372984034 C37.8067707,0.417952633 38.2758676,0.417952633 38.7446409,0.372984034 C38.9901889,0.529565342 39.1910918,0.752790761 39.4146407,0.953693638 C39.3699956,1.08762889 39.4589623,1.08762889 39.4369633,1.1992416 C39.5932211,1.35582291 39.7718014,1.4671121 39.8610916,1.69066103 C40.0619944,1.7799512 40.1736071,1.936209 40.4191551,1.98085408 C40.5530904,2.15943441 40.7096717,2.33801475 40.8659295,2.49427254 C40.8659295,2.62820779 40.8879285,2.74014402 40.8659295,2.87407927 C40.8659295,3.03001355 40.7766393,3.09698117 40.7766393,3.23091642 C40.7766393,3.38749773 40.8659295,3.4767879 40.9105745,3.61072315 C40.9328971,3.67769078 40.9328971,3.76698094 40.9552196,3.81162603 C40.9775422,3.90123971 40.9998647,3.94556128 41.0221872,3.99020636 C41.0221872,4.23607784 40.9105745,4.50394834 40.9552196,4.83878647 C40.9552196,4.99504426 41.0445098,5.12897951 41.0891549,5.28523731 C41.0221872,5.50878624 40.9328971,6.93775244 40.9775422,7.29491311 C40.9998647,7.38387976 41.0445098,7.49581598 41.0445098,7.60742869 C41.0445098,7.76368649 40.9998647,8.38904117 40.9775422,8.56729799 C40.9552196,9.03639489 40.9328971,9.63910352 40.9105745,10.1078769 C40.8879285,10.3537484 40.9105745,10.5769738 40.9105745,10.8001992 C40.9105745,10.9787795 40.7096717,10.9341345 40.7316707,11.1130383 C40.3968326,11.1800059 40.3521875,11.5368431 39.9950268,11.5818117 C39.9057366,11.6707783 39.9057366,11.8273597 39.7941239,11.8943273 C39.4146407,11.9386488 39.1910918,12.1175527 38.9455438,12.3184556 C38.8562537,12.3631007 38.7446409,12.2514879 38.6330282,12.3407781 C38.5214155,12.3854232 38.5214155,12.5420045 38.4767704,12.6532937 C38.3205126,12.6759398 38.2758676,12.7649064 38.1196098,12.7649064 C38.0079971,12.787229 38.0079971,12.8988417 37.9187069,12.9438103 C37.7401266,12.8768426 37.5612227,12.9438103 37.3826424,12.9438103 C37.2710297,12.9214877 37.1817395,12.8768426 37.0701268,12.8768426 C36.8915465,12.8545201 36.668321,12.8988417 36.4670946,12.8988417 C36.2661918,12.8988417 36.0652889,12.8545201 35.8867086,12.8768426 C35.7304508,12.8768426 35.6411606,12.9214877 35.4402577,12.9438103 C35.3956126,12.9438103 35.3956126,12.9884553 35.3509675,12.9658093 C35.3509675,12.9658093 35.3509675,12.9438103 35.328645,12.9438103 C35.1050961,12.9658093 34.9041932,13.0777455 34.6363227,12.9658093 C34.4577424,13.3902611 34.6140002,14.3058088 34.6363227,14.7296136 Z M35.7081282,3.90123971 C35.6188381,3.94556128 35.5295479,3.92323874 35.4625803,3.92323874 C35.328645,3.94556128 35.1723872,3.96820734 35.0161294,3.99020636 C34.9041932,4.01252891 34.792904,4.05717399 34.6589688,4.03517496 C34.6363227,4.19110924 34.792904,4.34769055 34.792904,4.52594737 C34.814903,4.65988262 34.7032903,4.83878647 34.7032903,5.0173668 C34.6809678,5.1736246 34.7259364,5.35220493 34.7259364,5.50878624 C34.7259364,5.68704306 34.7479354,7.07168769 34.7259364,7.22794548 C34.7032903,7.38387976 34.6140002,7.51781501 34.5916776,7.67439632 C34.5916776,7.85297665 34.6589688,8.43336274 34.6589688,8.61194308 C34.6809678,8.96942726 34.6140002,9.23729776 34.5916776,9.48284572 C35.1723872,9.63910352 35.8197409,9.4158781 36.4670946,9.4158781 C36.7352887,9.21497522 36.913869,8.9467812 37.1370944,8.7238793 C37.0924493,8.05387953 37.2487071,5.97755962 37.204062,5.32988239 C36.9808366,4.97272172 36.7576112,4.57091597 36.623676,4.14678767 C36.400127,4.10214259 36.1992241,4.03517496 35.9090311,4.05717399 C35.864386,4.01252891 35.864386,3.85627111 35.7081282,3.90123971 L35.7081282,3.90123971 Z" id="Fill-72" fill="#FFFFFF"></path>
                    <path d="M76.1371869,0.217049756 C76.2934447,0.217049756 76.3380898,0.284017382 76.4497025,0.32833895 C76.9854435,0.284017382 77.3875728,0.373307549 77.8563462,0.417952633 C77.9902814,0.61885551 78.0572491,0.797435845 78.2135069,1.02066126 C78.3031205,1.17691906 78.4370558,1.28853177 78.548345,1.46743562 C78.5933136,1.53440324 78.6379587,1.55640227 78.6602812,1.60137087 C78.7049263,1.7799512 78.6379587,1.98085408 78.7049263,2.15943441 C78.7942165,2.51659508 79.1960222,2.69549893 79.3969251,2.9410469 C79.3969251,3.11930371 79.4415702,3.2089174 79.4862153,3.36517519 C79.5311839,3.45446536 79.620474,3.52143298 79.6651191,3.58840061 C79.7320867,3.67769078 79.7990544,3.76698094 79.8213769,3.83394857 C79.8213769,3.94556128 79.7764083,4.07949653 79.7764083,4.19143276 C79.7764083,4.28039941 79.8213769,4.39233563 79.8213769,4.50394834 C79.7990544,4.68252868 79.7544093,4.79414139 79.8213769,4.99504426 C79.8213769,5.06201189 79.866022,5.10665697 79.8883445,5.1736246 C79.9103436,5.46414116 79.9103436,7.00439655 79.8883445,7.27226705 C79.866022,7.33923467 79.8213769,7.38420327 79.8213769,7.4511709 C79.7990544,7.49581598 79.7764083,7.74104043 79.8213769,7.78600903 C79.8213769,7.80833157 79.866022,7.78600903 79.8883445,7.83065411 C79.8883445,7.87529919 79.9103436,7.96458936 79.9103436,8.00923445 C79.9103436,8.09852461 79.866022,8.1431697 79.8433759,8.25478241 C79.8213769,8.32207355 79.8433759,8.43336274 79.8213769,8.50033037 C79.7988926,8.52281467 79.7598282,8.5283953 79.7151831,8.52835486 L79.5755054,8.52265291 C79.3746025,8.76820087 79.2853124,9.12568505 79.0397644,9.30426539 C79.0174419,9.37123302 79.0174419,9.48284572 78.9727968,9.54981335 C78.7942165,9.77336228 78.548345,9.90729754 78.4817009,10.2421357 C78.3700882,10.2867807 78.2135069,10.2867807 78.0572491,10.2867807 C78.012604,10.3537484 78.0795716,10.3980699 78.1022177,10.4653611 C78.1242167,10.5323287 78.1022177,10.5992963 78.1465392,10.6659404 C78.1465392,10.6885865 78.1915078,10.710909 78.2135069,10.7332316 C78.2135069,10.7555541 78.1915078,10.8001992 78.2135069,10.8448443 C78.2135069,10.8671668 78.2804745,10.8894894 78.2804745,10.9118119 C78.2804745,10.9341345 78.2584755,10.9787795 78.2804745,11.0234246 C78.3700882,11.2023285 78.9824445,11.3805853 78.9158004,11.7380695 C78.9824445,11.8940038 79.3334295,12.0282625 79.4230432,12.2068429 C79.4453657,12.2738105 79.4900108,12.3631007 79.5123334,12.4523908 C79.5569784,12.5193584 79.6239461,12.5863261 79.6685911,12.6532937 C79.6909137,12.7202613 80.5367902,13.2116808 80.5591127,13.2786484 C80.6037578,13.3902611 80.6707254,13.4572287 80.737693,13.5241963 C80.7823381,13.6134865 80.8716283,13.7027767 80.9162734,13.7697443 C80.983241,13.9483246 81.6343903,14.5510333 81.7016814,14.7076146 C81.768649,14.8415498 81.8579392,14.9531625 81.9469059,15.0647753 C82.0138735,15.176388 82.1034872,15.2883242 82.1927773,15.3772908 C82.2150999,15.3996134 82.281744,15.4222594 82.30439,15.4442585 C82.3267126,15.4892271 82.30439,15.5112261 82.3267126,15.5561947 C82.3490351,15.5781937 82.3713577,15.5781937 82.3936802,15.6231623 C82.4606478,15.7344515 82.8556566,15.7330195 82.9672693,15.8446322 C82.9895918,15.9115998 83.8968816,16.0249681 83.8522365,16.0469671 C83.8968816,16.1365808 84.0308169,16.1139347 84.120107,16.1809023 C84.2093972,16.3148376 84.5157371,16.4714189 84.6273498,16.6053542 C84.7169635,16.7169669 85.1122701,16.784258 85.1572387,16.9851609 C85.2018838,16.9625148 85.291174,17.0521285 85.2242063,17.0521285 C85.2462054,17.2080628 85.0899476,17.1637412 85.1122701,17.2976765 C84.8220771,17.2750304 84.1870747,17.319999 84.0084943,17.4089657 C83.9192042,17.4089657 83.8522365,17.341998 83.7406238,17.319999 C83.5173984,17.2976765 81.9695519,17.3646441 81.768649,17.4089657 C81.5451001,17.2750304 80.6707254,17.2307088 80.2912422,17.2976765 C80.157307,17.319999 79.5892722,17.4089657 79.4553369,17.4089657 C79.3214017,17.4089657 79.231788,17.319999 79.0755302,17.319999 C78.941595,17.319999 78.8969499,17.4089657 78.8076597,17.4316117 C78.6290794,17.4089657 78.4281765,17.4759333 78.2715952,17.4316117 C78.1376599,17.4089657 78.1376599,17.341998 78.0037247,17.2976765 C77.7358542,17.3646441 77.4679837,17.4089657 77.2001132,17.4316117 C77.0885005,17.4089657 77.0438554,17.3646441 77.0215329,17.2530314 C76.9992103,17.1860638 76.82063,17.2530314 76.82063,17.1637412 C76.7536623,16.784258 76.7756614,16.3598062 76.6643722,16.0026455 C76.6417261,15.8687103 76.5304369,15.7570976 76.5304369,15.6231623 C76.5527595,15.5335486 76.4185007,15.5112261 76.3965017,15.4442585 L76.3965017,15.3772908 C76.3515331,15.3103232 76.306888,15.221033 76.2622429,15.176388 C76.2845655,14.7519362 76.2175978,14.0602609 75.9720499,13.9263256 C75.9720499,13.6134865 75.771147,13.3902611 75.6595343,13.1447131 C75.5925667,12.9881318 74.9190948,12.3631007 74.7628371,12.2738105 C74.7628371,12.1845203 74.7628371,12.0949066 74.7405145,12.0505851 C74.6388672,11.8642317 74.2743333,11.677692 74.0556948,11.4814911 L74.0815174,11.4712653 C74.0982825,11.4648126 75.5097769,10.7677844 76.6441821,9.50780932 C77.3124305,8.7656124 77.7559237,7.97589129 77.9623699,7.16059697 C78.2208136,6.14000445 78.1062884,5.07804352 77.6220206,4.00426586 L77.6220206,4.00426586 L77.4412862,3.7214959 L76.5805262,3.7214959 L76.2885522,4.39283209 L76.2757062,4.42244316 L76.2943319,4.44872893 C76.2993793,4.45587439 76.7988089,5.17544734 76.7512649,6.30514163 C76.724349,6.94417247 76.5141214,7.798378 75.8297861,8.7742137 L75.043159,8.33290073 L75.0038418,8.63904976 L75.0145316,8.33290073 L74.9778418,8.40504976 L75.0431669,5.24204851 L73.9120475,4.32588651 L73.9118418,10.7290498 L73.8791685,10.7555719 C73.8656161,10.7640073 73.7956037,10.8071847 73.6835606,10.8701526 L73.6829476,2.71425014 L72.1079787,3.98067794 L72.1098418,6.37804976 L72.1079886,6.37702569 L70.8193525,7.12171659 L70.8126793,11.5157018 C70.6323244,11.4373676 70.4852164,11.3170981 70.3727101,11.1554204 C70.1287354,10.8048181 70.0398824,10.253767 70.1086054,9.51695392 C70.188393,8.66161735 70.4825047,7.54358142 70.982825,6.19404071 L70.982825,6.19404071 L70.8776621,6.14885214 C70.8730898,6.15823426 70.4151672,7.09953401 70.0812508,8.21731262 C69.8846618,8.87532778 69.7686718,9.46497619 69.7364678,9.97066056 C69.6957922,10.609575 69.7895936,11.1160313 70.0152593,11.4776586 C70.2962478,11.9279409 70.781248,12.1547943 71.4567804,12.1547943 L71.4567804,12.1547943 C71.7788492,12.1547943 72.1473174,12.1029573 72.5600514,11.9996354 C72.5487608,12.0903613 72.5043435,12.1693729 72.4086754,12.2291654 C72.4086754,12.296133 72.4533205,12.296133 72.475643,12.3407781 C72.4976421,12.3631007 72.5872558,12.6312947 72.5872558,12.6982623 C72.5872558,12.787229 72.4976421,13.3009709 72.475643,13.4349062 C72.4533205,13.5241963 72.4533205,13.7027767 72.4533205,13.8143894 C72.4533205,14.0152923 72.5426107,14.5960019 72.5426107,14.8192273 C72.5646097,14.9978076 72.4976421,15.176388 72.475643,15.3326458 C72.4533205,15.5335486 72.4086754,15.7570976 72.4533205,15.8910328 C72.475643,16.0469671 72.6988685,16.1365808 72.7881586,16.3148376 C72.9444164,16.5830316 73.5285981,16.9181933 73.8411137,17.0071599 C73.8411137,17.1410952 73.774146,17.1860638 73.7964686,17.319999 C73.6178882,17.341998 72.8774488,17.2530314 72.7658361,17.1860638 C72.6315773,17.1860638 72.5646097,17.341998 72.475643,17.2530314 C72.3926383,17.2784504 72.2969043,17.2929888 72.1972842,17.3039129 L71.8956097,17.3331084 C71.7477869,17.3495511 71.6111183,17.3742109 71.5154502,17.4316117 C71.2475797,17.2976765 70.6445476,17.2750304 70.3989996,17.4316117 C70.0641615,17.4089657 69.6397097,17.2750304 69.3048716,17.4316117 C69.0593236,17.5429009 68.5905502,17.4089657 68.2557121,17.4759333 C68.1664219,17.4759333 68.1437759,17.4316117 68.1437759,17.319999 C67.9875181,17.4985793 67.6750025,17.3869666 67.4517771,17.319999 C67.4964222,16.8732247 67.8759054,16.7392894 67.942873,16.3148376 C68.1217768,16.2258709 68.1664219,16.0919357 68.2557121,15.8910328 C68.3226797,15.8017427 68.3673248,15.6678074 68.3896473,15.4442585 C68.456615,15.0647753 68.3673248,14.3281314 68.4342924,13.8367119 C68.456615,13.7474218 68.50126,13.6358091 68.50126,13.5241963 C68.5235826,13.3009709 68.456615,12.6532937 68.4342924,12.4077457 C68.4116464,12.1398752 68.4789375,11.8270361 68.4789375,11.5371666 C68.456615,11.4032314 68.4116464,11.2469736 68.3896473,11.1127148 C68.3896473,10.9787795 68.4116464,10.8225218 68.3896473,10.6885865 C68.3896473,10.4653611 68.4789375,10.2421357 68.50126,10.0412328 C68.50126,9.90729754 68.5459051,9.77336228 68.5682277,9.66142606 C68.5682277,9.52749081 68.3896473,9.37123302 68.3896473,9.23729776 C68.4116464,9.05871743 68.5235826,8.8351685 68.5459051,8.65691168 C68.5905502,8.32207355 68.5235826,7.91994428 68.5459051,7.58510615 C68.5548342,7.42438385 68.5601916,7.0385468 68.5619774,6.60195153 L68.5619774,5.93078451 C68.5601916,5.48702014 68.5548342,5.07967581 68.5459051,4.88310804 C68.5235826,4.72717376 68.456615,4.54826991 68.4789375,4.39233563 C68.4789375,4.19143276 68.5905502,4.0574975 68.5682277,3.81162603 C68.5682277,3.81162603 68.5235826,3.81162603 68.5459051,3.76698094 C68.5459051,3.70001332 68.5235826,3.38749773 68.3896473,3.27588502 C68.4342924,3.14194977 68.4789375,2.98536846 68.50126,2.82943419 C68.5459051,2.69549893 68.3896473,2.76246656 68.4342924,2.62853131 C68.3896473,2.47195 68.4342924,2.38265983 68.4789375,2.22640204 C68.4342924,2.13711187 68.3226797,2.07014425 68.2557121,2.00317662 C68.2107435,1.95820802 68.2107435,1.89156391 68.1437759,1.84691883 C68.1217768,1.82459629 68.0544857,1.82459629 68.0098406,1.7799512 C67.9875181,1.66833849 67.942873,1.57904833 67.9205504,1.46743562 C67.8089377,1.40046799 67.7419701,1.31117782 67.6750025,1.22156414 C67.5857123,1.13259749 67.5410672,1.02066126 67.4294545,0.97601618 C67.3848094,0.752790761 67.3401644,0.551887884 67.3178418,0.32833895 C67.6080349,0.261371325 67.8982279,0.373307549 68.2557121,0.350985007 C68.2557121,0.350985007 68.2557121,0.306339924 68.3003572,0.32833895 C68.4342924,0.350985007 68.7691306,0.395630091 68.9253883,0.284017382 C69.0370011,0.284017382 69.0593236,0.395630091 69.1709363,0.395630091 C69.2379039,0.350985007 69.3271941,0.395630091 69.4164843,0.395630091 C69.5284205,0.373307549 69.6397097,0.32833895 69.796291,0.32833895 L69.9302262,0.32833895 C70.1088066,0.284017382 70.2204193,0.32833895 70.4213222,0.350985007 C70.6891927,0.373307549 71.0243543,0.373307549 71.2922248,0.350985007 C71.671708,0.32833895 72.0511912,0.239372298 72.4086754,0.239372298 C72.5202881,0.261371325 72.6095783,0.306339924 72.721191,0.32833895 C72.8324802,0.32833895 72.9444164,0.306339924 73.0783517,0.32833895 C73.2792546,0.32833895 73.50248,0.395630091 73.6587378,0.395630091 C73.792673,0.373307549 73.8822867,0.306339924 73.9935759,0.284017382 C74.0605435,0.261371325 74.1275111,0.306339924 74.1948023,0.284017382 C74.2394474,0.261371325 74.2840925,0.217049756 74.3733826,0.217049756 C74.5296404,0.217049756 74.6858982,0.32833895 74.8868011,0.350985007 C75.3332519,0.417952633 75.7577037,0.350985007 76.1371869,0.217049756 Z M76.6538571,1.30229854 L75.9981182,2.61102505 L74.5347055,2.57569365 L75.8302099,3.27412714 L75.7946014,4.74905969 L76.4984188,3.44357931 L77.9814864,3.43494934 L76.6624277,2.77404433 L76.6538571,1.30229854 Z" id="形状结合" fill="#FFFFFF"></path>
                    <g id="编组-2" transform="translate(50.991754, 0.217050)">
                        <g id="Fill-127" transform="translate(4.085378, 0.000000)">
                            <mask id="mask-2" fill="white">
                                <use xlink:href="#path-1"></use>
                            </mask>
                            <use id="蒙版" fill="#FFFFFF" xlink:href="#path-1"></use>
                        </g>
                        <path d="M7.25288303,11.0699433 C7.11344754,11.1207323 6.97613561,11.1347395 6.84759658,11.1103001 C6.73815996,11.1336107 6.63142,11.1388784 6.52625976,11.1180054 L6.49103059,11.1295393 C6.31882421,11.18426 6.14776676,11.2153978 5.9798253,11.1867561 C5.92027192,11.1766361 5.86411266,11.2119022 5.80841688,11.2277188 C5.70620523,11.256745 5.60369798,11.2839241 5.50163413,11.2979574 L5.54185447,11.2897117 C5.47471258,11.3183025 5.41533796,11.3295549 5.35462295,11.332459 L5.32057979,11.3309394 L5.30708772,11.3381359 C5.2866276,11.346223 5.26677254,11.3526291 5.24776056,11.3579511 L5.1934919,11.371262 L5.16747875,11.3742741 L5.11848258,11.4019816 C5.05862402,11.4281575 4.99737702,11.4418384 4.93371556,11.4469004 L4.92037349,11.4467243 L4.80044489,11.484912 L4.63498091,11.5236607 C4.5542475,11.5757052 4.47142101,11.6085646 4.39625247,11.6217237 L4.43967275,11.6100713 L4.4036667,11.6249866 L4.35897054,11.7049212 C4.30095468,11.7900541 4.19804962,11.8759061 4.05530189,11.9327132 L3.94084943,11.9694075 C3.88950227,12.0125759 3.83725117,12.0425535 3.78380515,12.0676087 C3.78118495,12.071309 3.77855415,12.0750182 3.77590906,12.0787198 C3.69961255,12.1854912 3.61618778,12.2860024 3.53909744,12.347885 C3.52030743,12.3629028 3.50767119,12.3895163 3.4907809,12.4113536 C3.44375965,12.472147 3.39578075,12.5317489 3.34757035,12.5806561 C3.2998036,12.6292619 3.26298592,12.7034774 3.22088531,12.7812836 C3.09123233,13.0209158 1.72644589,13.8091578 1.64594864,14.1836422 C1.6293362,14.2606167 1.60812999,14.3289616 1.58513528,14.4001673 C1.57807176,14.4220403 1.57082401,14.4443489 1.56377718,14.4679471 L1.4746384,14.7664524 L0.589526226,14.9914793 L0.428944938,14.6054601 L0.397099504,14.568868 C0.316689967,14.4665622 0.239444074,14.3382113 0.170146299,14.1924726 L0.103675098,14.0412587 C-0.0956721587,13.8560191 1.08281939,12.9510258 1.0801717,12.6939203 L1.07901377,12.6762123 C1.07234946,12.6218546 1.06407595,12.5789873 1.0786769,12.4206269 C1.08359267,12.3673499 1.13062809,12.2145991 1.25164045,12.0587923 C1.24861253,12.0425397 1.24550239,12.0263869 1.2428355,12.0103646 C1.21950978,11.8702273 1.21904208,11.6728078 1.2414324,11.4181063 C1.3388919,11.2200088 1.43603802,11.0840736 1.53287076,11.0103006 L1.53955054,10.9861397 C1.58803187,10.8109548 1.64617398,10.6350192 1.70866255,10.527991 C1.7281896,10.4945487 1.73369276,10.4702219 1.73931033,10.4505244 C1.779304,10.3102903 1.81628395,10.2046902 1.93138903,10.0847686 L1.94211113,10.0610601 C2.03152512,9.86940601 2.16460651,9.73026427 2.17081011,9.72559252 C2.23152198,9.67974766 2.30992787,9.64137248 2.39993191,9.61206587 C2.42854288,9.58390566 2.45727628,9.56153719 2.48631621,9.54285899 C2.56785241,9.43221011 2.66131791,9.37516235 2.76425356,9.33202366 C2.8650568,9.24671648 2.96612367,9.20385472 3.07167589,9.17020844 C3.13215138,9.12813205 3.19230942,9.09859024 3.25376696,9.07277782 C3.34225043,8.99814115 3.47547212,8.93013734 3.65343201,8.8687664 L3.74804102,8.84611572 L3.78886279,8.83753975 L3.80475505,8.82312937 L4.15823917,8.66904169 L4.41803393,8.65040892 L4.34285044,8.64451061 L4.38762337,8.62126835 L4.47261042,8.59189465 L4.72952729,8.56965233 L4.64920593,8.56663036 L4.69931085,8.54326941 L4.81714283,8.50457488 L4.93135949,8.48698295 L4.96650954,8.48636104 L5.00691004,8.4663762 L5.28434357,8.41913695 L5.36343351,8.43437445 L5.42092623,8.41835074 L5.60179984,8.37229074 L5.63757733,8.3641404 L5.92263385,8.30870703 L5.87227162,8.30900058 L5.90920924,8.30178475 L5.98900154,8.29687637 L6.07031212,8.30179799 L6.11295203,8.30919542 L6.23568509,8.27869528 L6.28287983,8.26822613 L6.25889142,8.28114196 L6.43077554,8.22733305 L6.45217105,8.22524662 L6.47070356,8.22143285 L6.69935668,8.22247503 L6.70933116,8.2251538 L6.79823881,8.20347291 L6.8938247,8.19063576 C6.99768601,8.18414217 7.10874521,8.20712929 7.21567434,8.25429588 L7.22174768,8.25699057 L7.23439461,8.26268056 L7.34397923,8.25583729 L7.12243152,8.18916087 C7.24032048,8.17177539 7.35819191,8.15325073 7.47604686,8.13406745 L7.82956324,8.07502229 C7.96997647,8.02384538 8.10772727,8.01229529 8.23916501,8.04584892 C8.29415213,8.06003074 8.34557388,8.01591656 8.39483483,8.00120196 C8.49727949,7.97060101 8.6000952,7.94190442 8.70126221,7.9268408 L8.75474653,7.92239837 L8.79650318,7.90536753 C8.86749812,7.88076695 8.93793413,7.87025761 9.00643837,7.87165966 L9.10757429,7.88242381 C9.11056756,7.88300088 9.11355904,7.88359964 9.11662391,7.88420415 C9.52249018,7.78213082 9.92834505,7.67887026 10.334083,7.57253771 L10.2060048,7.6421028 L10.2602476,7.70570938 C10.4107883,7.51195172 10.507621,7.44222948 10.6436498,7.37472882 L10.7307138,7.33352051 C10.7882731,7.30715345 10.8455014,7.29136037 10.9044762,7.2805194 L10.6393295,7.47188978 L10.7984087,7.3932833 L10.8540645,7.32988446 C10.9241688,7.2622012 11.0031554,7.22101663 11.0853073,7.19624297 L11.1683025,7.17656598 C11.2014105,7.1706457 11.2362207,7.16794015 11.2716982,7.1679998 C11.355059,7.11581495 11.4402238,7.08241772 11.5200053,7.06970728 C11.5303651,7.06806171 11.5407584,7.0666091 11.5512082,7.06527756 C11.690878,6.95952118 11.8310291,6.88434587 11.9739277,6.8166883 C12.0084211,6.80026905 12.0399209,6.76988539 12.0738584,6.74370973 C12.1212849,6.70713004 12.1689878,6.67083564 12.2165989,6.63874674 C12.2506639,6.61577821 12.2849261,6.59685816 12.3196372,6.5799029 C12.34914,6.5488326 12.3788845,6.52135595 12.4092174,6.49445076 L12.6703485,6.28140837 C12.754035,6.17688944 12.5933177,6.32239432 12.6872769,6.27391131 L12.6616552,6.28705503 L12.6703485,6.28140837 C13.1496816,5.81638589 13.4050558,5.63714078 13.5135021,5.60247351 L13.5390551,5.59527244 C13.6911934,5.5580884 13.6448499,5.66495853 13.7594071,5.7129079 C13.8589488,5.75457233 14.1153757,5.74138052 14.2081662,5.84457295 C14.2122039,5.84906332 14.3149274,6.24769771 14.3183191,6.25264294 C14.373831,6.33358322 14.2865539,6.62143946 14.3279076,6.80196646 C14.3798521,7.02922866 14.4645376,6.71288004 14.466275,6.99920556 L14.4661188,7.04198038 L14.445575,7.02731425 C14.4741216,7.09344043 14.5045123,7.27725299 14.5021209,7.4110466 C14.5006329,7.49516636 14.5029139,7.58231986 14.5050635,7.6710834 C14.511237,7.92600276 14.513908,8.19096781 14.4683485,8.44563748 C14.4413343,8.59664152 14.3880389,8.74409331 14.3330433,8.88648934 C14.3058954,8.9567812 14.2750402,9.02398796 14.2643552,9.09069134 C14.2561481,9.14188542 14.2647897,9.18605498 14.2686961,9.22709293 C14.2764533,9.308585 14.2819161,9.38637064 14.27824,9.46380929 C14.2661806,9.7178486 14.185817,9.9523204 14.1017694,10.1219414 C14.0400138,10.2464343 13.9699977,10.3253732 13.8949238,10.400918 L13.8777026,10.4185204 C13.8105353,10.508292 13.7364129,10.5776568 13.6724889,10.6171847 C13.5891129,10.6689361 13.5060668,10.6955514 13.418671,10.7115024 L13.4082215,10.7136129 L13.2056934,10.7628164 C13.049866,10.7998962 12.8938221,10.8361842 12.7387932,10.8892412 C12.6328262,10.9255371 12.5281588,10.9342277 12.4231308,10.9235998 L12.3754037,10.9165669 L12.3293512,10.9352931 C12.2181623,10.9746293 12.1087313,10.9913225 12.0016729,10.9834299 L11.895428,10.9672702 C11.8915267,10.9683435 11.8876229,10.9694103 11.8837172,10.9704719 C11.8289773,10.9853506 11.7740368,10.9991601 11.7187225,11.0079682 C11.6648796,11.0165072 11.5885691,11.0154193 11.499725,10.9946236 L11.4368084,10.9758104 C11.3859813,10.9912971 11.332313,10.999295 11.2724276,10.9960441 L11.2469534,10.9912131 L11.1975873,11.0189393 C11.0958051,11.0621576 10.9939335,11.0713776 10.8970057,11.0566619 L10.8019123,11.0343402 C10.7774476,11.0265716 10.7528129,11.0170814 10.72836,11.0056326 L10.7173864,10.9993578 L10.6709852,10.9935897 C10.514017,11.0247108 10.3659398,11.0172098 10.2111814,10.9225924 L10.1174,10.85498 L10.1434371,11.0260765 C10.1201679,11.017392 10.097419,11.0078258 10.0751747,10.9979162 C10.0653815,10.999585 10.0555859,11.0013104 10.045782,11.0028721 C9.90779557,11.0248518 9.77063664,11.0377812 9.63470359,11.0201956 C9.52787952,11.03823 9.4236099,11.043972 9.32057241,11.0270726 C9.22282554,11.0390964 9.12859348,11.0376522 9.03603349,11.0157734 C8.98764532,11.0250713 8.93907196,11.0324603 8.8900638,11.0351999 C8.86046158,11.0368294 8.82973978,11.0360222 8.79828595,11.0325268 L8.72305437,11.0176842 L8.68158185,11.0256054 C8.65413278,11.0289326 8.62687447,11.0305914 8.60003522,11.0305143 L8.58148232,11.0289472 L8.52944027,11.035173 C8.49722786,11.0357192 8.46529603,11.033403 8.43371851,11.0285309 L8.37241337,11.0139139 L8.23894652,11.0290314 L8.05968965,11.044962 C7.99926941,11.0492909 7.93809806,11.0446273 7.87682411,11.0339627 C7.83284701,11.0453029 7.78922862,11.0541167 7.74781318,11.0582621 L7.78951122,11.051563 C7.66967956,11.0963517 7.55723478,11.1043883 7.45102304,11.0801981 L7.43162077,11.0731957 L7.36101447,11.079328 L7.25288303,11.0699433 Z" id="Fill-2189" fill="#FFFFFF" transform="translate(7.294714, 10.289522) rotate(1.000000) translate(-7.294714, -10.289522) "></path>
                    </g>
                </g>
                <g id="编组-5" fill="#FFFFFF">
                    <path d="M7.92004796,7.91215203 C3.5458783,7.91215203 0,11.5076619 0,15.94309 C0,20.3785182 3.5458783,23.974028 7.92004796,23.974028 C12.2942176,23.974028 15.8400959,20.3785182 15.8400959,15.94309 C15.8400959,11.5076619 12.2942176,7.91215203 7.92004796,7.91215203 M7.92004796,9.96110153 C11.1729961,9.96110153 13.8194329,12.6446753 13.8194329,15.94309 C13.8194329,19.2415048 11.1729961,21.9250785 7.92004796,21.9250785 C4.66709984,21.9250785 2.02066299,19.2415048 2.02066299,15.94309 C2.02066299,12.6446753 4.66709984,9.96110153 7.92004796,9.96110153" id="Fill-1"></path>
                    <path d="M28.3540979,7.95477268 C28.5633834,8.84362839 28.6749676,9.7706622 28.6749676,10.723553 C28.6749676,15.5088314 25.8787684,19.6436938 21.8565315,21.538369 C23.2956725,23.0399833 25.3074851,23.9741322 27.5355247,23.9741322 C31.9096943,23.9741322 35.4555726,20.3784488 35.4555726,15.9431942 C35.4555726,11.788028 32.3435364,8.37021988 28.3540979,7.95477268" id="Fill-3"></path>
                    <path d="M16.9599118,0 C12.4441361,0 8.58207366,2.88591769 7.06865885,6.93366454 C7.34892085,6.90676633 7.63282713,6.89166863 7.9200306,6.89166863 C8.00436951,6.89166863 8.08784073,6.89565998 8.17165903,6.89808949 C9.63821888,3.44713584 13.0249639,1.02456152 16.9599118,1.02456152 C22.2342171,1.02456152 26.525089,5.37547724 26.525089,10.7235356 C26.525089,16.0715941 22.2342171,20.4225098 16.9599118,20.4225098 C16.5406468,20.4225098 16.1283233,20.3921408 15.7231147,20.338865 C15.5433306,20.6665026 15.3439367,20.9814719 15.1266686,21.2825584 C15.7225941,21.3885894 16.334485,21.4470713 16.9599118,21.4470713 C22.7912703,21.4470713 27.5354205,16.63663 27.5354205,10.7235356 C27.5354205,4.81044128 22.7912703,0 16.9599118,0" id="Fill-5"></path>
                    <path d="M16.9599118,2.93771844 C13.9873992,2.93771844 11.4060387,4.66041868 10.1305429,7.17184386 C10.3806095,7.23639957 10.6258171,7.31344992 10.8668597,7.39883005 C12.0375393,5.2022007 14.3294403,3.70613958 16.9599118,3.70613958 C20.775987,3.70613958 23.8805611,6.8540979 23.8805611,10.7236224 C23.8805611,14.5929734 20.775987,17.7411053 16.9599118,17.7411053 C16.8630782,17.7411053 16.7671124,17.7376345 16.6711465,17.7336432 C16.6201267,17.9911718 16.5569593,18.244015 16.4849415,18.4930404 C16.6421658,18.502932 16.8002579,18.5095264 16.9599118,18.5095264 C21.1938637,18.5095264 24.6383965,15.0167504 24.6383965,10.7236224 C24.6383965,6.43049447 21.1938637,2.93771844 16.9599118,2.93771844" id="Fill-7"></path>
                    <path d="M16.9985064,5.98167613 C15.2346779,5.98167613 13.6997446,6.96910077 12.8973102,8.42750439 C15.1656103,9.97510595 16.6949905,12.5505662 16.836423,15.49566 C16.8905665,15.4975689 16.9438423,15.5039898 16.9985064,15.5039898 C19.5916674,15.5039898 21.6938927,13.3724367 21.6938927,10.7428329 C21.6938927,8.11340271 19.5916674,5.98167613 16.9985064,5.98167613" id="Fill-9"></path>
                </g>
            </g>
        </g>
    </g>
</svg>