<?xml version="1.0" encoding="UTF-8"?>
<svg width="20px" height="19px" viewBox="0 0 20 19" version="1.1" xmlns="http://www.w3.org/2000/svg" xmlns:xlink="http://www.w3.org/1999/xlink">
    <title>gouwudai</title>
    <g id="页面-1" stroke="none" stroke-width="1" fill="none" fill-rule="evenodd">
        <g id="kepler-icon-new" transform="translate(-21.000000, -120.000000)" fill="#FFFFFF">
            <path d="M30.6499817,120 C31.6133184,120 32.4647088,120.365971 33.0743337,120.975589 C33.6590532,121.560303 34.0196292,122.367427 34.0481221,123.282359 L34.0482644,123.513271 L40.3,123.744484 L40.3,138.050011 L21,138.050011 L21,123.749929 L27.265921,123.749929 C27.1661574,122.643665 27.543104,121.658147 28.2256592,120.975592 C28.8352792,120.365972 29.6866611,120 30.6499817,120 Z M27.2500526,125.550053 L22.7999771,125.550053 L22.7999771,136.250034 L38.5000229,136.250034 L38.5000229,125.550053 L34.0499474,125.550053 L34.0499474,126.800041 L32.2499702,126.800041 L32.2499702,125.550053 L29.0500298,125.550053 L29.0500298,126.800041 L27.2500526,126.800041 L27.2500526,125.550053 Z M30.6499817,121.799977 C30.17,121.799977 29.7747749,121.967764 29.4963002,122.246238 C29.1943798,122.548159 29.0170842,122.98621 29.0674528,123.758664 L29.0674528,123.758664 L32.2431026,123.570205 L32.2499395,123.388323 C32.2472903,122.91359 32.0799206,122.522456 31.8036884,122.246232 C31.5252108,121.967762 31.1299801,121.799977 30.6499817,121.799977 L30.6499817,121.799977 Z" id="gouwudai"></path>
        </g>
    </g>
</svg>