<?xml version="1.0" encoding="UTF-8"?>
<svg width="21px" height="12px" viewBox="0 0 21 12" version="1.1" xmlns="http://www.w3.org/2000/svg" xmlns:xlink="http://www.w3.org/1999/xlink">
    <title>medium</title>
    <g id="页面-1" stroke="none" stroke-width="1" fill="none" fill-rule="evenodd">
        <g id="kepler-icon-0408" transform="translate(-32.000000, -893.000000)" fill="#E07D26">
            <path d="M37.8154362,893 C34.6036673,893 32,895.686471 32,899.00001 C32,902.31355 34.6038284,905 37.8154362,905 C41.0269634,905 43.6308723,902.313777 43.6308723,899.00001 C43.6308723,895.686223 41.0272856,893 37.8154362,893 Z M47.1023615,893.351522 C45.4963965,893.351522 44.1948348,895.881029 44.1948348,899.000093 C44.1948348,902.119136 45.4966382,904.648891 47.1025226,904.648891 C48.7084876,904.648891 50.0102709,902.119363 50.0102709,899.000093 L50.0100293,899.000093 C50.0100293,895.880142 48.7084876,893.351522 47.1024421,893.351522 L47.1023615,893.351522 Z M51.5970458,893.939819 C51.0323585,893.939819 50.5745757,896.205541 50.5745757,899.000093 C50.5745757,901.794624 51.0320363,904.060346 51.5970458,904.060346 C52.1619748,904.060346 52.6197576,901.794067 52.6197576,899.00001 C52.6197576,896.205376 52.1618137,893.939819 51.5970458,893.939819 Z" id="medium"></path>
        </g>
    </g>
</svg>