<?xml version="1.0" encoding="UTF-8"?>
<svg width="13px" height="16px" viewBox="0 0 13 16" version="1.1" xmlns="http://www.w3.org/2000/svg" xmlns:xlink="http://www.w3.org/1999/xlink">
    <title>gerentouxiang (1)</title>
    <g id="页面-1" stroke="none" stroke-width="1" fill="none" fill-rule="evenodd">
        <g id="NFT资产" transform="translate(-319.000000, -583.000000)" fill="#E07D26">
            <path d="M329.999985,595.900031 L329.100005,595.000059 L321.900046,595.000059 L320.999985,595.900031 L320.999985,597.000044 L329.999985,597.000044 L329.999985,595.900031 Z M332.000051,595.000059 L332.000051,599 L319,599 L319,595.000059 L319.10002,595.000059 L321.100005,592.999985 L329.900075,592.999985 L332.000051,595.000059 Z M329.999985,587.50004 C329.999985,590 327.999985,592 325.500026,592 C323.000059,592 320.999985,590 320.999985,587.50004 C320.999985,584.999956 323.000059,583 325.500026,583 C327.999985,583 329.999985,584.999956 329.999985,587.50004 Z M327.999993,587.50004 C327.999993,586.099969 326.89998,584.999956 325.500026,584.999956 C324.099954,584.999956 323.000059,586.099969 323.000059,587.50004 C323.000059,588.899995 324.099954,590.000007 325.500026,590.000007 C326.89998,590.000007 327.999993,588.899995 327.999993,587.50004 Z" id="gerentouxiang-(1)"></path>
        </g>
    </g>
</svg>