<?xml version="1.0" encoding="UTF-8"?>
<svg width="29px" height="20px" viewBox="0 0 29 20" version="1.1" xmlns="http://www.w3.org/2000/svg" xmlns:xlink="http://www.w3.org/1999/xlink">
    <title>编组 20</title>
    <g id="页面-1" stroke="none" stroke-width="1" fill="none" fill-rule="evenodd">
        <g id="kepler-icon-0408" transform="translate(-173.000000, -889.000000)">
            <g id="编组-21" transform="translate(166.000000, 882.000000)">
                <g id="编组-20" transform="translate(7.000000, 7.000000)">
                    <polygon id="+" fill="#FFFFFF" fill-rule="nonzero" points="3.66976744 7 3.66976744 4.65581395 6.01395349 4.65581395 6.01395349 3.33023256 3.66976744 3.33023256 3.66976744 1 2.34418605 1 2.34418605 3.33023256 0 3.33023256 0 4.65581395 2.34418605 4.65581395 2.34418605 7"></polygon>
                    <g id="编组-10" transform="translate(7.000000, 0.000000)">
                        <polygon id="Fill-1" fill="#F6851B" points="12.5222352 6.01818639 9.36709935 6.0231475 8.13612374 3.04994076"></polygon>
                        <polygon id="Fill-2" fill="#F6851B" points="8.13612374 3.04994076 13.795674 3.03809284 12.5222352 6.01818639"></polygon>
                        <polygon id="Fill-3" fill="#E4761B" points="9.36709935 6.0231475 1.42615615 0.0504923576 8.13612374 3.04994076"></polygon>
                        <polygon id="Fill-4" fill="#E2761B" points="20.4748958 0 12.5221047 6.01818639 13.795674 3.03809284"></polygon>
                        <path d="M4.64748371,8.56630427 L1.04927493,7.62894808 L0.856117996,6.78976967 L4.64748371,8.56630427 Z M1.17232353,8.63706537 L1.04927493,7.62894808 L4.64748371,8.56630427 L1.17232353,8.63706537 Z M1.67568044,10.0930535 L4.64748371,8.56630427 L6.19270651,8.84066675 L1.67568044,10.0930535 Z" id="Fill-5" fill="#763D16"></path>
                        <path d="M1.17232353,8.63706537 L4.64748371,8.56630427 L1.67568044,10.0930535 L1.17232353,8.63706537 Z M17.2894384,8.55292232 L21.0857326,6.76160231 L20.890911,7.60446892 L17.2894384,8.55292232 Z M20.7660999,8.61653551 L17.2894384,8.55292232 L20.890911,7.60446892 L20.7660999,8.61653551 Z M20.2597076,10.0787903 L15.7237836,8.83123411 L17.2894384,8.55292232 L20.2597076,10.0787903 Z" id="Fill-6" fill="#763D16"></path>
                        <path d="M20.7660999,8.61653551 L20.2597076,10.0787903 L17.2894384,8.55292232 L20.7660999,8.61653551 Z M4.80072328,4.00286569 L4.64748371,8.56630427 L0.856117996,6.78976967 L4.80072328,4.00286569 Z M6.19283707,8.84066675 L4.64748371,8.56630427 L4.80072328,4.00286569 L6.19283707,8.84066675 Z" id="Fill-7" fill="#763D16"></path>
                        <polygon id="Fill-9" fill="#763D16" points="21.0857326 6.76160231 17.2894384 8.55292232 17.1057141 3.97939833"></polygon>
                        <polygon id="Fill-10" fill="#763D16" points="17.1057141 3.97939833 17.2894384 8.55292232 15.7236531 8.83123411"></polygon>
                        <polygon id="Fill-12" fill="#763D16" points="0.387456223 7.0932134 0.856248552 6.78976967 1.04927493 7.62894808"></polygon>
                        <path d="M4.80072328,4.00286569 L9.36709935,6.0231475 L6.19283707,8.84066675 L4.80072328,4.00286569 Z M1.17232353,8.63706537 L0.517489547,7.99740847 L1.04927493,7.62881753 L1.17232353,8.63706537 Z M15.7236531,8.83123411 L12.5222352,6.01818639 L17.1057141,3.97926778 L15.7236531,8.83123411 Z M21.5549166,7.06504604 L20.890911,7.60446892 L21.0857326,6.76173286 L21.5549166,7.06504604 Z M0.856117996,6.78976967 L0.27233887,3.28569144 L4.80072328,4.00286569 L0.856117996,6.78976967 Z M1.67568044,10.0930535 L0.737181893,8.91756396 L1.17232353,8.63706537 L1.67568044,10.0930535 Z" id="Fill-14" fill="#763D16"></path>
                        <path d="M20.7660999,8.61653551 L20.890911,7.60446892 L21.4230881,7.97319042 L20.7660999,8.61653551 Z M17.1057141,3.97939833 L21.657827,3.24208589 L21.0857326,6.76160231 L17.1057141,3.97939833 Z" id="Fill-15" fill="#763D16"></path>
                        <polygon id="Fill-16" fill="#F6851B" points="4.78094411 10.4164069 0 14.9307566 1.67568044 10.0930535"></polygon>
                        <polygon id="Fill-17" fill="#763D16" points="20.2597076 10.0787903 20.7660999 8.61653551 21.2015027 8.89716466"></polygon>
                        <polygon id="Fill-18" fill="#F6851B" points="4.02822611 14.3453129 0 14.9307566 4.78094411 10.4164069"></polygon>
                        <path d="M17.0937356,10.4075944 L20.2597076,10.0787903 L21.9616297,14.9336941 L17.0937356,10.4075944 Z M17.0937356,10.4075944 L21.9616297,14.9336941 L17.8471064,14.3456719 L17.0937356,10.4075944 Z" id="Fill-20" fill="#F6851B"></path>
                        <path d="M1.67568044,10.0930535 L6.19270651,8.84066675 L4.78094411,10.4164069 L1.67568044,10.0930535 Z M20.2597076,10.0787903 L17.0937356,10.4075944 L15.7236531,8.83123411 L20.2597076,10.0787903 Z" id="Fill-22" fill="#F6851B"></path>
                        <path d="M6.19283707,8.84066675 L9.36709935,6.0231475 L9.60578753,10.4413757 L6.19283707,8.84066675 Z M9.60578753,10.4413757 L4.78094411,10.4164069 L6.19283707,8.84066675 L9.60578753,10.4413757 Z M15.7236531,8.83123411 L17.0937356,10.4075944 L12.2369061,10.4394826 L15.7236531,8.83123411 Z M12.2369061,10.4394826 L12.5222352,6.01818639 L15.7236531,8.83123411 L12.2369061,10.4394826 Z" id="Fill-23" fill="#E4761B"></path>
                        <path d="M1.42615615,0.0504923576 L9.36709935,6.0231475 L4.80072328,4.00286569 L1.42615615,0.0504923576 Z M4.80072328,4.00286569 L0.272469426,3.28569144 L1.4260256,0.0504923576 L4.80072328,4.00286569 Z M20.4748958,0 L21.657827,3.24208589 L17.1057141,3.97939833 L20.4748958,0 Z M17.1057141,3.97939833 L12.5222352,6.01831694 L20.4748958,0 L17.1057141,3.97939833 Z" id="Fill-24" fill="#763D16"></path>
                        <polygon id="Fill-25" fill="#F6851B" points="9.36709935 6.0231475 12.5222352 6.01831694 12.2369061 10.4394826"></polygon>
                        <polygon id="Fill-26" fill="#F6851B" points="12.2369061 10.4394826 9.60578753 10.4413757 9.36709935 6.0231475"></polygon>
                        <path d="M6.28285512,18.1148432 L4.02822611,14.3453129 L6.7372537,14.2160303 L6.28285512,18.1148432 Z M15.6044559,18.1215994 L15.1098788,14.2160303 L17.8471064,14.3456719 L15.6044559,18.1215994 Z M6.69811967,12.2751589 L4.78094411,10.4162764 L9.60578753,10.4413757 L6.69811967,12.2751589 Z" id="Fill-27" fill="#CD6116"></path>
                        <polygon id="Fill-28" fill="#F6851B" points="4.78094411 10.4164069 6.7372537 14.2160303 4.02822611 14.3453129"></polygon>
                        <polygon id="Fill-29" fill="#E4751F" points="4.78094411 10.4164069 6.69811967 12.2751589 6.7372537 14.2160303"></polygon>
                        <polygon id="Fill-30" fill="#CD6116" points="12.2369061 10.4394826 17.0937356 10.4075944 15.1558017 12.2720908"></polygon>
                        <polygon id="Fill-31" fill="#F6851B" points="17.8471064 14.3456719 15.1098788 14.2160303 17.0938662 10.407725"></polygon>
                        <polygon id="Fill-32" fill="#E4751F" points="17.0937356 10.4075944 15.1098788 14.2160303 15.1558017 12.2720908"></polygon>
                        <polygon id="Fill-34" fill="#CD6116" points="9.60578753 10.4413757 8.43512858 11.4652902 6.69811967 12.2751589"></polygon>
                        <polygon id="Fill-36" fill="#CD6116" points="15.1558017 12.2720908 13.4122977 11.4627443 12.2369061 10.4394826"></polygon>
                        <polygon id="Fill-41" fill="#F6851B" points="6.73738425 14.2160303 6.69811967 12.2751589 9.1397695 12.8659554"></polygon>
                        <polygon id="Fill-42" fill="#233447" points="9.1397695 12.8659554 6.69811967 12.2751589 8.43512858 11.4652902"></polygon>
                        <polygon id="Fill-43" fill="#F6851B" points="15.1098788 14.2160303 12.6946012 12.8652047 15.1558017 12.2720908"></polygon>
                        <polygon id="Fill-44" fill="#233447" points="12.6946012 12.8650741 13.4122977 11.4627443 15.1558017 12.2720908"></polygon>
                        <path d="M8.43512858,11.4652902 L9.60578753,10.4413757 L9.1397695,12.8659554 L8.43512858,11.4652902 Z M13.4122977,11.4627443 L12.6946012,12.8650741 L12.2369061,10.4394826 L13.4122977,11.4627443 Z" id="Fill-45" fill="#CD6116"></path>
                        <polygon id="Fill-46" fill="#F6851B" points="9.70037502 11.8345339 9.60578753 10.4413757 12.2369061 10.4394826"></polygon>
                        <polygon id="Fill-47" fill="#E4751F" points="9.1397695 12.8659554 9.60578753 10.4413757 9.70037502 11.8345339"></polygon>
                        <polygon id="Fill-48" fill="#F6851B" points="12.2369061 10.4394826 12.1236818 11.8335221 9.70037502 11.8345339"></polygon>
                        <polygon id="Fill-49" fill="#E2761B" points="12.6946012 12.8650741 12.1236818 11.8335221 12.2369061 10.4394826"></polygon>
                        <path d="M9.22737228,15.2080566 L6.73738425,14.2160303 L9.1397695,12.8659554 L9.22737228,15.2080566 Z M12.6946012,12.8650741 L15.1098788,14.2160303 L12.5088533,15.2087094 L12.6946012,12.8650741 Z" id="Fill-51" fill="#F6851B"></path>
                        <polygon id="Fill-52" fill="#E4751F" points="9.70037502 11.8345339 9.65092711 14.9134254 9.1397695 12.8659554"></polygon>
                        <polygon id="Fill-53" fill="#F6851B" points="9.1397695 12.8659554 9.65092711 14.9134254 9.22724172 15.2080566"></polygon>
                        <polygon id="Fill-54" fill="#E4751F" points="12.1236818 11.8335221 12.6946012 12.8650741 12.0849394 14.9136865"></polygon>
                        <polygon id="Fill-55" fill="#F6851B" points="12.5088533 15.2087094 12.0849394 14.9136865 12.6946012 12.8650741"></polygon>
                        <path d="M9.70037502,11.8345339 L12.1236818,11.8335221 L12.0849394,14.9136865 L9.70037502,11.8345339 Z M12.0849394,14.9136865 L9.65092711,14.9134254 L9.70037502,11.8345339 L12.0849394,14.9136865 Z" id="Fill-56" fill="#F6851B"></path>
                        <polygon id="Fill-11" fill="#E4761B" points="6.28285512 18.1148432 1.23645894 19.9789479 0 14.9307566"></polygon>
                        <polygon id="Fill-13" fill="#E4761B" points="21.9616297 14.9336941 20.7237673 20 15.6044559 18.1215994"></polygon>
                        <polygon id="Fill-19" fill="#E4761B" points="0 14.9307566 4.02822611 14.3453129 6.28285512 18.1148432"></polygon>
                        <polygon id="Fill-21" fill="#E4761B" points="15.6044559 18.1215994 17.8471064 14.3456719 21.9616297 14.9336941"></polygon>
                        <polygon id="Fill-37" fill="#E4761B" points="9.22737228 15.2080566 6.28285512 18.1148432 6.73738425 14.2160303"></polygon>
                        <polygon id="路径" fill="#D7C1B3" points="6.28285512 18.1148432 9.22737228 15.2080566 8.98333132 17.230003"></polygon>
                        <polygon id="路径" fill="#D7C1B3" points="12.7557991 17.2321898 15.6044559 18.1215994 12.7505769 18.3132223"></polygon>
                        <polygon id="Fill-39" fill="#E4761B" points="12.5088533 15.2087094 15.1098788 14.2160303 15.6044559 18.1215994"></polygon>
                        <polygon id="Fill-40" fill="#D7C1B3" points="15.6044559 18.1215994 12.7557991 17.2321898 12.5088533 15.2087094"></polygon>
                        <polygon id="路径" fill="#C0AD9E" points="8.98333132 17.230003 9.19714867 16.9156252 9.17126603 19.1294556"></polygon>
                        <polygon id="路径" fill="#C0AD9E" points="9.17126603 19.1294556 9.19714867 16.9156252 12.5306561 16.9172572"></polygon>
                        <polygon id="路径" fill="#C0AD9E" points="12.5306561 16.9172572 12.58562 19.1326216 9.17126603 19.1294556"></polygon>
                        <polygon id="路径" fill="#C0AD9E" points="12.58562 19.132491 12.5306561 16.9172572 12.7557991 17.2321898"></polygon>
                        <polygon id="路径" fill="#1D1D1D" points="9.19727922 16.9156252 8.98333132 17.230003 9.22724172 15.2080566"></polygon>
                        <polygon id="路径" fill="#1D1D1D" points="12.5088533 15.2087094 12.7557991 17.2321898 12.5306561 16.9172572"></polygon>
                        <polygon id="路径" fill="#1D1D1D" points="9.61610142 15.0972802 9.65092711 14.9134254 12.0849394 14.9136865"></polygon>
                        <polygon id="Fill-61" fill="#1D1D1D" points="9.22737228 15.2080566 9.65092711 14.9134254 9.61623197 15.0972802"></polygon>
                        <polygon id="路径" fill="#1D1D1D" points="12.0849394 14.9136865 12.0970485 15.0976392 9.61623197 15.0972802"></polygon>
                        <polygon id="路径" fill="#1D1D1D" points="12.0970485 15.0976392 12.0849394 14.9136865 12.5088533 15.2087094"></polygon>
                        <polygon id="路径" fill="#1D1D1D" points="9.22737228 15.2080566 9.34480699 15.4030087 9.19727922 16.9156252"></polygon>
                        <polygon id="路径" fill="#1D1D1D" points="9.61610142 15.0972802 9.34480699 15.4030087 9.22737228 15.2080566"></polygon>
                        <polygon id="路径" fill="#1D1D1D" points="12.5306561 16.9172572 12.3684734 15.4036288 12.5088533 15.2087094"></polygon>
                        <polygon id="路径" fill="#1D1D1D" points="12.5088533 15.2087094 12.3684734 15.4036288 12.0970485 15.0976392"></polygon>
                        <polygon id="路径" fill="#1D1D1D" points="12.5306561 16.9172572 9.19714867 16.9156252 9.34480699 15.4030087"></polygon>
                        <polygon id="路径" fill="#1D1D1D" points="9.34480699 15.4030087 12.3684734 15.4036288 12.5306561 16.9172572"></polygon>
                        <polygon id="路径" fill="#1D1D1D" points="9.34480699 15.4030087 9.61610142 15.0972802 12.0970485 15.0976392"></polygon>
                        <polygon id="Fill-65" fill="#1D1D1D" points="12.0970485 15.0976392 12.3684734 15.4036288 9.34480699 15.4030087"></polygon>
                        <polygon id="路径" fill="#E2761B" points="6.28285512 18.4322119 7.46206545 17.5136838 7.66834322 17.4421557"></polygon>
                        <polygon id="路径" fill="#E2761B" points="14.2721039 17.4480163 14.4541962 17.5200728 15.6044559 18.4421557"></polygon>
                        <polygon id="路径" fill="#C0AD9E" points="7.23346269 19.1036435 6.28285512 18.1148432 9.0120209 18.4661977"></polygon>
                        <polygon id="路径" fill="#C0AD9E" points="12.7505769 18.4712405 15.6044559 18.1269811 14.6241469 19.1148432"></polygon>
                        <polygon id="Fill-35" fill="#D7C1B3" points="8.98333132 17.230003 9.0120209 18.3104154 6.28285512 18.1148432"></polygon>
                        <polygon id="路径" fill="#C0AD9E" points="9.0120209 18.3104154 9.17126603 19.3065648 7.23346269 18.7419584"></polygon>
                        <polygon id="路径" fill="#C0AD9E" points="14.6241469 18.7495405 12.58562 19.3104154 12.7505769 18.3138293"></polygon>
                        <polygon id="路径" fill="#C0AD9E" points="9.17126603 19.1294556 9.0120209 18.3104154 8.98333132 17.230003"></polygon>
                        <polygon id="路径" fill="#C0AD9E" points="12.7557991 17.2321898 12.7505769 18.3132223 12.58562 19.1326216"></polygon>
                    </g>
                </g>
            </g>
        </g>
    </g>
</svg>