<?xml version="1.0" encoding="UTF-8"?>
<svg width="32px" height="32px" viewBox="0 0 32 32" version="1.1" xmlns="http://www.w3.org/2000/svg" xmlns:xlink="http://www.w3.org/1999/xlink">
    <title>编组</title>
    <g id="页面-1" stroke="none" stroke-width="1" fill="none" fill-rule="evenodd">
        <g id="kepler-homepage-下拉菜单new" transform="translate(-38.000000, -378.000000)">
            <g id="编组-15" transform="translate(8.000000, 80.000000)">
                <g id="编组" transform="translate(30.000000, 298.000000)">
                    <path d="M30.5010337,16.00015 C30.5010337,24.005963 24.0092258,30.498521 16.0026627,30.498521 C7.99159928,30.498521 1.50016642,24.005963 1.50016642,16.00015 C1.50016642,7.99133676 7.99159928,1.49690364 16.0026627,1.49690364 C24.0092258,1.49690364 30.5010337,7.99133676 30.5010337,16.00015" id="Fill-1" fill="#FFA04C"></path>
                    <path d="M30.5010337,16.00015 C30.5010337,7.99133676 24.0092258,1.49690364 16.0026627,1.49690364 C13.4483182,1.49690364 11.0522373,2.16071069 8.96668307,3.31806015 C9.94551719,3.11104236 10.9618545,2.99853269 12.0010688,2.99853269 C20.0080069,2.99853269 26.5035652,9.49071561 26.5035652,17.4991538 C26.5035652,22.9562478 23.4841807,27.7026557 19.0366735,30.1782434 C25.5847362,28.7846237 30.5010337,22.9659986 30.5010337,16.00015" id="Fill-3" fill="#E07D26"></path>
                    <path d="M16.0025877,5.49868504 L4.50034925,12.9993296 L27.5007008,12.9993296 L16.0025877,5.49868504 Z M16.0025877,6.69241263 L24.1366617,11.9979936 L7.86438835,11.9979936 L16.0025877,6.69241263 Z" id="Fill-5" fill="#EBF3FD"></path>
                    <polygon id="Fill-7" fill="#3353B6" points="0.502393174 25.4977662 31.5025573 25.4977662 31.5025573 12.4987741 0.502393174 12.4987741"></polygon>
                    <g id="编组-17" transform="translate(0.000000, 12.000000)">
                        <path d="M31.5027073,0 L0.502543187,0 C0.225019338,0 0,0.224644305 0,0.500668026 L0,13.4996601 C0,13.7756838 0.225019338,14.0003282 0.502543187,14.0003282 L31.5027073,14.0003282 C31.7761058,14.0003282 32.0011251,13.7756838 32.0011251,13.4996601 L32.0011251,0.500668026 C32.0011251,0.224644305 31.7761058,0 31.5027073,0 L31.5027073,0 Z M1.00133605,12.9993671 L30.999789,12.9993671 L30.999789,1.00133605 L1.00133605,1.00133605 L1.00133605,12.9993671 Z" id="Fill-9" fill="#B1CDFC"></path>
                        <path d="M6.18784999,10.832075 L6.18784999,5.32107501 L9.80684999,10.832075 L10.89585,10.832075 L10.89585,3.00007501 L9.70784999,3.00007501 L9.70784999,8.50007501 L6.08884999,3.00007501 L4.99984999,3.00007501 L4.99984999,10.832075 L6.18784999,10.832075 Z M15.77985,10.832075 L15.77985,7.52107501 L19.03585,7.52107501 L19.03585,6.45407501 L15.77985,6.45407501 L15.77985,4.06707501 L19.59685,4.06707501 L19.59685,3.00007501 L14.59185,3.00007501 L14.59185,10.832075 L15.77985,10.832075 Z M25.32785,10.832075 L25.32785,4.06707501 L27.48385,4.06707501 L27.48385,3.00007501 L21.98385,3.00007501 L21.98385,4.06707501 L24.13985,4.06707501 L24.13985,10.832075 L25.32785,10.832075 Z" id="NFT" fill="#FFFFFF" fill-rule="nonzero"></path>
                    </g>
                    <path d="M14.2512247,6.49705834 C14.2512247,5.53285048 15.0350421,4.74903312 16.0026252,4.74903312 C16.966083,4.74903312 17.7499004,5.53285048 17.7499004,6.49705834 C17.7499004,7.46389143 16.966083,8.24770879 16.0026252,8.24770879 C15.0350421,8.24770879 14.2512247,7.46389143 14.2512247,6.49705834" id="Fill-10" fill="#3353B6"></path>
                    <path d="M15.2525233,6.49705834 C15.2525233,6.08452289 15.5863019,5.74774395 16.0025877,5.74774395 C16.4151232,5.74774395 16.7526522,6.08452289 16.7526522,6.49705834 C16.7526522,6.91221902 16.4151232,7.24937299 16.0025877,7.24937299 C15.5863019,7.24937299 15.2525233,6.91221902 15.2525233,6.49705834" id="Fill-11" fill="#B1CDFC"></path>
                    <path d="M26.5034901,3.9994562 C27.3319363,3.9994562 28.0036191,4.6685137 28.0036191,5.49883506 C28.0036191,4.6685137 28.6708014,3.9994562 29.503748,3.9994562 C28.6708014,3.9994562 28.0036191,3.32814851 28.0036191,2.49782716 C28.0036191,3.32814851 27.3319363,3.9994562 26.5034901,3.9994562" id="Fill-18" fill="#7598D9"></path>
                    <path d="M6.00051567,1.49675363 C6.8293369,1.49675363 7.50064459,2.16806132 7.50064459,2.99838267 C7.50064459,2.16806132 8.17195228,1.49675363 9.0007735,1.49675363 C8.17195228,1.49675363 7.50064459,0.82769613 7.50064459,0 C7.50064459,0.82769613 6.8293369,1.49675363 6.00051567,1.49675363" id="Fill-19" fill="#7598D9"></path>
                    <path d="M0,6.99772637 C0.828446195,6.99772637 1.50012892,7.66903406 1.50012892,8.49935541 C1.50012892,7.66903406 2.17106158,6.99772637 3.00025783,6.99772637 C2.17106158,6.99772637 1.50012892,6.32641868 1.50012892,5.49872255 C1.50012892,6.32641868 0.828446195,6.99772637 0,6.99772637" id="Fill-20" fill="#7598D9"></path>
                    <path d="M9.0007735,5.49868504 C9.8292197,5.49868504 10.5009024,6.16999273 10.5009024,6.99768886 C10.5009024,6.16999273 11.1718351,5.49868504 12.0010313,5.49868504 C11.1718351,5.49868504 10.5009024,4.82700232 10.5009024,3.99930619 C10.5009024,4.82700232 9.8292197,5.49868504 9.0007735,5.49868504" id="Fill-21" fill="#DF751B"></path>
                    <path d="M25.5021916,30.498371 C26.3310128,30.498371 27.0023205,31.1696786 27.0023205,32 C27.0023205,31.1696786 27.6736282,30.498371 28.5024494,30.498371 C27.6736282,30.498371 27.0023205,29.8293135 27.0023205,28.9989921 C27.0023205,29.8293135 26.3310128,30.498371 25.5021916,30.498371" id="Fill-22" fill="#7598D9"></path>
                    <path d="M3.50276352,29.4996601 C4.32783442,29.4996601 4.99876708,30.1687176 4.99876708,30.9986639 C4.99876708,30.1687176 5.67007477,29.4996601 6.498896,29.4996601 C5.67007477,29.4996601 4.99876708,28.8283524 4.99876708,27.9980311 C4.99876708,28.8283524 4.32783442,29.4996601 3.50276352,29.4996601" id="Fill-23" fill="#7598D9"></path>
                    <path d="M13.0023299,27.9980686 C13.8307761,27.9980686 14.5024588,28.6693763 14.5024588,29.4996976 C14.5024588,28.6693763 15.1733915,27.9980686 16.0025877,27.9980686 C15.1733915,27.9980686 14.5024588,27.3290111 14.5024588,26.4990648 C14.5024588,27.3290111 13.8307761,27.9980686 13.0023299,27.9980686" id="Fill-24" fill="#DF751B"></path>
                </g>
            </g>
        </g>
    </g>
</svg>