<?xml version="1.0" encoding="UTF-8"?>
<svg width="32px" height="32px" viewBox="0 0 32 32" version="1.1" xmlns="http://www.w3.org/2000/svg" xmlns:xlink="http://www.w3.org/1999/xlink">
    <title>编组</title>
    <defs>
        <polygon id="path-1" points="0 0 32.000075 0 32.000075 32 0 32"></polygon>
    </defs>
    <g id="页面-1" stroke="none" stroke-width="1" fill="none" fill-rule="evenodd">
        <g id="kepler-homepage-下拉菜单new" transform="translate(-1115.000000, -478.000000)">
            <g id="编组-15备份-2" transform="translate(1085.000000, 80.000000)">
                <g id="编组" transform="translate(30.000000, 398.000000)">
                    <g>
                        <mask id="mask-2" fill="white">
                            <use xlink:href="#path-1"></use>
                        </mask>
                        <g id="Clip-2"></g>
                        <path d="M32.000075,16.0010875 C32.000075,24.8369963 24.8366963,32 16.0011625,32 C7.16337872,32 0,24.8369963 0,16.0010875 C0,7.16330372 7.16337872,-7.50013477e-05 16.0011625,-7.50013477e-05 C24.8366963,-7.50013477e-05 32.000075,7.16330372 32.000075,16.0010875" id="Fill-1" fill="#FFA04C" mask="url(#mask-2)"></path>
                    </g>
                    <path d="M28.0010031,16.0010875 C28.0010031,22.6270816 22.6271566,27.9983031 16.0011625,27.9983031 C9.37254341,27.9983031 3.99907186,22.6270816 3.99907186,16.0010875 C3.99907186,9.37246841 9.37254341,3.99899686 16.0011625,3.99899686 C22.6271566,3.99899686 28.0010031,9.37246841 28.0010031,16.0010875" id="Fill-3" fill="#3353B6"></path>
                    <path d="M23.2009544,15.7520455 L21.2040435,17.9934608 L17.9324847,21.623526 L10.3100978,24.458202 L10.5542271,22.0484087 L16.9094663,18.8747267 C19.2483834,17.2389473 20.5496568,15.1366595 21.5044239,14.719277 C22.3830647,14.3337701 23.066702,14.9487811 23.2009544,15.7520455" id="Fill-5" fill="#7598D9"></path>
                    <path d="M18.1887268,19.3336599 C17.8249703,19.6951664 16.8484527,19.3996611 15.6814318,20.0855484 C15.6788067,20.0855484 9.4165692,21.3598213 4.73871176,23.2768558 C4.73161002,23.2813558 6.35501419,27.0314232 6.35501419,27.0314232 C8.03954446,26.9680471 17.5710907,28.7013282 24.8563466,15.6323434 C24.8660968,15.6177181 24.8735969,15.6057179 24.8833471,15.5910927 C24.9440982,15.5029661 25.4642326,14.7094518 24.878097,14.2553187 C23.765077,13.3935532 20.8572748,16.6576118 18.1887268,19.3336599" id="Fill-7" fill="#85ABEF"></path>
                    <path d="M19.9881592,19.3435601 C19.6634033,19.7391922 19.3288973,20.1490746 18.9820161,20.5668321 L18.979766,20.5668321 C18.977516,20.5690821 18.977516,20.5713321 18.974891,20.5739572 C18.1300008,21.5504747 17.1024823,22.2974882 15.8353345,22.8419979 C14.858442,23.2642555 13.7379219,23.5646359 12.4538988,23.7577644 C12.2071443,23.7941401 11.9798903,23.625762 11.9435146,23.3793826 C11.9067639,23.1348782 12.075142,22.9053741 12.3196464,22.8686234 C15.0418203,22.4609911 16.9386044,21.5482247 18.2890036,19.9926967 C18.8747642,19.282434 18.8308884,19.1331813 18.7431368,18.838051 C18.5987592,18.3449171 18.3741302,18.0325365 18.0789999,17.9027842 C17.6368669,17.7077807 17.1216077,17.9567852 17.1144825,17.9594102 C13.1862869,19.7339421 12.2802707,19.61919 11.2328768,19.4901877 C10.2882349,19.3728106 8.22044771,19.6266902 3.54222569,21.5429746 C3.53511352,21.5455996 6.46729121,28.3354717 6.46729121,28.3354717 C8.14957144,28.2694705 17.6053663,29.9588758 24.9686237,16.9337668 C24.9761238,16.9213916 25.5765096,16.0108752 24.9907491,15.5589921 C23.877354,14.6972266 22.3660769,16.4357578 19.9881592,19.3435601" id="Fill-9" fill="#B1CDFC"></path>
                    <path d="M3.17874462,21.2965952 L0.302817941,22.5344924 C0.0485633726,22.6443694 -0.0684387298,22.9398747 0.0414382446,23.1937543 L2.91511488,29.8613741 C3.02236681,30.1152536 3.31787212,30.2322557 3.57175168,30.1223788 L6.44767836,28.8844815 C6.69930788,28.7746045 6.81630998,28.4817243 6.70905805,28.2278447 L3.83538142,21.5575999 C3.72550444,21.3040953 3.43262418,21.1867182 3.17874462,21.2965952" id="Fill-11" fill="#E07D26"></path>
                    <path d="M4.84377454,27.5515951 C4.70689708,27.2365894 4.34351555,27.0925868 4.02850989,27.2294643 C3.71575427,27.3637167 3.56950164,27.7274732 3.70337905,28.0424789 C3.8402565,28.3571095 4.20401304,28.5011121 4.5190187,28.3646097 C4.83402436,28.2303573 4.97802695,27.8666007 4.84377454,27.5515951" id="Fill-13" fill="#EBF3FD"></path>
                    <path d="M8.80129565,16.2501295 L10.7959565,14.0064642 L14.0675153,10.3760239 L21.6899022,7.54134801 L21.4457729,9.95114131 L15.0927837,13.1251983 C12.7516166,14.7583527 11.4503432,16.8655156 10.4982011,17.2828981 C9.6169353,17.6661549 8.93554806,17.0511439 8.80129565,16.2501295" id="Fill-15" fill="#7598D9"></path>
                    <path d="M13.8137107,12.6659651 C14.1748422,12.3022086 15.1513598,12.5999639 16.3187557,11.9140766 C16.3210058,11.9140766 22.5832433,10.6398037 27.2611032,8.7205192 C27.2685775,8.7205192 25.6447983,4.96595173 25.6447983,4.96595173 C23.960268,5.03195292 14.4290968,3.29829677 7.14346586,16.3672816 C7.13371568,16.3819069 7.12659056,16.3939071 7.11684038,16.4085323 C7.05796432,16.4944089 6.53557994,17.2901732 7.12171547,17.7443063 C8.23511047,18.6060718 11.1425377,15.3420132 13.8137107,12.6659651" id="Fill-17" fill="#85ABEF"></path>
                    <path d="M12.0119158,12.6564399 C12.3366717,12.2608078 12.6711777,11.8509254 13.019934,11.4331679 L13.019934,11.4305429 C13.022559,11.4305429 13.022559,11.4282929 13.025184,11.4260428 C13.8696992,10.4491503 14.8975927,9.70213684 16.1647405,9.15537701 C17.1438831,8.73536946 18.2621531,8.43498907 19.5461762,8.2422356 C19.7929307,8.20548494 20.0220598,8.37386297 20.0588104,8.6206174 C20.0955611,8.86737184 19.924558,9.09425091 19.6804286,9.13100157 C16.9582547,9.5386339 15.0610956,10.4517753 13.7110714,12.0069282 C13.1253108,12.717191 13.1691866,12.8664437 13.2569382,13.161949 C13.4009408,13.6524578 13.6255698,13.9674635 13.9210751,14.0968408 C14.3632081,14.2895943 14.8780923,14.0428398 14.8855925,14.0405898 C18.8137881,12.2656829 19.7220544,12.380435 20.7668232,12.5098123 C21.7140902,12.6271894 23.7796273,12.3729348 28.4597184,10.4566504 C28.4649615,10.4540253 25.5327838,3.66415334 25.5327838,3.66415334 C23.8505036,3.72790449 14.3969587,2.04074917 7.03145135,15.0662332 C7.02395121,15.0782334 6.42356542,15.9891248 7.01157599,16.4406329 C8.124971,17.3050234 9.63624815,15.5642422 12.0119158,12.6564399" id="Fill-19" fill="#B1CDFC"></path>
                    <path d="M28.8236929,10.7030298 L31.6973696,9.46513258 C31.9512491,9.35300556 32.0682512,9.0601253 31.9609993,8.80587073 L29.0873227,2.13600088 C28.9774457,1.88249633 28.6823154,1.76511922 28.4306859,1.87499619 L25.5521341,3.11514348 C25.3005046,3.22502045 25.1835025,3.51790071 25.2933795,3.77215528 L28.1670561,10.4420251 C28.2743081,10.6955297 28.5698134,10.8129068 28.8236929,10.7030298" id="Fill-21" fill="#1D3285"></path>
                    <path d="M27.1587005,4.44802993 C27.2929529,4.76303559 27.6567095,4.90741318 27.9717151,4.77278576 C28.2867208,4.63628331 28.4307234,4.26990172 28.296471,3.9571461 C28.1595935,3.64251545 27.795837,3.49851286 27.4808313,3.63276528 C27.1684507,3.76926773 27.021823,4.13302427 27.1587005,4.44802993" id="Fill-23" fill="#EBF3FD"></path>
                    <polygon id="Fill-25" fill="#FFFFFF" points="10.3979993 4.18691273 10.8742579 5.18780572 10.3979993 6.18644866 11.3966423 5.7101901 12.3975353 6.18644866 11.9190267 5.18780572 12.3975353 4.18691273 11.3966423 4.66317129"></polygon>
                    <polygon id="Fill-27" fill="#FFFFFF" points="2.89786457 14.0627152 3.37412313 15.0636082 2.89786457 16.0622511 3.89650752 15.5837425 4.8974005 16.0622511 4.4188919 15.0636082 4.8974005 14.0627152 3.89650752 14.5389737"></polygon>
                    <polygon id="Fill-29" fill="#FFFFFF" points="26.6459913 17.2488099 27.1244999 18.2497029 26.6459913 19.2505959 27.6468843 18.7720873 28.6477773 19.2505959 28.1692687 18.2497029 28.6477773 17.2488099 27.6468843 17.7269435"></polygon>
                    <polygon id="Fill-31" fill="#FFFFFF" points="18.2716783 26.3749364 18.7501869 27.3758294 18.2716783 28.3744724 19.2725713 27.8959638 20.2712142 28.3744724 19.7949557 27.3758294 20.2712142 26.3749364 19.2725713 26.85307"></polygon>
                </g>
            </g>
        </g>
    </g>
</svg>