<?xml version="1.0" encoding="UTF-8"?>
<svg width="32px" height="32px" viewBox="0 0 32 32" version="1.1" xmlns="http://www.w3.org/2000/svg" xmlns:xlink="http://www.w3.org/1999/xlink">
    <title>编组 11</title>
    <g id="页面-1" stroke="none" stroke-width="1" fill="none" fill-rule="evenodd">
        <g id="Marke-my-nft-盲盒详情" transform="translate(-898.000000, -310.000000)">
            <g id="编组-11" transform="translate(898.000000, 310.000000)">
                <rect id="矩形" fill="#FFFFFF" x="0" y="0" width="32" height="32" rx="16"></rect>
                <path d="M20.1817982,20.4545741 L19.363641,19.6364169 L12.8182238,19.6364169 L11.9999867,20.4545741 L11.9999867,21.4545854 L20.1817982,21.4545854 L20.1817982,20.4545741 Z M22.0000466,19.6364169 L22.0000466,23.2727273 L10.1818182,23.2727273 L10.1818182,19.6364169 L10.2727453,19.6364169 L12.0909138,17.8181685 L20.0909777,17.8181685 L22.0000466,19.6364169 Z M20.1817982,12.8182184 C20.1817982,15.0909157 18.3636297,16.9090843 16.0909324,16.9090843 C13.8182351,16.9090843 11.9999867,15.0909157 11.9999867,12.8182184 C11.9999867,10.5454146 13.8182351,8.72727273 16.0909324,8.72727273 C18.3636297,8.72727273 20.1817982,10.5454146 20.1817982,12.8182184 Z M18.3636297,12.8182184 C18.3636297,11.5454259 17.3636184,10.5454146 16.0909324,10.5454146 C14.8181399,10.5454146 13.8182351,11.5454259 13.8182351,12.8182184 C13.8182351,14.0909044 14.8181399,15.0909157 16.0909324,15.0909157 C17.3636184,15.0909157 18.3636297,14.0909044 18.3636297,12.8182184 Z" id="gerentouxiang" fill="#565656"></path>
            </g>
        </g>
    </g>
</svg>