<?xml version="1.0" encoding="UTF-8"?>
<svg width="20px" height="20px" viewBox="0 0 20 20" version="1.1" xmlns="http://www.w3.org/2000/svg" xmlns:xlink="http://www.w3.org/1999/xlink">
    <title>编组</title>
    <defs>
        <polygon id="path-1" points="0 0 20.0000342 0 20.0000342 20 0 20"></polygon>
    </defs>
    <g id="页面-1" stroke="none" stroke-width="1" fill="none" fill-rule="evenodd" opacity="0.800000012">
        <g id="kepler-盲盒" transform="translate(-1380.000000, -564.000000)">
            <g id="编组" transform="translate(1380.000000, 564.000000)">
                <mask id="mask-2" fill="white">
                    <use xlink:href="#path-1"></use>
                </mask>
                <g id="Clip-2"></g>
                <path d="M9.08266367,10.9173705 L9.08266367,9.08262185 L10.6487726,9.08262185 C11.2449347,9.08262185 11.6776398,8.64995476 11.6776398,8.05375457 C11.6776398,7.45755438 11.2449347,7.02484928 10.6487726,7.02484928 L9.35126546,7.02484928 C8.75510328,7.02484928 8.32239818,7.45755438 8.32239818,8.05375457 C8.32239818,8.09667156 8.32239818,8.14753332 8.32741593,8.20375495 L6.61263713,8.74525404 C6.54048794,8.50523823 6.48764949,8.27464971 6.48764949,8.05375457 C6.48764949,6.44799784 7.74550873,5.1901386 9.35126546,5.1901386 L10.6487726,5.1901386 C12.2545293,5.1901386 13.5123885,6.44799784 13.5123885,8.05375457 C13.5123885,9.37927744 12.5309618,10.5571948 11.2295394,10.7937514 L10.9173743,10.8504672 L10.9173743,10.9173705 L9.08266367,10.9173705 Z M9.08266367,14.8100439 L10.9173743,14.8100439 L10.9173743,12.9751431 L9.08266367,12.9751431 L9.08266367,14.8100439 Z M10,1.83470688 C7.82757939,1.83470688 5.77946219,2.6864323 4.23296815,4.23292634 C2.6864361,5.77945839 1.83474869,7.82757559 1.83474869,10.0000342 C1.83474869,12.1724928 2.6864361,14.220572 4.23296815,15.7671041 C5.77946219,17.3136361 7.82757939,18.1652855 10,18.1652855 C12.1724206,18.1652855 14.2205758,17.3136361 15.7670699,15.7671041 C17.3136019,14.220572 18.1652893,12.1724928 18.1652893,10.0000342 C18.1652893,7.82757559 17.3136019,5.77945839 15.7670699,4.23292634 C14.2205758,2.6864323 12.1724586,1.83470688 10,1.83470688 L10,1.83470688 Z M10,20.0000342 C7.34036325,20.0000342 4.83228543,18.9566459 2.93781789,17.0622163 C1.04335034,15.1677488 0,12.659671 0,10.0000342 C0,7.34035945 1.04335034,4.83228163 2.93781789,2.93781408 C4.83228543,1.04334654 7.34036325,-3.80132724e-06 10,-3.80132724e-06 C12.6596367,-3.80132724e-06 15.1677526,1.04334654 17.0622201,2.93781408 C18.9566877,4.83228163 20.000038,7.34035945 20.000038,10.0000342 C20.000038,12.659671 18.9566877,15.1677488 17.0622201,17.0622163 C15.1677526,18.9566459 12.6596367,20.0000342 10,20.0000342 L10,20.0000342 Z" id="Fill-1" fill="#FFFFFF" mask="url(#mask-2)"></path>
            </g>
        </g>
    </g>
</svg>