<?xml version="1.0" encoding="UTF-8"?>
<svg width="30px" height="30px" viewBox="0 0 30 30" version="1.1" xmlns="http://www.w3.org/2000/svg" xmlns:xlink="http://www.w3.org/1999/xlink">
    <title>编组 10</title>
    <defs>
        <rect id="path-1" x="0" y="0" width="30" height="30" rx="15"></rect>
        <polygon id="path-3" points="0 0 5.62324219 0 5.62324219 5.625 0 5.625"></polygon>
    </defs>
    <g id="页面-1" stroke="none" stroke-width="1" fill="none" fill-rule="evenodd">
        <g id="kepler-盲盒-NFT-Whitelist-" transform="translate(-215.000000, -726.000000)">
            <g id="编组-10" transform="translate(215.000000, 726.000000)">
                <g id="编组-19">
                    <mask id="mask-2" fill="white">
                        <use xlink:href="#path-1"></use>
                    </mask>
                    <use id="蒙版" fill="#D8E7FF" xlink:href="#path-1"></use>
                </g>
                <g id="22" transform="translate(7.500000, 7.500000)">
                    <g id="编组" transform="translate(0.000000, 4.687500)">
                        <mask id="mask-4" fill="white">
                            <use xlink:href="#path-3"></use>
                        </mask>
                        <g id="Clip-2"></g>
                        <path d="M-0.0017578125,2.8125 C-0.0017578125,4.36582031 1.25742188,5.625 2.81074219,5.625 C4.3640625,5.625 5.62324219,4.36582031 5.62324219,2.8125 C5.62324219,1.25917969 4.3640625,0 2.81074219,0 C1.25742188,0 -0.0017578125,1.25917969 -0.0017578125,2.8125 Z" id="Fill-1" fill="#2E3689" mask="url(#mask-4)"></path>
                        <path d="M2.81074219,5.625 C1.25994141,5.625 -0.0017578125,4.36330078 -0.0017578125,2.8125 C-0.0017578125,1.26169922 1.25994141,0 2.81074219,0 C4.36154297,0 5.62324219,1.26169922 5.62324219,2.8125 C5.62324219,4.36330078 4.36154297,5.625 2.81074219,5.625 Z M2.81074219,1.40625 C2.0352832,1.40625 1.40449219,2.03704102 1.40449219,2.8125 C1.40449219,3.58795898 2.0352832,4.21875 2.81074219,4.21875 C3.58620117,4.21875 4.21699219,3.58795898 4.21699219,2.8125 C4.21699219,2.03704102 3.58620117,1.40625 2.81074219,1.40625 Z" id="Fill-3" fill="#2E3689" mask="url(#mask-4)"></path>
                    </g>
                    <path d="M9.37324219,12.1875 C9.37324219,13.7408203 10.6324219,15 12.1857422,15 C13.7390625,15 14.9982422,13.7408203 14.9982422,12.1875 C14.9982422,10.6341797 13.7390625,9.375 12.1857422,9.375 C10.6324219,9.375 9.37324219,10.6341797 9.37324219,12.1875 Z" id="Fill-4" fill="#2E3689"></path>
                    <path d="M8.60853516,11.0231836 C8.50898437,11.0231836 8.40805664,11.0018848 8.31181641,10.9571484 L4.12166016,9.00319336 C3.76974609,8.83907227 3.61743164,8.42080078 3.78155273,8.06876953 C3.94564453,7.71685547 4.3640625,7.5646582 4.71594727,7.72866211 L8.90610352,9.68261719 C9.25810547,9.84673828 9.41033203,10.2650098 9.24621094,10.617041 C9.12697266,10.8728027 8.87337891,11.0231836 8.60853516,11.0231836 Z" id="Fill-5" fill="#2E3689"></path>
                    <path d="M9.37324219,2.8125 C9.37324219,4.36582031 10.6324219,5.625 12.1857422,5.625 C13.7390625,5.625 14.9982422,4.36582031 14.9982422,2.8125 C14.9982422,1.25917969 13.7390625,0 12.1857422,0 C10.6324219,0 9.37324219,1.25917969 9.37324219,2.8125 Z" id="Fill-6" fill="#2E3689"></path>
                    <path d="M12.1857422,5.625 C10.6349414,5.625 9.37324219,4.36330078 9.37324219,2.8125 C9.37324219,1.26169922 10.6349414,0 12.1857422,0 C13.736543,0 14.9982422,1.26169922 14.9982422,2.8125 C14.9982422,4.36330078 13.736543,5.625 12.1857422,5.625 Z M12.1857422,1.40625 C11.4102832,1.40625 10.7794922,2.03704102 10.7794922,2.8125 C10.7794922,3.58795898 11.4102832,4.21875 12.1857422,4.21875 C12.9612012,4.21875 13.5919922,3.58795898 13.5919922,2.8125 C13.5919922,2.03704102 12.9612012,1.40625 12.1857422,1.40625 Z" id="Fill-7" fill="#2E3689"></path>
                    <path d="M6.38803711,6.33568359 C6.12322266,6.33568359 5.86951172,6.18530273 5.75027344,5.92954102 C5.58615234,5.57762695 5.73849609,5.15923828 6.09038086,4.99511719 L10.2806543,3.0412793 C10.6324219,2.8771582 11.050957,3.02935547 11.2150488,3.38126953 C11.3791699,3.73330078 11.2268555,4.15157227 10.8749414,4.31569336 L6.68466797,6.26964844 C6.59185547,6.313125 6.49057617,6.33568359 6.38803711,6.33568359 Z" id="Fill-8" fill="#2E3689"></path>
                </g>
            </g>
        </g>
    </g>
</svg>