<?xml version="1.0" encoding="UTF-8"?>
<svg width="17px" height="23px" viewBox="0 0 17 23" version="1.1" xmlns="http://www.w3.org/2000/svg" xmlns:xlink="http://www.w3.org/1999/xlink">
    <title>chengchang</title>
    <defs>
        <polygon id="path-1" points="16.538797 0 16.538797 22.6 4.54740296e-13 22.6 0 0"></polygon>
    </defs>
    <g id="页面-1" stroke="none" stroke-width="1" fill="none" fill-rule="evenodd">
        <g id="kepler-icon-new" transform="translate(-637.000000, -299.000000)">
            <g id="chengchang" transform="translate(637.200000, 299.200000)">
                <mask id="mask-2" fill="#E07D26">
                    <use xlink:href="#path-1"></use>
                </mask>
                <g id="Clip-2"></g>
                <path d="M8.26815771,0 C10.5425775,0 12.6101141,0.93066191 14.1091271,2.4296749 C15.6081334,3.92868121 16.538797,5.99620951 16.538797,8.27063933 C16.538797,10.6804763 15.4983594,12.8300753 13.9235283,14.3414346 L13.7151265,14.5349178 L13.7151265,22.5438461 L8.26815842,21.1820923 L2.82102346,22.5438461 L2.82102346,14.5349237 C1.13039692,13.0165093 -0.0024816205,10.7852542 -0.0024816205,8.27063933 C-0.0024816205,5.99620443 0.928175886,3.92867185 2.42718306,2.42966468 C3.92619023,0.930657507 5.99372281,0 8.26815771,0 Z M10.9226366,16.1660078 L9.96401982,16.4432491 L9.79182598,16.4953547 C9.68016287,16.5299787 9.57524056,16.5644261 9.47991025,16.5989925 L9.47991025,16.5989925 L9.47991025,19.1521842 L11.3228937,19.5208672 L10.9226366,16.1660078 Z M5.24465262,15.8591826 L5.24465262,19.5146099 L7.05640517,19.1521851 L7.05640517,16.6042692 L6.90842111,16.547839 C6.75429135,16.4975598 6.5830332,16.4638468 6.4064253,16.429722 C6.11639724,16.3736818 5.8079019,16.3195278 5.24465262,15.8591826 L5.24465262,15.8591826 Z M8.26815771,2.42350508 C6.66020114,2.42350508 5.1982901,3.08109486 4.13845167,4.14093329 C3.07861324,5.20077172 2.42102346,6.66268276 2.42102346,8.27063933 C2.42102346,9.8785865 3.07860498,11.340447 4.13843125,12.4002422 C5.19827082,13.4600507 6.66019014,14.1176081 8.26815771,14.1176081 C9.87611588,14.1176081 11.3379847,13.460059 12.397781,12.4002626 C13.4575774,11.3404663 14.1151265,9.8785975 14.1151265,8.27063933 C14.1151265,6.66267176 13.4575691,5.20075244 12.3977606,4.14091287 C11.3379654,3.0810866 9.87610488,2.42350508 8.26815771,2.42350508 Z M8.26815771,5.64713425 C8.98963122,5.64713425 9.64536795,5.94248336 10.1208203,6.4179427 C10.5962773,6.89340665 10.8916214,7.54915895 10.8916214,8.27063933 C10.8916214,8.9921197 10.5962773,9.64787201 10.1208203,10.123336 C9.64536795,10.5987953 8.98963122,10.8941444 8.26815771,10.8941444 C7.54668036,10.8941444 6.8909309,10.5987924 6.41546774,10.1233293 C5.94000459,9.64786614 5.64465262,8.99211668 5.64465262,8.27063933 C5.64465262,7.54916198 5.94000459,6.89341252 6.41546774,6.41794936 C6.8909309,5.94248621 7.54668036,5.64713425 8.26815771,5.64713425 Z" id="Fill-1" fill="#E07D26" mask="url(#mask-2)"></path>
            </g>
        </g>
    </g>
</svg>