<?xml version="1.0" encoding="UTF-8"?>
<svg width="24px" height="21px" viewBox="0 0 27 24" version="1.1" xmlns="http://www.w3.org/2000/svg" xmlns:xlink="http://www.w3.org/1999/xlink">
    <title>zizhaixinxi</title>
    <g id="页面-1" stroke="none" stroke-width="1" fill="none" fill-rule="evenodd">
        <g id="kepler-盲盒" transform="translate(-652.000000, -957.000000)">
            <g id="编组-12" transform="translate(652.000000, 954.000000)">
                <g id="zizhaixinxi" transform="translate(0.000000, 3.000000)">
                    <path d="M25.6667242,13.9999674 L26.6668056,13.9999674 L26.6668056,21.0001465 C26.6668056,22.6569488 25.323559,24 23.6667567,24 L3.00004883,24 C1.34324656,24 0,22.6569488 0,21.0001465 L0,13.6667242 L1.00008138,13.6667242 C1.920475,13.6667242 2.66664931,12.9205889 2.66664931,12 C2.66664931,11.0796064 1.920475,10.3334321 1.00008138,10.3334321 L0,10.3334321 L0,3.00004883 C0,1.34324656 1.34324656,0 3.00004883,0 L23.6667567,0 C25.323559,0 26.6668056,1.34324656 26.6668056,3.00004883 L26.6668056,10.6666753 L25.6667242,10.6666753 C24.7463306,10.6666753 24,11.4128497 24,12.3333995 C24,13.2538322 24.7461743,13.9999674 25.6667242,13.9999674 Z M22.0000326,12.3333995 C22.0000326,10.6549566 23.1278097,9.23999102 24.6666819,8.80463804 L24.6666819,3.00004883 C24.6666819,2.44766422 24.2189851,1.99996745 23.6667567,1.99996745 L3.00004883,1.99996745 C2.44766422,1.99996745 1.99996745,2.44766422 1.99996745,3.00004883 L1.99996745,8.47139476 C3.5389959,8.90674774 4.66661675,10.3216742 4.66661675,12 C4.66661675,13.678482 3.5389959,15.0934476 1.99996745,15.5287615 L1.99996745,21.0001465 C1.99996745,21.5523358 2.44766422,22.0000326 3.00004883,22.0000326 L23.6667567,22.0000326 C24.2189851,22.0000326 24.6666819,21.5523358 24.6666819,21.0001465 L24.6666819,15.8620048 C23.1278097,15.4266908 22.0000326,14.0117253 22.0000326,12.3333995 Z" id="Fill-1" fill="#333337"></path>
                    <polygon id="Fill-2" fill="#E76558" points="13.0000814 15.414308 11.0001139 13.4143405 8.70713772 15.7071605 7.29295343 14.2929372 11.0001139 10.5858157 13.0000814 12.5857832 14.9191892 10.6666753 13.9999674 10.6666753 13.9999674 8.6667079 19.7476815 8.6667079"></polygon>
                </g>
            </g>
        </g>
    </g>
</svg>