<?xml version="1.0" encoding="UTF-8"?>
<svg width="16px" height="16px" viewBox="0 0 16 16" version="1.1" xmlns="http://www.w3.org/2000/svg" xmlns:xlink="http://www.w3.org/1999/xlink">
    <title>sousuo (1)</title>
    <defs>
        <polygon id="path-1" points="0 0 15.5044569 0 15.5044569 16 0 16"></polygon>
    </defs>
    <g id="页面-1" stroke="none" stroke-width="1" fill="none" fill-rule="evenodd">
        <g id="Market" transform="translate(-1038.000000, -415.000000)">
            <g id="sousuo-(1)" transform="translate(1038.000000, 415.000000)">
                <mask id="mask-2" fill="white">
                    <use xlink:href="#path-1"></use>
                </mask>
                <g id="Clip-2"></g>
                <path d="M6.91358703,13.8271451 C3.06168428,13.8271451 2.27373675e-13,10.7654609 2.27373675e-13,6.91358703 C2.27373675e-13,3.06168428 3.06168428,0 6.91358703,0 C10.7654609,0 13.8271451,3.06168428 13.8271451,6.91358703 C13.8271451,10.7654609 10.7654609,13.8271451 6.91358703,13.8271451 Z M6.91358703,11.8518883 C9.67903342,11.8518883 11.8518883,9.67903342 11.8518883,6.91358703 C11.8518883,4.14811171 9.67903342,1.97528578 6.91358703,1.97528578 C4.14811171,1.97528578 1.97528578,4.14811171 1.97528578,6.91358703 C1.97528578,9.67903342 4.14811171,11.8518883 6.91358703,11.8518883 Z M12.7407177,11.8518883 L15.506193,14.6172189 L14.123383,16 L11.3580524,13.2345536 L12.7407177,11.8518883 Z" id="Fill-1" fill="#FFFFFF" mask="url(#mask-2)"></path>
            </g>
        </g>
    </g>
</svg>