<?xml version="1.0" encoding="UTF-8"?>
<svg width="32px" height="32px" viewBox="0 0 32 32" version="1.1" xmlns="http://www.w3.org/2000/svg" xmlns:xlink="http://www.w3.org/1999/xlink">
    <title>0x0E09FaBB73Bd3Ade0a17ECC321fD13a19e81cE82备份</title>
    <defs>
        <rect id="path-1" x="0" y="0" width="32" height="32" rx="16"></rect>
        <linearGradient x1="49.9993382%" y1="100.016458%" x2="49.9993382%" y2="0.0246875482%" id="linearGradient-3">
            <stop stop-color="#05AAC5" offset="0%"></stop>
            <stop stop-color="#71E0EC" offset="100%"></stop>
        </linearGradient>
        <linearGradient x1="49.9514159%" y1="99.9940261%" x2="49.9514159%" y2="0.0266689993%" id="linearGradient-4">
            <stop stop-color="#05AAC5" offset="0%"></stop>
            <stop stop-color="#71E0EC" offset="100%"></stop>
        </linearGradient>
        <linearGradient x1="50%" y1="99.990532%" x2="50%" y2="-0.00492444865%" id="linearGradient-5">
            <stop stop-color="#05AAC5" offset="0%"></stop>
            <stop stop-color="#71E0EC" offset="100%"></stop>
        </linearGradient>
    </defs>
    <g id="页面-1" stroke="none" stroke-width="1" fill="none" fill-rule="evenodd">
        <g id="kepler-icon-new" transform="translate(-349.000000, -661.000000)">
            <g id="0x0E09FaBB73Bd3Ade0a17ECC321fD13a19e81cE82备份" transform="translate(349.000000, 661.000000)">
                <mask id="mask-2" fill="white">
                    <use xlink:href="#path-1"></use>
                </mask>
                <use id="蒙版" fill="#FFFFFF" xlink:href="#path-1"></use>
                <g id="编组-9" mask="url(#mask-2)" fill-rule="nonzero">
                    <g transform="translate(5.000000, 4.000000)">
                        <path d="M11,20.5000679 C7.22224419,20.5000679 4.15469777,17.4323403 4.15469777,13.6545845 C4.15469777,9.98211871 10.3514061,3.4961799 10.6143594,3.22434676 L10.9385657,2.88256188 L11.2716519,3.2156481 C11.5434851,3.48730002 17.8454835,9.97342005 17.8454835,13.6458858 C17.8454835,17.4323403 14.7777558,20.5000679 11,20.5000679 Z M10.9474456,4.20602685 C10.4039605,4.79336766 9.26461721,6.06427822 8.13397255,7.55428629 C6.12675662,10.2012162 5.06624491,12.3048423 5.06624491,13.6458858 C5.06624491,16.9151324 7.73075339,19.5796409 11,19.5796409 C14.2692466,19.5796409 16.9339363,16.9151324 16.9339363,13.6458858 C16.9339363,12.3048423 15.8558461,10.2012162 13.813473,7.55428629 C12.6654311,6.07297688 11.4996293,4.79336766 10.9474456,4.20602685 Z" id="形状" fill="url(#linearGradient-3)"></path>
                        <path d="M11,22.6912243 C6.01276792,22.6912243 1.96336019,18.6331179 1.96336019,13.6545845 C1.96336019,8.78134111 8.76498789,1.9797134 9.05421836,1.69936282 C9.22946012,1.52393983 9.52738925,1.52393983 9.70281224,1.69936282 C9.878054,1.87460459 9.878054,2.17271493 9.70281224,2.3479567 C9.63267929,2.41808965 2.88360599,9.16698173 2.88360599,13.6545845 C2.88360599,18.1334886 6.52979456,21.7796772 11.0086987,21.7796772 C15.4876028,21.7796772 19.1337913,18.1334886 19.1337913,13.6545845 C19.1337913,11.8140929 17.9417124,9.27227176 15.6804231,6.28337574 C13.9450403,3.99580922 12.2007776,2.26024521 12.1831991,2.24266666 C11.9992586,2.0674249 11.9992586,1.77819443 12.1831991,1.59407278 C12.3586221,1.41013235 12.6478525,1.41013235 12.8317929,1.59407278 C13.1299033,1.88330325 20.0542184,8.77264244 20.0542184,13.6545845 C20.0366398,18.6331179 15.9872321,22.6912243 11,22.6912243 Z" id="路径" fill="url(#linearGradient-4)"></path>
                        <path d="M11,24.8825619 C4.93467767,24.8825619 0,19.9478842 0,13.8825619 C0,11.3757166 1.2622119,8.29059167 3.74259872,4.72323471 C5.57457289,2.0937021 7.37138997,0.218053407 7.45022159,0.139221795 C7.62546335,-0.0448998541 7.91469382,-0.0448998541 8.09881547,0.130341913 C8.28293712,0.305764901 8.28293712,0.594995367 8.10751413,0.778935794 C8.09011681,0.796514337 6.27572118,2.68974157 4.48760276,5.25783989 C2.14748184,8.614798 0.911547142,11.5948141 0.911547142,13.8825619 C0.911547142,19.4395562 5.43430699,23.9710147 11,23.9710147 C16.565693,23.9710147 21.0884529,19.4482549 21.0884529,13.8825619 C21.0884529,11.5948141 19.8438195,8.614798 17.48612,5.25783989 C15.6804231,2.68974157 13.8486301,0.796514337 13.8310516,0.778935794 C13.6558098,0.594995367 13.6558098,0.305764901 13.8397502,0.130341913 C14.0238719,-0.0448998541 14.3131024,-0.0448998541 14.4885253,0.139221795 C14.7951531,0.454729464 22,7.93992691 22,13.8825619 C22,19.9478842 17.0653223,24.8825619 11,24.8825619 Z" id="路径" fill="url(#linearGradient-5)"></path>
                    </g>
                </g>
            </g>
        </g>
    </g>
</svg>