
<svg width="20px" height="19px" viewBox="0 0 20 19" version="1.1" xmlns="http://www.w3.org/2000/svg" xmlns:xlink="http://www.w3.org/1999/xlink">
    <title>wangzhijiancha</title>
    <g id="页面-1" stroke="none" stroke-width="1" fill="none" fill-rule="evenodd">
        <g id="个人中心" transform="translate(-643.000000, -859.000000)" fill="#FFFFFF">
            <path d="M643,859 L643,877.33351 L655.50025,877.33351 L655.50025,875.66702 L644.66649,875.66702 L644.66649,865.665838 L661.33351,865.665838 L661.33351,875.664655 L655.499598,875.664655 L655.499598,877.331024 L663,877.331024 L663,859 L643,859 Z M644.66649,863.999348 L661.33351,863.999348 L661.33351,860.66649 L644.66649,860.66649 L644.66649,863.999348 Z M646.33298,861.498416 C645.874491,861.498416 645.498416,861.872005 645.498416,862.33298 C645.498416,862.793833 645.872005,863.167392 646.33298,863.167392 C646.793833,863.167392 647.167392,862.793833 647.167392,862.33298 C647.167392,861.872005 646.791347,861.498416 646.33298,861.498416 Z M648.83376,861.498416 C648.375393,861.498416 647.999348,861.872005 647.999348,862.33298 C647.999348,862.793833 648.372907,863.167392 648.83376,863.167392 C649.292279,863.167392 649.668324,862.793833 649.668324,862.33298 C649.668324,861.872005 649.292279,861.498416 648.83376,861.498416 Z M650.50025,863.164906 L659.66702,863.164906 L659.66702,861.498416 L650.50025,861.498416 L650.50025,863.164906 Z" id="wangzhijiancha"></path>
        </g>
    </g>
</svg>