<?xml version="1.0" encoding="UTF-8"?>
<svg width="21px" height="22px" viewBox="0 0 21 22" version="1.1" xmlns="http://www.w3.org/2000/svg" xmlns:xlink="http://www.w3.org/1999/xlink">
    <title>baoguo_dabao</title>
    <g id="页面-1" stroke="none" stroke-width="1" fill="none" fill-rule="evenodd">
        <g id="kepler-bridge-&amp;-侧拉框icon" transform="translate(-20.000000, -240.000000)" fill="#FFFFFF">
            <path d="M30.8466613,240.885258 L40.8466853,247.135314 L37.6667595,249.122778 L40.8466853,251.110241 L37.6667595,253.097704 L40.8466853,255.085167 L30.8466613,261.335224 L20.8466853,255.085174 L24.0267779,253.097704 L20.8466853,251.110241 L24.0267779,249.122778 L20.8466853,247.135307 L30.8466613,240.885258 Z M35.7462,254.315142 L30.846661,257.360864 L25.9471174,254.315142 L24.6706605,255.080897 L30.8466605,258.904305 L37.0227147,255.08089 L35.7462,254.315142 Z M35.7462042,250.340219 L30.846661,253.385788 L25.9471131,250.340219 L24.6706503,251.105977 L30.8466605,254.929219 L37.0227248,251.10597 L35.7462042,250.340219 Z M30.8466605,243.316337 L24.6775386,247.135315 L30.8466605,250.954293 L37.0158254,247.135315 L30.8466605,243.316337 Z" id="baoguo_dabao"></path>
        </g>
    </g>
</svg>