<?xml version="1.0" encoding="UTF-8"?>
<svg width="14px" height="14px" viewBox="0 0 14 14" version="1.1" xmlns="http://www.w3.org/2000/svg" xmlns:xlink="http://www.w3.org/1999/xlink">
    <title>anniu_xuanzhong</title>
    <g id="页面-1" stroke="none" stroke-width="1" fill="none" fill-rule="evenodd">
        <g id="cliam-注册输入" transform="translate(-644.000000, -611.000000)" fill="#1ACEB3">
            <path d="M651,611 C652.925021,611 654.674912,611.787687 655.943623,613.056394 C657.212337,614.325103 658.000026,616.07499 658.000026,618 C658.000026,619.92502 657.212339,621.674904 655.94363,622.943609 C654.674918,624.212317 652.925024,625 651,625 C649.074988,625 647.325099,624.212315 646.05639,622.943606 C644.787686,621.674902 644,619.925019 644,618 C644,616.074991 644.787689,614.325105 646.056397,613.056397 C647.325105,611.787689 649.074991,611 651,611 Z M651,612.435858 C649.469867,612.435858 648.078722,613.061629 647.070186,614.07017 C646.061653,615.078708 645.435884,616.469856 645.435884,618 C645.435884,619.530144 646.061653,620.921292 647.070186,621.92983 C648.078722,622.938371 649.469867,623.564142 651,623.564142 C652.530145,623.564142 653.921295,622.938372 654.929834,621.929834 C655.938372,620.921295 656.564142,619.530145 656.564142,618 C656.564142,616.469855 655.938372,615.078705 654.929834,614.070166 C653.921295,613.061628 652.530145,612.435858 651,612.435858 Z M653.60263,615.382024 L654.605169,616.384584 L650.461537,620.528216 L647.753804,617.820483 L648.756432,616.817939 L650.461534,618.52312 L653.60263,615.382024 Z" id="anniu_xuanzhong"></path>
        </g>
    </g>
</svg>