<?xml version="1.0" encoding="UTF-8"?>
<svg width="32px" height="32px" viewBox="0 0 32 32" version="1.1" xmlns="http://www.w3.org/2000/svg" xmlns:xlink="http://www.w3.org/1999/xlink">
    <title>编组</title>
    <defs>
        <polygon id="path-1" points="0 0 13.9382178 0 13.9382178 13.2203816 0 13.2203816"></polygon>
        <polygon id="path-3" points="0 0 13.2204191 0 13.2204191 18.8429194 0 18.8429194"></polygon>
        <polygon id="path-5" points="-5.32915379e-15 0 9.64620072 0 9.64620072 10.0707824 -5.32915379e-15 10.0707824"></polygon>
    </defs>
    <g id="页面-1" stroke="none" stroke-width="1" fill="none" fill-rule="evenodd">
        <g id="kepler-homepage-下拉菜单new" transform="translate(-1435.000000, -354.000000)">
            <g id="编组" transform="translate(1435.000000, 354.000000)">
                <path d="M0,24.3994937 C0.893638963,26.3015235 2.2339099,27.9519242 3.87718558,29.2288192 L11.967937,18.7796559 L0,24.3994937 Z" id="Fill-1" fill="#1D3285"></path>
                <g transform="translate(3.877111, 18.779618)">
                    <mask id="mask-2" fill="white">
                        <use xlink:href="#path-1"></use>
                    </mask>
                    <g id="Clip-4"></g>
                    <path d="M13.9382178,11.8554352 L8.09075142,0 L0,10.4491633 C2.23615994,12.1824404 5.04120377,13.2204566 8.09075142,13.2204566 C10.1904092,13.2204566 12.1753152,12.7269489 13.9382178,11.8554352" id="Fill-3" fill="#3353B6" mask="url(#mask-2)"></path>
                </g>
                <path d="M13.2204191,2.16794637 L13.2204191,15.390653 L19.9588994,4.01372521 C17.9837435,2.8418319 15.6812075,2.16794637 13.2204191,2.16794637" id="Fill-5" fill="#B1CDFC"></path>
                <g transform="translate(0.000000, 2.167909)">
                    <mask id="mask-4" fill="white">
                        <use xlink:href="#path-3"></use>
                    </mask>
                    <g id="Clip-8"></g>
                    <path d="M13.2204191,3.96981203 L13.2204191,0 C5.91792997,0 -3.75005859e-05,5.91796747 -3.75005859e-05,13.2227066 C-3.75005859e-05,15.231988 0.449219519,17.1362678 1.25248207,18.8429194 L4.85591337,17.150893 C4.29190456,15.9572493 3.96977453,14.6289786 3.96977453,13.2227066 C3.96977453,8.11287676 8.11283926,3.96981203 13.2204191,3.96981203" id="Fill-7" fill="#7598D9" mask="url(#mask-4)"></path>
                </g>
                <path d="M13.2204191,6.1377209 C8.11283926,6.1377209 3.96977453,10.2807856 3.96977453,15.3906155 C3.96977453,16.7968875 4.29190456,18.1251582 4.85591337,19.3188019 L13.2204191,15.3906155 L13.2204191,6.1377209 Z" id="Fill-9" fill="#85ABEF"></path>
                <g transform="translate(22.353799, 0.000113)">
                    <mask id="mask-6" fill="white">
                        <use xlink:href="#path-5"></use>
                    </mask>
                    <g id="Clip-12"></g>
                    <path d="M3.00304692,10.0707824 L9.64627572,8.69863592 C8.88463882,4.99995312 6.57985281,1.86490414 3.43280364,0 L-5.32915379e-15,5.79571556 C1.26451976,6.99948437 2.29241082,8.44963203 3.00304692,10.0707824" id="Fill-11" fill="#7598D9" mask="url(#mask-6)"></path>
                </g>
                <path d="M25.3568462,10.0708949 C24.6462101,8.44974453 23.618319,6.99959687 22.3537993,5.79582806 L19.0507477,11.3747902 L25.3568462,10.0708949 Z" id="Fill-13" fill="#85ABEF"></path>
                <path d="M26.1698214,12.7124361 L22.2806356,13.5179487 C22.4051376,14.1213331 22.4711386,14.7487179 22.4711386,15.390728 C22.4711386,19.0286598 20.3643557,22.1682089 17.3073079,23.6768575 L19.0698355,27.2465382 C23.4379037,25.0880045 26.4409506,20.5909342 26.4409506,15.390728 C26.4409506,14.4727136 26.3483242,13.5768246 26.1698214,12.7124361" id="Fill-15" fill="#E07D26"></path>
                <path d="M22.4710261,15.390578 C22.4710261,14.7485679 22.4050251,14.1211831 22.2805231,13.5181737 L13.2203816,15.390578 L17.3071954,23.6770825 C20.3642432,22.1680589 22.4710261,19.0285098 22.4710261,15.390578" id="Fill-17" fill="#FFA04C"></path>
                <path d="M28.4989828,23.8747105 L20.2226035,23.8747105 C20.0786012,23.8747105 19.9488492,23.7940843 19.8854732,23.6647073 L18.3839497,20.6252848 C18.2935733,20.4396569 18.3693245,20.2150284 18.5572025,20.1246519 C18.7428304,20.0320255 18.9674589,20.1100267 19.0578353,20.2930296 L20.4543571,23.1250738 L28.4989828,23.1250738 C28.706736,23.1250738 28.8751137,23.2912014 28.8751137,23.4985797 C28.8751137,23.7063329 28.706736,23.8747105 28.4989828,23.8747105" id="Fill-19" fill="#85ABEF"></path>
                <polygon id="Fill-21" fill="#EBF3FD" points="28.3744434 25.1246426 31.6238691 25.1246426 31.6238691 21.8752168 28.3744434 21.8752168"></polygon>
                <path d="M28.7479492,24.7488867 L31.2481133,24.7488867 L31.2481133,22.2487226 L28.7479492,22.2487226 L28.7479492,24.7488867 Z M28.0009375,25.5007734 L32,25.5007734 L32,21.4990859 L28.0009375,21.4990859 L28.0009375,25.5007734 Z" id="Fill-23" fill="#85ABEF"></path>
                <path d="M22.9691089,29.3752965 L13.7210894,29.3752965 C13.5793372,29.3752965 13.4473351,29.2946702 13.3839591,29.1652932 L11.8846857,26.1258707 C11.7920593,25.9402428 11.8700605,25.7156143 12.0556884,25.6252379 C12.2416913,25.5326114 12.4659448,25.6106127 12.5563212,25.7936155 L13.952843,28.6234097 L22.9691089,28.6234097 C23.1768621,28.6234097 23.3452398,28.7940374 23.3452398,28.9991656 C23.3452398,29.2069189 23.1768621,29.3752965 22.9691089,29.3752965" id="Fill-24" fill="#85ABEF"></path>
                <polygon id="Fill-25" fill="#EBF3FD" points="22.8738574 30.6252285 26.1232832 30.6252285 26.1232832 27.3758027 22.8738574 27.3758027"></polygon>
                <path d="M23.2473632,30.2494726 L25.7497773,30.2494726 L25.7497773,27.7493086 L23.2473632,27.7493086 L23.2473632,30.2494726 Z M22.5003516,31.0013594 L26.4994141,31.0013594 L26.4994141,26.9996719 L22.5003516,26.9996719 L22.5003516,31.0013594 Z" id="Fill-26" fill="#85ABEF"></path>
                <path d="M29.4584728,18.7623307 C29.4584728,19.3165893 29.0092158,19.7632213 28.4575821,19.7632213 C27.9055735,19.7632213 27.4589415,19.3165893 27.4589415,18.7623307 C27.4589415,18.210322 27.9055735,17.7636901 28.4575821,17.7636901 C29.0092158,17.7636901 29.4584728,18.210322 29.4584728,18.7623307" id="Fill-27" fill="#B1CDFC"></path>
                <path d="M1.99953124,5.20020625 C1.99953124,5.75446491 1.55289926,6.20109689 0.998640604,6.20109689 C0.446631979,6.20109689 0,5.75446491 0,5.20020625 C0,4.64819763 0.446631979,4.20156565 0.998640604,4.20156565 C1.55289926,4.20156565 1.99953124,4.64819763 1.99953124,5.20020625" id="Fill-28" fill="#B1CDFC"></path>
                <path d="M31.04051,28.0129752 C31.04051,28.4277317 30.7037547,28.764862 30.2908733,28.764862 C29.8761168,28.764862 29.5416116,28.4277317 29.5416116,28.0129752 C29.5416116,27.5982187 29.8761168,27.2633385 30.2908733,27.2633385 C30.7037547,27.2633385 31.04051,27.5982187 31.04051,28.0129752" id="Fill-29" fill="#B1CDFC"></path>
                <path d="M22.8324943,2.22142221 C22.8324943,2.63430366 22.497614,2.97105892 22.0828575,2.97105892 C21.6681011,2.97105892 21.3309708,2.63430366 21.3309708,2.22142221 C21.3309708,1.80666573 21.6681011,1.46953546 22.0828575,1.46953546 C22.497614,1.46953546 22.8324943,1.80666573 22.8324943,2.22142221" id="Fill-30" fill="#B1CDFC"></path>
                <path d="M31.5945812,16.2061407 C31.5945812,16.48177 31.3699527,16.7041485 31.0916983,16.7041485 C30.818319,16.7041485 30.5936905,16.48177 30.5936905,16.2061407 C30.5936905,15.9305114 30.818319,15.7055079 31.0916983,15.7055079 C31.3699527,15.7055079 31.5945812,15.9305114 31.5945812,16.2061407" id="Fill-31" fill="#B1CDFC"></path>
                <path d="M28.7820372,12.3608681 C28.7820372,12.6391225 28.5574087,12.861501 28.2791544,12.861501 C28.0057751,12.861501 27.7811466,12.6391225 27.7811466,12.3608681 C27.7811466,12.0852388 28.0057751,11.8628604 28.2791544,11.8628604 C28.5574087,11.8628604 28.7820372,12.0852388 28.7820372,12.3608681" id="Fill-32" fill="#B1CDFC"></path>
                <path d="M20.3103548,0.498007781 C20.3103548,0.776262129 20.0879764,1.00089064 19.8123471,1.00089064 C19.5340927,1.00089064 19.3117142,0.776262129 19.3117142,0.498007781 C19.3117142,0.22462851 19.5340927,0 19.8123471,0 C20.0879764,0 20.3103548,0.22462851 20.3103548,0.498007781" id="Fill-33" fill="#B1CDFC"></path>
                <path d="M4.99995312,1.99949374 C4.99995312,2.27512305 4.77532461,2.49975156 4.49969531,2.49975156 C4.223691,2.49975156 3.99906249,2.27512305 3.99906249,1.99949374 C3.99906249,1.72348943 4.223691,1.49886092 4.49969531,1.49886092 C4.77532461,1.49886092 4.99995312,1.72348943 4.99995312,1.99949374" id="Fill-34" fill="#B1CDFC"></path>
            </g>
        </g>
    </g>
</svg>