<?xml version="1.0" encoding="UTF-8"?>
<svg width="32px" height="32px" viewBox="0 0 32 32" version="1.1" xmlns="http://www.w3.org/2000/svg" xmlns:xlink="http://www.w3.org/1999/xlink">
    <title>矩形 2备份 3</title>
    <defs>
        <rect id="path-1" x="0" y="0" width="32" height="32" rx="16"></rect>
    </defs>
    <g id="页面-1" stroke="none" stroke-width="1" fill="none" fill-rule="evenodd">
        <g id="kepler-homepage-下拉菜单new" transform="translate(-1115.000000, -292.000000)">
            <g id="编组-15备份-2" transform="translate(1085.000000, 80.000000)">
                <g id="编组-19" transform="translate(30.000000, 212.000000)">
                    <mask id="mask-2" fill="white">
                        <use xlink:href="#path-1"></use>
                    </mask>
                    <use id="蒙版" fill="#B1CDFC" xlink:href="#path-1"></use>
                    <g id="Twitter" mask="url(#mask-2)" fill="#2E3689">
                        <g transform="translate(4.997920, 7.000000)" id="Fill-1">
                            <path d="M19.6730552,4.44230978 C19.7259501,4.54809972 19.7259501,4.75967959 19.7259501,5.02403049 C19.7259501,7.08662442 19.2500194,9.09616845 18.2452319,11.0000775 C17.1875494,13.0096215 15.7596021,14.6490557 13.908712,15.8653921 C11.899044,17.1875494 9.51920425,17.875091 6.92790853,17.875091 C4.38938382,17.875091 2.11536495,17.1875494 0,15.8653921 C0.317245867,15.918287 0.687541639,15.918287 1.05768248,15.918287 C3.17301644,15.918287 5.02403049,15.2836714 6.66343368,13.961514 C5.65864617,13.961514 4.75967959,13.6442682 4.01924299,13.0625165 C3.27880638,12.4807957 2.74998063,11.7403591 2.43273477,10.8413926 C2.69708566,10.8942875 3.01445548,10.8942875 3.22591141,10.8942875 C3.64910215,10.8942875 4.01924299,10.8413926 4.44227879,10.7884976 C3.43752227,10.5768867 2.5385247,10.048061 1.85098307,9.20195838 C1.16347241,8.35576282 0.846102598,7.40387029 0.846102598,6.34618781 L0.846102598,6.24039787 C1.48071828,6.61053871 2.16825992,6.82214957 2.85577057,6.82214957 C2.27404986,6.39908278 1.74519313,5.87025704 1.37505229,5.1827154 C1.00478751,4.54809972 0.793331577,3.80766311 0.793331577,3.01448647 C0.793331577,2.22115489 1.00478751,1.48074927 1.42782331,0.740436608 C2.5385247,2.16825992 3.91345305,3.27883736 5.55285624,4.07213795 C7.19225942,4.86534558 8.88458857,5.34140031 10.7355716,5.44709728 C10.6826767,5.12982043 10.6297817,4.75967959 10.6297817,4.44230978 C10.6297817,3.64910215 10.8413616,2.90869653 11.2115024,2.16825992 C11.5817982,1.42794726 12.1635189,0.898997568 12.8509366,0.528856731 C13.5913422,0.211610864 14.3317788,0 15.1778504,0 C15.8124971,0 16.4471128,0.105789938 17.0288645,0.370171823 C17.6105852,0.63464667 18.086547,0.951892537 18.5095828,1.4278543 C19.5672652,1.21636738 20.5192817,0.846102598 21.3653533,0.370171823 C21.0481075,1.4278543 20.3605658,2.27404986 19.4087043,2.85580156 C20.2547759,2.75001162 21.1010024,2.48562974 22,2.11536495 C21.3124584,3.01448647 20.5721767,3.80766311 19.6730552,4.44230978 Z"></path>
                        </g>
                    </g>
                </g>
            </g>
        </g>
    </g>
</svg>