<?xml version="1.0" encoding="UTF-8"?>
<svg width="30px" height="30px" viewBox="0 0 30 30" version="1.1" xmlns="http://www.w3.org/2000/svg" xmlns:xlink="http://www.w3.org/1999/xlink">
    <title>编组 19</title>
    <defs>
        <rect id="path-1" x="0" y="0" width="30" height="30" rx="15"></rect>
    </defs>
    <g id="页面-1" stroke="none" stroke-width="1" fill="none" fill-rule="evenodd">
        <g id="kepler-盲盒-NFT-Whitelist-" transform="translate(-215.000000, -631.000000)">
            <g id="编组-19" transform="translate(215.000000, 631.000000)">
                <mask id="mask-2" fill="white">
                    <use xlink:href="#path-1"></use>
                </mask>
                <use id="蒙版" fill="#D8E7FF" xlink:href="#path-1"></use>
                <g id="Twitter" mask="url(#mask-2)" fill="#2E3689">
                    <g transform="translate(6.000000, 7.500000)" id="Fill-1">
                        <path d="M16.5087734,3.72779342 C16.5531606,3.81656774 16.5531606,3.99411638 16.5531606,4.21594817 C16.5531606,5.94678741 16.1537801,7.63310948 15.3106061,9.23078723 C14.4230449,10.9171093 13.2247736,12.2928512 11.671587,13.3135479 C9.98516094,14.4230449 7.98810275,15 5.81359993,15 C3.68338025,15 1.77512239,14.4230449 0,13.3135479 C0.266218952,13.3579351 0.576955081,13.3579351 0.887561194,13.3579351 C2.66265758,13.3579351 4.21594817,12.8253932 5.59166412,11.7158962 C4.74849009,11.7158962 3.99411638,11.4496772 3.37277414,10.9614965 C2.7514319,10.4733417 2.3076643,9.85199946 2.04144535,9.09762575 C2.26327714,9.14201291 2.52960011,9.14201291 2.70704474,9.14201291 C3.06216803,9.14201291 3.37277414,9.09762575 3.72776742,9.05323859 C2.88461939,8.87566394 2.13021967,8.43189635 1.55326459,7.7218838 C0.976335515,7.01179324 0.710012551,6.21300637 0.710012551,5.32544517 L0.710012551,5.23667085 C1.24255447,5.54727696 1.81950955,5.72485161 2.39643863,5.72485161 C1.90828387,5.36983233 1.46449027,4.92606474 1.15388416,4.34910966 C0.843174033,3.81656774 0.665729402,3.1952255 0.665729402,2.52962611 C0.665729402,1.86389671 0.843174033,1.24258047 1.19816731,0.621342241 C2.13021967,1.81950955 3.28399982,2.7514579 4.65971577,3.4171613 C6.03543172,4.08278669 7.45556083,4.48227114 9.00882543,4.57096745 C8.96443827,4.3047225 8.9200511,3.99411638 8.9200511,3.72779342 C8.9200511,3.06216803 9.09759975,2.44085179 9.40820586,1.81950955 C9.71894199,1.19827132 10.2070967,0.754399712 10.7839478,0.443793598 C11.4052641,0.177574646 12.0266063,0 12.7365928,0 C13.2691608,0 13.8017027,0.0887743215 14.2898834,0.310632116 C14.7780382,0.53256792 15.1774446,0.798786872 15.5324379,1.19819331 C16.4199991,1.02072268 17.21889,0.710012551 17.9288765,0.310632116 C17.6626576,1.19819331 17.0857025,1.90828387 16.2869416,2.39646463 C16.9969282,2.30769031 17.7070447,2.08583251 18.4614445,1.77512239 C17.8844894,2.52962611 17.2632771,3.1952255 16.5087734,3.72779342 Z"></path>
                    </g>
                </g>
            </g>
        </g>
    </g>
</svg>