<?xml version="1.0" encoding="UTF-8"?>
<svg width="32px" height="32px" viewBox="0 0 32 32" version="1.1" xmlns="http://www.w3.org/2000/svg" xmlns:xlink="http://www.w3.org/1999/xlink">
    <title>编组</title>
    <defs>
        <polygon id="path-1" points="0 0 32 0 32 32 0 32"></polygon>
        <polygon id="path-3" points="0 0 15.0246274 0 15.0246274 29.9999537 0 29.9999537"></polygon>
        <polygon id="path-5" points="0 5.32916003e-15 16.0011438 5.32916003e-15 16.0011438 4.99988398 0 4.99988398"></polygon>
    </defs>
    <g id="页面-1" stroke="none" stroke-width="1" fill="none" fill-rule="evenodd">
        <g id="kepler-homepage-下拉菜单new" transform="translate(-1115.000000, -416.000000)">
            <g id="编组-15备份-2" transform="translate(1085.000000, 80.000000)">
                <g id="编组" transform="translate(30.000000, 336.000000)">
                    <g transform="translate(0.000000, 0.000000)">
                        <mask id="mask-2" fill="white">
                            <use xlink:href="#path-1"></use>
                        </mask>
                        <g id="Clip-2"></g>
                        <path d="M26.0013992,32 L6.00081329,32 C2.68538261,32 -3.75006299e-05,29.3142049 -3.75006299e-05,25.9987742 L-3.75006299e-05,5.99856326 C-3.75006299e-05,2.68538261 2.68538261,-3.75006299e-05 6.00081329,-3.75006299e-05 L26.0013992,-3.75006299e-05 C29.3142049,-3.75006299e-05 32,2.68538261 32,5.99856326 L32,25.9987742 C32,29.3142049 29.3142049,32 26.0013992,32" id="Fill-1" fill="#C3D8FD" mask="url(#mask-2)"></path>
                    </g>
                    <path d="M21.9997445,32 L6.0008508,32 C2.68542011,32 0,29.3142049 0,25.9987742 L0,9.99988047 C0,6.68444978 2.68542011,3.99902967 6.0008508,3.99902967 L23.9992781,3.99902967 C26.2088152,3.99902967 28.0009703,5.79080977 28.0009703,8.00034688 L28.0009703,25.9987742 C28.0009703,29.3142049 25.3129252,32 21.9997445,32" id="Fill-3" fill="#EBF3FD"></path>
                    <path d="M25.7620702,3.14210278 C26.5919592,3.14210278 27.2613454,3.81336405 27.2613454,4.64100295 C27.2613454,3.81336405 27.9326067,3.14210278 28.7624956,3.14210278 C27.9326067,3.14210278 27.2613454,2.4704665 27.2613454,1.64282759 C27.2613454,2.4704665 26.5919592,3.14210278 25.7620702,3.14210278" id="Fill-5" fill="#FFFFFF"></path>
                    <path d="M1.49890018,8.50094279 C2.32916412,8.50094279 3.0004254,9.16995403 3.0004254,9.99984297 C3.0004254,9.16995403 3.67168667,8.50094279 4.49932557,8.50094279 C3.67168667,8.50094279 3.0004254,7.82705647 3.0004254,6.99941757 C3.0004254,7.82705647 2.32916412,8.50094279 1.49890018,8.50094279" id="Fill-7" fill="#C3D8FD"></path>
                    <path d="M4.49951308,28.9991996 C5.32940202,28.9991996 6.0010383,29.6708359 6.0010383,30.5007248 C6.0010383,29.6708359 6.67004954,28.9991996 7.49993848,28.9991996 C6.67004954,28.9991996 6.0010383,28.3279383 6.0010383,27.5002994 C6.0010383,28.3279383 5.32940202,28.9991996 4.49951308,28.9991996" id="Fill-9" fill="#C3D8FD"></path>
                    <path d="M23.0008238,27.9983453 C23.8307128,27.9983453 24.500099,28.6722316 24.500099,29.4998705 C24.500099,28.6722316 25.1713603,27.9983453 26.0012492,27.9983453 C25.1713603,27.9983453 24.500099,27.329334 24.500099,26.4994451 C24.500099,27.329334 23.8307128,27.9983453 23.0008238,27.9983453" id="Fill-11" fill="#C3D8FD"></path>
                    <path d="M32.0000375,10.5444271 L5.46384178,10.5444271 C5.00483407,10.5444271 4.57282681,10.7495556 4.27994689,11.1058115 C3.98181688,11.4646926 3.86969,11.9214502 3.96006652,12.3875831 C4.09431877,13.0787197 4.75807992,13.6011035 5.51521764,13.6134787 L6.7336131,13.6134787 L6.7336131,14.5314941 L5.54184309,14.5314941 L5.50771751,14.5314941 L3.61318569,14.5314941 C2.84667282,14.528869 2.16528637,15.0561279 2.03103412,15.7566397 C1.93840756,16.2253975 2.05315949,16.6821552 2.34866445,17.0410362 C2.64154437,17.3999173 3.07617667,17.6001706 3.53518438,17.6001706 L6.7336131,17.5979206 L6.7336131,18.515936 L3.53518438,18.518186 C3.11030224,18.518186 2.7146706,18.6865639 2.42179068,18.994069 C2.12891076,19.3019492 1.98003326,19.707331 2.00178362,20.1318382 C2.04340932,20.9328516 2.78067171,21.5846126 3.64506123,21.5846126 L5.0367096,21.5846126 L5.06333505,21.5846126 L6.7336131,21.5846126 L6.7336131,22.5003779 L5.04158468,22.502628 C4.18469529,22.5123781 3.45943311,23.159639 3.41780741,23.9554024 C3.39605704,24.3802845 3.5423095,24.7830413 3.83518942,25.0905464 C4.12844434,25.4029267 4.52370098,25.5690545 4.95120816,25.5713045 L32.0000375,25.5713045 L32.0000375,10.5444271 Z" id="Fill-13" fill="#85ABEF"></path>
                    <g transform="translate(6.733426, 0.000000)">
                        <mask id="mask-4" fill="white">
                            <use xlink:href="#path-3"></use>
                        </mask>
                        <g id="Clip-16"></g>
                        <path d="M15.0246274,-7.50012598e-05 L0,-7.50012598e-05 L0,26.4603695 C0,27.2268823 0.527258856,27.9056437 1.22552058,28.042146 C1.69427846,28.1302725 2.15103613,28.0177706 2.50991716,27.7200156 C2.86617314,27.4271357 3.06905155,26.9947534 3.06905155,26.5361207 L3.06642651,18.2496065 C3.06642651,18.1224794 3.12005241,18.0081025 3.20330381,17.9248511 C3.28355515,17.8419747 3.40093213,17.7905988 3.52543422,17.7905988 C3.77931348,17.7905988 3.98444193,17.9957273 3.98444193,18.2496065 L3.98444193,26.5334957 L3.98669196,26.5334957 C3.98669196,26.5578711 3.98669196,26.5773714 3.98444193,26.5994968 L3.98669196,28.3912769 C3.98669196,29.1555397 4.51432583,29.8365512 5.21258756,29.9685534 C5.68134543,30.0611799 6.13772809,29.946428 6.49435908,29.649048 C6.85061507,29.3580431 7.05349348,28.9237858 7.05349348,28.4670282 L7.05349348,28.4644031 L7.05349348,18.2469815 C7.05349348,17.9931022 7.25862192,17.7883488 7.51250119,17.7883488 C7.76638045,17.7883488 7.97113389,17.9931022 7.97113389,18.2469815 L7.97113389,28.4621531 L7.97113389,28.4644031 L7.97113389,28.4670282 C7.97113389,28.8919103 8.15451197,29.2875419 8.44739189,29.5777968 C8.75489705,29.8706767 9.16027886,30.0199292 9.58741104,29.9978039 C10.3884245,29.9565532 11.0401854,29.2215408 11.0401854,28.3545263 L11.0401854,27.0510044 L11.0401854,27.0487543 L11.0401854,18.2469815 C11.0401854,17.9931022 11.2453139,17.7883488 11.4969431,17.7883488 C11.7508224,17.7883488 11.9555758,17.9931022 11.9555758,18.2469815 L11.9555758,27.0390042 C11.9555758,27.0390042 11.9582009,27.0461293 11.9582009,27.0487543 C11.9555758,27.4736365 12.1340788,27.864018 12.4344589,28.1643981 C12.7442141,28.455028 13.1473458,28.6061555 13.574478,28.5844051 C14.3754915,28.5401544 15.0246274,27.805142 15.0246274,26.9411275 L15.0246274,-7.50012598e-05 Z" id="Fill-15" fill="#B1CDFC" mask="url(#mask-4)"></path>
                    </g>
                    <path d="M25.4348772,9.67283747 C24.8956182,9.27983087 23.7259735,7.95905869 23.7259735,7.95905869 C23.1229634,7.3582986 22.3073247,7.02154294 21.4579354,7.02154294 L16.3818502,7.02154294 C15.5054604,7.02154294 14.702197,7.6148029 14.5364442,8.47431734 C14.3140654,9.63158678 15.1953302,10.6444788 16.3162241,10.6444788 L19.7392816,10.6444788 C20.420293,10.6444788 21.1039295,10.7423554 21.7579405,11.1034865 L21.7579405,25.5716045 L27.7640413,25.5716045 L27.7640413,10.5443521 C27.7640413,10.5443521 26.257641,10.2660974 25.4348772,9.67283747" id="Fill-17" fill="#85ABEF"></path>
                    <path d="M32.0000375,10.0584565 L27.5003369,10.0584565 C27.2247073,10.0584565 27.0000785,10.2808352 27.0000785,10.5590899 L27.0000785,25.5593418 C27.0000785,25.8349714 27.2247073,26.0573502 27.5003369,26.0573502 L32.0000375,26.0573502 L32.0000375,10.0584565 Z" id="Fill-19" fill="#E07D26"></path>
                    <g transform="translate(6.245092, 0.000000)">
                        <mask id="mask-6" fill="white">
                            <use xlink:href="#path-5"></use>
                        </mask>
                        <g id="Clip-22"></g>
                        <path d="M0,-7.50012598e-05 L16.0011438,-7.50012598e-05 L16.0011438,4.49925057 C16.0011438,4.77525521 15.776515,4.99988398 15.5008854,4.99988398 L0.500633409,4.99988398 C0.224628773,4.99988398 0,4.77525521 0,4.49925057 L0,-7.50012598e-05 Z" id="Fill-21" fill="#2947AB" mask="url(#mask-6)"></path>
                    </g>
                    <path d="M18.9967691,2.49975449 C18.9967691,2.91263642 19.3312747,3.24939208 19.7464067,3.24939208 C20.1611636,3.24939208 20.4960443,2.91263642 20.4960443,2.49975449 C20.4960443,2.08499752 20.1611636,1.74786686 19.7464067,1.74786686 C19.3312747,1.74786686 18.9967691,2.08499752 18.9967691,2.49975449" id="Fill-23" fill="#B1CDFC"></path>
                    <path d="M28.7504204,23.5011947 C28.7504204,23.0864378 29.0871761,22.7493071 29.500058,22.7493071 C29.914815,22.7493071 30.2496956,23.0864378 30.2496956,23.5011947 C30.2496956,23.9140767 29.914815,24.2482073 29.500058,24.2482073 C29.0871761,24.2482073 28.7504204,23.9140767 28.7504204,23.5011947" id="Fill-25" fill="#FFA04C"></path>
                </g>
            </g>
        </g>
    </g>
</svg>