<?xml version="1.0" encoding="UTF-8"?>
<svg width="32px" height="32px" viewBox="0 0 32 32" version="1.1" xmlns="http://www.w3.org/2000/svg" xmlns:xlink="http://www.w3.org/1999/xlink">
    <title>矩形 2备份 3</title>
    <defs>
        <rect id="path-1" x="0" y="0" width="32" height="32" rx="16"></rect>
        <polygon id="path-3" points="0 0 20 0 20 15.4013235 0 15.4013235"></polygon>
    </defs>
    <g id="页面-1" stroke="none" stroke-width="1" fill="none" fill-rule="evenodd">
        <g id="kepler-homepage-下拉菜单new" transform="translate(-1115.000000, -354.000000)">
            <g id="编组-15备份-2" transform="translate(1085.000000, 80.000000)">
                <g id="编组-19" transform="translate(30.000000, 274.000000)">
                    <mask id="mask-2" fill="white">
                        <use xlink:href="#path-1"></use>
                    </mask>
                    <use id="蒙版" fill="#B1CDFC" xlink:href="#path-1"></use>
                    <g id="youtobe-(1)" mask="url(#mask-2)">
                        <g transform="translate(6.000000, 8.000000)">
                            <mask id="mask-4" fill="white">
                                <use xlink:href="#path-3"></use>
                            </mask>
                            <g id="Clip-2" stroke="none" fill="none"></g>
                            <path d="M9.99909312,0 C0.17032652,0 -0.00167424495,0.87406748 -0.00167424495,7.70066175 C-0.00167424495,14.5272281 0.17032652,15.4013235 9.99909312,15.4013235 C19.8279992,15.4013235 20,14.5272281 20,7.70066175 C20,0.87406748 19.8279992,0 9.99909312,0 Z M13.2043793,8.03464571 L8.7139985,10.1308283 C8.32105321,10.3128466 7.99895639,10.108812 7.99895639,9.67476397 L7.99895639,5.72644791 C7.99895639,5.29348816 8.32105321,5.08844897 8.7139985,5.27038358 L13.2043793,7.36656617 C13.5974362,7.5506773 13.5974362,7.85064619 13.2043793,8.03464571 Z" id="Fill-1" stroke="none" fill="#2E3689" fill-rule="evenodd" mask="url(#mask-4)"></path>
                        </g>
                    </g>
                </g>
            </g>
        </g>
    </g>
</svg>