<?xml version="1.0" encoding="UTF-8"?>
<svg width="17px" height="12px" viewBox="0 0 17 12" version="1.1" xmlns="http://www.w3.org/2000/svg" xmlns:xlink="http://www.w3.org/1999/xlink">
    <title>youtobe</title>
    <g id="页面-1" stroke="none" stroke-width="1" fill="none" fill-rule="evenodd">
        <g id="kepler-icon-0408" transform="translate(-138.000000, -893.000000)" fill="#FFFFFF">
            <path d="M154.560408,894.87453 C154.366026,894.136995 153.792155,893.556077 153.065384,893.359213 C151.745889,893 146.456652,893 146.456652,893 C146.456652,893 141.16744,893 139.848015,893.35735 C139.119404,893.554118 138.547397,894.135036 138.353015,894.872571 C138,896.210156 138,899 138,899 C138,899 138,901.789844 138.353015,903.125566 C138.547397,903.863124 139.121268,904.444018 139.848015,904.640787 C141.16744,905 146.456652,905 146.456652,905 C146.456652,905 151.745889,905 153.065384,904.640787 C153.793996,904.444018 154.366026,903.863124 154.560408,903.125566 C154.913423,901.789844 154.913423,899 154.913423,899 C154.913423,899 154.913423,896.210156 154.560408,894.87453 Z M144.776662,901.560496 L144.776662,896.439504 L149.156072,898.980868 L144.776662,901.560496 Z" id="youtobe"></path>
        </g>
    </g>
</svg>