<?xml version="1.0" encoding="UTF-8"?>
<svg width="23px" height="16px" viewBox="0 0 23 16" version="1.1" xmlns="http://www.w3.org/2000/svg" xmlns:xlink="http://www.w3.org/1999/xlink">
    <title>Youtube-fill</title>
    <defs>
        <polygon id="path-1" points="0 0 22.8262374 0 22.8262374 16 0 16"></polygon>
    </defs>
    <g id="页面-1" stroke="none" stroke-width="1" fill="none" fill-rule="evenodd">
        <g id="kepler-homepage" transform="translate(-1594.000000, -7903.000000)">
            <g id="Youtube-fill" transform="translate(1594.000000, 7903.000000)">
                <mask id="mask-2" fill="white">
                    <use xlink:href="#path-1"></use>
                </mask>
                <g id="Clip-2"></g>
                <path d="M22.3497705,2.49937301 C22.0874128,1.5159933 21.3128555,0.741436073 20.3319281,0.478950951 C18.5509974,0 11.4120836,0 11.4120836,0 C11.4120836,0 4.27320172,0 2.49236661,0.476466865 C1.50895505,0.738824597 0.736913762,1.51338182 0.474556029,2.49676153 C-0.00191083563,4.28020812 -0.00191083563,8 -0.00191083563,8 C-0.00191083563,8 -0.00191083563,11.7197919 0.474556029,13.5007544 C0.736913762,14.4841659 1.51147099,15.2586913 2.49236661,15.521049 C4.27320172,16 11.4120836,16 11.4120836,16 C11.4120836,16 18.5509974,16 20.3319281,15.521049 C21.3153396,15.2586913 22.0874128,14.4841659 22.3497705,13.5007544 C22.8262374,11.7197919 22.8262374,8 22.8262374,8 C22.8262374,8 22.8262374,4.28020812 22.3497705,2.49937301 Z M9.14459054,11.4139945 L9.14459054,4.58600552 L15.0555058,7.97449034 L9.14459054,11.4139945 Z" id="Fill-1" fill="#FFFFFF" mask="url(#mask-2)"></path>
            </g>
        </g>
    </g>
</svg>