<?xml version="1.0" encoding="UTF-8"?>
<svg width="30px" height="30px" viewBox="0 0 30 30" version="1.1" xmlns="http://www.w3.org/2000/svg" xmlns:xlink="http://www.w3.org/1999/xlink">
    <title>编组 12</title>
    <defs>
        <rect id="path-1" x="0" y="0" width="30" height="30" rx="15"></rect>
        <polygon id="path-3" points="0 0 14.3003614 0 14.3003614 13 0 13"></polygon>
    </defs>
    <g id="页面-1" stroke="none" stroke-width="1" fill="none" fill-rule="evenodd">
        <g id="kepler-盲盒-NFT-Whitelist-" transform="translate(-215.000000, -926.000000)">
            <g id="编组-12" transform="translate(215.000000, 926.000000)">
                <g id="编组-19">
                    <mask id="mask-2" fill="white">
                        <use xlink:href="#path-1"></use>
                    </mask>
                    <use id="蒙版" fill="#D8E7FF" xlink:href="#path-1"></use>
                </g>
                <g id="qianbao-(4)" transform="translate(8.000000, 8.500000)">
                    <g id="编组">
                        <mask id="mask-4" fill="white">
                            <use xlink:href="#path-3"></use>
                        </mask>
                        <g id="Clip-2"></g>
                        <path d="M10.3996439,7.47521866 C10.4006564,8.37258428 11.1281577,9.09968401 12.0255408,9.10015537 L14.3003614,9.10015537 L14.3003614,5.85021211 L12.0255408,5.85021211 C11.1281577,5.85068347 10.4006564,6.57776575 10.3996439,7.47521866 Z M13.0007158,7.47521866 C13.0007158,8.01326792 12.5627695,8.45128402 12.0255408,8.45128402 C11.487474,8.45128402 11.0503483,8.01326792 11.0503483,7.47610901 C11.0503483,6.93797245 11.4883644,6.50091653 12.0246504,6.50091653 C12.5627695,6.50091653 12.9998254,6.9388628 12.9998254,7.47521866 L13.0007158,7.47521866 Z" id="Fill-1" fill="#2E3689" mask="url(#mask-4)"></path>
                        <path d="M13.3260767,2.60107191 L0.973254657,2.60107191 C0.620537351,2.59916901 0.278207434,2.48139872 -0.00104746775,2.26589969 L-0.00104746775,12.0256979 C-0.00104746775,12.5629266 0.436968628,13 0.973254657,13 L13.3260767,13 C13.8624151,13 14.3003614,12.5629266 14.3003614,12.0256979 L14.3003614,9.74998691 L12.0255408,9.74998691 C10.7691207,9.74902673 9.75084234,8.73074842 9.74981233,7.47425848 C9.7513137,6.21818753 10.7694523,5.20045041 12.0255408,5.19949023 L14.3003614,5.19949023 L14.3003614,3.57537403 C14.3003614,3.03725494 13.8624151,2.60019902 13.3260767,2.60019902 M13.3260767,0 L0.973254657,0 C0.561826784,0.00178069517 0.195824095,0.261866937 0.0588327718,0.649831532 L12.6753548,0.65072188 C13.212601,0.65072188 13.649657,1.08873798 13.649657,1.62500655 L13.649657,1.98255966 C13.8918839,2.03261116 14.110857,2.14076221 14.3003614,2.28377647 L14.3003614,0.976065362 C14.3003614,0.438016096 13.8624151,0 13.3260767,0" id="Fill-3" fill="#2E3689" mask="url(#mask-4)"></path>
                    </g>
                    <path d="M12.9998254,1.95036749 L12.9998254,1.62589689 C12.9998254,1.44716398 12.8550479,1.30053595 12.6753548,1.30053595 L0.0588327718,1.30053595 C0.192891186,1.67772909 0.550444301,1.95036749 0.974127547,1.95036749 L12.9998254,1.95036749" id="Fill-4" fill="#2E3689"></path>
                </g>
            </g>
        </g>
    </g>
</svg>