<?xml version="1.0" encoding="UTF-8"?>
<svg width="30px" height="30px" viewBox="0 0 30 30" version="1.1" xmlns="http://www.w3.org/2000/svg" xmlns:xlink="http://www.w3.org/1999/xlink">
    <title>编组 6</title>
    <g id="页面-1" stroke="none" stroke-width="1" fill="none" fill-rule="evenodd">
        <g id="kepler-盲盒-NFT-Whitelist-" transform="translate(-215.000000, -296.000000)">
            <g id="编组-6" transform="translate(215.000000, 296.000000)">
                <rect id="矩形" fill="#D8E7FF" x="0" y="0" width="30" height="30" rx="15"></rect>
                <g id="编组-5" transform="translate(4.200000, 7.800000)" fill="#2E3689">
                    <path d="M4.75715617,4.7524135 C2.12982256,4.7524135 0,6.91204711 0,9.57617548 C0,12.2403038 2.12982256,14.3999375 4.75715617,14.3999375 C7.38448977,14.3999375 9.51431233,12.2403038 9.51431233,9.57617548 C9.51431233,6.91204711 7.38448977,4.7524135 4.75715617,4.7524135 M4.75715617,5.98310968 C6.71103097,5.98310968 8.30060637,7.59499125 8.30060637,9.57617548 C8.30060637,11.5573597 6.71103097,13.1692413 4.75715617,13.1692413 C2.80328136,13.1692413 1.21370596,11.5573597 1.21370596,9.57617548 C1.21370596,7.59499125 2.80328136,5.98310968 4.75715617,5.98310968" id="Fill-1"></path>
                    <path d="M17.030815,4.77801348 C17.1565218,5.31190234 17.2235445,5.86872279 17.2235445,6.44107416 C17.2235445,9.31533919 15.5440148,11.7989335 13.1280687,12.9369652 C13.992485,13.8389059 15.200875,14.4 16.5391411,14.4 C19.1664747,14.4 21.2962973,12.2402621 21.2962973,9.57623802 C21.2962973,7.0804483 19.4270609,5.02755076 17.030815,4.77801348" id="Fill-3"></path>
                    <path d="M10.1869268,0 C7.47453791,0 5.15480018,1.73341894 4.24577152,4.16468754 C4.41411016,4.1485312 4.58463772,4.1394628 4.75714574,4.1394628 C4.80780369,4.1394628 4.85794046,4.14186019 4.9082857,4.14331948 C5.78917105,2.07051316 7.82341062,0.615400206 10.1869268,0.615400206 C13.3549245,0.615400206 15.9322256,3.22876639 15.9322256,6.44106374 C15.9322256,9.65336109 13.3549245,12.2667273 10.1869268,12.2667273 C9.93509639,12.2667273 9.68743533,12.2484862 9.44404789,12.2164863 C9.33606099,12.4132809 9.21629561,12.6024664 9.08579407,12.7833132 C9.44373518,12.8470005 9.81126586,12.8821275 10.1869268,12.8821275 C13.6895171,12.8821275 16.5390786,9.99274847 16.5390786,6.44106374 C16.5390786,2.88937902 13.6895171,0 10.1869268,0" id="Fill-5"></path>
                    <path d="M10.1869268,1.76453292 C8.4014949,1.76453292 6.85100742,2.79926833 6.08488419,4.30774932 C6.23508604,4.34652454 6.38236932,4.39280464 6.52715098,4.44408799 C7.23031659,3.12468829 8.606941,2.22608308 10.1869268,2.22608308 C12.4790424,2.22608308 14.3437968,4.11689604 14.3437968,6.44111586 C14.3437968,8.76523144 12.4790424,10.6561486 10.1869268,10.6561486 C10.128764,10.6561486 10.0711224,10.6540639 10.0134807,10.6516666 C9.98283577,10.8063505 9.94489443,10.9582201 9.90163713,11.1077965 C9.99607355,11.1137379 10.0910311,11.1176988 10.1869268,11.1176988 C12.730039,11.1176988 14.7989886,9.01977197 14.7989886,6.44111586 C14.7989886,3.86245974 12.730039,1.76453292 10.1869268,1.76453292" id="Fill-7"></path>
                    <path d="M10.2101086,3.59287818 C9.1506696,3.59287818 8.22871587,4.18597221 7.74673576,5.06195855 C9.10918429,5.9915214 10.0278025,7.5384649 10.1127536,9.30742779 C10.1452747,9.30857437 10.1772747,9.31243104 10.2101086,9.31243104 C11.767684,9.31243104 13.0303801,8.03211927 13.0303801,6.45265461 C13.0303801,4.87329419 11.767684,3.59287818 10.2101086,3.59287818" id="Fill-9"></path>
                </g>
            </g>
        </g>
    </g>
</svg>