<?xml version="1.0" encoding="UTF-8"?>
<svg width="30px" height="30px" viewBox="0 0 30 30" version="1.1" xmlns="http://www.w3.org/2000/svg" xmlns:xlink="http://www.w3.org/1999/xlink">
    <title>编组 11</title>
    <defs>
        <rect id="path-1" x="0" y="0" width="30" height="30" rx="15"></rect>
    </defs>
    <g id="页面-1" stroke="none" stroke-width="1" fill="none" fill-rule="evenodd">
        <g id="kepler-盲盒-NFT-Whitelist-" transform="translate(-215.000000, -821.000000)">
            <g id="编组-11" transform="translate(215.000000, 821.000000)">
                <g id="编组-19">
                    <mask id="mask-2" fill="white">
                        <use xlink:href="#path-1"></use>
                    </mask>
                    <use id="蒙版" fill="#D8E7FF" xlink:href="#path-1"></use>
                </g>
                <g id="Fill-10" transform="translate(7.000000, 9.500000)" fill="#2E3689">
                    <path d="M15.3667809,1.71831894 C15.18641,1.04224539 14.6539019,0.5097373 13.9795142,0.329278779 C12.7551244,0 7.84712121,0 7.84712121,0 C7.84712121,0 2.93913989,0 1.71481574,0.32757097 C1.0387203,0.507941911 0.507941911,1.04045 0.32757097,1.71652355 C0,2.94264308 0,5.5 0,5.5 C0,5.5 0,8.05735692 0.32757097,9.28176864 C0.507941911,9.95786408 1.04045,10.4903503 1.71481574,10.6707212 C2.93913989,11 7.84712121,11 7.84712121,11 C7.84712121,11 12.7551244,11 13.9795142,10.6707212 C14.6556097,10.4903503 15.18641,9.95786408 15.3667809,9.28176864 C15.6943519,8.05735692 15.6943519,5.5 15.6943519,5.5 C15.6943519,5.5 15.6943519,2.94264308 15.3667809,1.71831894 Z M6.2882197,7.84712121 L6.2882197,3.15287879 L10.3519739,5.48246211 L6.2882197,7.84712121 Z" id="Fill-1"></path>
                </g>
            </g>
        </g>
    </g>
</svg>