<?xml version="1.0" encoding="UTF-8"?>
<svg width="15px" height="15px" viewBox="0 0 15 15" version="1.1" xmlns="http://www.w3.org/2000/svg" xmlns:xlink="http://www.w3.org/1999/xlink">
    <g id="页面-1" stroke="none" stroke-width="1" fill="none" fill-rule="evenodd">
        <g id="Farm-Dashboard" transform="translate(-1443.000000, -620.000000)" fill="#FFFFFF">
            <g id="quxiaolianjie-(1)" transform="translate(1443.282652, 620.282843)">
                <path d="M4.34225361,5.14439028 L5.49743858,6.23159158 L4.45335575,7.27560887 L1.80069421,9.56246923 L4.5095142,12.2712042 L7.12122555,9.65952117 L6.69205819,9.23045437 L7.59874068,8.32384776 L8.93443056,9.65953764 L4.5939682,14 L-2.36925841e-13,9.48664389 L4.34225361,5.14439028 Z M6.13991886,6.77920876 L7.04653928,7.68590507 L5.19597285,9.5364715 L4.28935786,8.62985651 L6.13991886,6.77920876 Z M9.48664469,1.18462921e-13 L14.0832208,4.59657611 L9.74403269,8.93574069 L8.40836755,7.60007555 L9.31497415,6.69339306 L9.74401422,7.12253368 L12.3557287,4.51084758 L9.658202,1.81334915 L7.1862921,4.28525904 L6.21423134,5.48169714 L5.14308141,4.34358685 L9.48664469,1.18462921e-13 Z M8.62852164,4.29066759 L9.53513663,5.19728258 L7.6845702,7.04784901 L6.77787389,6.14122859 L8.62852164,4.29066759 Z" id="Fill-1"></path>
            </g>
        </g>
    </g>
</svg>