<?xml version="1.0" encoding="UTF-8"?>
<svg width="64px" height="64px" viewBox="0 0 64 64" version="1.1" xmlns="http://www.w3.org/2000/svg" xmlns:xlink="http://www.w3.org/1999/xlink">
    <title>编组 17</title>
    <g id="页面-1" stroke="none" stroke-width="1" fill="none" fill-rule="evenodd">
        <g id="cliam-登录-重置密码-修改成功" transform="translate(-792.000000, -347.000000)">
            <g id="编组-17" transform="translate(794.000000, 349.050617)">
                <path d="M39.9051982,22.2078979 L41.3194118,23.6221115 L28.5715882,36.3688979 L28.5800831,36.3778885 L27.1658696,37.7921021 L18.6805882,29.3068207 L20.0948018,27.8926071 L27.1575882,34.9548979 L39.9051982,22.2078979 Z" id="形状结合" fill="#141416"></path>
                <path d="M30,1.57918123e-12 L38.786,8.786 L51.2132034,8.78679656 L51.213,21.213 L60,30 L51.213,38.787 L51.2132034,51.2132034 L38.787,51.213 L30,60 L21.213,51.213 L8.78679656,51.2132034 L8.786,38.786 L7.74491582e-13,30 L8.786,21.214 L8.78679656,8.78679656 L21.214,8.786 L30,1.57918123e-12 Z" id="形状结合" stroke="#141416" stroke-width="2"></path>
            </g>
        </g>
    </g>
</svg>