<?xml version="1.0" encoding="UTF-8"?>
<svg width="20px" height="20px" viewBox="0 0 20 20" version="1.1" xmlns="http://www.w3.org/2000/svg" xmlns:xlink="http://www.w3.org/1999/xlink">
    <title>facebook-fill</title>
    <defs>
        <polygon id="path-1" points="0 0 19.999375 0 19.999375 20 0 20"></polygon>
    </defs>
    <g id="页面-1" stroke="none" stroke-width="1" fill="none" fill-rule="evenodd">
        <g id="个人中心" transform="translate(-703.000000, -899.000000)">
            <g id="facebook-fill" transform="translate(703.000000, 898.998875)">
                <mask id="mask-2" fill="white">
                    <use xlink:href="#path-1"></use>
                </mask>
                <g id="Clip-2"></g>
                <path d="M19.1992625,0 L0.79823739,0 C0.35567848,0 -0.00187511719,0.357553597 -0.00187511719,0.800112507 L-0.00187511719,19.2011376 C-0.00187511719,19.6436965 0.35567848,20.0012501 0.79823739,20.0012501 L19.1992625,20.0012501 C19.6418214,20.0012501 19.999375,19.6436965 19.999375,19.2011376 L19.999375,0.800112507 C19.999375,0.357553597 19.6418214,0 19.1992625,0 Z M16.8891806,5.83789612 L15.2915495,5.83789612 C14.0390337,5.83789612 13.7964873,6.43290206 13.7964873,7.30795675 L13.7964873,9.23557722 L16.7866429,9.23557722 L16.3966185,12.2532033 L13.7964873,12.2532033 L13.7964873,20.0012501 L10.6788549,20.0012501 L10.6788549,12.255766 L8.07112945,12.255766 L8.07112945,9.23557722 L10.6788549,9.23557722 L10.6788549,7.01043815 C10.6788549,4.42777674 12.2563285,3.02022001 14.5615351,3.02022001 C15.6665729,3.02022001 16.6141634,3.10272517 16.8916495,3.14019626 L16.8916495,5.83789612 L16.8891806,5.83789612 Z" id="Fill-1" fill="#FFFFFF" mask="url(#mask-2)"></path>
            </g>
        </g>
    </g>
</svg>