<?xml version="1.0" encoding="UTF-8"?>
<svg width="14px" height="16px" viewBox="0 0 14 16" version="1.1" xmlns="http://www.w3.org/2000/svg" xmlns:xlink="http://www.w3.org/1999/xlink">
    <title>qiandao</title>
    <defs>
        <polygon id="path-1" points="0 0 13.9982861 0 13.9982861 16 0 16"></polygon>
    </defs>
    <g id="页面-1" stroke="none" stroke-width="1" fill="none" fill-rule="evenodd">
        <g id="个人中心-Social-Conn" transform="translate(-318.000000, -446.000000)">
            <g id="qiandao" transform="translate(318.000000, 446.000000)">
                <mask id="mask-2" fill="white">
                    <use xlink:href="#path-1"></use>
                </mask>
                <g id="Clip-2"></g>
                <path d="M11.9983301,10.8000264 C10.6982781,11.5000769 8.99822753,12.0000586 6.9982788,12.0000586 C4.99829345,12.0000586 3.29827954,11.5000769 1.99822753,10.8000264 L1.99822753,12.0000586 C1.99822753,13.100071 4.19822314,14.0000439 6.9982788,14.0000439 C9.79830517,14.0000439 11.9983301,13.100071 11.9983301,12.0000586 L11.9983301,10.8000264 Z M11.9983301,8 L11.9983301,6.79996777 C10.6982781,7.50001831 8.99822753,8 6.9982788,8 C4.99829345,8 3.29827954,7.50001831 1.99822753,6.79996777 L1.99822753,8 C1.99822753,9.10001245 4.19822314,9.99998535 6.9982788,9.99998535 C9.79830517,9.99998535 11.9983301,9.10001245 11.9983301,8 Z M13.9982861,4.00005859 L13.9982861,12.0000586 C13.9982861,14.1999663 10.8983176,16 6.9982788,16 C3.09821069,16 -0.00175781679,14.1999663 -0.00175781679,12.0000586 L-0.00175781679,4.00005859 C-0.00175781679,1.80003369 3.09821069,0 6.9982788,0 C10.8983176,0 13.9982861,1.80003369 13.9982861,4.00005859 Z M6.9982788,6.00001465 C9.79830517,6.00001465 11.9983301,5.09995386 11.9983301,4.00005859 C11.9983301,2.90004614 9.79830517,1.99995605 6.9982788,1.99995605 C4.19822314,1.99995605 1.99822753,2.90004614 1.99822753,4.00005859 C1.99822753,5.09995386 4.19822314,6.00001465 6.9982788,6.00001465 Z" id="Fill-1" fill="rgb(224, 125, 38)" mask="url(#mask-2)"></path>
            </g>
        </g>
    </g>
</svg>