<svg width="14px" height="14px" viewBox="0 0 14 14" version="1.1" xmlns="http://www.w3.org/2000/svg" xmlns:xlink="http://www.w3.org/1999/xlink">
    <title>guanyu</title>
    <g id="页面-1" stroke="none" stroke-width="1" fill="none" fill-rule="evenodd">
        <g id="个人中心-Game-Account设置密码错误提示" transform="translate(-658.000000, -351.000000)" fill="#E07D26">
            <path d="M664.92,351 C666.82302,351 668.552975,351.77858 669.807208,353.032809 C671.061443,354.287039 671.840026,356.01699 671.840026,357.92 C671.840026,359.82302 671.061446,361.552967 669.807214,362.807194 C668.55298,364.061423 666.823023,364.84 664.92,364.84 C663.016988,364.84 661.287036,364.061422 660.032805,362.807191 C658.778579,361.552965 658,359.823018 658,357.92 C658,356.016991 658.778582,354.287042 660.032812,353.032812 C661.287042,351.778582 663.016991,351 664.92,351 Z M664.92,352.589962 C663.454245,352.589962 662.12169,353.189503 661.155607,354.15559 C660.189526,355.121676 659.589987,356.454235 659.589987,357.92 C659.589987,359.385765 660.189526,360.718324 661.155607,361.68441 C662.12169,362.650497 663.454245,363.250038 664.92,363.250038 C666.385766,363.250038 667.718327,362.650498 668.684413,361.684413 C669.650498,360.718327 670.250038,359.385766 670.250038,357.92 C670.250038,356.454234 669.650498,355.121673 668.684413,354.155587 C667.718327,353.189502 666.385766,352.589962 664.92,352.589962 Z M665.714994,356.250013 L665.714994,359.749987 L666.589987,359.749987 L666.589987,361.340051 L663.250038,361.340051 L663.250038,359.749987 L664.125032,359.749987 L664.125032,357.84 L663.250038,357.84 L663.250038,356.250013 L665.714994,356.250013 Z M665.714994,353.624955 L665.714994,355.215045 L664.125032,355.215045 L664.125032,353.624955 L665.714994,353.624955 Z" id="guanyu"></path>
        </g>
    </g>
</svg>