<svg 
 xmlns="http://www.w3.org/2000/svg"
 xmlns:xlink="http://www.w3.org/1999/xlink"
 width="15px" height="15px">
<path fill-rule="evenodd"  fill="rgb(224, 125, 38)"
 d="M14.250,3.002 L9.308,3.002 L11.025,1.285 C11.319,0.993 11.321,0.518 11.029,0.224 C10.737,-0.070 10.261,-0.072 9.967,0.220 L7.500,2.695 L5.032,0.220 C4.738,-0.074 4.262,-0.074 3.967,0.220 C3.673,0.514 3.673,0.991 3.967,1.285 L5.693,3.002 L0.750,3.002 C0.336,3.002 -0.000,3.338 -0.000,3.752 L-0.000,6.751 C-0.000,6.950 0.079,7.141 0.220,7.282 C0.360,7.422 0.551,7.501 0.750,7.501 L0.750,14.250 C0.750,14.449 0.829,14.640 0.970,14.780 C1.110,14.921 1.301,15.000 1.500,15.000 L13.500,15.000 C13.699,15.000 13.890,14.921 14.030,14.780 C14.171,14.640 14.250,14.449 14.250,14.250 L14.250,7.501 C14.449,7.501 14.640,7.422 14.780,7.282 C14.921,7.141 15.000,6.950 15.000,6.751 L15.000,3.752 C15.000,3.553 14.921,3.362 14.780,3.222 C14.640,3.081 14.449,3.002 14.250,3.002 L14.250,3.002 ZM1.500,4.502 L13.500,4.502 L13.500,6.002 L1.500,6.002 L1.500,4.502 ZM2.250,7.501 L6.750,7.501 L6.750,13.500 L2.250,13.500 L2.250,7.501 ZM12.750,13.500 L8.250,13.500 L8.250,7.501 L12.750,7.501 L12.750,13.500 Z"/>
</svg>
