<svg 
 xmlns="http://www.w3.org/2000/svg"
 xmlns:xlink="http://www.w3.org/1999/xlink"
 width="16px" height="15px">
<path fill-rule="evenodd"  fill="rgb(224, 125, 38)"
 d="M15.863,8.983 C15.821,9.194 15.658,9.360 15.449,9.407 C14.678,9.582 14.038,10.048 13.646,10.720 C13.253,11.390 13.164,12.170 13.395,12.916 C13.457,13.121 13.393,13.342 13.231,13.481 C12.462,14.136 11.588,14.635 10.631,14.965 C10.570,14.985 10.510,14.994 10.450,14.994 C10.298,14.994 10.152,14.931 10.050,14.822 C9.513,14.252 8.786,13.938 8.002,13.938 C7.219,13.938 6.491,14.252 5.954,14.823 C5.812,14.974 5.587,15.035 5.376,14.963 C4.418,14.634 3.544,14.134 2.775,13.480 C2.613,13.338 2.549,13.117 2.611,12.915 C2.842,12.169 2.753,11.389 2.361,10.718 C1.968,10.046 1.328,9.580 0.558,9.406 C0.347,9.358 0.184,9.191 0.144,8.982 C0.049,8.484 -0.000,7.985 -0.000,7.500 C-0.000,7.016 0.049,6.517 0.145,6.019 C0.184,5.811 0.347,5.644 0.559,5.594 C1.330,5.419 1.970,4.953 2.361,4.281 C2.753,3.610 2.842,2.830 2.611,2.084 C2.549,1.882 2.613,1.661 2.775,1.522 C3.537,0.869 4.412,0.370 5.375,0.036 C5.578,-0.033 5.810,0.025 5.955,0.178 C6.493,0.749 7.220,1.063 8.004,1.063 C8.787,1.063 9.514,0.749 10.051,0.180 C10.153,0.071 10.298,0.008 10.450,0.008 C10.511,0.008 10.571,0.018 10.629,0.038 C11.587,0.367 12.462,0.866 13.231,1.521 C13.395,1.661 13.460,1.883 13.395,2.087 C13.165,2.832 13.255,3.612 13.646,4.283 C14.039,4.954 14.680,5.421 15.449,5.595 C15.661,5.643 15.823,5.810 15.863,6.019 C15.959,6.518 16.008,7.016 16.008,7.502 C16.008,7.986 15.959,8.485 15.863,8.983 ZM14.448,6.606 C13.590,6.321 12.874,5.746 12.426,4.976 C11.976,4.206 11.829,3.307 12.009,2.434 C11.532,2.064 11.005,1.763 10.440,1.538 C9.767,2.128 8.905,2.451 8.002,2.451 C7.102,2.451 6.241,2.127 5.565,1.537 C5.000,1.762 4.473,2.063 3.995,2.432 C4.175,3.305 4.028,4.204 3.577,4.975 C3.126,5.747 2.410,6.322 1.555,6.604 C1.511,6.905 1.489,7.206 1.489,7.500 C1.489,7.796 1.511,8.097 1.555,8.397 C2.413,8.681 3.129,9.257 3.577,10.026 C4.030,10.800 4.177,11.699 3.995,12.569 C4.473,12.939 5.000,13.239 5.565,13.464 C6.243,12.875 7.104,12.551 8.002,12.551 C8.905,12.551 9.767,12.875 10.440,13.464 C11.005,13.239 11.532,12.938 12.010,12.569 C11.831,11.694 11.978,10.795 12.427,10.026 C12.876,9.257 13.591,8.681 14.450,8.397 C14.495,8.087 14.517,7.787 14.514,7.504 C14.514,7.208 14.492,6.906 14.448,6.606 ZM10.605,8.574 C10.568,8.574 10.530,8.571 10.494,8.564 C10.160,8.504 9.938,8.188 9.999,7.859 C10.025,7.722 10.037,7.609 10.037,7.500 C10.037,6.391 9.124,5.489 8.002,5.489 C6.881,5.489 5.969,6.391 5.969,7.500 C5.969,8.610 6.883,9.512 8.005,9.512 C8.108,9.512 8.223,9.500 8.369,9.474 C8.405,9.468 8.443,9.464 8.481,9.464 C8.776,9.464 9.029,9.673 9.083,9.962 C9.144,10.291 8.922,10.608 8.588,10.668 C8.364,10.706 8.179,10.724 8.004,10.724 C6.205,10.724 4.741,9.278 4.741,7.500 C4.741,5.723 6.205,4.277 8.004,4.277 C8.874,4.277 9.693,4.613 10.310,5.222 C10.927,5.832 11.266,6.641 11.265,7.501 C11.265,7.684 11.247,7.867 11.208,8.077 C11.156,8.365 10.903,8.574 10.605,8.574 Z"/>
</svg>
