<?xml version="1.0" encoding="UTF-8"?>
<svg width="21px" height="18px" viewBox="0 0 21 18" version="1.1" xmlns="http://www.w3.org/2000/svg" xmlns:xlink="http://www.w3.org/1999/xlink">
    <title>路径</title>
    <g id="页面-1" stroke="none" stroke-width="1" fill="none" fill-rule="evenodd">
        <g id="个人中心" transform="translate(-703.000000, -760.000000)" fill="#FFFFFF">
            <path d="M703,775.93102 C703.336791,775.973631 703.680677,775.996674 704.028085,775.996674 C706.047405,776.000197 707.90528,775.271578 709.378564,774.048388 C707.492218,774.003968 705.901957,772.670895 705.354254,770.841253 C705.616679,770.896289 705.887817,770.928093 706.164382,770.92995 C706.557877,770.931806 706.937279,770.878626 707.299017,770.775789 C705.327641,770.339684 703.841883,768.469335 703.841883,766.24077 L703.841883,766.182401 C704.423436,766.533332 705.08645,766.746052 705.793883,766.778046 C704.639727,765.943019 703.879304,764.524772 703.879304,762.929274 C703.879304,762.085344 704.092025,761.298307 704.462524,760.624486 C706.588013,763.434604 709.763155,765.299573 713.342456,765.531671 C713.26809,765.196688 713.230859,764.847423 713.230859,764.491112 C713.230859,761.97189 715.159625,759.961473 717.538827,760.00056 C718.777966,760.021747 719.898271,760.590826 720.683641,761.484461 C721.665783,761.29645 722.587698,760.934902 723.419202,760.429572 C723.09836,761.480938 722.41397,762.356672 721.524096,762.904374 C722.396307,762.806917 723.225954,762.576486 723.998851,762.227221 C723.421059,763.126045 722.690535,763.911416 721.848414,764.538912 C721.857365,764.734017 721.860888,764.928884 721.860888,765.123988 C721.860888,771.105534 717.526353,778.00352 709.601949,778 C707.171423,778.001664 704.905675,777.239384 703,775.93102 Z" id="路径"></path>
        </g>
    </g>
</svg>