<?xml version="1.0" encoding="UTF-8"?>
<svg width="19px" height="16px" viewBox="0 0 19 16" version="1.1" xmlns="http://www.w3.org/2000/svg" xmlns:xlink="http://www.w3.org/1999/xlink">
    <title>xiangji</title>
    <g id="页面-1" stroke="none" stroke-width="1" fill="none" fill-rule="evenodd">
        <g id="个人中心修改备份" transform="translate(-1234.000000, -382.000000)" fill="#FFFFFF">
            <g id="编组-14" transform="translate(1203.000000, 350.000000)">
                <path d="M37.8571572,34.2856856 L37.8571572,36.5714716 L33.2856856,36.5714716 L33.2856856,45.7143144 L46.9999665,45.7143144 L46.9999665,36.5714716 L42.4284949,36.5714716 L42.4284949,34.2856856 L37.8571572,34.2856856 Z M35.5714716,34.2856856 L35.5714716,32 L44.7143144,32 L44.7143144,34.2856856 L49.2856521,34.2856856 L49.2856521,48 L31,48 L31,34.2856856 L35.5714716,34.2856856 Z M40.1428093,44.5713377 C38.1999464,44.5713377 36.7143144,43.0857057 36.7143144,41.1428428 C36.7143144,39.1999464 38.1999464,37.7143144 40.1428093,37.7143144 C42.0857057,37.7143144 43.5713377,39.1999464 43.5713377,41.1428428 C43.5713377,43.0857057 42.0857057,44.5713377 40.1428093,44.5713377 Z M40.1428093,42.2856856 C40.8285552,42.2856856 41.2856521,41.8285552 41.2856521,41.1428428 C41.2856521,40.4570969 40.8285552,40 40.1428093,40 C39.4570969,40 39,40.4570969 39,41.1428428 C39,41.8285552 39.4570969,42.2856856 40.1428093,42.2856856 Z" id="xiangji"></path>
            </g>
        </g>
    </g>
</svg>