<?xml version="1.0" encoding="UTF-8"?>
<svg width="20px" height="20px" viewBox="0 0 20 20" version="1.1" xmlns="http://www.w3.org/2000/svg" xmlns:xlink="http://www.w3.org/1999/xlink">
    <title>CPhezuo</title>
    <g id="页面-1" stroke="none" stroke-width="1" fill="none" fill-rule="evenodd">
        <g id="kepler-icon-new" transform="translate(-940.000000, -507.000000)" fill="#E07D26">
            <path d="M947.309686,515.883242 L947.309686,518.329918 L949.997322,521.152004 L952.690314,518.459012 L952.690314,515.883242 L960,515.883242 L960,526.999963 L952.690314,526.999963 L952.690314,521.70853 L951.672983,522.725909 L950.003894,524.275857 L947.309686,521.58161 L947.309686,526.999963 L940,526.999963 L940,515.883242 L947.309686,515.883242 Z M945.076207,518.116721 L942.233479,518.116721 L942.233479,524.766521 L945.076207,524.766521 L945.076207,518.116721 Z M957.766521,518.116721 L954.923942,518.116721 L954.923942,524.766521 L957.766521,524.766521 L957.766521,518.116721 Z M956.345213,507 C957.38075,507 958.295046,507.394911 958.950058,508.049916 C959.605094,508.704946 960,509.619263 960,510.65475 C960,511.690303 959.6051,512.604651 958.950072,513.259698 C958.295059,513.914729 957.380757,514.309645 956.345213,514.309645 C955.309672,514.309645 954.395332,513.914718 953.740286,513.259673 C953.08524,512.604628 952.690314,511.69029 952.690314,510.65475 C952.690314,509.619276 953.085247,508.704969 953.7403,508.049942 C954.395345,507.394922 955.309679,507 956.345213,507 Z M956.345213,509.233442 C955.918838,509.233442 955.5656,509.378977 955.317541,509.627044 C955.069455,509.875137 954.923942,510.228414 954.923942,510.65475 C954.923942,511.08117 955.069447,511.434471 955.317513,511.682573 C955.565575,511.930671 955.918822,512.076207 956.345213,512.076207 C956.77162,512.076207 957.124874,511.930673 957.37294,511.682578 C957.621013,511.434475 957.766521,511.081172 957.766521,510.65475 C957.766521,510.228411 957.621006,509.875132 957.372912,509.627039 C957.124849,509.378976 956.771604,509.233442 956.345213,509.233442 L956.345213,509.233442 Z M943.65475,507 C944.6903,507 945.604642,507.39492 946.259692,508.049938 C946.914752,508.704966 947.309686,509.619274 947.309686,510.65475 C947.309686,511.690292 946.914758,512.604631 946.259706,513.259676 C945.604655,513.91472 944.690308,514.309645 943.65475,514.309645 C942.619275,514.309645 941.704968,513.914712 941.049941,513.25966 C940.394921,512.604616 940,511.690283 940,510.65475 C940,509.619283 940.394928,508.704982 941.049955,508.049955 C941.704982,507.394928 942.619283,507 943.65475,507 Z M943.65475,509.233442 C943.228438,509.233442 942.875184,509.378986 942.627102,509.627076 C942.379017,509.875169 942.233479,510.228434 942.233479,510.65475 C942.233479,511.081149 942.379009,511.434439 942.627074,511.682541 C942.875159,511.930662 943.228422,512.076207 943.65475,512.076207 C944.081162,512.076207 944.434461,511.930669 944.682565,511.682565 C944.930669,511.434461 945.076207,511.081162 945.076207,510.65475 C945.076207,510.228421 944.930661,509.875147 944.682538,509.627052 C944.434436,509.378979 944.081147,509.233442 943.65475,509.233442 L943.65475,509.233442 Z" id="CPhezuo"></path>
        </g>
    </g>
</svg>