<?xml version="1.0" encoding="UTF-8"?>
<svg width="22px" height="18px" viewBox="0 0 22 18" version="1.1" xmlns="http://www.w3.org/2000/svg" xmlns:xlink="http://www.w3.org/1999/xlink">
    <title>矩形 2备份</title>
    <g id="页面-1" stroke="none" stroke-width="1" fill="none" fill-rule="evenodd">
        <g id="kepler-icon-new" transform="translate(-939.000000, -253.000000)" stroke="#FFFFFF" stroke-width="2">
            <g id="discord-(1)" transform="translate(940.000000, 254.000000)">
                <path d="M16.9568826,1.2869495 C16.9513341,1.27615014 16.9421079,1.267753 16.9309046,1.26311863 C15.6342162,0.668197231 14.2657801,0.243939727 12.8599714,0.00106043716 C12.833717,-0.00385029509 12.8073989,0.00860723348 12.7945375,0.0319491556 C12.6081847,0.370173182 12.4390302,0.717538398 12.2877329,1.07279055 C10.7723149,0.842751441 9.23081268,0.842751441 7.71539472,1.07279055 C7.56309825,0.716624279 7.39120136,0.369174029 7.20061818,0.0319491556 C7.18724653,0.00918121517 7.16124729,-0.00310624475 7.13518427,0.00106043716 C5.72920548,0.24345078 4.36068432,0.667708284 3.06416597,1.26320366 C3.05302648,1.26783803 3.04365144,1.27589503 3.03733764,1.28612041 C0.444534791,5.15824342 -0.265799441,8.93504295 0.0826499634,12.6650949 C0.0846270114,12.6836111 0.0940233043,12.7004691 0.108712984,12.7119275 C1.61849742,13.8297675 3.3071303,14.6830869 5.10273636,15.2353211 C5.12865057,15.243123 5.15662686,15.2339818 5.17291093,15.2124044 C5.55856285,14.6876575 5.90027329,14.131937 6.19457708,13.5510675 C6.2027829,13.5349535 6.20369702,13.5161184 6.19706434,13.4992603 C6.1904104,13.4824873 6.17688994,13.4692645 6.15994686,13.463057 C5.62108434,13.2568487 5.09942002,13.0083147 4.59975833,12.7197507 C4.58132714,12.7088663 4.56952862,12.689606 4.56829562,12.6682624 C4.56704137,12.6469188 4.57650144,12.6263192 4.59352956,12.6133727 C4.69865324,12.5348861 4.80196995,12.4539334 4.90335212,12.3706423 C4.92146443,12.3556975 4.94654956,12.3523599 4.96795695,12.3619262 C8.2410344,13.8557455 11.7846698,13.8557455 15.0190354,12.3619262 C15.0405491,12.3517009 15.0660381,12.3547834 15.0844693,12.3698982 C15.1859578,12.4535932 15.2895083,12.534801 15.3950572,12.6133727 C15.4121491,12.6262342 15.4218005,12.6466637 15.4207163,12.6680073 C15.4195471,12.6893509 15.4079186,12.7087812 15.3895725,12.7197507 C14.89108,13.0107169 14.3689055,13.2591021 13.8286399,13.4622066 C13.8116968,13.4686905 13.7982401,13.4820621 13.7917775,13.4990903 C13.7852936,13.5160333 13.7863778,13.5349535 13.7946687,13.5510675 C14.0938832,14.1287057 14.4350834,14.6836609 14.8155057,15.2114902 C14.8313646,15.2336629 14.859596,15.243208 14.8856803,15.2352361 C16.6845177,14.6848301 18.376148,13.8315107 19.8878457,12.7119275 C19.9027055,12.7010644 19.9122506,12.6842914 19.9138237,12.6659239 C20.3310234,8.3535995 19.2154581,4.60768868 16.9568826,1.2869495 Z M6.68343942,10.3939131 C5.69797663,10.3939131 4.88600512,9.4895943 4.88600512,8.3790035 C4.88600512,7.26832767 5.68220276,6.36392385 6.68343942,6.36392385 C7.69239294,6.36392385 8.49656255,7.2762146 8.48078868,8.37891847 C8.48078868,9.4895943 7.684506,10.3939131 6.68343942,10.3939131 Z M13.3289782,10.3939131 C12.3436217,10.3939131 11.5316289,9.4895943 11.5316289,8.3790035 C11.5316289,7.26832767 12.3278266,6.36392385 13.3289782,6.36392385 C14.3381018,6.36392385 15.1421863,7.2762146 15.1264125,8.37891847 C15.1264125,9.4895943 14.3381018,10.3939131 13.3289782,10.3939131 Z" id="Fill-1"></path>
            </g>
        </g>
    </g>
</svg>