<?xml version="1.0" encoding="UTF-8"?>
<svg width="17px" height="22px" viewBox="0 0 17 22" version="1.1" xmlns="http://www.w3.org/2000/svg" xmlns:xlink="http://www.w3.org/1999/xlink">
    <title>didiandingwei</title>
    <g id="页面-1" stroke="none" stroke-width="1" fill="none" fill-rule="evenodd">
        <g id="kepler-icon-new" transform="translate(-340.000000, -300.000000)" fill="#E07D26">
            <g id="didiandingwei" transform="translate(340.097518, 300.100000)">
                <path d="M2.39923973,13.5293607 L4.62287768,15.7530312 L2.22350508,15.7530312 L2.22350508,19.1764949 L14.1176081,19.1764949 L14.1176081,15.7530312 L11.7183371,15.7530312 L13.9418773,13.5293607 L16.3412787,13.5293607 L16.3412787,21.4 L0,21.4 L0,13.5293607 L2.39923973,13.5293607 Z M8.17063933,0 C10.063112,0 11.753431,0.742380003 12.9702081,1.95918562 C14.1870021,3.17600813 14.9293607,4.86638804 14.9293607,6.75888679 C14.9293607,10.1740897 12.6071814,11.7071581 8.16902649,15.3807069 C3.7331989,11.7058646 1.41175254,10.1734643 1.41175254,6.75888679 C1.41175254,4.86640007 2.15414293,3.1760305 3.37096298,1.95921044 C4.58778304,0.742390391 6.27815261,0 8.17063933,0 Z M4.94077933,3.52905241 C4.12858389,4.34123992 3.63521626,5.47387697 3.63521626,6.75888679 C3.63521626,9.37052487 5.06164305,9.85015465 8.37133506,12.4642447 C11.2789409,9.84725031 12.7058556,9.36947728 12.7058556,6.75888679 C12.7058556,5.47386874 12.2125231,4.34122684 11.4003676,3.52903961 C10.5882236,2.7168639 9.4556388,2.22350508 8.17063933,2.22350508 C6.88561363,2.22350508 5.75297073,2.71686894 4.94077933,3.52905241 Z M8.17063933,5.64713425 C8.50416835,5.64713425 8.78617924,5.75164338 8.98203099,5.94749513 C9.17788273,6.14334687 9.28239187,6.42535777 9.28239187,6.75888679 C9.28239187,7.09242786 9.17788766,7.37443728 8.98204003,7.57028491 C8.78618749,7.76613745 8.50417258,7.87063933 8.17063933,7.87063933 C7.83709402,7.87063933 7.55508058,7.76614238 7.35923216,7.57029396 C7.16338373,7.37444553 7.05888679,7.09243209 7.05888679,6.75888679 C7.05888679,6.42535353 7.16338866,6.14333862 7.3592412,5.94748608 C7.55508883,5.75163845 7.83709826,5.64713425 8.17063933,5.64713425 Z" id="Fill-1"></path>
            </g>
        </g>
    </g>
</svg>