<?xml version="1.0" encoding="UTF-8"?>
<svg width="20px" height="20px" viewBox="0 0 20 20" version="1.1" xmlns="http://www.w3.org/2000/svg" xmlns:xlink="http://www.w3.org/1999/xlink">
    <title>gouwu</title>
    <defs>
        <polygon id="path-1" points="0 0 20 0 20 20.0025533 0 20.0025533"></polygon>
    </defs>
    <g id="页面-1" stroke="none" stroke-width="1" fill="none" fill-rule="evenodd">
        <g id="kepler-icon-new" transform="translate(-338.000000, -251.000000)">
            <g id="gouwu" transform="translate(338.000000, 251.000000)">
                <mask id="mask-2" fill="white">
                    <use xlink:href="#path-1"></use>
                </mask>
                <g id="Clip-2"></g>
                <path d="M19.62,0.38 L19.62,19.6225533 L0.377488526,19.6225533 L0.377488526,0.38 L19.62,0.38 Z M17.5225701,2.47747174 L2.47496027,2.47747174 L2.47496027,17.5250816 L17.5225701,17.5250816 L17.5225701,2.47747174 Z M8.19002932,4.66618001 L8.19002932,5.71506906 C8.19002932,6.25764129 8.37934025,6.70468717 8.6942489,7.01959582 C9.00912745,7.33447436 9.4561383,7.52380493 9.99876519,7.52380493 C10.541373,7.52380493 10.9883773,7.33447263 11.3032525,7.01958822 C11.5465138,6.77631975 11.7145419,6.45440268 11.7786457,6.07068395 L11.7996724,5.9024984 L11.8064719,4.66620761 L13.9049309,4.66620761 L13.9049309,5.71506906 C13.9049309,6.82180565 13.4843274,7.79990495 12.783944,8.50029515 C12.0835838,9.20066219 11.1055223,9.62127667 9.99876519,9.62127667 C8.89198962,9.62127667 7.91391846,9.20066388 7.21355273,8.50029814 C6.61761244,7.90435786 6.22412614,7.10730561 6.12031896,6.20785735 L6.09925557,5.9600887 L6.09295644,4.66602767 L8.19002932,4.66618001 Z" id="Fill-1" fill="#FFFFFF" mask="url(#mask-2)"></path>
            </g>
        </g>
    </g>
</svg>