<?xml version="1.0" encoding="UTF-8"?>
<svg width="20px" height="20px" viewBox="0 0 20 20" version="1.1" xmlns="http://www.w3.org/2000/svg" xmlns:xlink="http://www.w3.org/1999/xlink">
    <title>zhuti_tiaosepan</title>
    <g id="页面-1" stroke="none" stroke-width="1" fill="none" fill-rule="evenodd">
        <g id="kepler-icon-new" transform="translate(-340.000000, -351.000000)" fill="#FFFFFF">
            <path d="M349.999982,351.3 C352.667505,351.3 355.092318,352.391563 356.850375,354.149613 C358.608434,355.907666 359.7,358.332472 359.7,360.999982 C359.7,363.667504 358.608438,366.092307 356.850384,367.850355 C355.092326,369.608406 352.66751,370.699963 349.999982,370.699963 C349.70446,370.699963 349.514575,370.667761 349.38846,370.571458 C349.244258,370.461342 349.188829,370.282728 349.111715,370.062978 C348.892346,369.446178 348.626126,368.70187 347.719359,367.79534 C347.136203,367.170525 346.140494,366.845542 345.035591,366.506151 C343.731082,366.105583 342.334756,365.682365 341.393511,364.580278 C340.727026,363.799904 340.3,362.677605 340.3,360.999982 C340.3,358.332474 341.391564,355.90767 343.149617,354.149617 C344.90767,352.391564 347.332474,351.3 349.999982,351.3 Z M349.999977,353.19994 C347.854976,353.19994 345.904782,354.07712 344.490966,355.490945 C343.077153,356.904765 342.199977,358.854964 342.199977,360.999982 C342.199977,362.055954 342.375017,362.752424 342.755366,363.272885 C343.152688,363.81657 343.777373,364.18336 345.500052,364.674984 C345.586179,364.674984 345.843654,364.763536 346.0368,364.911766 C347.593811,365.390859 348.318202,365.742461 349.037853,366.462084 C349.590812,367.015076 349.939379,367.569853 350.779876,368.798533 C352.740568,368.602422 354.504776,367.651538 355.77409,366.241182 C357.029193,364.846616 357.800023,363.003505 357.800023,360.999982 C357.800023,358.854962 356.922845,356.90476 355.509023,355.490939 C354.095201,354.077118 352.144999,353.19994 349.999977,353.19994 L349.999977,353.19994 Z M352.250056,363.424995 C352.670015,363.424995 353.06218,363.611455 353.350372,363.899653 C353.634343,364.183628 353.819528,364.568546 353.824894,364.981641 C353.765597,365.423514 353.567615,365.837014 353.270453,366.134176 C353.002049,366.40258 352.651078,366.574961 352.250056,366.574961 C351.830026,366.574961 351.437858,366.388549 351.149683,366.100375 C350.861503,365.812194 350.675092,365.42002 350.675092,364.999996 C350.675092,364.580003 350.861521,364.187808 351.149719,363.899606 C351.437889,363.61143 351.830041,363.424995 352.250056,363.424995 Z M355.625058,359.425017 C355.910061,359.425017 356.151635,359.513344 356.319179,359.680888 C356.486718,359.848427 356.575047,360.089996 356.575047,360.375006 C356.575047,360.659999 356.486718,360.901558 356.319179,361.069092 C356.151634,361.236631 355.910061,361.324958 355.625058,361.324958 C355.340056,361.324958 355.098482,361.236631 354.930938,361.069092 C354.763399,360.901558 354.67507,360.659999 354.67507,360.375006 C354.67507,360.089996 354.763398,359.848427 354.930938,359.680888 C355.098482,359.513344 355.340055,359.425017 355.625058,359.425017 Z M353.749947,356.300064 C354.034974,356.300064 354.276592,356.388405 354.444173,356.555966 C354.611727,356.723501 354.700082,356.965057 354.700082,357.250053 C354.700082,357.535032 354.611726,357.776578 354.444173,357.944107 C354.276591,358.111664 354.034974,358.200005 353.749947,358.200005 C353.464975,358.200005 353.223399,358.111665 353.055844,357.944115 C352.888308,357.776583 352.799959,357.535035 352.799959,357.250053 C352.799959,356.965054 352.888307,356.723496 353.055844,356.555959 C353.223398,356.388404 353.464975,356.300064 353.749947,356.300064 Z M346.499955,355.924991 C346.784968,355.924991 347.02654,356.013312 347.194081,356.180848 C347.361621,356.348383 347.449944,356.589946 347.449944,356.874943 C347.449944,357.159956 347.361622,357.401528 347.194081,357.569069 C347.026541,357.736609 346.784968,357.824931 346.499955,357.824931 C346.214952,357.824931 345.973379,357.736605 345.805835,357.569061 C345.638295,357.401521 345.549967,357.159952 345.549967,356.874943 C345.549967,356.589949 345.638296,356.34839 345.805835,356.180856 C345.973379,356.013317 346.214952,355.924991 346.499955,355.924991 Z M350.250067,354.675002 C350.535064,354.675002 350.776627,354.763325 350.944161,354.930865 C351.111697,355.098405 351.200019,355.339978 351.200019,355.624991 C351.200019,355.909987 351.111697,356.15155 350.944161,356.319085 C350.776626,356.48662 350.535064,356.574943 350.250067,356.574943 C349.965054,356.574943 349.723482,356.486621 349.555941,356.319085 C349.388402,356.15155 349.300079,355.909988 349.300079,355.624991 C349.300079,355.339977 349.388401,355.098405 349.555941,354.930864 C349.723482,354.763324 349.965054,354.675002 350.250067,354.675002 Z" id="zhuti_tiaosepan"></path>
        </g>
    </g>
</svg>