<?xml version="1.0" encoding="UTF-8"?>
<svg width="20px" height="20px" viewBox="0 0 20 20" version="1.1" xmlns="http://www.w3.org/2000/svg" xmlns:xlink="http://www.w3.org/1999/xlink">
    <title>jieshaoxinxi (1)</title>
    <defs>
        <polygon id="path-1" points="20 0 20 20.0026542 0 20.0026542 0 0"></polygon>
    </defs>
    <g id="页面-1" stroke="none" stroke-width="1" fill="none" fill-rule="evenodd">
        <g id="kepler-icon-new" transform="translate(-1259.000000, -300.000000)">
            <g id="jieshaoxinxi-(1)" transform="translate(1259.000000, 300.000000)">
                <mask id="mask-2" fill="#E07D26">
                    <use xlink:href="#path-1"></use>
                </mask>
                <g id="Clip-2"></g>
                <path d="M20,-9.09494702e-13 L20,20.0026542 L-0.00261068014,20.0026542 L-0.00261068014,-9.09494702e-13 L20,-9.09494702e-13 Z M17.8197195,2.18032405 L2.17771337,2.18032405 L2.17771337,17.8223301 L17.8197195,17.8223301 L17.8197195,2.18032405 Z M9.60370602,8.91116507 L9.60370602,15.5469629 L4.45286308,15.5469629 L4.45286308,8.91116507 L9.60370602,8.91116507 Z M15.5443522,13.3666823 L15.5443522,15.5469629 L11.8788557,15.5469629 L11.8788557,13.3666823 L15.5443522,13.3666823 Z M15.5443522,8.91116507 L15.5443522,11.0914891 L11.8788557,11.0914891 L11.8788557,8.91116507 L15.5443522,8.91116507 Z M15.5443522,4.45551727 L15.5443522,6.63597186 L4.45286308,6.63597186 L4.45286308,4.45551727 L15.5443522,4.45551727 Z" id="Fill-1" fill="#E07D26" mask="url(#mask-2)"></path>
            </g>
        </g>
    </g>
</svg>