<?xml version="1.0" encoding="UTF-8"?>
<svg width="20px" height="20px" viewBox="0 0 20 20" version="1.1" xmlns="http://www.w3.org/2000/svg" xmlns:xlink="http://www.w3.org/1999/xlink">
    <title>gongzuoliu</title>
    <g id="页面-1" stroke="none" stroke-width="1" fill="none" fill-rule="evenodd">
        <g id="kepler-icon-new" transform="translate(-338.000000, -201.000000)" fill="#FFFFFF">
            <path d="M347.999981,218.766521 C348.335023,218.766521 348.616277,218.8748 348.812359,219.070883 C349.008442,219.266965 349.116721,219.548219 349.116721,219.88326 C349.116721,220.218285 349.008441,220.49953 348.812358,220.695607 C348.616275,220.891684 348.335022,220.999963 347.999981,220.999963 C347.664958,220.999963 347.383714,220.891683 347.187636,220.695606 C346.991558,220.499528 346.883279,220.218284 346.883279,219.88326 C346.883279,219.54822 346.991557,219.266967 347.187634,219.070884 C347.383712,218.874801 347.664957,218.766521 347.999981,218.766521 L347.999981,218.766521 Z M353.292065,216.705867 C353.547804,217.141134 353.891799,217.487933 354.237552,217.833551 C354.553384,217.955786 354.809908,218.039512 355.030738,218.088635 C353.772103,219.28697 352.30708,220.178348 350.544986,220.671841 C350.627759,220.437584 350.690314,220.160312 350.690314,219.88326 C350.690314,219.304827 350.492138,218.825657 350.265391,218.446694 C351.415101,218.075171 352.454981,217.494391 353.292065,216.705867 Z M342.73983,216.608688 C343.57611,217.386441 344.610896,217.959307 345.753545,218.325904 C345.519195,218.802423 345.309686,219.290089 345.309686,219.88326 C345.309686,220.109361 345.350594,220.293685 345.410367,220.482922 C343.696366,220.176582 342.134194,219.297704 340.962618,218.100095 C341.215992,218.046494 341.440003,217.924758 341.732028,217.730511 C342.194297,217.496281 342.55788,217.066865 342.73983,216.608688 Z M339.82957,214.430041 C340.10277,214.266156 340.402844,214.236005 340.677077,214.314346 C340.965767,214.396817 341.224956,214.598046 341.397376,214.885345 C341.561263,215.158586 341.591395,215.458634 341.513041,215.732838 C341.430541,216.021551 341.229251,216.280744 340.941916,216.453203 C340.661541,216.621401 340.325122,216.648271 340.031026,216.564243 C339.744249,216.482306 339.494831,216.294011 339.385057,216.019623 C339.210371,215.724664 339.180222,215.424591 339.258564,215.150354 C339.341036,214.861661 339.542264,214.602465 339.82957,214.430041 Z M355.197184,214.38288 C355.509455,214.293667 355.876407,214.317565 356.181045,214.436476 C356.462727,214.608906 356.660053,214.865276 356.74151,215.150417 C356.819845,215.424629 356.789689,215.72467 356.625742,215.997851 C356.465855,216.264387 356.229774,216.429347 355.96585,216.504754 C355.668266,216.589779 355.336499,216.562436 355.036316,216.442405 C354.782975,216.341036 354.629525,216.117705 354.555494,215.858571 C354.465198,215.542505 354.490792,215.170443 354.613537,214.863563 C354.714829,214.610282 354.93811,214.456895 355.197184,214.38288 Z M350.385745,213.055783 L350.385745,215.289411 L345.614255,215.289411 L345.614255,213.055783 L350.385745,213.055783 Z M357.692339,208.373634 C357.897665,209.187031 358,210.093583 358,210.999981 C358,211.906589 357.897647,212.813108 357.69244,213.626646 C357.487625,213.428771 357.282302,213.250171 357.078308,213.148085 C356.600013,212.908867 356.12161,212.777594 355.545318,212.754713 C355.66117,212.169799 355.766521,211.58482 355.766521,210.999981 C355.766521,210.428358 355.665878,209.8566 355.553244,209.284968 C356.049637,209.339194 356.620118,209.194476 357.09104,208.845416 C357.290785,208.742492 357.491789,208.56721 357.692339,208.373634 Z M338.307552,208.373341 C338.512377,208.571264 338.717735,208.74993 338.921708,208.851886 C339.400139,209.091102 339.878393,209.22237 340.454682,209.24525 C340.33883,209.830164 340.233479,210.415143 340.233479,210.999981 C340.233479,211.571605 340.334122,212.143363 340.446738,212.714993 C339.95033,212.660767 339.379941,212.805501 338.908848,213.154612 C338.709091,213.257662 338.508058,213.432915 338.307505,213.626539 C338.102339,212.812986 338,211.906527 338,210.999981 C338,210.093507 338.102353,209.18688 338.307552,208.373341 Z M347.999981,206.710701 C348.656079,206.710701 349.252423,206.979256 349.684806,207.411639 C350.117189,207.844023 350.385745,208.440367 350.385745,209.096464 C350.385745,209.752558 350.117192,210.348891 349.684812,210.781264 C349.252428,211.213642 348.656081,211.482191 347.999981,211.482191 C347.343898,211.482191 346.747559,211.21364 346.31518,210.781261 C345.882807,210.348888 345.614255,209.752556 345.614255,209.096464 C345.614255,208.440369 345.882809,207.844026 346.315186,207.411643 C346.747564,206.979258 347.343901,206.710701 347.999981,206.710701 L347.999981,206.710701 Z M355.180275,205.549692 C355.421746,205.431208 355.75809,205.411509 356.052313,205.502062 C356.296545,205.577228 356.514993,205.730453 356.614944,205.980491 C356.735041,206.280663 356.762386,206.612341 356.677382,206.909872 C356.602421,207.172254 356.438938,207.407136 356.175159,207.567034 C355.940341,207.68253 355.644871,207.704313 355.36945,207.61958 C355.120504,207.542992 354.887825,207.378344 354.729545,207.114604 C354.565654,206.841421 354.535524,206.541368 354.613884,206.26715 C354.695926,205.980045 354.895433,205.722116 355.180275,205.549692 Z M339.947789,205.502053 C340.242305,205.411418 340.579011,205.431255 340.820575,205.550078 C341.104997,205.722516 341.3042,205.980245 341.386147,206.267102 C341.464488,206.541336 341.434337,206.84141 341.270468,207.114584 C341.110493,207.381146 340.874342,207.546146 340.610356,207.621559 C340.319,207.704792 339.9949,207.680315 339.699706,207.56649 C339.47047,207.388339 339.301917,207.122426 339.239226,206.829819 C339.181602,206.560866 339.214315,206.268875 339.374256,206.002264 C339.485062,205.730461 339.703532,205.577221 339.947789,205.502053 Z M350.589279,201.516155 C352.303568,201.823307 353.865783,202.702236 355.037375,203.89987 C354.78407,203.953459 354.560109,204.07515 354.268183,204.269326 C353.805884,204.5035 353.442238,204.932912 353.260204,205.391284 C352.42402,204.613528 351.389089,204.040658 350.246455,203.674059 C350.480805,203.19754 350.690314,202.709873 350.690314,202.116702 C350.690314,201.890231 350.649318,201.705677 350.589279,201.516155 Z M345.477192,201.322068 C345.361294,201.661238 345.309686,201.862157 345.309686,202.116702 C345.309686,202.695136 345.507862,203.174305 345.734639,203.553258 C344.58483,203.924802 343.545024,204.505627 342.707785,205.294199 C342.446391,204.85257 342.082994,204.512988 341.617527,204.275612 C341.430976,204.096705 341.188145,203.977099 340.964608,203.915761 C342.229562,202.710163 343.703044,201.814747 345.477192,201.322068 Z M347.999981,201 C348.335022,201 348.616275,201.108278 348.812358,201.304355 C349.008441,201.500433 349.116721,201.781678 349.116721,202.116702 C349.116721,202.451744 349.008442,202.732998 348.812359,202.92908 C348.616277,203.125163 348.335023,203.233442 347.999981,203.233442 C347.664957,203.233442 347.383712,203.125162 347.187634,202.929079 C346.991557,202.732996 346.883279,202.451743 346.883279,202.116702 C346.883279,201.781679 346.991558,201.500435 347.187636,201.304357 C347.383714,201.108279 347.664958,201 347.999981,201 L347.999981,201 Z" id="gongzuoliu"></path>
        </g>
    </g>
</svg>