<?xml version="1.0" encoding="UTF-8"?>
<svg width="20px" height="21px" viewBox="0 0 20 21" version="1.1" xmlns="http://www.w3.org/2000/svg" xmlns:xlink="http://www.w3.org/1999/xlink">
    <title>zichan</title>
    <g id="页面-1" stroke="none" stroke-width="1" fill="none" fill-rule="evenodd">
        <g id="kepler-icon-new" transform="translate(-1259.000000, -404.000000)" fill="#E07D26">
            <g id="zichan" transform="translate(1259.000000, 404.000000)">
                <g id="编组" transform="translate(0.000000, 0.481215)">
                    <path d="M9.74640303,0 L9.74640303,2.40618566 C7.63392933,2.35077484 5.71579708,3.18496819 4.33963153,4.56111237 C3.00657663,5.89414657 2.1820639,7.73570878 2.1820639,9.76980582 C2.1820639,11.8039655 3.00656819,13.6455497 4.33961247,14.978594 C5.67265675,16.3116383 7.51424098,17.1361426 9.54840068,17.1361426 C11.5824977,17.1361426 13.4240599,16.3116299 14.7570941,14.978575 C16.1332383,13.6024094 16.9674317,11.6842772 16.9120208,9.57180347 L16.9120208,9.57180347 L19.314023,9.57180347 C19.3646241,12.3453041 18.2604096,14.8609763 16.4501937,16.6702643 C14.6832081,18.4363442 12.2435388,19.5293757 9.5438698,19.5321269 C6.89092758,19.4714039 4.50496525,18.3570238 2.78223601,16.5944283 C1.059498,14.8318238 0,12.4209975 0,9.76739735 C0,7.1137543 1.05949703,4.70289999 2.78223299,2.94028137 C4.54869167,1.13292782 7.01248209,0.00713171813 9.74640303,0 L9.74640303,0 Z" id="Fill-1"></path>
                </g>
                <path d="M20,8.83248845 L11.1675116,8.83248845 L11.1675116,0 C16.0454924,0 20,3.95436072 20,8.83248845 Z" id="Fill-3"></path>
            </g>
        </g>
    </g>
</svg>