<?xml version="1.0" encoding="UTF-8"?>
<svg width="29px" height="20px" viewBox="0 0 29 20" version="1.1" xmlns="http://www.w3.org/2000/svg" xmlns:xlink="http://www.w3.org/1999/xlink">
    <title>矩形 2备份 3</title>
    <g id="页面-1" stroke="none" stroke-width="1" fill="none" fill-rule="evenodd">
        <g id="kepler-icon-new" transform="translate(-935.000000, -354.000000)" stroke="#FFFFFF" stroke-width="2">
            <g id="Twitter" transform="translate(940.000000, 356.000000)">
                <path d="M17.8845956,4.03846343 C17.9326819,4.13463611 17.9326819,4.32698145 17.9326819,4.56730045 C17.9326819,6.44238584 17.5000176,8.26924404 16.5865744,10.0000704 C15.6250449,11.8269286 14.326911,13.3173233 12.6442837,14.4230837 C10.8173128,15.6250449 8.65382205,16.2500827 6.29809866,16.2500827 C3.99034893,16.2500827 1.92305905,15.6250449 0,14.4230837 C0.288405334,14.47117 0.625037854,14.47117 0.961529523,14.47117 C2.8845604,14.47117 4.56730045,13.8942467 6.05766698,12.6922855 C5.14422379,12.6922855 4.32698145,12.4038801 3.65385726,11.875015 C2.98073307,11.346178 2.49998239,10.6730538 2.21157706,9.85581142 C2.45189606,9.90389775 2.74041407,9.90389775 2.93264673,9.90389775 C3.31736559,9.90389775 3.65385726,9.85581142 4.03843526,9.80772508 C3.12502025,9.61535157 2.30774973,9.13460089 1.68271188,8.36541671 C1.05770219,7.59614802 0.76918418,6.73079117 0.76918418,5.76926165 L0.76918418,5.67308898 C1.34610753,6.00958065 1.97114538,6.20195416 2.59615507,6.20195416 C2.06731805,5.81734798 1.58653921,5.33659731 1.25004754,4.71155945 C0.913443187,4.13463611 0.721210525,3.46151192 0.721210525,2.74044224 C0.721210525,2.01923172 0.913443187,1.3461357 1.29802119,0.673124189 C2.30774973,1.97114538 3.55768459,2.98076124 5.04805112,3.7019436 C6.53841766,4.42304144 8.0768987,4.85581846 9.75961058,4.95190662 C9.71152424,4.66347312 9.66343791,4.32698145 9.66343791,4.03846343 C9.66343791,3.31736559 9.85578325,2.64426957 10.1922749,1.97114538 C10.5289074,1.29813387 11.0577444,0.817270516 11.6826696,0.480778847 C12.3557656,0.192373513 13.0288898,0 13.7980458,0 C14.3749974,0 14.9519207,0.0961726714 15.4807859,0.336519839 C16.0096229,0.576951518 16.4423154,0.865356852 16.8268934,1.29804936 C17.7884229,1.10578853 18.6538925,0.76918418 19.4230485,0.336519839 C19.1346431,1.29804936 18.5096053,2.06731805 17.6442766,2.59618324 C18.4134326,2.50001056 19.1827295,2.2596634 20,1.92305905 C19.3749621,2.74044224 18.7019788,3.46151192 17.8845956,4.03846343 Z" id="Fill-1"></path>
            </g>
        </g>
    </g>
</svg>