<?xml version="1.0" encoding="UTF-8"?>
<svg width="18px" height="18px" viewBox="0 0 18 18" version="1.1" xmlns="http://www.w3.org/2000/svg" xmlns:xlink="http://www.w3.org/1999/xlink">
    <title>quanzi</title>
    <defs>
        <polygon id="path-1" points="0 0 17.9979638 0 17.9979638 18 0 18"></polygon>
    </defs>
    <g id="页面-1" stroke="none" stroke-width="1" fill="none" fill-rule="evenodd" opacity="0.600000024">
        <g id="kepler-market（主）" transform="translate(-384.000000, -852.000000)">
            <g id="编组-7" transform="translate(360.000000, 598.000000)">
                <g id="quanzi" transform="translate(24.000000, 254.000000)">
                    <mask id="mask-2" fill="white">
                        <use xlink:href="#path-1"></use>
                    </mask>
                    <g id="Clip-2"></g>
                    <path d="M6.09572434,12.5539614 C5.92471691,12.5539614 5.75913936,12.4860878 5.63411627,12.3638475 C5.46310884,12.1928401 5.40066516,11.9403165 5.4739686,11.7095125 L6.85862315,7.28965418 C6.92106682,7.08603351 7.08121448,6.9257501 7.28483516,6.86330642 L11.7048292,5.47878763 C11.9356332,5.40548418 12.1880211,5.47057493 12.3590285,5.63893529 C12.5301717,5.80994272 12.5926154,6.06250024 12.5193119,6.29327034 L11.1346574,10.7131626 C11.0694309,10.9167832 10.9121,11.076897 10.7084793,11.1393406 L6.28845131,12.5239952 C6.22604158,12.5457487 6.16095083,12.5539614 6.09572434,12.5539614 Z M7.99896681,8.00100302 L7.08942718,10.9086724 L9.99713046,9.99916666 L10.9066361,7.09146339 L7.99896681,8.00100302 Z" id="Fill-1" fill="#FFFFFF" mask="url(#mask-2)"></path>
                    <path d="M8.99796379,18 C4.03511703,18 -0.00203620677,13.9629825 -0.00203620677,9 C-0.00203620677,4.03715323 4.03511703,0 8.99796379,0 C13.9609463,0 17.9979638,4.03715323 17.9979638,9 C17.9979638,13.9629825 13.9609463,18 8.99796379,18 Z M8.99796379,1.30310446 C4.75454282,1.30310446 1.30106825,4.75657902 1.30106825,9 C1.30106825,13.243421 4.75454282,16.6968955 8.99796379,16.6968955 C13.2413848,16.6968955 16.6948593,13.243421 16.6948593,9 C16.6948593,4.75657902 13.2413848,1.30310446 8.99796379,1.30310446 Z" id="Fill-3" fill="#FFFFFF" mask="url(#mask-2)"></path>
                </g>
            </g>
        </g>
    </g>
</svg>