<?xml version="1.0" encoding="UTF-8"?>
<svg width="19px" height="18px" viewBox="0 0 19 18" version="1.1" xmlns="http://www.w3.org/2000/svg" xmlns:xlink="http://www.w3.org/1999/xlink">
    <title>shoucang</title>
    <g id="页面-1" stroke="none" stroke-width="1" fill="none" fill-rule="evenodd" opacity="0.600000024">
        <g id="kepler-market（主）" transform="translate(-384.000000, -789.000000)" fill="#FFFFFF">
            <g id="编组-7" transform="translate(360.000000, 598.000000)">
                <path d="M28.4736559,209 C27.9770176,209 27.5020617,208.739193 27.2469153,208.2782 C27.0986718,207.998249 27.0492344,207.685329 27.0958585,207.388876 L27.9330694,202.626932 L24.4171817,199.196162 C24.1482093,198.92719 24.002676,198.578623 24,198.208203 C24,197.83768 24.14272,197.489114 24.4062032,197.225631 C24.6422059,197.011482 24.9001655,196.882554 25.1774404,196.835895 L29.9915316,196.138763 L32.1899006,191.777533 C32.3490884,191.44811 32.6428652,191.190151 32.9941075,191.072201 C33.3508733,190.954148 33.7297333,190.981629 34.0617975,191.149016 C34.3252807,191.280757 34.5503049,191.500395 34.6848254,191.769368 C34.6848254,191.772044 34.6875357,191.774857 34.6875357,191.777533 L36.828405,196.092138 L41.6781076,196.833082 C42.0348734,196.87974 42.3724612,197.074574 42.5947752,197.368351 C43.0256456,197.930928 42.9598434,198.718667 42.4438899,199.204499 L38.9883151,202.56933 L39.8062107,207.380711 C39.9187743,208.140969 39.4054968,208.849115 38.6617057,208.97252 C38.3570877,209.019178 38.0525039,208.97252 37.7835315,208.838102 L33.4964066,206.590296 L29.118675,208.846301 C28.9101528,208.950563 28.6905149,209 28.4736559,209 Z M33.4770913,192.329132 C33.4770913,192.331945 33.3728302,192.362102 33.3728302,192.362102 L31.2320982,196.676707 C31.0262519,197.082911 30.6392267,197.368351 30.1945646,197.439642 L25.3914861,198.136775 C25.3777974,198.139588 25.3476409,198.15609 25.3228707,198.177944 L28.8360482,201.625182 C29.1653335,201.946268 29.3135428,202.404756 29.2367621,202.85477 L28.3995512,207.611224 C28.4243557,207.682653 28.4764691,207.698983 28.5204516,207.677129 L32.8129285,205.42651 C33.2164557,205.206975 33.707742,205.206975 34.1194345,205.431999 L38.3872441,207.668827 C38.4915052,207.67164 38.5163097,207.635857 38.5108205,207.597535 L37.6709336,202.85477 C37.5858505,202.404756 37.7367358,201.938102 38.0771368,201.617017 L41.5408768,198.252048 C41.5380636,198.252048 41.4969287,198.136775 41.4942527,198.136775 L36.7020154,197.442455 C36.2465121,197.37384 35.8539976,197.0884 35.6536406,196.676707 L33.5155503,192.370404 C33.507385,192.351123 33.4909173,192.337435 33.4770913,192.329132 Z" id="shoucang"></path>
            </g>
        </g>
    </g>
</svg>