<?xml version="1.0" encoding="UTF-8"?>
<svg width="18px" height="18px" viewBox="0 0 18 18" version="1.1" xmlns="http://www.w3.org/2000/svg" xmlns:xlink="http://www.w3.org/1999/xlink">
    <title>shuju</title>
    <g id="页面-1" stroke="none" stroke-width="1" fill="none" fill-rule="evenodd" opacity="0.600000024">
        <g id="kepler-market（主）" transform="translate(-384.000000, -915.000000)" fill="#FFFFFF">
            <g id="编组-7" transform="translate(360.000000, 598.000000)">
                <g id="shuju" transform="translate(24.000000, 317.000000)">
                    <path d="M4.53530897,12.1765845 C4.3967565,12.1765845 4.25545269,12.1330724 4.13857134,12.0407154 C3.85328029,11.8206076 3.79889871,11.410351 4.01900657,11.124958 L6.62229158,7.74453599 C6.72816754,7.60601749 6.88580961,7.51630995 7.05710652,7.4945709 C7.230917,7.47279788 7.40486336,7.52174471 7.54073241,7.62765464 L9.99445956,9.55156042 L12.1385072,6.7825831 C12.358649,6.49729205 12.7690415,6.44569578 13.0542986,6.66566778 C13.3395896,6.88580961 13.3911859,7.29620208 13.1712139,7.58145916 L10.6249939,10.8695242 C10.518982,11.0080427 10.36134,11.0951008 10.1901789,11.1168398 C10.0190179,11.1386129 9.84507154,11.0896321 9.70655304,10.9836202 L7.25547533,9.05971445 L5.05436272,11.9183993 C4.92392843,12.0869109 4.73099437,12.1765845 4.53530897,12.1765845 Z" id="Fill-1"></path>
                    <path d="M15.6222916,4.64675556 C14.3396198,4.64675556 13.2988629,3.60596465 13.2988629,2.32329286 C13.2988629,1.04079091 14.3422692,0 15.6222916,0 C16.9021781,0 17.9455844,1.04079091 17.9455844,2.32329286 C17.9455844,3.60596465 16.9021781,4.64675556 15.6222916,4.64675556 Z M15.6222916,1.30427497 C15.0596918,1.30427497 14.6032737,1.76086292 14.6032737,2.32329286 C14.6032737,2.88589264 15.0596918,3.34231076 15.6222916,3.34231076 C16.1847215,3.34231076 16.6413095,2.88589264 16.6413095,2.32329286 C16.6413095,1.76086292 16.1847215,1.30427497 15.6222916,1.30427497 Z" id="Fill-2"></path>
                    <path d="M12.372168,18 L4.89393533,18 C1.96745181,18 0,15.9428406 0,12.8831375 L0,5.85588823 C0,2.79075034 1.96745181,0.730975502 4.89393533,0.730975502 L11.2118463,0.730975502 C11.5706425,0.730975502 11.8641196,1.02166734 11.8641196,1.38311299 C11.8641196,1.74452467 11.5732919,2.03538634 11.2118463,2.03538634 L4.89393533,2.03538634 C2.71194629,2.03538634 1.30427497,3.53524481 1.30427497,5.85588823 L1.30427497,12.8831375 C1.30427497,15.2363216 2.67930375,16.6955892 4.89393533,16.6955892 L12.372168,16.6955892 C14.5542929,16.6955892 15.9619642,15.1983462 15.9619642,12.8831375 L15.9619642,6.7635954 C15.9619642,6.40483316 16.2526561,6.11145791 16.6141017,6.11145791 C16.972762,6.11145791 17.2662392,6.40214975 17.2662392,6.7635954 L17.2662392,12.8831375 C17.2662392,15.9428406 15.2987874,18 12.372168,18 Z" id="Fill-3"></path>
                </g>
            </g>
        </g>
    </g>
</svg>