<?xml version="1.0" encoding="UTF-8"?>
<svg width="25px" height="19px" viewBox="0 0 25 19" version="1.1" xmlns="http://www.w3.org/2000/svg" xmlns:xlink="http://www.w3.org/1999/xlink">
    <title>twitter-dark</title>
    <g id="页面-1" stroke="none" stroke-width="1" fill="none" fill-rule="evenodd">
        <g id="kepler-market（主）" transform="translate(-1434.000000, -2042.000000)" fill="#FFFFFF">
            <g id="编组-8" transform="translate(0.000000, 1716.000000)">
                <path d="M1458.72057,328.466 C1457.83781,328.831748 1456.88837,329.079051 1455.89226,329.190988 C1456.90837,328.62089 1457.68979,327.720186 1458.0565,326.64637 C1457.10439,327.173516 1456.05228,327.556185 1454.92948,327.761837 C1454.03205,326.867641 1452.75324,326.309257 1451.33575,326.309257 C1448.61678,326.309257 1446.41254,328.36838 1446.41254,330.909094 C1446.41254,331.270937 1446.45654,331.621066 1446.53922,331.95818 C1442.4481,331.766845 1438.81969,329.934199 1436.39142,327.151389 C1435.96871,327.830821 1435.72602,328.62089 1435.72602,329.464323 C1435.72602,331.060079 1436.59545,332.468405 1437.91559,333.292315 C1437.10884,333.268886 1436.34875,333.061932 1435.68601,332.71701 L1435.68601,332.775581 C1435.68601,335.003912 1437.3822,336.86259 1439.63579,337.285609 C1439.22241,337.391038 1438.78769,337.447006 1438.33831,337.447006 C1438.02094,337.447006 1437.71291,337.418371 1437.41287,337.363704 C1438.03827,339.191144 1439.85714,340.521374 1442.01205,340.559121 C1440.32653,341.791731 1438.20363,342.527132 1435.89537,342.527132 C1435.49933,342.527132 1435.10595,342.506307 1434.72057,342.463354 C1436.89948,343.768854 1439.48777,344.530287 1442.26941,344.530287 C1451.32508,344.530287 1456.27763,337.521197 1456.27763,331.442748 C1456.27763,331.242302 1456.2723,331.045761 1456.2643,330.847919 C1457.22574,330.199725 1458.0605,329.388831 1458.72057,328.467301 L1458.72057,328.466 L1458.72057,328.466 Z" id="twitter-dark"></path>
            </g>
        </g>
    </g>
</svg>