<?xml version="1.0" encoding="UTF-8"?>
<svg width="18px" height="18px" viewBox="0 0 18 18" version="1.1" xmlns="http://www.w3.org/2000/svg" xmlns:xlink="http://www.w3.org/1999/xlink">
    <title>youxi</title>
    <g id="页面-1" stroke="none" stroke-width="1" fill="none" fill-rule="evenodd" opacity="0.600000024">
        <g id="kepler-market（主）" transform="translate(-384.000000, -726.000000)" fill="#FFFFFF">
            <g id="编组-7" transform="translate(360.000000, 598.000000)">
                <g id="youxi" transform="translate(24.000000, 128.000000)">
                    <path d="M6.36021435,13.0256651 C6.0147499,13.0256651 5.73224881,12.7457479 5.73224881,12.3976995 L5.73224881,9.26294156 C5.73224881,8.91760794 6.01216595,8.63497601 6.36021435,8.63497601 C6.70826276,8.63497601 6.9881799,8.91492586 6.9881799,9.26294156 L6.9881799,12.3976995 C6.9881799,12.7431967 6.70826276,13.0256651 6.36021435,13.0256651 Z" id="Fill-1"></path>
                    <path d="M7.96164261,11.4583515 L4.76146817,11.4583515 C4.41600371,11.4583515 4.13337179,11.1784344 4.13337179,10.830386 C4.13337179,10.4823375 4.41345247,10.2024204 4.76146817,10.2024204 L7.96164261,10.2024204 C8.30700895,10.2024204 8.58960816,10.4823375 8.58960816,10.830386 C8.58960816,11.1784344 8.30700895,11.4583515 7.96164261,11.4583515 Z M11.8185332,9.98520497 L11.7295994,9.98520497 C11.384135,9.98520497 11.1016339,9.705157 11.1016339,9.35710859 C11.1016339,9.00919102 11.3815837,8.72914304 11.7295994,8.72914304 L11.8185332,8.72914304 C12.1638995,8.72914304 12.4464987,9.00919102 12.4464987,9.35710859 C12.4464987,9.705157 12.1665816,9.98520497 11.8185332,9.98520497 Z M13.336261,12.9786633 L13.2472292,12.9786633 C12.9018628,12.9786633 12.6192309,12.6985826 12.6192309,12.3506978 C12.6192309,12.0026494 12.8991808,11.7225687 13.2472292,11.7225687 L13.336261,11.7225687 C13.6816274,11.7225687 13.9642593,12.0026494 13.9642593,12.3506978 C13.9642593,12.6985826 13.6841786,12.9786633 13.336261,12.9786633 Z" id="Fill-2"></path>
                    <g id="编组">
                        <path d="M9.51325622,4.6785543 C9.16788989,4.6785543 8.88525797,4.39860445 8.88525797,4.05058875 L8.88525797,3.48535761 C8.8774734,2.87832534 8.37242543,2.37851068 7.75747776,2.37851068 L6.84164698,2.37851068 C5.88391693,2.37851068 5.09378391,1.59874618 5.08329799,0.633198866 C5.0806352,0.287865242 5.3580011,0.00255124291 5.70336743,0 C6.07503119,0.0104666376 6.33401505,0.27468382 6.33669713,0.620180986 C6.33924837,0.897546882 6.56693045,1.12254688 6.84432905,1.12254688 L7.76015984,1.12254688 C9.05534083,1.12254688 10.1229379,2.17444396 10.1386877,3.47754034 L10.1386877,4.05058875 C10.1412218,4.39592237 9.85872068,4.6785543 9.51325622,4.6785543 Z" id="Fill-3"></path>
                        <path d="M8.96640711,18 C7.7234939,18 6.49359857,17.9895334 5.28211797,17.9685674 C3.95553708,18.0261993 2.65767401,17.5551352 1.65277868,16.6340711 C0.64801418,15.7129743 0.0618497662,14.4570432 0.00434867589,13.0963149 C-0.000884642906,12.9864479 -0.000884642906,12.8740297 0.00166660001,12.7639991 L0.00166660001,8.88362407 C-0.0585165662,6.08628434 2.17879264,3.74970563 4.98901941,3.68952246 C5.10415243,3.68684038 5.21146817,3.68952246 5.32133516,3.69475578 C7.72081182,3.65285652 10.2223382,3.65285652 12.7213461,3.69475578 C14.0401424,3.63457261 15.34579,4.11077191 16.3505545,5.03183602 C17.3554171,5.95290013 17.9389322,7.20883123 17.9991154,8.56955953 C18.0043487,8.67942652 18.0043487,8.78932621 18.0016666,8.90187527 L18.0016666,12.7824139 C18.030548,14.1299608 17.5280512,15.4200065 16.5887032,16.4065198 C15.6466731,17.3903184 14.3802427,17.9476341 13.0169959,17.9790667 C12.9123295,17.9817488 12.8076958,17.9817488 12.7003801,17.9765155 C11.4495515,17.9895334 10.2014049,18 8.96640711,18 Z M5.26641802,16.7126363 C7.71299455,16.7544047 10.2014049,16.7544047 12.697698,16.7126363 L12.7395973,16.7126363 C12.8207464,16.7178696 12.9044141,16.7178696 12.9855632,16.7151875 C14.0139431,16.6942215 14.9689911,16.2730048 15.6781058,15.5299062 C16.3872205,14.7893589 16.7666688,13.8158962 16.7430534,12.7901984 L16.7430534,8.88362407 C16.7457355,8.78677497 16.7430534,8.70294374 16.7404695,8.61927606 C16.6488864,6.49974924 14.8459754,4.85910379 12.7343639,4.94545355 C10.2145536,4.90368513 7.72604514,4.90368513 5.30308396,4.94545355 C5.18003555,4.94022024 5.09633516,4.94022024 5.0099854,4.94290231 C2.89569189,4.98993676 1.20804471,6.75091583 1.25504645,8.86789141 L1.25504645,12.7744985 C1.25249521,12.8713476 1.25504645,12.9550153 1.25772853,13.0388465 C1.30217903,14.0645443 1.74439447,15.0118077 2.50064174,15.7051897 C3.25944026,16.4012538 4.24068753,16.7544047 5.26641802,16.7126363 Z" id="Fill-5"></path>
                    </g>
                </g>
            </g>
        </g>
    </g>
</svg>