<?xml version="1.0" encoding="UTF-8"?>
<svg width="103px" height="100px" viewBox="0 0 103 100" version="1.1" xmlns="http://www.w3.org/2000/svg" xmlns:xlink="http://www.w3.org/1999/xlink">
    <title>编组</title>
    <defs>
        <polygon id="path-1" points="0 -1.26905208e-14 9.19828818 -1.26905208e-14 9.19828818 7.94779786 0 7.94779786"></polygon>
    </defs>
    <g id="页面-1" stroke="none" stroke-width="1" fill="none" fill-rule="evenodd">
        <g id="kepler-home-claim-不可点击备份" transform="translate(-909.000000, -342.000000)">
            <g id="编组" transform="translate(909.000000, 342.000000)">
                <path d="M100.24971,29.0010522 C99.8328944,28.6681805 99.6254914,28.152687 99.5096226,27.6282633 C99.4515765,27.4737716 99.4029072,27.3161542 99.3627214,27.1571974 C99.2959685,27.8443732 99.0276172,28.5777626 98.5558815,29.07294 C97.9383609,29.7205998 97.2536409,29.8804497 96.4349685,30.034495 C97.1292884,30.1162059 98.0211881,30.2925766 98.5058726,30.7768145 C98.9901105,31.260606 99.2312248,31.8957636 99.4035769,32.544763 C99.6089706,31.8254386 99.8587918,30.9777431 100.517838,30.5796813 C101.156121,30.1945681 101.928356,30.107499 102.670453,30.0755737 C101.800432,29.8875938 100.952067,29.562536 100.24971,29.0010522" id="Fill-1" fill="#88A7FF"></path>
                <g transform="translate(80.605768, 0.000000)">
                    <mask id="mask-2" fill="white">
                        <use xlink:href="#path-1"></use>
                    </mask>
                    <g id="Clip-4"></g>
                    <path d="M5.6273404,2.72030538 C5.01249888,2.22892332 4.70641764,1.46874343 4.53518182,0.694945061 C4.45012204,0.467225977 4.37823425,0.234595306 4.31907194,-4.46508006e-05 C4.22017042,1.01375178 3.82478758,2.09608718 3.12890485,2.82612777 C2.21802852,3.78143165 1.20735765,4.01763439 0,4.24468371 C1.02428937,4.36501762 2.33970195,4.62533178 3.05500778,5.33952134 C3.76942059,6.05326439 4.12506421,6.99026144 4.37890401,7.94779786 C4.68208295,6.88689483 5.05067531,5.63600265 6.02294649,5.04906788 C6.96418537,4.48088644 8.1036738,4.35229214 9.19828818,4.3054088 C7.91502417,4.02812733 6.66368548,3.54835447 5.6273404,2.72030538" id="Fill-3" fill="#88A7FF" mask="url(#mask-2)"></path>
                </g>
                <path d="M69.3150768,24.5931028 C69.309049,24.5705542 69.3016816,24.5491218 69.2983328,24.5236708 C68.9069685,21.6546336 69.0451627,18.7362573 68.975061,15.8473505 C68.9335357,14.1488341 68.8198994,12.3018537 68.9391171,10.5312262 C68.9315264,9.74046052 68.9158987,8.95148088 68.9893492,8.16294774 C68.9668006,7.94817739 68.9444752,7.73363029 68.9152289,7.5195297 C68.9027267,7.42933508 68.9129964,7.34762412 68.9375543,7.27372704 C68.8475829,6.62227186 68.7125143,5.862985 68.2709178,5.4392489 C67.6491554,4.84182119 66.7306885,5.23765054 65.9582296,5.55221543 C64.5608828,6.30793023 63.1291549,7.00247343 61.7101525,7.7287187 C58.992035,9.1198144 56.6081287,10.9721529 53.9884663,12.5181868 C51.2098469,14.1579875 48.3312098,15.6153896 45.5733531,17.2911342 C44.3684513,18.0234073 43.2008328,18.81328 42.0314284,19.5998038 C41.0299109,20.294347 40.0312957,20.993132 39.0353596,21.6950426 C38.8190265,21.8475251 38.5723308,22.0080447 38.3144725,22.1768248 C37.3991311,22.9704927 36.6690905,23.9103921 36.5230823,25.1688749 L36.5230823,25.2371906 C36.6400674,25.785056 36.9405673,26.3436375 37.4906652,26.8982004 C38.2832169,27.6972265 39.5356719,27.8811878 40.601933,27.9164619 C43.0206668,27.9970566 45.468647,27.8117558 47.8849251,27.7112915 C52.3984512,27.5235349 56.916889,27.3607827 61.4317547,27.2154444 C64.0844588,27.1299381 66.7300187,27.253844 69.3724531,27.2118723 C69.2385007,26.3496653 69.2954305,25.4771887 69.3150768,24.5931028" id="Fill-5" fill="#335FFF"></path>
                <path d="M18.5581453,27.3568311 C21.344132,27.2347112 24.5630082,27.3833983 27.1603453,27.3959006 C27.2103542,27.348794 30.0490288,31.6776891 31.005449,33.2212673 C34.813939,33.23243 38.6217593,33.2543089 42.4302493,33.2569879 C42.4911977,33.1167844 42.4963325,32.9517997 42.4409655,32.8142752 C42.5992526,32.7285457 42.6816333,32.5622214 42.692796,32.3918786 C39.1640432,32.2786889 31.6642715,32.3324931 31.6642715,32.3324931 C31.0715321,31.3716079 30.3305521,30.280119 29.8121563,29.277262 C29.5105402,28.6938993 28.1306072,26.9980619 27.7823309,26.4448385 C24.775546,26.4448385 21.6986593,26.4633686 18.6630747,26.4618058 C18.6353912,26.7611894 18.6030193,27.05968 18.5581453,27.3568311" id="Fill-7" fill="#FF5F5F"></path>
                <path d="M18.5644634,25.4737952 C18.0643744,25.4423164 17.5631692,25.3963261 17.0659825,25.4519163 C17.1005869,26.4337874 17.1162146,27.4161051 17.1188937,28.3990924 C18.070179,28.3939576 19.0196783,28.447092 19.9700706,28.4796871 C19.9575683,27.4808487 19.9419406,26.4645965 20.0080237,25.4653116 C19.5266881,25.4746882 19.0455757,25.5041578 18.5644634,25.4737952" id="Fill-9" fill="#FF5F5F"></path>
                <path d="M12.8788983,34.1009104 C12.8773355,34.431103 12.8748797,34.761519 12.8675124,35.0919349 C12.8920703,35.0921581 12.916405,35.0930512 12.9407397,35.0934977 C16.0095892,34.8075093 19.9855197,35.0213866 23.0724528,35.0363446 C23.1224617,34.989238 25.0694599,38.3096948 26.0258801,39.853273 C29.8343701,39.8644357 39.2630564,39.8860913 43.0713232,39.8887704 C43.1324948,39.7487901 43.1374064,39.5838054 43.0820394,39.4460577 C43.2403265,39.3605514 43.3227072,39.1942272 43.3340931,39.0238844 C39.8051171,38.9106946 26.6849259,38.9644988 26.6849259,38.9644988 C26.0921865,38.0036136 25.3509832,36.9119015 24.8325874,35.9092678 C24.530748,35.3259051 24.0427147,34.638506 23.6944385,34.0852826 C20.127286,34.0852826 16.4556507,34.1138591 12.8788983,34.1009104" id="Fill-11" fill="#F9B2B2"></path>
                <path d="M12.6057247,33.0669318 C12.105859,33.035453 11.6044305,32.9894626 11.1072439,33.0450529 C11.1420715,34.026924 11.1576993,35.0092416 11.1603783,35.9920057 C12.1114404,35.9868709 13.0611629,36.0402286 14.0115552,36.0728237 C13.9988297,35.0739853 13.9834252,34.057733 14.0492851,33.0584481 C13.5681727,33.0678248 13.0868371,33.0972943 12.6057247,33.0669318" id="Fill-13" fill="#F9B2B2"></path>
                <path d="M18.5581453,59.776103 C21.344132,59.898223 24.5630082,59.7495358 27.1603453,59.7368103 C27.2103542,59.7839169 30.0490288,55.4552451 31.005449,53.9116669 C34.813939,53.9002809 38.6217593,53.8786253 42.4302493,53.8759462 C42.4911977,54.0161497 42.4963325,54.1809112 42.4409655,54.3186589 C42.5992526,54.4043885 42.6816333,54.5707127 42.692796,54.7410555 C39.1640432,54.8542453 31.6642715,54.8004411 31.6642715,54.8004411 C31.0715321,55.7613263 30.3305521,56.8528151 29.8121563,57.8556721 C29.5105402,58.4390348 28.1306072,60.134649 27.7823309,60.6878724 C24.775546,60.6878724 21.6986593,60.6695655 18.6630747,60.6711283 C18.6353912,60.3717447 18.6030193,60.0732541 18.5581453,59.776103" id="Fill-15" fill="#FF5F5F"></path>
                <path d="M18.5644634,61.6590273 C18.0643744,61.6905061 17.5631692,61.7364964 17.0659825,61.6809062 C17.1005869,60.6990351 17.1162146,59.7167175 17.1188937,58.7339533 C18.070179,58.7390882 19.0196783,58.6859537 19.9700706,58.6531354 C19.9575683,59.6519738 19.9419406,60.6684493 20.0080237,61.6675109 C19.5266881,61.6581343 19.0455757,61.6286647 18.5644634,61.6590273" id="Fill-17" fill="#FF5F5F"></path>
                <path d="M12.8788983,53.0320461 C12.8773355,52.7016302 12.8748797,52.3714375 12.8675124,52.0410216 C12.8920703,52.0407983 12.916405,52.0396821 12.9407397,52.0394588 C16.0095892,52.3254472 19.9855197,52.1115698 23.0724528,52.0966118 C23.1224617,52.1437184 25.0694599,48.8232616 26.0258801,47.2796835 C29.8343701,47.2685208 39.2630564,47.2466419 43.0713232,47.2439628 C43.1324948,47.3841663 43.1374064,47.549151 43.0820394,47.6866755 C43.2403265,47.772405 43.3227072,47.9387293 43.3340931,48.1090721 C39.8051171,48.2222619 26.6849259,48.1684576 26.6849259,48.1684576 C26.0921865,49.1293429 25.3509832,50.2208317 24.8325874,51.2236887 C24.530748,51.8070514 24.0427147,52.4944505 23.6944385,53.0476739 C20.127286,53.0476739 16.4556507,53.0190974 12.8788983,53.0320461" id="Fill-19" fill="#F9B2B2"></path>
                <path d="M12.6057247,54.0660024 C12.105859,54.0974812 11.6044305,54.1434715 11.1072439,54.0878813 C11.1420715,53.1060102 11.1576993,52.1236925 11.1603783,51.1407052 C12.1114404,51.14584 13.0611629,51.0927056 14.0115552,51.0601105 C13.9988297,52.0589489 13.9834252,53.0752011 14.0492851,54.074486 C13.5681727,54.0651094 13.0868371,54.0356398 12.6057247,54.0660024" id="Fill-21" fill="#F9B2B2"></path>
                <path d="M18.9601811,43.1247032 C18.9662089,43.375864 18.9836228,43.7625399 18.9985808,44.0137007 C19.0048319,44.0190587 19.0117528,44.0217378 19.0177806,44.0284354 C21.8598041,44.0329005 37.9166785,43.9288641 39.4569078,44.0000822 C39.7428962,44.0132541 39.9047554,44.0371423 40.0078987,44.0630398 C40.0177219,43.7498144 40.0226335,43.4361425 39.9982988,43.1247032 C37.7898702,43.1581913 22.369493,43.1789539 18.9601811,43.1247032" id="Fill-23" fill="#FF5F5F"></path>
                <path d="M18.2066988,42.0874651 C17.7066099,42.0559863 17.2054046,42.009996 16.708218,42.0655862 C16.7428223,43.0474573 16.7584501,44.0297749 16.7611292,45.0125391 C17.7121912,45.0074042 18.6619137,45.0605387 19.612306,45.093357 C19.5998038,44.0945186 19.584176,43.0782664 19.650036,42.0789815 C19.1689236,42.0883581 18.6878112,42.1178277 18.2066988,42.0874651" id="Fill-25" fill="#FF5F5F"></path>
                <path d="M9.55473552,42.356062 C9.19864538,42.3335134 8.84188549,42.3009183 8.48802789,42.3404342 C8.51280909,43.0396658 8.52374853,43.7388973 8.52598107,44.4385753 C9.20288721,44.4350033 9.87890033,44.4727332 10.5555832,44.4959516 C10.5464298,43.7848876 10.5357136,43.0615447 10.5825969,42.3500341 C10.2396788,42.3567318 9.89720716,42.3777176 9.55473552,42.356062" id="Fill-27" fill="#FF5F5F"></path>
                <path d="M5.31072157,42.356062 C4.95463144,42.3335134 4.59787154,42.3009183 4.24401395,42.3404342 C4.26857189,43.0396658 4.27973459,43.7388973 4.28174387,44.4385753 C4.95887326,44.4350033 5.63488638,44.4727332 6.31134601,44.4959516 C6.30241585,43.7848876 6.29147641,43.0615447 6.33835975,42.3500341 C5.99566485,42.3567318 5.65319321,42.3777176 5.31072157,42.356062" id="Fill-29" fill="#F9B2B2"></path>
                <path d="M1.06670763,42.356062 C0.710617492,42.3335134 0.353857595,42.3009183 0,42.3404342 C0.0245579403,43.0396658 0.0357206405,43.7388973 0.0377299265,44.4385753 C0.714859318,44.4350033 1.39064918,44.4727332 2.06733207,44.4959516 C2.05840191,43.7848876 2.04746246,43.0615447 2.0943458,42.3500341 C1.75165091,42.3567318 1.40917927,42.3777176 1.06670763,42.356062" id="Fill-31" fill="#FFE1E1"></path>
                <path d="M65.608279,82.0721677 C65.8594397,82.0661399 66.2458924,82.0487261 66.4970532,82.0339913 C66.5026345,82.0275169 66.5053136,82.0205961 66.5117879,82.0145682 C66.516253,79.1723215 66.4124399,55.0599962 66.4834347,53.5197668 C66.4966067,53.2340017 66.5207181,53.0719193 66.5463923,52.9689992 C66.2331669,52.9589527 65.9194951,52.9542644 65.608279,52.9783758 C65.6417671,55.1870277 65.6625297,78.6628559 65.608279,82.0721677" id="Fill-33" fill="#BBD0FF"></path>
                <path d="M76.6235868,89.5947784 C76.2931709,89.5961179 75.962755,89.5985737 75.6325623,89.6061643 C75.6323391,89.5816064 75.6312228,89.5572717 75.6309995,89.5327137 C75.9169879,86.4640875 75.7031106,79.6367568 75.6881526,76.5498237 C75.7352592,76.5000381 72.4148024,74.5530399 70.8710009,73.5966198 C70.8600615,69.7881297 70.8381826,56.4027127 70.8355035,52.5944459 C70.9754838,52.5332743 71.1404685,52.5281395 71.2782162,52.5837297 C71.3637225,52.4254427 71.53027,52.3428387 71.7003896,52.331676 C71.8138026,55.8604287 71.7599984,72.9375739 71.7599984,72.9375739 C72.7208836,73.5303133 73.8123724,74.2712934 74.8150062,74.7899124 C75.3985921,75.0915286 76.0859912,75.5797851 76.6392146,75.9280613 C76.6392146,79.4952138 76.6104148,86.018026 76.6235868,89.5947784" id="Fill-35" fill="#88A7FF"></path>
                <path d="M81.1752225,83.3650317 C81.2975657,80.579045 81.1486552,72.3972323 81.136153,69.8001185 C81.1832596,69.7501096 77.6065072,68.9057629 75.3107863,68.1754991 C75.2996236,64.3667858 75.277968,63.3011944 75.2750657,59.4929276 C75.4152692,59.4319793 75.5800306,59.4268445 75.7180016,59.4824347 C75.8035079,59.3241476 75.9698321,59.2415436 76.1401749,59.2303809 C76.2533647,62.759357 76.1997838,67.3943333 76.1997838,67.3943333 C77.5259125,67.7883766 77.9753228,67.9692124 79.0540862,68.2672565 C79.6870113,68.4420644 81.2926541,68.7235877 82.0872151,69.00779 C82.0872151,72.0145749 82.0689082,80.2245176 82.070471,83.2601023 C81.7710874,83.288009 81.4723735,83.3201576 81.1752225,83.3650317" id="Fill-37" fill="#BBD0FF"></path>
                <path d="M83.0582807,83.3588252 C83.0899827,83.8589142 83.1357498,84.3601194 83.0801596,84.8573061 C82.0982885,84.8224785 81.1159709,84.8070739 80.1329835,84.8041716 C80.1383416,83.8531096 80.0852071,82.9033871 80.0523888,81.9529948 C81.0512272,81.9657202 82.0677027,81.9811248 83.0667643,81.9152648 C83.0573877,82.3966005 83.0279181,82.8777128 83.0582807,83.3588252" id="Fill-39" fill="#88A7FF"></path>
                <path d="M77.6574538,89.867751 C77.6891559,90.3676167 77.7349229,90.8690452 77.6793327,91.3662319 C76.6974616,91.3316275 75.715144,91.3159997 74.7321566,91.3133207 C74.7375147,90.3620354 74.6843802,89.4125361 74.6515619,88.4619206 C75.6504003,88.474646 76.6668758,88.4902738 77.6657142,88.4241906 C77.6565608,88.9055263 77.6270912,89.3866386 77.6574538,89.867751" id="Fill-41" fill="#335FFF"></path>
                <path d="M82.6150322,62.880383 C83.6366425,62.8189881 84.807833,62.8725691 85.8312294,62.9105223 C85.869629,64.5079046 86.0011256,66.1037243 86.1082876,67.6997671 C86.1239153,68.0808617 86.1442315,68.4635191 86.160529,68.8506415 C86.1830777,69.3860046 86.1806219,69.9209212 86.1790591,70.4553913 C86.2223704,70.5283953 86.2487143,70.6170272 86.245812,70.7241891 C86.2301843,71.2595522 86.2270587,71.7951386 86.2259424,72.3307249 C87.7308977,72.322911 89.2258065,72.294781 90.7300919,72.3816268 C90.7716172,75.4147557 90.7892542,78.8189327 90.609758,80.7451683 C90.6099813,80.769503 90.610651,80.7940609 90.6110976,80.8186188 C90.9415135,80.810805 91.2717061,80.8085724 91.6021221,80.8072329 C91.5936384,78.4239964 91.6034616,74.7353938 91.6110522,71.4821364 C91.6293591,71.4218579 91.6344939,71.3584537 91.6324846,71.2950496 C90.1775383,71.24705 88.7221454,71.2642405 87.2665293,71.2680359 C87.2736735,69.4916038 87.1319072,67.7167344 87.0077779,65.9414186 C87.0088942,65.9003399 87.0111268,65.8594844 87.012243,65.8184056 C87.0138058,65.7561178 87.0037594,65.7018671 86.9885781,65.6514116 C86.9175833,64.6143968 86.8421235,61.9009676 86.8421235,61.9009676 C85.9252193,61.8898049 84.4577707,61.797601 83.5437688,61.7897872 C83.5538153,57.4401294 83.5718988,45.6753132 83.4801414,42.8138667 C83.3095754,42.8250294 83.1434744,42.9078566 83.0577449,43.0659204 C82.9199972,43.0105534 82.7552357,43.015465 82.6150322,43.0766366 C82.617488,46.3216336 82.5677023,62.5419299 82.6150322,62.880383" id="Fill-43" fill="#88A7FF"></path>
                <path d="M92.63619,81.0801609 C92.6676688,81.5802499 92.7136591,82.0814551 92.6580689,82.5786418 C91.6761978,82.5438142 90.6938801,82.5284096 89.7108928,82.5255073 C89.7162509,81.5744453 89.6631164,80.624946 89.6302981,79.6743305 C90.6291365,79.6870559 91.6453887,79.7026837 92.6444504,79.6366005 C92.6352969,80.1179362 92.6056042,80.5990485 92.63619,81.0801609" id="Fill-45" fill="#335FFF"></path>
                <path d="M54.6579157,89.5947784 C54.9881084,89.5961179 55.3187476,89.5985737 55.6489402,89.6061643 C55.6491635,89.5816064 55.6502797,89.5572717 55.650503,89.5327137 C55.3645146,86.4640875 55.578392,79.6367568 55.59335,76.5498237 C55.5462434,76.5000381 58.8667002,74.5530399 60.4105016,73.5966198 C60.421441,69.7881297 60.4433199,56.4027127 60.445999,52.5944459 C60.3057955,52.5332743 60.141034,52.5281395 60.003063,52.5837297 C59.9175568,52.4254427 59.7512325,52.3428387 59.581113,52.331676 C59.4676999,55.8604287 59.5215042,72.9375739 59.5215042,72.9375739 C58.5606189,73.5303133 57.4691301,74.2712934 56.4662731,74.7899124 C55.8829104,75.0915286 55.1955113,75.5797851 54.6422879,75.9280613 C54.6422879,79.4952138 54.6710877,86.018026 54.6579157,89.5947784" id="Fill-47" fill="#88A7FF"></path>
                <path d="M50.1063024,83.3650317 C49.9839592,80.579045 50.1328696,72.3972323 50.1453718,69.8001185 C50.0982652,69.7501096 53.6750176,68.9057629 55.9707385,68.1754991 C55.9819012,64.3667858 56.0035569,63.3011944 56.0064592,59.4929276 C55.8662557,59.4319793 55.7014942,59.4268445 55.5635232,59.4824347 C55.478017,59.3241476 55.3116927,59.2415436 55.1413499,59.2303809 C55.0281601,62.759357 55.0817411,67.3943333 55.0817411,67.3943333 C53.7556123,67.7883766 53.3059788,67.9692124 52.2274387,68.2672565 C51.5945136,68.4420644 49.9888708,68.7235877 49.1943098,69.00779 C49.1943098,72.0145749 49.2126166,80.2245176 49.2110538,83.2601023 C49.5104375,83.288009 49.8091513,83.3201576 50.1063024,83.3650317" id="Fill-49" fill="#BBD0FF"></path>
                <path d="M48.2232442,83.3588252 C48.1915421,83.8589142 48.1455518,84.3601194 48.2013653,84.8573061 C49.1832364,84.8224785 50.165554,84.8070739 51.1485414,84.8041716 C51.1431833,83.8531096 51.1963177,82.9033871 51.2291361,81.9529948 C50.2302977,81.9657202 49.2138222,81.9811248 48.2147605,81.9152648 C48.2241372,82.3966005 48.2536067,82.8777128 48.2232442,83.3588252" id="Fill-51" fill="#88A7FF"></path>
                <path d="M53.6240711,89.867751 C53.592369,90.3676167 53.5463787,90.8690452 53.6021922,91.3662319 C54.5840633,91.3316275 55.5663809,91.3159997 56.5493683,91.3133207 C56.5440102,90.3620354 56.5971446,89.4125361 56.629963,88.4619206 C55.6311246,88.474646 54.6146491,88.4902738 53.6155874,88.4241906 C53.6249641,88.9055263 53.6544336,89.3866386 53.6240711,89.867751" id="Fill-53" fill="#335FFF"></path>
                <path d="M48.6664704,62.880383 C47.64486,62.8189881 46.4736695,62.8725691 45.4502732,62.9105223 C45.4118735,64.5079046 45.2803769,66.1037243 45.173215,67.6997671 C45.1575872,68.0808617 45.1372711,68.4635191 45.1209735,68.8506415 C45.0984249,69.3860046 45.1008807,69.9209212 45.1024434,70.4553913 C45.0591322,70.5283953 45.0327882,70.6170272 45.0356905,70.7241891 C45.0513183,71.2595522 45.0544438,71.7951386 45.0555601,72.3307249 C43.5506049,72.322911 42.0556961,72.294781 40.5514106,72.3816268 C40.5098854,75.4147557 40.4922483,78.8189327 40.6717445,80.7451683 C40.6715213,80.769503 40.6706282,80.7940609 40.670405,80.8186188 C40.3399891,80.810805 40.0097964,80.8085724 39.6791572,80.8072329 C39.6878641,78.4239964 39.6780409,74.7353938 39.6704503,71.4821364 C39.6521435,71.4218579 39.6470086,71.3584537 39.6490179,71.2950496 C41.1039643,71.24705 42.5593571,71.2642405 44.0149732,71.2680359 C44.0076058,69.4916038 44.1495954,67.7167344 44.2737246,65.9414186 C44.2726083,65.9003399 44.2703758,65.8594844 44.2692595,65.8184056 C44.2676967,65.7561178 44.2777432,65.7018671 44.2929244,65.6514116 C44.363696,64.6143968 44.4393791,61.9009676 44.4393791,61.9009676 C45.3562832,61.8898049 46.8237318,61.797601 47.7377337,61.7897872 C47.7276873,57.4401294 47.7096037,45.6753132 47.8013611,42.8138667 C47.9719271,42.8250294 48.1380281,42.9078566 48.2237577,43.0659204 C48.3615054,43.0105534 48.5262668,43.015465 48.6664704,43.0766366 C48.6640146,46.3216336 48.7138002,62.5419299 48.6664704,62.880383" id="Fill-55" fill="#88A7FF"></path>
                <path d="M38.6453349,81.0801609 C38.6138561,81.5802499 38.5678658,82.0814551 38.623456,82.5786418 C39.6053271,82.5438142 40.5876447,82.5284096 41.5706321,82.5255073 C41.565274,81.5744453 41.6184085,80.624946 41.6512268,79.6743305 C40.6523884,79.6870559 39.6361362,79.7026837 38.6370745,79.6366005 C38.6462279,80.1179362 38.6756974,80.5990485 38.6453349,81.0801609" id="Fill-57" fill="#335FFF"></path>
                <path d="M64.5709292,82.8257616 C64.5394504,83.3258506 64.4934601,83.8270558 64.5490504,84.3242425 C65.5309215,84.2894149 66.5132391,84.2740104 67.4962264,84.2711081 C67.4908684,83.320046 67.5440028,82.3703235 67.5768211,81.4199312 C66.5779827,81.4326567 65.5615073,81.4480612 64.5626688,81.3822013 C64.5718223,81.8635369 64.6012918,82.3446493 64.5709292,82.8257616" id="Fill-59" fill="#88A7FF"></path>
                <path d="M64.9969425,90.4452868 C64.9743939,90.8013769 64.9417988,91.1581368 64.981538,91.5119944 C65.6805463,91.4872132 66.3797778,91.4762738 67.0794559,91.4740413 C67.0758838,90.7971351 67.1136137,90.121122 67.1370554,89.4444391 C66.4257682,89.4533693 65.7024252,89.464532 64.9911379,89.4174254 C64.9976123,89.7603435 65.0185982,90.1028152 64.9969425,90.4452868" id="Fill-61" fill="#88A7FF"></path>
                <path d="M64.9969425,94.6893008 C64.9743939,95.0453909 64.9417988,95.4021508 64.981538,95.7560084 C65.6805463,95.7314504 66.3797778,95.7202877 67.0794559,95.7182785 C67.0758838,95.0411491 67.1136137,94.3651359 67.1370554,93.6886763 C66.4257682,93.6976065 65.7024252,93.7085459 64.9911379,93.6614393 C64.9976123,94.0043575 65.0185982,94.3468291 64.9969425,94.6893008" id="Fill-63" fill="#BBD0FF"></path>
                <path d="M64.9969425,98.9332924 C64.9150083,99.2806756 64.9417988,99.6461424 64.981538,100 C65.6805463,99.9754421 66.3797778,99.9642794 67.0794559,99.9622701 C67.0758838,99.2851407 67.1136137,98.6093508 67.1370554,97.9326679 C66.4257682,97.9415981 65.7024252,97.9525375 64.9911379,97.9056542 C65.0130168,98.3838643 65.0380213,98.7602705 64.9969425,98.9332924" id="Fill-65" fill="#E6EFFF"></path>
                <path d="M78.9132576,14.7108314 C76.4628216,12.2318189 73.1593321,12.0603598 69.9435815,12.1813635 C69.8147639,12.1309081 69.6694256,12.1081362 69.5068967,12.1326941 C65.1960851,12.7857121 61.2130104,16.6694387 60.967431,21.161979 C60.7044378,25.9827027 63.8697331,30.6862181 68.7393494,31.3015061 C68.8244092,31.3635707 68.9309013,31.4102308 69.0630677,31.4327794 C71.9274166,31.921036 74.8953553,31.5939688 77.4866645,30.2473007 C80.2344747,28.8191448 81.2462619,25.3986703 81.5769011,22.565577 C81.9146844,19.6679633 80.9506736,16.7721356 78.9132576,14.7108314" id="Fill-67" fill="#335FFF"></path>
                <path d="M73.0306039,24.5867624 C72.3655302,24.9816988 71.585704,25.123465 70.7605572,24.9986661 L70.697153,24.9453084 L70.429918,24.9069087 C69.2223371,24.7325473 68.3038701,23.2606336 68.3817858,21.6259678 C68.449655,20.2049561 69.52373,19.0455981 70.5515914,18.7598329 L70.5531542,18.760726 L70.7784175,18.7509028 C70.9309,18.7444284 71.0833825,18.7399633 71.2356417,18.7399633 C72.2585915,18.7399633 72.8629401,18.9565197 73.3223969,19.487641 C73.4541167,19.6399002 73.5626182,19.8144849 73.6608499,19.9966601 C73.9037503,19.8414986 74.1169579,19.6289608 74.3227981,19.4351763 C74.5826657,19.1902667 74.8414171,18.9449105 75.1231637,18.7272379 C75.0126529,18.5584578 74.8943283,18.3950359 74.7619387,18.2423302 C73.6724591,16.9820613 72.2275592,16.8362765 71.2356417,16.8362765 C71.1052614,16.8362765 70.974881,16.8389555 70.8445007,16.8431973 C70.7058599,16.8179696 70.5645402,16.8157371 70.4147367,16.8414113 C68.3165956,17.2046456 66.5883864,19.266173 66.4801082,21.5351035 C66.357765,24.0938176 67.8819201,26.3475667 69.9780519,26.7603634 C70.0588698,26.7954143 70.1441529,26.8217582 70.2312219,26.8385023 C70.5980283,26.9099436 70.9690764,26.946334 71.3332037,26.946334 L71.3336502,26.946334 C72.283596,26.946334 73.206528,26.6962895 74.0026518,26.2236608 C74.5965075,25.8709194 75.0631083,25.2967102 75.4002219,24.538093 C74.8324869,24.2583558 74.2794868,23.9433444 73.6936683,23.7098207 C73.5166278,24.1264127 73.2929273,24.4309311 73.0306039,24.5867624" id="Fill-69" fill="#88A7FF"></path>
                <path d="M80.3596086,22.4232302 C80.2470886,23.3888038 80.0441507,24.4686834 79.6936419,25.4952053 C79.1629672,27.4986867 78.305895,29.311286 76.0396437,29.9078207 C73.449674,30.5898616 70.2457558,31.002435 67.6740929,30.1277258 C62.9761589,28.5301202 60.2236603,23.2767303 62.7162913,18.7522646 C62.7524584,18.686628 62.7948767,18.6341633 62.8397507,18.5875032 C64.2525021,14.4432391 69.8610891,12.008431 73.9312329,13.2387838 C76.1072896,13.8967133 78.414843,15.1382288 79.5087876,17.2435141 C80.2700838,18.7080603 80.4853006,20.0469146 80.4167616,21.4299731 C80.4160919,21.7590495 80.3984548,22.0903585 80.3596086,22.4232302 M79.7849528,13.8493835 C77.2251224,11.2600835 73.9022098,10.9278816 71.2937101,10.9278816 C70.8949784,10.9278816 70.4958003,10.9365885 70.0970686,10.9499837 C69.8474706,10.8926075 69.5936308,10.8805517 69.3237167,10.9214072 C64.2214698,11.6940893 60.0138016,16.1629647 59.744334,21.0953154 C59.4355737,26.7460975 63.1962874,31.6969782 68.3438549,32.4832788 C68.5037048,32.5569527 68.6753871,32.6094173 68.8573391,32.6404497 C69.7583923,32.7940484 70.6677058,32.8719641 71.5607219,32.8719641 L71.5611684,32.8719641 C73.9046656,32.8719641 76.088313,32.3546845 78.0516087,31.3341905 C80.6529644,29.9823875 82.2925418,26.9992675 82.7935238,22.7072093 C83.1788602,19.4026035 82.0820133,16.1743507 79.7849528,13.8493835" id="Fill-71" fill="#88A7FF"></path>
                <path d="M87.5146315,57.4427192 C88.1535845,56.0759582 87.8702751,54.4435249 87.8479497,52.988132 C87.8470567,52.9347743 87.8550939,52.8872212 87.8669263,52.8427937 C87.7666853,49.6942425 87.8099966,46.5273844 87.6807325,43.420805 C87.4795806,38.5869093 87.2572196,33.7405114 87.1507275,28.8990251 C87.1009418,28.7159568 87.0357517,28.5375769 86.9453338,28.3679038 C86.7194008,27.9450608 86.4581936,27.5436501 86.2117211,27.133086 C85.8295103,26.9069296 85.4133648,26.745517 84.9833776,26.6182622 C81.6524279,26.6468387 78.3460361,26.7285497 75.0003516,26.9192086 C74.5178997,26.9466689 74.0374571,26.9544828 73.5579075,26.952027 C69.5228147,27.4521159 65.4857125,27.0846398 61.4318663,27.2152434 C56.9167774,27.360805 52.3983396,27.5235572 47.8848134,27.7113138 C45.4685354,27.8117781 43.0205552,27.9970789 40.6018214,27.9164842 C39.5357835,27.8809869 38.2831053,27.6972488 37.4907768,26.8982227 C36.8935724,26.2958834 36.5874911,25.6890791 36.4946175,25.0963397 L36.4946175,39.7362209 C36.510022,40.4392478 36.5319009,41.1422746 36.565389,41.8446317 C36.7408666,45.5133648 36.9163443,49.1852234 37.0147993,52.8581982 C37.0190411,52.8865515 37.0221667,52.915128 37.0266317,52.9434812 C37.374908,55.1291379 37.7673885,57.8481484 39.8603948,59.0436736 C40.9650556,59.6745894 42.6347723,59.6361897 43.8660181,59.689994 C45.8679368,59.7775095 47.87566,59.5709996 49.869988,59.4252147 C54.0499727,59.1198032 58.2806361,59.2838949 62.4706672,59.133645 C66.7397303,58.980716 71.0150444,59.0550596 75.2861167,59.051934 C78.647429,59.0497015 82.004053,58.9039166 85.3629094,58.8331451 C86.244093,58.5900215 87.139788,58.2444243 87.5146315,57.4427192" id="Fill-73" fill="#BBD0FF"></path>
                <path d="M67.2870374,46.3415032 C66.3330731,48.0808751 64.6539797,49.2848839 62.4138491,49.1134249 C59.4307291,48.8852593 57.2723094,45.9304925 57.6525109,43.0755204 C57.9860524,40.5710569 59.8794696,37.6830432 62.701177,37.8065026 C64.3425404,37.8783904 66.0524428,38.5133248 67.0128815,39.7637705 C67.748057,39.1969286 68.447735,38.5847661 69.1603618,37.9882314 C68.1070494,36.8179339 66.8302598,35.8566022 65.3273138,35.4391172 C64.9602842,35.3645503 64.6024081,35.2984672 64.2521225,35.2428769 C64.1628209,35.2343933 64.0755286,35.2212213 63.9848875,35.2167562 C62.4855136,35.1448684 60.3087871,35.2495745 58.9480539,35.9941266 C58.8815242,36.030517 58.8172271,36.070033 58.7513672,36.1079862 C57.2444026,37.0813736 56.0343659,38.3862933 55.4061292,40.186167 C54.7231952,42.1434349 54.7640507,44.2618921 55.0879922,46.290378 C55.673141,47.5039868 56.2531549,48.6687029 57.068032,49.65236 C59.1911775,51.5788188 62.3825935,52.3168966 65.350309,51.7484919 C66.39804,51.2401425 67.5232402,50.8842756 68.3903587,50.0702915 C69.0835624,49.3507439 69.6312045,48.4959043 70.0417686,47.5676141 C69.1020925,47.1936637 68.1485746,46.8735175 67.2870374,46.3415032" id="Fill-75" fill="#335FFF"></path>
                <path d="M68.7654478,47.7990839 C67.8114834,49.5384558 66.1323901,50.7422414 63.8924827,50.5710056 C60.9091394,50.34284 58.750943,47.38785 59.1311445,44.5331011 C59.4644628,42.0286377 61.35788,39.1404006 64.1795873,39.2640834 C65.8209507,39.3359712 67.5308531,39.9709055 68.4912919,41.221128 C69.2266906,40.6545093 69.9261453,40.0421236 70.6387721,39.4458121 C69.5854597,38.2755146 68.3086701,37.3141829 66.8059474,36.8964747 C66.4386946,36.8219078 66.0810416,36.7558246 65.7305329,36.7002344 C65.6414545,36.691974 65.5539389,36.6785788 65.4632978,36.6743369 C63.9639239,36.6022259 61.7874207,36.706932 60.4266875,37.4514841 C60.3601578,37.4880978 60.2956374,37.5276137 60.2300007,37.5655669 C58.722813,38.5389544 57.5127763,39.8436508 56.8845395,41.6437478 C56.2018288,43.6010156 56.2426842,45.7192496 56.5664025,47.7479587 C57.1515513,48.9613442 57.7317884,50.1260604 58.5466656,51.1097175 C60.6698111,53.0363996 63.8610038,53.7744773 66.8289426,53.2060726 C67.8764503,52.6977232 69.0016505,52.3416331 69.8687691,51.5278723 C70.5619727,50.8081014 71.1096148,49.9532618 71.5201789,49.0251949 C70.5805028,48.6512444 69.6272082,48.3310982 68.7654478,47.7990839" id="Fill-77" fill="#335FFF" opacity="0.189999998"></path>
                <path d="M53.1803984,18.2087751 C54.6295401,17.3249125 56.030459,16.3457204 57.4954518,15.4908809 C58.6711073,14.8048213 59.9094973,14.2241376 61.0476462,13.4795855 C61.034251,13.2322201 61.0152744,12.9855244 60.9887071,12.7394985 C60.2394667,13.1824345 59.4629893,13.5760313 58.7300464,14.0470972 C58.1263676,14.4353359 57.5383165,14.8211188 56.8777079,15.0562053 C55.7065174,15.8217433 54.5201457,16.5636163 53.32596,17.2885221 C50.5768102,18.957569 47.5756066,20.3640692 44.9222328,22.1813568 C44.9309397,22.4088526 44.9405396,22.6361252 44.9530419,22.8631745 C47.735903,21.3845633 50.4901877,19.8501385 53.1803984,18.2087751" id="Fill-79" fill="#1C53EA"></path>
                <path d="M57.0057888,19.0898024 C57.895456,18.6071272 58.7965091,18.1443217 59.6426418,17.5910982 C59.6290233,17.3437328 59.6100467,17.0968139 59.5834795,16.850788 C58.834239,17.2939472 58.0577616,17.6873207 57.325042,18.1583867 C57.2174335,18.2273721 57.1109414,18.2954646 57.0040027,18.3635571 C57.0022167,18.6055644 57.003333,18.847795 57.0057888,19.0898024" id="Fill-81" fill="#1C53EA"></path>
                <path d="M54.2521962,24.0008323 C55.1418634,23.5181571 56.0429166,23.0553516 56.8890492,22.5021282 C56.8754307,22.2547627 56.8564542,22.0078438 56.8298869,21.7618179 C56.0806465,22.2049771 55.3041691,22.5983506 54.5714494,23.0696398 C54.4640643,23.1384021 54.3573488,23.2064945 54.2504102,23.274587 C54.2488474,23.5165944 54.2497404,23.758825 54.2521962,24.0008323" id="Fill-83" fill="#1C53EA"></path>
                <path d="M54.9263117,19.5171105 C53.9323848,20.158296 52.9304209,20.786756 51.9208663,21.3998115 C50.6219745,22.1883447 49.2677157,22.9197248 47.9203778,23.6631606 C47.9324335,23.9665628 47.9449357,24.2695185 47.9344428,24.5706881 C49.2259672,23.8397545 50.5083382,23.0929699 51.7753047,22.3200645 C52.8379937,21.6717349 53.8779109,20.978308 54.933679,20.3154668 C54.9254187,20.0495713 54.9243024,19.7834525 54.9263117,19.5171105" id="Fill-85" fill="#1C53EA"></path>
                <path d="M82.1035573,43.2939967 C82.1294547,43.2919874 82.1555754,43.2910944 82.1814729,43.2888619 C82.2526909,43.2174206 82.3254717,43.1479886 82.4040572,43.0852542 C82.4734891,43.029664 82.5444839,42.9787621 82.6150322,42.9267439 C82.6112369,42.7869869 82.6092276,42.6474531 82.6092276,42.5079194 C82.4304011,42.4402734 82.256263,42.3547671 82.0859202,42.2594377 C81.4012002,42.3210558 80.7196057,42.5369424 80.0326531,42.5300215 C79.8207851,42.5275657 79.608917,42.5297983 79.3974955,42.5329238 C79.1708927,42.5530167 78.9433968,42.5630631 78.7127755,42.5887373 C78.2129098,42.6445508 77.7255463,42.7280478 77.2212155,42.7092945 C77.2104993,42.708848 77.2035784,42.7032666 77.1937552,42.7021504 C76.7405496,42.7606429 76.2877905,42.821368 75.8334686,42.860884 C75.8392732,42.9323252 75.8439615,43.004213 75.8479801,43.0756543 C76.1830844,43.084138 76.5166258,43.114054 76.8492743,43.1493281 C78.5732417,43.1772349 80.4045943,42.987469 82.1035573,43.2939967" id="Fill-87" fill="#88A7FF"></path>
                <path d="M74.5066031,38.7637265 C75.1473421,38.0037699 75.8262575,37.2891338 76.5681305,36.6528599 C76.5859909,36.4445639 76.6136744,36.2376074 76.651181,36.0326603 C76.6076465,35.9835444 76.564112,35.9344285 76.5205774,35.8848661 C76.386625,35.9266146 76.2497703,35.9565307 76.108004,35.9889025 C76.0519673,36.001628 75.9981631,36.0226138 75.9430193,36.0386881 C75.6753378,36.5155587 75.3319731,36.9229972 75.0026735,37.3753098 C74.5282587,38.026765 74.1013971,38.7166199 73.5988523,39.3390521 C73.6562286,39.404019 73.7127118,39.4701022 73.7687486,39.5368551 C73.9745888,39.2539923 74.2391448,39.0048408 74.5066031,38.7637265" id="Fill-89" fill="#88A7FF"></path>
                <path d="M74.5066031,47.3034154 C75.1473421,48.063372 75.8262575,48.7780081 76.5681305,49.414282 C76.5859909,49.6225779 76.6136744,49.8295344 76.651181,50.0344816 C76.6076465,50.0838207 76.564112,50.1327133 76.5205774,50.1822757 C76.386625,50.1405272 76.2497703,50.1106112 76.108004,50.0784626 C76.0519673,50.0655139 75.9981631,50.044528 75.9430193,50.0284537 C75.6753378,49.5515832 75.3319731,49.1441446 75.0026735,48.691832 C74.5282587,48.0403768 74.1013971,47.350522 73.5988523,46.7280898 C73.6562286,46.6631229 73.7127118,46.5970397 73.7687486,46.5302867 C73.9745888,46.8133728 74.2391448,47.062301 74.5066031,47.3034154" id="Fill-91" fill="#88A7FF"></path>
                <path d="M42.8064993,42.7732568 C42.7806018,42.775266 42.7547044,42.7761591 42.7285836,42.7781683 C42.6575889,42.8498329 42.5845848,42.9192649 42.5059994,42.9819993 C42.4367907,43.0373662 42.3655726,43.0882682 42.2950244,43.1402863 C42.2990429,43.2800433 42.3010522,43.4198004 42.300829,43.5593341 C42.4796554,43.6269801 42.6537935,43.7124864 42.8243596,43.8078158 C43.5088564,43.7459745 44.1904508,43.5303111 44.8774034,43.537232 C45.0894947,43.5394645 45.3011395,43.5374552 45.5125611,43.5341064 C45.7391639,43.5142368 45.9666597,43.5039671 46.1972811,43.4782929 C46.6971468,43.4227027 47.1845103,43.3389824 47.6890643,43.357959 C47.6995573,43.3581822 47.7064781,43.3639869 47.7165246,43.3651031 C48.1695069,43.3063873 48.6222661,43.2458855 49.076588,43.2061463 C49.0707834,43.1349282 49.066095,43.0630405 49.0622997,42.9915992 C48.7269722,42.9828923 48.3934307,42.9531995 48.0607822,42.9179254 C46.3368148,42.8897953 44.5054622,43.0797845 42.8064993,42.7732568" id="Fill-93" fill="#88A7FF"></path>
                <path d="M50.4034535,47.3034154 C49.7627145,48.063372 49.0837991,48.7780081 48.341926,49.414282 C48.3240657,49.6225779 48.2963822,49.8295344 48.2588755,50.0344816 C48.30241,50.0838207 48.3459446,50.1327133 48.3894791,50.1822757 C48.5234315,50.1405272 48.6602862,50.1106112 48.8020525,50.0782394 C48.8583125,50.0655139 48.9118935,50.044528 48.9670372,50.0284537 C49.2347188,49.5515832 49.5780834,49.1441446 49.9073831,48.691832 C50.3820211,48.0403768 50.8086595,47.350522 51.3112042,46.7280898 C51.253828,46.6631229 51.1973447,46.5970397 51.1415312,46.5302867 C50.9354678,46.8133728 50.6709118,47.062301 50.4034535,47.3034154" id="Fill-95" fill="#88A7FF"></path>
                <path d="M50.4034535,38.7637265 C49.7627145,38.0037699 49.0837991,37.2891338 48.341926,36.6528599 C48.3240657,36.4445639 48.2963822,36.2376074 48.2588755,36.0326603 C48.30241,35.9835444 48.3459446,35.9344285 48.3894791,35.8848661 C48.5234315,35.9266146 48.6602862,35.9565307 48.8020525,35.9889025 C48.8583125,36.001628 48.9118935,36.0226138 48.9670372,36.0386881 C49.2347188,36.5155587 49.5780834,36.9229972 49.9073831,37.3753098 C50.3820211,38.026765 50.8086595,38.7166199 51.3112042,39.3390521 C51.253828,39.404019 51.1973447,39.4701022 51.1415312,39.5368551 C50.9354678,39.2539923 50.6709118,39.0048408 50.4034535,38.7637265" id="Fill-97" fill="#88A7FF"></path>
            </g>
        </g>
    </g>
</svg>