<?xml version="1.0" encoding="UTF-8"?>
<svg width="18px" height="18px" viewBox="0 0 18 18" version="1.1" xmlns="http://www.w3.org/2000/svg" xmlns:xlink="http://www.w3.org/1999/xlink">
    <title>facebook-fill (1)</title>
    <defs>
        <polygon id="path-1" points="0 0 17.9994375 0 17.9994375 18 0 18"></polygon>
    </defs>
    <g id="页面-1" stroke="none" stroke-width="1" fill="none" fill-rule="evenodd">
        <g id="kepler-home" transform="translate(-1624.000000, -38.000000)">
            <g id="facebook-fill-(1)" transform="translate(1624.000000, 38.000000)">
                <mask id="mask-2" fill="white">
                    <use xlink:href="#path-1"></use>
                </mask>
                <g id="Clip-2"></g>
                <path d="M17.2793362,-0.00112507032 L0.718413651,-0.00112507032 C0.320110632,-0.00112507032 -0.00168760548,0.320673167 -0.00168760548,0.718976186 L-0.00168760548,17.2798987 C-0.00168760548,17.6782018 0.320110632,18 0.718413651,18 L17.2793362,18 C17.6776392,18 17.9994375,17.6782018 17.9994375,17.2798987 L17.9994375,0.718976186 C17.9994375,0.320673167 17.6776392,-0.00112507032 17.2793362,-0.00112507032 Z M15.2002625,5.25298144 L13.7623945,5.25298144 C12.6351303,5.25298144 12.4168386,5.78848678 12.4168386,6.576036 L12.4168386,8.31089443 L15.1079786,8.31089443 L14.7569567,11.0267579 L12.4168386,11.0267579 L12.4168386,18 L9.61096944,18 L9.61096944,11.0290643 L7.2640165,11.0290643 L7.2640165,8.31089443 L9.61096944,8.31089443 L9.61096944,6.30826927 C9.61096944,3.98387399 11.0306957,2.71707294 13.1053816,2.71707294 C14.0999156,2.71707294 14.952747,2.79132758 15.2024845,2.82505157 L15.2024845,5.25298144 L15.2002625,5.25298144 Z" id="Fill-1" fill="#FFFFFF" mask="url(#mask-2)"></path>
            </g>
        </g>
    </g>
</svg>