<?xml version="1.0" encoding="UTF-8"?>
<svg width="120px" height="65px" viewBox="0 0 120 65" version="1.1" xmlns="http://www.w3.org/2000/svg" xmlns:xlink="http://www.w3.org/1999/xlink">
    <title>编组</title>
    <defs>
        <polygon id="path-1" points="0 0 120 0 120 44 0 44"></polygon>
        <polygon id="path-3" points="0 0 29 0 29 29 0 29"></polygon>
    </defs>
    <g id="页面-1" stroke="none" stroke-width="1" fill="none" fill-rule="evenodd">
        <g id="kepler-home" transform="translate(-368.000000, -266.000000)">
            <g id="编组" transform="translate(368.000000, 266.000000)">
                <path d="M97.1718822,2.68373135 C85.2634452,2.68373135 68.7749223,6.50109485 51.6757923,13.861283 C37.0247803,20.1675392 24.133042,28.1121838 15.3750812,36.231953 C6.70673766,44.268936 3.14267042,51.4769957 5.33971766,56.5280151 C9.92976114,67.0814862 38.1841157,65.1130144 68.3239906,52.1396391 C82.9753582,45.8333829 95.8670965,37.8883845 104.625057,29.7686153 C113.293401,21.7316323 116.857112,14.5239264 114.660421,9.47255325 C112.674259,4.90622231 106.254172,2.68373135 97.1718822,2.68373135 M22.8463931,64 C13.1101097,64 6.72665262,61.4994323 4.68679135,56.8092759 C2.36136373,51.4624905 5.98517585,43.9706935 14.8900096,35.7143624 C23.7059372,27.5411713 36.6698672,19.5494731 51.3934265,13.2117298 C66.1173415,6.87398652 80.8480133,2.94482627 92.8720282,2.14809758 C105.017667,1.34217042 112.987564,3.84450703 115.313347,9.19164624 C117.638419,14.5384317 114.014963,22.0298749 105.109773,30.2862059 C96.2942013,38.4597508 83.3302713,46.4514491 68.6063563,52.7891923 C53.882797,59.1265818 39.1521252,63.0557421 27.1281103,63.852117 C25.637333,63.9511774 24.20879,64 22.8463931,64" id="Fill-1" fill="#FFFFFF"></path>
                <g transform="translate(0.000000, 11.000000)">
                    <mask id="mask-2" fill="white">
                        <use xlink:href="#path-1"></use>
                    </mask>
                    <g id="Clip-4"></g>
                    <path d="M49.5310082,44 C38.0769224,44 27.4570546,42.763904 18.8263938,40.3779017 C7.12002011,37.1413519 0.441308751,32.1508581 0.0208288363,26.325423 C-0.294619809,21.953864 2.96205923,17.5035636 9.43886926,13.4551275 C9.60528705,13.3512032 9.82386564,13.4015692 9.9278324,13.5675643 C10.0317992,13.7339141 9.98141254,13.9524034 9.81499475,14.0563277 C3.57521475,17.9565032 0.433502373,22.1815752 0.728725402,26.2739929 C1.55868533,37.7727008 28.8242353,45.2084302 61.5049278,42.8536407 C94.1870396,40.4963683 120.100667,29.2246623 119.271062,17.7263092 C118.441102,6.22795602 91.179455,-1.20919213 58.4948593,1.14737084 C50.3659358,1.73331937 42.5290418,2.87400367 35.2020462,4.5378563 C35.0100803,4.58041915 34.8205982,4.46159787 34.7773083,4.27041975 C34.7336635,4.07924163 34.8535979,3.88948227 35.0444993,3.84585535 C42.4066236,2.17419953 50.2790011,1.02854956 58.4441179,0.439763508 C74.4092257,-0.712980268 89.5848249,0.418482084 101.173748,3.62275509 C112.879767,6.85895023 119.558478,11.8494441 119.978958,17.6748791 C120.399438,23.5006688 114.506687,29.3977512 103.386147,34.2800645 C92.3773792,39.1137852 77.5218416,42.4095683 61.5560241,43.5608933 C57.4807398,43.8549316 53.4569067,44 49.5310082,44" id="Fill-3" fill="#FFFFFF" mask="url(#mask-2)"></path>
                </g>
                <g transform="translate(2.000000, 0.000000)">
                    <mask id="mask-4" fill="white">
                        <use xlink:href="#path-3"></use>
                    </mask>
                    <g id="Clip-6"></g>
                    <path d="M1.83634431,14.4998406 L11.790294,16.9504221 C11.9181722,16.9819488 12.0180659,17.0814882 12.0495926,17.2093662 L14.5001771,27.1636579 L16.9504074,17.2093662 C16.9819341,17.0814882 17.0818278,16.9819488 17.209706,16.9504221 L27.1640099,14.4998406 L17.209706,12.0492591 C17.0818278,12.0177324 16.9819341,11.918193 16.9504074,11.790315 L14.5001771,1.83602326 L12.0495926,11.790315 C12.0180659,11.918193 11.9181722,12.0177324 11.790294,12.0492591 L1.83634431,14.4998406 Z M14.5001771,29 C14.3368757,29 14.1951824,28.8884167 14.1558626,28.730429 L11.4126815,17.5869782 L0.269571378,14.8438005 C0.111229189,14.8048349 0,14.6627876 0,14.4998406 C0,14.3368936 0.111229189,14.1948463 0.269571378,14.1558807 L11.4126815,11.412703 L14.1558626,0.269252239 C14.1951824,0.111264476 14.3368757,-0.000318809387 14.5001771,-0.000318809387 C14.6631243,-0.000318809387 14.8048176,0.111264476 14.8441374,0.269252239 L17.5869642,11.412703 L28.7304286,14.1558807 C28.8887708,14.1948463 29,14.3368936 29,14.4998406 C29,14.6627876 28.8887708,14.8048349 28.7304286,14.8438005 L17.5869642,17.5869782 L14.8441374,28.730429 C14.8048176,28.8884167 14.6631243,29 14.5001771,29 L14.5001771,29 Z" id="Fill-5" fill="#FFFFFF" mask="url(#mask-4)"></path>
                </g>
                <path d="M101.891913,55.9998175 L107.381489,57.351524 C107.513262,57.3840117 107.616199,57.4865851 107.648686,57.618726 L109,63.1080489 L110.351314,57.618726 C110.383801,57.4865851 110.486738,57.3840117 110.618511,57.351524 L116.108087,55.9998175 L110.618511,54.648476 C110.486738,54.6159883 110.383801,54.5134149 110.351314,54.381274 L109,48.8919511 L107.648686,54.381274 C107.616199,54.5134149 107.513262,54.6159883 107.381489,54.648476 L101.891913,55.9998175 Z M109,65 L109,65 C108.831725,65 108.685715,64.8853805 108.645198,64.7225771 L106.992375,58.0074831 L100.277782,56.3542617 C100.114617,56.3141084 100,56.1677313 100,55.9998175 C100,55.8319036 100.114617,55.6855266 100.277782,55.6453732 L106.99274,53.9925169 L108.645198,47.2774229 C108.685715,47.1146195 108.831725,47 109,47 C109.16791,47 109.31392,47.1146195 109.354437,47.2774229 L111.00726,53.9925169 L117.722218,55.6453732 C117.885383,55.6855266 118,55.8319036 118,55.9998175 C118,56.1677313 117.885383,56.3141084 117.722218,56.3542617 L111.00726,58.0074831 L109.354437,64.7225771 C109.31392,64.8853805 109.16791,65 109,65 L109,65 Z" id="Fill-7" fill="#FFFFFF"></path>
            </g>
        </g>
    </g>
</svg>