<?xml version="1.0" encoding="utf-8"?>
<!-- Generator: Adobe Illustrator 23.0.0, SVG Export Plug-In . SVG Version: 6.00 Build 0)  -->
<svg version="1.1" id="图层_1" xmlns="http://www.w3.org/2000/svg" xmlns:xlink="http://www.w3.org/1999/xlink" x="0px" y="0px"
	 viewBox="0 0 40 40" style="enable-background:new 0 0 40 40;" xml:space="preserve">
<style type="text/css">
	.st0{fill:#FFFFFF;}
</style>
<g>
	<path class="st0" d="M14.4,31.88l5.77,6.69c0.92,1.07,2.51,1.22,3.63,0.36l0,0c0.7-0.55,1.08-1.41,1.01-2.29l-0.31-3.89
		c-0.03-0.36-0.18-0.7-0.42-0.97l-3.25-3.6L14.4,31.88z"/>
	<polygon class="st0" points="8.85,17.63 17.5,22.6 27.11,17.53 19.09,13.1 	"/>
	<path class="st0" d="M13.97,30.52v-4.47c0-0.8,0.41-1.55,1.08-1.99l9.92-6.44c1.39-0.9,3.22,0.1,3.22,1.75v4.78
		c0,0.79-0.39,1.53-1.05,1.97l-9.49,6.37C16.09,33.54,13.97,32.42,13.97,30.52z"/>
	<path class="st0" d="M8,15.86V10.9c0-0.94,0.57-1.78,1.45-2.12l19.44-7.62C30.38,0.57,32,1.68,32,3.28v5.15
		c0,0.94-0.58,1.79-1.47,2.13l-19.44,7.44C9.6,18.56,8,17.46,8,15.86z"/>
</g>
</svg>
