<?xml version="1.0" encoding="UTF-8"?>
<svg width="585px" height="160px" viewBox="0 0 585 160" version="1.1" xmlns="http://www.w3.org/2000/svg" xmlns:xlink="http://www.w3.org/1999/xlink">
    <title>编组 16</title>
    <defs>
        <polygon id="path-1" points="0 0 100 0 100 99.9989108 0 99.9989108"></polygon>
    </defs>
    <g id="页面-1" stroke="none" stroke-width="1" fill="none" fill-rule="evenodd">
        <g id="kepler-home" transform="translate(-47.000000, -699.000000)">
            <g id="编组-16" transform="translate(59.515308, 711.515308)">
                <g id="编组-7备份">
                    <rect id="矩形" transform="translate(73.484692, 73.484692) rotate(-195.000000) translate(-73.484692, -73.484692) " x="13.4846923" y="13.4846923" width="120" height="120" rx="60"></rect>
                    <text id="WHO-JUST-CLAIMED?" font-family="TTTravelsNext-DemiBold, TT Travels Next" font-size="12" font-weight="500" line-spacing="12" fill="#FFFFFF">
                        <tspan x="13.4846923" y="99.4846923">WHO JUST CLAIMED?</tspan>
                    </text>
                </g>
                <g id="编组备份-3" transform="translate(26.484692, 20.484692)">
                    <mask id="mask-2" fill="white">
                        <use xlink:href="#path-1"></use>
                    </mask>
                    <g id="Clip-2"></g>
                    <path d="M45.3708054,72.5447193 C45.3962911,72.5447193 45.422561,72.5474639 45.4480467,72.5525611 C45.5911588,72.5811835 45.7064326,72.6870472 45.7472098,72.8274147 L53.0173038,97.814393 L57.0887447,72.1118543 C57.1114858,71.9671738 57.2126444,71.8479791 57.3510515,71.8013206 C57.4886743,71.7546622 57.6419807,71.7887738 57.7470603,71.8899325 L76.5308158,89.8957856 L67.1830479,65.6055475 C67.1309002,65.4691009 67.1583464,65.3150103 67.2548,65.2052257 C67.3512536,65.0954411 67.5014233,65.0495668 67.6425749,65.0840706 L92.9149933,71.3041532 L72.6910989,54.9329146 C72.5777855,54.841166 72.5248536,54.694133 72.553476,54.5506289 C72.5824905,54.4075168 72.6883542,54.2922429 72.8283296,54.2518579 L97.8157,46.9817638 L72.1127692,42.910323 C71.9684808,42.8875819 71.848894,42.7868153 71.8026277,42.6484083 C71.7559692,42.5096091 71.7900808,42.357479 71.8912395,42.2516153 L89.8967005,23.4682519 L65.6064624,32.8160197 C65.4704079,32.8685595 65.3159253,32.8407213 65.2065327,32.7438756 C65.0971402,32.6474219 65.0500897,32.4980365 65.0849855,32.3561006 L71.3050681,7.0836823 L54.9342216,27.3075767 C54.842473,27.4208901 54.6954401,27.473822 54.5519359,27.4455916 C54.4088238,27.4165771 54.2935499,27.3107134 54.2527728,27.1703459 L46.9826788,2.18336761 L42.9112379,27.8862985 C42.8884968,28.0305868 42.7873381,28.1497815 42.6489311,28.1968321 C42.5113083,28.2423143 42.3580019,28.2089868 42.2525302,28.1078281 L23.4691668,10.1023671 L32.8169347,34.3922131 C32.8694745,34.5286597 32.8416362,34.6831424 32.7451826,34.7925349 C32.648729,34.9019274 32.4989514,34.948978 32.3574076,34.9136901 L7.08498932,28.6936075 L27.3088837,45.0648461 C27.4221971,45.1565946 27.475129,45.3036276 27.4465066,45.4471318 C27.4174921,45.5902439 27.3116283,45.7055177 27.171653,45.7459028 L2.18428254,53.0163889 L27.8872134,57.0878297 C28.0315017,57.1105708 28.1510886,57.2117295 28.197747,57.3497444 C28.2440134,57.4885436 28.2099017,57.6406737 28.1091351,57.7465374 L10.1032821,76.5295087 L34.3935202,67.1817409 C34.5295747,67.1292011 34.6840573,67.1570393 34.7934498,67.2538851 C34.9032344,67.3503387 34.9498929,67.4997242 34.9149971,67.64166 L28.6949145,92.9140783 L45.0661531,72.6901839 C45.141434,72.5972591 45.2539632,72.5447193 45.3708054,72.5447193 M53.1302251,99.9991069 C52.9569223,99.9991069 52.8028317,99.8846172 52.7542128,99.7164115 L45.2037759,73.7660732 L28.1989233,94.772575 C28.0832573,94.9156871 27.8844688,94.9588168 27.7197918,94.8772625 C27.5551149,94.7957082 27.4696398,94.6106427 27.5135536,94.4322427 L33.9743782,68.1835255 L8.74548162,77.8927984 C8.57335503,77.9586692 8.3796636,77.8963272 8.27811283,77.743805 C8.17656207,77.5908907 8.19459811,77.3881813 8.32163459,77.2552635 L27.0242279,57.7449691 L0.330882987,53.516693 C0.149738373,53.4876785 0.0121155164,53.3375089 -1.74225501e-05,53.1540117 C-0.0106255824,52.9709067 0.106216615,52.8042693 0.282656174,52.7529058 L26.2326024,45.202861 L5.22610054,28.1980083 C5.08338054,28.0823424 5.03985879,27.8831618 5.12180516,27.7188769 C5.20335944,27.5542 5.38803285,27.4683327 5.56643285,27.5122466 L31.8151501,33.9730712 L22.1066613,8.74456669 C22.0403985,8.57322427 22.1023484,8.37914076 22.2552626,8.2771979 C22.408569,8.17525505 22.6116706,8.19407527 22.7438042,8.32071966 L42.2540986,27.0229209 L46.4823746,0.329968056 C46.510997,0.148431353 46.6615588,0.0115926727 46.8450559,0 C47.0293372,-0.00565919531 47.1947983,0.105693771 47.2461619,0.281741243 L54.7962066,26.2316875 L71.8010593,5.22518561 C71.9167252,5.08207352 72.1151217,5.03894385 72.2801907,5.12049814 C72.4444756,5.20205242 72.5303428,5.38711792 72.486429,5.56551792 L66.0259965,31.8142351 L91.2541089,22.1049622 C91.4266275,22.0394835 91.620319,22.1014334 91.7214777,22.2539556 C91.8234205,22.4068699 91.8053845,22.6099715 91.6779559,22.7424972 L72.9761468,42.2531837 L99.6690996,46.4814597 C99.8502442,46.5104742 99.987475,46.6606438 100,46.844141 C100.010608,47.027246 99.893766,47.1938834 99.7173264,47.2452469 L73.7673802,54.7948996 L94.773882,71.8001444 C94.916602,71.9158103 94.9601238,72.1145989 94.8785695,72.2788837 C94.7966231,72.4435606 94.6119497,72.5286437 94.4335497,72.485514 L68.1848325,66.0246895 L77.8937133,91.253586 C77.9595841,91.4249284 77.8976342,91.619012 77.7447199,91.7209548 C77.5918056,91.8228977 77.388312,91.8036854 77.2565705,91.6774331 L57.745884,72.9748397 L53.517608,99.6681847 C53.4889856,99.8497214 53.3384238,99.98656 53.1553187,99.9991069 C53.1470849,99.9991069 53.138459,99.9991069 53.1302251,99.9991069" id="Fill-1" fill="#FFFFFF" mask="url(#mask-2)"></path>
                </g>
                <path d="M117.484692,42.4846923 L531.484692,42.4846923 C553.576082,42.4846923 571.484692,60.3933023 571.484692,82.4846923 C571.484692,104.576082 553.576082,122.484692 531.484692,122.484692 L354.484692,122.484692 L354.484692,122.484692 L78.9846923,122.484692" id="矩形备份-7" stroke="#FFFFFF"></path>
            </g>
        </g>
    </g>
</svg>