<?xml version="1.0" encoding="UTF-8"?>
<svg width="600px" height="50px" viewBox="0 0 600 50" version="1.1" xmlns="http://www.w3.org/2000/svg" xmlns:xlink="http://www.w3.org/1999/xlink">
    <title>编组 6备份</title>
    <defs>
        <polygon id="path-1" points="293.988132 34.375 14.3856253 34.375 0 17.1346263 14.3856253 0 293.988132 0 308.823155 17.1876607"></polygon>
        <linearGradient x1="100%" y1="50%" x2="0%" y2="50%" id="linearGradient-3">
            <stop stop-color="#000000" offset="0%"></stop>
            <stop stop-color="#000000" offset="100%"></stop>
        </linearGradient>
    </defs>
    <g id="页面-1" stroke="none" stroke-width="1" fill="none" fill-rule="evenodd">
        <g id="kepler-home-claim-不可点击备份" transform="translate(-660.000000, -703.000000)">
            <g id="编组-6备份" transform="translate(660.000000, 703.000000)">
                <g id="编组-5">
                    <polygon id="Fill-1" opacity="0.08" points="447.521703 48.8266662 154.031801 48.8266662 135.301078 24.3382306 154.031801 0 447.521703 0 466.837562 24.4135614"></polygon>
                    <g id="编组备份" opacity="0.08" transform="translate(145.228714, 7.812500)">
                        <mask id="mask-2" fill="white">
                            <use xlink:href="#path-1"></use>
                        </mask>
                        <use id="蒙版" fill="#5FFF45" opacity="0.100000001" xlink:href="#path-1"></use>
                        <g id="编组" mask="url(#mask-2)">
                            <g transform="translate(153.791249, 15.625000) scale(-1, 1) translate(-153.791249, -15.625000) translate(-15.394523, -3.125000)">
                                <g id="编组-3" transform="translate(105.741108, 0.000000)"></g>
                                <g id="编组-4" fill="#000000">
                                    <polygon id="Fill-1" points="44.8860212 0 31.6629013 0.0221089868 0 37.5 13.2215559 37.5"></polygon>
                                    <polygon id="Fill-2" points="67.3290317 0 54.1059119 0.0221089868 22.4430106 37.5 35.6645665 37.5"></polygon>
                                    <polygon id="Fill-3" points="112.215053 0 98.991933 0.0221089868 67.3290317 37.5 80.5505877 37.5"></polygon>
                                    <polygon id="Fill-4" points="89.7720423 0 76.5480093 0.0221089868 44.8860212 37.5 57.7315991 37.5"></polygon>
                                    <polygon id="Fill-5" points="134.658063 0 121.434944 0.0221089868 89.7720423 37.5 102.618252 37.5"></polygon>
                                    <polygon id="Fill-1" points="157.101074 0 143.877954 0.0221089868 112.215053 37.5 125.436609 37.5"></polygon>
                                    <polygon id="Fill-2" points="179.544085 0 166.320965 0.0221089868 134.658063 37.5 147.879619 37.5"></polygon>
                                    <polygon id="Fill-3" points="226.300357 0 213.077237 0.0221089868 181.414336 37.5 194.635891 37.5"></polygon>
                                    <polygon id="Fill-4" points="201.987095 0 188.763062 0.0221089868 157.101074 37.5 169.946652 37.5"></polygon>
                                    <polygon id="Fill-5" points="248.743367 0 235.520247 0.0221089868 203.857346 37.5 216.703556 37.5"></polygon>
                                    <polygon id="Fill-5备份-2" points="293.629388 0 280.406269 0.0221089868 248.743367 37.5 261.589577 37.5"></polygon>
                                    <polygon id="Fill-5备份" points="271.186378 0 257.963258 0.0221089868 226.300357 37.5 239.146567 37.5"></polygon>
                                    <polygon id="Fill-5备份-3" points="316.072399 0 302.849279 0.0221089868 271.186378 37.5 284.032588 37.5"></polygon>
                                    <polygon id="Fill-5备份-4" points="338.371544 0 325.148424 0.0221089868 293.485523 37.5 306.331733 37.5"></polygon>
                                </g>
                            </g>
                        </g>
                    </g>
                    <polygon id="Fill-3" fill="#000000" points="430.555028 0 430.555028 1.02449848 446.103558 1.02449848 465.451322 25.0002283 446.103558 48.9759581 430.555028 48.9759581 430.555028 50 446.930533 50 467.103995 25.0002283 446.930533 0"></polygon>
                    <polygon id="Fill-4" fill="#000000" points="468.596145 15.2919663 476.429227 24.9996348 468.596145 34.7073033 467.394819 34.2111861 474.828114 24.9996348 467.394819 15.7880834"></polygon>
                    <polygon id="Fill-5" stroke="#000000" stroke-width="0.5" fill="#000000" opacity="0.200000003" points="430.827432 3.94454742 364.003276 3.94454742 361.987525 2.50230558 318.368435 2.50230558 318.368435 2.16080608 362.185336 2.16080608 364.200449 3.60304793 430.629622 3.60304793 435.11864 0.391674352 435.456194 0.633189368"></polygon>
                    <polygon id="Fill-6" fill="#000000" points="152.836225 0 132.662763 25.0002283 152.836225 50 169.21173 50 169.21173 48.9759581 153.662562 48.9759581 134.315436 25.0002283 153.662562 1.02449848 169.21173 1.02449848 169.21173 0"></polygon>
                    <polygon id="Fill-7" fill="#000000" points="131.170166 15.2920119 132.37153 15.7881445 124.938865 24.9996804 132.37153 34.2112164 131.170166 34.7073489 123.337084 24.9996804"></polygon>
                    <polygon id="矩形" fill="url(#linearGradient-3)" points="1.32494827e-12 24.4133331 124.313261 24.4133331 124.313261 25.5070831 1.32494827e-12 25.5070831"></polygon>
                    <polygon id="Fill-8" stroke="#000000" stroke-width="0.5" fill="#000000" opacity="0.200000003" points="235.76329 3.94454742 168.938496 3.94454742 164.310373 0.633189368 164.647926 0.391674352 169.136306 3.60304793 235.56548 3.60304793 237.581231 2.16080608 281.398132 2.16080608 281.398132 2.50230558 237.779041 2.50230558"></polygon>
                    <polygon id="Fill-9" stroke="#000000" stroke-width="0.5" fill="#000000" opacity="0.300000012" points="281.155236 49.6586831 318.125347 49.6586831 318.125347 49.3171836 281.155236 49.3171836"></polygon>
                </g>
                <rect id="矩形" fill="#000000" x="475.686739" y="24.4527598" width="124.313261" height="1.09375"></rect>
            </g>
        </g>
    </g>
</svg>