<?xml version="1.0" encoding="UTF-8"?>
<svg width="30px" height="30px" viewBox="0 0 30 30" version="1.1" xmlns="http://www.w3.org/2000/svg" xmlns:xlink="http://www.w3.org/1999/xlink">
    <title>位图</title>
    <defs>
        <rect id="path-1" x="0" y="0" width="30" height="30" rx="15"></rect>
    </defs>
    <g id="页面-1" stroke="none" stroke-width="1" fill="none" fill-rule="evenodd">
        <g id="kepler-home-claim-不可点击备份" transform="translate(-569.000000, -793.000000)">
            <g id="位图" transform="translate(569.000000, 793.000000)">
                <mask id="mask-2" fill="white">
                    <use xlink:href="#path-1"></use>
                </mask>
                <use id="蒙版" fill="#D8D8D8" xlink:href="#path-1"></use>
                <g id="编组-23" mask="url(#mask-2)">
                    <g transform="translate(0.000000, 0.000000)">
                        <g id="编组-22" stroke-width="1" fill="none">
                            <polygon id="Fill-521" fill="#3279A6" points="0 30 30 30 30 0 0 0"></polygon>
                            <polyline id="Fill-522" fill="#DC9258" points="3.7497375 12.4999875 4.9997625 12.4999875 4.9997625 9.999975 6.24975 9.999975 6.24975 8.74995 7.4997375 8.74995 7.4997375 7.4999625 21.24975 7.4999625 21.24975 8.74995 22.499625 8.74995 22.499625 9.999975 23.749875 9.999975 23.749875 12.4999875 24.99975 12.4999875 25.000125 22.4999625 23.749875 22.4999625 23.749875 23.7499875 22.5 23.7499875 22.5 25.0000125 21.250125 25.0000125 21.250125 26.2499625 19.999875 26.2499625 19.999875 29.9999625 8.749875 29.9999625 8.749875 26.2499625 7.5 26.2499625 7.5 25.0000125 6.249975 25.0000125 6.249975 23.7499875 4.9999875 23.7499875 4.9999875 22.4999625 3.75 22.4999625 3.7497375 12.4999875"></polyline>
                            <path d="M2.5000125,21.249975 L4.9999875,21.249975 C4.9999875,18.75 4.9999875,16.24995 4.9999875,13.749975 L2.5000125,13.749975 L2.5000125,21.249975" id="Fill-523" fill="#F9CD71"></path>
                            <polyline id="Fill-524" fill="#201615" points="11.25 21.2499375 11.25 22.4999625 18.75 22.4999625 18.75 21.249975 19.999875 21.249975 19.999875 13.749975 18.75 13.749975 18.75 12.4999875 11.25 12.4999875 11.25 13.749975 10.000125 13.749975 10.000125 21.2499375 11.25 21.2499375"></polyline>
                            <polygon id="Fill-525" fill="#F9CD71" points="10.000125 13.7500125 11.25 13.7500125 11.25 12.500025 10.000125 12.500025"></polygon>
                            <path d="M18.75,17.499975 L18.75,16.250025 L19.999875,16.250025 C19.999875,18.3332625 19.999875,20.41665 19.999875,22.4999625 C17.91675,22.4999625 15.83325,22.4999625 13.750125,22.4999625 L13.750125,21.249975 L15,21.249975 L15,19.9999875 L16.249875,19.9999875 L16.249875,18.7499625 L17.500125,18.7499625 L17.500125,17.499975 L18.75,17.499975" id="Fill-526" fill="#614742"></path>
                            <polygon id="Fill-527" fill="#F9CD71" points="18.75 13.7500125 19.999875 13.7500125 19.999875 12.500025 18.75 12.500025"></polygon>
                            <polygon id="Fill-528" fill="#F9CD71" points="18.75 22.4999625 19.999875 22.4999625 19.999875 21.249975 18.75 21.249975"></polygon>
                            <polygon id="Fill-529" fill="#F9CD71" points="10.000125 22.4999625 11.25 22.4999625 11.25 21.249975 10.000125 21.249975"></polygon>
                            <polygon id="Fill-530" fill="#F9CD71" points="19.999875 21.249975 21.250125 21.249975 21.250125 13.749975 19.999875 13.749975"></polygon>
                            <polygon id="Fill-531" fill="#F9CD71" points="8.749875 21.249975 10.000125 21.249975 10.000125 13.749975 8.749875 13.749975"></polygon>
                            <polygon id="Fill-532" fill="#F9CD71" points="11.25 23.74995 18.75 23.74995 18.75 22.4999625 11.25 22.4999625"></polygon>
                            <polygon id="Fill-533" fill="#F9CD71" points="11.25 12.4999875 18.75 12.4999875 18.75 11.25 11.25 11.25"></polygon>
                            <polygon id="Fill-534" fill="#000105" points="10.000125 23.74995 11.25 23.74995 11.25 22.4999625 10.000125 22.4999625"></polygon>
                            <polygon id="Fill-535" fill="#000105" points="8.749875 22.4999625 10.000125 22.4999625 10.000125 21.249975 8.749875 21.249975"></polygon>
                            <polygon id="Fill-536" fill="#000105" points="7.5 21.249975 8.749875 21.249975 8.749875 13.749975 7.5 13.749975"></polygon>
                            <polygon id="Fill-537" fill="#000105" points="8.749875 13.7500125 10.000125 13.7500125 10.000125 12.500025 8.749875 12.500025"></polygon>
                            <polygon id="Fill-538" fill="#000105" points="10.000125 12.4999875 11.25 12.4999875 11.25 11.25 10.000125 11.25"></polygon>
                            <polygon id="Fill-539" fill="#000105" points="11.25 24.999975 18.75 24.999975 18.75 23.7499875 11.25 23.7499875"></polygon>
                            <polygon id="Fill-540" fill="#000105" points="21.250125 21.249975 22.5 21.249975 22.5 13.749975 21.250125 13.749975"></polygon>
                            <polygon id="Fill-541" fill="#000105" points="19.999875 13.7500125 21.250125 13.7500125 21.250125 12.500025 19.999875 12.500025"></polygon>
                            <polygon id="Fill-542" fill="#000105" points="18.75 12.4999875 19.999875 12.4999875 19.999875 11.25 18.75 11.25"></polygon>
                            <polygon id="Fill-543" fill="#000105" points="19.999875 22.4999625 21.250125 22.4999625 21.250125 21.249975 19.999875 21.249975"></polygon>
                            <polygon id="Fill-544" fill="#000105" points="18.75 23.74995 19.999875 23.74995 19.999875 22.4999625 18.75 22.4999625"></polygon>
                            <polygon id="Fill-545" fill="#000105" points="11.25 11.2499625 18.75 11.2499625 18.75 9.999975 11.25 9.999975"></polygon>
                            <polygon id="Fill-546" fill="#000105" points="3.75 21.249975 4.9999875 21.249975 4.9999875 19.9999875 3.75 19.9999875"></polygon>
                            <polygon id="Fill-547" fill="#000105" points="3.75 14.9999625 4.9999875 14.9999625 4.9999875 13.749975 3.75 13.749975"></polygon>
                            <polygon id="Fill-554" fill="#D18751" points="7.5 26.25 8.749875 26.25 8.749875 25.0000125 7.5 25.0000125"></polygon>
                            <polygon id="Fill-555" fill="#D18751" points="6.2500125 24.999975 7.5 24.999975 7.5 23.7499875 6.2500125 23.7499875"></polygon>
                            <polygon id="Fill-556" fill="#D18751" points="4.9999875 23.74995 6.2500125 23.74995 6.2500125 22.4999625 4.9999875 22.4999625"></polygon>
                            <path d="M26.25,21.249975 L23.749875,21.249975 C23.749875,18.75 23.749875,16.24995 23.749875,13.749975 L26.25,13.749975 L26.25,21.249975" id="Fill-557" fill="#F9CD71"></path>
                            <polygon id="Fill-558" fill="#000105" points="23.749875 21.249975 25.000125 21.249975 25.000125 19.9999875 23.749875 19.9999875"></polygon>
                            <polygon id="Fill-559" fill="#000105" points="23.749875 15 25.000125 15 25.000125 13.7500125 23.749875 13.7500125"></polygon>
                            <path d="M10.000125,4.99995 L10.000125,7.4999625 C12.9165,7.4999625 15.83325,7.4999625 18.75,7.4999625 L18.75,4.99995 L10.000125,4.99995" id="Fill-560" fill="#F9CD71"></path>
                            <polygon id="Fill-561" fill="#000105" points="10.000125 7.5 11.25 7.5 11.25 6.2500125 10.000125 6.2500125"></polygon>
                            <polygon id="Fill-562" fill="#000105" points="17.500125 7.5 18.75 7.5 18.75 6.2500125 17.500125 6.2500125"></polygon>
                            <polygon id="Fill-563" fill="#D18751" points="3.75 22.4999625 4.9999875 22.4999625 4.9999875 21.249975 3.75 21.249975"></polygon>
                            <polygon id="Fill-564" fill="#D18751" points="3.75 13.7500125 4.9999875 13.7500125 4.9999875 12.500025 3.75 12.500025"></polygon>
                            <polygon id="Fill-565" fill="#D18751" points="4.9999875 12.4999875 6.2500125 12.4999875 6.2500125 9.999975 4.9999875 9.999975"></polygon>
                            <polygon id="Fill-566" fill="#D18751" points="6.2500125 9.999975 7.5 9.999975 7.5 8.7499875 6.2500125 8.7499875"></polygon>
                            <polygon id="Fill-567" fill="#D18751" points="7.5 8.74995 8.749875 8.74995 8.749875 7.4999625 7.5 7.4999625"></polygon>
                        </g>
                        <polygon id="Fill-548" fill="#D18751" points="8.749875 28.749975 19.999875 28.749975 19.999875 26.2499625 8.749875 26.2499625"></polygon>
                        <polygon id="Fill-549" fill="#000105" points="7.5 29.9999625 21.250125 29.9999625 21.250125 28.749975 7.5 28.749975"></polygon>
                        <polygon id="Fill-550" fill="#F9CD71" points="7.5 28.749975 8.749875 28.749975 8.749875 27.4999875 7.5 27.4999875"></polygon>
                        <polygon id="Fill-551" fill="#F9CD71" points="19.999875 28.749975 21.250125 28.749975 21.250125 27.4999875 19.999875 27.4999875"></polygon>
                        <polygon id="Fill-552" fill="#F9CD71" points="11.25 28.749975 12.499875 28.749975 12.499875 27.4999875 11.25 27.4999875"></polygon>
                        <polygon id="Fill-553" fill="#F9CD71" points="16.249875 28.749975 17.500125 28.749975 17.500125 27.4999875 16.249875 27.4999875"></polygon>
                    </g>
                </g>
            </g>
        </g>
    </g>
</svg>