<?xml version="1.0" encoding="UTF-8"?>
<svg width="30px" height="30px" viewBox="0 0 30 30" version="1.1" xmlns="http://www.w3.org/2000/svg" xmlns:xlink="http://www.w3.org/1999/xlink">
    <title>位图备份</title>
    <defs>
        <rect id="path-1" x="0" y="0" width="30" height="30" rx="15"></rect>
    </defs>
    <g id="页面-1" stroke="none" stroke-width="1" fill="none" fill-rule="evenodd">
        <g id="kepler-home-claim-不可点击备份" transform="translate(-569.000000, -853.000000)">
            <g id="位图备份" transform="translate(569.000000, 853.000000)">
                <mask id="mask-2" fill="white">
                    <use xlink:href="#path-1"></use>
                </mask>
                <use id="蒙版" fill="#D8D8D8" xlink:href="#path-1"></use>
                <g id="编组-25" mask="url(#mask-2)">
                    <polygon id="Fill-355" fill="#E7BD39" points="0 29.9990625 29.9990625 29.9990625 29.9990625 0 0 0"></polygon>
                    <polyline id="Fill-356" fill="#593724" points="14.9995313 29.9979001 7.49976563 30 7.49976563 18.7485141 6.24992969 18.7485141 6.24992969 13.7485704 7.49976563 13.7485704 7.49976563 8.74787663 8.74997656 8.74787663 8.74997656 7.49560326 9.99981251 7.49560326 9.99981251 6.24542983 18.7494141 6.24542983 18.7494141 7.49560326 19.99925 7.49560326 19.99925 8.74577669 21.249086 8.74577669 21.249086 23.7478204 21.249461 25.0003937 21.249461 26.2503422 19.99925 26.2503422 19.99925 27.5002906 17.4992031 27.4982657 14.9995313 27.4982657 14.9995313 29.9979001"></polyline>
                    <path d="M21.249086,13.7495453 L22.4989219,13.7495453 L22.4992969,25.0003937 L21.249461,25.0003937 C21.249461,19.5822256 21.249086,19.167376 21.249086,13.7495453" id="Fill-357" fill="#000105"></path>
                    <polygon id="Fill-358" fill="#000105" points="19.99925 26.2503797 21.249461 26.2503797 21.249461 25.0002062 19.99925 25.0002062"></polygon>
                    <path d="M14.9995313,27.5002906 L14.9995313,29.9979001 L13.7496953,29.9979001 L13.7496953,27.5002906 C13.3338333,27.5002906 12.9175963,27.4982657 12.4994844,27.4982657 L12.4994844,26.2480922 C14.9980313,26.2480922 17.4984532,26.2501172 19.99925,26.2501172 L19.99925,27.5002906 L14.9995313,27.5002906" id="Fill-359" fill="#000105"></path>
                    <polyline id="Fill-360" fill="#000105" points="8.74997656 30 7.49976563 30 7.49976563 20.001425 6.2495547 20.001425 6.2495547 18.7514765 4.99934377 18.7514765 4.99934377 13.7485704 8.74960157 13.7495453 8.74922659 16.2515421 7.49939064 16.2515421 7.49939064 15.0015937 6.2495547 15.0015937 6.2495547 18.751289 8.74997656 18.7485141 8.74997656 30"></polyline>
                    <polygon id="Fill-361" fill="#3279A6" points="6.2495547 13.7486079 22.4992969 13.7486079 22.4992969 11.2496484 6.2495547 11.2496484"></polygon>
                    <polygon id="Fill-362" fill="#FFFFFE" points="11.2496484 16.2494047 12.4994844 16.2494047 12.4994844 14.9992313 11.2496484 14.9992313"></polygon>
                    <polygon id="Fill-363" fill="#000105" points="12.4994844 16.2494047 13.7496953 16.2494047 13.7496953 14.9992313 12.4994844 14.9992313"></polygon>
                    <polygon id="Fill-364" fill="#000105" points="19.99925 16.2484297 21.249086 16.2484297 21.249086 14.9982563 19.99925 14.9982563"></polygon>
                    <polygon id="Fill-365" fill="#FFFFFE" points="18.7494141 16.2484297 19.99925 16.2484297 19.99925 14.9982563 18.7494141 14.9982563"></polygon>
                    <polygon id="Fill-366" fill="#000105" points="11.2496484 14.9992313 13.7496953 14.9992313 13.7496953 13.7495453 11.2496484 13.7495453"></polygon>
                    <polygon id="Fill-367" fill="#000105" points="18.7494141 14.9982938 21.249086 14.9982938 21.249086 13.7486079 18.7494141 13.7486079"></polygon>
                    <polygon id="Fill-368" fill="#000105" points="16.2493672 20.0029999 18.7490391 20.0029999 18.7490391 18.7528265 16.2493672 18.7528265"></polygon>
                    <polygon id="Fill-369" fill="#000105" points="13.7500703 23.7492453 18.7494141 23.7492453 18.7494141 21.247286 13.7500703 21.247286"></polygon>
                    <polygon id="Fill-370" fill="#FFFFFE" points="14.9999063 22.4984719 18.7494141 22.4984719 18.7494141 21.2482985 14.9999063 21.2482985"></polygon>
                    <polygon id="Fill-371" fill="#F7C059" points="4.99971876 19.999325 6.24992969 19.999325 6.24992969 18.7491516 4.99971876 18.7491516"></polygon>
                    <polyline id="Fill-372" fill="#000105" points="22.4992969 11.2496484 6.2495547 11.2496484 6.2495547 4.99979376 7.49939064 4.99979376 7.49939064 3.74572045 8.74960157 3.74572045 8.74960157 2.49554701 19.99925 2.49989688 19.998875 3.75175776 21.249086 3.75175776 21.249086 4.99589388 22.4992969 4.99979376 22.4992969 11.2496484"></polyline>
                    <polygon id="Fill-373" fill="#000105" points="21.249086 11.2496484 27.4990157 11.2496484 27.4990157 10.000825 21.249086 10.000825"></polygon>
                </g>
            </g>
        </g>
    </g>
</svg>