<?xml version="1.0" encoding="UTF-8"?>
<svg width="30px" height="30px" viewBox="0 0 30 30" version="1.1" xmlns="http://www.w3.org/2000/svg" xmlns:xlink="http://www.w3.org/1999/xlink">
    <title>位图备份 2</title>
    <defs>
        <rect id="path-1" x="0" y="0" width="30" height="30" rx="15"></rect>
    </defs>
    <g id="页面-1" stroke="none" stroke-width="1" fill="none" fill-rule="evenodd">
        <g id="kepler-home-claim-不可点击备份" transform="translate(-1027.000000, -793.000000)">
            <g id="位图备份-2" transform="translate(1027.000000, 793.000000)">
                <mask id="mask-2" fill="white">
                    <use xlink:href="#path-1"></use>
                </mask>
                <use id="蒙版" fill="#D8D8D8" xlink:href="#path-1"></use>
                <g id="编组-24" mask="url(#mask-2)">
                    <g transform="translate(0.000000, 0.000000)">
                        <polygon id="Fill-396" fill="#87C26B" points="0 29.999025 29.999025 29.999025 29.999025 0 0 0"></polygon>
                        <polyline id="Fill-397" fill="#F5C29B" points="14.9995125 29.9978626 7.49975626 30 7.49975626 18.7484907 6.24992188 18.7484907 6.24992188 13.7485532 7.49975626 13.7485532 7.49975626 8.74786569 8.74996563 8.74786569 8.74996563 7.49559389 9.99980001 7.49559389 9.99980001 6.24542202 18.7493906 6.24542202 18.7493906 7.49559389 19.999225 7.49559389 19.999225 8.74576576 21.2490594 8.74576576 21.2490594 23.7477907 21.2494344 25.0003625 21.2494344 26.2503094 19.999225 26.2503094 19.999225 27.5002937 17.4991813 27.4982313 14.9995125 27.4982313 14.9995125 29.9978626"></polyline>
                        <path d="M21.2490594,8.74576576 L22.4988938,8.74576576 L22.4992688,25.0003625 L21.2494344,25.0003625 C21.2494344,19.5822011 21.2490594,14.1636647 21.2490594,8.74576576" id="Fill-398" fill="#000105"></path>
                        <polygon id="Fill-399" fill="#000105" points="19.999225 26.2503469 21.2494344 26.2503469 21.2494344 25.000175 19.999225 25.000175"></polygon>
                        <path d="M14.9995125,27.5002937 L14.9995125,29.9978626 L13.7496781,29.9978626 L13.7496781,27.5002937 C13.3338167,27.5002937 12.9175802,27.4982313 12.4994688,27.4982313 L12.4994688,26.2480594 C14.9980126,26.2480594 17.4984313,26.2501594 19.999225,26.2501594 L19.999225,27.5002937 L14.9995125,27.5002937" id="Fill-400" fill="#000105"></path>
                        <polygon id="Fill-401" fill="#FFFFFE" points="11.2496344 16.2512593 12.4994688 16.2512593 12.4994688 15.0010875 11.2496344 15.0010875"></polygon>
                        <polygon id="Fill-402" fill="#000105" points="12.4994688 16.2512593 13.7493031 16.2512593 13.7493031 15.0010875 12.4994688 15.0010875"></polygon>
                        <polygon id="Fill-403" fill="#000105" points="19.999225 16.2514843 21.2490594 16.2514843 21.2490594 15.0013125 19.999225 15.0013125"></polygon>
                        <polygon id="Fill-404" fill="#FFFFFE" points="18.7490157 16.2514843 19.999225 16.2514843 19.999225 15.0013125 18.7490157 15.0013125"></polygon>
                        <polygon id="Fill-405" fill="#000105" points="16.2493469 20.0029749 18.7490157 20.0029749 18.7490157 18.752803 16.2493469 18.752803"></polygon>
                        <polygon id="Fill-406" fill="#000105" points="14.9995125 23.7501906 18.7490157 23.7501906 18.7490157 22.5000187 14.9995125 22.5000187"></polygon>
                        <polygon id="Fill-407" fill="#FFFFFE" points="14.9995125 22.4994188 18.7490157 22.4994188 18.7490157 21.2492844 14.9995125 21.2492844"></polygon>
                        <polygon id="Fill-408" fill="#000105" points="13.7496781 22.4994188 14.9995125 22.4994188 14.9995125 21.2492844 13.7496781 21.2492844"></polygon>
                        <polygon id="Fill-409" fill="#000105" points="18.7493906 22.4994188 19.999225 22.4994188 19.999225 21.2492844 18.7493906 21.2492844"></polygon>
                        <polyline id="Fill-410" fill="#000105" points="7.49975626 8.74966564 8.74959064 8.74966564 8.74959064 14.99925 7.49975626 14.9995125 7.49975626 18.7498781 8.74996563 18.7484907 8.74996563 29.9999625 7.49975626 29.9999625 7.49975626 20.0014 6.24954689 20.0014 6.24992188 13.7493031 7.49975626 13.7492282 7.49975626 8.74966564"></polyline>
                        <polyline id="Fill-411" fill="#000105" points="7.49975626 8.74992813 7.49975626 10.0016374 8.74959064 10.0016374 8.74959064 11.2498594 9.99980001 11.2498594 9.99980001 12.4998063 11.2496344 12.4980063 11.2496344 13.7497531 18.7493906 13.7497531 18.7493906 12.4980063 19.999225 12.4995813 19.999225 11.2496344 21.2494344 11.2496344 21.2494344 9.99965001 22.4992688 9.99965001 22.4992688 8.74966564 7.49975626 8.74992813"></polyline>
                        <polyline id="Fill-412" fill="#1D4065" points="23.7491032 9.99965001 6.24992188 9.99965001 6.24992188 8.74970313 4.99971251 8.74970313 4.99971251 7.49971876 3.74987813 7.49971876 3.74987813 6.24980938 6.24992188 6.24980938 6.24992188 4.9998625 8.74959064 4.9998625 8.74959064 3.74987813 12.4994688 3.74987813 12.4994688 2.49989375 17.4995563 2.49989375 17.4995563 3.74987813 21.2494344 3.74987813 21.2494344 4.9998625 23.7491032 4.9998625 23.7491032 6.24980938 26.2491469 6.24980938 26.2491469 7.49971876 24.9993125 7.49971876 24.9993125 8.74970313 23.7491032 8.74970313 23.7491032 9.99965001"></polyline>
                        <polygon id="Fill-413" fill="#F9CD71" points="7.49975626 10.0016749 22.4992688 10.0016749 22.4992688 8.74992813 7.49975626 8.74992813"></polygon>
                        <polygon id="Fill-414" fill="#75807C" points="16.2493469 13.7495281 17.4995563 13.7495281 17.4995563 9.99965001 16.2493469 9.99965001"></polygon>
                        <polygon id="Fill-415" fill="#F9CD71" points="13.7496781 7.49971876 16.2493469 7.49971876 16.2493469 4.99978751 13.7496781 4.99978751"></polygon>
                    </g>
                </g>
            </g>
        </g>
    </g>
</svg>