<?xml version="1.0" encoding="UTF-8"?>
<svg width="30px" height="30px" viewBox="0 0 30 30" version="1.1" xmlns="http://www.w3.org/2000/svg" xmlns:xlink="http://www.w3.org/1999/xlink">
    <title>位图备份 3</title>
    <defs>
        <rect id="path-1" x="0" y="0" width="30" height="30" rx="15"></rect>
    </defs>
    <g id="页面-1" stroke="none" stroke-width="1" fill="none" fill-rule="evenodd">
        <g id="kepler-home-claim-不可点击备份" transform="translate(-1027.000000, -853.000000)">
            <g id="位图备份-3" transform="translate(1027.000000, 853.000000)">
                <mask id="mask-2" fill="white">
                    <use xlink:href="#path-1"></use>
                </mask>
                <use id="蒙版" fill="#D8D8D8" xlink:href="#path-1"></use>
                <g id="编组-30" mask="url(#mask-2)">
                    <polygon id="Fill-87" fill="#6CA7A9" points="0 29.998875 29.998875 29.998875 29.998875 0 0 0"></polygon>
                    <path d="M14.9994375,29.9977501 L7.49971876,30 L7.49971876,18.7485469 L6.24985313,18.7485469 L6.24985313,13.7484844 L7.49971876,13.7484844 L7.49971876,6.24989063 C12.0827969,6.24201592 16.665875,6.24201592 21.2489532,6.24989063 L21.2489532,23.7478595 L19.999125,23.7512343 L19.999125,24.9980626 L18.7489219,25.0014374 L18.7492969,26.2482657 L17.4990938,26.2512656 L17.4990938,27.4980938 L14.9994375,27.4980938 L14.9994375,29.9977501" id="Fill-88" fill="#593724"></path>
                    <path d="M21.2489532,6.24989063 L22.4991563,6.24989063 C22.4991563,12.0824219 22.4991563,17.9153282 22.4991563,23.7478595 L21.2489532,23.7478595 C21.2489532,17.9153282 21.2489532,12.0824219 21.2489532,6.24989063" id="Fill-89" fill="#000105"></path>
                    <polygon id="Fill-90" fill="#000105" points="19.999125 24.9980626 21.2489532 24.9980626 21.2489532 23.7478595 19.999125 23.7478595"></polygon>
                    <polygon id="Fill-91" fill="#000105" points="18.7492969 26.2478907 19.999125 26.2478907 19.999125 24.9976876 18.7492969 24.9976876"></polygon>
                    <path d="M13.7496094,26.2482657 C15.4152969,26.2482657 17.0798595,26.2508906 18.7489219,26.2508906 L18.7489219,27.5010937 L14.9994375,27.5010937 L14.9994375,29.9977501 L13.7496094,29.9977501 C13.7496094,28.747922 13.7496094,27.4980938 13.7496094,26.2482657" id="Fill-92" fill="#000105"></path>
                    <polygon id="Fill-93" fill="#000105" points="12.4989938 26.2508906 13.7492344 26.2508906 13.7492344 25.0006875 12.4989938 25.0006875"></polygon>
                    <path d="M6.24951564,18.7515468 L4.99968751,18.7515468 C4.99968751,17.0847343 4.99968751,15.4182968 4.99968751,13.7514843 L6.24951564,13.7514843 C6.24951564,15.4182968 6.24951564,17.0847343 6.24951564,18.7515468" id="Fill-94" fill="#000105"></path>
                    <path d="M8.74992188,18.7485469 C8.74992188,22.4991563 8.74992188,26.2493906 8.74992188,30 L7.49971876,30 L7.49971876,20.0014124 L6.24951564,20.0014124 L6.24951564,18.7511718 C7.0853593,18.7511718 7.91370324,18.7485469 8.74992188,18.7485469" id="Fill-95" fill="#000105"></path>
                    <polygon id="Fill-96" fill="#000105" points="6.24951564 15.0013125 7.49934377 15.0013125 7.49934377 13.7511093 6.24951564 13.7511093"></polygon>
                    <path d="M7.49971876,6.24989063 L8.74992188,6.24989063 C8.74992188,9.58351562 8.74954689,12.9175156 8.74954689,16.2515156 L7.49934377,16.2515156 C7.49934377,12.9175156 7.49971876,9.58314063 7.49971876,6.24989063" id="Fill-97" fill="#000105"></path>
                    <polygon id="Fill-98" fill="#FFFFFE" points="11.2495781 16.2515156 12.4994063 16.2515156 12.4994063 15.0013125 11.2495781 15.0013125"></polygon>
                    <polygon id="Fill-99" fill="#000105" points="12.4994063 16.2515156 13.7492344 16.2515156 13.7492344 15.0013125 12.4994063 15.0013125"></polygon>
                    <polygon id="Fill-100" fill="#000105" points="11.2495781 15.0013125 13.7492344 15.0013125 13.7492344 13.7514843 11.2495781 13.7514843"></polygon>
                    <polygon id="Fill-101" fill="#000105" points="19.999125 16.2515156 21.2489532 16.2515156 21.2489532 15.0013125 19.999125 15.0013125"></polygon>
                    <polygon id="Fill-102" fill="#FFFFFE" points="18.7489219 16.2515156 19.999125 16.2515156 19.999125 15.0013125 18.7489219 15.0013125"></polygon>
                    <polygon id="Fill-103" fill="#000105" points="18.7489219 15.0013125 21.2489532 15.0013125 21.2489532 13.7518593 18.7489219 13.7518593"></polygon>
                    <polygon id="Fill-104" fill="#000105" points="11.2492032 25.0010625 12.4989938 25.0010625 12.4989938 23.7508593 11.2492032 23.7508593"></polygon>
                    <polygon id="Fill-105" fill="#000105" points="14.9994375 23.7501094 18.7489219 23.7501094 18.7489219 22.4999063 14.9994375 22.4999063"></polygon>
                    <polyline id="Fill-106" fill="#DA3538" points="8.74954689 13.7496094 7.49971876 13.7496094 7.49971876 6.24989063 8.74954689 6.24989063 8.74954689 5.0000625 9.99975001 5.0000625 9.99975001 3.74985938 12.4994063 3.74985938 12.4994063 2.50003125 13.7496094 2.50003125 13.7496094 3.74985938 14.9994375 3.74985938 14.9994375 2.50003125 16.2492657 2.50003125 16.2492657 3.74985938 17.4994688 3.74985938 17.4994688 2.50003125 18.7492969 2.50003125 18.7492969 3.74985938 19.999125 3.74985938 19.999125 5.0000625 21.2493282 5.0000625 21.2493282 6.24989063 22.4991563 6.24989063 22.4991563 13.7496094 21.2493282 13.7496094 21.2493282 9.99975001 19.999125 9.99975001 19.999125 8.74992188 9.99975001 8.74992188 9.99975001 9.99975001 8.74954689 9.99975001 8.74954689 13.7496094"></polyline>
                    <polygon id="Fill-107" fill="#000105" points="16.2492657 20.0028749 18.7489594 20.0028749 18.7489594 18.7526718 16.2492657 18.7526718"></polygon>
                    <path d="M11.2495781,17.4994688 L14.9994375,17.4994688 L14.9994375,13.7496094 L11.2495781,13.7496094 L11.2495781,17.4994688 Z M14.9994375,19.9995 L16.2492657,19.9995 L16.2492657,18.7492969 L17.4994688,18.7492969 L17.4994688,19.9995 L18.7492969,19.9995 L18.7492969,21.2497031 L14.9994375,21.2497031 L14.9994375,19.9995 Z M13.7496094,23.7493969 L12.4994063,23.7493969 L12.4994063,21.2497031 L11.2495781,21.2497031 L11.2495781,19.9995 L8.74954689,19.9995 L8.74954689,17.4994688 L9.99975001,17.4994688 L9.99975001,12.4998188 L11.2495781,12.4998188 L11.2495781,11.2495781 L19.999125,11.2495781 L19.999125,12.4998188 L21.2493282,12.4998188 L21.2493282,13.7496094 L17.4994688,13.7496094 L17.4994688,17.4994688 L21.2493282,17.4994688 L21.2493282,19.9995 L19.999125,19.9995 L19.999125,22.4991563 L18.7492969,22.4991563 L18.7492969,23.7493969 L17.4994688,23.7493969 L17.4994688,22.4991563 L16.2492657,22.4991563 L16.2492657,23.7493969 L14.9994375,23.7493969 L14.9994375,22.4991563 L13.7496094,22.4991563 L13.7496094,23.7493969 L13.7496094,23.7493969 Z" id="Fill-108" fill="#FFFFFE"></path>
                </g>
            </g>
        </g>
    </g>
</svg>