<?xml version="1.0" encoding="UTF-8"?>
<svg width="30px" height="30px" viewBox="0 0 30 30" version="1.1" xmlns="http://www.w3.org/2000/svg" xmlns:xlink="http://www.w3.org/1999/xlink">
    <title>位图备份 4</title>
    <defs>
        <rect id="path-1" x="0" y="0" width="30" height="30" rx="15"></rect>
    </defs>
    <g id="页面-1" stroke="none" stroke-width="1" fill="none" fill-rule="evenodd">
        <g id="kepler-home-claim-不可点击备份" transform="translate(-569.000000, -906.000000)">
            <g id="位图备份-4" transform="translate(569.000000, 906.000000)">
                <mask id="mask-2" fill="white">
                    <use xlink:href="#path-1"></use>
                </mask>
                <use id="蒙版" fill="#D8D8D8" xlink:href="#path-1"></use>
                <g id="编组-28" mask="url(#mask-2)">
                    <g transform="translate(0.000000, 0.000000)">
                        <polygon id="Fill-1" fill="#735E99" points="0 29.998875 29.9989875 29.998875 29.9989875 0 0 0"></polygon>
                        <polyline id="Fill-3" fill="#5B8FBE" points="14.9994938 29.9977501 7.49974688 30 7.49974688 18.7485047 6.24991407 18.7485047 6.24991407 13.7484235 7.49974688 13.7484235 7.49974688 9.99967501 8.7495797 9.99967501 8.7495797 8.74984219 9.99978751 8.74984219 9.99978751 7.49974688 11.2496203 7.49974688 11.2496203 6.24980157 18.7493672 6.24545172 18.7493672 7.49562202 19.9992 7.49562202 19.9992 8.74571733 21.2490328 8.74571733 21.2490328 23.747836 21.2494078 25.0002937 21.2494078 26.2505015 19.9992 26.2505015 19.9992 27.5003344 17.4991594 27.4980844 14.9994938 27.4980844 14.9994938 29.9977501"></polyline>
                        <path d="M4.99970626,12.4993781 L6.24991407,12.4993781 L6.24953908,13.7514234 L7.4993719,13.7514234 C7.4993719,12.5000906 7.49974688,11.2491328 7.49974688,9.99817506 L8.74995469,9.99817506 C8.74995469,12.0823547 8.74920471,14.1669094 8.74920471,16.251464 L7.4993719,16.251464 L7.4993719,15.0016312 L6.24953908,15.0016312 L6.24953908,18.7515046 L4.99933127,18.7515046 C4.99933127,16.667325 4.99970626,14.5831453 4.99970626,12.4993781 Z M19.998825,8.7495047 L21.2490328,8.7495047 L21.2490328,9.99967501 L19.998825,9.99967501 L19.998825,8.7495047 L18.7489922,8.7495047 L18.7489922,7.4993344 L19.998825,7.4993344 L19.998825,8.7495047 Z M21.2490328,13.7491735 L18.7493672,13.7491735 L18.7493672,14.9993813 L21.2490328,14.9993813 L21.2494078,25.0002937 L22.4992407,25.0002937 L22.4988657,9.99967501 L21.2490328,9.99967501 L21.2490328,13.7491735 Z M11.2496203,6.24770164 L13.7496609,6.24770164 L13.7496609,4.99981876 L9.99978751,4.99981876 L9.99978751,6.24980157 L8.7495797,6.24980157 L8.7495797,4.99981876 L9.99978751,4.99981876 L9.99978751,3.74987344 L11.2496203,3.74987344 L11.2496203,2.49992813 L14.9994938,2.49992813 L14.9994938,3.74987344 L16.2493266,3.74987344 L16.2493266,6.24770164 L18.7493672,6.24770164 L18.7493672,7.49783445 L15.0013687,7.49783445 L14.9994938,7.49974688 L14.9976188,7.49783445 L11.2496203,7.49783445 L11.2496203,8.74346741 L9.99978751,8.74346741 L9.99978751,9.99367521 L8.74995469,9.99367521 L8.74995469,8.74346741 L9.99978751,8.74346741 L9.99978751,7.4932971 L11.2496203,7.4932971 L11.2496203,6.24770164 L11.2496203,6.24770164 Z" id="Fill-4" fill="#000105"></path>
                        <polygon id="Fill-5" fill="#000105" points="19.9992 26.2505015 21.2494078 26.2505015 21.2494078 25.0002937 19.9992 25.0002937"></polygon>
                        <path d="M17.4995344,29.998875 L18.7493672,29.998875 L18.7493672,28.7486672 L17.4995344,28.7486672 L17.4995344,29.998875 Z M14.9994938,27.5003344 L14.9994938,29.9977501 L13.7496609,29.9977501 L13.7496609,27.5003344 C13.3338,27.5003344 12.917564,27.4980844 12.4994531,27.4980844 L12.4994531,26.2482516 C13.332675,26.2482516 14.1658969,26.2482516 14.9994938,26.2486266 L14.9994938,24.9987938 C16.2493266,24.9987938 17.4995344,24.9987938 18.7493672,24.9987938 L18.7493672,26.2501266 L19.9992,26.2501266 L19.9992,27.5003344 L17.4995344,27.5003344 L17.4995344,28.7494172 L16.2493266,28.7494172 L16.2493266,27.5003344 L14.9994938,27.5003344 L14.9994938,27.5003344 Z" id="Fill-6" fill="#000105"></path>
                        <path d="M8.74995469,30 L7.49974688,30 L7.49974688,20.0013375 L6.24953908,20.0013375 L6.24953908,18.7511296 C7.08538587,18.7511296 7.91373291,18.7485047 8.74995469,18.7485047 C8.74995469,22.4991282 8.74995469,26.2493766 8.74995469,30" id="Fill-7" fill="#000105"></path>
                        <polygon id="Fill-8" fill="#FFFFFE" points="11.2496203 16.2495891 13.7496609 16.2495891 13.7496609 14.9993813 11.2496203 14.9993813"></polygon>
                        <polygon id="Fill-9" fill="#FFFFFE" points="18.7493672 16.2495891 21.2494078 16.2495891 21.2494078 14.9993813 18.7493672 14.9993813"></polygon>
                        <polygon id="Fill-10" fill="#000105" points="16.2493266 20.0028374 18.7489922 20.0028374 18.7489922 18.7526296 16.2493266 18.7526296"></polygon>
                        <polygon id="Fill-11" fill="#000105" points="11.2496203 13.7499234 13.7496609 13.7499234 13.7496609 12.4997156 11.2496203 12.4997156"></polygon>
                        <polygon id="Fill-12" fill="#000105" points="18.7493672 16.2495891 19.9992 16.2495891 19.9992 14.9993813 18.7493672 14.9993813"></polygon>
                        <polygon id="Fill-13" fill="#000105" points="11.2496203 16.2495891 12.4994531 16.2495891 12.4994531 14.9993813 11.2496203 14.9993813"></polygon>
                        <polygon id="Fill-14" fill="#000105" points="15.0324927 23.689338 18.7823661 23.689338 18.7823661 22.4391302 15.0324927 22.4391302"></polygon>
                        <polygon id="Fill-15" fill="#FFFFFE" points="15.0324927 22.4383802 18.7823661 22.4383802 18.7823661 21.1881724 15.0324927 21.1881724"></polygon>
                        <polygon id="Fill-16" fill="#000105" points="13.7826598 22.4383802 15.0324927 22.4383802 15.0324927 21.1881724 13.7826598 21.1881724"></polygon>
                        <polygon id="Fill-17" fill="#000105" points="18.7827411 22.4383802 20.0325739 22.4383802 20.0325739 21.1881724 18.7827411 21.1881724"></polygon>
                        <polygon id="Fill-18" fill="#000105" points="11.2496203 26.2493766 12.4994531 26.2493766 12.4994531 24.9991688 11.2496203 24.9991688"></polygon>
                        <polygon id="Fill-19" fill="#EB9049" points="13.7496609 7.49783445 16.2493266 7.49783445 16.2493266 6.24770164 13.7496609 6.24770164"></polygon>
                    </g>
                </g>
            </g>
        </g>
    </g>
</svg>