<?xml version="1.0" encoding="UTF-8"?>
<svg width="30px" height="30px" viewBox="0 0 30 30" version="1.1" xmlns="http://www.w3.org/2000/svg" xmlns:xlink="http://www.w3.org/1999/xlink">
    <title>位图备份 5</title>
    <defs>
        <rect id="path-1" x="0" y="0" width="30" height="30" rx="15"></rect>
    </defs>
    <g id="页面-1" stroke="none" stroke-width="1" fill="none" fill-rule="evenodd">
        <g id="kepler-home-claim-不可点击备份" transform="translate(-1027.000000, -906.000000)">
            <g id="位图备份-5" transform="translate(1027.000000, 906.000000)">
                <mask id="mask-2" fill="white">
                    <use xlink:href="#path-1"></use>
                </mask>
                <use id="蒙版" fill="#D8D8D8" xlink:href="#path-1"></use>
                <g id="编组-27" mask="url(#mask-2)">
                    <polygon id="Fill-462" fill="#DE5246" points="0 29.9992875 29.9991375 29.9992875 29.9991375 0 0 0"></polygon>
                    <polyline id="Fill-463" fill="#F5C29B" points="14.9995688 29.9981251 7.49978438 30 7.49978438 18.7484485 6.24994531 18.7484485 6.24994531 13.7487172 7.49978438 13.7487172 7.49978438 9.99695009 22.4993531 9.99957501 22.4993531 23.7504297 21.2495141 23.7504297 21.2495141 26.2482329 19.9993 26.2482329 19.9993 27.5003219 14.9995688 27.4984469 14.9995688 29.9981251"></polyline>
                    <polygon id="Fill-464" fill="#000105" points="21.2495141 23.7493047 22.4993531 23.7493047 22.4993531 12.4973782 21.2495141 12.4973782"></polygon>
                    <polygon id="Fill-465" fill="#000105" points="19.9993 26.2482329 21.2495141 26.2482329 21.2495141 23.7493047 19.9993 23.7493047"></polygon>
                    <path d="M8.74999844,17.5004844 L8.74999844,30 L7.49978438,30 L7.49978438,18.7484485 L6.24994531,18.7484485 C6.24994531,17.0819964 6.24994531,15.4151693 6.24994531,13.7487172 L7.49978438,13.7487172 L7.49978438,12.4985032 L8.74999844,12.4985032 C8.74999844,13.3317292 8.74999844,14.1653302 8.74999844,14.9989313 L7.49978438,14.9989313 L7.49978438,17.4993594 C7.91677239,17.5001094 8.33301043,17.5004844 8.74999844,17.5004844" id="Fill-466" fill="#000105"></path>
                    <path d="M9.9998375,26.2478579 L11.2496766,26.2478579 L11.2496766,23.7493047 L9.9998375,23.7493047 L9.9998375,26.2478579 Z M11.2496766,26.2478579 L19.9993,26.2478579 L19.9993,27.4976969 L14.9995688,27.4976969 L14.9995688,29.9981251 L13.7497297,29.9981251 L13.7497297,27.4976969 L11.2496766,27.4976969 L11.2496766,26.2478579 L11.2496766,26.2478579 Z" id="Fill-467" fill="#000105"></path>
                    <polygon id="Fill-468" fill="#000105" points="14.9995688 19.9982875 17.4992469 19.9982875 17.4992469 18.7480735 14.9995688 18.7480735"></polygon>
                    <polygon id="Fill-469" fill="#000105" points="13.7501047 23.7504297 17.4996219 23.7504297 17.4996219 22.5002156 13.7501047 22.5002156"></polygon>
                    <polygon id="Fill-470" fill="#FFFFFE" points="11.2500516 16.2502703 12.4998906 16.2502703 12.4998906 15.0000562 11.2500516 15.0000562"></polygon>
                    <polygon id="Fill-471" fill="#1E5876" points="12.4998906 16.2502703 13.7497297 16.2502703 13.7497297 15.0000562 12.4998906 15.0000562"></polygon>
                    <polygon id="Fill-472" fill="#1E5876" points="19.999675 16.2506453 21.2495141 16.2506453 21.2495141 15.0004312 19.999675 15.0004312"></polygon>
                    <polygon id="Fill-473" fill="#FFFFFE" points="18.749461 16.2506453 19.999675 16.2506453 19.999675 15.0004312 18.749461 15.0004312"></polygon>
                    <path d="M11.2500516,16.2483954 L13.7501047,16.2483954 L13.7501047,15.0004312 L11.2500516,15.0004312 L11.2500516,16.2483954 Z M7.49978438,12.4977532 L22.4993531,12.4977532 L22.4993531,15.0004312 L18.749461,15.0004312 L18.749461,16.2483954 L22.4993531,16.2483954 L22.4993531,17.4986094 L17.4999969,17.4986094 L17.4999969,16.2483954 L16.2497828,16.2483954 L16.2497828,17.4986094 L8.74999844,17.4986094 C8.74999844,16.6657584 8.74999844,15.8332823 8.74999844,15.0004312 L7.49978438,15.0004312 L7.49978438,12.4977532 L7.49978438,12.4977532 Z" id="Fill-474" fill="#000105"></path>
                    <polyline id="Fill-475" fill="#493533" points="7.49978438 9.99882503 8.74999844 9.99882503 8.74999844 7.50214681 9.9998375 7.50214681 9.9998375 6.24750788 19.999675 6.24750788 19.999675 7.50214681 21.2495141 7.50214681 21.2495141 9.99882503 22.4993531 9.99882503 22.4993531 13.7494672 7.49978438 13.7494672 7.49978438 9.99882503"></polyline>
                    <path d="M9.9998375,4.99961876 L19.999675,4.99961876 L19.999675,6.24979532 L9.9998375,6.24979532 L9.9998375,7.49997188 L8.74999844,7.49997188 L8.74999844,6.24979532 L9.9998375,6.24979532 L9.9998375,4.99961876 Z M23.7495672,13.7494672 L22.4997281,13.7494672 L22.4997281,9.99957501 L21.2495141,9.99957501 L21.2495141,7.49974688 L19.999675,7.49974688 L19.999675,6.24960782 L21.2495141,6.24960782 L21.2495141,7.49933439 L22.4993531,7.49933439 L22.4993531,8.74936096 L23.7495672,8.74936096 L23.7495672,13.7494672 Z M6.24994531,8.74936096 L7.50015937,8.74936096 L7.50015937,7.49955939 L8.74999844,7.49955939 L8.74999844,9.99957501 L7.49978438,9.99957501 L7.49978438,13.7494672 L6.24994531,13.7494672 L6.24994531,8.74936096 L6.24994531,8.74936096 Z" id="Fill-476" fill="#000105"></path>
                    <polyline id="Fill-477" fill="#2D2523" points="22.4993531 9.99957501 22.4993531 11.2497891 19.999675 11.2494141 19.999675 13.7494672 18.7498359 13.7494672 18.7498359 11.2486641 16.2501578 11.2479141 16.2501578 13.7494672 14.9999438 13.7494672 14.9999438 11.2475391 12.5002656 11.2467892 12.5002656 13.7494672 11.2500516 13.7494672 11.2500516 11.2464142 8.75037343 11.2456642 8.75037343 13.7442174 7.50053436 13.7442174 7.49978438 10.0055748 22.4993531 9.99957501"></polyline>
                </g>
            </g>
        </g>
    </g>
</svg>