<?xml version="1.0" encoding="UTF-8"?>
<svg width="30px" height="30px" viewBox="0 0 30 30" version="1.1" xmlns="http://www.w3.org/2000/svg" xmlns:xlink="http://www.w3.org/1999/xlink">
    <title>位图备份 6</title>
    <defs>
        <rect id="path-1" x="0" y="0" width="30" height="30" rx="15"></rect>
    </defs>
    <g id="页面-1" stroke="none" stroke-width="1" fill="none" fill-rule="evenodd">
        <g id="kepler-home-claim-不可点击备份" transform="translate(-569.000000, -966.000000)">
            <g id="位图备份-6" transform="translate(569.000000, 966.000000)">
                <mask id="mask-2" fill="white">
                    <use xlink:href="#path-1"></use>
                </mask>
                <use id="蒙版" fill="#D8D8D8" xlink:href="#path-1"></use>
                <g id="编组-26" mask="url(#mask-2)">
                    <polygon id="Fill-20" fill="#87C26B" points="0 29.9990625 29.9990625 29.9990625 29.9990625 3.41049855e-14 0 3.41049855e-14"></polygon>
                    <polyline id="Fill-21" fill="#F5C29B" points="14.9994938 29.9979001 7.49991563 30 7.49991563 18.7485141 6.24996719 18.7485141 6.24996719 13.7485704 7.49991563 13.7485704 7.49991563 8.74787663 8.74982657 8.74787663 8.74982657 7.49560326 9.99977501 7.49560326 9.99977501 6.24542983 18.7493016 6.24542983 21.2491985 6.25307959 21.2493485 7.5007406 22.4993344 7.49717821 22.4993344 8.75068904 22.4990719 12.4962595 22.4990719 13.7464704 22.4992969 16.2504547 22.4990719 19.9973001 22.4990719 21.247436 21.2493485 21.2502859 21.249161 23.7478204 19.999025 23.7511203 19.9992125 24.9979563 18.7491141 25.0012562 18.7493016 26.2480922 17.4991282 26.2512421 17.4993531 27.4982657 14.9994938 27.4982657 14.9994938 29.9979001"></polyline>
                    <polygon id="Fill-22" fill="#6CA7A9" points="18.7494141 17.4994281 21.2491235 17.4994281 21.2491235 14.9995688 18.7494141 14.9995688"></polygon>
                    <path d="M21.2493485,7.50014062 L22.4992969,7.50014062 C22.4992969,12.0844849 22.4992594,16.6690166 22.4992594,21.2534358 L21.2493485,21.2534358 C21.2493485,16.6690541 21.2493485,12.0844849 21.2493485,7.50014062" id="Fill-23" fill="#000105"></path>
                    <path d="M19.999175,21.2503609 L21.2491235,21.2503609 C21.2491235,22.0838474 21.2491235,22.9172963 21.2491235,23.7507078 L19.999175,23.7507078 C19.999175,22.9172963 19.999175,22.0838474 19.999175,21.2503609" id="Fill-24" fill="#000105"></path>
                    <polygon id="Fill-25" fill="#000105" points="18.7492641 25.0008812 19.999175 25.0008812 19.999175 23.7507078 18.7492641 23.7507078"></polygon>
                    <polygon id="Fill-26" fill="#000105" points="17.4992781 26.2508672 18.7491891 26.2508672 18.7491891 25.0006937 17.4992781 25.0006937"></polygon>
                    <path d="M17.4990907,26.2540171 L17.4990907,27.504153 L14.9994938,27.504153 L14.9995313,29.9992125 L13.7495828,29.9992125 L13.7495453,27.504153 C13.3313584,27.504153 12.9193963,27.5012281 12.4995969,27.5012281 C12.4995969,26.6684541 12.4995969,25.8357176 12.4995969,25.0029437 L13.7495828,25.0029437 L13.7495828,26.2515046 C14.9994563,26.2523296 16.2469673,26.2540171 17.4990907,26.2540171" id="Fill-27" fill="#000105"></path>
                    <path d="M8.74986407,17.4994281 C8.74986407,21.2498734 8.74986407,26.2495547 8.74986407,30 L7.49991563,30 L7.49991563,18.752339 L6.2494797,18.752339 C6.2494797,17.0847286 6.24981719,15.4172682 6.24981719,13.7493203 L7.49976563,13.7493203 L7.49984063,7.49931565 L8.74978907,7.49931565 L8.74937658,14.9995313 L7.49976563,14.9995313 L7.49976563,17.5007781 C7.91577763,17.5001031 8.33186463,17.4994281 8.74986407,17.4994281" id="Fill-28" fill="#000105"></path>
                    <polygon id="Fill-29" fill="#000105" points="11.2496484 25.0031312 12.4995969 25.0031312 12.4995969 23.7529577 11.2496484 23.7529577"></polygon>
                    <polygon id="Fill-30" fill="#000105" points="14.9993063 20.0059623 17.4991657 20.0059623 17.4991657 18.7557889 14.9993063 18.7557889"></polygon>
                    <polygon id="Fill-31" fill="#000105" points="14.9995313 23.7531827 17.4990907 23.7531827 17.4990907 22.5030093 14.9995313 22.5030093"></polygon>
                    <path d="M9.99970001,13.7514578 L21.2493485,13.7514578 L21.2493485,15.0016312 L18.7493766,15.0016312 L18.7493766,17.4994281 L17.4994656,17.4994281 L17.4994656,15.0016312 L14.9995313,15.0016312 L14.9995313,17.4994281 L13.7495828,17.4994281 L13.7495828,15.0016312 L11.2496109,15.0016312 L11.2496109,17.4994281 L9.99970001,17.4994281 C9.99970001,16.2501172 9.99970001,15.0007687 9.99970001,13.7514578" id="Fill-32" fill="#000105"></path>
                    <path d="M6.24981719,22.4994469 L7.49976563,22.4994469 L7.49976563,21.249311 L6.24981719,21.249311 L6.24981719,22.4994469 Z M8.74971407,11.2496484 L9.99966251,11.2496484 L9.99966251,19.999325 L8.74971407,19.999325 L8.74971407,21.249536 L7.49980313,21.249536 L7.49980313,19.999325 L8.74971407,19.999325 L8.74971407,11.2496484 L8.74971407,11.2496484 Z" id="Fill-33" fill="#552927"></path>
                    <path d="M23.7492078,22.4994469 L24.9991563,22.4994469 L24.9991563,21.249311 L23.7492078,21.249311 L23.7492078,22.4994469 Z M22.4992594,11.2496484 L21.2493485,11.2496484 L21.2493485,19.999325 L22.4992594,19.999325 L22.4992594,21.249536 L23.7492078,21.249536 L23.7492078,19.999325 L22.4992594,19.999325 L22.4992594,11.2496484 L22.4992594,11.2496484 Z" id="Fill-34" fill="#552927"></path>
                    <polygon id="Fill-35" fill="#000105" points="18.7494141 18.7493766 21.249311 18.7493766 21.249311 17.4992031 18.7494141 17.4992031"></polygon>
                    <polygon id="Fill-36" fill="#6CA7A9" points="11.2496484 17.4994281 13.7493578 17.4994281 13.7493578 14.9995688 11.2496484 14.9995688"></polygon>
                    <polygon id="Fill-37" fill="#000105" points="11.2496484 18.7493766 13.7495453 18.7493766 13.7495453 17.4992031 11.2496484 17.4992031"></polygon>
                    <polygon id="Fill-38" fill="#3F4445" points="12.4996344 16.2497047 13.7495828 16.2497047 13.7495828 14.9995313 12.4996344 14.9995313"></polygon>
                    <polygon id="Fill-39" fill="#3F4445" points="19.9994 16.2497047 21.2493485 16.2497047 21.2493485 14.9995313 19.9994 14.9995313"></polygon>
                    <polygon id="Fill-40" fill="#7BB5B6" points="11.2496859 16.2497047 12.4995969 16.2497047 12.4995969 14.9995313 11.2496859 14.9995313"></polygon>
                    <polygon id="Fill-41" fill="#7BB5B6" points="18.7494141 16.2497047 19.999325 16.2497047 19.999325 14.9995313 18.7494141 14.9995313"></polygon>
                    <path d="M2.49993438,9.99943752 L7.49976563,9.99943752 L7.49976563,3.74988282 L8.74971407,3.74988282 L8.74971407,2.49989688 L21.249311,2.49989688 L21.249311,3.74988282 L22.4992969,3.74988282 L22.4992969,9.99943752 L27.4991282,9.99943752 L27.4991282,11.2496484 C19.1661011,11.2496484 10.8329615,11.2496484 2.49993438,11.2496484 L2.49993438,9.99943752" id="Fill-42" fill="#000105"></path>
                </g>
            </g>
        </g>
    </g>
</svg>