<?xml version="1.0" encoding="UTF-8"?>
<svg width="30px" height="30px" viewBox="0 0 30 30" version="1.1" xmlns="http://www.w3.org/2000/svg" xmlns:xlink="http://www.w3.org/1999/xlink">
    <title>位图备份 7</title>
    <defs>
        <rect id="path-1" x="0" y="0" width="30" height="30" rx="15"></rect>
    </defs>
    <g id="页面-1" stroke="none" stroke-width="1" fill="none" fill-rule="evenodd">
        <g id="kepler-home-claim-不可点击备份" transform="translate(-1027.000000, -966.000000)">
            <g id="位图备份-7" transform="translate(1027.000000, 966.000000)">
                <mask id="mask-2" fill="white">
                    <use xlink:href="#path-1"></use>
                </mask>
                <use id="蒙版" fill="#D8D8D8" xlink:href="#path-1"></use>
                <g id="编组-32" mask="url(#mask-2)">
                    <polygon id="Fill-288" fill="#735E99" points="0 29.998875 29.9989875 29.998875 29.9989875 0 0 0"></polygon>
                    <polyline id="Fill-289" fill="#CBA477" points="14.9994938 29.9977501 7.49974688 30 7.49974688 18.7485047 6.24995156 18.7485047 6.24995156 13.7484235 7.49974688 13.7484235 7.49974688 8.74796726 22.4992407 8.75059217 22.4992407 23.7500859 21.2494078 23.7500859 21.2494078 26.2482516 19.9992 26.2482516 19.9992 27.4999594 14.9994938 27.4980844 14.9994938 29.9977501"></polyline>
                    <polygon id="Fill-290" fill="#000105" points="21.2494078 23.749336 22.4992407 23.749336 22.4992407 12.4974657 21.2494078 12.4974657"></polygon>
                    <path d="M8.74995156,17.5005469 L8.74995156,30 L7.49974688,30 L7.49974688,18.7485047 L6.24995156,18.7485047 C6.24995156,17.082061 6.24995156,15.4152422 6.24995156,13.7484235 L7.49974688,13.7484235 L7.49974688,12.4985907 L8.74995156,12.4985907 C8.74995156,13.3318126 8.74995156,14.1654094 8.74995156,14.9986313 L7.49974688,14.9986313 L7.49974688,17.4994219 C7.91673281,17.4997969 8.33296876,17.5005469 8.74995156,17.5005469" id="Fill-291" fill="#000105"></path>
                    <polygon id="Fill-292" fill="#FFFFFE" points="9.99978751 16.2465892 11.2496203 16.2465892 11.2496203 14.9963814 9.99978751 14.9963814"></polygon>
                    <polygon id="Fill-293" fill="#FFFFFE" points="19.9992 16.2465892 21.2494078 16.2465892 21.2494078 14.9967564 19.9992 14.9967564"></polygon>
                    <path d="M9.99978751,14.9963814 L11.2496203,14.9963814 L11.2496203,16.2465892 L12.4994531,16.2465892 L12.4994531,15.0005062 L13.7496609,15.0005062 L13.7496609,13.7506734 C12.4987032,13.7506734 11.2537452,13.7465486 9.99978751,13.7465486 L9.99978751,14.9963814" id="Fill-294" fill="#000105"></path>
                    <path d="M17.4991594,14.9967564 L18.7493672,14.9967564 L18.7493672,16.2465892 L19.9992,16.2465892 L19.9992,15.0005062 L21.2494078,15.0005062 L21.2494078,13.7506734 C19.9984501,13.7506734 18.7531171,13.7469235 17.4991594,13.7469235 L17.4991594,14.9967564" id="Fill-295" fill="#000105"></path>
                    <polygon id="Fill-296" fill="#A97857" points="14.9994938 19.9983376 17.4991594 19.9983376 17.4991594 18.7481298 14.9994938 18.7481298"></polygon>
                    <polygon id="Fill-297" fill="#000105" points="19.9992 26.2482516 21.2494078 26.2482516 21.2494078 23.749336 19.9992 23.749336"></polygon>
                    <path d="M9.99978751,26.2475016 L11.2496203,26.2475016 L11.2496203,23.749336 L9.99978751,23.749336 L9.99978751,26.2475016 Z M11.2496203,26.2475016 L19.9992,26.2475016 L19.9992,27.4977095 L14.9994938,27.4977095 L14.9994938,29.9977501 L13.7496609,29.9977501 L13.7496609,27.4977095 L11.2496203,27.4977095 L11.2496203,26.2475016 L11.2496203,26.2475016 Z" id="Fill-298" fill="#000105"></path>
                    <path d="M7.49963439,17.5031718 L9.99978751,17.5031718 L9.99978751,18.7533796 L13.7496609,18.7533796 L13.7496609,20.0032124 L19.9992,20.0032124 L19.9992,18.7533796 L21.2490328,18.7522921 L21.2490328,17.4994219 L22.4992407,17.4994219 L22.4992407,25.0040436 L21.2494078,25.0040436 L21.2494078,27.5040842 L19.9992,27.5040842 L19.9992,28.7539171 L11.2496203,28.7539171 L11.2496203,27.5040842 L9.99978751,27.5040842 C9.99978751,26.6708624 9.99978751,25.8372655 9.99978751,25.0040436 L7.49963439,25.0040436 L7.49963439,17.5031718" id="Fill-299" fill="#000105"></path>
                    <polygon id="Fill-300" fill="#CBA477" points="13.7496609 23.7504609 17.4991594 23.7504609 17.4991594 22.5002531 13.7496609 22.5002531"></polygon>
                    <polygon id="Fill-301" fill="#FFFFFE" points="8.7495797 11.2468829 19.999575 11.2468829 19.999575 4.99693135 8.7495797 4.99693135"></polygon>
                    <polyline id="Fill-302" fill="#DB7A37" points="21.2494078 13.7495485 22.4992407 13.7495485 22.4992407 12.4967157 23.7490735 12.4967157 23.7490735 7.49974688 22.4992407 7.50267178 22.4992407 4.99981876 21.2494078 5.00274366 21.2494078 3.74987344 18.7493672 3.74987344 18.7493672 2.49992813 12.4994531 2.49992813 12.4994531 4.99981876 13.7496609 4.99981876 13.7496609 6.24980157 14.9994938 6.24687667 14.9994938 7.49974688 16.2497016 7.49682198 16.2493266 8.74984219 17.4995344 8.74684229 17.4995344 9.99967501 18.7493672 9.99967501 18.7493672 11.2495078 19.9992 11.2525452 19.9992 12.4997156 21.2494078 12.5023405 21.2494078 13.7495485"></polyline>
                    <polyline id="Fill-303" fill="#EB9537" points="7.49974688 13.7495485 6.24980157 13.7495485 6.24983907 12.4967157 4.99981876 12.4967157 4.99981876 7.49974688 6.24983907 7.50267178 6.24980157 4.99981876 7.49974688 5.00274366 7.49974688 3.74987344 9.99978751 3.74987344 9.99978751 2.49992813 16.2493266 2.49992813 16.2493266 4.99981876 14.9994938 4.99981876 14.9994938 6.24980157 13.749286 6.24687667 13.7496609 7.49974688 12.4994531 7.49682198 12.4994531 8.74984219 11.2496203 8.74684229 11.2496203 9.99967501 9.99941252 9.99967501 9.99978751 11.2495078 8.7495797 11.2525452 8.7495797 12.4997156 7.49974688 12.5023405 7.49974688 13.7495485"></polyline>
                    <polygon id="Fill-304" fill="#000105" points="8.7495797 12.4997156 9.99978751 12.4997156 9.99978751 11.2495078 8.7495797 11.2495078"></polygon>
                    <polygon id="Fill-305" fill="#000105" points="9.99978751 11.2495078 11.2496203 11.2495078 11.2496203 9.99930002 9.99978751 9.99930002"></polygon>
                    <polygon id="Fill-306" fill="#000105" points="11.2496203 10.00005 12.4994531 10.00005 12.4994531 8.74984219 11.2496203 8.74984219"></polygon>
                    <polygon id="Fill-307" fill="#000105" points="12.4994531 8.74984219 13.7496609 8.74984219 13.7496609 7.49952189 12.4994531 7.49952189"></polygon>
                    <polygon id="Fill-308" fill="#000105" points="13.7496609 7.49974688 14.9994938 7.49974688 14.9994938 6.24957658 13.7496609 6.24957658"></polygon>
                    <polygon id="Fill-309" fill="#000105" points="14.9994938 8.74984219 16.2493266 8.74984219 16.2493266 7.49952189 14.9994938 7.49952189"></polygon>
                    <polygon id="Fill-310" fill="#000105" points="16.2493266 10.00005 17.4995344 10.00005 17.4995344 8.74984219 16.2493266 8.74984219"></polygon>
                    <polygon id="Fill-311" fill="#000105" points="17.4995344 11.2498828 18.7493672 11.2498828 18.7493672 9.99967501 17.4995344 9.99967501"></polygon>
                    <polygon id="Fill-312" fill="#000105" points="18.7493672 12.4997156 19.9992 12.4997156 19.9992 11.2495078 18.7493672 11.2495078"></polygon>
                    <polygon id="Fill-313" fill="#000105" points="19.9992 13.7499234 21.2494078 13.7499234 21.2494078 12.4997156 19.9992 12.4997156"></polygon>
                    <polygon id="Fill-314" fill="#000105" points="4.99981876 13.7499234 6.24976407 13.7499234 6.24976407 12.4997156 4.99981876 12.4997156"></polygon>
                    <polygon id="Fill-315" fill="#000105" points="14.9994938 6.24998906 16.2493266 6.24998906 16.2493266 4.99981876 14.9994938 4.99981876"></polygon>
                </g>
            </g>
        </g>
    </g>
</svg>