<?xml version="1.0" encoding="UTF-8"?>
<svg width="30px" height="30px" viewBox="0 0 30 30" version="1.1" xmlns="http://www.w3.org/2000/svg" xmlns:xlink="http://www.w3.org/1999/xlink">
    <title>位图备份 8</title>
    <defs>
        <rect id="path-1" x="0" y="0" width="30" height="30" rx="15"></rect>
    </defs>
    <g id="页面-1" stroke="none" stroke-width="1" fill="none" fill-rule="evenodd">
        <g id="kepler-home-claim-不可点击备份" transform="translate(-569.000000, -1026.000000)">
            <g id="位图备份-8" transform="translate(569.000000, 1026.000000)">
                <mask id="mask-2" fill="white">
                    <use xlink:href="#path-1"></use>
                </mask>
                <use id="蒙版" fill="#D8D8D8" xlink:href="#path-1"></use>
                <g id="编组-29" mask="url(#mask-2)">
                    <g transform="translate(0.000000, 0.000000)">
                        <polygon id="Fill-264" fill="#6CA7A9" points="0 29.998875 29.998875 29.998875 29.998875 0 0 0"></polygon>
                        <polyline id="Fill-265" fill="#72B7DA" points="14.9994375 29.9977501 7.49971876 30 7.49971876 8.74804695 8.74992188 8.74804695 8.74992188 7.49559392 9.99975001 7.49559392 9.99975001 6.2453908 18.7492969 6.2453908 18.7492969 7.49559392 19.999125 7.49559392 19.999125 8.74583453 21.2489532 8.74583453 21.2493282 24.9999375 21.2493282 26.2501406 19.999125 26.2501406 19.999125 27.5003437 14.9994375 27.4980938 14.9994375 29.9977501"></polyline>
                        <polygon id="Fill-266" fill="#000105" points="8.74992188 8.74579703 9.99975001 8.74579703 9.99975001 7.49559392 8.74992188 7.49559392"></polygon>
                        <polyline id="Fill-267" fill="#C4A491" points="12.4994063 21.2501156 13.7492344 21.2504531 13.7492344 20.0002875 14.9998125 20.0002875 14.9990625 18.7504219 19.999125 18.7504219 19.999125 20.0002875 21.2493282 20.0002875 21.2493282 26.2501406 12.4994063 26.2501406 12.4994063 21.2501156"></polyline>
                        <path d="M9.99975001,6.2453908 C13.33225,6.2453908 16.6752497,6.25139057 19.99875,6.25139057 L19.99875,7.50159369 C16.6722498,7.50159369 13.3348749,7.49559392 9.99975001,7.49559392 L9.99975001,6.2453908" id="Fill-268" fill="#000105"></path>
                        <polygon id="Fill-269" fill="#000105" points="19.99875 8.75179681 21.2489532 8.75179681 21.2489532 7.50159369 19.99875 7.50159369"></polygon>
                        <path d="M21.2489532,8.74583453 L22.4987813,8.74583453 C22.4987813,14.1640063 22.4991563,19.5825157 22.4991563,25.0003125 L21.2493282,25.0003125 C21.2493282,19.5825157 21.2489532,14.1640063 21.2489532,8.74583453" id="Fill-270" fill="#000105"></path>
                        <polygon id="Fill-271" fill="#000105" points="19.999125 26.2501406 21.2493282 26.2501406 21.2493282 24.9999375 19.999125 24.9999375"></polygon>
                        <path d="M13.7496094,26.2482657 C15.4152969,26.2482657 18.3304376,26.2501406 19.999125,26.2501406 L19.999125,27.5003437 L14.9994375,27.5010937 L14.9994375,29.9977501 L13.7496094,29.9977501 C13.7496094,28.747922 13.7496094,27.4980938 13.7496094,26.2482657" id="Fill-272" fill="#000105"></path>
                        <polygon id="Fill-273" fill="#000105" points="12.4990313 26.2509281 13.7492344 26.2509281 13.7492344 25.000725 12.4990313 25.000725"></polygon>
                        <path d="M7.49971876,8.74804695 L8.74992188,8.74804695 C8.74992188,15.8319063 8.74992188,22.9153907 8.74992188,30 L7.49971876,30 C7.49971876,22.9153907 7.49971876,15.8323188 7.49971876,8.74804695" id="Fill-274" fill="#000105"></path>
                        <polygon id="Fill-275" fill="#FFFFFE" points="11.2495781 16.2511406 12.4994063 16.2511406 12.4994063 15.0013125 11.2495781 15.0013125"></polygon>
                        <polygon id="Fill-276" fill="#000105" points="12.4994063 16.2511406 13.7492344 16.2511406 13.7492344 15.0013125 12.4994063 15.0013125"></polygon>
                        <polygon id="Fill-277" fill="#000105" points="18.7492969 16.2515156 19.999125 16.2515156 19.999125 15.0013125 18.7492969 15.0013125"></polygon>
                        <polygon id="Fill-278" fill="#FFFFFE" points="19.999125 16.2515156 21.2493282 16.2515156 21.2493282 15.0013125 19.999125 15.0013125"></polygon>
                        <polygon id="Fill-279" fill="#FFFFFE" points="11.2495781 15.0013125 14.9994375 15.0013125 14.9994375 13.7514843 11.2495781 13.7514843"></polygon>
                        <polygon id="Fill-280" fill="#FFFFFE" points="18.7496719 15.0013125 21.2493282 15.0013125 21.2493282 13.7518593 18.7496719 13.7518593"></polygon>
                        <polygon id="Fill-281" fill="#000105" points="11.2492032 25.0011 12.4990313 25.0011 12.4990313 23.7508968 11.2492032 23.7508968"></polygon>
                        <polygon id="Fill-282" fill="#000105" points="16.2492657 18.7504594 18.7492969 18.7504594 18.7492969 17.5002562 16.2492657 17.5002562"></polygon>
                        <polygon id="Fill-283" fill="#000105" points="14.9994375 22.5006562 19.999125 22.5006562 19.999125 21.2504531 14.9994375 21.2504531"></polygon>
                        <polygon id="Fill-284" fill="#FFFFFE" points="14.9994375 21.2504906 16.2492657 21.2504906 16.2492657 20.0002875 14.9994375 20.0002875"></polygon>
                        <polygon id="Fill-285" fill="#FFFFFE" points="22.4991563 16.2503906 23.7489844 16.2503906 23.7489844 15.0005625 22.4991563 15.0005625"></polygon>
                        <polygon id="Fill-286" fill="#FFFFFE" points="22.4991563 18.7504219 23.7489844 18.7504219 23.7489844 17.5005937 22.4991563 17.5005937"></polygon>
                        <path d="M7.49971876,26.2501406 L8.74954689,26.2501406 L8.74954689,25.0003125 L7.49971876,25.0003125 L7.49971876,26.2501406 Z M9.99975001,28.7501719 L11.2495781,28.7501719 L11.2495781,27.4999688 L9.99975001,27.4999688 L9.99975001,28.7501719 Z M8.74954689,27.4999688 L9.99975001,27.4999688 L9.99975001,26.2501406 L8.74954689,26.2501406 L8.74954689,27.4999688 Z M4.99968751,8.75070935 L6.24989063,8.75070935 L6.24989063,7.50088122 L4.99968751,7.50088122 L4.99968751,8.75070935 Z M6.24989063,7.50084372 L7.49971876,7.50084372 L7.49971876,6.25101559 L6.24989063,6.25101559 L6.24989063,7.50084372 Z M12.4994063,21.2504531 L11.2495781,21.2504531 L11.2495781,18.7504219 L7.49971876,18.7504219 L7.49971876,13.7507343 L8.74954689,13.7507343 L8.74954689,12.5005312 L9.99975001,12.5005312 L9.99975001,11.2507031 L16.2492657,11.2507031 L16.2492657,12.5005312 L17.4994688,12.5005312 L17.4994688,11.2507031 L19.999125,11.2507031 L19.999125,12.5005312 L21.2493282,12.5005312 L21.2493282,13.7507343 L23.7489844,13.7507343 L23.7489844,12.5005312 L22.4991563,12.5005312 L22.4991563,11.2507031 L23.7489844,11.2507031 L23.7489844,10.000875 L22.4991563,10.000875 L22.4991563,8.75070935 L23.7489844,8.75070935 L23.7489844,7.50084372 L22.4991563,7.50084372 L22.4991563,6.25101559 L21.2493282,6.25101559 L21.2493282,7.50084372 L19.999125,7.50084372 L19.999125,5.00081247 L18.7492969,5.00081247 L18.7492969,6.25101559 L17.4994688,6.25101559 L17.4994688,5.00081247 L16.2492657,5.00081247 L16.2492657,6.25101559 L14.9994375,6.25101559 L14.9994375,5.00081247 L13.7496094,5.00081247 L13.7496094,6.25101559 L12.4994063,6.25101559 L12.4994063,5.00081247 L11.2495781,5.00081247 L11.2495781,6.25101559 L9.99975001,6.25101559 L9.99975001,5.00081247 L8.74954689,5.00081247 L8.74954689,6.25101559 L9.99975001,6.25101559 L9.99975001,7.50084372 L7.49971876,7.50084372 L7.49971876,8.75070935 L6.24989063,8.75070935 L6.24989063,10.000875 L4.99968751,10.000875 L4.99968751,11.2507031 L6.24989063,11.2507031 L6.24989063,12.5005312 L4.99968751,12.5005312 L4.99968751,13.7507343 L6.24989063,13.7507343 L6.24989063,15.0005625 L4.99968751,15.0005625 L4.99968751,16.2503906 L6.24989063,16.2503906 L6.24989063,17.5005937 L4.99968751,17.5005937 L4.99968751,21.2504531 L6.24989063,21.2504531 L6.24989063,20.0002875 L7.49971876,20.0002875 L7.49971876,23.7501094 L8.74954689,23.7501094 L8.74954689,25.0003125 L9.99975001,25.0003125 L9.99975001,26.2501406 L11.2495781,26.2501406 L11.2495781,27.4999688 L12.4994063,27.4999688 L12.4994063,28.7501719 L21.2493282,28.7501719 L21.2493282,27.4999688 L22.4991563,27.4999688 L22.4991563,28.7501719 L23.7489844,28.7501719 L23.7489844,27.4999688 L22.4991563,27.4999688 L22.4991563,26.2501406 L23.7489844,26.2501406 L23.7489844,25.0003125 L22.4991563,25.0003125 L22.4991563,23.7501094 L23.7489844,23.7501094 L23.7489844,22.5002812 L22.4991563,22.5002812 L22.4991563,21.2504531 L21.2493282,21.2504531 L21.2493282,25.0003125 L19.999125,25.0003125 L19.999125,26.2501406 L18.7492969,26.2501406 L18.7492969,25.0003125 L16.2492657,25.0003125 L16.2492657,26.2501406 L13.7496094,26.2501406 L13.7496094,25.0003125 L12.4994063,25.0003125 L12.4994063,21.2504531 L12.4994063,21.2504531 Z" id="Fill-287" fill="#FFFFFE"></path>
                    </g>
                </g>
            </g>
        </g>
    </g>
</svg>