<?xml version="1.0" encoding="UTF-8"?>
<svg width="30px" height="30px" viewBox="0 0 30 30" version="1.1" xmlns="http://www.w3.org/2000/svg" xmlns:xlink="http://www.w3.org/1999/xlink">
    <title>位图备份 9</title>
    <defs>
        <rect id="path-1" x="0" y="0" width="30" height="30" rx="15"></rect>
    </defs>
    <g id="页面-1" stroke="none" stroke-width="1" fill="none" fill-rule="evenodd">
        <g id="kepler-home-claim-不可点击备份" transform="translate(-1027.000000, -1026.000000)">
            <g id="位图备份-9" transform="translate(1027.000000, 1026.000000)">
                <mask id="mask-2" fill="white">
                    <use xlink:href="#path-1"></use>
                </mask>
                <use id="蒙版" fill="#D8D8D8" xlink:href="#path-1"></use>
                <g id="编组-31" mask="url(#mask-2)">
                    <polygon id="Fill-676" fill="#E7BD39" points="0 29.998875 29.998875 29.998875 29.998875 0 0 0"></polygon>
                    <polyline id="Fill-677" fill="#CBA477" points="14.9994 29.9977501 7.49986875 30 7.49986875 18.7485469 6.24992813 18.7485469 6.24992813 13.7484844 7.49986875 13.7484844 7.49986875 8.74804695 8.74977188 8.74804695 8.74977188 7.49559392 9.99971251 7.49559392 9.99971251 6.2453908 18.7491844 6.2453908 18.7491844 7.49559392 19.9990875 7.49559392 19.9990875 8.74579703 21.2490282 8.74579703 21.2490282 24.9980626 19.9990875 24.9980626 19.9990875 26.2482657 18.7491844 26.2482657 18.7491844 27.4980938 14.9994 27.4980938 14.9994 29.9977501"></polyline>
                    <path d="M21.2489157,6.2532655 C21.2489157,12.5020312 21.2489157,18.7511718 21.2489157,25.0003125 L19.9990125,25.0003125 L19.9990125,7.49784383 L9.99963751,7.49784383 L9.99963751,6.24764071 C13.7496469,6.24764071 17.5067435,6.2532655 21.2489157,6.2532655" id="Fill-678" fill="#000105"></path>
                    <polygon id="Fill-679" fill="#000105" points="18.7491844 26.2482657 19.9990875 26.2482657 19.9990875 24.9980626 18.7491844 24.9980626"></polygon>
                    <path d="M8.74980938,17.4983813 C8.74980938,21.6655625 8.74980938,25.8327813 8.74980938,30 L7.49986875,30 L7.49986875,18.7485469 L6.24992813,18.7485469 C6.24992813,17.0817344 6.24992813,15.4152969 6.24992813,13.7484844 L7.49986875,13.7484844 L7.49975626,7.50084372 C8.33477495,7.50084372 9.16101896,7.49559392 9.99971251,7.49559392 L9.99971251,8.74579703 L8.74969689,8.74579703 L8.74980938,14.9986875 L7.49986875,14.9986875 L7.49986875,17.4983813 L8.74980938,17.4983813" id="Fill-680" fill="#000105"></path>
                    <polygon id="Fill-681" fill="#FFFFFE" points="9.99971251 16.2466408 11.2496531 16.2466408 11.2496531 14.9964376 9.99971251 14.9964376"></polygon>
                    <polygon id="Fill-682" fill="#BF3639" points="11.2496531 16.2466408 12.4995563 16.2466408 12.4995563 14.9964376 11.2496531 14.9964376"></polygon>
                    <polygon id="Fill-683" fill="#BF3639" points="18.7492969 16.2507656 19.9992 16.2507656 19.9992 15.0005625 18.7492969 15.0005625"></polygon>
                    <polygon id="Fill-684" fill="#FFFFFE" points="17.4992438 16.2470157 18.7491844 16.2470157 18.7491844 14.9968126 17.4992438 14.9968126"></polygon>
                    <path d="M7.49975626,26.2475157 C9.99926253,26.2475157 16.2490782,26.2482657 18.7491844,26.2482657 L18.7491844,27.4980938 L14.9994,27.4980938 L14.9994,29.9977501 L13.7494969,29.9977501 L13.7494969,27.4980938 L7.49975626,27.4977188 L7.49975626,26.2475157" id="Fill-685" fill="#000105"></path>
                    <polygon id="Fill-686" fill="#000105" points="14.9994 19.9983751 19.9992375 19.9983751 19.9992375 18.7481719 14.9994 18.7481719"></polygon>
                    <polygon id="Fill-687" fill="#000105" points="7.49971876 13.7507343 13.7494969 13.7507343 13.7494969 12.5005312 7.49971876 12.5005312"></polygon>
                    <polygon id="Fill-688" fill="#000105" points="13.7509968 15.0001875 21.2492157 15.0001875 21.2492157 13.7499844 13.7509968 13.7499844"></polygon>
                    <polygon id="Fill-689" fill="#000105" points="7.49971876 18.7507968 14.9994375 18.7507968 14.9994375 17.5005937 7.49971876 17.5005937"></polygon>
                    <polygon id="Fill-690" fill="#000105" points="7.49971876 24.9980626 13.7495344 24.9980626 13.7495344 23.7478595 7.49971876 23.7478595"></polygon>
                    <polygon id="Fill-691" fill="#000105" points="13.7494969 23.7504844 21.2492157 23.7504844 21.2492157 22.5002812 13.7494969 22.5002812"></polygon>
                    <polygon id="Fill-692" fill="#000105" points="7.49971876 11.2484532 13.7494969 11.2484532 13.7494969 9.99825007 7.49971876 9.99825007"></polygon>
                    <polygon id="Fill-693" fill="#000105" points="13.7494969 10.000875 21.2492157 10.000875 21.2492157 8.75067185 13.7494969 8.75067185"></polygon>
                    <polyline id="Fill-694" fill="#BDC09F" points="8.74965939 8.75067185 8.74965939 10.000875 13.7494969 10.000875 13.7494969 8.75067185 19.9992375 8.75067185 19.9992375 7.50084372 9.99963751 7.50084372 9.99963751 8.75067185 8.74965939 8.75067185"></polyline>
                    <polyline id="Fill-695" fill="#D8D0BC" points="8.74965939 11.2507031 8.74965939 12.5005312 13.7494969 12.5005312 13.7494969 13.7507343 19.9992375 13.7507343 19.9992375 10.000875 13.7494969 10.000875 13.7494969 11.2507031 8.74965939 11.2507031"></polyline>
                    <polyline id="Fill-696" fill="#BDC09F" points="8.74965939 18.7504219 8.74965939 23.7501094 13.7494969 23.7501094 13.7494969 22.5002812 19.9992375 22.5002812 19.9992375 20.00025 14.9994375 20.00025 14.9994375 18.7504219 8.74965939 18.7504219"></polyline>
                    <polyline id="Fill-697" fill="#D8D0BC" points="8.74965939 25.0003125 8.74965939 26.2501406 18.7492969 26.2501406 18.7492969 25.0003125 19.9992375 25.0003125 19.9992375 23.7501094 13.7494969 23.7501094 13.7494969 25.0003125 8.74965939 25.0003125"></polyline>
                </g>
            </g>
        </g>
    </g>
</svg>