<?xml version="1.0" encoding="UTF-8"?>
<svg width="32px" height="32px" viewBox="0 0 32 32" version="1.1" xmlns="http://www.w3.org/2000/svg" xmlns:xlink="http://www.w3.org/1999/xlink">
    <title>编组 18备份</title>
    <defs>
        <rect id="path-1" x="0" y="0" width="32" height="32" rx="16"></rect>
        <polygon id="path-3" points="5.92592593e-05 0.0972444444 31.6065185 0.0972444444 31.6065185 31.7037037 5.92592593e-05 31.7037037"></polygon>
    </defs>
    <g id="页面-1" stroke="none" stroke-width="1" fill="none" fill-rule="evenodd">
        <g id="kepler-homepage-下拉菜单new" transform="translate(-475.000000, -289.000000)">
            <g id="编组-20" transform="translate(445.000000, 80.000000)">
                <g id="编组-18备份" transform="translate(30.000000, 209.000000)">
                    <mask id="mask-2" fill="white">
                        <use xlink:href="#path-1"></use>
                    </mask>
                    <use id="蒙版" fill="#D8D8D8" xlink:href="#path-1"></use>
                    <g id="编组-18" mask="url(#mask-2)">
                        <rect id="矩形" fill="#FFFFFF" fill-rule="nonzero" x="0" y="0" width="32" height="32"></rect>
                        <g id="编组" transform="translate(0.128000, 0.199111)">
                            <g>
                                <mask id="mask-4" fill="white">
                                    <use xlink:href="#path-3"></use>
                                </mask>
                                <g id="Clip-2"></g>
                                <path d="M15.8033185,0.0972444444 C7.10346667,0.0972444444 5.92592593e-05,7.20065185 5.92592593e-05,15.9002074 C5.92592593e-05,24.6794667 7.10346667,31.7828741 15.8033185,31.7031704 C24.5028741,31.7031704 31.6065778,24.6794667 31.6065778,15.9002074 C31.6065778,7.20065185 24.5828741,0.0972444444 15.8033185,0.0972444444" id="Fill-1" fill="#FFFFFF" mask="url(#mask-4)"></path>
                            </g>
                            <path d="M22.1137778,6.59117037 C22.1137778,6.59117037 23.1475556,6.63383704 24.2198519,6.75768889 C21.8023704,4.85665185 19.5122963,4.3010963 17.6536296,4.3010963 C15.0948148,4.3010963 13.36,5.35561481 13.2539259,5.41576296 L14.061037,4.13457778 C14.061037,4.13457778 10.8397037,3.82287407 9.70340741,7.23176296 C9.41333333,6.50968889 9.14785185,5.45487407 9.14785185,5.45487407 C9.14785185,5.45487407 7.47348148,6.92391111 8.25925926,9.35917037 C6.33718519,8.65842963 3.59377778,7.6848 3.4877037,7.66731852 C3.34251852,7.64598519 3.30014815,7.70968889 3.30014815,7.70968889 C3.30014815,7.70968889 3.25748148,7.77013333 3.38133333,7.87620741 C3.61185185,8.05635556 7.94785185,11.2602074 8.89985185,11.879763 C8.69481481,12.6228741 8.69481481,12.9733926 8.89985185,13.3239111 C9.19022222,13.7979852 9.208,14.0456889 9.16918519,14.3965037 C9.12651852,14.7467259 8.75496296,17.783763 8.67348148,18.1553185 C8.592,18.5271704 7.72474074,19.8474667 7.76355556,20.2403556 C7.80622222,20.6335407 8.34074074,22.3040593 8.81866667,22.4916148 C9.16918519,22.6154667 10.0361481,22.8845037 10.6133333,22.8845037 C10.8186667,22.8845037 11.0062222,22.8421333 11.0877037,22.7606519 C11.4382222,22.4528 11.5404444,22.3888 11.7884444,22.3888 L11.8485926,22.3888 C11.9514074,22.3888 12.0752593,22.4104296 12.2201481,22.4104296 C12.5496296,22.4104296 12.9848889,22.3467259 13.2927407,22.0599111 C13.7460741,21.6068741 14.5318519,20.9873185 14.7795556,20.6969481 C15.090963,20.3040593 15.2539259,19.769837 15.1724444,19.2314667 C15.1087407,18.7360593 15.3777778,18.3008 15.6891852,17.8688 C16.0823704,17.351763 16.8041481,16.4246519 16.8041481,16.4246519 C18.2308148,17.4936889 19.1194074,19.1253926 19.1194074,20.9413926 C19.1194074,24.1624296 16.3122963,26.7642074 12.8432593,26.7642074 C12.3051852,26.7642074 11.792,26.7040593 11.2752593,26.5802074 C12.8645926,27.135763 14.2062222,27.3236148 15.3034074,27.3236148 C17.6361481,27.3236148 18.874963,26.4773926 18.874963,26.4773926 C18.874963,26.4773926 18.442963,27.0368 17.7386667,27.673837 L17.76,27.673837 C21.6219259,27.135763 23.5016296,23.9570963 23.5016296,23.9570963 C23.5016296,23.9570963 23.3561481,24.9908741 23.1721481,25.6916148 C28.3084444,21.8299852 27.4411852,16.9979852 27.4198519,16.8350222 C27.4625185,16.8951704 27.9792593,17.5147259 28.2447407,17.8474667 C29.0728889,9.33813333 22.1137778,6.59117037 22.1137778,6.59117037" id="Fill-3" fill="#1B314F"></path>
                            <path d="M25.1898963,22.7607111 C24.8784889,23.174637 24.5282667,23.606637 24.1176,24.0208593 C26.7792296,18.8987852 24.2414519,14.2119704 24.138637,14.0279704 C24.3261926,14.2158222 24.5101926,14.4211556 24.6767111,14.6051556 C26.7190815,16.8741926 26.9667852,20.2830815 25.1898963,22.7607111" id="Fill-5" fill="#D82122"></path>
                            <path d="M25.0272889,9.44417778 C25.0059556,9.42314074 25.0059556,9.42314074 24.9846222,9.40151111 C23.4767704,7.80862222 21.2678815,7.06551111 19.0767704,7.38047407 C18.2486222,7.48328889 16.5775111,7.89395556 16.4752889,7.93632593 C16.4752889,7.93632593 19.6998815,7.7701037 22.5066963,9.62817778 C25.4163259,11.5469926 26.7369185,13.6741037 27.6678815,16.173363 C27.6287704,13.5289185 26.7404741,11.2601778 25.0272889,9.44417778" id="Fill-7" fill="#D82122"></path>
                            <path d="M21.8449778,5.95054815 C18.7688296,5.37365926 16.7866074,5.66017778 15.3599407,6.19825185 C15.3175704,6.03173333 15.1723852,5.70254815 15.0488296,5.43380741 C14.6200889,5.95054815 14.1634963,6.56980741 13.8766815,6.9626963 C13.0912,7.50077037 12.7620148,8.01780741 12.7620148,8.01780741 C13.2150519,6.46728889 14.5397926,5.29365926 16.150163,5.00358519 C16.6034963,4.9221037 17.0989037,4.87973333 17.6369778,4.87973333 C19.0600889,4.90077037 20.4820148,5.27084444 21.8449778,5.95054815" id="Fill-9" fill="#D82122"></path>
                            <path d="M10.468237,9.91493333 C8.05431111,9.83374815 8.85757037,7.02278519 8.89994074,6.86011852 C8.89994074,6.88145185 9.0629037,9.06900741 10.468237,9.91493333" id="Fill-11" fill="#D82122"></path>
                            <path d="M12.8432593,4.8565037 C10.9851852,5.97176296 11.3564444,8.63368889 11.3564444,8.63368889 C9.57955556,5.93265185 12.6983704,4.9205037 12.8432593,4.8565037" id="Fill-13" fill="#D82122"></path>
                            <path d="M9.78856296,10.6582815 C9.91241481,10.7610963 10.0362667,10.9483556 9.89137778,11.2176889 C9.8096,11.3625778 9.68574815,11.3415407 9.49848889,11.2600593 C9.25048889,11.1362074 7.76367407,10.2689481 6.42234074,9.38065185 C7.95152593,9.91842963 9.49848889,10.4953185 9.7458963,10.6191704 C9.7458963,10.6191704 9.76722963,10.6405037 9.78856296,10.6582815" id="Fill-15" fill="#FFFFFF"></path>
                            <path d="M14.2061037,20.1802667 C14.1249185,20.2830815 13.7744,20.5941926 13.5264,20.8208593 C13.2786963,21.0475259 13.0096593,21.2738963 12.8046222,21.4827852 C12.7228444,21.5642667 12.5566222,21.606637 12.3089185,21.606637 L12.0822519,21.606637 L11.9584,21.606637 L11.8772148,21.606637 L11.689363,21.606637 C12.0010667,21.1927111 12.9071407,20.2439704 13.2185481,20.038637 C13.5904,19.7909333 13.7779556,19.5432296 13.5477333,19.1112296 C13.321363,18.6759704 12.7228444,18.7820444 12.7228444,18.7820444 C12.7228444,18.7820444 13.073363,18.6368593 13.3850667,18.6368593 C12.9918815,18.5340444 12.4961778,18.6368593 12.2701037,18.8635259 C12.0221037,19.0898963 12.0644741,19.8970074 11.9619556,20.4101926 C11.8591407,20.948563 11.5086222,21.2173037 10.9708444,21.7130074 C10.6807704,21.9820444 10.4751407,22.0632296 10.3089185,22.0632296 C9.9584,22.0030815 9.54447407,21.8970074 9.2541037,21.7941926 C9.04877037,21.5254519 8.73736296,20.6368593 8.65588148,20.2650074 C8.71602963,20.0599704 8.96402963,19.6244148 9.08788148,19.3767111 C9.33558519,18.902637 9.48077037,18.6333037 9.52284444,18.3856 C9.60462222,18.0350815 9.87336296,15.8653037 9.97617778,14.9592296 C10.2452148,15.3097481 10.6170667,15.8901926 10.5320296,16.2617481 C11.1299556,15.4158222 10.6982519,14.5873778 10.489363,14.2581926 C10.305363,13.9290074 10.0576593,13.2670815 10.2626963,12.5663407 C10.4683259,11.8656 11.2117333,9.9218963 11.2117333,9.9218963 C11.2117333,9.9218963 11.4591407,10.3574519 11.8096593,10.2727111 C12.1601778,10.1909333 14.9886222,5.93641481 14.9886222,5.93641481 C14.9886222,5.93641481 15.7530667,7.60693333 14.9459556,8.82826667 C14.121363,10.0460444 13.3139556,10.2727111 13.3139556,10.2727111 C13.3139556,10.2727111 14.4502519,10.4777481 15.5018074,9.7133037 C15.9335111,10.7254519 16.3477333,11.7770074 16.3690667,11.9218963 C16.305363,12.0670815 15.4804741,14.0496 15.3989926,14.1734519 C15.3566222,14.2158222 15.0698074,14.2973037 14.8609185,14.3396741 C14.5104,14.4424889 14.305363,14.5061926 14.2203259,14.5663407 C14.075437,14.6901926 13.4132148,16.5061926 13.105363,17.3944889 C12.7335111,17.4970074 12.3619556,17.7058963 12.0929185,18.116563 C12.2378074,18.0137481 12.6911407,17.9503407 13.0238815,17.9112296 C13.3139556,17.8901926 14.1992889,18.3642667 14.4292148,19.2528593 L14.4292148,19.2955259 C14.4751407,19.6208593 14.3726222,19.932563 14.2061037,20.1802667" id="Fill-17" fill="#FFFFFF"></path>
                            <path d="M20.5032593,16.4812148 C20.7085926,15.4299556 20.7299259,14.5203259 20.6697778,13.7769185 C21.473037,14.8492148 21.9687407,16.1520296 22.1139259,17.4936593 C22.1352593,17.6601778 22.2982222,17.8225481 22.4644444,17.9890667 C22.6093333,18.1132148 22.7758519,18.279437 22.7758519,18.3819556 C22.7758519,18.8566222 22.7331852,19.3306963 22.652,19.8083259 C22.630963,19.8687704 22.4466667,19.9748444 22.3014815,20.0563259 C22.0961481,20.1588444 21.9085926,20.2616593 21.8694815,20.4278815 C21.4164444,22.0175111 20.4431111,23.4228444 19.1441481,24.4136593 C21.0626667,22.4104 21.9900741,19.1043259 20.5032593,16.4812148" id="Fill-19" fill="#FFFFFF"></path>
                            <path d="M19.2043556,24.5978074 C20.5456889,23.5643259 21.5794667,22.1201778 22.0325037,20.4881778 C22.0535407,20.4280296 22.237837,20.3216593 22.3616889,20.2404741 C22.5670222,20.1376593 22.7759111,20.0138074 22.8150222,19.8475852 C22.8962074,19.3732148 22.9388741,18.8775111 22.9388741,18.3818074 C22.9388741,18.1978074 22.7510222,18.0105481 22.5670222,17.8262519 C22.4645037,17.7024 22.2979852,17.5572148 22.2979852,17.4546963 C22.131763,15.9468444 21.5332444,14.5237333 20.605837,13.3447704 C20.1919111,10.8671407 18.5424296,10.1024 18.499763,10.081363 C18.5424296,10.1450667 19.6150222,11.6917333 18.8716148,13.5077333 C18.1068741,15.3447704 16.1459852,15.0582519 15.9794667,15.0757333 C15.8132444,15.0757333 15.1759111,15.9006222 14.3690963,17.4301037 C14.2662815,17.387437 13.8307259,17.2846222 13.3353185,17.3696593 C13.7068741,16.3358815 14.2662815,14.8706963 14.3690963,14.7468444 C14.4114667,14.7041778 14.7193185,14.6226963 14.9282074,14.5625481 C15.3213926,14.4600296 15.5053926,14.3963259 15.5688,14.3148444 C15.6114667,14.2511407 15.8165037,13.7767704 16.0221333,13.281363 C16.2096889,13.281363 16.683763,13.2386963 16.7228741,13.2176593 C16.7655407,13.1749926 17.1584296,12.1661037 17.1584296,12.0422519 C17.1584296,11.9397333 16.3513185,9.93617778 16.0431704,9.17173333 C16.1883556,9.00521481 16.3335407,8.79988148 16.4751704,8.57351111 C20.7086519,9.0301037 24.0147259,12.6229926 24.0147259,16.9767704 C24.0147259,20.3216593 22.0535407,23.2348444 19.2043556,24.5978074" id="Fill-21" fill="#FFFFFF"></path>
                            <path d="M12.2662815,20.4279704 C12.4541333,20.1589333 12.4328,19.7058963 12.4541333,19.5607111 C12.4751704,19.4155259 12.5142815,19.1467852 12.6805037,19.1076741 C12.8470222,19.0650074 13.2396148,19.1290074 13.2396148,19.4155259 C13.2396148,19.684563 12.9495407,19.7447111 12.7442074,19.932563 C12.5954667,20.0741926 12.3053926,20.3853037 12.2662815,20.4279704" id="Fill-23" fill="#FFFFFF"></path>
                            <path d="M14.4963259,8.55208889 C14.9709926,7.99268148 14.7864,7.16808889 14.7864,7.16808889 L13.4026963,9.21401481 C13.381363,9.21401481 13.8948444,9.23534815 14.4963259,8.55208889" id="Fill-25" fill="#1B314F"></path>
                            <path d="M13.5657481,10.295437 C13.9737481,10.3858074 14.8051556,10.5055111 15.7310815,10.2584 C15.6567111,10.0791407 15.5793778,9.89543704 15.5017481,9.71321481 C14.7518222,10.2586963 13.9589333,10.3105481 13.5657481,10.295437" id="Fill-27" fill="#94A6C3"></path>
                            <path d="M13.3794074,10.2491556 C13.4197037,10.2334519 13.4771852,10.2082667 13.5488889,10.1709333 C13.4682963,10.1910815 13.3856296,10.2094519 13.2997037,10.226637 C13.3014815,10.226637 13.3293333,10.2355259 13.3794074,10.2491556" id="Fill-29" fill="#94A6C3"></path>
                            <path d="M16.4752,8.57351111 C16.3332741,8.79988148 16.1883852,9.00521481 16.0432,9.17173333 C16.128237,9.3826963 16.2514963,9.68877037 16.3851259,10.0232889 C16.8989037,9.78684444 17.4177185,9.41647407 17.8903111,8.85114074 C17.4331259,8.71958519 16.9605333,8.62565926 16.4752,8.57351111" id="Fill-31" fill="#94A6C3"></path>
                            <path d="M13.7104296,13.4476444 C14.1033185,12.9946074 13.8982815,12.1483852 13.1726519,12.0034963 C13.3599111,11.5714963 13.6256889,10.704237 13.6256889,10.704237 C13.6256889,10.704237 11.5193185,14.0070519 11.3353185,14.0707556 C11.1480593,14.134163 10.9634667,13.4085333 10.9634667,13.4085333 C10.5705778,14.9166815 11.6256889,15.1217185 11.7495407,14.6476444 C12.3264296,14.4989037 13.317837,13.8793481 13.7104296,13.4476444" id="Fill-33" fill="#1B314F"></path>
                            <path d="M11.9124148,14.2511704 L12.9850074,12.4141333 C12.9850074,12.4141333 13.6042667,12.7255407 13.2928593,13.2209481 C12.9035259,13.7981333 11.9124148,14.2511704 11.9124148,14.2511704" id="Fill-35" fill="#FFD923"></path>
                            <path d="M9.84874074,19.7236741 L10.0152593,18.8987852 C10.0152593,18.8987852 9.332,20.0952296 9.27185185,20.2614519 C9.20814815,20.4493037 9.31422222,20.7784889 9.5797037,20.7571556 C9.84874074,20.7361185 10.1779259,20.3432296 10.1779259,20.0564148 C10.1779259,19.684563 9.84874074,19.7236741 9.84874074,19.7236741" id="Fill-37" fill="#1B314F"></path>
                            <path d="M14.4291852,19.295437 L14.4291852,19.2527704 C14.1992593,18.3641778 13.3139259,17.8901037 13.0238519,17.9111407 C12.6911111,17.9502519 12.2377778,18.0139556 12.0928889,18.1164741 C12.3619259,17.7061037 12.7334815,17.4972148 13.1053333,17.3944 C13.2102222,17.0921778 13.3557037,16.6826963 13.5082963,16.2687704 C13.1468148,16.461363 11.9186667,17.1164741 11.8131852,17.1855111 C11.6893333,17.2669926 11.2540741,18.1342519 10.9248889,19.0438815 C10.7408889,18.4669926 10.3263704,18.1164741 10.3053333,18.0951407 C10.3263704,18.1979556 10.7619259,19.9111407 10.617037,20.4278815 C10.4718519,20.9662519 9.56192593,21.4403259 9.56192593,21.4403259 L10.9358519,21.7446222 C10.9474074,21.7339556 10.958963,21.7238815 10.9708148,21.7129185 C11.5088889,21.2172148 11.8591111,20.9484741 11.9619259,20.4104 C12.0647407,19.8969185 12.0220741,19.0901037 12.2700741,18.863437 C12.4964444,18.6367704 12.9918519,18.5342519 13.385037,18.6367704 C13.2828148,18.6367704 13.1761481,18.6524741 13.0792593,18.6735111 C13.4256296,18.6877333 13.8674074,18.8388444 13.8522963,19.5218074 C13.8522963,20.0563259 13.2537778,20.0989926 12.6558519,20.5944 C12.5456296,20.6856593 12.4247407,20.7908444 12.3041481,20.901363 C12.0531852,21.167437 11.8194074,21.4338074 11.6893333,21.6068444 L11.8771852,21.6068444 L11.9583704,21.6068444 L12.0822222,21.6068444 L12.3088889,21.6068444 C12.5565926,21.6068444 12.7228148,21.5641778 12.8045926,21.4829926 C13.0096296,21.2741037 13.2786667,21.047437 13.5263704,20.8207704 C13.7743704,20.5944 14.1248889,20.2829926 14.2060741,20.1801778 C14.3725926,19.9324741 14.4751111,19.6210667 14.4291852,19.295437" id="Fill-39" fill="#94A6C3"></path>
                            <path d="M18.8716148,13.5078222 C19.5984296,11.7318222 18.5886519,10.2133037 18.5042074,10.0879704 C19.3693926,12.9353778 17.4479111,14.5238222 16.1492444,14.5448593 C15.4274667,14.5448593 14.4576889,15.0195259 14.4576889,15.0195259 L13.5101333,17.3469333 C13.9302815,17.3084148 14.2787259,17.3922667 14.3690963,17.4298963 C15.1759111,15.9007111 15.8132444,15.0758222 15.9794667,15.0758222 C16.1459852,15.0580444 18.1068741,15.3448593 18.8716148,13.5078222" id="Fill-41" fill="#94A6C3"></path>
                            <path d="M21.8695704,20.4279704 C21.9086815,20.2614519 22.096237,20.1589333 22.3015704,20.0564148 C22.4464593,19.9749333 22.6307556,19.868563 22.6520889,19.8084148 C22.7332741,19.3307852 22.7759407,18.8564148 22.7759407,18.3820444 C22.7759407,18.2795259 22.6094222,18.1133037 22.4645333,17.9891556 C22.2980148,17.822637 22.1350519,17.6599704 22.1137185,17.4937481 C21.9688296,16.1518222 21.4731259,14.8493037 20.6695704,13.7770074 C20.7297185,14.5204148 20.7086815,15.4300444 20.5033481,16.4813037 C21.9898667,19.1041185 21.0624593,22.4101926 19.144237,24.4137481 C20.4432,23.422637 21.4165333,22.0173037 21.8695704,20.4279704" id="Fill-43" fill="#94A6C3"></path>
                            <path d="M23.7124741,19.2167407 C23.9112889,18.3595556 23.9450667,17.4623704 23.7883259,16.5482963 C23.0671407,12.4632593 19.0069926,10.3192593 18.5367704,10.0997037 C18.7826963,10.2271111 20.1628444,11.0223704 20.5800296,13.2001481 C21.6061037,14.3962963 22.2490667,15.892 22.4221037,17.476 C22.4221037,17.5785185 22.5669926,17.7237037 22.7121778,17.8475556 C22.8961778,18.0315556 23.0837333,18.2194074 23.0837333,18.4034074 C23.0837333,18.8988148 23.041363,19.3945185 22.9598815,19.8685926 C22.9210667,20.0351111 22.7121778,20.1376296 22.5068444,20.2614815 C22.3829926,20.3432593 22.1989926,20.4493333 22.1776593,20.5094815 C21.7545481,22.0022222 20.8715852,23.3337778 19.6938074,24.3435556 C21.6410667,23.2499259 23.1086222,21.4078519 23.7124741,19.2167407" id="Fill-45" fill="#94A6C3"></path>
                        </g>
                    </g>
                </g>
            </g>
        </g>
    </g>
</svg>