<?xml version="1.0" encoding="UTF-8"?>
<svg width="32px" height="32px" viewBox="0 0 32 32" version="1.1" xmlns="http://www.w3.org/2000/svg" xmlns:xlink="http://www.w3.org/1999/xlink">
    <title>矩形 2</title>
    <defs>
        <rect id="path-1" x="0" y="0" width="32" height="32" rx="16"></rect>
        <polygon id="path-3" points="0 0 16.2486038 0 16.2486038 16.2499466 0 16.2499466"></polygon>
    </defs>
    <g id="页面-1" stroke="none" stroke-width="1" fill="none" fill-rule="evenodd">
        <g id="kepler-homepage-下拉菜单new" transform="translate(-1115.000000, -104.000000)">
            <g id="编组-15备份-2" transform="translate(1085.000000, 80.000000)">
                <g id="编组-19" transform="translate(30.000000, 24.000000)">
                    <mask id="mask-2" fill="white">
                        <use xlink:href="#path-1"></use>
                    </mask>
                    <use id="蒙版" fill="#B1CDFC" xlink:href="#path-1"></use>
                    <g id="blog" mask="url(#mask-2)">
                        <g transform="translate(6.000000, 6.000000)">
                            <path d="M7.4985199,0 L7.4985199,1.8750267 C8.93353141,1.8750267 10.3248417,2.15559345 11.6335591,2.70940272 C12.8985265,3.24441314 14.0348316,4.01057618 15.0116882,4.98687132 C15.9885205,5.96314204 16.7541464,7.10000867 17.289816,8.36497603 C17.8435276,9.67379111 18.124192,11.0650282 18.124192,12.5000153 L19.9992187,12.5000153 C19.9992187,5.59627148 14.4029473,0 7.49920349,0 L7.4985199,0 Z" id="Fill-1" fill="#2E3689"></path>
                            <g id="编组" stroke-width="1" fill="none" transform="translate(0.000000, 3.750053)">
                                <mask id="mask-4" fill="white">
                                    <use xlink:href="#path-3"></use>
                                </mask>
                                <g id="Clip-3"></g>
                                <path d="M7.4985199,0 L7.4985199,1.87490463 C9.33482585,1.87490463 11.061659,2.58996898 12.3597807,3.88870104 C13.6579268,5.18740868 14.3735771,6.91375356 14.3735771,8.74996185 L16.2486038,8.74996185 C16.2486038,3.91748525 12.3310942,0 7.4985199,0 Z" id="Fill-2" fill="#2E3689" mask="url(#mask-4)"></path>
                                <path d="M9.3735466,3.74993134 L8.12356949,4.99990845 L3.74858856,6.25000763 L-0.00146484554,14.3749199 L0.494165642,14.8705504 L5.04099736,10.3237187 C5.01353151,10.2206179 4.99856567,10.1118043 4.99856567,9.99993896 C4.99856567,9.30928871 5.55789253,8.74996185 6.24854278,8.74996185 C6.93919304,8.74996185 7.4985199,9.30928871 7.4985199,9.99993896 C7.4985199,10.6905892 6.93919304,11.2499161 6.24854278,11.2499161 C6.13667741,11.2499161 6.02796146,11.2349502 5.92476309,11.2074844 L1.37793137,15.7543161 L1.87356186,16.2499466 L9.99859619,12.5000153 L11.2485733,8.12491226 L12.4985504,6.87493515 L9.3735466,3.74993134 Z" id="Fill-4" fill="#2E3689" mask="url(#mask-4)"></path>
                            </g>
                        </g>
                    </g>
                </g>
            </g>
        </g>
    </g>
</svg>