<?xml version="1.0" encoding="UTF-8"?>
<svg width="32px" height="32px" viewBox="0 0 32 32" version="1.1" xmlns="http://www.w3.org/2000/svg" xmlns:xlink="http://www.w3.org/1999/xlink">
    <title>编组</title>
    <g id="页面-1" stroke="none" stroke-width="1" fill="none" fill-rule="evenodd">
        <g id="kepler-homepage-下拉菜单new" transform="translate(-1435.000000, -294.000000)">
            <g id="编组" transform="translate(1435.000000, 294.000000)">
                <path d="M31.9973752,22.9990977 C31.9973752,27.9693927 27.9693927,32 22.9990977,32 C18.0284278,32 14.0004453,27.9693927 14.0004453,22.9990977 C14.0004453,18.0288028 18.0284278,14.0008203 22.9990977,14.0008203 C27.9693927,14.0008203 31.9973752,18.0288028 31.9973752,22.9990977" id="Fill-1" fill="#1D3285"></path>
                <path d="M30.7475832,22.9990977 C30.7475832,27.2809384 27.2783135,30.7475832 22.9990977,30.7475832 C18.7195069,30.7475832 15.2479874,27.2809384 15.2479874,22.9990977 C15.2479874,18.7195069 18.7195069,15.2506123 22.9990977,15.2506123 C27.2783135,15.2506123 30.7475832,18.7195069 30.7475832,22.9990977" id="Fill-3" fill="#3353B6"></path>
                <path d="M26.4972779,26.8733404 C26.4020342,26.8733404 26.3067906,26.8365929 26.2336704,26.7634727 L22.7329029,23.2627052 C22.6132858,23.145713 22.5889125,22.9578505 22.6744068,22.8112352 L24.673774,19.3738385 C24.778767,19.1953503 25.0105016,19.1346043 25.186365,19.2395974 C25.366728,19.3419656 25.4278489,19.5714503 25.3228559,19.7521883 L23.4678541,22.9379768 L26.7635102,26.2362577 C26.9101255,26.382498 26.9101255,26.6168575 26.7635102,26.7634727 C26.6903901,26.8365929 26.5925216,26.8733404 26.4972779,26.8733404" id="Fill-5" fill="#EBF3FD"></path>
                <path d="M23.9998688,22.9990977 C23.9998688,23.5510611 23.5506486,23.9999063 22.9990602,23.9999063 C22.4470969,23.9999063 21.9978767,23.5510611 21.9978767,22.9990977 C21.9978767,22.4471344 22.4470969,21.9982892 22.9990602,21.9982892 C23.5506486,21.9982892 23.9998688,22.4471344 23.9998688,22.9990977" id="Fill-7" fill="#EBF3FD"></path>
                <path d="M29.5000035,22.5497651 C29.25102,22.5497651 29.0485335,22.7500018 29.0485335,22.9989852 C29.0485335,23.2479687 29.25102,23.4482054 29.5000035,23.4482054 C29.7463622,23.4482054 29.9492237,23.2479687 29.9492237,22.9989852 C29.9492237,22.7500018 29.7463622,22.5497651 29.5000035,22.5497651" id="Fill-9" fill="#B1CDFC"></path>
                <path d="M16.4978169,22.5497651 C16.2514583,22.5497651 16.0489717,22.7500018 16.0489717,22.9989852 C16.0489717,23.2479687 16.2514583,23.4482054 16.4978169,23.4482054 C16.7468004,23.4482054 16.9470371,23.2479687 16.9470371,22.9989852 C16.9470371,22.7500018 16.7468004,22.5497651 16.4978169,22.5497651" id="Fill-11" fill="#B1CDFC"></path>
                <path d="M22.9990977,16.0488593 C22.7501143,16.0488593 22.5498775,16.2513458 22.5498775,16.5003293 C22.5498775,16.7493127 22.7501143,16.9495494 22.9990977,16.9495494 C23.2454564,16.9495494 23.4479429,16.7493127 23.4479429,16.5003293 C23.4479429,16.2513458 23.2454564,16.0488593 22.9990977,16.0488593" id="Fill-13" fill="#B1CDFC"></path>
                <path d="M22.9990977,29.048496 C22.7501143,29.048496 22.5498775,29.2509826 22.5498775,29.499966 C22.5498775,29.7466996 22.7501143,29.9491862 22.9990977,29.9491862 C23.2454564,29.9491862 23.4479429,29.7466996 23.4479429,29.499966 C23.4479429,29.2509826 23.2454564,29.048496 22.9990977,29.048496" id="Fill-15" fill="#B1CDFC"></path>
                <path d="M28.8529465,20.1380752 C29.0678072,20.0158333 29.1413023,19.7398517 29.0168106,19.5227411 C28.8919439,19.3078803 28.618587,19.2347602 28.4014765,19.3592519 C28.1888656,19.4837437 28.1131206,19.7593504 28.2376123,19.9742111 C28.3621041,20.1894468 28.6384607,20.2648168 28.8529465,20.1380752" id="Fill-17" fill="#B1CDFC"></path>
                <path d="M17.144874,25.8600827 C16.9300132,25.9823246 16.8565181,26.2583063 16.979135,26.4754169 C17.1036267,26.6902776 17.3792334,26.7633977 17.5940941,26.638906 C17.8089549,26.5144143 17.8846998,26.2410574 17.7602081,26.0239468 C17.6357164,25.8087111 17.3597347,25.735591 17.144874,25.8600827" id="Fill-19" fill="#B1CDFC"></path>
                <path d="M19.5250659,16.978985 C19.3079553,17.1034767 19.2348352,17.3790834 19.3593269,17.5943191 C19.4838187,17.8091799 19.7594254,17.8823 19.9742861,17.7600581 C20.1891468,17.6355664 20.262267,17.3599597 20.1377752,17.144724 C20.0132835,16.9302382 19.7373018,16.8571181 19.5250659,16.978985" id="Fill-21" fill="#B1CDFC"></path>
                <path d="M26.0237969,28.2380998 C25.8089361,28.3648414 25.735441,28.6381982 25.8599327,28.853434 C25.9847994,29.0705445 26.2581563,29.1436647 26.4726421,29.0191729 C26.6878778,28.8946812 26.7636227,28.6190745 26.639131,28.4038388 C26.5146393,28.1889781 26.2382826,28.1158579 26.0237969,28.2380998" id="Fill-23" fill="#B1CDFC"></path>
                <path d="M26.472717,16.978985 C26.2582313,16.8571181 25.9844995,16.9302382 25.8600077,17.144724 C25.735516,17.3599597 25.8086361,17.6355664 26.0238719,17.7600581 C26.2383576,17.8823 26.5143393,17.8091799 26.638831,17.5943191 C26.7633227,17.3790834 26.6875778,17.1034767 26.472717,16.978985" id="Fill-25" fill="#B1CDFC"></path>
                <path d="M19.9743986,28.2380998 C19.7595378,28.1158579 19.4835562,28.1889781 19.3590644,28.4038388 C19.2345727,28.6190745 19.3080678,28.8946812 19.5251784,29.0191729 C19.7374143,29.1436647 20.013396,29.0705445 20.1378877,28.853434 C20.2623795,28.6381982 20.1888843,28.3648414 19.9743986,28.2380998" id="Fill-27" fill="#B1CDFC"></path>
                <path d="M17.5941691,19.3591769 C17.3793084,19.2346852 17.1033267,19.3078053 16.978835,19.523041 C16.8565931,19.7401516 16.9300882,20.0157583 17.144949,20.1380002 C17.3598097,20.2647418 17.6354164,20.1893718 17.7599081,19.9745111 C17.8843999,19.7592754 17.8086549,19.4836687 17.5941691,19.3591769" id="Fill-29" fill="#B1CDFC"></path>
                <path d="M28.8529465,25.8600827 C28.6384607,25.735591 28.3621041,25.8087111 28.2376123,26.0239468 C28.1131206,26.2410574 28.1888656,26.5144143 28.4014765,26.638906 C28.618587,26.7633977 28.8919439,26.6902776 29.0168106,26.4754169 C29.1413023,26.2583063 29.0678072,25.9823246 28.8529465,25.8600827" id="Fill-31" fill="#B1CDFC"></path>
                <path d="M17.9969674,19.0003258 C17.9969674,23.9706207 13.9689849,27.9986032 8.99831496,27.9986032 C4.02802001,27.9986032 3.74975098e-05,23.9706207 3.74975098e-05,19.0003258 C3.74975098e-05,14.027406 4.02802001,9.99942348 8.99831496,9.99942348 C13.9689849,9.99942348 17.9969674,14.027406 17.9969674,19.0003258" id="Fill-33" fill="#E07D26"></path>
                <path d="M15.9976002,19.0003258 C15.9976002,22.8648191 12.8631833,25.999236 8.99831496,25.999236 C5.13382158,25.999236 1.99940473,22.8648191 1.99940473,19.0003258 C1.99940473,15.1332076 5.13382158,11.9987907 8.99831496,11.9987907 C12.8631833,11.9987907 15.9976002,15.1332076 15.9976002,19.0003258" id="Fill-35" fill="#FFA04C"></path>
                <path d="M13.4218212,13.576011 C14.4057559,14.7819309 14.9989665,16.3197038 14.9989665,17.9995922 C14.9989665,21.8640856 11.8645496,24.9985024 7.99743142,24.9985024 C6.32054278,24.9985024 4.78239492,24.4052918 3.57385017,23.423982 C4.85813989,24.9936278 6.81101021,25.999311 8.99823996,25.999311 C12.8631083,25.999311 15.9975252,22.8645192 15.9975252,19.0004008 C15.9975252,16.8105462 14.9918419,14.8599257 13.4218212,13.576011" id="Fill-37" fill="#CF701C"></path>
                <path d="M9.00086479,23.3553991 C7.91231207,23.3553991 6.95500064,22.7475644 6.55940191,21.8078768 C6.45215904,21.5536437 6.57177609,21.2607882 6.82563424,21.1535453 C7.07949238,21.0463024 7.37234793,21.1655445 7.47996578,21.4220274 C7.71657507,21.9784905 8.32703453,22.3545905 9.00086479,22.3545905 C9.89443045,22.3545905 10.6218821,21.714883 10.6218821,20.9263104 C10.6218821,20.2746036 10.3410258,19.4984052 8.99336528,19.4984052 C7.0626185,19.4984052 6.37416422,18.2459884 6.37416422,17.0715663 C6.37416422,15.7340302 7.54821125,14.6451025 8.99336528,14.6451025 C10.0849178,14.6451025 11.0414793,15.2506873 11.437078,16.1907498 C11.5446959,16.444233 11.4250788,16.7374635 11.1685958,16.8447064 C10.9147377,16.9523243 10.6218821,16.8323322 10.5168891,16.5788491 C10.2799049,16.0197612 9.66982036,15.645911 8.99336528,15.645911 C8.1001746,15.645911 7.37234793,16.2856185 7.37234793,17.0715663 C7.37234793,17.7232731 7.65320428,18.4998465 8.99336528,18.4998465 C10.9316116,18.4998465 11.6226907,19.7545132 11.6226907,20.9263104 C11.6226907,22.2668463 10.4460188,23.3553991 9.00086479,23.3553991" id="Fill-39" fill="#CF701C"></path>
                <path d="M8.99355277,15.646061 C8.71794607,15.646061 8.49558584,15.4214509 8.49558584,15.1432194 L8.49558584,14.0835398 C8.49558584,13.8079331 8.71794607,13.5855728 8.99355277,13.5855728 C9.2717843,13.5855728 9.49414453,13.8079331 9.49414453,14.0835398 L9.49414453,15.1432194 C9.49414453,15.4214509 9.2717843,15.646061 8.99355277,15.646061" id="Fill-41" fill="#CF701C"></path>
                <path d="M8.99355277,24.4125664 C8.71794607,24.4125664 8.49558584,24.1902061 8.49558584,23.9145994 L8.49558584,22.8526699 C8.49558584,22.5789381 8.71794607,22.354703 8.99355277,22.354703 C9.2717843,22.354703 9.49414453,22.5789381 9.49414453,22.8526699 L9.49414453,23.9145994 C9.49414453,24.1902061 9.2717843,24.4125664 8.99355277,24.4125664" id="Fill-43" fill="#CF701C"></path>
                <path d="M27.9986407,8.99865243 C27.9986407,13.9689474 23.9680334,17.9969299 18.9977384,17.9969299 C14.0274435,17.9969299 9.99946097,13.9689474 9.99946097,8.99865243 C9.99946097,4.02798252 14.0274435,0 18.9977384,0 C23.9680334,0 27.9986407,4.02798252 27.9986407,8.99865243" id="Fill-45" fill="#85ABEF"></path>
                <path d="M25.999236,8.99865243 C25.999236,12.8631458 22.8648191,15.9975627 18.9977009,15.9975627 C15.1332076,15.9975627 11.9987907,12.8631458 11.9987907,8.99865243 C11.9987907,5.13378408 15.1332076,1.99936723 18.9977009,1.99936723 C22.8648191,1.99936723 25.999236,5.13378408 25.999236,8.99865243" id="Fill-47" fill="#B1CDFC"></path>
                <path d="M15.2480249,13.1973611 C15.1332826,13.1973611 15.0185402,13.153489 14.930421,13.0653699 C14.7549327,12.8925064 14.7549327,12.6067753 14.930421,12.430912 L22.429923,4.93141002 C22.6057863,4.7555467 22.8892675,4.7555467 23.0651308,4.93141002 C23.2406192,5.10727335 23.2406192,5.39300437 23.0651308,5.56849272 L15.5678787,13.0653699 C15.4797595,13.153489 15.3650172,13.1973611 15.2480249,13.1973611" id="Fill-49" fill="#7598D9"></path>
                <path d="M21.5951159,10.3949472 C20.931035,10.3949472 20.3918209,10.9341614 20.3918209,11.5959925 C20.3918209,12.2578235 20.931035,12.7996625 21.5951159,12.7996625 C22.2591969,12.7996625 22.798786,12.2578235 22.798786,11.5959925 C22.798786,10.9341614 22.2591969,10.3949472 21.5951159,10.3949472 M21.5951159,13.6981029 C20.4356929,13.6981029 19.4933805,12.7557904 19.4933805,11.5959925 C19.4933805,10.4361945 20.4356929,9.49425702 21.5951159,9.49425702 C22.7549139,9.49425702 23.6994762,10.4361945 23.6994762,11.5959925 C23.6994762,12.7557904 22.7549139,13.6981029 21.5951159,13.6981029" id="Fill-51" fill="#7598D9"></path>
                <path d="M16.4026108,5.19764234 C15.7385299,5.19764234 15.1993157,5.73948136 15.1993157,6.40356226 C15.1993157,7.06501834 15.7385299,7.60460751 16.4026108,7.60460751 C17.0644418,7.60460751 17.603656,7.06501834 17.603656,6.40356226 C17.603656,5.73948136 17.0644418,5.19764234 16.4026108,5.19764234 M16.4026108,8.5052977 C15.2405629,8.5052977 14.2986255,7.56073542 14.2986255,6.40356226 C14.2986255,5.24151443 15.2405629,4.29920201 16.4026108,4.29920201 C17.5597839,4.29920201 18.5024713,5.24151443 18.5024713,6.40356226 C18.5024713,7.56073542 17.5597839,8.5052977 16.4026108,8.5052977" id="Fill-53" fill="#7598D9"></path>
                <path d="M8.99355277,1.51126214 C9.82374764,1.51126214 10.4949531,2.18021772 10.4949531,3.01003761 C10.4949531,2.18021772 11.1661585,1.51126214 11.9963534,1.51126214 C11.1661585,1.51126214 10.4949531,0.840056715 10.4949531,0.00986184511 C10.4949531,0.840056715 9.82374764,1.51126214 8.99355277,1.51126214" id="Fill-55" fill="#3353B6"></path>
                <path d="M0,10.4974654 C0.827570044,10.4974654 1.49877547,11.1712957 1.49877547,11.9988657 C1.49877547,11.1712957 2.17035587,10.4974654 2.99792592,10.4974654 C2.17035587,10.4974654 1.49877547,9.82850983 1.49877547,8.99868993 C1.49877547,9.82850983 0.827570044,10.4974654 0,10.4974654" id="Fill-57" fill="#85ABEF"></path>
                <path d="M28.0597992,13.500191 C28.889619,13.500191 29.5585746,14.1713964 29.5585746,14.9989665 C29.5585746,14.1713964 30.2297801,13.500191 31.0599749,13.500191 C30.2297801,13.500191 29.5585746,12.8289856 29.5585746,11.9987907 C29.5585746,12.8289856 28.889619,13.500191 28.0597992,13.500191" id="Fill-59" fill="#E07D26"></path>
                <path d="M11.9988282,29.5000035 C12.8286481,29.5000035 13.4976037,30.1689591 13.4976037,30.999154 C13.4976037,30.1689591 14.1714339,29.5000035 14.999004,29.5000035 C14.1714339,29.5000035 13.4976037,28.8287981 13.4976037,28.001228 C13.4976037,28.8287981 12.8286481,29.5000035 11.9988282,29.5000035" id="Fill-61" fill="#85ABEF"></path>
                <path d="M13.048346,20.1988587 C13.8785409,20.1988587 14.5474965,20.8704391 14.5474965,21.700259 C14.5474965,20.8704391 15.2187019,20.1988587 16.0488968,20.1988587 C15.2187019,20.1988587 14.5474965,19.5276532 14.5474965,18.7000832 C14.5474965,19.5276532 13.8785409,20.1988587 13.048346,20.1988587" id="Fill-63" fill="#FFFFFF"></path>
                <path d="M2.4680861,23.6680908 C3.29565615,23.6680908 3.9694864,24.3392962 3.9694864,25.1668663 C3.9694864,24.3392962 4.63844198,23.6680908 5.46826187,23.6680908 C4.63844198,23.6680908 3.9694864,22.9991352 3.9694864,22.1689403 C3.9694864,22.9991352 3.29565615,23.6680908 2.4680861,23.6680908" id="Fill-65" fill="#FFFFFF"></path>
                <path d="M3.90611561,13.5123027 C4.73368565,13.5123027 5.40489108,14.1838831 5.40489108,15.0114531 C5.40489108,14.1838831 6.07609651,13.5123027 6.90629138,13.5123027 C6.07609651,13.5123027 5.40489108,12.8410973 5.40489108,12.0135272 C5.40489108,12.8410973 4.73368565,13.5123027 3.90611561,13.5123027" id="Fill-67" fill="#FFFFFF"></path>
            </g>
        </g>
    </g>
</svg>