<?xml version="1.0" encoding="UTF-8"?>
<svg width="32px" height="32px" viewBox="0 0 32 32" version="1.1" xmlns="http://www.w3.org/2000/svg" xmlns:xlink="http://www.w3.org/1999/xlink">
    <title>编组</title>
    <defs>
        <polygon id="path-1" points="0 0 31.9986499 0 31.9986499 32 0 32"></polygon>
    </defs>
    <g id="页面-1" stroke="none" stroke-width="1" fill="none" fill-rule="evenodd">
        <g id="kepler-homepage-下拉菜单new" transform="translate(-796.000000, -104.000000)">
            <g id="编组-15备份" transform="translate(765.000000, 80.000000)">
                <g id="编组" transform="translate(31.000000, 24.000000)">
                    <g>
                        <mask id="mask-2" fill="white">
                            <use xlink:href="#path-1"></use>
                        </mask>
                        <g id="Clip-2"></g>
                        <path d="M24.0003,32 L7.00005625,32 C3.13513716,32 0,28.8652379 0,25.0021938 L0,7.99894995 C0,3.5816317 3.5817817,-0.000150006563 8.00097504,-0.000150006563 L24.0003,-0.000150006563 C28.4194934,-0.000150006563 31.9986499,3.5816317 31.9986499,7.99894995 L31.9986499,24.0009 C31.9986499,28.4185933 28.4194934,32 24.0003,32" id="Fill-1" fill="#3353B6" mask="url(#mask-2)"></path>
                    </g>
                    <path d="M24.0003,32 L7.00005625,32 C3.13513716,32 0,28.8652379 0,25.0021938 L0,7.99894995 C0,4.1325308 3.13513716,1.0011438 7.00005625,1.0011438 L24.0003,1.0011438 C27.8674692,1.0011438 30.9999812,4.1325308 30.9999812,7.99894995 L30.9999812,25.0021938 C30.9999812,28.8652379 27.8674692,32 24.0003,32" id="Fill-3" fill="#7598D9"></path>
                    <path d="M30.9999812,16.5005719 L0,16.5005719 L0,7.99894995 C0,4.13290581 3.13513716,1.0011438 7.00005625,1.0011438 L24.0003,1.0011438 C27.8674692,1.0011438 30.9999812,4.13290581 30.9999812,7.99894995 L30.9999812,16.5005719 Z" id="Fill-5" fill="#85ABEF"></path>
                    <path d="M15.999325,10.0355516 C18.9510791,10.0355516 21.5244417,11.6443719 22.9015019,14.0291013 L29.0003938,10.5080722 C26.4052802,6.022876 21.5563181,2.99986874 15.999325,2.99986874 C10.444957,2.99986874 5.59599482,6.022876 3.00313139,10.5080722 L9.09977312,14.0291013 C10.4790835,11.6443719 13.0475708,10.0355516 15.999325,10.0355516" id="Fill-7" fill="#EBF3FD"></path>
                    <path d="M23.5071534,11.2279912 L25.9998875,9.78042789 C24.0025501,6.9303032 20.274512,5.01396936 15.999325,5.01396936 C11.726763,5.01396936 7.99872494,6.9303032 6.00138756,9.78042789 C6.00138756,9.78042789 17.0002438,3.1726388 23.5071534,11.2279912" id="Fill-9" fill="#E07D26"></path>
                    <path d="M9.09981062,14.4005925 C9.03643284,14.4005925 8.97042996,14.389342 8.9119274,14.3518404 L2.81266055,10.8341865 C2.72715681,10.7854344 2.66640416,10.6991806 2.63940297,10.6054265 C2.61277681,10.5079222 2.62740245,10.4066678 2.67615458,10.320414 C5.42277475,5.57270631 10.5278731,2.62882751 15.9993625,2.62882751 C21.4757271,2.62882751 26.5785753,5.57270631 29.3251955,10.320414 C29.3765727,10.4066678 29.3885733,10.5079222 29.3619471,10.6054265 C29.337196,10.6991806 29.2738182,10.7854344 29.1860644,10.8341865 L23.0894227,14.3518404 C22.9112899,14.456845 22.6817798,14.3968424 22.5767752,14.2168345 C21.2192158,11.8692318 18.6998556,10.4141681 15.9993625,10.4141681 C13.3014944,10.4141681 10.7817592,11.8692318 9.42457483,14.2168345 C9.35369672,14.3368397 9.22919128,14.4005925 9.09981062,14.4005925 M3.51844143,10.3729163 L8.97042996,13.519304 C10.4986218,11.1341996 13.1601133,9.66413531 15.9993625,9.66413531 C18.8412368,9.66413531 21.5027282,11.1341996 23.0335452,13.519304 L28.4829086,10.3729163 C25.8315426,6.04860213 21.0827099,3.37511016 15.9993625,3.37511016 C10.9186402,3.37511016 6.17243254,6.04860213 3.51844143,10.3729163" id="Fill-11" fill="#3353B6"></path>
                    <path d="M15.999325,5.38887326 C15.794191,5.38887326 15.6258086,5.22424106 15.6258086,5.01385686 L15.6258086,3.00001875 C15.6258086,2.79375973 15.794191,2.62912752 15.999325,2.62912752 C16.2070841,2.62912752 16.3754664,2.79375973 16.3754664,3.00001875 L16.3754664,5.01385686 C16.3754664,5.22424106 16.2070841,5.38887326 15.999325,5.38887326" id="Fill-13" fill="#3353B6"></path>
                    <path d="M9.46346403,7.06545911 C9.33408337,7.06545911 9.20957792,7.00133131 9.13869982,6.87795091 L8.16928241,5.20125255 C8.06690293,5.0216197 8.1280306,4.78910952 8.30616339,4.68748008 C8.4869213,4.5828505 8.71643134,4.64660329 8.81881082,4.822861 L9.78822823,6.5029345 C9.89323283,6.68256736 9.82948004,6.91170239 9.65134725,7.0125818 C9.59284469,7.05045846 9.5268418,7.06545911 9.46346403,7.06545911" id="Fill-15" fill="#3353B6"></path>
                    <path d="M22.5377735,7.06545911 C22.4743958,7.06545911 22.411018,7.05045846 22.3498903,7.0125818 C22.1717575,6.91170239 22.1106298,6.68256736 22.2130093,6.5029345 L23.1824267,4.822861 C23.2848062,4.64660329 23.5143163,4.5828505 23.6950742,4.68748008 C23.873207,4.78910952 23.9369597,5.0216197 23.8319551,5.20125255 L22.8625377,6.87795091 C22.7942847,7.00133131 22.6671542,7.06545911 22.5377735,7.06545911" id="Fill-17" fill="#3353B6"></path>
                    <polygon id="Fill-19" fill="#1D3285" points="12.959817 17.8658566 23.4238998 9.78800323 23.5900321 9.97551143 14.2828749 19.3659223"></polygon>
                    <path d="M18.0015001,16.5005719 C18.0015001,17.6068703 17.1052109,18.5035345 15.9992875,18.5035345 C14.8959892,18.5035345 13.9997,17.6068703 13.9997,16.5005719 C13.9997,15.3946485 14.8959892,14.5017345 15.9992875,14.5017345 C17.1052109,14.5017345 18.0015001,15.3946485 18.0015001,16.5005719" id="Fill-21" fill="#3353B6"></path>
                    <path d="M17.0002438,16.5005719 C17.0002438,17.0555962 16.5535992,17.5018657 15.999325,17.5018657 C15.4499259,17.5018657 15.0006563,17.0555962 15.0006563,16.5005719 C15.0006563,15.9492978 15.4499259,15.4992781 15.999325,15.4992781 C16.5535992,15.4992781 17.0002438,15.9492978 17.0002438,16.5005719" id="Fill-23" fill="#85ABEF"></path>
                    <path d="M8.99964373,19.6658604 C6.24064803,19.6658604 4.00180008,21.9047083 4.00180008,24.6648291 C4.00180008,25.9473852 4.48782134,27.1136862 5.28360616,27.9987249 L12.7205565,27.9987249 C13.5140912,27.1136862 13.9997375,25.9473852 13.9997375,24.6648291 C13.9997375,21.9047083 11.7635147,19.6658604 8.99964373,19.6658604" id="Fill-25" fill="#EBF3FD"></path>
                    <path d="M22.9697174,19.6658604 C20.2084716,19.6658604 17.9696237,21.9047083 17.9696237,24.6648291 C17.9696237,25.9473852 18.457895,27.1136862 19.2491797,27.9987249 L26.6883801,27.9987249 C27.4819148,27.1136862 27.9701862,25.9473852 27.9701862,24.6648291 C27.9701862,21.9047083 25.7313382,19.6658604 22.9697174,19.6658604" id="Fill-27" fill="#EBF3FD"></path>
                    <path d="M8.99964373,19.6658604 C8.56987493,19.6658604 8.14985656,19.725863 7.75196415,19.8304926 C9.90793347,20.3858919 11.5021282,22.3359772 11.5021282,24.6648291 C11.5021282,25.9473852 11.0138569,27.1136862 10.2203221,27.9987249 L12.7205565,27.9987249 C13.5140912,27.1136862 13.9997375,25.9473852 13.9997375,24.6648291 C13.9997375,21.9047083 11.7635147,19.6658604 8.99964373,19.6658604" id="Fill-29" fill="#E07D26"></path>
                    <path d="M22.9697174,19.6658604 C22.5376985,19.6658604 22.1203053,19.725863 21.7197877,19.8304926 C23.8757571,20.3858919 25.4699518,22.3359772 25.4699518,24.6648291 C25.4699518,25.9473852 24.9816804,27.1136862 24.1881457,27.9987249 L26.6883801,27.9987249 C27.4819148,27.1136862 27.9701862,25.9473852 27.9701862,24.6648291 C27.9701862,21.9047083 25.7313382,19.6658604 22.9697174,19.6658604" id="Fill-31" fill="#E07D26"></path>
                    <path d="M11.1675011,26.5512741 C11.0943729,26.5512741 11.0186196,26.5321483 10.9552418,26.4833961 L8.78727194,24.9762052 C8.61626446,24.8558249 8.57463764,24.6233148 8.69201778,24.4508072 C8.81164801,24.2820498 9.04340815,24.2411731 9.21666573,24.3570531 L11.3823855,25.8687443 C11.553393,25.9887495 11.5946448,26.2208847 11.4753895,26.3933922 C11.4018863,26.4983968 11.2848812,26.5512741 11.1675011,26.5512741" id="Fill-33" fill="#1D3285"></path>
                    <path d="M8.58232548,25.2683805 C8.25006094,25.0362453 8.16943241,24.5783503 8.39894245,24.2449607 C8.63107761,23.9149463 9.08747258,23.8324427 9.42198721,24.0645778 C9.75425175,24.2933378 9.83488028,24.754983 9.60274512,25.0849975 C9.37060996,25.4183871 8.914215,25.4971405 8.58232548,25.2683805" id="Fill-35" fill="#1D3285"></path>
                    <path d="M22.9697174,25.039883 C22.8305863,25.039883 22.6989556,24.9648797 22.6329527,24.833624 C22.5425737,24.6461158 22.6183271,24.4211059 22.8039602,24.330727 L25.3968236,23.0447957 C25.5824567,22.9510416 25.8067165,23.0297951 25.8997206,23.2135531 C25.9900996,23.4010613 25.9143463,23.622321 25.7287131,23.7160751 L23.1358497,25.0020063 C23.0822223,25.0286325 23.0259699,25.039883 22.9697174,25.039883" id="Fill-37" fill="#1D3285"></path>
                    <path d="M23.2945566,25.324783 C22.9334158,25.5047908 22.4916465,25.3547843 22.3131387,24.9910184 C22.1327558,24.6310026 22.2812623,24.1922334 22.6427781,24.0084754 C23.006544,23.8284675 23.4460633,23.9784741 23.6268212,24.34224 C23.804954,24.7022557 23.6583226,25.1410249 23.2945566,25.324783" id="Fill-39" fill="#1D3285"></path>
                    <path d="M12.720519,28.3736288 L5.28356866,28.3736288 C5.17631396,28.3736288 5.07355947,28.3286269 5.00268137,28.2498734 C4.1165176,27.2598301 3.62562112,25.9888995 3.62562112,24.6647166 C3.62562112,21.702087 6.03810167,19.2907315 8.99960623,19.2907315 C11.965986,19.2907315 14.3758414,21.702087 14.3758414,24.6647166 C14.3758414,25.9888995 13.8875701,27.2598301 12.9987812,28.2498734 C12.9279031,28.3286269 12.8277737,28.3736288 12.720519,28.3736288 M5.45457614,27.6273462 L12.5495115,27.6273462 C13.245167,26.7910596 13.6261836,25.748514 13.6261836,24.6647166 C13.6261836,22.11498 11.5508428,20.0407643 8.99960623,20.0407643 C6.45061971,20.0407643 4.37527892,22.11498 4.37527892,24.6647166 C4.37527892,25.748514 4.75854569,26.7910596 5.45457614,27.6273462" id="Fill-41" fill="#3353B6"></path>
                    <path d="M8.99964373,21.2933566 C8.79450976,21.2933566 8.62612739,21.1245992 8.62612739,20.91459 L8.62612739,19.6657854 C8.62612739,19.4595264 8.79450976,19.290769 8.99964373,19.290769 C9.20965292,19.290769 9.37541017,19.4595264 9.37541017,19.6657854 L9.37541017,20.91459 C9.37541017,21.1245992 9.20965292,21.2933566 8.99964373,21.2933566" id="Fill-43" fill="#3353B6"></path>
                    <path d="M5.24947966,25.039883 L4.00180008,25.039883 C3.79441601,25.039883 3.62565862,24.8748758 3.62565862,24.6648666 C3.62565862,24.4586076 3.79441601,24.2898502 4.00180008,24.2898502 L5.24947966,24.2898502 C5.45948885,24.2898502 5.6252461,24.4586076 5.6252461,24.6648666 C5.6252461,24.8748758 5.45948885,25.039883 5.24947966,25.039883" id="Fill-45" fill="#3353B6"></path>
                    <path d="M13.9997375,25.039883 L12.7498078,25.039883 C12.5446738,25.039883 12.3762915,24.8748758 12.3762915,24.6648666 C12.3762915,24.4586076 12.5446738,24.2898502 12.7498078,24.2898502 L13.9997375,24.2898502 C14.2097467,24.2898502 14.3758789,24.4586076 14.3758789,24.6648666 C14.3758789,24.8748758 14.2097467,25.039883 13.9997375,25.039883" id="Fill-47" fill="#3353B6"></path>
                    <path d="M26.6884176,28.3736288 L19.2492172,28.3736288 C19.1442126,28.3736288 19.0440832,28.3286269 18.97058,28.2498734 C18.0821661,27.2598301 17.5935197,25.9888995 17.5935197,24.6647166 C17.5935197,21.702087 20.0060003,19.2907315 22.9697549,19.2907315 C25.9338846,19.2907315 28.34374,21.702087 28.34374,24.6647166 C28.34374,25.9888995 27.8528436,27.2598301 26.9666798,28.2498734 C26.8958017,28.3286269 26.7956723,28.3736288 26.6884176,28.3736288 M19.4224747,27.6273462 L26.5174101,27.6273462 C27.2130656,26.7910596 27.5940822,25.748514 27.5940822,24.6647166 C27.5940822,22.11498 25.5187414,20.0407643 22.9697549,20.0407643 C20.4211434,20.0407643 18.3431775,22.11498 18.3431775,24.6647166 C18.3431775,25.748514 18.7264443,26.7910596 19.4224747,27.6273462" id="Fill-49" fill="#3353B6"></path>
                    <path d="M22.9697174,21.2933566 C22.7623334,21.2933566 22.593951,21.1245992 22.593951,20.91459 L22.593951,19.6657854 C22.593951,19.4595264 22.7623334,19.290769 22.9697174,19.290769 C23.1774765,19.290769 23.3436088,19.4595264 23.3436088,19.6657854 L23.3436088,20.91459 C23.3436088,21.1245992 23.1774765,21.2933566 22.9697174,21.2933566" id="Fill-51" fill="#3353B6"></path>
                    <path d="M19.2195534,25.039883 L17.9696237,25.039883 C17.7622396,25.039883 17.5934822,24.8748758 17.5934822,24.6648666 C17.5934822,24.4586076 17.7622396,24.2898502 17.9696237,24.2898502 L19.2195534,24.2898502 C19.4273124,24.2898502 19.5934447,24.4586076 19.5934447,24.6648666 C19.5934447,24.8748758 19.4273124,25.039883 19.2195534,25.039883" id="Fill-53" fill="#3353B6"></path>
                    <path d="M27.9701862,25.039883 L26.7198815,25.039883 C26.5124974,25.039883 26.3441151,24.8748758 26.3441151,24.6648666 C26.3441151,24.4586076 26.5124974,24.2898502 26.7198815,24.2898502 L27.9701862,24.2898502 C28.1753202,24.2898502 28.3437025,24.4586076 28.3437025,24.6648666 C28.3437025,24.8748758 28.1753202,25.039883 27.9701862,25.039883" id="Fill-55" fill="#3353B6"></path>
                </g>
            </g>
        </g>
    </g>
</svg>