<?xml version="1.0" encoding="UTF-8"?>
<svg width="32px" height="32px" viewBox="0 0 32 32" version="1.1" xmlns="http://www.w3.org/2000/svg" xmlns:xlink="http://www.w3.org/1999/xlink">
    <title>矩形 2备份</title>
    <defs>
        <rect id="path-1" x="0" y="0" width="32" height="32" rx="16"></rect>
    </defs>
    <g id="页面-1" stroke="none" stroke-width="1" fill="none" fill-rule="evenodd">
        <g id="kepler-homepage-下拉菜单new" transform="translate(-1115.000000, -166.000000)">
            <g id="编组-15备份-2" transform="translate(1085.000000, 80.000000)">
                <g id="编组-19" transform="translate(30.000000, 86.000000)">
                    <mask id="mask-2" fill="white">
                        <use xlink:href="#path-1"></use>
                    </mask>
                    <use id="蒙版" fill="#B1CDFC" xlink:href="#path-1"></use>
                    <g id="discord-(1)" mask="url(#mask-2)" fill="#2E3689">
                        <g transform="translate(3.999972, 7.000000)" id="Fill-1">
                            <path d="M20.0303465,1.52021129 C20.0237923,1.50745452 20.0128938,1.49753539 19.99966,1.49206103 C18.4679446,0.789309119 16.851477,0.288154218 15.1908631,0.00125264321 C15.1598501,-0.00454816764 15.1287618,0.0101673092 15.1135692,0.0377399945 C14.8934397,0.437267702 14.6936256,0.847593456 14.5149054,1.26723566 C12.7248154,0.995501577 10.9039132,0.995501577 9.11382317,1.26723566 C8.9339227,0.846513652 8.73086921,0.436087451 8.5057425,0.0377399945 C8.48994722,0.0108453261 8.45923557,-0.0036692569 8.42844858,0.00125264321 C6.76763375,0.287576649 5.15106579,0.788731549 3.61955128,1.49216148 C3.60639273,1.49763584 3.59531846,1.50715318 3.58786027,1.51923193 C0.525107479,6.09318383 -0.313976042,10.5545347 0.0976304101,14.9606649 C0.0999658015,14.9825372 0.111065189,15.0024508 0.128417398,15.0159861 C1.91185284,16.3364364 3.9065533,17.3444215 6.02761602,17.996749 C6.05822723,18.005965 6.09127427,17.995167 6.11050986,17.9696786 C6.56606185,17.3498205 6.96970788,16.6933746 7.31735474,16.0072216 C7.32704787,15.9881869 7.32812768,15.9659379 7.32029282,15.9460243 C7.31243284,15.9262111 7.29646178,15.9105916 7.27644773,15.903259 C6.63991546,15.6596752 6.02369859,15.3660939 5.43347236,15.0252272 C5.41170049,15.01237 5.39776348,14.9896187 5.396307,14.9644065 C5.3948254,14.9391944 5.40600013,14.9148611 5.42611463,14.899568 C5.55029216,14.8068555 5.67233519,14.71123 5.79209306,14.6128423 C5.81348825,14.5951887 5.8431201,14.5912462 5.86840762,14.6025464 C9.73473594,16.367123 13.9206613,16.367123 17.7412612,14.6025464 C17.7666742,14.5904677 17.7967832,14.5941089 17.8185551,14.6119633 C17.9384385,14.7108282 18.0607578,14.8067551 18.1854375,14.899568 C18.2056274,14.9147606 18.2170281,14.938893 18.2157474,14.9641052 C18.2143663,14.9893174 18.2006301,15.0122695 18.1789587,15.0252272 C17.5901136,15.3689315 16.9732941,15.662337 16.3351044,15.9022545 C16.3150904,15.9099136 16.2991946,15.9257089 16.2915607,15.9458234 C16.2839016,15.9658374 16.2851823,15.9881869 16.2949759,16.0072216 C16.6484236,16.6895576 17.0514669,17.3450995 17.5008414,17.9685988 C17.5195748,17.9947903 17.5529231,18.0060655 17.5837352,17.9966486 C19.7086149,17.3464806 21.7068562,16.3384956 23.4925517,15.0159861 C23.5101048,15.003154 23.5213799,14.9833408 23.5232382,14.9616443 C24.016056,9.86770365 22.6982926,5.44284011 20.0303465,1.52021129 Z M7.89482421,12.2778276 C6.73074461,12.2778276 5.77160188,11.2095994 5.77160188,9.89771217 C5.77160188,8.58572445 6.7121117,7.5173959 7.89482421,7.5173959 C9.08665227,7.5173959 10.036579,8.59504091 10.0179461,9.89761172 C10.0179461,11.2095994 9.07733582,12.2778276 7.89482421,12.2778276 Z M15.7448782,12.2778276 C14.5809242,12.2778276 13.6217563,11.2095994 13.6217563,9.89771217 C13.6217563,8.58572445 14.5622661,7.5173959 15.7448782,7.5173959 C16.9369072,7.5173959 17.8867334,8.59504091 17.8681005,9.89761172 C17.8681005,11.2095994 16.9369072,12.2778276 15.7448782,12.2778276 Z"></path>
                        </g>
                    </g>
                </g>
            </g>
        </g>
    </g>
</svg>