<?xml version="1.0" encoding="UTF-8"?>
<svg width="32px" height="32px" viewBox="0 0 32 32" version="1.1" xmlns="http://www.w3.org/2000/svg" xmlns:xlink="http://www.w3.org/1999/xlink">
    <title>编组</title>
    <g id="页面-1" stroke="none" stroke-width="1" fill="none" fill-rule="evenodd">
        <g id="kepler-homepage-下拉菜单new" transform="translate(-1435.000000, -166.000000)">
            <g id="编组" transform="translate(1435.000000, 166.000000)">
                <path d="M31.7502885,29.2505257 L0.249001282,29.2505257 C0.112125578,29.2505257 0,29.1380251 0,29.0015244 L0,7.50003863 C0,7.36316292 0.112125578,7.25103735 0.249001282,7.25103735 L31.7502885,7.25103735 C31.8871642,7.25103735 31.9992898,7.36316292 31.9992898,7.50003863 L31.9992898,29.0015244 C31.9992898,29.1380251 31.8871642,29.2505257 31.7502885,29.2505257" id="Fill-1" fill="#3353B6"></path>
                <path d="M30.5004071,5.24893953 L30.5004071,27.2510529 C30.5004071,27.2510529 15.9983324,27.5926796 15.9983324,29.2505632 L15.9983324,7.74907741 C15.9983324,6.09381889 30.5004071,5.24893953 30.5004071,5.24893953" id="Fill-3" fill="#7598D9"></path>
                <path d="M27.5000166,3.24939174 L27.5000166,25.7495076 C27.5000166,25.7495076 15.9983324,27.5926421 15.9983324,29.2505257 L15.9983324,7.24841233 C15.9983324,5.59315381 27.5000166,3.24939174 27.5000166,3.24939174" id="Fill-5" fill="#85ABEF"></path>
                <path d="M1.49892022,5.24893953 L1.49892022,27.2510529 C1.49892022,27.2510529 16.0009949,27.5926796 16.0009949,29.2505632 L16.0009949,7.74907741 C16.0009949,6.09381889 1.49892022,5.24893953 1.49892022,5.24893953" id="Fill-7" fill="#7598D9"></path>
                <path d="M4.49931067,3.24939174 L4.49931067,25.7495076 C4.49931067,25.7495076 16.0009949,27.5926421 16.0009949,29.2505257 L16.0009949,7.24841233 C16.0009949,5.59315381 4.49931067,3.24939174 4.49931067,3.24939174" id="Fill-9" fill="#85ABEF"></path>
                <path d="M24.4992887,1.75050902 L24.4992887,24.2506249 C24.4992887,24.2506249 15.9983699,27.5926421 15.9983699,29.2505257 L15.9983699,7.24841233 C15.9983699,5.59315381 24.4992887,1.75050902 24.4992887,1.75050902" id="Fill-11" fill="#B1CDFC"></path>
                <path d="M7.50003863,1.75050902 L7.50003863,24.2506249 C7.50003863,24.2506249 16.0009574,27.5926421 16.0009574,29.2505257 L16.0009574,7.24841233 C16.0009574,5.59315381 7.50003863,1.75050902 7.50003863,1.75050902" id="Fill-13" fill="#B1CDFC"></path>
                <path d="M13.1884429,8.62541943 L13.1884429,22.8664928 C11.7090603,23.874498 10.7959306,25.6568821 11.0400569,27.6293923 C11.3134333,29.8902789 13.1591928,31.7139133 15.4223294,31.9677897 C18.44222,32.3049164 21.0008582,29.9510293 21.0008582,26.9993891 C21.0008582,25.2807552 20.1319787,23.7672474 18.8134719,22.8664928 L18.8134719,8.62541943 C20.1319787,7.72466479 21.0008582,6.20853198 21.0008582,4.49214814 C21.0008582,2.51438795 19.8511022,0.810379174 18.1883437,0 L18.1883437,4.92677538 C18.1883437,5.01452583 18.1395934,5.09777626 18.061218,5.14165148 L16.1254581,6.25953224 C16.0470827,6.30378247 15.9518322,6.30378247 15.8764568,6.25953224 L13.9380718,5.14165148 C13.8596964,5.09777626 13.8109461,5.01452583 13.8109461,4.92677538 L13.8109461,0 C12.1485626,0.810379174 10.9984316,2.51438795 10.9984316,4.49214814 C10.9984316,6.20853198 11.8676861,7.72466479 13.1884429,8.62541943" id="Fill-15" fill="#FFA04C"></path>
                <path d="M13.9307593,25.6689572 L15.8837693,24.5409514 C15.9542697,24.4997012 16.0450201,24.4997012 16.1181455,24.5409514 L18.0711556,25.6689572 C18.1416559,25.7102074 18.1885312,25.7885828 18.1885312,25.8740833 L18.1885312,28.1274699 C18.1885312,28.2103453 18.1416559,28.2883457 18.0711556,28.3303459 L16.1181455,29.4579767 C16.0450201,29.4996019 15.9542697,29.4996019 15.8837693,29.4579767 L13.9307593,28.3303459 C13.8576339,28.2883457 13.8111336,28.2103453 13.8111336,28.1274699 L13.8111336,25.8740833 C13.8111336,25.7885828 13.8576339,25.7102074 13.9307593,25.6689572" id="Fill-17" fill="#FFFFFF"></path>
                <path d="M16.0009574,8.99419632 L16.0009574,8.99419632 C15.6540806,8.99419632 15.3758292,9.27469777 15.3758292,9.62157456 L15.3758292,21.8702626 C15.3758292,22.2167644 15.6540806,22.4950159 16.0009574,22.4950159 C16.3452092,22.4950159 16.6234606,22.2167644 16.6234606,21.8702626 L16.6234606,9.62157456 C16.6234606,9.27469777 16.3452092,8.99419632 16.0009574,8.99419632" id="Fill-19" fill="#E07D26"></path>
            </g>
        </g>
    </g>
</svg>