<?xml version="1.0" encoding="UTF-8"?>
<svg width="32px" height="32px" viewBox="0 0 32 32" version="1.1" xmlns="http://www.w3.org/2000/svg" xmlns:xlink="http://www.w3.org/1999/xlink">
    <title>编组</title>
    <defs>
        <polygon id="path-1" points="0 0 26.9999883 0 26.9999883 26.9998008 0 26.9998008"></polygon>
        <polygon id="path-3" points="0 0 26.8142061 0 26.8142061 11.4770013 0 11.4770013"></polygon>
        <polygon id="path-5" points="0 -5.32921624e-15 2.99820698 -5.32921624e-15 2.99820698 3.00034454 0 3.00034454"></polygon>
    </defs>
    <g id="页面-1" stroke="none" stroke-width="1" fill="none" fill-rule="evenodd">
        <g id="kepler-homepage-下拉菜单new" transform="translate(-1435.000000, -104.000000)">
            <g id="编组" transform="translate(1435.000000, 104.000000)">
                <path d="M29.3097514,23.49878 L26.0137863,25.0370721 L20.6402644,27.5053896 L10.8108706,27.0051259 L12.2344095,24.4438059 L20.8180192,23.9600427 C24.2021118,23.2621486 26.6558039,21.5457266 27.9154633,21.5381891 C29.0779951,21.5311012 29.5415078,22.5443789 29.3097514,23.49878" id="Fill-1" fill="#7598D9"></path>
                <g transform="translate(2.504956, 0.000000)">
                    <mask id="mask-2" fill="white">
                        <use xlink:href="#path-1"></use>
                    </mask>
                    <g id="Clip-4"></g>
                    <path d="M26.9999883,13.5009317 C26.9999883,6.04460278 20.955198,-0.000187505127 13.4988691,-0.000187505127 C6.04254023,-0.000187505127 0,6.04460278 0,13.5009317 C0,20.9572606 6.04254023,26.9998008 13.4988691,26.9998008 C20.955198,26.9998008 26.9999883,20.9572606 26.9999883,13.5009317" id="Fill-3" fill="#3353B6" mask="url(#mask-2)"></path>
                </g>
                <path d="M26.5045247,13.5009317 C26.5045247,7.70252312 21.8048962,3.00026954 16.0038626,3.00026954 C10.2054541,3.00026954 5.50545054,7.70252312 5.50545054,13.5009317 C5.50545054,19.2997152 10.2054541,23.9993437 16.0038626,23.9993437 C21.8048962,23.9993437 26.5045247,19.2997152 26.5045247,13.5009317" id="Fill-5" fill="#FFA04C"></path>
                <path d="M22.6785951,5.39538503 C24.172636,7.20705957 25.0715355,9.53362319 25.0715355,12.0679425 C25.0715355,17.8689761 20.371532,22.5686046 14.5731235,22.5686046 C12.0388042,22.5686046 9.71224057,21.67008 7.89831597,20.1760392 C9.82474365,22.510103 12.7396984,23.9992687 16.0037876,23.9992687 C21.8048212,23.9992687 26.5044497,19.2996402 26.5044497,13.5008567 C26.5044497,10.2367674 25.014909,7.31918763 22.6785951,5.39538503" id="Fill-7" fill="#E07D26"></path>
                <path d="M16.0038626,5.75171977 C13.5182946,5.75171977 11.4947393,7.77340005 11.4947393,10.258968 C11.4947393,10.8739848 11.997253,11.3768736 12.6126449,11.3768736 C13.2302868,11.3768736 13.7331755,10.8739848 13.7331755,10.258968 C13.7331755,9.00643377 14.7513284,7.98828093 16.0038626,7.98828093 C17.2563969,7.98828093 18.2745497,9.00643377 18.2745497,10.258968 C18.2745497,11.1034911 17.9130398,11.4038743 17.0951424,11.9971405 C16.2161184,12.6391581 14.883332,13.6059345 14.883332,15.8327454 L14.883332,15.927998 C14.883332,16.5430148 15.3862207,17.0459036 16.0038626,17.0459036 C16.6192544,17.0459036 17.1217682,16.5430148 17.1217682,15.927998 L17.1217682,15.8327454 C17.1217682,14.792467 17.5421547,14.4410824 18.4136785,13.806565 C19.2998277,13.1619224 20.5107358,12.2776482 20.5107358,10.258968 C20.5107358,7.77340005 18.4890556,5.75171977 16.0038626,5.75171977" id="Fill-9" fill="#EBF3FD"></path>
                <path d="M16.0038626,18.357052 C15.3862207,18.357052 14.883332,18.8576906 14.883332,19.4753325 L14.883332,19.6313368 C14.883332,20.2493537 15.3862207,20.7522424 16.0038626,20.7522424 C16.6192544,20.7522424 17.1217682,20.2493537 17.1217682,19.6313368 L17.1217682,19.4753325 C17.1217682,18.8576906 16.6192544,18.357052 16.0038626,18.357052" id="Fill-11" fill="#EBF3FD"></path>
                <path d="M22.0194021,25.0834234 C21.4460114,25.3103046 20.4983605,24.5145328 18.8749411,24.7170384 C18.872316,24.7170384 11.301609,23.1352451 5.18294172,23.0253671 C5.17356646,23.0253671 5.18294172,27.9740024 5.18294172,27.9740024 C7.08274367,28.7090225 16.8483857,35.198575 31.2067783,24.1605231 C31.2214037,24.1507729 31.2386542,24.1383975 31.2532796,24.1286473 C31.3631576,24.0603954 32.3246839,23.4281281 31.890422,22.6417316 C31.0650244,21.1503158 26.2701433,23.386877 22.0194021,25.0834234" id="Fill-13" fill="#85ABEF"></path>
                <g transform="translate(4.676961, 20.522999)">
                    <mask id="mask-4" fill="white">
                        <use xlink:href="#path-3"></use>
                    </mask>
                    <g id="Clip-16"></g>
                    <path d="M19.3398205,5.43202353 C18.7904305,5.71778135 18.2192899,6.01066435 17.6331488,6.3084225 C17.6305238,6.31104757 17.6282737,6.31367264 17.6260236,6.31367264 C16.2171101,6.99469126 14.715569,7.33370053 13.0482735,7.33370053 C11.7589882,7.33370053 10.3722003,7.13119499 8.85115869,6.72843398 C8.56090075,6.65268191 8.38727101,6.35492377 8.46302308,6.06466583 C8.53877515,5.77365787 8.83915836,5.60302821 9.1294163,5.67840527 C12.3496294,6.53080358 14.895949,6.42092557 17.1400103,5.34164606 C18.1311624,4.8312571 18.153288,4.64337697 18.1971642,4.27474189 C18.2725413,3.65935006 18.1754137,3.20296258 17.9091564,2.91495471 C17.5086454,2.48744302 16.8175015,2.51706883 16.8103763,2.51706883 C11.5906086,2.6074463 10.6384576,2.04830601 9.53967752,1.40366338 C8.54365028,0.817522354 6.12408412,0.109878004 0.00316675326,0 C-0.00395844157,0 0.00316675326,8.95036974 0.00316675326,8.95036974 C1.90784383,9.68501482 11.6074841,16.0890649 26.0292534,5.13914052 C26.0438788,5.1271402 27.147534,4.40412043 26.7128971,3.61809893 C25.8878745,2.1285582 23.3756808,3.33721625 19.3398205,5.43202353" id="Fill-15" fill="#B1CDFC" mask="url(#mask-4)"></path>
                </g>
                <path d="M4.49974804,20.076099 L0.500638689,20.076099 C0.224631142,20.076099 0,20.3007301 0,20.5763626 L0,29.5758587 C0,29.8514913 0.224631142,30.0761224 0.500638689,30.0761224 L4.49974804,30.0761224 C4.77800565,30.0761224 5.00263679,29.8514913 5.00263679,29.5758587 L5.00263679,20.5763626 C5.00263679,20.3007301 4.77800565,20.076099 4.49974804,20.076099" id="Fill-17" fill="#E07D26"></path>
                <path d="M3.25205142,27.8275234 C3.25205142,27.4127621 2.91529222,27.0756278 2.50240593,27.0756278 C2.08764458,27.0756278 1.75051037,27.4127621 1.75051037,27.8275234 C1.75051037,28.2404097 2.08764458,28.5771689 2.50240593,28.5771689 C2.91529222,28.5771689 3.25205142,28.2404097 3.25205142,27.8275234" id="Fill-19" fill="#EBF3FD"></path>
                <g transform="translate(4.501961, 0.000000)">
                    <mask id="mask-6" fill="white">
                        <use xlink:href="#path-5"></use>
                    </mask>
                    <g id="Clip-22"></g>
                    <path d="M0,1.49880348 C0.830272703,1.49880348 1.499291,2.17007184 1.499291,3.00034454 C1.499291,2.17007184 2.17055935,1.49880348 2.99820698,1.49880348 C2.17055935,1.49880348 1.499291,0.829785189 1.499291,-0.000112503076 C1.499291,0.829785189 0.830272703,1.49880348 0,1.49880348" id="Fill-21" fill="#B1CDFC" mask="url(#mask-6)"></path>
                </g>
                <path d="M26.5019372,3.49835816 C27.3322099,3.49835816 28.0012282,4.17225159 28.0012282,4.99989922 C28.0012282,4.17225159 28.6724965,3.49835816 29.5027692,3.49835816 C28.6724965,3.49835816 28.0012282,2.82933986 28.0012282,1.99944217 C28.0012282,2.82933986 27.3322099,3.49835816 26.5019372,3.49835816" id="Fill-23" fill="#B1CDFC"></path>
                <path d="M29.0021305,19.5022208 C29.8324032,19.5022208 30.5010465,20.1734891 30.5010465,21.0037618 C30.5010465,20.1734891 31.1726899,19.5022208 32.0003375,19.5022208 C31.1726899,19.5022208 30.5010465,18.8309524 30.5010465,18.0006797 C30.5010465,18.8309524 29.8324032,19.5022208 29.0021305,19.5022208" id="Fill-25" fill="#B1CDFC"></path>
                <path d="M0,6.99941639 C0.830272703,6.99941639 1.50154106,7.67068475 1.50154106,8.50095745 C1.50154106,7.67068475 2.17055935,6.99941639 3.00045704,6.99941639 C2.17055935,6.99941639 1.50154106,6.32814804 1.50154106,5.5005004 C1.50154106,6.32814804 0.830272703,6.99941639 0,6.99941639" id="Fill-27" fill="#B1CDFC"></path>
            </g>
        </g>
    </g>
</svg>