<?xml version="1.0" encoding="UTF-8"?>
<svg width="32px" height="32px" viewBox="0 0 32 32" version="1.1" xmlns="http://www.w3.org/2000/svg" xmlns:xlink="http://www.w3.org/1999/xlink">
    <title>编组</title>
    <g id="页面-1" stroke="none" stroke-width="1" fill="none" fill-rule="evenodd">
        <g id="kepler-homepage-下拉菜单new" transform="translate(-38.000000, -203.000000)">
            <g id="编组-15" transform="translate(8.000000, 80.000000)">
                <g id="编组" transform="translate(30.000000, 123.000000)">
                    <polygon id="Fill-1" fill="#3353B6" points="3.96112956 0 7.46022127 2.99879285 1.96218435 6.99780838 30.0449268 6.99780838 24.5431395 2.99879285 28.0459816 0"></polygon>
                    <polygon id="Fill-2" fill="#B1CDFC" points="3.96112956 0 3.96112956 5.5449165 7.46022127 2.99879285"></polygon>
                    <polygon id="Fill-3" fill="#B1CDFC" points="28.0461316 0 24.5432895 2.99879285 28.0461316 5.5449165"></polygon>
                    <polygon id="Fill-4" fill="#7598D9" points="7.46040879 2.99856783 1.96237187 6.99795839 7.46040879 6.99795839"></polygon>
                    <polygon id="Fill-5" fill="#7598D9" points="24.543252 2.99856783 30.0450393 6.99795839 24.543252 6.99795839"></polygon>
                    <g transform="translate(0.000000, 6.997808)">
                        <path d="M0.3570276,20.0018283 L0.00111784335,24.462889 C-0.0180090245,24.7531673 0.210763317,25.0021916 0.499541518,25.0021916 L31.5041943,25.0021916 C31.7963478,25.0021916 32.0251202,24.7531673 31.9988676,24.462889 L31.6425828,20.0018283 L0.3570276,20.0018283 Z" id="Fill-6" fill="#85ABEF"></path>
                        <polygon id="Fill-8" fill="#B1CDFC" points="30.0450018 0 1.96225936 0 0.439985702 19.0008556 31.5639001 19.0008556"></polygon>
                        <polygon id="Fill-10" fill="#7598D9" points="0.439798183 19.0008931 0.356915089 20.0018658 31.6424703 20.0018658 31.5637126 19.0008931"></polygon>
                        <path d="M25.7547703,4.50246469 C25.7547703,5.46930911 24.9668184,6.25313566 24.0033493,6.25313566 C23.0357548,6.25313566 22.2515532,5.46930911 22.2515532,4.50246469 C22.2515532,3.53562028 23.0357548,2.75179373 24.0033493,2.75179373 C24.9668184,2.75179373 25.7547703,3.53562028 25.7547703,4.50246469" id="Fill-12" fill="#3353B6"></path>
                        <path d="M24.0033868,6.50215998 C22.9007791,6.50215998 22.0044416,5.60582244 22.0044416,4.50246469 C22.0044416,3.39910694 22.9007791,2.50276941 24.0033868,2.50276941 C25.1056195,2.50276941 26.001957,3.39910694 26.001957,4.50246469 C26.001957,5.60582244 25.1056195,6.50215998 24.0033868,6.50215998 M24.0033868,3.00344331 C23.1745559,3.00344331 22.5032403,3.67475886 22.5032403,4.50246469 C22.5032403,5.33017052 23.1745559,6.00148608 24.0033868,6.00148608 C24.8322178,6.00148608 25.5072837,5.33017052 25.5072837,4.50246469 C25.5072837,3.67475886 24.8322178,3.00344331 24.0033868,3.00344331" id="Fill-14" fill="#7598D9"></path>
                        <path d="M9.75199508,4.50246469 C9.75199508,5.46930911 8.9677935,6.25313566 8.000199,6.25313566 C7.03672991,6.25313566 6.25290337,5.46930911 6.25290337,4.50246469 C6.25290337,3.53562028 7.03672991,2.75179373 8.000199,2.75179373 C8.9677935,2.75179373 9.75199508,3.53562028 9.75199508,4.50246469" id="Fill-16" fill="#3353B6"></path>
                        <path d="M8.0042869,6.50215998 C6.90167923,6.50215998 6.00159133,5.60582244 6.00159133,4.50246469 C6.00159133,3.39910694 6.90167923,2.50276941 8.0042869,2.50276941 C9.10314421,2.50276941 10.0032321,3.39910694 10.0032321,4.50246469 C10.0032321,5.60582244 9.10314421,6.50215998 8.0042869,6.50215998 M8.0042869,3.00344331 C7.17545596,3.00344331 6.5041404,3.67475886 6.5041404,4.50246469 C6.5041404,5.33017052 7.17545596,6.00148608 8.0042869,6.00148608 C8.82936748,6.00148608 9.5044334,5.33017052 9.5044334,4.50246469 C9.5044334,3.67475886 8.82936748,3.00344331 8.0042869,3.00344331" id="Fill-18" fill="#7598D9"></path>
                        <path d="M16.0038181,13.5022561 C11.3158603,13.5022561 7.50173783,9.68850864 7.50173783,5.00055084 C7.50173783,4.72714914 7.7267598,4.5025022 8.0042869,4.5025022 C8.2776886,4.5025022 8.50308561,4.72714914 8.50308561,5.00055084 C8.50308561,9.13682977 11.8671641,12.5012833 16.0038181,12.5012833 C20.140097,12.5012833 23.5045506,9.13682977 23.5045506,5.00055084 C23.5045506,4.72714914 23.7258222,4.5025022 24.0033493,4.5025022 C24.277126,4.5025022 24.501773,4.72714914 24.501773,5.00055084 C24.501773,9.68850864 20.6876505,13.5022561 16.0038181,13.5022561" id="Fill-20" fill="#EBF3FD"></path>
                        <polygon id="Fill-22" fill="#85ABEF" points="22.5442693 15.5019514 23.0209409 16.5032992 22.5442693 17.5016466 23.5418667 17.0257252 24.5432145 17.5016466 24.0631677 16.5032992 24.5432145 15.5019514 23.5418667 15.9808731"></polygon>
                        <polygon id="Fill-24" fill="#85ABEF" points="27.0447088 9.50282801 27.5213804 10.5015505 27.0447088 11.5025233 28.0460566 11.0266018 29.043654 11.5025233 28.5677326 10.5015505 29.043654 9.50282801 28.0460566 9.97912452"></polygon>
                        <polygon id="Fill-26" fill="#85ABEF" points="8.60783334 14.0028925 9.08450489 15.001615 8.60783334 16.0025878 9.60918113 15.524041 10.6067786 16.0025878 10.1271067 15.001615 10.6067786 14.0028925 9.60918113 14.479189"></polygon>
                        <polygon id="Fill-28" fill="#85ABEF" points="2.95996929 7.50073249 3.43626581 8.50170524 2.95996929 9.502678 3.96131708 9.0245063 4.96266487 9.502678 4.48261799 8.50170524 4.96266487 7.50073249 3.96131708 7.97927923"></polygon>
                    </g>
                </g>
            </g>
        </g>
    </g>
</svg>