<?xml version="1.0" encoding="UTF-8"?>
<svg width="32px" height="32px" viewBox="0 0 32 32" version="1.1" xmlns="http://www.w3.org/2000/svg" xmlns:xlink="http://www.w3.org/1999/xlink">
    <title>编组</title>
    <defs>
        <polygon id="path-1" points="0 0 27.0022594 0 27.0022594 27.0000469 0 27.0000469"></polygon>
        <polygon id="path-3" points="0 32 32.00225 32 32.00225 0 0 0"></polygon>
    </defs>
    <g id="页面-1" stroke="none" stroke-width="1" fill="none" fill-rule="evenodd">
        <g id="kepler-homepage-下拉菜单new" transform="translate(-1435.000000, -232.000000)">
            <g id="编组-15备份-3" transform="translate(1405.000000, 80.000000)">
                <g id="编组" transform="translate(30.000000, 152.000000)">
                    <g transform="translate(4.999991, 4.999916)">
                        <mask id="mask-2" fill="white">
                            <use xlink:href="#path-1"></use>
                        </mask>
                        <g id="Clip-2"></g>
                        <path d="M26.4994141,27.0000469 L0.500632822,27.0000469 C0.22462851,27.0000469 0,26.7776684 0,26.4994141 L0,0.500632822 C0,0.22462851 0.22462851,0 0.500632822,0 L26.4994141,0 C26.7776684,0 27.0022969,0.22462851 27.0022969,0.500632822 L27.0022969,26.4994141 C27.0022969,26.7776684 26.7776684,27.0000469 26.4994141,27.0000469" id="Fill-1" fill="#7598D9" mask="url(#mask-2)"></path>
                    </g>
                    <path d="M29.0017907,29.4997984 L3.00038438,29.4997984 C2.72475507,29.4997984 2.49975156,29.27742 2.49975156,28.9991656 L2.49975156,3.00038438 C2.49975156,2.72475507 2.72475507,2.49975156 3.00038438,2.49975156 L29.0017907,2.49975156 C29.27742,2.49975156 29.4997984,2.72475507 29.4997984,3.00038438 L29.4997984,28.9991656 C29.4997984,29.27742 29.27742,29.4997984 29.0017907,29.4997984" id="Fill-3" fill="#85ABEF"></path>
                    <path d="M21.9997562,26.9996719 L0.500295317,26.9996719 C0.22466601,26.9996719 3.75005859e-05,26.7750434 3.75005859e-05,26.4994141 L3.75005859e-05,0.500257817 C3.75005859e-05,0.22462851 0.22466601,0 0.500295317,0 L26.4994516,0 C26.7750809,0 26.9997094,0.22462851 26.9997094,0.500257817 L26.9997094,21.9997187 C25.0466789,23.9527493 23.9527868,25.0466414 21.9997562,26.9996719" id="Fill-5" fill="#B1CDFC"></path>
                    <path d="M21.9997562,26.9996719 L26.9997094,21.9997187 L22.5003891,21.9997187 C22.2243848,21.9997187 21.9997562,22.2243473 21.9997562,22.5003516 L21.9997562,26.9996719 Z" id="Fill-7" fill="#7598D9"></path>
                    <path d="M22.9984344,10.0756949 L17.0020907,10.0756949 C16.8213378,10.0756949 16.6777106,9.92906764 16.6777106,9.75093986 C16.6777106,9.57018703 16.8213378,9.42655979 17.0020907,9.42655979 L22.9984344,9.42655979 C23.1788122,9.42655979 23.3254395,9.57018703 23.3254395,9.75093986 C23.3254395,9.92906764 23.1788122,10.0756949 22.9984344,10.0756949" id="Fill-9" fill="#3353B6"></path>
                    <path d="M15.5004922,10.0756949 L12.0020625,10.0756949 C11.8213097,10.0756949 11.6750574,9.92906764 11.6750574,9.75093986 C11.6750574,9.57018703 11.8213097,9.42655979 12.0020625,9.42655979 L15.5004922,9.42655979 C15.681245,9.42655979 15.8252473,9.57018703 15.8252473,9.75093986 C15.8252473,9.92906764 15.681245,10.0756949 15.5004922,10.0756949" id="Fill-11" fill="#3353B6"></path>
                    <path d="M22.9984344,12.575859 L18.9749965,12.575859 C18.7942437,12.575859 18.6476164,12.4314817 18.6476164,12.2511039 C18.6476164,12.0703511 18.7942437,11.9263488 18.9749965,11.9263488 L22.9984344,11.9263488 C23.1788122,11.9263488 23.3254395,12.0703511 23.3254395,12.2511039 C23.3254395,12.4314817 23.1788122,12.575859 22.9984344,12.575859" id="Fill-13" fill="#3353B6"></path>
                    <path d="M17.473323,12.575859 L12.0019875,12.575859 C11.8216097,12.575859 11.6749824,12.4314817 11.6749824,12.2511039 C11.6749824,12.0703511 11.8216097,11.9263488 12.0019875,11.9263488 L17.473323,11.9263488 C17.6537008,11.9263488 17.7980781,12.0703511 17.7980781,12.2511039 C17.7980781,12.4314817 17.6537008,12.575859 17.473323,12.575859" id="Fill-15" fill="#3353B6"></path>
                    <path d="M22.9984344,15.0756481 L16.9750902,15.0756481 C16.7947124,15.0756481 16.6503352,14.9316458 16.6503352,14.751268 C16.6503352,14.5727652 16.7947124,14.4265129 16.9750902,14.4265129 L22.9984344,14.4265129 C23.1788122,14.4265129 23.3254395,14.5727652 23.3254395,14.751268 C23.3254395,14.9316458 23.1788122,15.0756481 22.9984344,15.0756481" id="Fill-17" fill="#3353B6"></path>
                    <path d="M15.4737543,15.0756481 L12.00195,15.0756481 C11.8215722,15.0756481 11.6749449,14.9316458 11.6749449,14.751268 C11.6749449,14.5727652 11.8215722,14.4265129 12.00195,14.4265129 L15.4737543,14.4265129 C15.6541321,14.4265129 15.7985094,14.5727652 15.7985094,14.751268 C15.7985094,14.9316458 15.6541321,15.0756481 15.4737543,15.0756481" id="Fill-19" fill="#3353B6"></path>
                    <path d="M18.0006563,17.5758121 L12.0020625,17.5758121 C11.8213097,17.5758121 11.6750574,17.4291848 11.6750574,17.251057 C11.6750574,17.0703042 11.8213097,16.926677 12.0020625,16.926677 L18.0006563,16.926677 C18.1810341,16.926677 18.3254113,17.0703042 18.3254113,17.251057 C18.3254113,17.4291848 18.1810341,17.5758121 18.0006563,17.5758121" id="Fill-21" fill="#3353B6"></path>
                    <path d="M22.9984344,20.0759762 L17.0020907,20.0759762 C16.8213378,20.0759762 16.6777106,19.9315989 16.6777106,19.7512211 C16.6777106,19.5704683 16.8213378,19.426466 17.0020907,19.426466 L22.9984344,19.426466 C23.1788122,19.426466 23.3254395,19.5704683 23.3254395,19.7512211 C23.3254395,19.9315989 23.1788122,20.0759762 22.9984344,20.0759762" id="Fill-23" fill="#3353B6"></path>
                    <path d="M15.5004922,20.0759762 L12.0020625,20.0759762 C11.8213097,20.0759762 11.6750574,19.9315989 11.6750574,19.7512211 C11.6750574,19.5704683 11.8213097,19.426466 12.0020625,19.426466 L15.5004922,19.426466 C15.681245,19.426466 15.8252473,19.5704683 15.8252473,19.7512211 C15.8252473,19.9315989 15.681245,20.0759762 15.5004922,20.0759762" id="Fill-25" fill="#3353B6"></path>
                    <path d="M19.5021422,22.5757652 L12.002025,22.5757652 C11.8216472,22.5757652 11.6750199,22.431763 11.6750199,22.2513852 C11.6750199,22.0728824 11.8216472,21.9266301 12.002025,21.9266301 L19.5021422,21.9266301 C19.68252,21.9266301 19.8268973,22.0728824 19.8268973,22.2513852 C19.8268973,22.431763 19.68252,22.5757652 19.5021422,22.5757652" id="Fill-27" fill="#3353B6"></path>
                    <path d="M8.75001172,10.2514602 C8.75001172,11.3573525 7.85374771,12.2509914 6.75048048,12.2509914 C5.6445882,12.2509914 4.75094923,11.3573525 4.75094923,10.2514602 C4.75094923,9.1455679 5.6445882,8.25192894 6.75048048,8.25192894 C7.85374771,8.25192894 8.75001172,9.1455679 8.75001172,10.2514602" id="Fill-29" fill="#3353B6"></path>
                    <path d="M7.6414944,8.47164487 C7.77837154,8.74014906 7.86124783,9.04052876 7.86124783,9.36265879 C7.86124783,10.466301 6.96535883,11.36219 5.86171659,11.36219 C5.53958656,11.36219 5.23920686,11.2793137 4.97070267,11.1450616 C5.29770778,11.7968218 5.96671823,12.2509539 6.75048048,12.2509539 C7.85374771,12.2509539 8.75001172,11.357315 8.75001172,10.2514227 C8.75001172,9.46766043 8.29587962,8.79864998 7.6414944,8.47164487" id="Fill-31" fill="#1D3285"></path>
                    <path d="M3.5010547,13.5009235 L3.5010547,14.0015563 C4.32869264,14.0015563 4.99995312,14.6728168 4.99995312,15.5030797 L4.99995312,20.5030329 C4.99995312,21.3306708 4.32869264,22.0023063 3.5010547,22.0023063 L3.5010547,22.5003141 L7.50011719,22.5003141 L7.50011719,13.5009235 L3.5010547,13.5009235 Z" id="Fill-33" fill="#3353B6"></path>
                    <path d="M7.50011719,13.5009235 L7.50011719,22.5003141 L9.99990625,22.5003141 L9.99990625,22.0023063 C9.17226832,22.0023063 8.50100783,21.3306708 8.50100783,20.5030329 L8.50100783,13.5009235 L7.50011719,13.5009235 Z" id="Fill-35" fill="#1D3285"></path>
                    <path d="M3.99909999,6.75044298 C3.86222285,6.75044298 3.7500961,6.63794122 3.7500961,6.50143908 L3.7500961,3.5010172 C3.7500961,3.36414006 3.86222285,3.24938827 3.99909999,3.24938827 L23.0006469,3.24938827 C23.137524,3.24938827 23.2496508,3.36414006 23.2496508,3.5010172 L23.2496508,6.50143908 C23.2496508,6.63794122 23.137524,6.75044298 23.0006469,6.75044298 L3.99909999,6.75044298 Z" id="Fill-37" fill="#E39C26"></path>
                    <mask id="mask-4" fill="white">
                        <use xlink:href="#path-3"></use>
                    </mask>
                    <g id="Clip-40"></g>
                    <path d="M3.99906249,6.50147659 L23.0006094,6.50147659 L23.0006094,3.5010547 L3.99906249,3.5010547 L3.99906249,6.50147659 Z M23.0006094,3.00042188 L3.99906249,3.00042188 C3.72305817,3.00042188 3.49842966,3.22505039 3.49842966,3.5010547 L3.49842966,6.50147659 C3.49842966,6.77710589 3.72305817,6.99948437 3.99906249,6.99948437 L23.0006094,6.99948437 C23.2766137,6.99948437 23.5012422,6.77710589 23.5012422,6.50147659 L23.5012422,3.5010547 C23.5012422,3.22505039 23.2766137,3.00042188 23.0006094,3.00042188 L23.0006094,3.00042188 Z" id="Fill-39" fill="#E07D26" mask="url(#mask-4)"></path>
                </g>
            </g>
        </g>
    </g>
</svg>