<?xml version="1.0" encoding="UTF-8"?>
<svg width="32px" height="32px" viewBox="0 0 32 32" version="1.1" xmlns="http://www.w3.org/2000/svg" xmlns:xlink="http://www.w3.org/1999/xlink">
    <title>编组</title>
    <defs>
        <polygon id="path-1" points="0 0 31.9950877 0 31.9950877 15.5076476 0 15.5076476"></polygon>
    </defs>
    <g id="页面-1" stroke="none" stroke-width="1" fill="none" fill-rule="evenodd">
        <g id="kepler-homepage-下拉菜单new" transform="translate(-38.000000, -117.000000)">
            <g id="编组-15" transform="translate(8.000000, 80.000000)">
                <g id="编组" transform="translate(30.000000, 37.000000)">
                    <path d="M29.0865627,15.9998312 C29.0865627,8.77024175 23.2266086,2.91028762 15.9947689,2.91028762 C8.76442933,2.91028762 2.90447521,8.77024175 2.90447521,15.9998312 C2.90447521,23.2294207 8.76442933,29.0920001 15.9947689,29.0920001 C23.2266086,29.0920001 29.0865627,23.2294207 29.0865627,15.9998312" id="Fill-1" fill="#7598D9"></path>
                    <path d="M22.8090798,4.81960131 C25.4365895,7.21496304 27.0867526,10.664929 27.0867526,14.5008081 C27.0867526,21.7303976 21.2267985,27.5903517 13.9945837,27.5903517 C11.4994621,27.5903517 9.16748167,26.8920327 7.18241049,25.681038 C9.50689021,27.8003725 12.6028212,29.0920001 15.9946564,29.0920001 C23.2264961,29.0920001 29.0864502,23.2294207 29.0864502,15.9998312 C29.0864502,11.2657384 26.5740769,7.11970363 22.8090798,4.81960131" id="Fill-3" fill="#85ABEF"></path>
                    <path d="M12.3929879,5.24189305 C12.3464833,4.69733923 12.4151151,4.11865704 11.6384134,3.65511123 C6.55253574,5.44966358 2.90455021,10.2988928 2.90455021,15.9998312 C2.90455021,19.0008778 3.91790036,21.7622757 5.61494308,23.9693688 C4.53071092,22.0600552 3.90589917,19.852587 3.90589917,17.5014796 C3.90589917,11.8905501 7.43387284,7.10507718 12.3929879,5.24189305" id="Fill-5" fill="#85ABEF"></path>
                    <path d="M6.99927989,25.5054082 C7.61696593,24.8434677 8.45967422,24.3866726 9.50715274,24.6383225 C13.770199,25.6737998 13.7994519,19.5524448 10.4053665,19.7013345 C7.36081562,19.837848 9.93657017,17.1694593 7.27755739,17.5332453 C4.6185446,17.8970312 4.98270559,15.4821676 7.37806732,15.0745023 C8.093263,14.9548655 9.64366623,14.525073 9.90994254,12.5107489 C10.18822,10.3914145 8.73045098,9.80073109 9.20674805,8.97527451 C10.0097024,7.58576219 15.6307579,10.2890293 15.9945439,7.75715412 C16.2949486,5.68132397 13.6944416,6.76293087 12.9544934,6.26750691 C12.5100745,5.9719777 12.4271913,5.61306723 12.3930629,5.24178054 C7.43394784,7.10496467 3.90597418,11.8904376 3.90597418,17.5013671 C3.90597418,19.8524745 4.53078593,22.0599426 5.61501808,23.9692563 C6.03768485,24.5186856 6.49898044,25.0313613 6.99927989,25.5054082" id="Fill-7" fill="#B1CDFC"></path>
                    <path d="M27.1502089,9.14865414 C26.7399183,9.05827021 26.2666215,9.33917297 26.0641015,9.85672412 C25.5825539,11.089846 23.6342364,10.8629486 23.043553,9.39992898 C21.7054208,6.08685155 16.2606327,9.46368528 19.5302058,11.0459667 C21.8543105,12.1688276 19.9742497,14.7498327 18.6391177,13.7634852 C17.3253629,12.7940144 16.4436508,11.7686631 15.1325212,12.7647615 C13.8187663,13.7634852 14.0291621,16.3467405 15.5083083,15.6727989 C17.3763679,14.8255902 17.9404237,16.4273735 16.7684329,17.3087106 C14.3048144,19.164394 16.162748,23.3520578 19.3149345,23.1562885 C22.203845,22.9803961 23.5221003,20.0944859 22.4746218,17.8457637 C21.5126517,15.7898105 24.5283247,13.9562543 25.6804386,17.272332 C26.3296278,19.1448921 24.1495373,19.5769348 24.9824946,20.9881992 C25.441165,21.7645259 26.8430535,20.6656673 27.6628845,21.9355428 C28.5712243,20.1529917 29.0865252,18.1364174 29.0865252,15.9998312 C29.0865252,13.4874579 28.3784553,11.1412261 27.1502089,9.14865414" id="Fill-9" fill="#B1CDFC"></path>
                    <g transform="translate(0.000000, 7.272741)">
                        <mask id="mask-2" fill="white">
                            <use xlink:href="#path-1"></use>
                        </mask>
                        <g id="Clip-12"></g>
                        <path d="M31.6477283,1.66840491 C30.8984043,0.52829224 28.9965913,-0.0458895056 26.1590609,0.00286531274 L25.7585213,0.010366054 C26.0367988,0.320521706 26.2981997,0.640428322 26.5427238,0.974961383 C28.7621932,0.984712347 30.3245976,1.42200556 30.8372733,2.20058251 C31.0521695,2.52798987 31.0836726,2.91840345 30.9321576,3.38719978 C30.6711318,4.19802991 29.924058,5.11574561 28.8180737,6.07321523 C26.615481,7.97765345 22.9656203,10.0261059 18.6875725,11.6593923 C12.722608,13.9399927 7.45858778,14.7800757 4.24527021,14.5017982 C2.66298884,14.3622844 1.57650646,13.9568694 1.15646495,13.3148059 C0.614536395,12.4919746 1.26635081,11.1688438 2.93901612,9.65256897 C2.91913915,9.34503858 2.90451271,9.03713315 2.90451271,8.7269775 C2.90451271,8.61221616 2.90976323,8.5023303 2.91201345,8.38794399 L2.58760639,8.6662215 C-0.552578949,11.3664884 -0.16666581,13.0706568 0.346009857,13.8469835 C1.03457791,14.8970873 2.65098765,15.4026372 4.78494855,15.4877707 C5.00697049,15.4978967 5.22936747,15.5076476 5.46114038,15.5076476 C9.24076391,15.5076476 14.3975235,14.337907 19.0341068,12.5651068 C23.1557641,10.9929514 26.6668611,9.05926034 28.9913408,7.17394902 C30.4982397,5.95582863 31.5112149,4.75458492 31.8551238,3.68535425 C32.0970227,2.93790538 32.0238905,2.24221162 31.6477283,1.66840491" id="Fill-11" fill="#E07D26" mask="url(#mask-2)"></path>
                    </g>
                    <path d="M21.8176319,3.93822671 C21.0071768,0.400127044 19.4297709,-0.0514175815 18.5458085,0.00483797813 C17.2811835,0.0753449462 16.0263095,1.19595569 14.8760708,2.95937997 C12.8422448,6.07968834 11.1403266,11.2240718 10.3099946,16.21469 C9.57042149,20.6903823 9.52654215,24.7970381 10.11235,27.6930744 C10.4198804,29.2239757 10.8988028,30.4225941 11.5479919,31.1456656 C12.0512917,31.7070961 12.661477,32 13.3207921,32 C13.359796,32 13.4014251,32 13.4453044,31.9951245 C14.5782914,31.9339935 15.7427815,31.0451556 16.9125221,29.3582389 L17.1322938,29.0383323 C16.7587569,29.0724607 16.3777192,29.0919626 15.9948064,29.0919626 C15.9655535,29.0919626 15.9359256,29.0893373 15.9066727,29.0893373 C15.0152096,30.2958316 14.128997,30.9866499 13.3890489,31.028279 C12.9791334,31.0575319 12.6100969,30.8793893 12.2684381,30.4983516 C11.8191437,29.9954269 11.4651087,29.196973 11.2014577,28.1813726 C10.496013,25.4443521 10.4836367,21.0882966 11.2697144,16.3733306 C12.2856898,10.254976 14.2145055,5.43724985 16.0750643,2.91025011 C16.9687777,1.69925543 17.8474895,1.01293761 18.5998138,0.97168353 C19.8179342,0.925178934 20.4723739,2.59784424 20.7900303,3.81858988 C21.1706929,3.9674796 21.5416046,4.13587124 21.9035153,4.31926436 L21.8176319,3.93822671 Z" id="Fill-13" fill="#3353B6"></path>
                    <path d="M20.7137853,19.367289 C20.7137853,20.196871 20.042844,20.8685624 19.2151372,20.8685624 C18.3844301,20.8685624 17.7131137,20.196871 17.7131137,19.367289 C17.7131137,18.5414574 18.3844301,17.8678909 19.2151372,17.8678909 C20.042844,17.8678909 20.7137853,18.5414574 20.7137853,19.367289" id="Fill-15" fill="#EBF3FD"></path>
                    <path d="M19.2150997,21.3688618 C18.1113656,21.3688618 17.215402,20.4706481 17.215402,19.367289 C17.215402,18.2658052 18.1113656,17.3694666 19.2150997,17.3694666 C20.3162085,17.3694666 21.2147973,18.2658052 21.2147973,19.367289 C21.2147973,20.4706481 20.3162085,21.3688618 19.2150997,21.3688618 M19.2150997,18.3681903 C18.6630451,18.3681903 18.2141257,18.8152345 18.2141257,19.367289 C18.2141257,19.9185935 18.6630451,20.368263 19.2150997,20.368263 C19.7667792,20.368263 20.2138234,19.9185935 20.2138234,19.367289 C20.2138234,18.8152345 19.7667792,18.3681903 19.2150997,18.3681903" id="Fill-17" fill="#E39C26"></path>
                    <path d="M12.8984254,12.8378562 C12.8984254,13.6681883 12.227109,14.3395046 11.4016525,14.3395046 C10.5716954,14.3395046 9.90000406,13.6681883 9.90000406,12.8378562 C9.90000406,12.0101494 10.5716954,11.3388331 11.4016525,11.3388331 C12.227109,11.3388331 12.8984254,12.0101494 12.8984254,12.8378562" id="Fill-19" fill="#EBF3FD"></path>
                    <path d="M11.4015775,14.8401416 C10.2955932,14.8401416 9.39962961,13.9415528 9.39962961,12.8378187 C9.39962961,11.7344597 10.2955932,10.8381211 11.4015775,10.8381211 C12.5030613,10.8381211 13.3990249,11.7344597 13.3990249,12.8378187 C13.3990249,13.9415528 12.5030613,14.8401416 11.4015775,14.8401416 M11.4015775,11.8368448 C10.8472727,11.8368448 10.3979783,12.2887645 10.3979783,12.8378187 C10.3979783,13.3898733 10.8472727,13.8387927 11.4015775,13.8387927 C11.9510068,13.8387927 12.4003012,13.3898733 12.4003012,12.8378187 C12.4003012,12.2887645 11.9510068,11.8368448 11.4015775,11.8368448" id="Fill-21" fill="#3353B6"></path>
                    <path d="M8.05662188,1.49902315 C8.88695394,1.49902315 9.55827029,2.17033949 9.55827029,3.00067155 C9.55827029,2.17033949 10.2295866,1.49902315 11.0572934,1.49902315 C10.2295866,1.49902315 9.55827029,0.829957023 9.55827029,0 C9.55827029,0.829957023 8.88695394,1.49902315 8.05662188,1.49902315" id="Fill-23" fill="#E07D26"></path>
                    <path d="M1.30779241,7.62525359 C2.13549921,7.62525359 2.80719059,8.29656993 2.80719059,9.12427674 C2.80719059,8.29656993 3.47850694,7.62525359 4.308839,7.62525359 C3.47850694,7.62525359 2.80719059,6.95356221 2.80719059,6.12585541 C2.80719059,6.95356221 2.13549921,7.62525359 1.30779241,7.62525359" id="Fill-25" fill="#E07D26"></path>
                    <path d="M24.6842652,3.24969616 C25.511972,3.24969616 26.1836633,3.92101251 26.1836633,4.74871931 C26.1836633,3.92101251 26.8546047,3.24969616 27.6823115,3.24969616 C26.8546047,3.24969616 26.1836633,2.57837982 26.1836633,1.75067302 C26.1836633,2.57837982 25.511972,3.24969616 24.6842652,3.24969616" id="Fill-27" fill="#E07D26"></path>
                    <path d="M28.9964413,21.8744493 C29.8241481,21.8744493 30.4950894,22.5461407 30.4950894,23.3760977 C30.4950894,22.5461407 31.1664058,21.8744493 31.9944876,21.8744493 C31.1664058,21.8744493 30.4950894,21.2057582 30.4950894,20.3754262 C30.4950894,21.2057582 29.8241481,21.8744493 28.9964413,21.8744493" id="Fill-29" fill="#E07D26"></path>
                    <path d="M22.2446866,29.3143971 C23.0753937,29.3143971 23.74671,29.9830882 23.74671,30.8134202 C23.74671,29.9830882 24.4154011,29.3143971 25.2461082,29.3143971 C24.4154011,29.3143971 23.74671,28.6427057 23.74671,27.8127487 C23.74671,28.6427057 23.0753937,29.3143971 22.2446866,29.3143971" id="Fill-31" fill="#E07D26"></path>
                </g>
            </g>
        </g>
    </g>
</svg>