<?xml version="1.0" encoding="UTF-8"?>
<svg width="32px" height="32px" viewBox="0 0 32 32" version="1.1" xmlns="http://www.w3.org/2000/svg" xmlns:xlink="http://www.w3.org/1999/xlink">
    <title>0x0E09FaBB73Bd3Ade0a17ECC321fD13a19e81cE82</title>
    <defs>
        <linearGradient x1="50%" y1="0%" x2="50%" y2="100%" id="linearGradient-1">
            <stop stop-color="#51D2DD" offset="0%"></stop>
            <stop stop-color="#20C1CD" offset="100%"></stop>
        </linearGradient>
        <rect id="path-2" x="0" y="0" width="32" height="32" rx="16"></rect>
        <polygon id="path-4" points="0 0 21.9998703 0 21.9998703 22 0 22"></polygon>
    </defs>
    <g id="页面-1" stroke="none" stroke-width="1" fill="none" fill-rule="evenodd">
        <g id="kepler-homepage-下拉菜单new" transform="translate(-475.000000, -375.000000)">
            <g id="编组-20" transform="translate(445.000000, 80.000000)">
                <g id="0x0E09FaBB73Bd3Ade0a17ECC321fD13a19e81cE82" transform="translate(30.000000, 295.000000)">
                    <mask id="mask-3" fill="white">
                        <use xlink:href="#path-2"></use>
                    </mask>
                    <use id="蒙版" fill="url(#linearGradient-1)" xlink:href="#path-2"></use>
                    <g id="pancake" mask="url(#mask-3)">
                        <g transform="translate(5.000000, 5.000000)">
                            <g id="编组" stroke-width="1" fill="none">
                                <mask id="mask-5" fill="white">
                                    <use xlink:href="#path-4"></use>
                                </mask>
                                <g id="Clip-2"></g>
                                <path d="M3.94399601,3.44232375 C3.64332842,1.8665785 4.69097838,0.347448462 6.28353631,0.050970614 C7.87703424,-0.246662098 9.41187581,0.789546646 9.7125434,2.36636619 C9.74716247,2.54545073 9.76499573,2.72778501 9.76394829,2.91116673 L9.76394829,6.49210562 C10.5706345,6.43557098 11.3794961,6.43452355 12.1861554,6.48791588 L12.1861554,2.91116673 C12.185108,1.30601272 13.4978664,0.00480289761 15.119672,0.00375546251 C16.7404569,0.00270802741 18.0553103,1.30287042 18.0574051,2.90592955 C18.0574051,3.08710897 18.0406193,3.26630094 18.0071551,3.44339805 L17.2129844,7.65295914 C19.9380614,8.83057163 21.9998703,10.8756215 21.9998703,13.4456244 L21.9998703,15.0014684 C21.9998703,17.1157564 20.5875518,18.8852772 18.6116594,20.0795949 C16.6200287,21.2844944 13.9264285,22 10.9991966,22 C8.07089031,22 5.37718266,21.2844944 3.38555196,20.0795949 C1.41070708,18.8852772 -0.00161143862,17.114709 -0.00161143862,15.0014684 L-0.00161143862,13.4466718 C-0.00161143862,10.8903125 2.03828185,8.85157404 4.74133584,7.67183983 L3.94294858,3.44232375 L3.94399601,3.44232375 Z M16.1946089,8.20509173 L17.1238987,3.27889702 C17.2212565,2.75085544 17.104078,2.20584005 16.7982539,1.7646013 C16.4924565,1.32333569 16.0232862,1.02213095 15.4947343,0.92780808 C14.393692,0.719986213 13.331566,1.44115871 13.1186143,2.54126099 C13.0957319,2.66252175 13.0841833,2.78568937 13.0840758,2.90907186 L13.0840758,7.46651569 C12.3926075,7.37807457 11.6962243,7.33435087 10.9991966,7.33547888 C10.2867258,7.33547888 9.57428196,7.38164659 8.86707527,7.47282716 L8.86707527,2.90907186 C8.86234838,2.37138851 8.64424017,1.85774245 8.26069092,1.48112239 C7.87711481,1.10439489 7.3596013,0.895606165 6.82202538,0.900655339 C6.22278507,0.900118193 5.65405467,1.16501184 5.26870598,1.62389585 C4.88349158,2.08277985 4.720978,2.68876134 4.82515751,3.27889702 L5.75750903,8.22083011 C2.84389373,9.29157736 0.897275879,11.2297889 0.897275879,13.4456244 L0.897275879,15.0004209 C0.897275879,18.3760626 5.42020807,21.1105665 10.9991966,21.1105665 C16.5790982,21.1105665 21.1041521,18.3760626 21.1041521,15.0004209 L21.1041521,13.4466718 C21.1041521,11.220362 19.1354844,9.27266981 16.1956564,8.20404429 L16.1946089,8.20509173 Z" id="Fill-1" fill="#633001" mask="url(#mask-5)"></path>
                            </g>
                            <path d="M21.1020572,15.0014684 C21.1020572,18.3760626 16.5780508,21.1116139 10.9991966,21.1116139 C5.41916064,21.1116139 0.896228444,18.37711 0.896228444,15.0014684 L0.896228444,13.4466718 L21.1020572,13.4466718 L21.1020572,15.0014684 Z" id="Fill-3" fill="#FEDC90"></path>
                            <path d="M4.82515751,3.27889702 C4.72935748,2.75074801 4.84801308,2.20637719 5.15477727,1.76594416 C5.46143404,1.32553799 5.93103411,1.02538069 6.45945169,0.932024677 C7.56049398,0.726297681 8.62095488,1.44870561 8.83256363,2.54859304 C8.85343176,2.66808121 8.86602784,2.78958368 8.86602784,2.91011929 L8.86602784,7.4738746 C10.2660726,7.29215804 11.6835208,7.29006317 13.0840758,7.46756313 L13.0840758,2.91011929 C13.0840758,1.79742093 13.9955592,0.894328893 15.1217937,0.894328893 C15.7232363,0.892034142 16.2946793,1.15695465 16.6813977,1.61761124 C17.0681967,2.07826782 17.2302805,2.68688133 17.1238987,3.27889702 L16.1946089,8.20613916 C19.134437,9.27371724 21.1031047,11.2214094 21.1031047,13.4466718 C21.1031047,16.820326 16.5780508,19.5568173 10.9991966,19.5568173 C5.41916064,19.5568173 0.896228444,16.8213734 0.896228444,13.4456244 C0.896228444,11.2319106 2.84284629,9.29367223 5.75750903,8.22187755 L4.82515751,3.27994446 L4.82515751,3.27889702 Z" id="Fill-4" fill="#D1884F"></path>
                            <path d="M8.19239278,13.0024788 C8.19239278,13.9223416 7.68943593,14.6682766 7.06919321,14.6682766 C6.45002478,14.6682766 5.94717536,13.9223416 5.94717536,13.0024788 C5.94717536,12.080521 6.45002478,11.3356604 7.06814577,11.3356604 C7.69048337,11.3356604 8.19239278,12.0815685 8.19239278,13.0014313 L8.19239278,13.0024788 Z M15.9379873,13.0024788 C15.9379873,13.9223416 15.4350574,14.6682766 14.8169095,14.6682766 C14.1956193,14.6682766 13.6927968,13.9223416 13.6927968,13.0024788 C13.6927968,12.080521 14.1956193,11.3356604 14.8158621,11.3356604 C15.4350574,11.3356604 15.9379873,12.0815685 15.9379873,13.0014313 L15.9379873,13.0024788 Z" id="Fill-5" fill="#633001"></path>
                        </g>
                    </g>
                </g>
            </g>
        </g>
    </g>
</svg>