<?xml version="1.0" encoding="UTF-8"?>
<svg width="32px" height="32px" viewBox="0 0 32 32" version="1.1" xmlns="http://www.w3.org/2000/svg" xmlns:xlink="http://www.w3.org/1999/xlink">
    <title>编组</title>
    <g id="页面-1" stroke="none" stroke-width="1" fill="none" fill-rule="evenodd">
        <g id="kepler-homepage-下拉菜单new" transform="translate(-796.000000, -229.000000)">
            <g id="编组-15备份" transform="translate(765.000000, 80.000000)">
                <g id="编组" transform="translate(31.000000, 149.000000)">
                    <polygon id="Fill-1" fill="#B1CDFC" points="10.0016968 0 9.00126086 0.476219492 8.00232485 0 8.47854434 0.99856103 8.00232485 1.99937192 9.00126086 1.52052759 10.0016968 1.99937192 9.52322742 0.99856103"></polygon>
                    <polygon id="Fill-2" fill="#B1CDFC" points="25.0008859 1.99937192 25.4793552 2.99793294 25.0008859 3.99874383 26.0016968 3.52027448 27.0002578 3.99874383 26.5240383 2.99793294 27.0002578 1.99937192 26.0016968 2.47559141"></polygon>
                    <polygon id="Fill-3" fill="#B1CDFC" points="27.0002953 11.9988563 27.4787646 12.9996672 27.0002953 13.9982282 28.0011062 13.5197589 29.002292 13.9982282 28.5234477 12.9996672 29.002292 11.9988563 28.0011062 12.4750758"></polygon>
                    <polygon id="Fill-4" fill="#B1CDFC" points="31.0016265 25.4769179 30.0030654 24.9984485 30.4792849 25.9992594 30.0030654 27.0000703 31.0016265 26.521601 32.0024373 27.0000703 31.523593 25.9992594 32.0024373 24.9984485"></polygon>
                    <polygon id="Fill-5" fill="#B1CDFC" points="23.5021069 18.997783 23.9783264 19.9985938 23.5021069 20.9997797 24.5029178 20.5209354 25.5014788 20.9997797 25.0230095 19.9985938 25.5014788 18.997783 24.5029178 19.4762523"></polygon>
                    <polygon id="Fill-6" fill="#B1CDFC" points="1.00081089 9.47706788 9.99136715e-16 8.99822355 0.478469348 9.99940941 9.99136715e-16 11.0002203 1.00081089 10.521376 2.00162177 11.0002203 1.5235274 9.99940941 2.00162177 8.99822355"></polygon>
                    <polygon id="Fill-7" fill="#B1CDFC" points="6.00051559 13.9982282 6.47898494 14.9990391 6.00051559 15.99985 7.00170145 15.5213807 7.99988751 15.99985 7.52366802 14.9990391 7.99988751 13.9982282 7.00170145 14.4763226"></polygon>
                    <polygon id="Fill-8" fill="#B1CDFC" points="2.50232719 21.4977478 2.97854669 22.4985587 2.50232719 23.4993696 3.50088822 23.0209002 4.50169911 23.4993696 4.02322976 22.4985587 4.50169911 21.4977478 3.50088822 21.9758422"></polygon>
                    <polygon id="Fill-9" fill="#3353B6" points="14.0006281 25.9992969 8.50048044 25.9992969 13.7441445 14.4496618 15.0258124 13.77583"></polygon>
                    <polygon id="Fill-10" fill="#7598D9" points="12.0012562 25.9992969 8.50048044 25.9992969 13.7441445 14.4496618 14.5233446 14.0394381"></polygon>
                    <polygon id="Fill-11" fill="#3353B6" points="18.0019592 25.9992969 23.4994821 25.9992969 18.255818 14.4496618 16.9741501 13.77583"></polygon>
                    <polygon id="Fill-12" fill="#7598D9" points="18.0019592 25.9992969 20.5015491 25.9992969 17.7750988 14.1980529 16.9741501 13.77583"></polygon>
                    <g transform="translate(4.001106, 0.000000)">
                        <path d="M23.9999625,32 L0,32 L0,30.500846 C0,30.2226139 0.224985587,29.9980033 0.500592931,29.9980033 L23.4997445,29.9980033 C23.7753519,29.9980033 23.9999625,30.2226139 23.9999625,30.500846 L23.9999625,32 Z" id="Fill-13" fill="#3353B6"></path>
                        <path d="M20.9997797,32 L5.32872915e-15,32 L5.32872915e-15,30.500846 C5.32872915e-15,30.2226139 0.224985587,29.9980033 0.500592931,29.9980033 L20.4991868,29.9980033 C20.7751691,29.9980033 20.9997797,30.2226139 20.9997797,30.500846 L20.9997797,32 Z" id="Fill-15" fill="#7598D9"></path>
                        <path d="M21.9983782,29.9980782 L2.00203424,29.9980782 L2.00203424,26.4973025 C2.00203424,26.223945 2.224395,25.9993344 2.50000234,25.9993344 L21.4977853,25.9993344 C21.7760175,25.9993344 21.9983782,26.223945 21.9983782,26.4973025 L21.9983782,29.9980782 Z" id="Fill-17" fill="#85ABEF"></path>
                        <path d="M19.0004078,29.9980782 L2.00199675,29.9980782 L2.00199675,26.4973025 C2.00199675,26.223945 2.2243575,25.9993344 2.49996485,25.9993344 L18.4998149,25.9993344 C18.7757972,25.9993344 19.0004078,26.223945 19.0004078,26.4973025 L19.0004078,29.9980782 Z" id="Fill-19" fill="#B1CDFC"></path>
                        <polygon id="Fill-21" fill="#FFA04C" points="11.9988938 0 14.5989773 5.26578766 20.4114799 6.10798371 16.2053743 10.209471 17.1986857 15.9976002 11.9988938 13.2632753 6.80172676 15.9976002 7.79503813 10.209471 3.58855761 6.10798371 9.40143522 5.26578766"></polygon>
                        <polygon id="Fill-23" fill="#E07D26" points="11.9988938 3.52016199 13.5441698 6.65008648 17.0010734 7.15292927 14.4988587 9.58689834 15.0894458 13.0288028 11.9988938 11.402907 8.91096664 13.0288028 9.50155381 9.58689834 6.9993391 7.15292927 10.4536178 6.65008648"></polygon>
                        <polygon id="Fill-25" fill="#FFFFFF" points="11.9988938 6.47163541 12.6944743 7.87779533 14.244625 8.1046558 13.1219469 9.19846072 13.3878048 10.7414869 11.9988938 10.0114086 10.6122327 10.7414869 10.8784656 9.19846072 9.75541254 8.1046558 11.3055632 7.87779533"></polygon>
                        <path d="M16.5004429,28.7482833 L7.49951956,28.7482833 C7.22391222,28.7482833 6.99930161,28.5259226 6.99930161,28.2476904 L6.99930161,27.7497223 C6.99930161,27.4714901 7.22391222,27.2491294 7.49951956,27.2491294 L16.5004429,27.2491294 C16.7764253,27.2491294 17.0010359,27.4714901 17.0010359,27.7497223 L17.0010359,28.2476904 C17.0010359,28.5259226 16.7764253,28.7482833 16.5004429,28.7482833" id="Fill-27" fill="#EBF3FD"></path>
                    </g>
                </g>
            </g>
        </g>
    </g>
</svg>