<?xml version="1.0" encoding="UTF-8"?>
<svg width="32px" height="32px" viewBox="0 0 32 32" version="1.1" xmlns="http://www.w3.org/2000/svg" xmlns:xlink="http://www.w3.org/1999/xlink">
    <title>矩形 + sushi 蒙版</title>
    <defs>
        <rect id="path-1" x="0" y="0" width="32" height="32" rx="16"></rect>
    </defs>
    <g id="页面-1" stroke="none" stroke-width="1" fill="none" fill-rule="evenodd">
        <g id="kepler-homepage-下拉菜单new" transform="translate(-475.000000, -203.000000)">
            <g id="编组-20" transform="translate(445.000000, 80.000000)">
                <g id="矩形-+-sushi-蒙版" transform="translate(30.000000, 123.000000)">
                    <mask id="mask-2" fill="white">
                        <use xlink:href="#path-1"></use>
                    </mask>
                    <use id="蒙版" fill="#D8D8D8" xlink:href="#path-1"></use>
                    <rect id="矩形" fill="#FFE4F0" fill-rule="nonzero" mask="url(#mask-2)" x="19" y="0" width="32" height="32"></rect>
                    <g id="sushi" mask="url(#mask-2)">
                        <g transform="translate(0.000000, 0.040499)">
                            <path d="M0,15.9797039 C0,21.6886618 3.04571263,26.9640639 7.98982874,29.818566 C12.9339448,32.6730682 19.0254165,32.6730682 23.9697184,29.818566 C28.9138345,26.9640639 31.9595472,21.6886618 31.9595472,15.9797039 C31.9595472,7.15439187 24.8051553,0 15.9796575,0 C7.15439187,0 0,7.15439187 0,15.9797039 Z" id="Fill-1" fill="#FFE4F0"></path>
                            <path d="M28.5694978,19.0334049 C29.1014224,18.2169637 29.1774514,17.1333295 28.8541538,15.8984267 L28.5877968,15.8419971 C28.1699855,15.7659681 24.4649985,15.4805689 22.7550653,19.1665602 C21.0453643,22.8715472 17.5876459,22.3777068 15.5544151,18.6155472 C13.711373,15.2142583 9.36030189,19.1482148 7.44192743,21.1799594 L7.84069666,21.7697533 C8.50981713,22.4038549 9.21372424,23.0000116 9.94939913,23.5557155 C15.2128186,27.5072743 20.9502932,28.7803077 22.9644354,26.4624673 L23.0785486,26.3102235 L28.4553846,19.1856023 L28.5694978,19.0334049 Z" id="Fill-3" fill="#0E0F22"></path>
                            <path d="M22.0901713,7.32948621 C16.8472337,3.37788099 11.0892772,2.10466183 9.07564586,4.42254862 L8.96153266,4.57474601 L3.58474311,11.6993672 L3.4706299,11.851611 C2.1025254,13.941225 3.75598258,17.8174978 7.25183164,21.3131147 L7.36594485,21.1990015 C9.28427286,19.1665602 13.6360871,15.2333004 15.4782467,18.6346357 C17.5116168,22.3967489 20.9691495,22.8905893 22.6790827,19.1856023 C24.3889695,15.4996575 28.0946996,15.7841277 28.5125109,15.8602961 L28.7788679,15.917283 C28.113045,13.2768418 25.662746,10.0087083 22.0901713,7.32948621 Z" id="Fill-4" fill="#E75F9E"></path>
                            <path d="M21.9758723,19.7745138 C21.78573,19.7175269 21.5772888,19.6604006 21.3869608,19.5843716 C21.3392627,19.5662119 21.2860842,19.568209 21.2398258,19.5896197 C21.1933817,19.6110305 21.1576662,19.6504151 21.1404354,19.6984848 C21.12209,19.7463687 21.1239013,19.7997329 21.145312,19.8461771 C21.1669086,19.8927605 21.2062932,19.9287083 21.2545486,19.9457533 C21.4639187,20.002926 21.6730566,20.0782119 21.8626415,20.1360813 C21.957016,20.1541945 22.0527837,20.0979507 22.0909144,20.002926 C22.1092134,19.9076691 22.0527837,19.7935559 21.9768012,19.7745138 L21.9758723,19.7745138 Z M8.81021771,8.26069086 C8.77213353,8.16561974 8.65802032,8.10867925 8.56369231,8.14657765 C8.46843541,8.18470827 8.41144848,8.29882148 8.4495791,8.37498984 C9.19068795,10.6349608 11.109016,13.2570566 13.8445283,15.5756401 C13.9214398,15.6518549 14.0348563,15.6328128 14.1108389,15.556598 C14.1870537,15.4805689 14.1680116,15.3664557 14.0917968,15.2902874 C11.3944151,12.972447 9.53228447,10.4072917 8.81096081,8.26069086 L8.81021771,8.26069086 Z M8.61993614,7.65204064 L8.61993614,7.25401451 C8.61993614,7.13985486 8.54390711,7.06387228 8.42960813,7.06387228 C8.31637736,7.06387228 8.240209,7.13985486 8.22116691,7.25401451 L8.22116691,7.61465312 C8.22116691,7.6527373 8.240209,7.69086792 8.240209,7.7289521 C8.25925109,7.84306531 8.3733643,7.90005225 8.46843541,7.88101016 C8.5827344,7.88101016 8.63967489,7.74780842 8.6206328,7.6527373 L8.61993614,7.65204064 Z M25.4352163,20.2683077 C24.6369811,20.3254804 23.7253295,20.2304093 22.7369521,19.9838374 C22.641881,19.9457533 22.527582,20.0219681 22.5087257,20.1162961 C22.4705951,20.2113672 22.5466241,20.3254804 22.641881,20.3445225 C23.6493004,20.591791 24.598897,20.7052075 25.4542583,20.6489637 C25.5549492,20.6308041 25.6273556,20.54191 25.6246154,20.4395936 C25.6246154,20.3445225 25.5302874,20.2304093 25.4345196,20.2683077 L25.4352163,20.2683077 Z" id="Fill-5" fill="#FFFFFF"></path>
                            <path d="M21.3300203,8.18470827 C16.4668099,4.51775907 11.2984615,3.18759942 9.77885631,5.18269956 C8.27759652,7.19702758 10.9758607,11.7953672 15.8398142,15.4615269 C20.7037213,19.1284296 25.8711872,20.4586357 27.3907925,18.4444935 C28.9110943,16.4301655 26.1939274,11.8318258 21.330717,8.18470827 L21.3300203,8.18470827 Z M23.2869898,15.3855443 C22.5268389,16.3929637 19.9054862,15.6897533 17.435402,13.8278084 C14.9653643,11.9657242 13.5781713,9.64802322 14.3383687,8.640418 C15.099402,7.63369521 17.7208012,8.33616255 20.1899565,10.1988505 C22.6599942,12.0609811 24.0480697,14.3597794 23.2869898,15.3855443 Z" id="Fill-6" fill="#FFFFFF"></path>
                            <path d="M22.0139565,7.31039768 C16.7512801,3.37788099 11.0130624,2.10559071 8.99961684,4.42254862 L3.39385776,11.8325689 C1.72205515,14.3969347 4.53373585,19.5843716 9.77811321,23.5557155 C15.040836,27.5072743 20.7783106,28.7803077 22.7924528,26.4624673 L28.3975152,19.0334049 C30.0693179,16.4872917 27.2576372,11.3007837 22.0132598,7.31039768 L22.0139565,7.31039768 Z M28.2462003,18.9009463 L22.71791,26.2723251 L22.6599942,26.3483541 C21.7294862,27.4310595 19.8864441,27.6973701 17.5495152,27.1846734 C15.2316749,26.6709086 12.4954659,25.3606734 9.89222642,23.4034717 C7.28973004,21.4463164 5.2946299,19.1856023 4.15475181,17.0952453 C3.01487373,14.986775 2.76760522,13.1436865 3.54591582,11.9468215 L3.6037852,11.8706531 L9.0749492,4.5937881 L9.13281858,4.51775907 C10.0635123,3.43486792 11.9063687,3.16855733 14.2432975,3.68213643 C16.561881,4.19501887 19.2975327,5.48714078 21.9005864,7.46264151 C24.5030827,9.41961103 26.4981829,11.6805109 27.638061,13.7706821 C28.777939,15.8602961 29.0253933,17.7222409 28.246897,18.9009463 L28.2462003,18.9009463 Z" id="Fill-7" fill="#FFFFFF"></path>
                        </g>
                    </g>
                </g>
            </g>
        </g>
    </g>
</svg>