<?xml version="1.0" encoding="UTF-8"?>
<svg width="32px" height="32px" viewBox="0 0 32 32" version="1.1" xmlns="http://www.w3.org/2000/svg" xmlns:xlink="http://www.w3.org/1999/xlink">
    <title>矩形 2备份 2</title>
    <defs>
        <rect id="path-1" x="0" y="0" width="32" height="32" rx="16"></rect>
    </defs>
    <g id="页面-1" stroke="none" stroke-width="1" fill="none" fill-rule="evenodd">
        <g id="kepler-homepage-下拉菜单new" transform="translate(-1115.000000, -229.000000)">
            <g id="编组-15备份-2" transform="translate(1085.000000, 80.000000)">
                <g id="编组-19" transform="translate(30.000000, 149.000000)">
                    <mask id="mask-2" fill="white">
                        <use xlink:href="#path-1"></use>
                    </mask>
                    <use id="蒙版" fill="#B1CDFC" xlink:href="#path-1"></use>
                    <g id="telegram-(1)" mask="url(#mask-2)" fill="#2E3689">
                        <g transform="translate(4.997700, 8.000000)" id="Fill-1">
                            <path d="M7.52401328,15.7672099 L7.83464166,11.073259 L16.3568475,3.39441495 C16.7341204,3.05052934 16.2792473,2.88404813 15.7798037,3.18362328 L5.26031099,9.83055047 L0.710734922,8.3879409 C-0.265818288,8.11047222 -0.276871522,7.43359169 0.932612337,6.94533134 L18.6538395,0.10994651 C19.4639115,-0.256305644 20.2406938,0.309587419 19.9299679,1.55242604 L16.9116548,15.7672099 C16.7008632,16.7769228 16.0905296,17.0211342 15.2472004,16.5550779 L10.6531838,13.1594594 L8.44497523,15.3011535 C8.18984058,15.5562881 7.97891887,15.7672099 7.52401328,15.7672099 Z"></path>
                        </g>
                    </g>
                </g>
            </g>
        </g>
    </g>
</svg>