<?xml version="1.0" encoding="UTF-8"?>
<svg width="32px" height="32px" viewBox="0 0 32 32" version="1.1" xmlns="http://www.w3.org/2000/svg" xmlns:xlink="http://www.w3.org/1999/xlink">
    <title>矩形 2</title>
    <defs>
        <rect id="path-1" x="0" y="0" width="32" height="32" rx="16"></rect>
        <polygon id="path-3" points="0.00168585366 0.0224780488 19.984384 0.0224780488 19.984384 23.0399719 0.00168585366 23.0399719"></polygon>
    </defs>
    <g id="页面-1" stroke="none" stroke-width="1" fill="none" fill-rule="evenodd">
        <g id="kepler-homepage-下拉菜单new" transform="translate(-475.000000, -117.000000)">
            <g id="编组-20" transform="translate(445.000000, 80.000000)">
                <g id="编组-19" transform="translate(30.000000, 37.000000)">
                    <mask id="mask-2" fill="white">
                        <use xlink:href="#path-1"></use>
                    </mask>
                    <use id="蒙版" fill="#D8D8D8" xlink:href="#path-1"></use>
                    <g mask="url(#mask-2)">
                        <rect id="矩形" fill="#FEE2EF" fill-rule="nonzero" x="0" y="0" width="32" height="32"></rect>
                        <g id="uni" transform="translate(6.016000, 4.480000)">
                            <mask id="mask-4" fill="white">
                                <use xlink:href="#path-3"></use>
                            </mask>
                            <g id="Clip-2"></g>
                            <path d="M7.83525776,5.25750322 C7.58600429,5.22184741 7.57414712,5.20999024 7.69280312,5.19813307 C7.91834224,5.16256156 8.4406759,5.20999024 8.80869776,5.29307473 C9.66336937,5.49492761 10.4349565,6.01723317 11.2540566,6.93130302 L11.4677666,7.18055649 L11.7763902,7.1331278 C13.0940254,6.91944585 14.4473163,7.08561483 15.57504,7.60794849 C15.8836917,7.75040312 16.3703415,8.03534049 16.4297116,8.10645541 C16.4535383,8.13028215 16.4891099,8.28459395 16.5127961,8.43890576 C16.5958806,8.99678283 16.5603372,9.41231766 16.382311,9.73282654 C16.287257,9.91085268 16.287257,9.95836566 16.3466271,10.1126775 C16.3941682,10.2313335 16.5366228,10.3145303 16.667136,10.3145303 C16.9520453,10.3145303 17.2488398,9.863424 17.3912944,9.23420722 L17.4506646,8.98495376 L17.5574634,9.10369405 C18.1628816,9.78033951 18.6376741,10.7180956 18.7089015,11.3828839 L18.7327282,11.56091 L18.625817,11.4065982 C18.4477908,11.133518 18.2816219,10.9554919 18.0560827,10.8011801 C17.6524051,10.5280999 17.2251255,10.4450154 16.0973737,10.3857577 C15.0764207,10.3263875 14.4948293,10.243303 13.9249826,10.0533073 C12.9515426,9.73282654 12.4530357,9.31729171 11.3015977,7.78597463 C10.7911212,7.10932917 10.4706123,6.74141971 10.1501315,6.43268371 C9.44965932,5.75612254 8.74932761,5.39998595 7.83525776,5.25750322 Z" id="Fill-1" fill="#FF007A" mask="url(#mask-4)"></path>
                            <path d="M16.6790775,6.76513405 C16.7027918,6.31402771 16.762162,6.01723317 16.8926751,5.74418107 C16.9401881,5.63738224 16.9877292,5.54244059 16.9995863,5.54244059 C17.0114154,5.54244059 16.9877292,5.62552507 16.9520453,5.72046673 C16.8571036,5.98157737 16.8452464,6.34959922 16.9045323,6.76513405 C16.9877292,7.29929678 17.0232726,7.3705522 17.5931473,7.95214361 C17.854258,8.22519571 18.1628816,8.56950322 18.2816219,8.71187356 L18.4833623,8.97309659 L18.2816219,8.78310088 C18.032256,8.54570459 17.4625218,8.09459824 17.3319243,8.03534049 C17.2488398,7.98779941 17.2369826,7.98779941 17.1775844,8.04719766 C17.1300714,8.09459824 17.1182142,8.16582556 17.1182142,8.51013307 C17.1063571,9.0443239 17.0351298,9.37666185 16.8571036,9.72096937 C16.762162,9.89899551 16.7502205,9.863424 16.8333893,9.66159922 C16.8926751,9.50725932 16.9045323,9.436032 16.9045323,8.92555551 C16.9045323,7.89285776 16.7858763,7.6434919 16.0617179,7.22806946 C15.8836917,7.12127063 15.57504,6.96684644 15.3970139,6.88376195 C15.2070462,6.80067746 15.0645635,6.72945015 15.0764207,6.72945015 C15.1002474,6.7057358 15.8006072,6.90758868 16.0736593,7.02624468 C16.4891099,7.19241366 16.5603372,7.20435512 16.6078501,7.19241366 C16.6434217,7.15684215 16.667136,7.06190049 16.6790775,6.76513405 Z M8.32193561,8.53384741 C7.82342868,7.84534478 7.5029198,6.77699122 7.57414712,5.98157737 L7.59786146,5.7323239 L7.71651746,5.75612254 C7.93019941,5.79169405 8.29822127,5.93414868 8.47624741,6.04094751 C8.95115239,6.32588488 9.16486244,6.71759298 9.36657483,7.69103298 C9.42597307,7.97594224 9.50905756,8.30830829 9.54471337,8.41519141 C9.60399922,8.59321756 9.82953834,9.00864 10.019534,9.26986302 C10.1501315,9.45974634 10.0669346,9.55480039 9.77028059,9.53097366 C9.31917424,9.48357307 8.7137561,9.06803824 8.32193561,8.53384741 Z M16.0736593,13.6976453 C13.7232421,12.748032 12.8922849,11.9289319 12.8922849,10.5400695 C12.8922849,10.3382447 12.904142,10.1720757 12.904142,10.1720757 C12.9159992,10.1720757 12.9990837,10.243303 13.1058544,10.3263875 C13.5807875,10.7062384 14.1149502,10.8724074 15.5987543,11.0861175 C16.4653955,11.2166025 16.9639024,11.3116566 17.4150088,11.4659684 C18.8513842,11.9407891 19.7417116,12.914201 19.9554217,14.2318361 C20.0146794,14.611687 19.9791079,15.3358736 19.8841943,15.7157245 C19.8011099,16.012519 19.5636855,16.5585389 19.5043153,16.5703961 C19.4924581,16.5703961 19.4686595,16.511026 19.4686595,16.4160843 C19.4449452,15.917465 19.1956917,15.4426724 18.7801569,15.0746505 C18.2816219,14.6473709 17.6405479,14.3267778 16.0736593,13.6976453 Z M14.4117448,14.0893815 C14.387918,13.9113553 14.3286603,13.6857881 14.2929764,13.5908464 L14.2336062,13.4127079 L14.3405175,13.5433335 C14.4948293,13.7213596 14.6134853,13.9350416 14.7203684,14.2318361 C14.8034529,14.4573752 14.8034529,14.5286025 14.8034529,14.8966244 C14.8034529,15.2527891 14.7916238,15.3358736 14.7203684,15.537586 C14.6016281,15.8582072 14.4591454,16.0837463 14.2217491,16.3329998 C13.7944695,16.772249 13.23648,17.0096453 12.4411785,17.1164441 C12.2987239,17.1283013 11.8950462,17.1639571 11.538994,17.1876714 C10.6486384,17.2351844 10.0550775,17.330126 9.52091473,17.5200094 C9.44965932,17.5438361 9.378432,17.5675504 9.36657483,17.5556933 C9.34288859,17.5319789 9.71088234,17.3182689 10.0076769,17.1758142 C10.4230993,16.9739895 10.8504913,16.8671906 11.7882474,16.7010217 C12.2511828,16.6297943 12.7260035,16.5348527 12.8447438,16.4873116 C14.0199243,16.1193179 14.6016281,15.205248 14.4117448,14.0893815 Z" id="Fill-3" fill="#FF007A" mask="url(#mask-4)"></path>
                            <path d="M15.4919555,16.0005495 C15.1833319,15.3240164 15.1121046,14.6829424 15.2782736,14.0775243 C15.3019879,14.018126 15.3257865,13.9588683 15.3495009,13.9588683 C15.3732152,13.9588683 15.4444425,13.9944398 15.5156699,14.0419528 C15.6581245,14.1368944 15.954919,14.3030634 16.714649,14.7185982 C17.6762318,15.2408195 18.2222517,15.6444972 18.6021307,16.1074607 C18.9344687,16.511026 19.1362935,16.9739895 19.2312351,17.5438361 C19.2906334,17.8643169 19.2549495,18.635904 19.171865,18.9563848 C18.9107543,19.9654806 18.3171934,20.7726392 17.4506646,21.2355746 C17.3200671,21.30683 17.2132683,21.354343 17.2012987,21.354343 C17.1894416,21.354343 17.2369826,21.2355746 17.30821,21.0932324 C17.5931473,20.4878142 17.6286907,19.9061104 17.4150088,19.2531793 C17.2843832,18.849586 17.0114154,18.3629362 16.4653955,17.5438361 C15.8124644,16.5941104 15.6581245,16.344857 15.4919555,16.0005495 Z M6.6481358,19.6330302 C7.52663415,18.897127 8.60684488,18.3747934 9.60399922,18.2086244 C10.0313912,18.1373971 10.7435801,18.1611114 11.1353163,18.2678821 C11.7645331,18.4341635 12.3342673,18.7902158 12.6310619,19.229465 C12.9159992,19.656857 13.0465967,20.0247664 13.1771099,20.8438665 C13.2246228,21.1643473 13.283993,21.4967977 13.2958501,21.568025 C13.3907918,21.9953327 13.5807875,22.327783 13.8181838,22.5057811 C14.1862057,22.7788613 14.8271672,22.7907184 15.4562997,22.5533221 C15.5631828,22.5176382 15.6581245,22.4820948 15.6581245,22.493952 C15.6818388,22.5176382 15.361358,22.7313483 15.147648,22.8382595 C14.8508816,22.9925713 14.6134853,23.0399719 14.2929764,23.0399719 C13.7232421,23.0399719 13.23648,22.7432055 12.8447438,22.1496445 C12.7616593,22.0309885 12.5954903,21.686681 12.4530357,21.3662002 C12.0375009,20.4046174 11.8239032,20.1198205 11.3371411,19.7993116 C10.9098615,19.5262595 10.3637292,19.4668613 9.94827863,19.6687141 C9.40225873,19.9298248 9.2598041,20.6301846 9.63965502,21.0575766 C9.79396683,21.2355746 10.0789042,21.3780574 10.3163005,21.4137132 C10.7554373,21.4731114 11.1353163,21.1288039 11.1353163,20.6895547 C11.1353163,20.4046174 11.0285175,20.2384484 10.7435801,20.1079633 C10.3637292,19.941682 9.94827863,20.1316496 9.9601358,20.4996714 C9.9601358,20.6539832 10.0313912,20.7489249 10.185703,20.8201522 C10.2806447,20.8676933 10.2806447,20.8676933 10.2093893,20.8557237 C9.86519415,20.7844964 9.78210966,20.3572168 10.0550775,20.0841366 C10.3875278,19.7517986 11.0878876,19.8942533 11.3252839,20.3572168 C11.4202256,20.5471001 11.4320827,20.926951 11.3489982,21.1643473 C11.1472578,21.686681 10.5774111,21.9597612 9.99570732,21.8054494 C9.60399922,21.6986505 9.43783024,21.5917393 8.96300956,21.1050896 C8.13205229,20.2503056 7.81157151,20.0841366 6.62444956,19.9061104 L6.39888234,19.8704546 L6.6481358,19.6330302 Z" id="Fill-4" fill="#FF007A" mask="url(#mask-4)"></path>
                            <path d="M0.40412722,0.532954537 C3.17007922,3.89235512 7.43169249,9.11555122 7.64540254,9.40048859 C7.82342868,9.63788488 7.75217327,9.863424 7.45540683,10.029593 C7.28923785,10.1245346 6.94493034,10.2194763 6.77876137,10.2194763 C6.58887805,10.2194763 6.36333893,10.1245346 6.20899902,9.97022283 C6.1021159,9.863424 5.63915239,9.18677854 4.59451317,7.56040741 C3.79921171,6.31402771 3.12256624,5.28121756 3.11070907,5.26936039 C3.0631961,5.24567415 3.0631961,5.24567415 4.51140059,7.83348761 C5.42547044,9.45974634 5.72223688,10.0414501 5.72223688,10.1126775 C5.72223688,10.2669893 5.67483629,10.3500738 5.48484059,10.5637838 C5.1643598,10.9199485 5.02187707,11.3235138 4.91510634,12.1663282 C4.79633795,13.1040843 4.47585717,13.7688726 3.56181541,14.8966244 C3.02762459,15.5614127 2.9445401,15.6800687 2.81391454,15.9531489 C2.64774556,16.2854868 2.60023259,16.4754544 2.57651824,16.902734 C2.55271961,17.3538404 2.60023259,17.6387778 2.73083005,18.0661698 C2.84948605,18.4460207 2.98008351,18.6952741 3.30059239,19.181952 C3.57367259,19.609344 3.73984156,19.9298248 3.73984156,20.0485651 C3.73984156,20.1435067 3.7635278,20.1435067 4.1909198,20.0485651 C5.21176039,19.8111688 6.05468722,19.4074911 6.51765073,18.9089842 C6.80247571,18.6003325 6.87370302,18.4341635 6.87370302,18.0067715 C6.87370302,17.7337194 6.86184585,17.6744336 6.79061854,17.5081522 C6.67196254,17.2470416 6.44642341,17.0333596 5.95963317,16.7010217 C5.31867161,16.2617725 5.04559141,15.9056078 4.9743641,15.4308152 C4.91510634,15.0272219 4.98622127,14.7541698 5.34238595,14.0062689 C5.71037971,13.2347099 5.80532137,12.914201 5.86471961,12.1306724 C5.90037541,11.6321374 5.95963317,11.4303126 6.1021159,11.2760008 C6.25642771,11.1098318 6.38702517,11.0504336 6.75504702,11.003033 C7.36046517,10.9199485 7.75217327,10.7656367 8.06082498,10.4688421 C8.33387707,10.2194763 8.45253307,9.97022283 8.46439024,9.60220098 L8.47624741,9.32923317 L8.32193561,9.1629518 C7.76403044,8.52199024 0.0361053659,0.0224780488 0.00056195122,0.0224780488 C-0.0112952195,0.0224780488 0.17856,0.248017171 0.40412722,0.532954537 Z M4.04846517,17.4132105 C4.17906263,17.1876714 4.10783532,16.902734 3.89415337,16.7602794 C3.69230049,16.6297943 3.38367688,16.6891645 3.38367688,16.8671906 C3.38367688,16.9147036 3.40747551,16.9621323 3.47873093,16.9858185 C3.58550166,17.0452168 3.59735883,17.1045869 3.51427434,17.2351844 C3.43118985,17.3656976 3.43118985,17.484466 3.53798868,17.5675504 C3.70427005,17.6981479 3.92980917,17.6269206 4.04846517,17.4132105 Z M8.85609834,11.169202 C8.57130146,11.2522864 8.29822127,11.56091 8.21513678,11.8695618 C8.1676238,12.0595294 8.19142244,12.4037245 8.27450693,12.5106357 C8.40513249,12.6768047 8.52376039,12.7242334 8.85609834,12.7242334 C9.50905756,12.7242334 10.0669346,12.4394084 10.1263048,12.0951009 C10.185703,11.8101635 9.93644956,11.4184554 9.59214205,11.2404293 C9.4141159,11.1454876 9.04609405,11.1098318 8.85609834,11.169202 Z M9.61582829,11.7627629 C9.71088234,11.6203083 9.67522654,11.4659684 9.49720039,11.3590853 C9.17671961,11.1573448 8.68992937,11.3235138 8.68992937,11.6321374 C8.68992937,11.7864773 8.93929522,11.9526462 9.17671961,11.9526462 C9.33103141,11.9526462 9.54471337,11.8577046 9.61582829,11.7627629 Z" id="Fill-5" fill="#FF007A" mask="url(#mask-4)"></path>
                        </g>
                    </g>
                </g>
            </g>
        </g>
    </g>
</svg>