<?xml version="1.0" encoding="UTF-8"?>
<svg width="18px" height="21px" viewBox="0 0 18 21" version="1.1" xmlns="http://www.w3.org/2000/svg" xmlns:xlink="http://www.w3.org/1999/xlink">
    <title>discord</title>
    <defs>
        <polygon id="path-1" points="0 0 18 0 18 20.5730968 0 20.5730968"></polygon>
    </defs>
    <g id="launchpad" stroke="none" stroke-width="1" fill="none" fill-rule="evenodd">
        <g id="launchpad-项目详情" transform="translate(-1542.000000, -200.000000)">
            <g id="discord" transform="translate(1542.000000, 200.000000)">
                <mask id="mask-2" fill="white">
                    <use xlink:href="#path-1"></use>
                </mask>
                <g id="Clip-2"></g>
                <path d="M10.8958689,8.6149697 C10.3171745,8.6149697 9.83501711,9.12932287 9.83501711,9.77225804 C9.83501711,10.4151179 10.3171745,10.9294459 10.8958689,10.9294459 C11.4744629,10.9294459 11.9566203,10.4151179 11.9566203,9.77225804 C11.9566203,9.12932287 11.4744629,8.6149697 10.8958689,8.6149697 Z M7.13479486,8.6149697 C6.55620091,8.6149697 6.07404348,9.12932287 6.07404348,9.77225804 C6.07404348,10.4151179 6.55620091,10.9294459 7.13479486,10.9294459 C7.7133888,10.9294459 8.19554623,10.4151179 8.19554623,9.77225804 C8.19554623,9.12932287 7.7133888,8.6149697 7.13479486,8.6149697 Z" id="Fill-1" fill="#020D1D" mask="url(#mask-2)"></path>
                <path d="M15.8783717,0 L2.12009638,0 C0.930737882,0 -0.00150682046,0.932244702 -0.00150682046,2.1216032 L-0.00150682046,16.0405809 C-0.00150682046,17.1978692 0.930737882,18.1621841 2.12009638,18.1621841 L13.7889391,18.1621841 L13.2424153,16.2656245 L14.5604061,17.4871537 L15.8141309,18.6443415 L18,20.5730968 L18,2.1216032 C18,0.932244702 17.0677553,0 15.8783717,0 Z M11.9244497,13.4367952 C11.9244497,13.4367952 11.5387288,12.9868083 11.2494192,12.6010874 C12.5995806,12.2152409 13.1138082,11.3795332 13.1138082,11.3795332 C12.6960171,11.6688427 12.2781005,11.8616906 11.9244497,11.9902978 C11.4100965,12.2152409 10.9279391,12.3438732 10.4457817,12.4402846 C9.44927108,12.6331576 8.54919699,12.5688917 7.77775514,12.4402846 C7.19906075,12.3116774 6.68470759,12.1510002 6.2669165,11.9902978 C6.04187287,11.8938864 5.7846335,11.7974498 5.5275197,11.636647 C5.49534909,11.6044764 5.46327893,11.6044764 5.43108319,11.5724062 C5.39891258,11.5724062 5.39891258,11.5402356 5.39891258,11.5402356 C5.20603956,11.4437991 5.10962816,11.3795332 5.10962816,11.3795332 C5.10962816,11.3795332 5.5917856,12.2152409 6.90975122,12.6010874 C6.58827108,12.9868083 6.23472077,13.4689658 6.23472077,13.4689658 C3.95241517,13.404725 3.08443636,11.8938864 3.08443636,11.8938864 C3.08443636,8.58289954 4.56320484,5.88257683 4.56320484,5.88257683 C6.04187287,4.75755956 7.456275,4.78965484 7.456275,4.78965484 L7.55271151,4.91826197 C5.68822211,5.46478575 4.82031864,6.26842332 4.82031864,6.26842332 C4.82031864,6.26842332 5.04536227,6.13979108 5.43108319,5.97901334 C6.5240303,5.49685591 7.39190865,5.36834924 7.77775514,5.33615351 C7.84199592,5.33615351 7.90626182,5.30398289 7.93843243,5.30398289 C8.58139272,5.20754638 9.28859379,5.20754638 10.027865,5.27191273 C10.9923054,5.4004194 12.0530568,5.65763365 13.1138082,6.26842332 C13.1138082,6.26842332 12.3101706,5.49685591 10.5422182,4.95043258 L10.6708253,4.78965484 C10.6708253,4.78965484 12.0852274,4.75755956 13.5638955,5.88257683 C13.5638955,5.88257683 15.0425635,8.58289954 15.0425635,11.8938864 C15.0747341,11.8616906 14.2068558,13.3725293 11.9244497,13.4367952 Z" id="Fill-3" fill="#020D1D" mask="url(#mask-2)"></path>
            </g>
        </g>
    </g>
</svg>