<?xml version="1.0" encoding="UTF-8"?>
<svg width="19px" height="18px" viewBox="0 0 19 18" version="1.1" xmlns="http://www.w3.org/2000/svg" xmlns:xlink="http://www.w3.org/1999/xlink">
    <title>GitHub-dark</title>
    <g id="交易" stroke="none" stroke-width="1" fill="none" fill-rule="evenodd">
        <g id="GitHub-dark" transform="translate(0.000000, 0.000000)" fill="#2D3C58">
            <path d="M9.22818037,9.76996262e-14 C4.12519772,9.76996262e-14 4.08562073e-14,4.12519772 4.08562073e-14,9.22818037 C4.08562073e-14,13.3074771 2.64316141,16.7604422 6.31003068,17.9826734 C6.76835913,18.0743435 6.93642827,17.7840622 6.93642827,17.5396159 C6.93642827,17.3257337 6.92113527,16.592395 6.92113527,15.8284044 C4.35437293,16.3784909 3.81964542,14.7284074 3.81964542,14.7284074 C3.40706412,13.6589524 2.79593756,13.3838542 2.79593756,13.3838542 C1.95565775,12.8185847 2.85704362,12.8185847 2.85704362,12.8185847 C3.7890814,12.8796907 4.27797387,13.7658935 4.27797387,13.7658935 C5.10298265,15.1714648 6.43224281,14.7742424 6.96697032,14.5297962 C7.04336938,13.9339406 7.28781561,13.5214472 7.54753287,13.2921841 C5.50020503,13.0783019 3.34593609,12.2838572 3.34593609,8.7392879 C3.34593609,7.73087303 3.71270431,6.90586425 4.29326686,6.26419564 C4.20159678,6.03493254 3.88075149,5.08771163 4.38491497,3.81964542 C4.38491497,3.81964542 5.16408871,3.5751113 6.92113527,4.76686633 C7.65447397,4.56825514 8.44894071,4.46131403 9.22818037,4.46131403 C10.0073541,4.46131403 10.8018208,4.56825514 11.5352255,4.76686633 C13.2921841,3.5751113 14.0714458,3.81964542 14.0714458,3.81964542 C14.5756312,5.08771163 14.2547859,6.03493254 14.1631158,6.26419564 C14.7589494,6.90586425 15.1103587,7.73087303 15.1103587,8.7392879 C15.1103587,12.2838572 12.9560898,13.0630309 10.893469,13.2921841 C11.2296732,13.5825533 11.5199544,14.1325518 11.5199544,15.0033956 C11.5199544,16.2410077 11.5046834,17.2340637 11.5046834,17.5396159 C11.5046834,17.7840622 11.6727306,18.0743435 12.131081,17.9826734 C15.7978624,16.7604422 18.4411319,13.3074771 18.4411319,9.22818037 C18.4563827,4.12519772 14.315892,9.76996262e-14 9.22818037,9.76996262e-14 Z" id="形状结合"></path>
            <path d="M3.49871224,13.2463491 C3.48344121,13.2921841 3.40706412,13.3074771 3.34593609,13.2769131 C3.28483002,13.2463491 3.23899498,13.185243 3.269559,13.139408 C3.28483002,13.0935729 3.36122908,13.0783019 3.42233515,13.1088659 C3.48344121,13.139408 3.51400523,13.200536 3.49871224,13.2463491 Z M3.86548046,13.6589524 C3.81964542,13.7047874 3.72797534,13.6742234 3.68214029,13.6131173 C3.62094634,13.5520112 3.60567532,13.4602533 3.65151036,13.4144182 C3.69741132,13.3685832 3.77381038,13.3991472 3.83491644,13.4602533 C3.89602251,13.5367183 3.9113155,13.6283883 3.86548046,13.6589524 Z M4.23213882,14.1936799 C4.17103276,14.2395149 4.07936268,14.1936799 4.03352763,14.1172808 C3.97242157,14.0409037 3.97242157,13.9339406 4.03352763,13.9033986 C4.09465567,13.8575635 4.18630378,13.9033986 4.23213882,13.9797757 C4.29326686,14.0561747 4.29326686,14.1478448 4.23213882,14.1936799 Z M4.73632429,14.7131144 C4.69048924,14.7742424 4.58354814,14.7589494 4.49187805,14.6825723 C4.41547899,14.6061733 4.38491497,14.4992322 4.44604301,14.4533971 C4.49187805,14.3922911 4.59881916,14.4075621 4.69048924,14.4839611 C4.76686633,14.5450672 4.78215933,14.6520083 4.73632429,14.7131144 Z M5.42382794,15.0033956 C5.40853495,15.0797947 5.30159384,15.1103368 5.19465273,15.0797947 C5.08771163,15.0492307 5.02660556,14.9575606 5.04187658,14.8964545 C5.05714761,14.8200775 5.16408871,14.7895134 5.27105179,14.8200775 C5.3779929,14.8506195 5.43909897,14.9270186 5.42382794,15.0033956 Z M6.17252555,15.0645237 C6.17252555,15.1409008 6.08076758,15.2020068 5.97382647,15.2020068 C5.86688537,15.2020068 5.77521528,15.1409008 5.77521528,15.0645237 C5.77521528,14.9881246 5.86688537,14.9270186 5.97382647,14.9270186 C6.08076758,14.9270186 6.17252555,14.9881246 6.17252555,15.0645237 Z M6.87530023,14.9422896 C6.89059323,15.0186886 6.81419417,15.0950657 6.70725306,15.1103368 C6.60031195,15.1256298 6.50864187,15.0797947 6.49337085,15.0033956 C6.47807785,14.9270186 6.55447691,14.8506195 6.66141802,14.8353485 C6.76835913,14.8200775 6.86002921,14.8658905 6.87530023,14.9422896 Z" id="Fill-3"></path>
        </g>
    </g>
</svg>