<?xml version="1.0" encoding="UTF-8"?>
<svg width="21px" height="24px" viewBox="0 0 21 24" version="1.1" xmlns="http://www.w3.org/2000/svg" xmlns:xlink="http://www.w3.org/1999/xlink">
    <title>ios (1)</title>
    <g id="页面-1" stroke="none" stroke-width="1" fill="none" fill-rule="evenodd">
        <g id="kepler-homepage" transform="translate(-1217.000000, -681.000000)" fill="#FFFFFF">
            <g id="编组-12" transform="translate(1217.000000, 677.000000)">
                <path d="M10.3902019,9.46720441 C10.6684342,9.46090837 10.945166,9.42263193 11.2146897,9.35308121 L11.3415521,9.35308121 C11.6335828,9.25702237 11.9143453,9.12945388 12.1787792,8.97258229 L12.2929024,8.97258229 C12.5475687,8.83339258 12.7896134,8.67216672 13.0158886,8.49046399 L13.1047394,8.41438186 C13.3329858,8.22049893 13.545139,8.00834569 13.7389925,7.78012872 L13.8150747,7.70404658 C14.0087222,7.46476739 14.182599,7.21021882 14.335234,6.94290162 L14.335234,6.85416856 C14.4866039,6.57811339 14.6139371,6.28943671 14.7157624,5.99155133 L14.7157624,5.92809071 C14.8177936,5.62296782 14.8900805,5.30854796 14.9313578,4.98939136 C14.9683692,4.66070242 14.9683692,4.32880662 14.9313578,4 C12.1655693,4.30238676 10.0925518,6.67317193 10.1618378,9.4545829 L10.3902019,9.46720441 Z M17.2400652,18.3974698 C16.9904593,17.7508894 16.8740413,17.0605308 16.8976073,16.3678774 C16.9148479,15.9064713 16.9959904,15.4497432 17.1385929,15.0106086 C17.2855791,14.5607944 17.4948785,14.1338694 17.7601068,13.7420729 C18.2020069,13.092521 18.7717992,12.540087 19.434561,12.1184284 C18.5807995,10.8989372 17.2742227,10.0720662 15.806626,9.82246031 C15.5346015,9.76923812 15.2589876,9.73534539 14.9821381,9.72095863 L13.4471973,9.72095863 L13.0793198,9.82246031 L12.8002932,9.91116396 L12.4451844,10.0380558 L12.1914302,10.2410003 L11.7728608,10.4059332 L11.4302852,10.5454465 L11.1892702,10.6342679 L10.8975926,10.7231186 L10.7326891,10.7231186 C10.602002,10.7380644 10.4700793,10.7380644 10.3394216,10.7231186 C10.2128828,10.7363285 10.085432,10.7363285 9.95889324,10.7231186 L9.81937991,10.7231186 L9.54023556,10.6469188 L9.33726161,10.5708367 L9.04558402,10.4947545 L8.56346572,10.3044315 L8.37326039,10.2410003 L8.03080253,10.1141379 L7.80243844,10.0380558 L7.48525303,9.93658351 L7.24423802,9.93658351 L6.91443109,9.87312289 L6.66076514,9.87312289 L6.35634834,9.78441925 C5.57702134,9.78865584 4.805991,9.94370334 4.08565266,10.2410003 C1.45696495,11.4042685 -0.168297688,14.082589 0.0138757721,16.9513503 L0.0138757721,18.219886 C0.0138757721,18.3213877 0.0138757721,18.6766142 0.102579419,18.9048606 C0.19143017,19.1331952 0.102579419,19.1586148 0.178779235,19.2854772 C0.254861368,19.4122513 0.254861368,19.6913956 0.305553369,19.8943402 C0.356333633,20.0973141 0.381753186,20.1607453 0.419794252,20.2875195 C0.457805898,20.4143819 0.521266517,20.6681361 0.584697715,20.8583414 C0.64801123,21.0486644 0.68616998,21.1374857 0.736861981,21.2770285 L0.927184997,21.8096917 L1.10473939,22.2157279 C1.18082153,22.3805136 1.24425273,22.5581857 1.32033486,22.7231186 L1.51065787,23.1036175 L1.76441209,23.5983868 L1.98000755,23.9661465 L2.24638328,24.4228452 L2.75380345,25.1839902 L2.99478904,25.5010873 L3.28658432,25.8689648 L3.54022085,26.16076 L3.83201613,26.4778278 L4.09842128,26.731582 L4.39021656,26.9978694 L4.65647461,27.200814 L4.94826989,27.4165271 L5.21467504,27.5686914 L5.4937017,27.7209733 L5.74745591,27.8097947 L6.026512,27.8985277 L6.35634834,28 L6.64814362,28 C6.99280804,27.9871431 7.33423618,27.9273895 7.66292511,27.8224456 C8.59256287,27.3560968 9.60607927,27.0801594 10.6438384,27.0106086 C10.8550796,26.9962513 11.0668798,26.9962513 11.2781209,27.0106086 L11.4810655,27.0106086 L11.8235528,27.0866908 L12.0391482,27.1501514 L12.3055534,27.2389727 L12.533888,27.3277058 L12.8637244,27.4672191 L13.1555197,27.5940815 L13.345725,27.6575421 L13.5994792,27.7463635 L14.6777213,27.7463635 C15.5248338,27.6733999 16.3195184,27.3052872 16.9228798,26.7061918 C18.0923557,25.5896733 19.043147,24.2645909 19.7263563,22.7992007 C19.9411574,22.403403 20.1359524,21.9968961 20.3098292,21.5814453 C18.9084293,20.9640797 17.8058562,19.8204646 17.2400652,18.3974698 Z" id="ios-(1)"></path>
            </g>
        </g>
    </g>
</svg>