<?xml version="1.0" encoding="UTF-8"?>
<svg width="24px" height="18px" viewBox="0 0 24 18" version="1.1" xmlns="http://www.w3.org/2000/svg" xmlns:xlink="http://www.w3.org/1999/xlink">
    <title>twitter-dark@3x</title>
    <g id="交易" stroke="none" stroke-width="1" fill="none" fill-rule="evenodd">
        <path d="M23.7088671,2.13058076 C22.8368108,2.49189228 21.8988891,2.73619544 20.9148618,2.84677477 C21.9186487,2.28359169 22.6905898,1.39381384 23.0528489,0.333023787 C22.1122927,0.85377527 21.0729385,1.23180227 19.9637671,1.43495964 C19.0772204,0.551610829 17.8139243,4.2937473e-16 16.4136284,4.2937473e-16 C13.7276422,4.2937473e-16 11.5501359,2.0341453 11.5501359,4.54403886 C11.5501359,4.90149296 11.593607,5.24737481 11.67528,5.5803986 C7.63378625,5.3913851 4.04939757,3.58097007 1.65058398,0.831916565 C1.23299809,1.50310736 0.993248461,2.28359169 0.993248461,3.11679406 C0.993248461,4.69319237 1.85213175,6.0844346 3.15626434,6.89834988 C2.35929442,6.87520537 1.6084302,6.6707622 0.953729291,6.33002357 L0.953729291,6.38788485 C0.953729291,8.58918494 2.62934208,10.4253161 4.85558863,10.8432031 C4.44722388,10.9473534 4.01778224,11.002643 3.57385023,11.002643 C3.26033149,11.002643 2.95603388,10.9743553 2.65964011,10.9203515 C3.27745646,12.7256233 5.07426137,14.0397171 7.2030273,14.0770055 C5.53795296,15.2946639 3.44080236,16.0211444 1.16054628,16.0211444 C0.7693065,16.0211444 0.380701333,16.0005715 8.79787e-16,15.9581399 C2.15247743,17.2478034 4.7093677,18 7.45726729,18 C16.40309,18 21.2955632,11.075934 21.2955632,5.07121937 C21.2955632,4.87320523 21.2902939,4.6790485 21.2823901,4.48360597 C22.2321675,3.84327452 23.0568008,3.0422173 23.7088671,2.13186656 L23.7088671,2.13058076 L23.7088671,2.13058076 Z" id="twitter-dark" fill="#2D3C58"></path>
    </g>
</svg>