<?xml version="1.0" encoding="UTF-8"?>
<svg width="15px" height="12px" viewBox="0 0 15 12" version="1.1" xmlns="http://www.w3.org/2000/svg" xmlns:xlink="http://www.w3.org/1999/xlink">
    <title>Fill 1</title>
    <g id="页面-1" stroke="none" stroke-width="1" fill="none" fill-rule="evenodd">
        <g id="kepler-icon-0408" transform="translate(-89.000000, -893.000000)" fill="#FFFFFF">
            <path d="M101.78723,896.971096 C100.909904,896.820653 100.103427,897.548046 100.018762,897.489625 C99.0844242,896.850715 97.8686322,896.427835 96.5216331,896.332274 C96.4611673,896.328713 96.4283547,894.88293 97.0449504,894.433439 C97.6337848,894.005184 98.9911674,894.486484 99.1155529,894.532539 C99.112099,894.573241 99.112099,894.613943 99.112099,894.654645 C99.112099,895.569533 99.825319,896.309291 100.706099,896.309291 C101.586857,896.309291 102.300077,895.567719 102.300077,894.654645 C102.300077,893.739736 101.586857,893 100.706099,893 C100.070528,893 99.523098,893.385806 99.2658215,893.944971 C99.2692755,893.920262 99.2709593,893.904269 99.2675053,893.904269 C99.250214,893.904269 97.623423,893.247729 96.6494726,893.904269 C95.6754142,894.56081 95.8326123,896.311016 95.7859839,896.311016 C94.3577521,896.333999 93.0521573,896.723345 92.0400839,897.353362 C92.012517,897.371081 91.3182721,896.971096 90.6965387,896.971096 C90.0748053,896.971096 89.6120402,897.178123 89.2389699,897.78686 C89.0041226,898.167424 88.8987338,898.831043 89.126738,899.363663 C89.366723,899.922895 89.9694813,900.283904 89.9694813,900.298083 C89.9556655,900.416627 89.948736,900.535194 89.948736,900.655464 C89.948736,903.055132 92.6238669,905 95.9240989,905 C99.2243309,905 101.899462,903.055132 101.899462,900.655464 C101.899462,900.579435 101.896008,900.503296 101.890762,900.427267 C101.871809,900.152905 102.740521,899.868014 103.004706,898.928329 C103.27066,897.992184 102.664448,897.123241 101.78723,896.971096 Z M100.704394,893.828219 C101.144751,893.828219 101.500509,894.198053 101.500509,894.656371 C101.500509,895.112963 101.143067,895.484589 100.704394,895.484589 C100.263971,895.484589 99.9082139,895.114777 99.9082139,894.656371 C99.9082139,894.198053 100.263971,893.828219 100.704394,893.828219 Z M92.7377827,899.62201 C92.7377827,899.16544 93.0953317,898.79388 93.533984,898.79388 C93.9743416,898.79388 94.3300989,899.163715 94.3300989,899.62201 C94.3300989,900.078602 93.9726578,900.450251 93.533984,900.450251 C93.0935616,900.448437 92.7377827,900.078602 92.7377827,899.62201 Z M98.6164349,902.317188 C98.6164349,902.317188 97.9532972,903.115344 96.1244499,903.115344 C94.2955378,903.115344 93.5875418,902.372069 93.5875418,902.372069 C93.5270761,902.322541 93.5097847,902.221627 93.5443674,902.152677 L93.6859364,901.871236 C93.7205191,901.802286 93.8016439,901.779214 93.8655636,901.82173 C93.8655636,901.82173 94.6875616,902.444647 96.1244499,902.444647 C97.5612734,902.444647 98.2589722,901.830534 98.2589722,901.830534 C98.3263459,901.782753 98.4109246,901.796933 98.4558692,901.860618 L98.6320209,902.108435 C98.6769007,902.170307 98.6699712,902.264142 98.6164349,902.317188 Z M98.3142139,900.448437 C97.8738563,900.448437 97.518099,900.078602 97.518099,899.620285 C97.518099,899.163715 97.8755401,898.792066 98.3142139,898.792066 C98.7546363,898.792066 99.1104211,899.161901 99.1104211,899.620285 C99.112099,900.078602 98.7546363,900.448437 98.3142139,900.448437 Z" id="Fill-1"></path>
        </g>
    </g>
</svg>