<?xml version="1.0" encoding="UTF-8"?>
<svg width="12px" height="12px" viewBox="0 0 12 12" version="1.1" xmlns="http://www.w3.org/2000/svg" xmlns:xlink="http://www.w3.org/1999/xlink">
    <title>github</title>
    <g id="页面-1" stroke="none" stroke-width="1" fill="none" fill-rule="evenodd">
        <g id="kepler-icon-0408" transform="translate(-10.000000, -893.000000)" fill="#FFFFFF">
            <g id="github" transform="translate(10.000000, 893.000000)">
                <path d="M6.00376848,0 C2.68381534,0 0,2.75013181 0,6.15212024 C0,8.87165142 1.71961628,11.1736281 4.10524739,11.9884489 C4.40343162,12.0495623 4.51277584,11.8560415 4.51277584,11.6930773 C4.51277584,11.5504892 4.50282636,11.0615967 4.50282636,10.5522696 C2.83291461,10.9189939 2.48502585,9.81893825 2.48502585,9.81893825 C2.21660429,9.10596824 1.81901102,8.92256947 1.81901102,8.92256947 C1.27233278,8.54572311 1.85876606,8.54572311 1.85876606,8.54572311 C2.46514119,8.58646048 2.78321009,9.17726231 2.78321009,9.17726231 C3.31995314,10.1143099 4.18475746,9.84949494 4.53264621,9.68653079 C4.58235073,9.28929376 4.74138518,9.01429815 4.91035482,8.86145609 C3.57838233,8.71886794 2.17683496,8.1892381 2.17683496,5.82619193 C2.17683496,5.15391536 2.41545096,4.6039095 2.79315957,4.17613043 C2.73351986,4.02328836 2.52478089,3.39180775 2.85278498,2.54643028 C2.85278498,2.54643028 3.35970818,2.38340753 4.50282636,3.17791089 C4.97992971,3.04550343 5.49680239,2.97420936 6.00376848,2.97420936 C6.51069168,2.97420936 7.02756437,3.04550343 7.5047106,3.17791089 C8.6477716,2.38340753 9.15475199,2.54643028 9.15475199,2.54643028 C9.48277037,3.39180775 9.2740314,4.02328836 9.21439169,4.17613043 C9.60203548,4.6039095 9.83065912,5.15391536 9.83065912,5.82619193 C9.83065912,8.1892381 8.42911174,8.70868726 7.08718978,8.86145609 C7.30592111,9.05503553 7.49477542,9.42170122 7.49477542,10.0022638 C7.49477542,10.8273385 7.48484023,11.4893758 7.48484023,11.6930773 C7.48484023,11.8560415 7.59417016,12.0495623 7.89236869,11.9884489 C10.2779426,11.1736281 11.9976293,8.87165142 11.9976293,6.15212024 C12.0075513,2.75013181 9.31378644,0 6.00376848,0 Z" id="形状结合"></path>
                <path d="M2.2762297,8.83089939 C2.26629452,8.86145609 2.21660429,8.87165142 2.17683496,8.8512754 C2.13707992,8.83089939 2.10726007,8.79016201 2.12714473,8.75960532 C2.13707992,8.72904863 2.18678444,8.71886794 2.22653948,8.73924396 C2.26629452,8.75960532 2.28617918,8.80035734 2.2762297,8.83089939 Z M2.51484571,9.10596824 C2.48502585,9.13652493 2.42538615,9.11614892 2.39556629,9.07541154 C2.35575408,9.03467417 2.34581889,8.97350218 2.37563874,8.94294549 C2.40550148,8.91238879 2.455206,8.93276481 2.49496104,8.97350218 C2.53471608,9.02447883 2.54466556,9.08559222 2.51484571,9.10596824 Z M2.75339023,9.46245324 C2.71363519,9.49300994 2.65399549,9.46245324 2.62417564,9.41152053 C2.5844206,9.36060248 2.5844206,9.28929376 2.62417564,9.26893239 C2.66394497,9.2383757 2.72357038,9.26893239 2.75339023,9.31985045 C2.79315957,9.37078316 2.79315957,9.43189655 2.75339023,9.46245324 Z M3.08140861,9.80874292 C3.05158876,9.84949494 2.98201387,9.83929961 2.92237416,9.78838155 C2.87266964,9.73744884 2.85278498,9.66615477 2.89255431,9.63559808 C2.92237416,9.5948607 2.99194906,9.60504138 3.05158876,9.65597409 C3.10127899,9.69671147 3.11122847,9.76800554 3.08140861,9.80874292 Z M3.52869211,10.0022638 C3.51874263,10.0531965 3.44916774,10.0735578 3.37959285,10.0531965 C3.31001796,10.0328205 3.27026292,9.97170707 3.2801981,9.93096969 C3.29013329,9.88005164 3.35970818,9.85967562 3.42929737,9.88005164 C3.49887226,9.900413 3.5386273,9.95134571 3.52869211,10.0022638 Z M4.01578783,10.0430158 C4.01578783,10.0939338 3.95609094,10.1346712 3.88651605,10.1346712 C3.81694116,10.1346712 3.75730145,10.0939338 3.75730145,10.0430158 C3.75730145,9.99208308 3.81694116,9.95134571 3.88651605,9.95134571 C3.95609094,9.95134571 4.01578783,9.99208308 4.01578783,10.0430158 Z M4.47300651,9.96152639 C4.48295599,10.0124591 4.43325147,10.0633772 4.36367658,10.0735578 C4.29410169,10.0837532 4.23446198,10.0531965 4.2245268,10.0022638 C4.21457732,9.95134571 4.26428183,9.900413 4.33385673,9.89023232 C4.40343162,9.88005164 4.46307132,9.91059368 4.47300651,9.96152639 Z" id="Fill-3"></path>
            </g>
        </g>
    </g>
</svg>