<?xml version="1.0" encoding="UTF-8"?>
<svg width="16px" height="12px" viewBox="0 0 16 12" version="1.1" xmlns="http://www.w3.org/2000/svg" xmlns:xlink="http://www.w3.org/1999/xlink">
    <title>twitter-dark</title>
    <g id="é¡µé¢-1" stroke="none" stroke-width="1" fill="none" fill-rule="evenodd">
        <g id="kepler-icon-0408" transform="translate(-63.000000, -893.000000)" fill="#E07D26">
            <path d="M78.8059114,894.420387 C78.2245405,894.661262 77.5992594,894.82413 76.9432412,894.89785 C77.6124325,894.522394 78.1270599,893.929209 78.3685659,893.222016 C77.7415284,893.569184 77.0486257,893.821202 76.3091781,893.95664 C75.718147,893.367741 74.8759495,893 73.9424189,893 C72.1517615,893 70.7000906,894.356097 70.7000906,896.029359 C70.7000906,896.267662 70.7290714,896.49825 70.78352,896.720266 C68.0891908,896.594257 65.6995984,895.387313 64.1003893,893.554611 C63.8219987,894.002072 63.6621656,894.522394 63.6621656,895.077863 C63.6621656,896.128795 64.2347545,897.05629 65.1041762,897.5989 C64.5728629,897.58347 64.0722868,897.447175 63.6358195,897.220016 L63.6358195,897.25859 C63.6358195,898.726123 64.7528947,899.950211 66.2370591,900.228802 C65.9648159,900.298236 65.6785215,900.335095 65.3825668,900.335095 C65.1735543,900.335095 64.9706893,900.316237 64.7730934,900.280234 C65.184971,901.483749 66.3828409,902.359811 67.8020182,902.38467 C66.6919686,903.196443 65.2938682,903.680763 63.7736975,903.680763 C63.512871,903.680763 63.2538009,903.667048 63,903.63876 C64.434985,904.498536 66.1395785,905 67.9715115,905 C73.9353933,905 77.1970421,900.383956 77.1970421,896.380813 C77.1970421,896.248803 77.1935293,896.119366 77.1882601,895.989071 C77.821445,895.562183 78.3712005,895.028145 78.8059114,894.421244 L78.8059114,894.420387 L78.8059114,894.420387 Z" id="twitter-dark"></path>
        </g>
    </g>
</svg>