<?xml version="1.0" encoding="UTF-8"?>
<svg width="16px" height="16px" viewBox="0 0 16 16" version="1.1" xmlns="http://www.w3.org/2000/svg" xmlns:xlink="http://www.w3.org/1999/xlink">
    <title>anniu_xuanzhong</title>
    <g id="页面-1" stroke="none" stroke-width="1" fill="none" fill-rule="evenodd" opacity="1">
        <g id="Market-链接钱包" transform="translate(-634.000000, -219.000000)" fill="#E07D26">
            <path d="M642,219.2 C644.145023,219.2 646.094902,220.077709 647.508609,221.491411 C648.922318,222.905114 649.800029,224.854988 649.800029,227 C649.800029,229.145022 648.922321,231.094893 647.508616,232.508593 C646.094908,233.922296 644.145027,234.8 642,234.8 C639.854986,234.8 637.905111,233.922294 636.491406,232.50859 C635.077707,231.094891 634.2,229.145021 634.2,227 C634.2,224.85499 635.07771,222.905117 636.491414,221.491414 C637.905117,220.07771 639.85499,219.2 642,219.2 Z M642,220.799956 C640.294994,220.799956 638.744862,221.497244 637.621065,222.621046 C636.49727,223.744846 635.799985,225.294983 635.799985,227 C635.799985,228.705017 636.49727,230.255154 637.621065,231.378954 C638.744862,232.502756 640.294994,233.200044 642,233.200044 C643.705019,233.200044 645.255157,232.502758 646.378957,231.378957 C647.502758,230.255157 648.200044,228.705019 648.200044,227 C648.200044,225.294981 647.502758,223.744843 646.378957,222.621043 C645.255157,221.497242 643.705019,220.799956 642,220.799956 Z M644.900074,224.082827 L646.017189,225.199965 L641.399999,229.817155 L638.38281,226.799966 L639.500024,225.682846 L641.399995,227.582905 L644.900074,224.082827 Z" id="anniu_xuanzhong"></path>
        </g>
    </g>
</svg>