<?xml version="1.0" encoding="UTF-8"?>
<svg width="18px" height="18px" viewBox="0 0 18 18" version="1.1" xmlns="http://www.w3.org/2000/svg" xmlns:xlink="http://www.w3.org/1999/xlink">
    <title>wenhao (1)</title>
    <defs>
        <polygon id="path-1" points="0 0 17.9985168 0 17.9985168 18 0 18"></polygon>
    </defs>
    <g id="页面-1" stroke="none" stroke-width="1" fill="none" fill-rule="evenodd">
        <g id="kepler-passport-更新" transform="translate(-1304.000000, -1088.000000)">
            <g id="wenhao-(1)" transform="translate(1304.000000, 1088.000000)">
                <mask id="mask-2" fill="white">
                    <use xlink:href="#path-1"></use>
                </mask>
                <g id="Clip-2"></g>
                <path d="M8.99856628,18 C4.02766364,18 -0.00148315792,13.9708532 -0.00148315792,9.00004944 C-0.00148315792,4.0291468 4.02766364,0 8.99856628,0 C13.96937,0 17.9985168,4.0291468 17.9985168,9.00004944 C17.9985168,13.9708532 13.96937,18 8.99856628,18 Z M8.99856628,14.0625865 C9.33207906,14.0625865 9.60263178,13.9545385 9.81081771,13.7391098 C10.0189048,13.5231125 10.123591,13.2559216 10.123591,12.9375618 C10.123591,12.6191031 10.019498,12.3570538 9.81081771,12.15176 C9.60263178,11.9458977 9.33207906,11.8333013 8.99856628,11.8125618 C8.56096054,11.8333013 8.23805234,12.028559 8.02986641,12.3980878 C7.82177935,12.7682099 7.82177935,13.1377387 8.02986641,13.5079596 C8.23805234,13.8774884 8.56096054,14.0625865 8.99856628,14.0625865 Z M9.86025631,10.3877167 C9.86025631,10.3230263 9.83776175,10.1374338 9.84055503,10.1638835 C9.8175908,9.92984114 9.84848993,9.72175408 9.97670893,9.52090978 C10.0700984,9.37412658 10.2146322,9.23624234 10.4306294,9.10859188 C11.7007811,8.35821285 12.1654298,7.52230505 12.1389801,6.65268012 C12.0995776,5.3499978 11.1399744,4.07136736 9.05870833,4.05282789 C7.31891466,4.03648843 6.17535046,4.87684571 5.90479774,6.45472798 C5.83835227,6.90790688 6.14561315,7.33129903 6.59703698,7.40864571 C7.04843609,7.48609127 7.47909571,7.18926194 7.56754136,6.73988981 C7.69076707,6.0255268 8.0907006,5.7313177 9.04298686,5.73982114 C10.087575,5.74936279 10.437971,6.21623618 10.4525554,6.70281086 C10.4562386,6.78641153 10.4338182,6.86917174 10.3884336,6.9395723 C10.2719809,7.14882116 10.019498,7.39186131 9.57289447,7.65566566 C9.13123476,7.91608347 8.79154215,8.24012876 8.55302564,8.61467557 C8.18233504,9.19693865 8.1013299,9.77292303 8.16438883,10.3584491 C8.17393048,10.4468205 8.17279339,10.4355238 8.17279339,10.3877167 C8.17133495,10.6901326 8.33181264,10.9702517 8.59349113,11.1218552 C8.85516963,11.2734586 9.17797895,11.2734586 9.43965745,11.1218552 C9.70123706,10.9702517 9.86171475,10.6901326 9.86025631,10.3877167 Z" id="Fill-1" fill="#FFFFFF" mask="url(#mask-2)"></path>
            </g>
        </g>
    </g>
</svg>